<svg width="65" height="65" viewBox="0 0 65 65" fill="none" xmlns="http://www.w3.org/2000/svg">
<path d="M0.172058 28.1807L0.258151 27.7454C0.258151 27.3973 0.344244 27.0491 0.430336 26.7009L1.03299 25.0471L1.11908 24.1766L1.72173 22.3487L1.98001 21.3912L2.75484 19.6504L3.1853 18.6058L4.13232 16.5168L4.64888 15.4723L5.68199 13.8184L6.11245 13.2091L8.86742 9.90145C9.0396 9.64032 9.1257 9.55327 9.29789 9.37919L9.81444 8.85693L11.8807 6.85492C12.0528 6.68083 12.3111 6.4197 12.5694 6.24561L15.8409 4.2436L17.0462 3.72134L18.8542 2.76385L19.8012 2.24159L21.6952 1.37115L21.8674 1.28411C22.2979 1.11002 22.8144 0.935934 23.2449 0.935934L24.278 0.848892L25.225 0.674801L27.2913 0.413673C27.4634 0.413673 27.8078 0.326625 27.98 0.326625H28.6688L31.5098 0.0654966C31.9403 -0.0215461 32.2846 -0.0215461 32.629 0.0654966L33.0595 0.152539H34.0065L36.331 0.239582H36.6754C37.1058 0.152539 37.6224 0.239582 38.0528 0.326625L39.2581 0.587758L40.4634 0.761844L42.3575 1.19707L45.0264 2.15455L46.1456 2.50272L47.3509 2.93794C47.6952 3.11203 48.1257 3.28612 48.4701 3.54725L48.9005 3.89542L51.6555 5.54926L52.9469 6.50674L53.8078 7.37718L55.1853 8.85693L55.874 9.64032L57.5959 11.2942L58.0264 11.8164L58.8012 12.6869C59.2317 13.2091 59.4899 13.8184 59.6621 14.3407L60.8674 16.0816L61.2118 16.6909L62.2449 18.4317L62.5032 19.0411C62.5893 19.2151 62.6754 19.5633 62.7615 19.7374L63.1919 21.3912L63.4502 22.0876L63.7946 24.0896L64.225 25.0471L64.6555 27.0491L64.8277 28.1807L64.9138 29.8345C64.9138 30.1827 64.8277 30.4438 64.8277 30.7049L64.7416 31.2272L64.8277 31.4013C64.9999 32.0976 64.9138 32.6199 64.8277 33.3162V33.5774L64.9138 34.4478L64.9999 35.4053C64.9999 36.1017 64.9138 36.798 64.5694 37.3203L64.225 39.3223L64.0529 40.2798L63.6224 42.3688L63.4502 43.1522C63.4502 43.3263 63.3641 43.5004 63.278 43.6745L62.5893 45.4153L62.1588 46.1987C62.1588 46.2858 61.9866 46.2858 61.9866 46.3728L60.9535 47.9396L60.6091 48.8101L59.9204 50.1157C59.7482 50.3768 59.4899 50.725 59.3178 50.9861L59.2317 51.1602L57.7681 53.0752L57.2515 53.7716L54.927 56.1217L54.0661 57.1663C53.7217 57.6015 53.2913 57.9497 52.8608 58.2108L51.4833 58.9071L50.5363 59.4294L48.9866 60.2998C48.8144 60.3869 48.5562 60.4739 48.2979 60.561L47.7813 60.7351L46.9204 61.3444L45.9734 61.7796L45.1124 62.2148L43.5628 62.9112L42.3575 63.3464L39.6886 64.3039L37.7085 64.8261L37.3641 64.9132C37.0197 65.0002 36.5893 65.0002 36.2449 65.0002H32.2846L31.7681 64.9132C31.5098 64.9132 31.2515 64.8261 31.0793 64.7391L30.1323 64.565L28.3244 64.3909H27.3774L24.9668 63.9557C24.7085 63.8686 24.3641 63.7816 24.0197 63.6075L22.6423 63.0852L21.8674 62.8241L20.0595 62.3018L18.9403 61.9537L18.0793 61.6925C17.5628 61.5185 17.0462 61.3444 16.5297 60.9091L16.3575 60.8221L14.8078 60.1258C14.6356 60.0387 14.5495 59.9517 14.2913 59.7776L13.6025 59.3424L12.0528 58.2108L11.1919 57.4274C11.1058 57.3404 11.0197 57.2533 10.9336 57.1663L9.64226 55.6865C9.21179 55.4254 8.69524 55.1643 8.35087 54.642L7.66212 53.5975L6.97338 52.9011L6.02636 51.1602C5.50981 50.8121 5.07934 50.3768 4.73497 49.6805L4.3906 48.9841L4.21841 48.723C3.87404 48.2878 3.61576 47.9396 3.44358 47.3303L3.09921 46.0246L2.49656 45.1542L1.89391 43.2392L1.46345 42.3688L0.774707 40.4538C0.602522 40.0186 0.430336 39.4964 0.430336 38.8871V37.4944L0.344243 36.4498V34.5349L0.172058 33.6644V32.3588L0.0859652 31.5754L-0.000127594 30.879C-0.000127594 30.5308 -0.000127594 30.1827 -0.000127594 29.8345L0.172058 28.1807Z" fill="#FFD6C2"/>
</svg>
