<svg width="306" height="212" viewBox="0 0 306 212" fill="none" xmlns="http://www.w3.org/2000/svg">
<path d="M23.4872 0.672363H282.941C295.585 0.672363 305.819 10.9273 305.819 23.5389V188.629C305.819 201.266 295.559 211.495 282.941 211.495H23.4872C10.8436 211.495 0.609482 201.24 0.609482 188.629V23.5648C0.609482 10.9273 10.8695 0.69826 23.4872 0.69826V0.672363Z" fill="#DBF3FC"/>
<path d="M282.941 205.927H23.4871C13.9526 205.927 6.20578 198.184 6.20578 188.655V23.5649C6.20578 14.035 13.9526 6.29199 23.4871 6.29199H282.941C292.476 6.29199 300.223 14.035 300.223 23.5649V188.629C300.223 198.159 292.476 205.902 282.941 205.902V205.927ZM23.4871 10.6167C16.3621 10.6167 10.5585 16.4175 10.5585 23.539V188.603C10.5585 195.724 16.3621 201.525 23.4871 201.525H282.941C290.066 201.525 295.87 195.724 295.87 188.603V23.5649C295.87 16.4434 290.066 10.6426 282.941 10.6426H23.4871V10.6167Z" fill="#07374F"/>
<path d="M298.072 41.7442H8.38214C7.19032 41.7442 6.20578 40.7601 6.20578 39.5689C6.20578 38.3776 7.19032 37.3936 8.38214 37.3936H298.072C299.264 37.3936 300.249 38.3776 300.249 39.5689C300.249 40.7601 299.264 41.7442 298.072 41.7442Z" fill="#07374F"/>
<path d="M102.432 41.3038C101.888 41.3038 101.318 41.0967 100.904 40.6564C100.049 39.8018 100.049 38.4293 100.904 37.5748L131.58 6.9134C132.435 6.05882 133.808 6.05882 134.663 6.9134C135.518 7.76798 135.518 9.14049 134.663 9.99507L103.987 40.6564C103.572 41.0708 103.002 41.3038 102.458 41.3038H102.432Z" fill="#07374F"/>
<path d="M25.6635 30.479C28.5683 30.479 30.9231 28.1254 30.9231 25.2221C30.9231 22.3187 28.5683 19.9651 25.6635 19.9651C22.7587 19.9651 20.4039 22.3187 20.4039 25.2221C20.4039 28.1254 22.7587 30.479 25.6635 30.479Z" fill="#07374F"/>
<path d="M41.8567 30.479C44.7615 30.479 47.1163 28.1254 47.1163 25.2221C47.1163 22.3187 44.7615 19.9651 41.8567 19.9651C38.9519 19.9651 36.5972 22.3187 36.5972 25.2221C36.5972 28.1254 38.9519 30.479 41.8567 30.479Z" fill="#07374F"/>
<path d="M244.829 77.9214H200.395C190.593 77.9214 182.647 85.8634 182.647 95.6604V140.073C182.647 149.87 190.593 157.812 200.395 157.812H244.829C254.631 157.812 262.577 149.87 262.577 140.073V95.6604C262.577 85.8634 254.631 77.9214 244.829 77.9214Z" fill="white"/>
<path d="M223.532 109.023C222.055 109.023 220.863 107.832 220.863 106.356V101.306C220.863 99.8297 222.055 98.6384 223.532 98.6384C225.008 98.6384 226.2 99.8297 226.2 101.306V106.356C226.2 107.832 225.008 109.023 223.532 109.023Z" fill="#07374F"/>
<path d="M238.663 109.023H206.768C205.292 109.023 204.1 107.832 204.1 106.356C204.1 104.879 205.292 103.688 206.768 103.688H238.663C240.139 103.688 241.331 104.879 241.331 106.356C241.331 107.832 240.139 109.023 238.663 109.023Z" fill="#07374F"/>
<path d="M211.018 136.551C209.929 136.551 208.893 135.878 208.504 134.79C208.012 133.417 208.712 131.889 210.111 131.372C210.189 131.372 217.34 128.678 223.402 122.127C230.605 114.332 231.797 106.097 231.797 106.019C232.004 104.569 233.325 103.533 234.776 103.714C236.227 103.895 237.264 105.242 237.082 106.692C237.03 107.107 235.735 116.611 227.315 125.726C220.319 133.288 212.261 136.266 211.899 136.37C211.588 136.473 211.303 136.525 210.992 136.525L211.018 136.551Z" fill="#07374F"/>
<path d="M234.439 136.551C234.128 136.551 233.843 136.499 233.533 136.395C233.196 136.266 225.112 133.288 218.143 125.752C209.722 116.636 208.401 107.107 208.349 106.718C208.168 105.268 209.204 103.921 210.655 103.74C212.132 103.533 213.453 104.595 213.634 106.045C213.634 106.174 214.852 114.383 222.055 122.152C228.118 128.704 235.294 131.397 235.346 131.423C236.719 131.941 237.445 133.469 236.927 134.842C236.538 135.929 235.502 136.603 234.413 136.603L234.439 136.551Z" fill="#07374F"/>
<path d="M106.034 77.9214H61.5995C51.7977 77.9214 43.8518 85.8634 43.8518 95.6604V140.073C43.8518 149.87 51.7977 157.812 61.5995 157.812H106.034C115.836 157.812 123.781 149.87 123.781 140.073V95.6604C123.781 85.8634 115.836 77.9214 106.034 77.9214Z" fill="white"/>
<path d="M99.3491 133.003C99.2973 133.78 99.1159 134.401 98.7273 134.893C98.3646 135.386 97.9242 135.67 97.3801 135.774C96.8619 135.878 96.3177 135.774 95.7996 135.489C95.2814 135.204 94.815 134.712 94.4523 134.039C94.2191 132.123 93.8564 130.258 93.416 128.419C92.9755 126.581 92.4314 124.742 91.8355 122.903L75.694 123.033C75.694 123.033 75.5127 123.033 75.4091 123.007C75.3054 122.981 75.2277 122.981 75.124 122.981C74.1136 126.425 73.1809 129.999 72.3777 133.702C72.0668 134.557 71.5745 135.127 70.9786 135.411C70.3827 135.696 69.7868 135.748 69.2427 135.593C68.6986 135.437 68.2582 135.075 67.8954 134.505C67.5586 133.935 67.4549 133.21 67.6104 132.304C68.9577 126.425 70.564 120.65 72.4554 115.031C74.3468 109.411 76.7045 103.921 79.5546 98.5608C79.7877 97.7839 80.3577 97.2919 81.2646 97.1106C81.705 96.9552 82.1455 96.9293 82.5341 97.007C82.9227 97.0847 83.2854 97.2919 83.5704 97.5767C83.6223 97.5767 83.6222 97.5767 83.6222 97.6026C83.6222 97.6026 83.6223 97.6285 83.6741 97.6285C85.7727 99.6485 87.5605 101.953 88.9596 104.517C90.3846 107.081 91.68 109.67 92.846 112.312C93.2864 113.244 93.7009 114.176 94.0895 115.109C94.4782 116.041 94.8409 116.973 95.2036 117.905L98.4423 117.854C99.2195 118.087 99.7895 118.475 100.152 118.941C100.515 119.433 100.696 119.925 100.67 120.443C100.645 120.961 100.437 121.427 100.023 121.893C99.6082 122.36 99.0382 122.67 98.261 122.852H96.9914C97.5095 124.509 97.9759 126.192 98.3645 127.876C98.7532 129.559 99.0382 131.268 99.2455 133.029L99.3491 133.003ZM82.5341 103.714C81.3941 106.019 80.3577 108.376 79.3991 110.784C78.4405 113.192 77.5595 115.601 76.7563 118.035L90.0477 117.905C89.5295 116.688 88.9855 115.497 88.4414 114.306C87.8973 113.115 87.3273 111.949 86.7573 110.784C86.1096 109.619 85.4618 108.401 84.8141 107.184C84.1664 105.967 83.415 104.802 82.56 103.714H82.5341Z" fill="#07374F"/>
<path d="M167.205 104.154L139.249 103.921C137.772 103.921 136.581 102.704 136.606 101.228C136.606 99.752 137.798 98.5867 139.275 98.5867L167.231 98.8197C168.708 98.8197 169.9 100.037 169.874 101.513C169.874 102.989 168.682 104.154 167.205 104.154Z" fill="#9ED2F0"/>
<path d="M151.323 115.989C150.649 115.989 149.95 115.73 149.432 115.212L137.358 103.144C136.866 102.652 136.581 101.953 136.581 101.254C136.581 100.555 136.866 99.8556 137.358 99.3636L148.939 87.7879C149.976 86.752 151.66 86.752 152.722 87.7879C153.758 88.8237 153.758 90.507 152.722 91.5688L143.032 101.254L153.214 111.431C154.251 112.467 154.251 114.15 153.214 115.212C152.696 115.73 152.022 115.989 151.323 115.989Z" fill="#9ED2F0"/>
<path d="M139.249 141.264C137.798 141.264 136.606 140.073 136.581 138.623C136.581 137.146 137.746 135.955 139.223 135.929L167.179 135.696C168.63 135.696 169.822 136.888 169.848 138.338C169.848 139.814 168.682 141.005 167.205 141.031L139.249 141.264Z" fill="#9ED2F0"/>
<path d="M155.132 153.073C154.458 153.073 153.758 152.814 153.24 152.296C152.204 151.26 152.204 149.577 153.24 148.515L163.423 138.338L153.733 128.652C152.696 127.617 152.696 125.933 153.733 124.872C154.769 123.836 156.453 123.836 157.515 124.872L169.097 136.447C169.589 136.939 169.874 137.639 169.874 138.338C169.874 139.037 169.589 139.736 169.097 140.228L157.023 152.296C156.505 152.814 155.831 153.073 155.132 153.073Z" fill="#9ED2F0"/>
</svg>
