<svg width="486" height="276" viewBox="0 0 486 276" fill="none" xmlns="http://www.w3.org/2000/svg">
<path d="M461.133 207.358C435.254 208.962 409.203 207.755 383.227 207.755C402.743 189.674 423.137 176.104 444.899 165.285C467.91 153.839 470.869 141.347 451.831 124.066C441.162 101.427 425.378 96.4643 404.48 109.176C400.276 111.745 396.7 115.344 392.84 118.466C391.484 118.176 390.454 118.627 389.747 119.818C383.045 120.649 377.667 123.744 373.695 129.231C364.532 129.279 358.602 140.602 344.497 135.839C357.911 112.191 370.499 89.3896 383.72 66.9588C390.519 55.427 392.036 46.5019 376.552 40.5106C370.371 38.1185 364.704 34.5838 359.653 30.2875C339.607 13.2525 328.52 20.2843 318.349 42.109C308.007 64.3038 294.046 84.8091 281.672 106.06C276.6 84.4014 276.976 65.6072 276.525 46.8344C275.281 -5.03216 286.331 2.40724 230.262 0.760593C212.602 0.240319 208.645 7.1648 209.358 23.2933C210.548 50.074 209.68 76.946 209.68 103.78C194.748 88.4403 185.05 71.7754 175.11 55.2553C150.035 13.569 150.27 14.0249 108.479 41.047C97.4717 48.1646 94.5444 54.1772 101.755 65.4516C114.607 85.5439 126.686 106.124 139.129 126.474C138.872 129.226 138.69 131.151 138.433 133.908C137.387 135.061 136.347 136.214 135.307 137.351C110.403 128.308 89.6709 111.542 66.1345 99.9775C60.2155 97.0704 53.0581 88.2204 48.4527 101.699C48.442 101.683 48.9727 102.279 48.9727 102.279C47.3482 104.22 45.7184 106.162 44.0885 108.109C44.11 108.05 44.1207 107.996 44.1421 107.937C40.9897 111.89 37.3493 115.554 34.7651 119.85C16.129 150.841 16.2738 150.75 47.3214 168.375C66.5151 179.274 85.4515 190.629 104.495 201.79C103.884 204.301 103.927 204.113 103.316 206.623C85.6123 207.492 67.9091 208.366 50.2059 209.235C39.8959 206.982 29.586 207.294 19.2708 209.176C-12.297 211.681 5.91023 233.474 4.3876 247.617C4.37688 249.463 4.36616 251.308 4.35544 253.153C-1.13997 272.773 8.81609 275.798 25.8224 275.739C164.36 275.256 302.898 275.482 441.441 275.444C493.264 275.428 483.243 279.354 485.442 231.918C486.337 212.663 480.574 206.167 461.128 207.369L461.133 207.358Z" fill="#9ED2F0" fill-opacity="0.15"/>
</svg>
