<svg width="861" height="820" viewBox="0 0 861 820" fill="none" xmlns="http://www.w3.org/2000/svg">
<path d="M429.714 12.0845C538.326 10.5616 439.821 215.186 318.259 172.305C178.864 123.131 260.147 350.838 56.2865 334.652C-58.9147 325.502 49.678 442.843 19.3906 513.439C-55.2708 687.454 115.972 818.887 182.661 752.231C249.349 685.576 326.264 618.546 390.825 660.03C455.38 701.521 434.894 822.973 600.526 818.614C977.68 775.454 730.588 585.76 830.211 499.606C935.776 408.319 723.212 403.147 801.619 312.621C880.026 222.096 865.615 66.145 741.463 55.2123C572.86 40.3647 529.775 128.556 474.292 128.556C418.808 128.556 414.859 71.716 419.291 1.00586" stroke="#4F8199" stroke-linecap="round" stroke-linejoin="round" stroke-dasharray="7 13.99"/>
</svg>
