<svg width="282" height="63" viewBox="0 0 282 63" fill="none" xmlns="http://www.w3.org/2000/svg">
<g filter="url(#filter0_d_434_767)">
<rect x="6.63452" y="6.18134" width="265" height="34" rx="10" transform="rotate(-0.330113 6.63452 6.18134)" fill="#EFF7F9"/>
<path d="M21.9111 28.0937L21.8653 20.1558L19.0234 20.1722L19.0126 18.3102L26.7965 18.2654L26.8072 20.1273L23.9653 20.1437L24.011 28.0816L21.9111 28.0937ZM26.8991 28.0649L26.8572 20.7851L28.9012 20.7733L28.9113 22.5373L28.9673 22.5369C29.2132 21.4715 29.8946 20.6836 31.0566 20.6769C31.2246 20.6759 31.4067 20.6889 31.617 20.7436L31.6269 22.4656C31.4028 22.4389 31.2347 22.4259 31.0527 22.4269C29.9607 22.4332 28.9144 23.0693 28.9245 24.8332L28.9431 28.0532L26.8991 28.0649ZM32.8718 29.1086C34.3148 29.2822 34.6617 28.7482 34.8274 28.3553C34.9793 27.9904 34.9781 27.7664 34.8077 27.3614L32.0956 20.7549L34.1956 20.7428L35.9167 25.4369L37.6255 20.723L39.7255 20.7109L36.7858 28.064C35.8888 30.3232 34.9689 31.0425 32.8817 30.8305L32.8718 29.1086ZM47.2661 28.0876C45.4321 28.0982 43.6056 26.9747 43.5904 24.3287C43.5751 21.6828 45.3886 20.5383 47.2225 20.5277C49.0565 20.5172 50.883 21.6407 50.8983 24.2866C50.9135 26.9326 49.1001 28.077 47.2661 28.0876ZM47.2563 26.3936C48.2363 26.388 48.9886 25.7396 48.9803 24.2977C48.972 22.8557 48.2123 22.2161 47.2323 22.2217C46.2523 22.2273 45.5 22.8757 45.5083 24.3177C45.5167 25.7596 46.2764 26.3993 47.2563 26.3936ZM54.0534 24.7584C54.0598 25.8644 54.5526 26.3516 55.4066 26.3467C56.2606 26.3417 56.9298 25.8479 56.9234 24.7419L56.8996 20.612L58.9436 20.6002L58.9855 27.8801L56.9415 27.8919L56.9327 26.3659L56.8487 26.3664C56.7267 27.0531 56.0324 28.0371 54.5344 28.0457C53.1204 28.0539 52.0232 27.1502 52.0123 25.2602L51.9857 20.6403L54.0296 20.6285L54.0534 24.7584ZM60.4357 27.8717L60.3937 20.5918L62.4377 20.5801L62.4479 22.344L62.5039 22.3437C62.7497 21.2783 63.4312 20.4903 64.5932 20.4836C64.7612 20.4827 64.9433 20.4956 65.1536 20.5504L65.1635 22.2724C64.9393 22.2457 64.7713 22.2326 64.5893 22.2337C63.4973 22.24 62.4509 22.876 62.4611 24.64L62.4796 27.8599L60.4357 27.8717ZM72.0967 27.9445C70.5707 27.9533 68.8983 26.8569 68.8829 24.183C68.8675 21.509 70.5271 20.3935 72.0531 20.3847C73.1311 20.3784 73.9323 20.9338 74.2019 21.5623L74.1813 17.9924L76.2253 17.9806L76.2818 27.7804L74.2378 27.7922L74.2318 26.7422C73.9694 27.3737 73.1746 27.9383 72.0967 27.9445ZM72.5769 26.2477C73.4729 26.2426 74.3091 25.5797 74.3008 24.1518C74.2926 22.7238 73.4488 22.0706 72.5528 22.0758C71.6429 22.0811 70.8067 22.7439 70.8149 24.1719C70.8231 25.5998 71.6669 26.253 72.5769 26.2477ZM81.0627 27.8929C79.2148 27.9035 77.3889 26.892 77.3729 24.1201C77.3573 21.4041 79.0732 20.3442 81.0052 20.3331C82.8812 20.3223 84.4688 21.2931 84.4847 24.0511C84.4862 24.3171 84.473 24.4572 84.4459 24.6113L79.322 24.6409C79.441 25.8582 80.0738 26.3445 81.0818 26.3387C82.0198 26.3333 82.4236 25.953 82.5882 25.364L84.3942 25.3536C84.0398 27.0217 82.7567 27.8831 81.0627 27.8929ZM79.315 23.4369L82.549 23.4182C82.5161 22.5784 82.0781 21.8809 80.9581 21.8874C80.0062 21.8929 79.4492 22.4281 79.315 23.4369ZM94.7092 23.5442C94.7029 22.4382 94.2381 21.9509 93.4961 21.9551C92.7681 21.9593 92.1829 22.4527 92.1893 23.5587L92.2131 27.6886L90.1691 27.7004L90.1453 23.5705C90.1389 22.4645 89.6741 21.9772 88.9321 21.9814C88.2042 21.9856 87.619 22.479 87.6254 23.585L87.6492 27.7149L85.6052 27.7267L85.5632 20.4468L87.6072 20.435L87.616 21.961L87.7 21.9605C87.808 21.2739 88.5444 20.2896 89.8184 20.2823C90.8263 20.2765 91.6835 20.8176 92.0259 21.9356C92.1621 21.2628 92.9543 20.2642 94.3263 20.2563C95.7123 20.2483 96.7395 21.1524 96.7504 23.0424L96.777 27.6623L94.733 27.6741L94.7092 23.5442ZM101.543 27.7749C99.7086 27.7854 97.8821 26.662 97.8668 24.016C97.8516 21.37 99.665 20.2256 101.499 20.215C103.333 20.2044 105.159 21.3279 105.175 23.9739C105.19 26.6198 103.377 27.7643 101.543 27.7749ZM101.533 26.0809C102.513 26.0753 103.265 25.4269 103.257 23.9849C103.248 22.543 102.489 21.9033 101.509 21.909C100.529 21.9146 99.7765 22.563 99.7848 24.0049C99.7931 25.4469 100.553 26.0866 101.533 26.0809ZM106.746 24.2028L106.444 17.8065L108.516 17.7945L108.3 24.1939L106.746 24.2028ZM107.537 27.7403C106.865 27.7442 106.302 27.2154 106.298 26.5295C106.294 25.8575 106.851 25.3083 107.523 25.3044C108.209 25.3004 108.772 25.8432 108.776 26.5152C108.78 27.2012 108.223 27.7364 107.537 27.7403ZM117.347 27.6838C114.813 27.6984 113.252 26.5174 113.24 24.3614L115.41 24.3489C115.457 25.2307 115.993 25.9556 117.351 25.9478C118.457 25.9414 119.098 25.4617 119.093 24.6637C119.09 23.9917 118.626 23.6864 117.729 23.5096L116.355 23.2375C114.799 22.9524 113.493 22.2599 113.483 20.51C113.472 18.62 114.993 17.6312 117.247 17.6182C119.543 17.605 121.018 18.6045 121.03 20.6205L118.874 20.6329C118.897 19.7508 118.181 19.3489 117.215 19.3544C116.081 19.361 115.678 19.9233 115.681 20.4973C115.684 20.9453 115.966 21.3777 116.849 21.5546L118.111 21.7993C120.424 22.262 121.311 23.1529 121.319 24.6369C121.331 26.7508 119.587 27.6709 117.347 27.6838ZM125.906 27.6345C124.058 27.6452 122.232 26.6337 122.216 23.8617C122.2 21.1457 123.916 20.0858 125.848 20.0747C127.724 20.0639 129.312 21.0348 129.328 23.7927C129.329 24.0587 129.316 24.1988 129.289 24.353L124.165 24.3825C124.284 25.5998 124.917 26.0862 125.925 26.0804C126.863 26.075 127.267 25.6946 127.431 25.1057L129.237 25.0953C128.883 26.7633 127.6 27.6247 125.906 27.6345ZM124.158 23.1785L127.392 23.1599C127.359 22.32 126.921 21.6226 125.801 21.629C124.849 21.6345 124.292 22.1697 124.158 23.1785ZM130.448 27.4683L130.392 17.6685L132.436 17.6567L132.492 27.4566L130.448 27.4683ZM137.267 27.569C135.419 27.5797 133.593 26.5682 133.577 23.7962C133.561 21.0803 135.277 20.0204 137.209 20.0093C139.085 19.9984 140.673 20.9693 140.689 23.7273C140.69 23.9933 140.677 24.1333 140.65 24.2875L135.526 24.317C135.645 25.5344 136.278 26.0207 137.286 26.0149C138.224 26.0095 138.628 25.6292 138.792 25.0402L140.598 25.0298C140.244 26.6979 138.961 27.5593 137.267 27.569ZM135.519 23.113L138.753 23.0944C138.72 22.2546 138.282 21.5571 137.162 21.5636C136.21 21.569 135.653 22.1043 135.519 23.113ZM145.196 27.5234C143.404 27.5337 141.522 26.4945 141.507 23.7786C141.491 21.0626 143.361 19.9738 145.153 19.9635C146.427 19.9561 148.222 20.4498 148.502 22.8982L146.654 22.9089C146.467 22.028 145.933 21.667 145.149 21.6715C143.987 21.6782 143.432 22.5634 143.439 23.7674C143.446 24.9714 144.011 25.8222 145.173 25.8155C145.985 25.8108 146.486 25.4019 146.663 24.5329L148.511 24.5222C148.301 26.9735 146.484 27.5159 145.196 27.5234ZM152.835 27.4374C151.379 27.4457 150.409 26.7933 150.4 25.1693L150.38 21.6554L149.148 21.6625L149.139 20.0805L150.371 20.0734L150.36 18.1975L152.404 18.1857L152.415 20.0617L153.857 20.0533L153.866 21.6353L152.424 21.6436L152.442 24.8636C152.445 25.4236 152.616 25.8006 153.372 25.7962C153.526 25.7953 153.652 25.7946 153.945 25.7649L153.954 27.2909C153.633 27.3768 153.241 27.435 152.835 27.4374ZM158.46 28.385C159.903 28.5587 160.249 28.0246 160.415 27.6317C160.567 27.2668 160.566 27.0428 160.395 26.6378L157.683 20.0313L159.783 20.0192L161.504 24.7134L163.213 19.9994L165.313 19.9873L162.374 27.3404C161.477 29.5996 160.557 30.3189 158.469 30.1069L158.46 28.385ZM169.135 27.3854C167.301 27.396 165.475 26.2725 165.459 23.6266C165.444 20.9806 167.258 19.8361 169.092 19.8256C170.926 19.815 172.752 20.9385 172.767 23.5844C172.783 26.2304 170.969 27.3749 169.135 27.3854ZM169.125 25.6915C170.105 25.6858 170.858 25.0375 170.849 23.5955C170.841 22.1535 170.081 21.5139 169.101 21.5195C168.121 21.5252 167.369 22.1735 167.377 23.6155C167.386 25.0575 168.145 25.6971 169.125 25.6915ZM175.923 24.0563C175.929 25.1623 176.422 25.6494 177.276 25.6445C178.13 25.6396 178.799 25.1457 178.792 24.0397L178.769 19.9098L180.813 19.898L180.855 27.1779L178.811 27.1897L178.802 25.6637L178.718 25.6642C178.596 26.3509 177.901 27.3349 176.403 27.3436C174.989 27.3517 173.892 26.448 173.881 24.558L173.855 19.9381L175.899 19.9263L175.923 24.0563ZM182.305 27.1696L182.263 19.8897L184.307 19.8779L184.317 21.6419L184.373 21.6415C184.619 20.5761 185.3 19.7882 186.462 19.7815C186.63 19.7805 186.812 19.7935 187.023 19.8483L187.033 21.5702C186.808 21.5435 186.64 21.5305 186.458 21.5315C185.366 21.5378 184.32 22.1739 184.33 23.9378L184.349 27.1578L182.305 27.1696ZM191.123 27.1187L191.067 17.3189L193.166 17.3068L193.212 25.2867L197.72 25.2607L197.731 27.0807L191.123 27.1187ZM200.686 27.2037C199.496 27.2105 198.345 26.6431 198.336 25.1452C198.327 23.5352 199.641 23.1776 200.9 22.9884L202.13 22.7993C202.802 22.6974 203.011 22.5842 203.009 22.1782L203.008 22.0802C203.004 21.3102 202.499 21.1031 201.869 21.1067C201.211 21.1105 200.624 21.3239 200.628 22.0799L200.629 22.2199L198.711 22.2309L198.709 21.895C198.701 20.467 199.648 19.6495 201.916 19.6364C204.114 19.6238 205.001 20.4027 205.01 21.9847L205.039 27.0386L203.093 27.0498L203.086 25.7618L203.002 25.7623C202.864 26.1551 202.282 27.1945 200.686 27.2037ZM201.377 25.7436C202.343 25.7381 203.026 25.0901 203.022 24.5161L203.018 23.7042C202.907 23.8728 202.557 23.9308 202.235 23.9887L201.214 24.1766C200.585 24.2782 200.377 24.5874 200.379 24.9654C200.382 25.4134 200.677 25.7477 201.377 25.7436ZM211.448 22.8716C211.442 21.7656 210.949 21.2784 210.095 21.2833C209.241 21.2883 208.572 21.7821 208.578 22.8881L208.602 27.018L206.558 27.0298L206.516 19.7499L208.56 19.7382L208.569 21.2641L208.653 21.2637C208.775 20.5769 209.469 19.5929 210.967 19.5843C212.381 19.5761 213.479 20.4798 213.49 22.3698L213.516 26.9897L211.472 27.0015L211.448 22.8716ZM218.161 29.889C216.887 29.8964 214.799 29.5444 214.773 27.4025L216.579 27.3921C216.625 28.0918 217.438 28.3112 218.096 28.3074C219.062 28.3018 219.843 27.8213 219.837 26.6873L219.831 25.7773L219.803 25.7775C219.457 26.3255 218.689 26.7779 217.695 26.7836C216.225 26.7921 214.61 25.8354 214.594 23.1755C214.579 20.5435 216.198 19.5542 217.654 19.5458C218.648 19.54 219.42 19.9836 219.773 20.5276L219.801 20.5274L219.796 19.6734L221.84 19.6616L221.881 26.6755C221.896 29.3775 219.631 29.8805 218.161 29.889ZM218.245 25.0724C219.141 25.0673 219.922 24.4608 219.914 23.1448C219.907 21.8428 219.119 21.2313 218.223 21.2365C217.299 21.2418 216.519 21.8623 216.526 23.1643C216.534 24.4803 217.321 25.0778 218.245 25.0724ZM225.359 23.7714C225.366 24.8774 225.858 25.3646 226.712 25.3597C227.566 25.3548 228.236 24.8609 228.229 23.7549L228.205 19.625L230.249 19.6132L230.291 26.8931L228.247 26.9049L228.238 25.3789L228.155 25.3794C228.032 26.0661 227.338 27.0501 225.84 27.0587C224.426 27.0669 223.329 26.1632 223.318 24.2732L223.291 19.6533L225.335 19.6415L225.359 23.7714ZM233.73 27.0133C232.54 27.0201 231.389 26.4527 231.38 24.9548C231.371 23.3448 232.685 22.9872 233.944 22.798L235.175 22.6089C235.846 22.507 236.056 22.3938 236.053 21.9878L236.053 21.8898C236.048 21.1198 235.543 20.9127 234.913 20.9163C234.255 20.9201 233.668 21.1335 233.673 21.8895L233.673 22.0295L231.756 22.0406L231.754 21.7046C231.745 20.2766 232.693 19.4591 234.961 19.446C237.159 19.4334 238.045 20.2123 238.054 21.7943L238.083 26.8482L236.137 26.8594L236.13 25.5714L236.046 25.5719C235.908 25.9647 235.326 27.0041 233.73 27.0133ZM234.422 25.5533C235.388 25.5477 236.07 24.8997 236.067 24.3258L236.062 23.5138C235.951 23.6824 235.601 23.7404 235.28 23.7983L234.259 23.9862C233.629 24.0878 233.421 24.397 233.423 24.775C233.426 25.223 233.722 25.5573 234.422 25.5533ZM242.661 29.7479C241.387 29.7552 239.299 29.4032 239.272 27.2613L241.078 27.2509C241.124 27.9507 241.938 28.17 242.596 28.1662C243.562 28.1606 244.343 27.6801 244.336 26.5461L244.331 25.6362L244.303 25.6363C243.956 26.1843 243.189 26.6368 242.195 26.6425C240.725 26.651 239.109 25.6943 239.094 23.0343C239.079 20.4023 240.697 19.413 242.153 19.4046C243.147 19.3989 243.92 19.8424 244.273 20.3864L244.301 20.3863L244.296 19.5323L246.34 19.5205L246.38 26.5344C246.396 29.2363 244.131 29.7394 242.661 29.7479ZM242.745 24.9313C243.641 24.9261 244.421 24.3196 244.414 23.0036C244.406 21.7017 243.619 21.0902 242.723 21.0954C241.799 21.1007 241.018 21.7212 241.026 23.0232C241.034 24.3391 241.821 24.9366 242.745 24.9313ZM251.152 26.9129C249.304 26.9235 247.478 25.912 247.462 23.1401C247.446 20.4241 249.162 19.3642 251.094 19.3531C252.97 19.3423 254.558 20.3132 254.574 23.0711C254.575 23.3371 254.562 23.4772 254.535 23.6313L249.411 23.6609C249.53 24.8782 250.163 25.3646 251.171 25.3588C252.109 25.3533 252.513 24.973 252.677 24.3841L254.483 24.3737C254.129 26.0417 252.846 26.9031 251.152 26.9129ZM249.404 22.4569L252.638 22.4383C252.605 21.5984 252.167 20.9009 251.047 20.9074C250.095 20.9129 249.538 21.4481 249.404 22.4569ZM256.137 23.3421L255.834 16.9457L257.906 16.9338L257.691 23.3332L256.137 23.3421ZM256.927 26.8796C256.255 26.8835 255.692 26.3547 255.688 25.6687C255.684 24.9967 256.241 24.4475 256.913 24.4437C257.599 24.4397 258.162 24.9825 258.166 25.6545C258.17 26.3404 257.613 26.8757 256.927 26.8796Z" fill="#1F5068"/>
<path d="M140.243 47.9122C139.862 48.5811 138.9 48.5867 138.511 47.9222L133.555 39.4506L145.102 39.3841L140.243 47.9122Z" fill="#EFF7F9"/>
</g>
<defs>
<filter id="filter0_d_434_767" x="0.634521" y="0.654531" width="281.249" height="61.5261" filterUnits="userSpaceOnUse" color-interpolation-filters="sRGB">
<feFlood flood-opacity="0" result="BackgroundImageFix"/>
<feColorMatrix in="SourceAlpha" type="matrix" values="0 0 0 0 0 0 0 0 0 0 0 0 0 0 0 0 0 0 127 0" result="hardAlpha"/>
<feOffset dx="2" dy="4"/>
<feGaussianBlur stdDeviation="4"/>
<feComposite in2="hardAlpha" operator="out"/>
<feColorMatrix type="matrix" values="0 0 0 0 9.24556e-05 0 0 0 0 0.0256102 0 0 0 0 0.0383691 0 0 0 0.6 0"/>
<feBlend mode="normal" in2="BackgroundImageFix" result="effect1_dropShadow_434_767"/>
<feBlend mode="normal" in="SourceGraphic" in2="effect1_dropShadow_434_767" result="shape"/>
</filter>
</defs>
</svg>
