<svg width="201" height="183" viewBox="0 0 201 183" fill="none" xmlns="http://www.w3.org/2000/svg">
<path d="M96.9635 180.476C94.6835 179.363 40.9219 152.819 14.1059 100.404C-7.21728 58.7371 1.38468 33.2809 8.40606 21.8088C16.8265 8.05783 31.3615 0.159424 48.306 0.159424C66.2352 0.159424 84.4753 8.65345 100.358 24.2431C116.24 8.65345 134.48 0.159424 152.409 0.159424C169.354 0.159424 183.889 8.05783 192.309 21.8088C199.33 33.2809 207.932 58.7371 186.609 100.404C159.793 152.819 106.032 179.363 103.752 180.476L100.358 182.134L96.9635 180.476Z" fill="#07374F"/>
<path d="M100.358 174.986C100.125 174.986 99.9172 174.934 99.71 174.831C99.1659 174.572 45.5598 148.106 19.7025 97.5558C5.55611 69.9243 -1.54295 31.2869 24.9362 13.3148C45.9485 -0.954153 76.7804 7.28091 100.384 33.2809C123.987 7.28091 154.845 -0.954153 175.831 13.3148C202.31 31.2869 195.185 69.9502 181.065 97.5558C155.207 148.106 101.601 174.572 101.057 174.831C100.85 174.934 100.617 174.986 100.409 174.986H100.358ZM48.4357 9.508C39.9634 9.508 32.4497 11.8387 26.5943 15.8008C1.74739 32.6853 8.79467 69.6395 22.3711 96.1833C46.2075 142.797 94.1654 168.59 100.358 171.801C106.55 168.616 154.482 142.797 178.344 96.1833C191.921 69.6395 198.942 32.6853 174.121 15.8008C157.72 4.66537 128.029 6.40042 101.498 36.5438C100.928 37.1913 99.8136 37.1913 99.2177 36.5438C82.1436 17.1474 63.748 9.508 48.4357 9.508Z" fill="#EFF7F9"/>
</svg>
