<svg xmlns="http://www.w3.org/2000/svg" width="95" height="98" viewBox="0 0 95 98" fill="none">
	<path d="M68.754 37.2973C67.8912 38.3055 68.5989 38.0147 67.5324 38.8194L65.1766 35.7363C66.1558 35.174 65.8649 35.5715 66.9314 35.1353C67.4646 34.922 67.8524 34.0882 68.8122 35.4455C69.4036 36.2696 68.7443 37.2973 68.7443 37.2973H68.754Z" fill="#DBF3FC"/>
	<path d="M54.5606 50.0654C54.9581 49.8424 55.3168 49.5613 55.6368 49.2414C56.6353 48.2234 56.1797 47.4187 56.965 46.6334C57.217 46.3038 58.5065 45.9548 58.9136 45.567C59.0979 45.3925 59.3111 44.9853 59.7474 44.5975C60.0867 44.2969 61.1338 44.0449 61.5022 43.725C61.9288 43.3566 62.0257 42.9494 62.4329 42.3095C62.8304 41.6987 63.0244 41.8926 63.7127 41.4079C64.052 41.1752 64.1586 40.6226 64.6434 40.4674C64.9827 40.3511 65.5159 40.3802 65.8455 40.1184C66.1558 39.8761 66.2527 39.5271 66.5338 39.3429C66.8732 39.1199 66.9507 39.2459 67.5227 38.8097L65.1669 35.7363C64.8373 35.9496 64.5561 36.2405 64.2847 36.541L63.6933 37.21C63.3927 37.5299 63.063 37.811 62.6365 37.9856C62.2002 38.1601 61.793 38.4025 61.4246 38.703C60.6587 39.3235 60.3388 40.3027 59.9704 40.6226C59.854 41.0492 59.0494 41.1364 58.5938 41.3303C58.1575 41.5242 57.44 42.5519 56.9941 42.7748C56.6257 42.959 56.3057 43.1529 56.1215 43.3275C55.7725 43.6474 55.5107 43.9964 55.2781 44.3358C55.1326 44.5684 54.6285 44.8496 54.5412 45.1113C54.3086 45.7997 53.8917 45.8482 53.756 46.0808C53.4846 46.5656 53.8723 46.7013 53.3779 47.1278C53.0677 47.409 52.6798 47.6611 52.2144 47.8841C51.8169 48.0974 51.6909 48.6888 51.2741 49.0475C50.9541 49.3092 50.0525 49.5903 49.5872 50.1623L52.5828 52.6152C52.7864 52.4116 52.6411 52.1498 52.932 51.8008C53.1356 51.539 53.533 51.4033 53.7075 51.1222C53.9596 50.7247 54.1244 50.3078 54.5412 50.0557L54.5606 50.0654Z" fill="#DBF3FC"/>
	<path d="M48.7632 52.053C49.3449 50.7733 48.7147 51.2774 49.6164 50.1819L52.6218 52.6347C51.8365 53.3618 51.9916 52.9159 51.1384 53.5945C50.6925 53.9338 50.6247 54.787 49.2577 53.8466C48.4142 53.2746 48.7729 52.053 48.7729 52.053H48.7632Z" fill="#DBF3FC"/>
	<path d="M32.9122 30.7629L86.2825 95.0207C87.4459 96.4167 89.7049 96.4167 91.3045 95.0207C92.8945 93.6246 93.195 91.3851 91.9734 90.0472L35.4813 28.5137C34.9481 27.932 33.9592 27.9513 33.2612 28.5524C32.5631 29.1632 32.408 30.1327 32.9219 30.7435L32.9122 30.7629Z" fill="#FFB48E"/>
	<path d="M48.2784 46.5753C48.0263 46.0518 47.7064 45.5768 47.338 45.1211C46.1843 43.6863 45.2729 44.0449 44.3713 42.9591C44.0029 42.5907 43.5182 41.0589 43.0528 40.4966C42.8492 40.2445 42.3742 39.9246 41.8895 39.3526C41.5211 38.9164 41.1429 37.6463 40.7357 37.1616C40.6775 37.0937 40.6194 37.0258 40.5613 36.9677L40.4739 36.8901H40.4546C40.4546 36.8901 40.3964 36.9289 40.3382 36.9386C40.2315 36.958 40.0764 36.9483 39.8631 36.861C39.4075 36.6477 39.7663 36.6574 39.805 36.5992C39.805 36.5799 39.6111 36.4732 39.4269 36.3472C39.2427 36.2308 39.0779 36.0854 39.2621 36.163C39.4851 36.2405 40.4642 36.8513 40.4836 36.8804C40.4933 36.8998 39.7953 36.3763 39.8631 36.415C39.9601 36.4732 40.4836 36.8804 40.4836 36.8804L30.7693 29.076C30.7015 29.202 30.7209 29.3765 30.847 29.6868C30.9245 29.8904 31.0505 30.1618 31.1863 30.4333C31.3802 30.8502 31.5256 31.238 31.4577 31.5967C31.4287 31.684 31.4577 31.81 31.5256 31.9554C31.5934 32.1105 31.7291 32.3044 31.8746 32.4983C32.1654 32.8958 32.4951 33.3321 32.8635 33.7781C33.6294 34.7185 34.5988 35.6686 35.3744 36.3957C36.1597 37.1325 36.7802 37.656 37.1098 38.0632C37.294 38.1892 37.4589 38.3637 37.614 38.5576C37.7594 38.7515 37.9533 39.0424 37.9824 39.1587C38.1181 39.4883 38.2248 39.8567 38.3508 40.1282C38.5932 40.6517 39.7857 41.6309 40.0571 42.1738C40.2801 42.6198 40.5127 43.0173 40.7066 43.2596C41.0847 43.7056 41.4726 44.074 41.8604 44.394C42.1221 44.6073 42.4421 45.2277 42.7329 45.3828C43.4891 45.79 43.557 46.2651 43.8187 46.4686C44.352 46.8855 44.4973 46.4783 44.9627 47.1376C45.2632 47.5545 45.5445 48.0393 45.7868 48.6209C46.0001 49.1154 46.6496 49.4256 47.018 49.9782C47.2991 50.4048 47.5318 51.4713 48.0941 52.1499L51.0705 49.6777C50.8572 49.3771 50.5469 49.4353 50.1688 48.9797C49.8974 48.65 49.7424 48.1653 49.4224 47.8647C48.9765 47.4575 48.511 47.1376 48.2396 46.585L48.2784 46.5753Z" fill="#FFB48E"/>
	<path d="M65.0021 66.7019C64.7501 66.1783 64.4302 65.7033 64.0618 65.2476C62.9081 63.8128 61.9967 64.1715 61.0951 63.0857C60.7267 62.7173 60.2419 61.1855 59.7766 60.6232C59.573 60.3711 59.098 60.0512 58.6132 59.4792C58.2448 59.0429 57.8667 57.7729 57.4595 57.2881C57.0038 56.7355 56.5385 56.561 55.7726 55.989C55.0455 55.4461 55.2297 55.2522 54.5995 54.3797C54.299 53.9628 53.6687 53.7689 53.4264 53.1872C53.2519 52.78 53.2034 52.1595 52.8544 51.7426C52.5345 51.3548 52.137 51.2094 51.8849 50.8604C51.5844 50.4435 51.7105 50.366 51.1191 49.6583L48.1427 52.1305C48.4335 52.5279 48.7826 52.8672 49.1607 53.1969L49.9848 53.9337C50.3822 54.3118 50.741 54.719 50.9834 55.2134C51.2354 55.7369 51.5553 56.212 51.9237 56.6677C52.6896 57.6178 53.8045 58.0928 54.202 58.5679C54.6771 58.7618 54.8613 59.6925 55.1134 60.2354C55.3558 60.7589 56.5481 61.7381 56.8196 62.281C57.0426 62.727 57.2753 63.1244 57.4692 63.3668C57.8473 63.8128 58.2352 64.1812 58.6229 64.5012C58.8847 64.7144 59.2045 65.3349 59.4954 65.49C60.2516 65.8972 60.3195 66.3723 60.5812 66.5759C61.1144 66.9928 61.2599 66.5855 61.7253 67.2448C62.0258 67.6617 62.3069 68.1464 62.5493 68.7281C62.7626 69.2226 63.4122 69.5328 63.7806 70.0854C64.0617 70.512 64.2944 71.5784 64.8567 72.2571L67.8331 69.7849C67.6198 69.4844 67.3095 69.5425 66.9314 69.0868C66.66 68.7572 66.5048 68.2724 66.1849 67.9719C65.7389 67.5647 65.2736 67.2448 65.0021 66.6922V66.7019Z" fill="#FFB48E"/>
	<path d="M81.716 86.8285C81.4639 86.305 81.144 85.8299 80.7756 85.3743C79.6219 83.9394 78.7106 84.2982 77.8089 83.2123C77.4405 82.8439 76.9558 81.3121 76.4905 80.7498C76.2869 80.4978 75.8119 80.1778 75.3271 79.6058C74.9587 79.1695 74.5805 77.8995 74.1734 77.4148C73.7177 76.8622 73.2523 76.6877 72.4865 76.1157C71.7593 75.5727 71.9436 75.3789 71.3134 74.5063C71.0129 74.0894 70.3827 73.8955 70.1404 73.3138C69.9659 72.9066 69.9173 72.2862 69.5683 71.8693C69.2483 71.4815 68.8509 71.3361 68.5988 70.9871C68.2982 70.5702 68.4244 70.4926 67.833 69.7849L64.8566 72.2571C65.1474 72.6546 65.4965 72.9939 65.8746 73.3235L66.6986 74.0603C67.0961 74.4384 67.4549 74.8456 67.6972 75.3401C67.9493 75.8636 68.2692 76.3386 68.6376 76.7943C69.4035 77.7444 70.5184 78.2195 70.9159 78.6945C71.3909 78.8884 71.5752 79.8191 71.8273 80.362C72.0696 80.8855 73.2621 81.8647 73.5336 82.4076C73.7566 82.8536 73.9892 83.2511 74.1831 83.4935C74.5612 83.9394 74.949 84.3079 75.3368 84.6278C75.5986 84.8411 75.9184 85.4615 76.2093 85.6166C76.9655 86.0238 77.0334 86.4989 77.2952 86.7025C77.8284 87.1194 77.9738 86.7122 78.4391 87.3714C78.7397 87.7883 79.0208 88.2731 79.2632 88.8548C79.4765 89.3492 80.126 89.6594 80.4944 90.212C80.7756 90.6386 81.0083 91.7051 81.5706 92.3837L84.547 89.9115C84.3337 89.6109 84.0234 89.6691 83.6453 89.2135C83.3738 88.8838 83.2187 88.3991 82.8988 88.0985C82.4528 87.6914 81.9875 87.3714 81.716 86.8188V86.8285Z" fill="#FFB48E"/>
	<path d="M86.806 86.974C87.0774 87.4781 87.4265 87.9435 87.824 88.3798C89.0552 89.7564 89.9374 89.3589 90.8972 90.3963C90.9844 90.4738 91.1202 90.658 91.1978 90.8228C91.2462 90.9586 91.2753 91.1234 91.2753 91.2882C91.2753 91.6179 91.1589 91.899 91.1492 92.0929C91.1396 92.248 91.2947 92.6067 91.0717 93.0527C90.9942 93.2272 90.7227 93.4114 90.4415 93.5277C90.1604 93.6538 89.8695 93.7119 89.7241 93.7992C89.3848 93.9834 89.2781 94.3227 88.7352 94.5942C88.2117 94.7978 88.1536 94.5069 87.7948 94.2355C87.7076 94.1676 87.5816 94.1482 87.4361 94.09C87.2132 93.9252 86.9901 93.7216 86.8738 93.4405C86.6993 93.0333 86.6508 92.4128 86.3018 91.9959C85.9819 91.6081 85.5844 91.4627 85.3323 91.1137C85.0318 90.6968 85.1579 90.6192 84.5665 89.9115L81.5901 92.3838C81.8809 92.7812 82.23 93.1205 82.6081 93.4502L83.4321 94.187C83.8296 94.5651 84.1884 94.9723 84.4307 95.4667C84.5568 95.7285 84.7021 95.9805 84.8573 96.2229C85.1384 96.601 85.4971 96.9597 85.914 97.2215C86.7768 97.7935 87.7657 97.8516 88.4929 97.7353C89.2394 97.619 89.7726 97.3475 90.1603 97.2408C90.6548 96.8627 91.828 96.7658 92.5454 96.3005C92.8847 96.0969 93.3791 95.5345 93.7184 94.8753C94.0674 94.216 94.2613 93.4792 94.397 93.0623C94.6491 92.374 94.6879 91.6469 94.6007 91.1331C94.4262 90.1927 93.9123 89.388 93.3015 88.8645C93.03 88.6609 92.6811 88.0598 92.3805 87.9144C91.6049 87.546 91.5079 87.0806 91.2462 86.8867C90.6936 86.4989 90.5676 86.9061 90.0634 86.2759C89.7435 85.8687 89.4333 85.4034 89.1716 84.8314C88.9292 84.3466 88.2699 84.0752 87.8821 83.542C87.5815 83.1348 87.2907 82.0683 86.6993 81.4285L83.849 84.0461C84.0816 84.3369 84.392 84.2594 84.7895 84.6956C85.0803 85.0156 85.2645 85.4907 85.5941 85.7718C86.0594 86.1596 86.5442 86.4602 86.8351 86.9934L86.806 86.974Z" fill="#FFB48E"/>
	<path d="M69.103 67.7004C69.3744 68.2045 69.7235 68.6699 70.121 69.1061C71.3523 70.4828 72.2344 70.0853 73.1942 71.1226C73.582 71.4716 74.1444 72.9841 74.6292 73.5173C74.8521 73.7597 75.3369 74.0505 75.841 74.6031C76.2288 75.02 76.6747 76.2707 77.1013 76.7263C77.586 77.2595 78.0611 77.405 78.8561 77.9382C79.6123 78.452 79.4377 78.6459 80.1067 79.4797C80.4266 79.8869 81.0665 80.0517 81.338 80.614C81.5319 81.0115 81.6094 81.6319 81.9779 82.0294C82.3172 82.3978 82.7243 82.5336 82.9957 82.8632C83.3157 83.2704 83.1994 83.348 83.8199 84.0266L86.6702 81.409C86.3599 81.0212 85.9915 80.7013 85.6037 80.391L84.7409 79.693C84.324 79.3342 83.9556 78.9464 83.6842 78.4617C83.4127 77.9575 83.0636 77.4922 82.6662 77.056C81.8518 76.1446 80.7175 75.7277 80.3007 75.2721C79.8159 75.0976 79.5832 74.1766 79.302 73.6433C79.0306 73.1295 77.7994 72.2182 77.4988 71.685C77.2467 71.2487 77.0044 70.8706 76.7911 70.6379C76.3936 70.2113 75.9864 69.8623 75.5792 69.5618C75.3078 69.3582 74.9587 68.7571 74.6582 68.6117C73.8826 68.2433 73.7857 67.7779 73.5239 67.584C72.9713 67.1962 72.8452 67.6034 72.3411 66.9732C72.0211 66.5661 71.711 66.1007 71.4492 65.5287C71.2068 65.044 70.5475 64.7725 70.1597 64.2393C69.8592 63.8321 69.5683 62.7657 68.977 62.1258L66.1267 64.7434C66.3594 65.0343 66.6696 64.9567 67.0671 65.393C67.3579 65.7129 67.5421 66.1879 67.8717 66.4691C68.3371 66.8569 68.8218 67.1574 69.1127 67.6907L69.103 67.7004Z" fill="#FFB48E"/>
	<path d="M51.4098 48.427C51.6812 48.9311 52.0303 49.3965 52.4278 49.8328C53.659 51.2094 54.5412 50.812 55.501 51.8493C55.8888 52.1983 56.4512 53.7107 56.9359 54.2439C57.1589 54.4863 57.6436 54.7771 58.1478 55.3298C58.5356 55.7466 58.9815 56.9973 59.408 57.4529C59.8928 57.9862 60.3679 58.1316 61.1629 58.6648C61.9191 59.1786 61.7445 59.3726 62.4134 60.2063C62.7334 60.6135 63.3733 60.7783 63.6447 61.3406C63.8386 61.7381 63.9162 62.3586 64.2846 62.7561C64.6239 63.1245 65.031 63.2602 65.3025 63.5898C65.6224 63.997 65.5062 64.0746 66.1267 64.7532L68.9769 62.1356C68.6667 61.7478 68.2983 61.4279 67.9105 61.1176L67.0476 60.4196C66.6308 60.0609 66.2624 59.673 65.9909 59.1883C65.7195 58.6842 65.3704 58.2189 64.9729 57.7826C64.1585 56.8713 63.0243 56.4544 62.6074 55.9987C62.1227 55.8242 61.89 54.9032 61.6088 54.37C61.3374 53.8561 60.1061 52.9448 59.8056 52.4116C59.5535 51.9753 59.3112 51.5972 59.0979 51.3646C58.7004 50.938 58.2932 50.5889 57.886 50.2884C57.6145 50.0848 57.2655 49.4837 56.9649 49.3383C56.1893 48.9699 56.0924 48.5045 55.8307 48.3107C55.2781 47.9229 55.152 48.33 54.6478 47.6999C54.3279 47.2927 54.0177 46.8273 53.756 46.2553C53.5136 45.7706 52.8543 45.4991 52.4665 44.9659C52.1659 44.5587 51.8751 43.4923 51.2837 42.8524L48.4335 45.4701C48.6661 45.7609 48.9764 45.6833 49.3738 46.1196C49.6647 46.4395 49.8489 46.9146 50.1785 47.1957C50.6438 47.5835 51.1286 47.8841 51.4195 48.4173L51.4098 48.427Z" fill="#FFB48E"/>
	<path d="M39.8727 35.9012C40.338 36.5604 40.4544 36.8028 40.4835 36.8319C40.4932 36.8609 40.0666 36.066 39.7952 35.4358C39.5043 34.7862 39.3589 34.2724 39.5916 34.5342C39.6498 34.5633 39.9503 35.0965 40.1442 35.5231C40.3478 35.969 40.4447 36.289 40.4835 36.3375C40.5126 36.3666 40.6192 36.2405 40.7647 36.4053C40.7938 36.4344 40.8035 36.5023 40.8035 36.5701C40.7744 36.5701 40.8616 36.7156 40.9101 36.8028C40.9586 36.9095 41.0167 37.0064 41.0651 37.1131C41.2784 37.5299 41.4918 37.9565 41.705 38.1892C42.1898 38.7224 42.6649 38.8678 43.4599 39.401C44.2161 39.9149 44.0415 40.1088 44.7104 40.9426C45.0304 41.3497 45.6703 41.5145 45.9417 42.0768C46.1356 42.4743 46.2132 43.0948 46.5816 43.4923C46.9209 43.8607 47.3282 43.9964 47.5996 44.3261C47.9196 44.7332 47.8032 44.8108 48.4237 45.4895L51.2739 42.8718C50.9637 42.484 50.5953 42.1641 50.2075 41.8539L49.3446 41.1558C48.9278 40.7971 48.5594 40.4093 48.2879 39.9245C48.0165 39.4204 47.6674 38.9551 47.2699 38.5188C46.4555 37.6075 45.3213 37.1906 44.9044 36.7349C44.4197 36.5604 44.187 35.6394 43.9058 35.1062C43.8379 34.9802 43.7119 34.825 43.5568 34.6602C43.3338 34.4372 43.0818 34.1852 42.8297 33.9331C42.1317 33.2254 41.4627 32.5564 41.0943 32.0523C40.4835 31.2282 39.863 30.4236 39.4268 29.9582C38.6318 29.0954 37.9532 28.4555 37.3909 27.9804C37.2067 27.835 36.8382 27.3794 36.5861 27.1855C36.3147 26.9625 36.1014 26.8365 36.053 26.9334C35.8106 27.4182 35.3453 26.7686 35.2386 26.8655C35.0447 27.0303 35.5391 27.7478 35.0738 27.3987C34.9283 27.2824 34.783 27.1661 34.6278 27.04C34.4824 26.9043 34.2593 26.7782 33.9394 26.7104C33.668 26.6619 33.3965 26.7686 33.1154 26.9431C32.9796 27.0304 32.8343 27.137 32.6986 27.2437L32.4852 27.4182L32.3786 27.5054H32.3688V27.5248C31.5642 26.6038 33.4644 28.7851 33.2705 28.5621H33.2608L33.0766 28.3876L32.6986 28.058C32.6016 27.9707 32.5046 27.8835 32.398 27.7963L32.2428 27.6605C32.2428 27.6605 32.2235 27.6605 32.2138 27.6702L32.1071 27.738C32.0392 27.7865 31.9617 27.8447 31.8744 27.9029C31.7096 28.0192 31.5448 28.1549 31.3897 28.3004C31.0794 28.5912 30.8468 28.9402 30.808 29.0469L40.4932 36.8319C40.5998 36.9288 39.4656 35.9981 39.4656 35.9012C39.485 35.8236 40.2606 36.5701 40.057 36.3278C39.7661 35.9594 39.388 35.2225 39.9018 35.9012H39.8727Z" fill="#FFB48E"/>
	<path d="M36.9062 9.86076L35.1804 11.8967C34.6084 12.5753 33.5032 12.1875 33.4741 11.3053L33.3675 8.63919C33.3578 8.36773 33.2318 8.11563 33.0282 7.94113L30.9923 6.21546C30.3136 5.64347 30.7014 4.53824 31.5837 4.50915L34.2498 4.40252C34.5212 4.39283 34.7733 4.26676 34.9478 4.06317L36.6735 2.02726C37.2455 1.34862 38.3507 1.7364 38.3798 2.61863L38.4864 5.28473C38.4961 5.55619 38.6221 5.80829 38.8257 5.9828L40.8616 7.70846C41.5403 8.28046 41.1525 9.38569 40.2703 9.41477L37.6042 9.5214C37.3327 9.53109 37.0807 9.65716 36.9062 9.86076Z" fill="#9ED2F0"/>
	<path d="M42.917 8.23201C42.9267 8.0575 42.9169 7.9218 42.8976 7.77637L42.6455 7.28192C42.471 6.9426 42.2868 6.59358 42.0832 6.24456C41.7536 5.96341 41.4142 5.66289 41.0652 5.36235C40.1151 4.54798 40.4544 4.86791 40.3381 4.81944C40.2896 4.82914 40.2315 4.83883 40.1636 4.81944L40.1151 4.80003C40.1151 4.80003 40.0473 4.63523 40.0182 4.56736C39.9503 4.39286 39.8825 4.22802 39.8243 4.06321C39.708 3.76267 39.5917 3.47184 39.4753 3.1713C39.3687 2.89014 39.2814 2.60896 39.1942 2.28903C39.1069 1.97879 39.0971 1.58134 38.8839 1.35835C38.7675 1.21293 38.564 0.960867 38.2344 0.757274C37.9144 0.553681 37.4587 0.417936 37.0709 0.437326C36.7219 0.350072 36.3245 0.805756 35.927 1.06752C35.5295 1.36806 35.1514 1.65886 34.8606 1.93032C34.7345 2.04666 34.589 2.19208 34.4242 2.3569C34.3467 2.44415 34.2594 2.53142 34.1721 2.61868L34.0461 2.75442V2.78348C34.0267 2.87073 33.9589 3.00648 33.8231 2.98709C33.8231 2.98709 33.8231 2.98709 33.8134 2.98709C33.7553 2.98709 33.8522 2.95801 33.6002 2.98709C33.416 2.99678 33.2124 3.01615 33.0088 3.02585C32.5628 3.05493 32.0684 3.07434 31.574 3.10342C31.0601 3.13251 30.5172 3.18099 30.0034 3.22946C29.9452 3.22946 29.8676 3.23918 29.8191 3.24887L29.7222 3.30704C29.664 3.34582 29.5962 3.40394 29.5381 3.44272C29.4217 3.54937 29.315 3.66574 29.2278 3.78208C28.84 4.34438 28.743 4.99396 28.8594 5.55626C28.8884 5.69199 28.9272 5.82769 28.9854 5.95373C29.0242 6.07007 29.1308 6.19612 29.2569 6.34155C29.4896 6.60331 29.7513 6.89413 30.0615 7.22376C30.1876 7.35949 30.2845 7.47585 30.3233 7.49524C30.682 7.7667 30.9535 7.98965 31.1765 8.19325C31.2928 8.29989 31.3994 8.39684 31.506 8.49379L31.6612 8.64894C31.6612 8.64894 31.7872 8.77497 31.7678 8.76527C31.7872 8.85253 31.8163 8.93978 31.7775 9.06581V9.08516C31.7775 9.08516 31.7776 9.08518 31.7969 9.16274L31.8939 9.55056C31.9617 9.80262 32.0393 10.0644 32.1071 10.3261C32.2429 10.84 32.3495 11.3441 32.3786 11.9839C32.3786 12.236 32.398 12.4978 32.4077 12.7789C32.4659 12.9534 32.5532 13.157 32.6889 13.3412C32.9604 13.7193 33.4257 14.049 33.9492 14.1362C34.4436 14.2138 34.8315 14.1265 35.1223 13.9617C35.4617 13.7 35.7621 13.4479 36.1014 13.254C36.3341 13.1183 36.4989 13.0407 36.6056 13.0019C36.8576 12.7402 37.071 12.5269 37.3812 12.2167C37.5363 12.0518 37.7108 11.8483 37.9338 11.6156C37.9822 11.5574 38.0405 11.4992 38.0986 11.4314L35.7137 8.30958C35.5392 8.45501 35.3841 8.63924 35.229 8.82344L35.1416 8.93007L35.161 8.91066L35.1902 8.88161C35.1902 8.88161 35.2774 8.81373 35.3162 8.80403C35.3162 8.82342 35.3162 8.85252 35.3162 8.88161C35.3065 8.96886 35.2871 9.11426 35.1999 9.2209C35.1417 9.28877 35.0641 9.30819 35.0253 9.25002C34.9865 9.19185 35.0254 9.08515 35.0835 9.01729C35.1417 8.93973 35.1902 8.92037 35.2193 8.93007C35.2387 8.93007 35.2483 8.93973 35.258 8.95912V8.97853C35.258 8.97853 35.2677 8.90099 35.2677 8.81374V8.55195C35.258 8.42592 35.2484 8.29023 35.2193 8.16419C35.0932 7.35952 34.5794 6.70993 33.9492 6.31243C33.9201 6.29304 33.8523 6.24456 33.8523 6.24456V6.26397V6.29303C33.8523 6.31242 33.8522 6.3318 33.8426 6.35119C33.8329 6.38028 33.8038 6.40938 33.7747 6.42877C33.5615 6.40938 33.2318 6.32211 33.164 6.23486C32.8925 6.1476 32.97 5.97312 33.2318 5.95373C33.4741 5.92464 33.8135 6.08948 33.8717 6.15734C33.9201 6.19612 33.9008 6.20579 33.8911 6.1961C33.8911 6.1961 33.8717 6.17668 33.8717 6.16699V6.14764H34.0074L34.2788 6.11852C35.3937 6.06035 36.082 5.372 36.4601 4.95512C36.6152 4.80001 36.5475 4.8873 36.5766 4.87761L36.5959 4.91637C36.5959 4.91637 36.6056 4.96486 36.6153 4.99394C36.6153 5.04242 36.6056 5.09089 36.5862 5.11028C36.5086 5.21692 36.5378 5.02304 36.6541 4.88731C36.6929 4.83884 36.7026 4.90665 36.6929 4.95512C36.6832 4.98421 36.6734 4.95515 36.7316 4.91637C36.8576 4.80972 36.8965 4.84851 36.8965 4.8679C36.8965 4.8776 36.8965 4.89697 36.8868 4.90666V5.05211C36.8868 5.13936 36.8868 5.22663 36.8868 5.30419C36.8868 5.53686 36.9255 5.68226 36.9643 5.81798C37.2357 6.53541 37.5654 6.64205 37.8077 6.78747C37.9435 6.85534 38.0793 6.92321 38.2732 7.03955C38.3217 7.06864 38.37 7.0977 38.4185 7.13648L38.4573 7.15589C38.4573 7.15589 38.5058 7.18497 38.5251 7.21405C38.5542 7.24314 38.5737 7.2819 38.5931 7.32068C38.6803 7.46611 38.7385 7.60184 38.5737 7.68909C38.4767 7.74726 38.5446 7.83455 38.564 7.96058C38.593 8.08661 38.4962 8.16416 38.3798 8.12538C38.312 8.10599 38.1762 8.03813 38.0889 7.95087C38.0404 7.9121 38.0114 7.86361 37.992 7.81513C37.9435 7.76666 38.1374 7.71819 37.5654 7.6988C36.9255 7.65032 36.2372 7.87332 35.7427 8.31929L38.1277 11.441C38.1277 11.441 38.0598 11.315 38.0986 11.2375C38.0986 11.2278 38.0986 11.2083 38.118 11.2083C38.0986 11.2083 38.1665 11.1987 38.2441 11.1793C38.3119 11.1696 38.3895 11.1502 38.4767 11.1405C39.3784 10.9854 40.532 10.9563 41.453 10.743L41.9184 10.6364C42.025 10.5782 42.0736 10.5006 42.1511 10.4134C42.2966 10.2389 42.4419 10.0353 42.5583 9.79293C42.8006 9.32757 42.917 8.74586 42.9364 8.26112L42.917 8.23201Z" fill="#9ED2F0"/>
	<path d="M5.03928 23.7633L1.61696 15.9977C1.25824 15.193 2.08232 14.3593 2.89669 14.718L10.6623 18.1403C10.9144 18.2469 11.1955 18.2469 11.4476 18.1403L19.2132 14.718C20.0179 14.3593 20.8516 15.1833 20.4929 15.9977L17.0706 23.7633C16.9639 24.0154 16.9639 24.2965 17.0706 24.5486L20.4929 32.3142C20.8516 33.1189 20.0276 33.9527 19.2132 33.594L11.4476 30.1716C11.1955 30.065 10.9144 30.065 10.6623 30.1716L2.89669 33.594C2.09201 33.9527 1.25824 33.1286 1.61696 32.3142L5.03928 24.5486C5.14593 24.2965 5.14593 24.0154 5.03928 23.7633Z" fill="#9ED2F0"/>
	<path d="M12.9601 15.5806C12.3784 15.6873 11.8161 15.8714 11.2635 16.1041C11.1956 16.1332 11.0501 16.2011 11.0598 16.1914V16.2108C11.0598 16.2108 11.0598 16.2496 11.0598 16.2787C11.0501 16.3368 11.0114 16.4144 10.9629 16.4822C10.9338 16.5016 10.9338 16.5404 10.8659 16.5501C10.7787 16.5501 10.7012 16.5501 10.6139 16.5501C10.4491 16.5501 10.2843 16.5501 10.1292 16.5501C9.79954 16.5307 9.4602 16.4725 9.0724 16.298C8.55857 16.1235 7.4146 14.9504 6.73595 14.6596C6.58084 14.5917 6.35782 14.5433 6.09606 14.4657C6.02819 14.4463 5.96036 14.4269 5.8828 14.4075L5.76646 14.3687L5.56285 14.2912C5.29139 14.1845 5.01023 14.0779 4.69999 13.9422C4.26372 13.7677 3.44933 13.1666 2.7416 13.0018C2.04357 12.8079 1.52976 12.8272 1.0741 13.0793C0.608749 13.3508 0.308186 13.7483 0.143372 14.204C0.0658132 14.4269 0.017334 14.6693 0.017334 14.9117C0.017334 15.1443 0.0754987 15.3964 0.133668 15.7066C0.250007 16.2302 0.405161 16.5889 0.473025 16.87C0.647533 17.3742 0.725114 17.8201 1.16138 18.8963C1.34559 19.4101 1.89817 19.7688 1.98543 20.4184C2.05329 20.8643 1.92724 21.4848 2.15022 21.9986C2.35382 22.4737 2.70286 22.7354 2.84829 23.1426C2.93554 23.3947 2.94519 23.5207 2.98397 23.7049C3.00336 23.8504 3.14884 24.2673 3.10037 24.1509L6.94921 23.3753C6.89104 23.1329 6.78438 22.91 6.68743 22.6773C6.59048 22.4737 6.57109 22.4252 6.50323 22.2895C6.38689 22.0665 6.25119 21.8532 6.11547 21.6399L5.51439 20.6801C5.23323 20.1954 5.00054 19.7009 4.8939 19.1386C4.84542 18.8478 4.76783 18.5667 4.68058 18.2758L4.53519 17.8492L4.38974 17.4905C4.38974 17.4905 4.33159 17.5002 4.22495 17.4614C4.03105 17.3936 3.57537 17.0445 3.59476 16.9088C3.42025 16.7149 3.57537 16.6471 3.77896 16.7537C3.99225 16.8507 4.19585 17.1124 4.27341 17.2288C4.35097 17.3451 4.34127 17.2966 4.38974 17.2772C4.44791 17.2675 4.40915 17.1997 4.82603 17.4614C5.24291 17.762 5.63071 18.0237 5.92156 18.1498C6.47417 18.3922 6.98799 18.5472 7.49213 18.6636C7.83145 18.7411 8.41312 19.1581 8.74275 19.1774C9.0239 19.1871 9.23719 19.2356 9.4117 19.2938C9.49895 19.3229 9.57651 19.3519 9.65407 19.3907C9.7801 19.4489 9.89648 19.5071 9.99343 19.5556C10.3037 19.701 10.5266 19.7785 10.7496 19.7785C11.3604 19.7591 11.5349 19.5458 11.7191 19.3907C11.8063 19.3131 11.9033 19.2259 12.0487 19.129C12.1166 19.0805 12.2136 19.032 12.3105 18.9835C12.3784 18.9448 12.4559 18.9157 12.5529 18.8769C13.0473 18.6927 13.6096 18.5569 14.2495 18.4794C14.7924 18.4018 15.2868 17.8589 15.9364 17.6553C16.1885 17.5778 16.586 17.5487 17.0319 17.5002C17.2452 17.4808 17.5069 17.4323 17.6911 17.4033C17.7202 17.442 17.7202 17.4808 17.7202 17.4808L17.4585 13.3702C17.1094 13.5059 16.8768 13.6804 16.6053 13.8743C16.489 13.9519 16.3533 14.0488 16.1982 14.1555C16.1109 14.2234 16.0042 14.2912 15.8685 14.3493C15.4613 14.5238 14.9378 14.5432 14.5694 14.7759C14.0362 15.0958 13.5902 15.4643 12.9698 15.5806H12.9601Z" fill="#9ED2F0"/>
	<path d="M21.9666 33.9816C22.209 33.652 22.3543 33.3806 22.4125 33.0413C22.4998 32.7213 22.5095 32.256 22.3156 31.7228C22.2865 31.6452 22.2575 31.5676 22.2478 31.5289C21.8794 30.7048 21.5303 30.0553 21.2104 29.5511C21.0262 29.2409 20.968 29.2312 20.8614 29.1051C20.7547 29.0082 20.6578 28.9113 20.5609 28.824C20.1634 28.4653 19.7852 28.155 19.4943 27.5152C19.2326 27.0401 19.1745 25.4017 18.8837 24.723C18.8546 24.6455 18.8061 24.5582 18.7382 24.4613C18.7091 24.4128 18.6801 24.3643 18.6413 24.3158L18.5928 24.2867C18.5249 24.248 18.4474 24.1607 18.4862 24.0638C18.4862 24.0444 18.5055 24.0347 18.5249 24.0056C18.5442 23.9862 18.554 24.0056 18.6025 23.9474C18.6607 23.8796 18.7188 23.802 18.7769 23.7245C18.903 23.5694 19.0387 23.4045 19.1745 23.2397C19.4459 22.9101 19.7077 22.5708 19.8241 22.309C20.1246 21.6304 20.0761 21.1262 20.2506 20.1761C20.3378 19.7204 20.4444 19.5072 20.5899 19.2939C20.6674 19.1873 20.745 19.0709 20.8517 18.9352C20.9777 18.7413 21.1716 18.3535 21.3849 17.9172C21.5885 17.481 21.7339 17.0059 21.8114 16.5793C21.8696 16.1625 21.8793 15.7746 21.9569 15.3965C22.0248 15.1251 22.1024 14.8148 22.0345 14.427C21.9764 14.0489 21.7921 13.6417 21.4624 13.38C21.1619 13.1279 20.8226 13.0116 20.5415 12.9728C20.2603 12.9243 20.0276 12.9534 19.7658 12.9146C19.3005 12.9049 19.1938 12.7498 18.4182 12.9825C18.331 13.0019 17.9626 13.1473 17.439 13.38L17.7008 17.4907C17.7008 17.4713 17.7203 17.4228 17.7687 17.3452C17.8172 17.258 17.9045 17.161 18.0208 17.1125C18.1759 17.0447 18.2341 17.1998 18.0014 17.3452C17.7784 17.5003 17.7202 17.4906 17.7105 17.5003C17.7105 17.5003 17.7105 17.5003 17.7299 17.5003C17.7493 17.4809 17.7299 17.5585 17.7008 17.636L17.6427 17.8494C17.5748 18.1305 17.5263 18.4116 17.4778 18.6734C17.4003 19.1969 17.3518 19.6526 17.2258 19.9434C17.2645 20.467 16.4986 21.0681 16.1205 21.5528C16.0236 21.6789 15.9267 21.8727 15.8298 22.1054C15.7134 22.3962 15.5971 22.7259 15.4711 23.0361C15.0833 23.9571 15.3353 24.8878 15.5292 25.3823C15.5582 25.4792 15.6164 25.644 15.6164 25.6925L15.6552 25.8767C15.6843 25.9931 15.7133 26.1094 15.7424 26.2161C15.8006 26.4294 15.8588 26.6135 15.9267 26.7686C16.1691 27.3212 16.4502 27.7866 16.741 28.2132C16.9349 28.5041 17.0803 29.202 17.3227 29.4347C17.6329 29.745 17.7784 30.0164 17.8657 30.2491C17.9044 30.3655 17.9432 30.4721 17.9723 30.5691C17.9917 30.6175 18.0014 30.6563 18.0208 30.6951C18.0208 30.6951 18.0304 30.7048 18.0401 30.7145C18.2049 30.7823 18.5346 30.7436 18.6606 30.9859C18.6606 30.9859 18.68 31.0247 18.68 31.0441C18.7091 31.238 18.7382 31.4028 18.4182 31.3641C18.2922 31.3447 18.3116 31.4416 18.2922 31.5386C18.2825 31.6452 18.2147 31.713 18.0983 31.6161C18.0111 31.5482 17.8366 31.3155 17.759 31.141C17.7203 31.0538 17.7008 30.9762 17.7008 30.9181C17.7008 30.889 17.7008 30.8696 17.7008 30.8599C17.6814 30.8308 17.7687 30.8599 17.6233 30.8017L16.0624 34.3404C16.1109 34.3695 16.3048 34.4373 16.4502 34.4761C16.5957 34.5149 16.741 34.544 16.8865 34.5731C17.187 34.6312 17.5167 34.6991 18.0305 34.9318C18.4086 35.1063 18.8158 35.3099 19.1842 35.4068C19.3684 35.4553 19.5235 35.4746 19.698 35.494C19.8434 35.494 19.9695 35.4747 20.0955 35.4456C20.6966 35.2808 21.4624 34.6894 21.9569 34.001L21.9666 33.9816Z" fill="#9ED2F0"/>
	<path d="M2.05323 27.0402C1.69452 27.5055 1.40368 28.0291 1.15161 28.572C1.05467 28.7853 0.977116 28.9889 0.918946 29.1731C0.870472 29.3185 0.821983 29.4542 0.783204 29.59C0.734729 29.7451 0.68624 29.9002 0.647461 30.0456C0.482647 30.6273 0.414804 31.0636 0.36633 31.4514C0.34694 31.8295 0.405095 32.1203 0.47296 32.4015C0.550519 32.6827 0.531103 32.9153 0.628052 33.3225C0.695916 33.6036 0.947977 34.3308 1.52967 34.7379C1.82052 34.9318 2.06289 35.0482 2.31496 35.1064C2.44099 35.1451 2.57677 35.1742 2.73189 35.1742C2.86762 35.1936 3.02269 35.1742 3.16811 35.1354C3.27476 35.1257 3.40082 35.0676 3.74014 34.9319C4.11824 34.7186 4.93261 34.2532 5.79545 33.8654C6.32867 33.6327 7.67625 33.5939 8.26764 33.3322C8.94628 33.0316 9.24683 32.6341 10.0321 32.0427C10.3908 31.7713 10.6526 31.6647 10.8562 31.6356C10.9338 31.655 11.0113 31.6937 11.1082 31.7616C11.1276 31.7713 11.1373 31.7713 11.1664 31.7616C11.1373 31.7131 11.4767 31.7907 11.6803 31.8295C11.9129 31.8876 12.1359 31.9652 12.3298 32.1397C12.6788 32.4306 13.0085 32.9638 13.5126 33.1868C13.9877 33.3904 14.4142 33.3515 14.802 33.5551C15.2673 33.7975 15.1898 33.9236 16.0527 34.3017L17.6135 30.7631C17.1676 30.5304 16.6829 30.3752 16.1981 30.2492L15.1026 29.9487C14.5694 29.7838 14.0555 29.5706 13.5998 29.2312C13.4156 29.0858 13.2218 28.9598 13.0182 28.8337L12.7079 28.6592L12.5237 28.5623L12.2038 28.4071C11.9905 28.3102 11.7578 28.2327 11.5155 28.1939C10.9144 28.0872 10.3133 28.223 9.81886 28.5041C9.71222 28.5623 9.53768 28.6593 9.48921 28.6883L9.31471 28.8144C9.20806 28.9016 9.09171 28.9889 8.99476 29.0665C8.57788 29.3961 8.2386 29.6966 7.94775 29.8226C7.61812 30.2298 6.65831 30.162 6.04753 30.2589C5.75668 30.3074 5.2816 30.5498 4.80655 30.8018C4.69021 30.86 4.57389 30.9279 4.45755 30.986C4.45755 30.9957 4.43819 31.0151 4.4285 31.0151C4.40911 31.0345 4.38002 31.0345 4.37033 31.0054C4.37033 30.986 4.36062 30.9666 4.36062 30.9376C4.35093 30.86 4.37997 30.7921 4.37997 30.7921C4.37997 30.7921 4.31212 30.9085 4.14731 30.9957C4.03097 31.0248 4.26367 30.8503 4.10855 30.9084C3.91465 30.9569 3.92432 30.8697 3.9631 30.8309C4.00188 30.7824 4.06006 30.763 4.03097 30.7339C3.99219 30.6467 3.8565 30.6467 3.82742 30.4431C3.78864 30.2783 3.7789 30.1135 3.9631 29.745C4.20547 29.2797 4.52541 28.795 4.9423 28.3102C5.29131 27.8836 5.29132 27.1565 5.62095 26.5652C5.69851 26.4197 5.84396 26.2549 6.00877 26.0707C6.09602 25.9738 6.18324 25.8768 6.27049 25.7702L6.40624 25.6054C6.4741 25.489 6.55163 25.3823 6.61949 25.266C6.96851 24.7328 7.10424 24.0057 6.92003 23.3658L3.07119 24.1414C3.07119 24.1414 3.29416 24.1414 3.30385 24.219C3.30385 24.219 3.30385 24.2287 3.30385 24.2384C3.26507 24.3159 3.21659 24.3838 3.16811 24.4614L2.97426 24.7522C2.84823 24.9461 2.72218 25.1497 2.65431 25.3533C2.4798 25.9447 2.39252 26.5166 2.01442 27.0208L2.05323 27.0402Z" fill="#9ED2F0"/>
	<path d="M46.3099 67.3999C45.3986 68.67 46.1548 68.1755 45.0689 69.3002L42.2284 66.6534C43.3433 65.7033 43.0136 66.2268 44.2546 65.4512C44.8848 65.0828 45.3986 64.094 46.4165 65.3931C47.037 66.2075 46.3002 67.3999 46.3002 67.3999H46.3099Z" fill="#DBF3FC"/>
	<path d="M38.2052 86.586C38.1858 86.4599 38.2051 86.2564 38.1567 86.1206C38.1567 85.9267 38.0985 85.7619 38.0792 85.5583C38.0598 85.3935 38.0307 85.2481 37.9822 85.1124C37.9531 84.967 37.9144 84.8409 37.8659 84.7149C37.7593 84.4725 37.6622 84.2592 37.5653 84.0459C37.3423 83.6193 37.1679 83.2025 37.2551 82.5529C37.2842 82.0488 38.1568 80.8466 38.3701 80.2261C38.4476 79.9353 38.4573 79.4118 38.6802 78.7525C38.8644 78.2484 39.7661 77.3952 40.0084 76.8814C40.2993 76.29 40.2314 75.8149 40.4641 74.9424C40.6677 74.0989 40.9392 74.2153 41.5015 73.4009C41.802 73.0228 41.773 72.3733 42.2577 72.0243C42.597 71.7722 43.1399 71.588 43.4599 71.2099C43.7507 70.8512 43.7798 70.4343 44.0707 70.1628C44.41 69.8332 44.4971 69.9301 45.0691 69.3097L42.2383 66.6727C41.8505 67.0217 41.5694 67.458 41.2882 67.8942C41.0749 68.2142 40.8907 68.5534 40.6969 68.8831C40.3866 69.3581 40.086 69.8235 39.6497 70.2016C39.1941 70.5894 38.8257 71.0742 38.4864 71.5783C37.8077 72.6641 37.7592 73.9147 37.4781 74.4771C37.4781 75.0006 36.7025 75.5726 36.3244 76.0767C35.9366 76.5518 35.6555 78.1321 35.3452 78.6847C35.0738 79.1403 34.8798 79.5766 34.7829 79.9062C34.6374 80.517 34.5502 81.0793 34.5696 81.6319C34.5599 81.9906 34.3079 82.7081 34.3952 83.0571C34.6375 83.9587 34.3757 84.3949 34.463 84.773C34.6375 85.5292 34.9768 85.2384 35.0544 86.1594C35.0931 86.4696 35.1416 86.7799 35.1901 87.1192C35.287 87.4682 35.3162 87.8366 35.481 88.2535C35.704 88.9903 36.7025 89.5429 37.575 89.9307C37.7495 89.9986 37.9531 90.1246 38.2052 90.241C38.4379 90.3282 38.719 90.4251 39.0195 90.5124C39.5915 90.6384 40.2703 90.7063 40.8035 90.5512L39.9018 86.7896C39.7758 86.809 39.6983 86.8866 39.6013 86.9835C39.5141 87.0514 39.4074 87.1289 39.2232 87.1483C38.9614 87.1483 38.7966 86.9253 38.6802 86.935C38.5154 86.9253 38.2246 86.9641 38.2052 86.6054V86.586Z" fill="#DBF3FC"/>
	<path d="M43.2176 89.0681C42.4614 89.5916 42.345 89.7952 42.1705 89.9406C42.0832 90.0182 41.996 90.0861 41.8021 90.183C41.6082 90.2703 41.3465 90.4157 40.7939 90.532L39.8922 86.7607C40.3673 86.7413 40.5709 86.6734 40.7454 86.7316C40.9296 86.7704 41.1235 86.7995 41.7343 86.6637C42.3644 86.528 42.8783 85.6652 43.7799 87.0709C44.0513 87.4975 43.9351 87.992 43.7218 88.3895C43.5182 88.787 43.2176 89.0681 43.2176 89.0681Z" fill="#DBF3FC"/>
	<path d="M78.6427 39.4689C79.3505 38.7999 79.6123 38.6157 79.8159 38.4412C79.9129 38.354 80.0388 38.2764 80.3491 38.1892C80.6399 38.1019 81.115 37.9953 81.8615 38.1213L81.1344 41.9508C81.1441 41.8732 81.1054 41.8054 81.0472 41.7278C80.9405 41.6987 80.863 41.563 80.417 41.6697C79.9419 41.7957 79.7771 42.6294 78.5458 41.5145C78.1677 41.1752 78.1484 40.6807 78.255 40.2445C78.3714 39.8179 78.6427 39.4786 78.6427 39.4786V39.4689Z" fill="#DBF3FC"/>
	<path d="M78.5168 58.2478C78.9531 57.9376 79.3507 57.5595 79.7094 57.1426C80.7952 55.7756 80.2038 55 80.9213 53.9142C81.0279 53.6912 81.3963 53.381 81.7744 53.032C82.1428 52.6733 82.5403 52.2952 82.6954 51.9946C82.8311 51.7135 82.9378 51.1899 83.219 50.5404C83.4419 50.0556 84.3533 49.154 84.5471 48.5529C84.7701 47.8743 84.6538 47.3896 84.6247 46.4589C84.5762 45.5572 84.8574 45.596 85.0222 44.5102C85.0901 43.9673 84.7313 43.4146 84.8476 42.7651C84.9155 42.2997 85.1869 41.6599 84.9349 40.9812C84.8282 40.6807 84.6537 40.4286 84.4598 40.1862C84.295 39.9633 84.0527 39.7209 83.8394 39.4494C83.5777 39.1295 83.4128 38.9647 83.1995 38.7514C82.9669 38.5769 82.6469 38.2763 81.8422 38.1212L81.1151 41.941C81.1151 41.941 81.1151 41.9022 81.2023 41.8925C81.2411 41.8925 81.2702 41.8926 81.3381 41.9604C81.3962 42.0089 81.4642 42.0574 81.5126 42.1446C81.6871 42.3676 81.7646 42.7457 81.6871 43.1141C81.5901 43.5019 81.532 43.9091 81.5029 44.3357C81.4351 45.2082 81.7647 46.168 81.6387 46.6624C81.7744 47.089 81.1442 47.6222 80.8242 48.0003C80.5431 48.3687 80.3202 49.6194 79.9615 50.0072C79.69 50.3174 79.4476 50.6082 79.3119 50.8312C79.0792 51.2578 78.924 51.665 78.7786 52.0625C78.6914 52.3339 78.2551 52.7314 78.2066 53.0126C78.0903 53.7494 77.6831 53.8949 77.5667 54.1469C77.3341 54.6801 77.7413 54.7577 77.276 55.2715C76.9657 55.5914 76.5779 55.892 76.1125 56.1731C75.7053 56.4058 75.5503 57.0166 75.114 57.385C74.765 57.6564 73.8246 57.9085 73.2914 58.4126L75.9575 61.2145C76.2289 61.0012 76.1319 60.691 76.5197 60.3129C76.8009 60.0317 77.2565 59.8572 77.4795 59.5276C77.7995 59.0622 78.0225 58.5872 78.5072 58.2673L78.5168 58.2478Z" fill="#DBF3FC"/>
	<path d="M72.0889 60.1483C72.9712 58.9946 72.215 59.3823 73.3008 58.4031L75.9766 61.205C74.9296 61.9709 75.2399 61.5152 74.0959 62.1357C73.5142 62.4363 73.1167 63.367 72.0697 62.0775C71.4298 61.2826 72.0987 60.1386 72.0987 60.1386L72.0889 60.1483Z" fill="#DBF3FC"/>
	<path d="M55.3266 89.2328C56.8875 88.4087 55.8598 88.5929 57.5564 87.8367L59.2337 91.3269C58.3999 91.6565 58.109 91.6662 57.8376 91.6953C57.5661 91.7147 57.2752 91.7147 56.3542 91.8601C56.1119 91.8892 55.8695 91.9571 55.6174 92.0152C55.3556 92.0637 55.0843 92.1025 54.8516 92.0831C54.3378 92.0249 53.979 91.7341 53.9984 90.9003C54.0178 90.3768 54.3765 90.0181 54.6867 89.7175C55.0067 89.4267 55.3266 89.2134 55.3266 89.2134V89.2328Z" fill="#DBF3FC"/>
	<path d="M77.2081 71.7238C76.6943 72.1407 76.2095 72.6061 75.7539 73.1199C74.3093 74.7002 74.7165 75.5921 73.5531 76.7943C73.1459 77.279 71.4688 78.0546 70.8386 78.6363C70.5575 78.8883 70.1988 79.4506 69.5298 80.0323C69.0257 80.4783 67.6102 81.0212 67.0382 81.4866C66.3886 82.0198 66.1463 82.5239 65.4192 83.3674C64.7115 84.1624 64.5272 83.9782 63.4705 84.6471C62.9664 84.9767 62.627 85.6263 61.9386 85.8687C61.4539 86.0335 60.7656 86.0529 60.242 86.3728C59.7573 86.6831 59.4858 87.0612 59.0496 87.2842C58.5164 87.5265 58.4678 87.4005 57.5565 87.8561L59.2338 91.3463C59.8252 91.1039 60.3487 90.7549 60.8528 90.3962C61.2212 90.115 61.5993 89.8533 61.958 89.5624C62.501 89.1649 63.0536 88.7868 63.6935 88.5251C64.343 88.2536 64.9731 87.9046 65.5645 87.4877C66.8055 86.6249 67.5132 85.3646 68.1046 84.9089C68.3857 84.3757 69.4619 84.0945 70.1115 83.7455C70.7417 83.4159 71.9439 81.9907 72.5643 81.5933C73.0879 81.2733 73.5434 80.9631 73.8246 80.6916C74.3481 80.1972 74.765 79.693 75.1334 79.1986C75.3854 78.869 76.0738 78.3745 76.2483 78.0255C76.6943 77.0948 77.2081 76.9009 77.4311 76.5616C77.8673 75.8636 77.4117 75.8151 78.1098 75.1171C78.5461 74.6517 79.0696 74.2251 79.6706 73.7598C80.1942 73.3623 80.4559 72.5479 80.9988 71.9371C81.4157 71.4718 82.5403 70.7737 83.1414 69.8333L79.8839 67.7489C79.6318 68.0882 79.7676 68.3791 79.3895 68.9414C79.0986 69.3485 78.6333 69.6782 78.3813 70.1048C78.0226 70.7058 77.7607 71.2972 77.2081 71.7432V71.7238Z" fill="#DBF3FC"/>
	<path d="M84.2365 66.9054C83.4997 68.9026 84.2656 67.9525 83.141 69.8139L79.8738 67.7198C80.8142 66.4595 80.6009 67.109 81.6092 65.8681C82.123 65.2282 82.0939 64.0745 83.6548 64.6659C84.1299 64.8501 84.2946 65.393 84.3334 65.9165C84.3722 66.4401 84.2462 66.8957 84.2462 66.8957L84.2365 66.9054Z" fill="#DBF3FC"/>
</svg>