<svg xmlns="http://www.w3.org/2000/svg" width="55" height="74" viewBox="0 0 55 74" fill="none">
  <g clip-path="url(#clip0_1019_53987)">
    <path d="M10.7328 51.1376C4.46195 46.6195 1.03895 39.1422 0.204067 31.5622C-0.742129 22.8621 1.52132 15.03 7.82002 8.80362C16.0389 0.672878 30.8627 -1.6982 40.7235 4.26683C47.718 8.5049 52.7458 13.6671 54.295 21.5178C55.8441 29.3685 55.2319 41.4573 49.1558 47.2636C46.8553 49.4667 44.0909 51.0909 41.3914 52.7619C39.9629 53.6487 38.3673 54.8903 38.4879 56.5706C38.5807 57.8121 38.4972 59.0536 38.423 60.2952C38.3209 61.8355 38.2189 63.3944 37.7087 64.8413C37.1985 66.2882 36.2152 67.6511 34.8052 68.2486C33.794 68.678 32.6716 68.6873 31.577 68.6873C28.1076 68.6967 24.6475 68.7153 21.1781 68.7247C19.8516 68.7247 18.3673 68.678 17.4304 67.7258C16.4935 66.7737 16.4378 65.3641 16.4007 64.0665C16.3265 60.958 16.1966 57.8494 16.0297 54.7409C15.9926 54.1061 15.3247 53.7421 14.7588 53.4807C13.3488 52.8272 12.0037 52.0338 10.7421 51.1283L10.7328 51.1376Z" fill="white"/>
    <path d="M15.3617 59.1944C14.295 60.4546 15.1113 62.8257 16.3172 63.6471C15.5194 64.0672 14.6846 64.786 14.6475 65.8128C14.5918 67.1757 15.9091 67.9692 17.0037 68.408C18.5528 69.0241 20.0927 69.6495 21.6419 70.2656C21.9295 70.3776 22.2263 70.499 22.4489 70.7417C25.3988 73.8689 30.371 73.8409 33.2931 70.6857C33.692 70.2469 34.0909 69.7522 34.6196 69.5935C35.2411 69.4068 35.8534 69.2201 36.4749 69.0334C37.9313 68.5946 39.4898 68.0812 40.4545 66.709C41.4193 65.3368 41.3079 62.8257 39.9072 62.1815C40.9369 62.0135 41.1224 60.1279 40.3803 59.2504C39.6382 58.3729 38.4972 58.2702 37.4582 58.2235C32.6159 57.9901 27.7643 57.9155 22.9313 58.2235C21.7532 58.2982 20.5658 58.4009 19.3877 58.5222C18.2467 58.6436 16.5862 58.1488 15.5937 58.9983C15.5194 59.0637 15.4452 59.1383 15.3803 59.213L15.3617 59.1944Z" fill="#376880"/>
    <path d="M34.0909 16.8984C33.0798 16.8144 32.1058 16.4036 31.3358 15.7409C31.9295 16.6277 32.5603 17.5145 33.1169 18.4013C31.9017 18.9241 30.436 19.0921 29.1466 19.3442C29.629 19.2508 30.4082 19.9323 30.8164 20.1283C31.5585 20.483 32.3191 20.8097 33.0984 21.0805C32.1058 21.7899 31.2802 22.7421 30.7143 23.8343C31.9852 23.4329 33.2468 23.0035 34.4991 22.546C34.7496 23.5449 34.6383 24.5624 34.8238 25.5519C35.0093 26.5414 35.4546 27.5402 35.5473 28.6044C35.5288 28.3524 35.9091 27.7736 36.0019 27.5122C36.1503 27.0828 36.2709 26.6348 36.373 26.1867C36.5214 25.5612 36.5585 23.4422 37.2078 23.2555C37.5696 23.1528 38.4787 23.6196 38.8219 23.7503C39.3878 23.9743 39.9258 24.2357 40.4453 24.5531C39.9444 23.4235 39.2765 22.3687 38.4787 21.4352C38.2561 21.1831 38.6364 20.8471 38.9518 20.7257C39.6754 20.455 40.3989 20.1843 41.1225 19.9136C41.6884 19.6989 42.5047 19.5682 42.9128 19.0921C41.3544 18.5227 39.7589 18.588 38.1169 18.5227C38.154 18.1026 39.4898 15.2088 39.8516 15.3581C39.462 15.1621 38.9982 15.3861 38.6828 15.6849C38.3674 15.9836 38.1169 16.357 37.7366 16.5623C37.3563 16.7677 36.7718 16.7024 36.6327 16.2916C36.1967 15.0594 35.9091 13.7805 35.7793 12.4736C35.0557 13.7712 35.5288 15.5355 34.6846 16.7584C34.6012 16.8891 34.4156 16.8984 34.2672 16.8891C34.2023 16.8891 34.1466 16.8891 34.0817 16.8797L34.0909 16.8984Z" fill="#F0CB54"/>
    <path d="M17.6102 22.4946C15.7655 24.6205 10.021 25.5063 7.42114 26.0251C9.73627 26.9488 12.039 27.8599 14.3542 28.7836C17.2388 29.9351 18.3406 31.5801 18.6006 34.5791C19.1577 38.711 19.9625 41.5387 20.2472 44.8794C21.6338 41.2418 22.5995 35.4522 23.6023 31.1879C23.7137 30.7323 23.8252 30.2515 24.1223 29.8972C24.4318 29.5302 24.8899 29.3404 25.3356 29.1632C27.6259 28.2395 30.9191 27.3225 33.3952 26.0571C30.3001 25.4244 24.4566 25.3544 22.4881 21.9379C20.9158 19.2046 21.1138 15.2313 20.371 12.207C20.7177 13.6369 18.5759 21.3558 17.6102 22.4946Z" fill="#F79360"/>
    <path d="M32.3996 35.9858C32.2971 36.124 32.1849 36.2504 32.0734 36.3656C30.921 37.4602 28.4801 37.4221 27.043 37.6173C27.4415 37.5655 28.4327 38.3107 28.8057 38.4914C29.3392 38.7606 29.9496 38.9679 30.4006 39.3878C31.2543 40.1685 31.8498 41.2444 32.1275 42.4108C32.5675 44.279 33.0212 46.4156 33.0517 48.3461C33.049 48.0672 33.4946 47.45 33.6065 47.1676C33.7929 46.7005 33.9496 46.2092 34.0848 45.7277C34.3386 44.8638 34.4423 44.068 34.5607 43.2064C34.7522 41.859 35.8435 40.4261 37.0027 39.867C37.6359 39.5631 38.4131 39.6031 39.1108 39.4261C39.8403 39.2401 40.5556 38.9528 41.2338 38.5961C41.2124 38.6059 40.0533 37.883 39.9319 37.8305C39.2727 37.5753 38.5885 37.3853 37.8888 37.2724C37.0967 37.1422 36.2706 37.0544 35.811 36.2884C35.3884 35.5918 35.2109 34.6438 34.9715 33.8477C34.7916 33.2562 34.6864 32.6362 34.6018 32.0176C34.545 31.6126 34.2854 30.648 34.4245 30.267C33.8244 31.8215 33.4037 34.614 32.3989 35.9969L32.3996 35.9858Z" fill="#FFB48E"/>
  </g>
  <defs>
    <clipPath id="clip0_1019_53987">
      <rect width="55" height="72.1311" fill="white" transform="translate(0 0.93457)"/>
    </clipPath>
  </defs>
</svg>