<svg xmlns="http://www.w3.org/2000/svg" width="54" height="81" viewBox="0 0 54 81" fill="none">
    <g clip-path="url(#clip0_1019_53920)">
        <path d="M6.72548 33.8692C6.6208 29.7134 6.72548 23.8216 7.3797 19.7446C8.08627 15.2863 9.53866 9.63118 14.6286 5.5674C19.2474 1.8587 25.1878 0.227926 30.487 1.20113C35.5508 2.13488 40.1304 4.92298 43.0482 8.85525C44.8146 11.2357 45.8614 13.958 46.0969 16.7198C46.411 20.3759 46.424 24.0451 46.4371 27.596C46.4371 29.2005 46.4502 30.7918 46.4895 32.3831L39.0967 32.5409C39.0574 30.9102 39.0574 29.2662 39.0444 27.6223C39.0313 24.2161 39.0051 20.6915 38.7303 17.3379C38.6126 15.9439 38.0499 14.5367 37.1209 13.2741C35.3414 10.8674 32.3712 9.07882 29.1655 8.48701C25.986 7.90835 22.1783 8.99991 19.2343 11.3672C16.7613 13.353 15.4398 16.1148 14.6809 20.9019C14.1183 24.4923 14.0267 30.0159 14.1183 33.672L6.72548 33.8692Z" fill="#DCF1FB" />
        <path d="M6.72548 33.8692C6.6208 29.7134 6.72548 23.8216 7.3797 19.7446C8.08627 15.2863 9.53866 9.63118 14.6286 5.5674C19.2474 1.8587 25.1878 0.227926 30.487 1.20113C35.5508 2.13488 40.1304 4.92298 43.0482 8.85525C44.8146 11.2357 45.8614 13.958 46.0969 16.7198C46.411 20.3759 46.424 24.0451 46.4371 27.596C46.4371 29.2005 46.4502 30.7918 46.4895 32.3831L39.0967 32.5409C39.0574 30.9102 39.0574 29.2662 39.0444 27.6223C39.0313 24.2161 39.0051 20.6915 38.7303 17.3379C38.6126 15.9439 38.0499 14.5367 37.1209 13.2741C35.3414 10.8674 32.3712 9.07882 29.1655 8.48701C25.986 7.90835 22.1783 8.99991 19.2343 11.3672C16.7613 13.353 15.4398 16.1148 14.6809 20.9019C14.1183 24.4923 14.0267 30.0159 14.1183 33.672L6.72548 33.8692Z" fill="#DCF1FB" />
        <path d="M1.83184 33.1196C3.28423 32.4751 5.26 32.725 6.71238 32.6461C14.9949 32.2121 23.2774 31.9359 31.56 31.6729C35.6293 31.5414 39.6986 31.423 43.7679 31.2915C46.5418 31.1995 50.4148 30.5287 52.3383 33.1064C54.0393 35.3947 53.4374 38.5379 53.4766 41.1945C53.542 44.8375 53.4766 48.4935 53.5159 52.1365C53.5551 56.3318 53.6075 60.5402 53.6729 64.7355C53.7121 66.8792 53.7514 69.0097 53.8037 71.1534C53.843 73.0735 54.1701 75.0462 53.8822 76.9532C53.2149 81.2405 48.8709 80.7408 45.5605 80.7934C31.9394 81.0038 18.3576 81.0433 4.7497 80.1095C3.51975 80.0306 1.66174 80.0438 0.955175 78.8207C0.641145 78.2815 0.497215 77.6502 0.457961 77.0321C0.170101 73.113 0.170101 69.115 0.157016 65.209C0.130847 58.3176 0.235524 51.2685 0.0261707 44.3246C-0.0523367 41.5102 0.0392553 38.9851 1.55671e-06 35.6972C1.55671e-06 35.066 0.300947 34.4478 0.706568 33.9612C1.0206 33.5799 1.40005 33.3168 1.83184 33.1196Z" fill="#FF945E" />
        <path d="M19.1296 52.5174C19.339 49.2164 21.4325 46.5335 24.756 45.9943C27.8701 45.4814 31.4945 46.2179 32.5544 49.5847C33.3526 52.1229 33.7974 56.213 31.7039 58.2383C30.9057 59.0011 30.0029 59.6718 29.0477 60.2241C28.8907 60.3162 28.7206 60.4083 28.6421 60.5661C28.5767 60.6976 28.5898 60.8554 28.5898 61.0001C28.6552 62.21 28.6029 63.3936 28.6421 64.6167C28.6814 65.8135 28.7075 67.0103 28.7468 68.207C28.773 69.1145 28.9954 70.0614 28.315 70.7979C27.4514 71.7316 25.6719 71.5344 24.6775 70.8899C23.8793 70.377 24.0233 69.2855 23.984 68.4569C23.8532 66.3132 23.827 64.1696 23.7223 62.0259C23.7092 61.6708 23.6831 61.2894 23.4868 61.0001C23.2905 60.7107 22.9634 60.5529 22.6755 60.382C20.5951 59.1852 19.4698 57.0547 19.2081 54.7006C19.1296 54.0035 19.1035 53.2671 19.1558 52.5437L19.1296 52.5174Z" fill="#472702" />
    </g>
    <defs>
        <clipPath id="clip0_1019_53920">
            <rect width="54" height="80" fill="white" transform="translate(0 0.924805)" />
        </clipPath>
    </defs>
</svg>