<svg width="440" height="58" viewBox="0 0 440 58" fill="none" xmlns="http://www.w3.org/2000/svg">
<path d="M506.131 -17.4058C507.996 -17.4058 508.929 -17.4056 510.795 -16.8443C521.057 -15.7216 525.721 -12.353 528.52 -8.42341C531.318 -5.61658 530.386 -2.24881 530.386 0.558035V2.24261L529.453 16.8383V22.4516L530.386 38.7319C530.355 38.7777 526.631 44.3638 521.057 48.8364C516.392 53.3272 509.862 54.4496 504.265 54.4496L481.875 55.5727L473.479 56.6957H459.485C452.955 56.6957 445.492 56.1337 438.962 54.4496L414.707 55.0112H402.579L380.189 55.5727L368.062 56.1342L358.733 55.853L349.982 57.2563H338.209L316.753 56.6957L307.424 56.1342L284.102 55.5727L270.108 56.6957L248.651 56.1342L240.256 57.2563L223.463 56.6957C218.799 56.6957 214.134 56.1339 210.402 55.0112L207.604 54.4496H184.281L174.953 55.5727L157.228 57.2563C153.496 57.8176 149.765 57.2563 146.033 57.2563H133.905C132.039 57.2563 129.241 56.6957 127.375 56.6957L118.979 56.1342L106.852 57.2563H88.1934L76.0654 56.1342L63.9385 56.6957C56.4753 56.6957 50.8776 56.1339 45.2803 55.0112L21.0254 53.8881L9.83008 55.5727L-12.5596 54.4496L-26.5527 53.8881H-47.0762L-59.2041 56.1342H-79.7275L-92.7881 55.0112L-111.446 55.5727C-113.312 55.5727 -117.043 55.5727 -118.909 55.5727L-126.372 55.0112L-131.97 52.2045C-135.701 50.5204 -137.567 46.5902 -137.567 42.6606L-139.433 40.4155C-141.298 38.17 -142.231 34.8014 -142.231 31.9946L-143.164 21.8901L-144.098 14.5922L-142.231 1.68108C-142.231 -0.00303459 -141.298 -2.24906 -140.365 -3.93318L-137.567 -7.86286C-130.104 -12.3538 -122.641 -14.599 -115.178 -14.0377H-93.7207L-81.5938 -15.1607L-62.0029 -15.7213L-48.9424 -14.5992H-27.4854L-24.6865 -15.1607C-18.1565 -16.2834 -13.4921 -16.8441 -6.0293 -16.2828L7.96484 -15.1607L21.0254 -16.2828L45.2803 -14.5992L55.542 -13.4761L75.1328 -15.7213L83.5293 -16.2828C84.4624 -16.2829 88.1925 -16.8441 89.126 -16.8443H186.147L206.671 -15.7213H235.591C238.389 -15.7213 241.188 -15.7221 244.92 -15.1607L252.383 -14.5992L272.907 -16.8443L279.437 -17.4058C283.168 -17.4058 284.102 -16.8443 287.833 -16.8443L306.491 -15.7213L311.155 -16.2828C313.954 -16.2828 318.618 -16.2826 321.417 -15.7213L338.209 -13.4761L352.203 -14.5992H371.794L382.988 -16.2828L399.78 -16.8443C401.646 -16.8443 405.377 -16.2829 407.243 -16.2828L418.438 -15.7213H428.7C436.163 -15.7213 442.694 -15.7218 448.291 -14.0377L449.224 -13.4761L474.412 -14.0377L483.741 -15.7213L506.131 -17.4058Z" fill="#FFD6C2"/>
</svg>
