<svg width="1728" height="46" viewBox="0 0 1728 46" fill="none" xmlns="http://www.w3.org/2000/svg">
<path d="M1791.32 -183.975C1797.04 -183.975 1799.91 -183.975 1805.63 -182.252C1837.12 -178.808 1851.43 -168.473 1860.02 -156.416C1868.6 -147.803 1865.74 -137.468 1865.74 -128.856V-123.689L1862.88 -78.9048V-61.6802L1865.74 -11.729C1865.73 -11.7034 1854.28 5.50549 1837.12 19.2749C1822.81 33.0543 1802.77 36.4995 1785.6 36.4995L1716.9 39.9448L1691.14 43.3892H1648.2C1628.16 43.3891 1605.26 41.6669 1585.23 36.4995L1510.81 38.2222H1473.59L1404.9 39.9438L1367.69 41.6665L1310.44 39.9438L1276.09 45.1118L1210.25 43.3892L1181.63 41.6665L1110.07 39.9438L1067.13 43.3892L1001.3 41.6665L975.537 45.1118L924.013 43.3892C909.701 43.3891 895.389 41.667 883.94 38.2222L875.353 36.4995H803.792L775.168 39.9438L720.784 45.1118C709.334 46.8343 697.884 45.1118 686.434 45.1118H649.223C643.498 45.1118 634.911 43.3892 629.186 43.3892L603.425 41.6665L566.213 45.1118H508.966L471.754 41.6665L434.543 43.3892C411.644 43.3892 394.47 41.6671 377.295 38.2222L302.874 34.7769L268.525 39.9438L199.827 36.4995L156.891 34.7769H93.9185L56.7075 41.6665H-6.26514L-46.3394 38.2222L-103.587 39.9438C-109.312 39.9438 -120.761 39.9438 -126.486 39.9438L-149.385 38.2222L-166.56 29.6099C-178.01 24.4425 -183.734 12.3848 -183.734 0.327637L-189.459 -6.56201C-195.184 -13.4518 -198.046 -23.7867 -198.046 -32.3989L-200.909 -63.4028L-203.771 -85.7954L-198.046 -125.412C-198.046 -130.579 -195.184 -137.469 -192.322 -142.636L-183.734 -154.693C-160.835 -168.473 -137.936 -175.363 -115.037 -173.64H-49.2017L-11.9907 -177.085L48.1196 -178.808L88.1938 -175.363H154.029L162.616 -177.085C182.653 -180.53 196.965 -182.252 219.864 -180.53L262.799 -177.085L302.874 -180.53L377.295 -175.363L408.782 -171.917L468.892 -178.808L494.654 -180.53C497.516 -180.53 508.966 -182.252 511.829 -182.252H809.517L872.491 -178.808H961.224C969.811 -178.808 978.399 -178.808 989.848 -177.085L1012.75 -175.363L1075.72 -182.252L1095.76 -183.975C1107.21 -183.975 1110.07 -182.252 1121.52 -182.252L1178.77 -178.808L1193.08 -180.53C1201.67 -180.53 1215.98 -180.53 1224.56 -178.808L1276.09 -171.917L1319.02 -175.363H1379.13L1413.48 -180.53L1465.01 -182.252C1470.73 -182.252 1482.18 -180.53 1487.91 -180.53L1522.25 -178.808H1553.74C1576.64 -178.808 1596.68 -178.807 1613.85 -173.64L1616.71 -171.917L1694 -173.64L1722.62 -178.808L1791.32 -183.975Z" fill="#FFD6C2"/>
</svg>
