<svg width="319" height="299" viewBox="0 0 319 299" fill="none" xmlns="http://www.w3.org/2000/svg">
<g clip-path="url(#clip0_3_402)">
<path d="M319 73.2092H129.539V299H319V73.2092Z" fill="#9ED2F0"/>
<path d="M311.221 293.407H137.318C136.125 293.407 135.14 292.423 135.14 291.231V80.9783C135.14 79.787 136.125 78.803 137.318 78.803H311.221C312.414 78.803 313.399 79.787 313.399 80.9783V291.231C313.399 292.423 312.414 293.407 311.221 293.407ZM139.496 289.056H309.043V83.1536H139.496V289.056Z" fill="#07374F"/>
<path d="M284.178 125.857H164.362C162.78 125.857 161.509 124.588 161.509 123.008C161.509 121.428 162.78 120.159 164.362 120.159H284.178C285.759 120.159 287.03 121.428 287.03 123.008C287.03 124.588 285.759 125.857 284.178 125.857Z" fill="#07374F"/>
<path d="M284.178 154.809H164.362C162.78 154.809 161.509 153.54 161.509 151.96C161.509 150.38 162.78 149.112 164.362 149.112H284.178C285.759 149.112 287.03 150.38 287.03 151.96C287.03 153.54 285.759 154.809 284.178 154.809Z" fill="#07374F"/>
<path d="M284.178 183.735H164.362C162.78 183.735 161.509 182.466 161.509 180.886C161.509 179.307 162.78 178.038 164.362 178.038H284.178C285.759 178.038 287.03 179.307 287.03 180.886C287.03 182.466 285.759 183.735 284.178 183.735Z" fill="#07374F"/>
<path d="M225.19 232.239C223.609 232.239 222.338 230.97 222.338 229.391V223.693C222.338 222.114 223.609 220.845 225.19 220.845C226.772 220.845 228.042 222.114 228.042 223.693V229.391C228.042 230.97 226.772 232.239 225.19 232.239Z" fill="#07374F"/>
<path d="M242.277 232.239H206.288C204.707 232.239 203.436 230.97 203.436 229.391C203.436 227.811 204.707 226.542 206.288 226.542H242.277C243.859 226.542 245.129 227.811 245.129 229.391C245.129 230.97 243.859 232.239 242.277 232.239Z" fill="#07374F"/>
<path d="M211.033 263.289C209.866 263.289 208.777 262.564 208.336 261.399C207.792 259.922 208.57 258.291 210.048 257.747C210.126 257.721 218.241 254.691 225.112 247.259C233.306 238.428 234.628 229.106 234.654 229.002C234.861 227.448 236.314 226.361 237.843 226.542C239.399 226.749 240.514 228.173 240.307 229.727C240.255 230.167 238.777 240.889 229.313 251.118C221.456 259.612 212.355 262.952 211.992 263.082C211.681 263.185 211.344 263.263 211.033 263.263V263.289Z" fill="#07374F"/>
<path d="M237.506 263.289C237.195 263.289 236.858 263.237 236.547 263.108C236.158 262.978 227.083 259.638 219.226 251.143C209.736 240.889 208.284 230.193 208.233 229.753C208.025 228.199 209.14 226.775 210.696 226.568C212.252 226.361 213.678 227.474 213.885 229.028C213.885 229.235 215.285 238.48 223.401 247.285C230.272 254.717 238.414 257.747 238.491 257.773C239.969 258.317 240.747 259.948 240.203 261.424C239.788 262.59 238.699 263.289 237.532 263.289H237.506Z" fill="#07374F"/>
<path d="M189.435 0H0V225.791H189.435V0Z" fill="#DBF3FC"/>
<path d="M181.656 220.197H7.77859C6.58587 220.197 5.60059 219.213 5.60059 218.022V7.7688C5.60059 6.57757 6.58587 5.59351 7.77859 5.59351H181.656C182.849 5.59351 183.834 6.57757 183.834 7.7688V218.022C183.834 219.213 182.849 220.197 181.656 220.197ZM9.9566 215.846H179.478V9.9441H9.9566V215.846Z" fill="#07374F"/>
<path d="M154.638 52.6474H34.7962C33.2146 52.6474 31.9441 51.3785 31.9441 49.7988C31.9441 48.2191 33.2146 46.9502 34.7962 46.9502H154.612C156.194 46.9502 157.465 48.2191 157.465 49.7988C157.465 51.3785 156.194 52.6474 154.612 52.6474H154.638Z" fill="#07374F"/>
<path d="M154.638 81.5996H34.7962C33.2146 81.5996 31.9441 80.3306 31.9441 78.751C31.9441 77.1713 33.2146 75.9023 34.7962 75.9023H154.612C156.194 75.9023 157.465 77.1713 157.465 78.751C157.465 80.3306 156.194 81.5996 154.612 81.5996H154.638Z" fill="#07374F"/>
<path d="M154.638 110.526H34.7962C33.2146 110.526 31.9441 109.257 31.9441 107.677C31.9441 106.098 33.2146 104.829 34.7962 104.829H154.612C156.194 104.829 157.465 106.098 157.465 107.677C157.465 109.257 156.194 110.526 154.612 110.526H154.638Z" fill="#07374F"/>
<path d="M113.879 186.402C113.827 187.361 113.567 188.137 113.127 188.733C112.686 189.329 112.115 189.691 111.467 189.821C110.819 189.95 110.171 189.821 109.523 189.484C108.874 189.121 108.33 188.526 107.863 187.671C107.552 185.315 107.137 183.01 106.593 180.731C106.048 178.452 105.4 176.199 104.648 173.946L84.7347 174.102C84.7347 174.102 84.5273 174.102 84.3977 174.076C84.268 174.076 84.1643 174.05 84.0606 174.05C82.816 178.297 81.6752 182.699 80.6899 187.257C80.3009 188.319 79.7046 189.018 78.9527 189.355C78.2007 189.691 77.5006 189.769 76.8006 189.588C76.1005 189.406 75.5819 188.94 75.1411 188.241C74.7004 187.542 74.5966 186.635 74.8041 185.548C76.4635 178.297 78.4341 171.201 80.7677 164.287C83.1012 157.372 86.0052 150.588 89.5315 143.984C89.8427 143.026 90.5168 142.43 91.6318 142.171C92.1763 141.964 92.7208 141.938 93.2134 142.068C93.706 142.197 94.1468 142.43 94.4839 142.793C94.5358 142.793 94.5617 142.793 94.5617 142.819C94.5617 142.845 94.5617 142.845 94.6395 142.845C97.2323 145.357 99.4103 148.179 101.173 151.313C102.937 154.472 104.518 157.657 105.996 160.92C106.541 162.06 107.059 163.225 107.526 164.364C107.993 165.53 108.459 166.669 108.926 167.809L112.919 167.731C113.879 168.042 114.579 168.482 115.019 169.078C115.46 169.673 115.694 170.295 115.668 170.916C115.642 171.538 115.382 172.133 114.89 172.729C114.397 173.299 113.671 173.687 112.712 173.894H111.13C111.778 175.94 112.349 178.012 112.815 180.084C113.282 182.155 113.645 184.279 113.904 186.428L113.879 186.402ZM93.1356 150.303C91.7355 153.151 90.439 156.052 89.2722 159.004C88.0795 161.956 86.9905 164.934 86.0052 167.938L102.392 167.783C101.744 166.281 101.07 164.805 100.396 163.355C99.7215 161.904 99.0214 160.454 98.3213 159.004C97.5175 157.554 96.7138 156.078 95.91 154.576C95.1062 153.074 94.1728 151.649 93.1356 150.303Z" fill="#07374F"/>
</g>
<defs>
<clipPath id="clip0_3_402">
<rect width="319" height="299" fill="white"/>
</clipPath>
</defs>
</svg>
