<svg width="455" height="208" viewBox="0 0 455 208" fill="none" xmlns="http://www.w3.org/2000/svg">
<g clip-path="url(#clip0_23_26)">
<path d="M100.783 103.541L98.4226 103.361L94.2526 103.181L92.0726 102.821L87.5426 102.641L85.5426 103.181L82.8226 103.361C82.1026 103.361 81.0126 103.541 80.2826 103.361L79.7426 103.181H75.5726L72.6726 103.361L69.7726 105.901L69.9526 107.711L69.4126 112.421L69.7726 114.051L69.9526 117.131C69.9526 118.041 69.7726 119.311 69.5926 120.211L69.4126 120.751L69.7726 124.011V125.641L69.5926 126.731L68.8726 130.901V137.431L69.7826 139.061L69.9626 142.871V144.501L69.7826 145.771L69.9626 149.031V150.481L69.7826 152.291L69.9626 156.461V159.001L69.6026 163.171L69.7826 163.351C70.1426 164.801 70.1426 165.711 69.9626 167.161L69.6026 169.521V171.701L69.4226 175.871V178.051L69.6026 179.501C69.7826 181.311 69.6026 182.401 69.0626 183.491V187.841L69.6026 189.291V192.921C69.6026 193.461 69.4226 194.371 69.2426 194.911L68.8826 196.361L69.4226 200.531C69.4226 200.531 69.2426 200.891 69.0626 201.441C67.4326 204.521 65.0726 205.431 63.8026 205.251L59.6326 205.611C58.7226 205.971 57.4526 206.151 56.1826 205.971L53.6426 205.791L51.6526 205.431L47.8426 205.071H45.1226L42.2226 205.431C41.5026 205.611 40.4126 205.611 39.6826 205.431L38.9626 205.251C37.3326 203.801 36.4226 202.351 36.2426 200.901V200.541L36.0626 196.191L36.2426 194.381L36.0626 190.941C36.0626 190.401 36.2426 189.851 36.2426 189.311L36.6026 187.681L36.4226 183.691L36.7826 181.511L36.4226 177.161V175.351L36.6026 173.171L36.0626 171.181V162.301L35.8826 159.221C35.8826 158.681 35.8826 157.771 36.0626 157.231L36.2426 156.321L36.6026 152.151V150.161L35.8826 145.991V145.451C35.7026 144.731 35.7026 144.001 35.7026 143.271L35.8826 139.641V133.841C35.8826 133.481 36.0626 132.751 36.0626 132.391L36.2426 130.941L36.6026 127.131V124.771L36.7826 119.151L36.6026 114.441L36.2426 112.261L36.0626 107.731L35.8826 105.371L34.0726 103.381L32.4426 103.201H30.6326L26.4626 103.021L25.9226 103.201C24.8326 103.561 23.9226 103.561 22.8426 103.561H21.7526C21.2126 103.561 20.6626 103.381 20.1226 103.201L19.0326 102.841L17.0426 103.021L12.6926 102.661L10.7026 103.201L6.89258 103.381H5.08258L4.17258 103.201C2.72258 102.111 1.63258 100.841 1.45258 99.7615L1.99258 97.7715L1.26258 93.7815C1.26258 93.2415 1.08258 92.8715 1.08258 92.1515L1.26258 90.5215L1.08258 86.7115L0.902578 85.4415C0.722578 84.3515 0.722578 83.8115 0.902578 82.7215L1.08258 80.7315C1.08258 80.0115 1.26258 79.6415 1.44258 79.1015L1.98258 77.1115C3.61258 75.4815 5.24258 74.7515 6.51258 74.9315L9.41258 74.7515C10.1326 74.7515 10.8626 74.5715 11.5826 74.7515L13.2126 75.1115L17.0226 74.9315L19.3826 75.1115H22.8326L25.0026 74.5715H27.5426C28.4526 74.5715 29.5426 74.5715 30.4426 74.9315L31.7126 75.2915L35.3426 75.4715L38.0626 74.7515H42.5926L54.5626 75.6615L57.1026 75.1215L61.0926 75.4815L63.4526 75.8415L66.9026 75.6615L67.9926 75.3015C69.0826 74.9415 70.3526 74.7615 71.6226 74.9415L73.7926 75.1215L76.3326 75.3015L80.1426 75.1215L82.5026 74.9415L86.8526 75.1215L89.0326 74.9415L93.5626 75.1215H99.0026C99.0026 75.1215 103.353 78.2015 104.083 80.0115V80.9215L104.263 84.5515L104.623 86.9115L104.983 89.9915C104.983 90.7115 105.163 91.4415 104.983 92.1715L104.803 92.7115L104.623 96.7015V98.8815C104.803 100.331 104.443 101.241 103.713 101.961C102.983 102.681 101.903 103.231 100.813 103.591L100.783 103.541Z" fill="#07374F"/>
<path d="M159.343 113.331C159.883 113.331 160.433 113.511 160.793 113.691L164.603 114.781C165.873 114.781 167.143 115.141 168.233 115.691L170.773 116.961H171.133C172.403 117.321 173.673 118.051 174.763 118.951L176.393 120.221L176.753 120.401C177.843 120.941 178.563 121.311 179.473 122.211L181.653 124.021L185.463 126.921L186.733 128.191L188.723 130.181C189.633 130.901 190.173 131.811 190.713 133.081L191.073 133.991L192.703 135.981C193.243 136.891 193.613 137.611 193.973 138.701L194.333 139.431L195.423 143.781L196.693 146.141L197.783 149.221C198.143 150.131 198.323 151.211 198.323 152.301V155.741L198.143 158.101V162.631L197.963 164.991L198.143 168.251C198.143 168.981 197.963 170.061 197.783 170.791L196.693 174.601V175.321C196.513 176.231 196.153 177.311 195.783 178.221L194.873 180.211C194.693 180.751 194.333 181.481 193.963 181.841L193.243 182.751L190.703 186.011L189.793 188.551L186.893 192.181L185.803 193.631L182.723 196.531C182.183 197.071 181.453 197.621 180.913 197.981L177.833 199.611L176.563 200.331L172.213 203.051L170.583 204.321L167.683 205.591C167.143 205.951 166.413 206.131 165.683 206.311L164.773 206.491L160.603 207.031L158.793 207.391C158.073 207.571 157.343 207.571 156.623 207.571L153.903 207.391H151.733L151.193 207.571C150.103 207.751 148.833 207.751 147.743 207.391L147.203 207.211L145.573 207.571L141.223 207.211L138.683 207.031L134.693 206.121L132.693 205.211L129.063 203.941L127.973 203.761C127.063 203.401 126.163 203.031 125.433 202.491L123.253 200.861L121.073 199.951L117.443 197.411L116.723 196.871C116.183 196.511 115.633 195.961 115.093 195.241L114.553 194.701L112.743 193.071C112.023 192.531 111.113 191.621 110.383 190.711L108.933 188.721L108.393 187.631C108.213 187.271 107.853 186.721 107.663 186.181L106.393 182.551L105.123 181.101L103.493 176.931L102.763 174.941L101.853 171.311C101.673 170.591 101.673 170.041 101.673 169.501V168.591L101.493 164.241L101.313 162.611L100.593 160.071L100.413 157.531V156.811C100.413 155.901 100.413 155.001 100.593 154.271L101.313 150.461L102.033 146.831C102.213 146.111 102.393 145.381 102.753 144.841L103.293 143.571L104.383 139.761L105.103 137.771C105.103 137.591 105.283 137.231 105.463 137.041L106.913 134.321C107.273 133.781 107.633 133.051 108.183 132.511L108.903 131.971L111.623 129.071L113.073 127.621L116.153 124.361L116.883 123.631C117.243 123.091 117.793 122.721 118.333 122.181L120.143 120.731C120.863 120.191 121.593 119.821 122.313 119.461L122.853 119.281L126.113 117.651C126.473 117.471 127.203 117.471 127.563 117.291L128.833 116.931L132.643 115.661L134.453 115.121L139.163 113.671L140.253 113.131C140.793 112.951 141.343 112.771 141.883 112.591L143.693 112.231C144.783 112.051 145.873 112.231 146.953 112.411H147.133L149.673 112.231L151.673 112.411L154.033 112.591L158.203 113.131L159.293 113.311L159.343 113.331ZM159.883 178.591L162.423 175.151L163.693 173.521L165.873 170.441L166.233 168.631L167.683 164.641L167.503 162.281L167.323 160.291V156.481L166.783 152.491L165.693 150.501L163.333 146.331L162.423 145.241L159.523 143.251C158.803 142.711 158.253 142.161 157.893 141.621L157.353 141.081L153.723 140.361L151.363 140.541H149.553L147.373 140.721H144.833L141.573 141.261L136.863 144.521L135.593 145.791L133.053 149.961L132.333 151.411L131.793 156.301V157.751L132.153 160.291V160.471C132.333 161.741 132.153 162.651 131.793 163.911V164.091L132.513 168.441L133.053 170.431L135.233 174.061L136.863 175.691L139.763 178.771L141.753 179.861L145.743 180.591H146.283C147.193 180.591 148.273 180.591 149.183 180.951L149.363 181.131L151.903 180.591L153.713 181.131L157.883 179.321L159.873 178.591H159.883Z" fill="#07374F"/>
<path d="M269.933 115.321L270.473 115.141L272.473 115.321H276.283L278.093 114.961H283.353L287.883 115.321L290.053 115.501L294.763 115.141C294.763 115.141 296.033 116.411 296.943 117.501C298.033 118.951 297.483 120.581 296.943 122.031L296.033 123.841L295.123 125.651L293.673 129.821L292.583 132.181L290.583 136.711L288.593 141.601L287.683 144.141L286.593 147.591C286.413 148.131 286.053 148.501 285.683 149.221L284.963 150.671L283.873 153.211C283.693 153.931 283.153 154.481 282.783 155.021L282.243 155.931L280.063 159.921L279.703 162.281L278.433 165.541C278.253 165.901 278.073 166.271 277.893 166.811L277.163 168.081L275.713 171.341L274.623 173.331L272.633 177.501L271.723 179.861L269.913 183.851L269.003 185.481L267.733 188.381C267.373 189.471 267.013 190.191 266.463 190.921L265.923 191.641L264.293 195.271L264.113 197.081L263.023 200.161C262.843 200.881 262.303 201.431 261.933 201.971L261.213 203.241L259.403 204.151C258.313 204.691 257.233 205.241 255.963 205.421H255.603L253.063 205.961C252.343 206.141 251.433 205.961 250.703 205.961H249.983L248.893 206.141C248.173 206.321 247.263 206.141 246.533 206.141L243.993 205.961C242.543 206.141 240.543 205.421 238.553 203.971C238.013 203.791 237.463 202.881 236.923 201.791L235.653 197.981L234.203 195.801L232.753 192.171C232.573 191.811 232.393 191.261 232.213 190.721L231.853 189.271L229.493 184.921L229.133 184.381C228.953 183.841 228.593 183.471 228.413 182.751L227.323 179.311L226.053 177.681L224.603 173.511L223.693 171.881L222.063 167.711L221.703 166.801C221.523 166.441 221.343 165.891 221.163 165.351L220.433 162.271L219.343 160.641L217.713 156.651L216.263 154.111L214.813 150.671C214.633 149.941 214.453 149.401 214.453 148.861L214.273 147.771L212.463 144.331L211.553 141.971L209.923 139.791C209.563 139.251 209.013 138.521 208.833 137.801L208.293 136.531L206.663 133.091C206.303 132.371 205.943 131.641 205.753 130.911L205.573 129.821L203.763 124.741L201.953 120.571C201.953 120.571 203.403 116.761 204.493 115.491C204.853 115.131 205.583 114.951 205.943 114.951L209.383 114.771L211.383 114.591L213.193 114.411H214.643L215.733 114.591H217.723L219.903 114.951L220.263 114.771C221.353 114.411 222.803 114.591 224.073 114.771H224.253L226.423 114.951L228.233 114.411C229.503 114.411 231.133 114.951 232.583 116.041C233.123 116.401 233.853 117.491 234.583 118.941L235.853 121.481C236.213 122.391 236.393 123.471 236.573 124.381L236.753 124.741L238.203 128.371L238.923 130.731L240.373 134.901L240.913 136.711L242.183 140.521L242.723 142.151L243.993 146.681L245.983 150.851L246.893 152.841L247.803 155.561C248.163 156.651 248.343 157.371 248.343 158.461V159.191L250.333 159.731L251.243 158.101L251.963 156.111L253.773 152.301L254.133 149.941L255.223 145.411L255.403 143.601L255.763 142.151C255.943 141.791 256.123 141.241 256.303 140.701L257.393 138.891L257.573 136.901L259.383 132.911L260.653 130.731L262.103 126.741L262.643 124.931C262.643 123.841 262.823 122.941 263.183 121.851L263.723 120.401C264.083 119.311 264.453 118.591 264.993 117.861L265.353 117.321L266.803 116.411C267.893 115.691 268.803 115.501 269.883 115.321H269.933Z" fill="#07374F"/>
<path d="M339.913 170.981L339.553 168.441L339.733 163.731L339.373 162.281L339.733 157.931L339.193 155.941L339.553 151.771L339.013 150.141L339.193 145.791L339.013 143.431L339.553 137.811L339.913 133.461V133.281C340.093 132.191 340.093 131.471 339.913 130.381V130.021L339.373 126.031L339.733 124.041L339.773 123.551C339.833 121.281 339.873 119.631 339.503 118.381C339.413 118.151 339.323 117.921 339.193 117.701C339.063 117.441 338.903 117.191 338.733 116.951C338.703 116.921 338.683 116.891 338.653 116.861C338.623 116.821 338.583 116.781 338.543 116.741C337.983 116.171 337.183 115.701 336.033 115.281C335.953 115.251 335.853 115.231 335.763 115.201C334.663 115.001 333.453 114.991 332.113 114.991L330.303 115.171L329.583 114.991C329.043 114.811 328.133 114.811 327.583 114.811H322.693L320.413 114.651C319.623 114.701 318.873 114.761 318.183 114.831C317.683 114.921 317.173 115.021 316.713 115.181L316.353 115.361L313.423 115.601C310.043 116.731 308.223 119.321 307.653 122.751V124.231C307.563 124.431 307.513 124.651 307.453 124.861C307.443 125.321 307.443 125.791 307.453 126.271C307.453 126.271 307.373 126.171 307.223 125.971C307.143 126.761 307.173 127.581 307.273 128.411L307.453 130.041L307.633 132.581V137.111L307.273 139.291L306.913 143.461L307.093 145.641V149.991L308.003 151.981V156.331L307.823 156.691C307.463 158.141 307.283 159.051 307.463 160.501L307.823 162.861L307.643 165.401L307.463 169.211V171.391L306.923 174.471V177.371L307.103 181.901L307.283 183.891V188.241L307.103 189.691L307.283 194.221C307.103 195.131 306.923 196.401 306.923 197.301L307.103 200.751L307.283 203.291L307.463 203.471C309.273 204.741 311.273 205.461 312.543 205.281H317.803L321.063 205.641C321.973 205.821 322.693 205.821 323.423 205.641L323.783 205.461L328.313 205.101H328.493C329.763 205.461 331.033 205.461 332.123 205.281L332.843 205.101C333.933 204.921 335.203 204.921 335.923 204.011C337.373 202.741 339.003 200.201 339.003 200.201L339.363 196.211L339.543 193.851V189.681L339.003 187.691L339.183 183.521L339.913 180.801L340.453 177.541C340.633 176.631 340.453 175.911 340.453 175.181L339.913 171.011V170.981Z" fill="#07374F"/>
<path d="M454.303 201.981L453.573 200.531L451.573 196.901L450.483 195.091L447.033 190.011L445.223 186.021L444.863 185.111C444.683 184.751 444.503 184.201 444.323 183.841L441.963 179.851L440.333 177.861L438.523 174.411L434.713 169.331L434.353 168.601C434.173 168.061 433.813 167.691 433.443 167.331L431.083 164.611L430.173 162.431L428.363 158.261L427.273 156.451L427.633 152.641L428.903 150.651L430.173 149.381C431.263 148.471 431.983 147.201 432.353 146.301L433.803 144.121L435.613 141.041L435.793 140.861C436.703 140.131 437.063 139.411 437.603 138.681L439.413 136.141L440.503 134.151L443.403 129.801L444.673 128.171L447.753 124.541L448.843 123.631C449.203 123.271 449.563 122.721 449.933 122.361L451.743 119.821L452.833 118.011C453.743 117.281 453.923 116.381 453.563 115.651C453.203 115.111 452.293 114.741 451.023 114.741L448.853 114.921L443.773 115.101H441.963L436.703 115.281L434.713 114.921L429.633 114.561L427.463 114.921L422.753 114.741C421.303 114.741 419.673 115.101 418.043 116.011C417.133 116.551 416.593 117.101 416.053 117.641L415.513 118.001L411.523 123.441L409.163 126.881L407.713 128.871L405.353 132.681L404.443 134.131L401.903 137.031L400.993 138.481L397.733 141.921L396.643 143.731L395.373 145.001L394.103 144.281L393.563 142.291L393.383 137.581L393.563 135.041L393.923 129.961L393.203 128.331L393.743 123.441V118.811C393.503 116.721 392.663 115.531 390.053 114.561C385.953 113.041 374.013 113.791 369.603 114.381C363.543 115.191 361.193 119.621 361.473 125.551C361.473 125.551 361.413 125.481 361.313 125.341L361.293 125.621L361.113 129.611V137.771L361.293 142.661L361.833 144.841L361.293 149.731V150.091C361.113 150.811 360.933 151.721 360.933 152.451L361.113 155.351L360.753 157.711L360.573 161.701V163.151L361.113 167.501L360.933 170.041V174.211L360.753 176.571L360.393 181.281V183.641L360.753 187.991L361.113 189.801V193.971L361.653 196.151L361.833 199.411C361.833 200.141 361.833 200.861 362.193 201.591C363.283 203.221 366.183 205.401 366.183 205.401L370.173 205.221H372.163L374.343 205.581H377.423C377.963 205.761 378.693 205.761 379.233 205.761H382.863C383.583 205.941 384.313 205.761 385.033 205.761L387.753 205.581C388.293 205.581 388.843 205.401 389.203 205.041C390.653 204.131 392.653 201.411 392.653 201.411L392.293 196.881L392.653 194.521L393.013 190.531V187.811L392.653 184.911L392.833 182.191L394.103 178.021L395.193 176.391L397.913 174.031L399.543 172.581L402.443 172.941L403.163 174.571L405.153 178.201L406.243 180.381L408.783 184.551L410.413 186.541L412.953 190.531L414.043 191.621L415.673 195.611L416.393 197.241L418.383 201.231C418.743 202.681 419.293 203.771 420.013 204.311C421.643 205.581 423.093 206.121 424.363 206.121L426.173 205.941L430.703 205.761L432.883 205.401H437.233L437.953 205.761C439.043 206.121 440.133 206.121 441.213 206.121H444.113L446.653 205.941H452.093L453.723 205.761C454.633 204.491 454.633 203.041 454.263 201.951L454.303 201.981Z" fill="#07374F"/>
<path d="M367.713 59.5115C369.363 59.0215 371.023 58.5415 372.673 58.4315C374.323 58.3215 376.073 58.6615 377.713 58.9215C379.353 59.1815 380.893 59.9215 382.443 60.5515C383.993 61.1815 385.823 61.3815 387.203 62.3415C388.583 63.3015 389.613 64.7315 390.753 65.9815C391.893 67.2315 392.543 68.7515 393.383 70.2315C394.223 71.7115 395.663 72.8815 396.163 74.5315C396.663 76.1815 396.683 77.7915 396.803 79.3615C396.923 80.9315 396.903 82.6315 396.683 84.2015C396.463 85.7715 395.643 87.2515 395.093 88.7515C395.093 88.7715 395.733 88.9615 395.733 88.9815C395.253 90.8915 394.903 92.5115 395.163 94.0715C395.473 95.9815 396.413 97.6215 396.553 99.1515C396.683 100.511 395.353 101.701 393.993 101.841C392.923 101.951 391.543 101.601 389.733 101.331C388.503 101.141 387.083 101.061 385.503 100.551C385.443 100.531 385.433 100.851 385.373 100.831C383.933 101.651 382.323 102.251 380.673 102.751C379.023 103.251 377.313 103.181 375.663 103.291C374.013 103.401 372.303 103.511 370.663 103.241C369.023 102.971 367.233 102.891 365.673 102.261C364.113 101.631 362.533 100.831 361.153 99.8715C359.773 98.9115 358.633 97.5715 357.493 96.3215C356.353 95.0715 355.363 93.7115 354.533 92.2215C353.703 90.7315 352.693 89.3215 352.203 87.6715C351.713 86.0215 351.583 84.2515 351.463 82.6015C351.343 80.9515 352.113 79.2615 352.373 77.6115C352.633 75.9615 352.393 74.1215 353.013 72.5715C353.633 71.0215 355.053 69.8515 356.013 68.4715C356.973 67.0915 357.963 65.8115 359.213 64.6715C360.463 63.5315 361.443 62.0415 362.933 61.2015C364.423 60.3615 366.073 59.9815 367.733 59.4815L367.713 59.5115Z" fill="#FF945E"/>
<path d="M374.693 76.3515C373.733 76.3515 372.963 75.5715 372.963 74.6215V71.7715C372.963 70.8115 373.743 70.0415 374.693 70.0415C375.643 70.0415 376.423 70.8215 376.423 71.7715V74.6215C376.423 75.5815 375.643 76.3515 374.693 76.3515Z" fill="#07374F"/>
<path d="M383.223 76.4115H365.263C364.273 76.4115 363.473 75.6115 363.473 74.6215C363.473 73.6315 364.273 72.8315 365.263 72.8315H383.223C384.213 72.8315 385.013 73.6315 385.013 74.6215C385.013 75.6115 384.213 76.4115 383.223 76.4115Z" fill="#07374F"/>
<path d="M367.632 91.8715C366.922 91.8715 366.252 91.4315 366.002 90.7315C365.682 89.8315 366.142 88.8415 367.042 88.5115C367.082 88.5015 371.062 87.0115 374.442 83.3515C378.452 79.0115 379.112 74.4415 379.122 74.4015C379.252 73.4515 380.122 72.7915 381.062 72.9115C382.012 73.0315 382.672 73.9015 382.552 74.8415C382.522 75.0715 381.783 80.5115 376.983 85.7015C373.003 90.0015 368.402 91.6915 368.212 91.7615C368.022 91.8315 367.822 91.8615 367.622 91.8615L367.632 91.8715Z" fill="#07374F"/>
<path d="M380.843 91.8715C380.643 91.8715 380.453 91.8415 380.253 91.7715C380.063 91.7015 375.463 90.0115 371.483 85.7115C366.683 80.5215 365.943 75.0815 365.913 74.8515C365.793 73.9015 366.463 73.0315 367.413 72.9115C368.373 72.7915 369.223 73.4615 369.353 74.4015C369.363 74.4915 370.043 79.0415 374.033 83.3515C377.413 87.0015 381.403 88.4915 381.443 88.5115C382.343 88.8415 382.803 89.8315 382.473 90.7315C382.213 91.4315 381.553 91.8715 380.843 91.8715Z" fill="#07374F"/>
<path d="M329.713 59.8115C328.063 59.3215 326.473 58.8515 324.823 58.7415C323.173 58.6315 321.473 58.8415 319.833 59.1115C318.193 59.3815 316.353 59.2515 314.793 59.8815C313.233 60.5115 311.923 61.7215 310.533 62.6815C309.143 63.6415 307.593 64.4615 306.453 65.7115C305.313 66.9615 304.263 68.3515 303.423 69.8415C302.583 71.3315 302.293 73.0215 301.803 74.6715C301.313 76.3215 300.863 77.8015 300.743 79.3715C300.623 80.9415 300.483 82.6615 300.703 84.2315C300.923 85.8015 301.953 87.2415 302.503 88.7415C302.503 88.7615 302.043 88.9115 302.053 88.9315C302.533 90.8415 302.643 92.5315 302.383 94.0915C302.073 96.0015 301.683 97.6915 301.533 99.2315C301.403 100.591 302.183 101.611 303.543 101.761C304.613 101.871 305.993 101.721 307.803 101.441C309.033 101.251 310.513 101.321 312.103 100.821C312.163 100.801 312.323 100.471 312.383 100.451C313.823 101.271 315.313 101.951 316.963 102.441C318.613 102.931 320.223 103.081 321.873 103.191C323.523 103.301 325.193 103.381 326.843 103.121C328.493 102.861 330.053 102.321 331.613 101.701C333.173 101.081 334.693 100.431 336.073 99.4715C337.453 98.5115 339.163 97.8615 340.303 96.6115C341.443 95.3615 341.793 93.5415 342.633 92.0515C343.473 90.5615 344.233 89.1815 344.733 87.5315C345.233 85.8815 345.643 84.2715 345.753 82.6215C345.863 80.9715 346.053 79.2015 345.793 77.5515C345.533 75.9015 345.123 74.1815 344.493 72.6215C343.863 71.0615 342.873 69.6215 341.913 68.2415C340.953 66.8615 339.623 65.8015 338.373 64.6615C337.123 63.5215 335.773 62.6515 334.283 61.8115C332.793 60.9715 331.363 60.3315 329.713 59.8315V59.8115Z" fill="#FFB48E"/>
<path d="M339.363 68.0615H307.103V95.1715H339.363V68.0615Z" fill="#FFB48E"/>
<path d="M333.033 90.8015C332.983 91.4315 332.783 91.9015 332.443 92.2215C332.103 92.5315 331.692 92.6915 331.212 92.6915C330.862 92.6915 330.513 92.5915 330.173 92.3915C329.833 92.1915 329.562 91.8715 329.362 91.4415C329.232 90.3115 329.042 89.2015 328.772 88.1115C328.512 87.0315 328.172 85.9215 327.772 84.7815C326.182 84.7815 324.593 84.7915 323.003 84.8215C321.413 84.8515 319.813 84.8615 318.203 84.8615H318.123C317.823 85.9215 317.532 86.9315 317.272 87.9015C317.002 88.8715 316.763 89.9115 316.533 91.0215C316.333 91.5715 316.062 91.9815 315.742 92.2315C315.412 92.4815 315.062 92.6115 314.682 92.6115C314.152 92.6115 313.692 92.4015 313.302 91.9915C312.912 91.5715 312.793 91.0315 312.943 90.3415C313.753 86.7315 314.733 83.2215 315.893 79.7915C317.053 76.3615 318.513 72.9715 320.283 69.6215L320.242 69.6615C320.442 69.1315 320.883 68.7915 321.563 68.6415H321.522C322.202 68.4115 322.813 68.5415 323.343 69.0215C323.973 69.6215 324.563 70.3015 325.103 71.0415C325.643 71.7815 326.152 72.5515 326.612 73.3515C327.082 74.1415 327.513 74.9515 327.913 75.7515C328.313 76.5615 328.693 77.3315 329.043 78.0615C329.273 78.5415 329.513 79.0815 329.763 79.6715C330.013 80.2615 330.253 80.8515 330.483 81.4315C330.763 81.4315 331.063 81.4315 331.393 81.4115C331.723 81.4015 332.022 81.3915 332.302 81.3915C332.832 81.5715 333.223 81.8115 333.473 82.1115C333.723 82.4115 333.853 82.7415 333.853 83.0915C333.853 83.4415 333.712 83.7815 333.432 84.0915C333.152 84.4115 332.723 84.6315 332.143 84.7515H331.693C332.323 86.7215 332.763 88.7315 333.013 90.8015H333.033ZM324.293 76.5715C323.993 76.0215 323.682 75.4615 323.362 74.9115C323.042 74.3615 322.742 73.8615 322.432 73.4315C321.822 74.7215 321.263 76.0215 320.753 77.3515C320.233 78.6715 319.723 80.0515 319.223 81.4915C320.513 81.4915 321.743 81.4815 322.913 81.4515C324.083 81.4315 325.313 81.4115 326.603 81.4115C326.303 80.6815 325.982 79.9915 325.652 79.3315C325.322 78.6715 324.993 77.9815 324.673 77.2515L324.293 76.5715Z" fill="#07374F"/>
<path d="M282.903 76.6015C273.413 77.1915 263.853 76.7415 254.323 76.7415C261.483 70.1115 268.963 65.1315 276.943 61.1715C285.383 56.9715 286.473 52.3915 279.483 46.0515C275.569 37.7515 269.779 35.9315 262.113 40.5915C260.573 41.5315 259.263 42.8515 257.843 44.0015C257.343 43.8915 256.963 44.0615 256.713 44.5015C254.253 44.8015 252.283 45.9415 250.823 47.9515C247.463 47.9715 245.283 52.1215 240.113 50.3715C245.033 41.7015 249.653 33.3415 254.503 25.1115C256.993 20.8815 257.553 17.6115 251.873 15.4115C249.603 14.5315 247.523 13.2415 245.673 11.6615C238.323 5.41148 234.253 7.99148 230.523 15.9915C226.733 24.1315 221.613 31.6515 217.073 39.4415C215.213 31.5015 215.353 24.6115 215.183 17.7215C214.723 -1.27851 218.773 1.44149 198.203 0.831485C191.723 0.641485 190.273 3.18149 190.533 9.09149C190.973 18.9115 190.653 28.7615 190.653 38.6015C185.173 32.9715 181.623 26.8615 177.973 20.8115C168.773 5.52149 168.863 5.69149 153.533 15.6015C149.493 18.2115 148.423 20.4115 151.063 24.5515C155.773 31.9215 160.213 39.4615 164.773 46.9315C164.683 47.9415 164.613 48.6515 164.523 49.6615C164.143 50.0815 163.753 50.5115 163.373 50.9215C154.233 47.6015 146.633 41.4615 137.993 37.2215C135.823 36.1515 133.193 32.9115 131.503 37.8515L131.693 38.0615C131.093 38.7715 130.503 39.4815 129.903 40.2015C129.903 40.1815 129.913 40.1615 129.923 40.1415C128.763 41.5915 127.433 42.9315 126.483 44.5115C119.643 55.8715 119.703 55.8415 131.093 62.3015C138.133 66.3015 145.083 70.4615 152.063 74.5515C151.843 75.4715 151.853 75.4015 151.633 76.3215C145.143 76.6415 138.643 76.9615 132.153 77.2815C128.373 76.4515 124.593 76.5715 120.803 77.2615C109.223 78.1815 115.903 86.1715 115.343 91.3615C115.343 92.0415 115.343 92.7115 115.333 93.3915C113.313 100.581 116.973 101.691 123.213 101.671C174.033 101.491 224.853 101.581 275.683 101.561C294.693 101.561 291.013 102.991 291.823 85.6015C292.153 78.5415 290.033 76.1615 282.903 76.6015Z" fill="#A0DEF5"/>
<path d="M228.313 97.1615C239.938 97.1615 249.363 86.0582 249.363 72.3615C249.363 58.6648 239.938 47.5615 228.313 47.5615C216.687 47.5615 207.263 58.6648 207.263 72.3615C207.263 86.0582 216.687 97.1615 228.313 97.1615Z" fill="white"/>
<path d="M234.513 91.2415C242.714 91.2415 249.363 82.7886 249.363 72.3615C249.363 61.9343 242.714 53.4815 234.513 53.4815C226.311 53.4815 219.663 61.9343 219.663 72.3615C219.663 82.7886 226.311 91.2415 234.513 91.2415Z" fill="black"/>
<path d="M228.153 98.5515C215.693 98.5515 205.563 86.9015 205.563 72.5715C205.563 68.5415 206.343 64.6715 207.883 61.0815C208.183 60.3815 209.003 60.0515 209.703 60.3515C210.403 60.6515 210.733 61.4715 210.433 62.1715C209.043 65.4115 208.333 68.9115 208.333 72.5715C208.333 85.3715 217.223 95.7815 228.153 95.7815C239.083 95.7815 247.973 85.3715 247.973 72.5715C247.973 59.7715 239.083 49.3615 228.153 49.3615C225.013 49.3615 222.013 50.1915 219.233 51.8415C218.573 52.2315 217.723 52.0115 217.333 51.3515C216.943 50.6915 217.163 49.8415 217.823 49.4515C220.993 47.5815 224.563 46.5815 228.153 46.5815C240.613 46.5815 250.743 58.2315 250.743 72.5615C250.743 86.8915 240.603 98.5415 228.153 98.5415V98.5515Z" fill="black"/>
<path d="M177.043 97.1615C188.668 97.1615 198.093 86.0582 198.093 72.3615C198.093 58.6648 188.668 47.5615 177.043 47.5615C165.417 47.5615 155.993 58.6648 155.993 72.3615C155.993 86.0582 165.417 97.1615 177.043 97.1615Z" fill="white"/>
<path d="M183.243 91.2415C191.444 91.2415 198.093 82.7886 198.093 72.3615C198.093 61.9344 191.444 53.4815 183.243 53.4815C175.041 53.4815 168.393 61.9344 168.393 72.3615C168.393 82.7886 175.041 91.2415 183.243 91.2415Z" fill="black"/>
<path d="M176.883 98.5515C164.423 98.5515 154.293 86.9015 154.293 72.5715C154.293 68.5415 155.073 64.6715 156.613 61.0815C156.913 60.3815 157.733 60.0515 158.433 60.3515C159.133 60.6515 159.463 61.4715 159.163 62.1715C157.773 65.4115 157.063 68.9115 157.063 72.5715C157.063 85.3715 165.953 95.7815 176.893 95.7815C187.833 95.7815 196.713 85.3715 196.713 72.5715C196.713 59.7715 187.823 49.3615 176.893 49.3615C173.753 49.3615 170.753 50.1915 167.973 51.8415C167.313 52.2315 166.463 52.0115 166.073 51.3515C165.683 50.6915 165.903 49.8415 166.563 49.4515C169.733 47.5815 173.303 46.5915 176.893 46.5915C189.353 46.5915 199.483 58.2415 199.483 72.5715C199.483 86.9015 189.343 98.5515 176.893 98.5515H176.883Z" fill="black"/>
</g>
<defs>
<clipPath id="clip0_23_26">
<rect width="453.78" height="206.89" fill="white" transform="translate(0.752563 0.831482)"/>
</clipPath>
</defs>
</svg>
