<svg viewBox="0 0 794 240" fill="none" xmlns="http://www.w3.org/2000/svg">
<path d="M73.5016 35.8398H53.4983C50.7378 35.8398 48.5 38.0777 48.5 40.8382V60.8415C48.5 63.602 50.7378 65.8398 53.4983 65.8398H73.5016C76.2621 65.8398 78.5 63.602 78.5 60.8415V40.8382C78.5 38.0777 76.2621 35.8398 73.5016 35.8398Z" fill="#083E59" stroke="#4F8199" stroke-width="1.99933" stroke-linecap="round" stroke-linejoin="round"/>
<path d="M55.3374 50.835H71.652" stroke="#4F8199" stroke-width="1.99933" stroke-linecap="round" stroke-linejoin="round"/>
<path d="M128.502 35.8398H108.498C105.738 35.8398 103.5 38.0777 103.5 40.8382V60.8415C103.5 63.602 105.738 65.8398 108.498 65.8398H128.502C131.262 65.8398 133.5 63.602 133.5 60.8415V40.8382C133.5 38.0777 131.262 35.8398 128.502 35.8398Z" fill="#083E59" stroke="#4F8199" stroke-width="1.99933" stroke-linecap="round" stroke-linejoin="round"/>
<path d="M123.653 42.6777H113.337C111.681 42.6777 110.338 44.0204 110.338 45.6767V55.9933C110.338 57.6496 111.681 58.9923 113.337 58.9923H123.653C125.31 58.9923 126.652 57.6496 126.652 55.9933V45.6767C126.652 44.0204 125.31 42.6777 123.653 42.6777Z" fill="#083E59" stroke="#4F8199" stroke-width="1.99933" stroke-linecap="round" stroke-linejoin="round"/>
<path d="M183.502 35.8398H163.498C160.738 35.8398 158.5 38.0777 158.5 40.8382V60.8415C158.5 63.602 160.738 65.8398 163.498 65.8398H183.502C186.262 65.8398 188.5 63.602 188.5 60.8415V40.8382C188.5 38.0777 186.262 35.8398 183.502 35.8398Z" fill="#083E59" stroke="#4F8199" stroke-width="1.99933" stroke-linecap="round" stroke-linejoin="round"/>
<path d="M165.338 42.6777L181.652 58.9923L165.338 42.6777ZM165.338 58.9923L181.652 42.6777L165.338 58.9923Z" fill="#083E59"/>
<path d="M165.338 42.6777L181.652 58.9923M165.338 58.9923L181.652 42.6777" stroke="#4F8199" stroke-width="1.99933" stroke-linecap="round" stroke-linejoin="round"/>
<path d="M240.5 85.68H259.97C270.02 85.68 278.16 77.53 278.16 67.49V34.19C278.16 24.14 286.31 16 296.35 16H625.76C635.81 16 643.95 24.15 643.95 34.19V67.49C643.95 77.54 652.1 85.68 662.14 85.68H681.61" fill="#07374F"/>
<path d="M240.5 85.68H259.97C270.02 85.68 278.16 77.53 278.16 67.49V34.19C278.16 24.14 286.31 16 296.35 16H625.76C635.81 16 643.95 24.15 643.95 34.19V67.49C643.95 77.54 652.1 85.68 662.14 85.68H681.61" stroke="#4F8199" stroke-width="2" stroke-miterlimit="10"/>
<path d="M329.76 38.48H311.75C308.989 38.48 306.75 40.7186 306.75 43.48V61.49C306.75 64.2514 308.989 66.49 311.75 66.49H329.76C332.521 66.49 334.76 64.2514 334.76 61.49V43.48C334.76 40.7186 332.521 38.48 329.76 38.48Z" fill="#2C5569"/>
<rect opacity="0.5" x="384.107" y="45.4849" width="165.846" height="14" rx="7" fill="#376880"/>
<path d="M599.3 44.3252L615.62 60.6452M599.3 60.6452L615.62 44.3252" stroke="#4F8199" stroke-width="3" stroke-linecap="round" stroke-linejoin="round"/>
<path d="M694.69 37.7598V63.9198M707.77 50.8398H681.61" stroke="#4F8199" stroke-width="3" stroke-linecap="round" stroke-linejoin="round"/>
<path d="M0.5 85.6802H793.5" stroke="#4F8199" stroke-width="2" stroke-linejoin="round"/>
<path d="M199.77 112.274V118.414H193.44M199.44 118.164C196.6 113.794 192.61 111.004 187.42 111.004C179.87 111.004 173.75 117.124 173.75 124.674C173.75 132.224 179.87 138.344 187.42 138.344C193.74 138.344 199.06 134.054 200.63 128.224" stroke="#4F8199" stroke-width="2" stroke-linecap="round" stroke-linejoin="round"/>
<path d="M61.82 138.394L48.5 124.684M48.5 124.684L61.82 110.974M48.5 124.684H77.94" stroke="#4F8199" stroke-width="2" stroke-linecap="round" stroke-linejoin="round"/>
<path d="M118.41 110.974L131.73 124.684M131.73 124.684L118.41 138.394M131.73 124.684H102.29" stroke="#4F8199" stroke-width="2" stroke-linecap="round" stroke-linejoin="round"/>
<path d="M260.417 108.796L278.468 122.207C278.916 122.537 278.679 123.247 278.121 123.247H273.541C273.22 123.247 272.966 123.509 272.966 123.821V140.097C272.966 140.418 272.704 140.672 272.392 140.672H247.446C247.125 140.672 246.871 140.41 246.871 140.097V123.821C246.871 123.5 246.609 123.247 246.297 123.247H243.229C242.68 123.247 242.443 122.554 242.866 122.216L259.724 108.805C259.927 108.644 260.215 108.636 260.426 108.796H260.417ZM265.327 125.985H254.494V140.68H265.327V125.985Z" stroke="#4F8199" stroke-width="1.6901" stroke-linecap="round" stroke-linejoin="round"/>
<rect x="328.702" y="102.68" width="439.798" height="44" rx="22" fill="#07374F"/>
<rect x="328.702" y="102.68" width="439.798" height="44" rx="22" stroke="#4F8199" stroke-width="2"/>
<rect opacity="0.5" x="359.702" y="117.68" width="165.846" height="14" rx="7" fill="#376880"/>
<mask id="path-22-inside-1_2384_35555" fill="white">
<path d="M0.5 163.68H793.5V223.68H0.5V163.68Z"/>
</mask>
<path d="M0.5 163.68V165.68H793.5V163.68V161.68H0.5V163.68ZM793.5 223.68V221.68H0.5V223.68V225.68H793.5V223.68Z" fill="#4F8199" mask="url(#path-22-inside-1_2384_35555)"/>



</svg>
