<svg xmlns="http://www.w3.org/2000/svg" width="82" height="82" viewBox="0 0 82 82" fill="none">
  <path d="M36.866 77.1607C23.4225 75.6255 14.3286 58.1212 16.6082 38.1396C18.8878 18.158 31.6802 3.15296 45.1339 4.68928C58.5875 6.2256 67.6713 23.7288 65.3917 43.7104C63.1121 63.692 50.3196 78.697 36.866 77.1607ZM44.9387 6.40024C32.4322 4.97208 20.4907 19.3006 18.3192 38.335C16.1477 57.3694 24.5547 74.0216 37.0612 75.4497C49.5677 76.8779 61.5092 62.5494 63.6807 43.515C65.8522 24.4805 57.4452 7.8284 44.9387 6.40024Z" fill="#EFF7F9"/>
  <path d="M36.866 77.1607C36.3975 77.1072 36.0546 76.676 36.1081 76.2075L44.1807 5.44707C44.2342 4.97859 44.6654 4.63578 45.1339 4.68928C45.6023 4.74278 45.9452 5.17397 45.8917 5.64245L37.8179 76.4131C37.7644 76.8816 37.3332 77.2244 36.8648 77.1709L36.866 77.1607Z" fill="#EFF7F9"/>
  <path d="M76.1201 45.8022L5.51134 37.7392C5.04285 37.6857 4.70003 37.2545 4.75348 36.786C4.80692 36.3175 5.23805 35.9747 5.70653 36.0282L76.3153 44.0913C76.7838 44.1448 77.1267 44.576 77.0732 45.0445C77.0198 45.5129 76.5886 45.8557 76.1201 45.8022Z" fill="#EFF7F9"/>
  <path d="M74.297 29.4068L11.1433 22.1951C10.6748 22.1416 10.332 21.7104 10.3854 21.2419C10.4389 20.7734 10.87 20.4306 11.3385 20.4841L74.4922 27.6958C74.9607 27.7493 75.3036 28.1805 75.2501 28.649C75.1967 29.1175 74.7655 29.4603 74.297 29.4068Z" fill="#EFF7F9"/>
  <path d="M70.6511 61.365L7.49733 54.1532C7.02885 54.0997 6.68602 53.6685 6.73947 53.2C6.79292 52.7316 7.22404 52.3888 7.69252 52.4423L70.8463 59.654C71.3148 59.7075 71.6576 60.1387 71.6042 60.6072C71.5507 61.0756 71.1196 61.4185 70.6511 61.365Z" fill="#EFF7F9"/>
  <path d="M36.866 77.1607C16.8841 74.8789 2.48408 56.7686 4.76367 36.787C7.04327 16.8055 25.152 2.40748 45.1339 4.68928C65.1157 6.97108 79.5157 25.0814 77.2361 45.0629C74.9566 65.0445 56.8479 79.4425 36.866 77.1607ZM44.9387 6.40024C25.8938 4.22544 8.64619 17.948 6.47465 36.9824C4.30311 56.0169 18.0264 73.2761 37.0612 75.4497C56.0959 77.6234 73.3536 63.902 75.5252 44.8676C77.6967 25.8331 63.9734 8.57388 44.9387 6.40024Z" fill="#EFF7F9"/>
  <path d="M36.866 77.1607C23.4225 75.6255 14.3286 58.1212 16.6082 38.1396C18.8878 18.158 31.6802 3.15296 45.1339 4.68928M36.866 77.1607C50.3196 78.697 63.1121 63.692 65.3917 43.7104C67.6713 23.7288 58.5875 6.2256 45.1339 4.68928M36.866 77.1607C36.3975 77.1072 36.0546 76.676 36.1081 76.2075L44.1807 5.44707C44.2342 4.97859 44.6654 4.63578 45.1339 4.68928M36.866 77.1607L36.8648 77.1709C37.3332 77.2244 37.7644 76.8816 37.8179 76.4131L45.8917 5.64245C45.9452 5.17397 45.6023 4.74278 45.1339 4.68928M36.866 77.1607C16.8841 74.8789 2.48408 56.7686 4.76367 36.7871C7.04327 16.8055 25.152 2.40748 45.1339 4.68928M36.866 77.1607C56.8479 79.4425 74.9566 65.0445 77.2361 45.0629C79.5157 25.0814 65.1157 6.97108 45.1339 4.68928M44.9387 6.40024C32.4322 4.97208 20.4907 19.3006 18.3192 38.335C16.1477 57.3694 24.5547 74.0216 37.0612 75.4497M44.9387 6.40024C57.4452 7.8284 65.8522 24.4805 63.6807 43.515C61.5092 62.5494 49.5677 76.8779 37.0612 75.4497M44.9387 6.40024C25.8938 4.22544 8.64619 17.948 6.47465 36.9824C4.30311 56.0169 18.0264 73.2761 37.0612 75.4497M44.9387 6.40024C63.9734 8.57388 77.6967 25.8331 75.5252 44.8676C73.3536 63.902 56.0959 77.6234 37.0612 75.4497M36.4663 80.6639C14.5595 78.1623 -1.2401 58.3034 1.26025 36.3868C3.76059 14.4702 23.6166 -1.31708 45.5335 1.18569C67.4504 3.68846 83.24 23.5462 80.7396 45.4628C78.2393 67.3794 58.3832 83.1667 36.4663 80.6639ZM76.1201 45.8022L5.51134 37.7392C5.04285 37.6857 4.70003 37.2545 4.75348 36.786C4.80692 36.3175 5.23805 35.9747 5.70653 36.0282L76.3153 44.0913C76.7838 44.1448 77.1267 44.576 77.0732 45.0445C77.0198 45.5129 76.5886 45.8557 76.1201 45.8022ZM74.297 29.4068L11.1433 22.1951C10.6748 22.1416 10.332 21.7104 10.3854 21.2419C10.4389 20.7734 10.87 20.4306 11.3385 20.4841L74.4922 27.6958C74.9607 27.7493 75.3036 28.1805 75.2501 28.649C75.1967 29.1175 74.7655 29.4603 74.297 29.4068ZM70.6511 61.365L7.49733 54.1532C7.02885 54.0997 6.68602 53.6685 6.73947 53.2C6.79292 52.7316 7.22404 52.3888 7.69252 52.4423L70.8463 59.654C71.3147 59.7075 71.6576 60.1387 71.6042 60.6072C71.5507 61.0756 71.1196 61.4185 70.6511 61.365Z" stroke="#EFF7F9" stroke-width="1.2"/>
</svg>