<svg xmlns="http://www.w3.org/2000/svg" width="108" height="107" viewBox="0 0 108 107" fill="none">
	<g clip-path="url(#clip0_1117_22090)">
		<path d="M53.9743 105.208C82.3586 105.208 105.369 82.1975 105.369 53.8132C105.369 25.4289 82.3586 2.41895 53.9743 2.41895C25.59 2.41895 2.58002 25.4289 2.58002 53.8132C2.58002 82.1975 25.59 105.208 53.9743 105.208Z" fill="#FFB48E"/>
		<path d="M103.166 73.2961C102.84 73.7503 102.806 74.2732 102.634 74.7961C102.523 75.1646 102.189 75.4903 102.026 75.8503C101.803 76.3389 101.974 76.5703 101.811 76.8618L98.7343 75.3789C99.0429 74.7018 99.7972 74.1189 100.02 73.7418C100.329 73.2446 100.26 72.6189 100.551 72.2589C100.886 71.8389 101.151 71.4275 101.34 71.0161C101.606 70.3818 101.246 70.4503 101.306 69.8675C101.323 69.5846 101.657 69.3275 101.597 68.5903C101.563 68.3075 101.854 67.7932 101.871 67.4932C101.906 67.0561 101.974 66.6189 102.103 66.1303C102.163 65.8646 102.326 65.5132 102.506 65.1275C102.754 64.6561 102.78 63.3532 102.969 62.8989C103.191 62.4361 103.723 61.7932 103.569 61.3732C103.637 60.8418 103.269 59.8646 103.414 58.8361C103.457 58.3389 103.551 57.8503 103.706 57.3789C103.843 56.9246 103.894 56.4618 103.834 55.9989L103.714 55.0646C103.654 54.6446 103.611 54.2246 103.663 53.8046H107.083C107.066 54.6446 106.937 54.6275 106.886 55.0903C106.851 55.4761 107.031 55.8189 107.014 56.2818C107.006 56.7703 106.629 57.2161 106.5 57.5932C106.294 58.1161 106.586 58.6389 106.517 59.1103C106.346 60.0703 106.097 60.0618 106.183 60.8846C106.277 61.7418 106.431 62.1618 106.303 62.8046C106.191 63.3789 105.583 64.3818 105.446 64.8789C105.291 65.5389 105.326 66.0532 105.257 66.3361C105.129 66.9961 104.211 68.1275 104.134 68.5903C103.8 69.8161 104.434 70.3132 103.894 71.9075C103.706 72.4132 103.457 72.8761 103.157 73.3046L103.166 73.2961Z" fill="#FFB48E"/>
		<path d="M89.8371 92.7104C89.3657 93.0018 89.0657 93.4047 88.7057 93.8161C88.4486 94.1075 88.0114 94.2618 87.7114 94.5189C87.3 94.8618 87.3428 95.1275 87.0686 95.3161L84.9343 92.6418C85.5343 92.1961 86.4428 91.9732 86.8028 91.7332C87.2743 91.3989 87.5314 90.8589 87.9343 90.6361C88.4143 90.4047 88.8171 90.1389 89.1686 89.8475C89.7086 89.4104 89.34 89.3075 89.64 88.8104C89.7771 88.5618 90.18 88.4675 90.4457 87.7732C90.5486 87.5075 91.0457 87.1818 91.1828 86.9161C91.3971 86.5389 91.6457 86.1618 91.9714 85.7846C92.1514 85.5789 92.4514 85.3389 92.7857 85.0647C93.1971 84.7389 93.8143 83.5904 94.1743 83.2647C94.5686 82.9475 95.3228 82.5875 95.3657 82.1418C95.6828 81.7132 95.7514 80.6504 96.3343 79.7932C96.6086 79.3732 96.8828 78.9618 97.2343 78.6104C97.56 78.2589 97.7914 77.8646 97.9543 77.4275L98.2457 76.5275C98.3743 76.1247 98.52 75.7304 98.7428 75.3704L101.82 76.8532C101.434 77.6075 101.331 77.5304 101.083 77.9246C100.886 78.2589 100.894 78.6446 100.689 79.0561C100.449 79.4846 99.9343 79.7332 99.6514 80.0075C99.24 80.3932 99.2828 80.9932 99 81.3789C98.4257 82.1675 98.2114 82.0561 97.9371 82.8361C97.6543 83.6504 97.5771 84.0704 97.2086 84.6189C96.8828 85.0989 95.8628 85.7161 95.5371 86.1104C95.1171 86.6418 94.9286 87.1218 94.7486 87.3532C94.3114 87.8589 93.0257 88.5189 92.76 88.8961C91.8857 89.8132 92.3057 90.6018 91.0971 91.7675C90.7028 92.1275 90.2828 92.4618 89.8371 92.7189V92.7104Z" fill="#FFB48E"/>
		<path d="M69.42 104.436C68.8629 104.462 68.4257 104.727 67.92 104.942C67.56 105.096 67.1057 105.053 66.72 105.13C66.1971 105.25 66.12 105.525 65.7857 105.576L65.0314 102.242C65.76 102.079 66.6857 102.327 67.1143 102.242C67.68 102.139 68.1429 101.745 68.6143 101.745C69.1543 101.762 69.6257 101.676 70.0629 101.565C70.7314 101.393 70.4486 101.145 70.9457 100.845C71.1857 100.699 71.58 100.767 72.12 100.253C72.3257 100.056 72.9086 99.9703 73.1571 99.8075C73.5257 99.5761 73.8943 99.3189 74.3571 99.1218C74.6057 99.0103 74.9829 98.9246 75.4029 98.8389C75.9257 98.7361 76.9457 97.9132 77.4343 97.8103C77.94 97.7161 78.7543 97.6818 78.9943 97.3132C79.4657 97.0561 80.0057 96.1732 80.88 95.6161C81.3 95.3503 81.7543 95.1446 82.2086 94.9561C82.6457 94.7761 83.0229 94.5018 83.3657 94.1846C83.5886 93.9618 83.82 93.7475 84.0257 93.5161C84.3171 93.1989 84.6086 92.8989 84.96 92.6675L87.0943 95.3418C86.4343 95.8646 86.3657 95.7532 85.98 96.0103C85.6629 96.2332 85.5 96.5761 85.1229 96.8418C84.72 97.1246 84.1629 97.1418 83.7857 97.2703C83.2629 97.4589 83.0143 97.9732 82.5943 98.2046C81.7371 98.6675 81.6086 98.4961 81.0171 99.0618C80.3914 99.6446 80.16 100.03 79.5943 100.356C79.0886 100.647 77.8886 100.733 77.4343 100.965C76.8343 101.282 76.4486 101.607 76.1743 101.727C75.5657 102.002 74.1343 102.07 73.7143 102.259C72.5314 102.713 72.5743 103.622 70.9714 104.127C70.4571 104.282 69.9514 104.427 69.4286 104.445L69.42 104.436Z" fill="#FFB48E"/>
		<path d="M45.9257 106.125C45.4114 105.902 44.8972 105.953 44.3486 105.919C43.9629 105.902 43.5686 105.662 43.1829 105.585C42.66 105.465 42.4714 105.679 42.1543 105.585L42.9086 102.25C43.6286 102.43 44.3657 103.03 44.7857 103.142C45.3429 103.305 45.9257 103.142 46.3457 103.348C46.8343 103.57 47.2886 103.716 47.7343 103.81C48.4114 103.948 48.2657 103.605 48.84 103.545C49.1143 103.493 49.4486 103.742 50.1514 103.519C50.4257 103.425 50.9914 103.605 51.2829 103.57C51.7114 103.51 52.1657 103.45 52.6629 103.468C52.9372 103.468 53.3143 103.562 53.7343 103.665C54.2486 103.802 55.5257 103.493 56.0057 103.622C56.5029 103.759 57.2486 104.093 57.6257 103.853C58.1572 103.81 59.04 103.279 60.06 103.142C60.5572 103.09 61.0543 103.073 61.5429 103.142C62.0143 103.168 62.4686 103.082 62.9143 102.945L63.8057 102.636C64.2086 102.49 64.6029 102.336 65.0143 102.276L65.7686 105.61C64.9457 105.799 64.9372 105.679 64.4743 105.73C64.0886 105.773 63.7886 106.022 63.3429 106.099C62.8543 106.185 62.3486 105.953 61.9543 105.91C61.3972 105.816 60.9514 106.202 60.4714 106.228C59.5029 106.288 59.4514 106.065 58.6714 106.313C57.8572 106.57 57.48 106.819 56.8286 106.862C56.2457 106.888 55.1314 106.459 54.6172 106.468C53.94 106.493 53.4514 106.613 53.1514 106.613C52.4829 106.588 51.1714 106.039 50.7086 106.03C49.4486 105.919 49.0886 106.768 47.4257 106.528C46.8943 106.45 46.38 106.33 45.8914 106.15H45.9L45.9257 106.125Z" fill="#FFB48E"/>
		<path d="M24.0343 97.4417C23.6657 97.0217 23.1857 96.8503 22.6971 96.5846C22.3457 96.4046 22.1143 96.0103 21.8057 95.7617C21.3857 95.436 21.12 95.5389 20.88 95.316L23.0143 92.6417C23.6057 93.096 23.9828 93.9874 24.3171 94.2703C24.7457 94.6474 25.3543 94.7589 25.6371 95.1274C25.9543 95.5732 26.3228 95.8732 26.6828 96.156C27.24 96.576 27.2485 96.1903 27.7971 96.396C28.0543 96.4903 28.2514 96.8503 28.9885 96.9446C29.2714 96.9789 29.7085 97.3903 29.9828 97.476C30.3943 97.6217 30.8228 97.7503 31.2685 97.9817C31.5085 98.1017 31.8085 98.3503 32.1428 98.6246C32.5457 98.976 33.8314 99.2503 34.2085 99.576C34.5943 99.9189 35.1257 100.527 35.5714 100.485C36.0685 100.682 37.0971 100.57 38.0743 100.896C38.5457 101.059 38.9914 101.282 39.42 101.53C39.8314 101.762 40.2771 101.882 40.74 101.95C41.0485 101.985 41.3571 102.036 41.6743 102.053C42.1028 102.079 42.5228 102.122 42.9171 102.25L42.1628 105.585C41.34 105.396 41.3914 105.276 40.9457 105.139C40.5771 105.027 40.2 105.105 39.7628 104.985C39.2914 104.847 38.9314 104.419 38.5971 104.205C38.1257 103.905 37.56 104.033 37.1228 103.853C36.2228 103.476 36.2743 103.27 35.4685 103.15C34.62 103.03 34.1828 103.082 33.5657 102.842C33.0257 102.627 32.2114 101.736 31.74 101.53C31.1143 101.265 30.6257 101.153 30.36 101.025C29.7685 100.716 28.8257 99.6446 28.4143 99.4303C27.3171 98.796 26.64 99.3789 25.2428 98.4446C24.7971 98.1446 24.3771 97.836 24.0343 97.4332H24.0428L24.0343 97.4417Z" fill="#FFB48E"/>
		<path d="M8.06574 80.1361C7.91145 79.5961 7.52574 79.2446 7.22574 78.7903C7.00288 78.4732 6.96003 78.0103 6.78003 77.6589C6.54003 77.1875 6.2486 77.1703 6.12003 76.8618L9.19717 75.3789C9.54003 76.0389 9.52288 76.9903 9.67717 77.4018C9.87431 77.9418 10.4057 78.2846 10.5086 78.7389C10.6286 79.2618 10.7743 79.7246 10.9886 80.1275C11.3143 80.736 11.4943 80.4018 11.9057 80.8132C12.1115 81.0018 12.1029 81.4303 12.72 81.8332C12.9686 81.9875 13.1829 82.5361 13.4057 82.7332C13.7315 83.0246 14.0143 83.3675 14.3315 83.7618C14.5029 83.976 14.6743 84.3189 14.8543 84.7046C14.9657 84.9446 15.2572 85.2789 15.5657 85.6046C15.8829 85.9218 16.1915 86.2303 16.3029 86.4532C16.5257 86.916 16.6886 87.7389 17.1257 87.8675C17.5029 88.2446 18.4629 88.6046 19.2 89.3246C19.56 89.6761 19.8772 90.0532 20.1429 90.4732C20.3915 90.8846 20.7686 91.1675 21.1543 91.4246L21.9515 91.9218C22.3115 92.1532 22.6715 92.3675 22.98 92.6503L20.8457 95.3246C20.1857 94.8018 20.2715 94.716 19.9457 94.3903C19.6715 94.116 19.2943 94.0389 18.9429 93.7389C18.5743 93.4132 18.4286 92.8818 18.2315 92.5303C17.9486 92.0418 17.3657 91.9303 17.0486 91.5789C16.38 90.8761 16.56 90.6618 15.8657 90.2246C15.1543 89.7532 14.7086 89.6332 14.2886 89.1275C13.9115 88.6818 13.5257 87.5675 13.2 87.1646C12.78 86.6332 12.3686 86.3418 12.18 86.1018C11.7515 85.5875 11.4172 84.1732 11.1172 83.8218C10.3715 82.7932 9.57431 82.9903 8.67431 81.5675C8.39145 81.1132 8.18574 80.616 8.03145 80.1189H8.04003L8.06574 80.1361Z" fill="#FFB48E"/>
		<path d="M1.2 57.6104C1.29429 57.0618 1.09714 56.5732 1.02857 56.0332C0.968572 55.6475 1.13143 55.2189 1.11429 54.8246C1.09714 54.2932 0.848572 54.1561 0.865715 53.8218H4.28572C4.30286 54.5675 3.88286 55.4161 3.84 55.8532C3.78 56.4275 4.09714 56.9675 4.00286 57.4218C3.88286 57.9446 3.83143 58.4246 3.83143 58.8789C3.85714 59.5732 4.16572 59.3503 4.36286 59.8989C4.46572 60.1561 4.28571 60.5332 4.65429 61.1761C4.78286 61.4246 4.77429 62.0075 4.87714 62.2818C5.04 62.6932 5.17714 63.1132 5.26286 63.6104C5.30571 63.8761 5.32286 64.2618 5.32286 64.6903C5.32286 65.2218 5.83714 66.4132 5.86286 66.9018C5.86286 67.4075 5.67429 68.2218 5.99143 68.5389C6.14571 69.0532 6.91714 69.7732 7.22571 70.7589C7.38857 71.2303 7.53429 71.7018 7.59429 72.1989C7.66286 72.6703 7.82571 73.1075 8.07429 73.5018L8.58857 74.2903C8.82857 74.6418 9.04286 75.0018 9.18857 75.3961L6.11143 76.8789C5.76 76.1075 5.88857 76.0732 5.72571 75.6361C5.58857 75.2761 5.28 75.0361 5.09143 74.6246C4.90286 74.1703 5.03143 73.6132 4.98857 73.2189C4.94572 72.6532 4.44857 72.3189 4.32 71.8561C4.06286 70.9132 4.28572 70.8189 3.84857 70.1161C3.38572 69.3875 3.09429 69.0703 2.91429 68.4361C2.75143 67.8789 2.88857 66.6961 2.79429 66.1989C2.64 65.5389 2.39143 65.0932 2.32286 64.8018C2.16857 64.1504 2.49429 62.7275 2.35714 62.2818C2.15143 61.0303 1.33714 60.8589 1.14 59.1875C1.10572 58.6561 1.12286 58.1246 1.2 57.6104Z" fill="#FFB48E"/>
		<path d="M4.77429 34.3389C5.1 33.8846 5.13429 33.3618 5.30572 32.8389C5.41715 32.4703 5.75143 32.1446 5.91429 31.7846C6.13715 31.296 5.96572 31.0646 6.12858 30.7732L9.20572 32.2561C8.89715 32.9332 8.14286 33.5161 7.92 33.8932C7.61143 34.3903 7.68 35.016 7.38858 35.376C7.05429 35.796 6.78858 36.2075 6.6 36.6189C6.33429 37.2532 6.69429 37.1846 6.63429 37.7675C6.61715 38.0503 6.28286 38.3075 6.34286 39.0446C6.37715 39.3275 6.08572 39.8418 6.06858 40.1418C6.03429 40.5789 5.96572 41.016 5.83715 41.5046C5.77715 41.7703 5.61429 42.1218 5.43429 42.5075C5.18572 42.9789 5.16 44.2818 4.97143 44.736C4.74858 45.1989 4.21715 45.8418 4.37143 46.2618C4.30286 46.7932 4.67143 47.7703 4.52572 48.7989C4.48286 49.296 4.38858 49.7846 4.23429 50.2561C4.09715 50.7103 4.04572 51.1732 4.10572 51.6361L4.22572 52.5703C4.28572 52.9903 4.32858 53.4103 4.27715 53.8303H0.857147C0.87429 52.9903 1.00286 53.0075 1.05429 52.5446C1.08858 52.1589 0.908576 51.816 0.925719 51.3532C0.93429 50.8646 1.31143 50.4189 1.44 50.0418C1.64572 49.5189 1.35429 48.996 1.42286 48.5246C1.59429 47.5646 1.84286 47.5732 1.75715 46.7503C1.66286 45.8932 1.50858 45.4732 1.63715 44.8303C1.74858 44.256 2.35715 43.2532 2.49429 42.7561C2.64858 42.0961 2.61429 41.5818 2.68286 41.2989C2.81143 40.6389 3.72858 39.5075 3.80572 39.0446C4.14 37.8189 3.50572 37.3218 4.04572 35.7275C4.23429 35.2218 4.48286 34.7589 4.78286 34.3303L4.77429 34.3389Z" fill="#FFB48E"/>
		<path d="M18.1029 14.9246C18.5743 14.6332 18.8743 14.2303 19.2343 13.8189C19.4915 13.5275 19.9286 13.3732 20.2286 13.1161C20.64 12.7732 20.5972 12.5075 20.8715 12.3189L23.0057 14.9932C22.4057 15.4389 21.4972 15.6618 21.1372 15.9018C20.6657 16.2361 20.4086 16.7761 20.0057 16.9989C19.5257 17.2303 19.1229 17.4961 18.7715 17.7875C18.2315 18.2246 18.6 18.3275 18.3 18.8246C18.1629 19.0732 17.76 19.1675 17.4943 19.8618C17.3915 20.1275 16.8943 20.4532 16.7572 20.7189C16.5429 21.0961 16.2943 21.4732 15.9686 21.8503C15.7886 22.0561 15.4886 22.2961 15.1543 22.5703C14.7429 22.8961 14.1257 24.0446 13.7657 24.3703C13.3715 24.6875 12.6172 25.0475 12.5743 25.4932C12.2572 25.9218 12.1886 26.9846 11.6057 27.8418C11.3315 28.2618 11.0572 28.6732 10.7057 29.0246C10.38 29.3761 10.1486 29.7703 9.98574 30.2075L9.69431 31.1075C9.56574 31.5103 9.42003 31.9046 9.19717 32.2646L6.12003 30.7818C6.50574 30.0275 6.6086 30.1046 6.85717 29.7103C7.05431 29.3761 7.04574 28.9903 7.25145 28.5789C7.49145 28.1503 8.00574 27.9018 8.2886 27.6275C8.70003 27.2418 8.65717 26.6418 8.94003 26.2561C9.51431 25.4675 9.7286 25.5789 10.0029 24.7989C10.2857 23.9846 10.3629 23.5646 10.7315 23.0161C11.0572 22.5361 12.0772 21.9189 12.4029 21.5246C12.8229 20.9932 13.0115 20.5132 13.1915 20.2818C13.6286 19.7761 14.9143 19.1161 15.18 18.7389C16.0543 17.8218 15.6343 17.0332 16.8429 15.8675C17.2372 15.5075 17.6572 15.1732 18.1029 14.9161V14.9246Z" fill="#FFB48E"/>
		<path d="M38.5286 3.1989C39.0857 3.17318 39.5229 2.90747 40.0286 2.69318C40.3886 2.5389 40.8428 2.58176 41.2286 2.50461C41.7514 2.38461 41.8286 2.11033 42.1628 2.0589L42.9171 5.39318C42.1886 5.55604 41.2628 5.30747 40.8343 5.39318C40.2686 5.49604 39.8057 5.89033 39.3343 5.89033C38.7943 5.87318 38.3229 5.9589 37.8857 6.07033C37.2171 6.24176 37.5 6.49033 37.0028 6.79033C36.7628 6.93604 36.3686 6.86747 35.8286 7.38176C35.6228 7.5789 35.04 7.66461 34.7914 7.82747C34.4229 8.0589 34.0543 8.31604 33.5914 8.51319C33.3428 8.62461 32.9657 8.71033 32.5457 8.79604C32.0229 8.8989 31.0028 9.72176 30.5143 9.82461C30.0086 9.9189 29.1943 9.95319 28.9543 10.3218C28.4828 10.5789 27.9429 11.4618 27.0686 12.0189C26.6486 12.2846 26.1943 12.4903 25.74 12.6789C25.3029 12.8589 24.9257 13.1332 24.5829 13.4503C24.36 13.6732 24.1286 13.8875 23.9228 14.1189C23.6314 14.436 23.34 14.736 22.9886 14.9675L20.8543 12.2932C21.5143 11.7703 21.5828 11.8818 21.9686 11.6246C22.2857 11.4018 22.4486 11.0589 22.8257 10.7932C23.2286 10.5103 23.7857 10.4932 24.1629 10.3646C24.6857 10.176 24.9343 9.66176 25.3543 9.43033C26.2114 8.96747 26.34 9.1389 26.9314 8.57319C27.5571 7.99033 27.7886 7.60461 28.3543 7.2789C28.86 6.98747 30.06 6.90176 30.5143 6.67033C31.1143 6.35318 31.5 6.02747 31.7743 5.90747C32.3828 5.63318 33.8143 5.56461 34.2343 5.37604C35.4171 4.92176 35.3743 4.01318 36.9771 3.50747C37.4914 3.35318 37.9971 3.20747 38.52 3.19033L38.5286 3.1989Z" fill="#FFB48E"/>
		<path d="M62.0143 1.51035C62.5286 1.73321 63.0429 1.68178 63.5914 1.71606C63.9772 1.73321 64.3714 1.97321 64.7572 2.05035C65.28 2.17035 65.4686 1.95606 65.7857 2.05035L65.0314 5.38464C64.3114 5.20464 63.5743 4.60464 63.1543 4.49321C62.5972 4.33035 62.0143 4.49321 61.5943 4.28749C61.1057 4.06464 60.6514 3.91892 60.2057 3.82464C59.5286 3.68749 59.6743 4.03035 59.1 4.09035C58.8257 4.14178 58.4914 3.89321 57.7886 4.11606C57.5143 4.21035 56.9486 4.03035 56.6572 4.06464C56.2286 4.12464 55.7743 4.18464 55.2772 4.16749C55.0029 4.16749 54.6257 4.07321 54.2057 3.97035C53.6914 3.83321 52.4143 4.14178 51.9343 4.01321C51.4372 3.87606 50.6914 3.54178 50.3143 3.78178C49.7829 3.82464 48.9 4.35606 47.88 4.49321C47.3829 4.54464 46.8857 4.56178 46.3972 4.49321C45.9257 4.46749 45.4714 4.55321 45.0257 4.69035L44.1343 4.99892C43.7314 5.14464 43.3372 5.29892 42.9257 5.35892L42.1714 2.02464C42.9943 1.83606 43.0029 1.95606 43.4657 1.90464C43.8514 1.86178 44.1514 1.61321 44.5972 1.53606C45.0857 1.45035 45.5914 1.68178 45.9857 1.72464C46.5429 1.81892 46.9886 1.43321 47.4686 1.40749C48.4372 1.34749 48.4886 1.57035 49.2686 1.32178C50.0829 1.06464 50.46 0.816065 51.1114 0.773207C51.6943 0.747493 52.8086 1.17606 53.3229 1.16749C54 1.14178 54.4886 1.02178 54.7886 1.02178C55.4572 1.04749 56.7686 1.59606 57.2314 1.60464C58.4914 1.71606 58.8514 0.867493 60.5143 1.10749C61.0457 1.18464 61.56 1.30464 62.0486 1.48464H62.04L62.0143 1.51035Z" fill="#FFB48E"/>
		<path d="M83.9057 10.1847C84.2743 10.6047 84.7543 10.7761 85.2428 11.0418C85.5943 11.2218 85.8257 11.6161 86.1343 11.8647C86.5543 12.1904 86.82 12.0875 87.06 12.3104L84.9257 14.9847C84.3343 14.5304 83.9571 13.639 83.6228 13.3561C83.1943 12.979 82.5857 12.8675 82.3028 12.499C81.9857 12.0532 81.6171 11.7532 81.2571 11.4704C80.7 11.0504 80.6914 11.4361 80.1428 11.2304C79.8857 11.1361 79.6885 10.7761 78.9514 10.6818C78.6685 10.6475 78.2314 10.2361 77.9571 10.1504C77.5457 10.0047 77.1171 9.87609 76.6714 9.64467C76.4314 9.52467 76.1314 9.27609 75.7971 9.00181C75.3943 8.65038 74.1085 8.37609 73.7314 8.05038C73.3457 7.70752 72.8143 7.09895 72.3685 7.14181C71.8714 6.94467 70.8428 7.0561 69.8657 6.73038C69.3943 6.56752 68.9485 6.34467 68.52 6.09609C68.1085 5.86467 67.6628 5.74467 67.2 5.67609C66.8914 5.64181 66.5828 5.59038 66.2657 5.57324C65.8371 5.54752 65.4171 5.50467 65.0228 5.37609L65.7771 2.04181C66.6 2.23038 66.5485 2.35038 66.9943 2.48752C67.3628 2.59895 67.74 2.52181 68.1771 2.64181C68.6485 2.77895 69.0085 3.20752 69.3428 3.42181C69.8143 3.72181 70.38 3.59324 70.8171 3.77324C71.7171 4.15038 71.6657 4.35609 72.4714 4.47609C73.32 4.59609 73.7571 4.54467 74.3743 4.78467C74.9143 4.99895 75.7285 5.89038 76.2 6.09609C76.8257 6.36181 77.3143 6.47324 77.58 6.60181C78.1714 6.91038 79.1143 7.98181 79.5257 8.19609C80.6228 8.83038 81.3 8.24752 82.6971 9.18181C83.1428 9.48181 83.5628 9.79038 83.9057 10.1932H83.8971L83.9057 10.1847Z" fill="#FFB48E"/>
		<path d="M99.8743 27.4989C100.029 28.0389 100.414 28.3904 100.714 28.8447C100.937 29.1618 100.98 29.6247 101.16 29.9761C101.4 30.4475 101.691 30.4647 101.82 30.7732L98.7429 32.2561C98.4 31.5961 98.4172 30.6446 98.2629 30.2332C98.0657 29.6932 97.5343 29.3504 97.4314 28.8961C97.3114 28.3732 97.1657 27.9104 96.9514 27.5075C96.6257 26.8989 96.4457 27.2332 96.0343 26.8218C95.8286 26.6332 95.8372 26.2047 95.22 25.8018C94.9714 25.6475 94.7572 25.0989 94.5343 24.9018C94.2086 24.6018 93.9257 24.2675 93.6086 23.8732C93.4372 23.6589 93.2657 23.3161 93.0857 22.9304C92.9743 22.6904 92.6829 22.3561 92.3743 22.0304C92.0572 21.7132 91.7486 21.4046 91.6372 21.1818C91.4143 20.7189 91.2514 19.8961 90.8143 19.7675C90.4372 19.3904 89.4772 19.0304 88.74 18.3104C88.38 17.9589 88.0629 17.5818 87.7972 17.1618C87.5486 16.7504 87.1714 16.4675 86.7857 16.2104L85.9886 15.7132C85.6286 15.4818 85.2686 15.2675 84.96 14.9846L87.0943 12.3104C87.7543 12.8332 87.6686 12.9189 87.9943 13.2446C88.2686 13.5189 88.6457 13.5961 88.9972 13.8961C89.3657 14.2218 89.5115 14.7532 89.7086 15.1046C89.9915 15.5932 90.5743 15.7046 90.8914 16.0561C91.56 16.7589 91.38 16.9732 92.0743 17.4104C92.7857 17.8818 93.2315 18.0018 93.6515 18.5075C94.0286 18.9532 94.4143 20.0675 94.74 20.4704C95.16 21.0018 95.5714 21.2932 95.76 21.5332C96.1886 22.0475 96.5229 23.4618 96.8229 23.8132C97.5686 24.8418 98.3657 24.6446 99.2657 26.0675C99.5486 26.5218 99.7543 27.0189 99.9 27.5161H99.8914L99.8743 27.4989Z" fill="#FFB48E"/>
		<path d="M106.74 50.0247C106.646 50.5732 106.843 51.0618 106.911 51.6018C106.971 51.9875 106.809 52.4161 106.826 52.8104C106.843 53.3418 107.091 53.479 107.074 53.8132H103.654C103.637 53.0675 104.057 52.219 104.1 51.7818C104.16 51.2075 103.843 50.6675 103.937 50.2132C104.057 49.6904 104.109 49.2104 104.109 48.7561C104.083 48.0618 103.774 48.2847 103.577 47.7361C103.474 47.479 103.654 47.1018 103.286 46.459C103.157 46.2104 103.166 45.6275 103.063 45.3532C102.9 44.9418 102.763 44.5218 102.677 44.0247C102.634 43.759 102.617 43.3732 102.617 42.9447C102.617 42.4132 102.103 41.2218 102.077 40.7332C102.077 40.2275 102.266 39.4132 101.949 39.0961C101.794 38.5818 101.023 37.8618 100.714 36.8761C100.551 36.4047 100.406 35.9332 100.346 35.4361C100.277 34.9647 100.114 34.5275 99.8658 34.1332L99.3515 33.3447C99.1115 32.9932 98.8972 32.6332 98.7515 32.239L101.829 30.7561C102.18 31.5275 102.051 31.5618 102.214 31.999C102.351 32.359 102.66 32.599 102.849 33.0104C103.037 33.4647 102.909 34.0218 102.951 34.4161C102.994 34.9818 103.491 35.3161 103.62 35.779C103.877 36.7218 103.654 36.8161 104.091 37.519C104.554 38.2475 104.846 38.5647 105.026 39.199C105.189 39.7561 105.051 40.939 105.146 41.4361C105.3 42.0961 105.549 42.5418 105.617 42.8332C105.771 43.4847 105.446 44.9075 105.583 45.3532C105.789 46.6047 106.603 46.7761 106.8 48.4475C106.834 48.979 106.817 49.5104 106.74 50.0247Z" fill="#FFB48E"/>
		<path d="M96.5057 73.8361C96.1457 74.2904 96.0428 74.8132 95.8628 75.3532C95.7257 75.7303 95.4085 76.0646 95.1943 76.4161C94.9114 76.8875 95.0485 77.1361 94.8428 77.4189L91.8857 75.7046C92.0828 75.3789 92.3914 75.0789 92.6914 74.8218C92.9571 74.5475 93.2057 74.3075 93.3257 74.1189C93.6343 73.6132 93.6514 72.9875 93.9685 72.6275C94.3457 72.2161 94.6371 71.8132 94.8685 71.4103C95.2114 70.7846 94.8085 70.8275 94.9028 70.2275C94.9371 69.9361 95.2628 69.6789 95.2457 68.9246C95.2371 68.6332 95.5714 68.1189 95.6143 67.8189C95.6743 67.3732 95.82 66.9446 95.9228 66.4389C95.9914 66.1646 96.1628 65.8132 96.36 65.4189C96.6171 64.9389 96.6943 63.6018 96.9428 63.1561C97.2343 62.7018 97.6971 62.0332 97.56 61.5961C97.6457 61.0475 97.3028 60.0361 97.4828 58.9904C97.5257 58.7332 97.5857 58.4846 97.6371 58.2361C97.68 57.9875 97.7314 57.7389 97.8085 57.4989C97.9457 57.0361 97.9543 56.5561 97.92 56.0761L97.8257 55.1161C97.7828 54.6789 97.7485 54.2503 97.8085 53.8218H101.229C101.186 54.6961 101.057 54.6789 100.997 55.1503C100.954 55.5446 101.126 55.9132 101.1 56.3846C101.074 56.8989 100.731 57.3532 100.603 57.7389C100.509 58.0132 100.534 58.2789 100.577 58.5446C100.603 58.8103 100.629 59.0675 100.577 59.3075C100.363 60.2932 100.123 60.2846 100.183 61.1332C100.243 62.0246 100.397 62.4618 100.294 63.1303C100.183 63.7218 99.4285 64.7246 99.3085 65.2389C99.1371 65.9161 99.1457 66.4475 99.0685 66.7475C98.9743 67.0732 98.7514 67.5532 98.4514 67.9732C98.16 68.3932 97.8857 68.7961 97.8171 69.0275C97.3543 70.2532 98.0485 70.8361 97.3885 72.4475C97.14 72.9446 96.8571 73.4161 96.5228 73.8446L96.5057 73.8361Z" fill="#05374E"/>
		<path d="M80.8115 92.4361C80.2972 92.6846 79.9286 93.0618 79.4829 93.4046C79.1658 93.6532 78.6943 93.7389 78.3515 93.9532C77.88 94.2361 77.88 94.5275 77.5715 94.6903L75.8572 91.7332C76.5086 91.3389 77.4857 91.2618 77.8972 91.0732C78.4372 90.8246 78.78 90.3103 79.2086 90.1218C79.7229 89.9418 80.1686 89.7103 80.5629 89.4618C81.1629 89.0761 80.8115 88.9303 81.1972 88.4846C81.3686 88.2532 81.8229 88.2446 82.1743 87.5589C82.3029 87.2932 82.8343 86.9932 83.0143 86.7532C83.28 86.3932 83.58 86.0418 83.9657 85.6989C84.1715 85.5103 84.5143 85.3046 84.9 85.0818C85.38 84.8161 86.0572 83.6332 86.4943 83.3675C86.94 83.0846 87.7457 82.7932 87.8486 82.3561C88.2515 81.9703 88.3886 80.8646 89.0486 80.0332C89.3657 79.6218 89.7086 79.2532 90.1029 78.9275C90.4972 78.6189 90.7372 78.2075 90.9258 77.7618L91.3029 76.8618C91.4657 76.4589 91.6458 76.0646 91.9029 75.7132L94.86 77.4275C94.4057 78.1732 94.3029 78.0961 94.0286 78.4903C93.7972 78.8161 93.7715 79.2189 93.5315 79.6303C93.3943 79.8446 93.2057 80.0161 93 80.1618C92.7857 80.2989 92.5629 80.4103 92.4 80.5389C91.9286 80.8903 91.8858 81.4989 91.5686 81.8675C90.9172 82.6389 90.7115 82.5103 90.36 83.2903C89.9915 84.1046 89.8372 84.5075 89.3915 85.0218C88.9886 85.4675 87.8829 86.0075 87.5229 86.3932C87.0686 86.9246 86.7772 87.3532 86.5458 87.5675C86.0315 88.0389 84.6429 88.5703 84.3172 88.9218C83.3658 89.8218 83.6058 90.5846 82.2086 91.6218C81.7543 91.9475 81.2915 92.2303 80.8029 92.4532L80.8115 92.4361Z" fill="#05374E"/>
		<path d="M57.9 100.673C57.3257 100.57 56.82 100.733 56.2628 100.836C55.8685 100.905 55.4142 100.759 55.0114 100.776C54.4628 100.802 54.3171 101.059 53.9742 101.05V97.6304C54.7371 97.5875 55.62 97.9904 56.0657 98.0161C56.6571 98.0418 57.2142 97.7589 57.6857 97.8704C57.96 97.9389 58.2171 97.9904 58.4657 98.0247C58.7142 98.0418 58.9542 98.0247 59.1857 98.0161C59.8971 97.9561 59.6571 97.6647 60.2228 97.4504C60.4885 97.3389 60.8828 97.5018 61.5257 97.1247C61.7742 96.9704 62.3828 97.0218 62.6657 96.9189C63.0857 96.7561 63.5057 96.5589 64.0028 96.4389C64.2685 96.3704 64.6628 96.3447 65.1085 96.3275C65.6485 96.3018 66.8742 95.7789 67.3628 95.7104C67.8771 95.6675 68.7085 95.7875 69.0171 95.4532C69.5314 95.2561 70.26 94.5018 71.2457 94.1075C71.7171 93.8932 72.1885 93.7132 72.6857 93.6104C73.1657 93.5075 73.5857 93.2932 73.9885 93.0275L74.7857 92.4875C75.1371 92.2218 75.4714 91.9389 75.8571 91.7504L77.5714 94.7075C76.8257 95.1618 76.7828 95.0418 76.3457 95.2561C75.9771 95.4104 75.7457 95.7275 75.3171 95.9332C74.8542 96.1561 74.28 96.0789 73.8771 96.1475C73.3028 96.2418 72.9771 96.7647 72.5228 96.9447C71.58 97.2875 71.4514 97.0389 70.74 97.5104C69.9942 97.9904 69.6857 98.3332 69.0428 98.5647C68.76 98.6675 68.3142 98.7189 67.8771 98.7447C67.4314 98.7447 66.9942 98.7447 66.7371 98.8047C66.06 98.9761 65.6057 99.2504 65.3057 99.3275C64.6285 99.4904 63.18 99.3532 62.7085 99.4132C61.4142 99.6104 61.2514 100.459 59.5285 100.708C59.2542 100.742 58.98 100.776 58.7057 100.776C58.4314 100.759 58.1571 100.733 57.8914 100.69L57.9 100.673Z" fill="#05374E"/>
		<path d="M33.9514 96.3532C33.4971 95.9932 32.9743 95.8903 32.4343 95.7103C32.0571 95.5732 31.7228 95.256 31.3714 95.0417C30.9 94.7589 30.6514 94.896 30.3686 94.6903L32.0828 91.7332C32.4086 91.9303 32.7086 92.2389 32.9657 92.5389C33.24 92.8046 33.48 93.0532 33.6686 93.1732C34.1743 93.4817 34.8 93.4989 35.16 93.816C35.5714 94.1932 35.9743 94.4846 36.3771 94.716C37.0028 95.0589 36.96 94.656 37.56 94.7503C37.8514 94.7846 38.1086 95.1103 38.8628 95.0932C39.1543 95.0846 39.6686 95.4189 39.9686 95.4617C40.4143 95.5217 40.8428 95.6674 41.3486 95.7703C41.6228 95.8389 41.9743 96.0103 42.3686 96.2074C42.8486 96.4646 44.1857 96.5417 44.6314 96.7903C45.0857 97.0817 45.7543 97.5446 46.1914 97.4074C46.74 97.4932 47.7514 97.1503 48.7971 97.3303C49.0543 97.3732 49.3028 97.4332 49.5514 97.4846C49.8 97.5274 50.0486 97.5789 50.2886 97.656C50.7514 97.7932 51.2314 97.8017 51.7114 97.7674L52.6714 97.6732C53.1086 97.6303 53.5371 97.596 53.9657 97.656V101.076C53.0914 101.033 53.1086 100.905 52.6371 100.845C52.2428 100.802 51.8743 100.973 51.4028 100.947C50.8886 100.922 50.4343 100.579 50.0486 100.45C49.7743 100.356 49.5086 100.382 49.2428 100.425C48.9771 100.45 48.72 100.476 48.48 100.425C47.4943 100.21 47.5028 99.9703 46.6543 100.03C45.7628 100.09 45.3257 100.245 44.6571 100.142C44.0657 100.03 43.0628 99.276 42.5486 99.156C41.8714 98.9846 41.34 98.9932 41.04 98.916C40.7143 98.8217 40.2343 98.5989 39.8143 98.2989C39.3943 98.0074 38.9914 97.7332 38.76 97.6646C37.5343 97.2017 36.9514 97.896 35.34 97.236C34.8428 96.9874 34.3714 96.7046 33.9428 96.3703H33.9514V96.3532Z" fill="#05374E"/>
		<path d="M15.3514 80.6589C15.1029 80.1446 14.7257 79.776 14.3829 79.3303C14.1343 79.0132 14.0486 78.5417 13.8343 78.1989C13.5514 77.7274 13.26 77.7274 13.0971 77.4189L16.0543 75.7046C16.4486 76.356 16.5257 77.3332 16.7143 77.7446C16.9629 78.2846 17.4771 78.6274 17.6657 79.056C17.8457 79.5703 18.0771 80.016 18.3257 80.4103C18.7114 81.0103 18.8571 80.6589 19.3029 81.0446C19.5343 81.216 19.5429 81.6703 20.2286 82.0217C20.4943 82.1503 20.7943 82.6817 21.0343 82.8617C21.3943 83.1274 21.7457 83.4274 22.0886 83.8132C22.2771 84.0189 22.4829 84.3617 22.7057 84.7474C22.9714 85.2274 24.1543 85.9046 24.42 86.3417C24.7029 86.7874 24.9943 87.5932 25.4314 87.696C25.8171 88.0989 26.9229 88.236 27.7543 88.896C28.1657 89.2132 28.5343 89.556 28.86 89.9503C29.1686 90.3446 29.58 90.5846 30.0257 90.7732L30.9257 91.1503C31.3286 91.3132 31.7229 91.4932 32.0743 91.7503L30.36 94.7074C29.6143 94.2532 29.6914 94.1503 29.2971 93.876C28.9714 93.6446 28.5686 93.6189 28.1571 93.3789C27.9429 93.2417 27.7714 93.0532 27.6257 92.8474C27.4886 92.6332 27.3771 92.4103 27.2486 92.2474C26.8971 91.776 26.2886 91.7332 25.92 91.416C25.1486 90.7646 25.2771 90.5589 24.4971 90.2074C23.6829 89.8389 23.28 89.6846 22.7657 89.2389C22.32 88.836 21.78 87.7303 21.3943 87.3703C20.8629 86.916 20.4343 86.6246 20.22 86.3932C19.7486 85.8789 19.2171 84.4903 18.8657 84.1646C17.9657 83.2132 17.2029 83.4532 16.1657 82.056C15.84 81.6017 15.5571 81.1389 15.3343 80.6503H15.3429L15.3514 80.6589Z" fill="#05374E"/>
		<path d="M7.11426 57.7475C7.21712 57.1732 7.05426 56.6675 6.9514 56.1104C6.88283 55.7161 7.02855 55.2618 7.0114 54.8589C6.98569 54.3103 6.72855 54.1646 6.73712 53.8218H10.1571C10.2 54.5846 9.79712 55.4675 9.7714 55.9132C9.73712 56.5046 10.0285 57.0618 9.91712 57.5332C9.84855 57.8075 9.79712 58.0646 9.76283 58.3132C9.74569 58.5618 9.76283 58.8018 9.7714 59.0332C9.8314 59.7446 10.1228 59.5046 10.3371 60.0703C10.4485 60.3361 10.2857 60.7304 10.6628 61.3732C10.8171 61.6218 10.7657 62.2303 10.8685 62.5132C11.0314 62.9332 11.2285 63.3532 11.3485 63.8503C11.4171 64.1161 11.4428 64.5104 11.46 64.9561C11.4857 65.4961 12.0085 66.7218 12.0771 67.2103C12.12 67.7246 12 68.5561 12.3343 68.8646C12.5314 69.3789 13.2857 70.1075 13.68 71.0932C13.8943 71.5646 14.0743 72.0361 14.1771 72.5332C14.28 73.0132 14.4943 73.4332 14.76 73.8361L15.3 74.6332C15.5657 74.9846 15.8485 75.3189 16.0371 75.7046L13.08 77.4189C12.6257 76.6732 12.7457 76.6304 12.5314 76.1932C12.3771 75.8246 12.06 75.5932 11.8543 75.1646C11.6314 74.7018 11.7085 74.1275 11.64 73.7246C11.5457 73.1503 11.0228 72.8246 10.8428 72.3703C10.5 71.4275 10.7485 71.2989 10.2771 70.5875C9.79712 69.8418 9.45426 69.5332 9.22283 68.8903C9.11997 68.6075 9.06855 68.1618 9.04283 67.7246C9.04283 67.2789 9.04283 66.8418 8.98283 66.5846C8.8114 65.9075 8.53712 65.4532 8.45997 65.1532C8.29712 64.4761 8.43426 63.0275 8.37426 62.5561C8.17712 61.2618 7.32855 61.0989 7.07997 59.3761C7.04569 59.1018 7.0114 58.8275 7.0114 58.5532C7.02855 58.2789 7.05426 58.0046 7.09712 57.7389H7.10569L7.11426 57.7475Z" fill="#05374E"/>
		<path d="M11.4343 33.7989C11.7943 33.3446 11.8971 32.8217 12.0771 32.2817C12.2143 31.9046 12.5314 31.5703 12.7457 31.2189C13.0286 30.7474 12.8914 30.4989 13.0971 30.216L16.0543 31.9303C15.8571 32.256 15.5486 32.556 15.2486 32.8131C14.9829 33.0874 14.7343 33.3274 14.6143 33.516C14.3057 34.0217 14.2886 34.6474 13.9714 35.0074C13.5943 35.4189 13.3029 35.8217 13.0714 36.2246C12.7286 36.8503 13.1314 36.8074 13.0371 37.4074C13.0029 37.6989 12.6771 37.956 12.6943 38.7103C12.7029 39.0017 12.3686 39.516 12.3257 39.816C12.2657 40.2617 12.12 40.6903 12.0171 41.196C11.9486 41.4703 11.7771 41.8217 11.58 42.216C11.3229 42.696 11.2457 44.0331 10.9971 44.4789C10.7057 44.9331 10.2429 45.6017 10.38 46.0389C10.2943 46.5874 10.6371 47.5989 10.4571 48.6446C10.4143 48.9017 10.3543 49.1503 10.3029 49.3989C10.26 49.6474 10.2086 49.896 10.1314 50.136C9.99428 50.5989 9.98571 51.0789 10.02 51.5589L10.1143 52.5189C10.1571 52.956 10.1914 53.3846 10.1314 53.8131H6.71143C6.75428 52.9389 6.88285 52.956 6.94285 52.4846C6.98571 52.0903 6.81428 51.7217 6.84 51.2503C6.86571 50.736 7.20857 50.2817 7.33714 49.896C7.43143 49.6217 7.40571 49.356 7.36285 49.0903C7.33714 48.8246 7.31143 48.5674 7.36285 48.3274C7.57714 47.3417 7.81714 47.3503 7.75714 46.5017C7.69714 45.6103 7.54285 45.1731 7.64571 44.5046C7.75714 43.9131 8.51143 42.9103 8.63143 42.396C8.80285 41.7189 8.79428 41.1874 8.87143 40.8874C8.96571 40.5617 9.18857 40.0817 9.48857 39.6617C9.78 39.2417 10.0543 38.8389 10.1229 38.6074C10.5857 37.3817 9.89143 36.7989 10.5514 35.1874C10.8 34.6903 11.0829 34.2189 11.4171 33.7903L11.4343 33.7989Z" fill="#05374E"/>
		<path d="M27.1286 15.1989C27.6428 14.9504 28.0114 14.5732 28.4571 14.2304C28.7743 13.9818 29.2457 13.8961 29.5886 13.6818C30.06 13.3989 30.06 13.1075 30.3686 12.9446L32.0828 15.9018C31.4314 16.2961 30.4543 16.3732 30.0428 16.5618C29.5028 16.8104 29.16 17.3246 28.7314 17.5132C28.2171 17.6932 27.7714 17.9246 27.3771 18.1732C26.7771 18.5589 27.1286 18.7046 26.7428 19.1504C26.5714 19.3818 26.1171 19.3904 25.7657 20.0761C25.6371 20.3418 25.1057 20.6418 24.9257 20.8818C24.66 21.2418 24.36 21.5932 23.9743 21.9361C23.7686 22.1246 23.4257 22.3304 23.04 22.5532C22.56 22.8189 21.8828 24.0018 21.4457 24.2675C21 24.5504 20.1943 24.8418 20.0914 25.2789C19.6886 25.6646 19.5514 26.7704 18.8914 27.6018C18.5743 28.0132 18.2314 28.3818 17.8371 28.7075C17.4428 29.0161 17.2028 29.4275 17.0143 29.8732L16.6371 30.7732C16.4743 31.1761 16.2943 31.5704 16.0371 31.9218L13.08 30.2075C13.5343 29.4618 13.6371 29.5389 13.9114 29.1446C14.1428 28.8189 14.1686 28.4161 14.4086 28.0046C14.5457 27.7904 14.7343 27.6189 14.94 27.4732C15.1543 27.3361 15.3771 27.2246 15.54 27.0961C16.0114 26.7446 16.0543 26.1361 16.3714 25.7675C17.0228 24.9961 17.2286 25.1246 17.58 24.3446C17.9486 23.5304 18.1028 23.1275 18.5486 22.6132C18.9514 22.1675 20.0571 21.6275 20.4171 21.2418C20.8714 20.7104 21.1628 20.2818 21.3943 20.0675C21.9086 19.5961 23.2971 19.0646 23.6228 18.7132C24.5743 17.8132 24.3343 17.0504 25.7314 16.0132C26.1857 15.6875 26.6486 15.4046 27.1371 15.1818L27.1286 15.1989Z" fill="#05374E"/>
		<path d="M50.04 6.96176C50.6143 7.06462 51.12 6.90176 51.6771 6.79891C52.0714 6.73034 52.5257 6.87605 52.9286 6.85891C53.4771 6.83319 53.6228 6.57605 53.9657 6.58462V10.0046C53.2028 10.0475 52.32 9.64462 51.8743 9.61891C51.2828 9.59319 50.7257 9.87605 50.2543 9.76462C49.98 9.69605 49.7228 9.64462 49.4743 9.61034C49.2257 9.59319 48.9857 9.61034 48.7543 9.61891C48.0428 9.67891 48.2828 9.97034 47.7171 10.1846C47.4514 10.2961 47.0571 10.1332 46.4143 10.5103C46.1657 10.6646 45.5571 10.6132 45.2743 10.7161C44.8543 10.8789 44.4343 11.076 43.9371 11.196C43.6714 11.2646 43.2771 11.2903 42.8314 11.3075C42.2914 11.3332 41.0657 11.8561 40.5771 11.9246C40.0628 11.9675 39.2314 11.8475 38.9228 12.1818C38.4086 12.3789 37.68 13.1332 36.6943 13.5275C36.2228 13.7418 35.7514 13.9218 35.2543 14.0246C34.7743 14.1275 34.3543 14.3418 33.9514 14.6075L33.1543 15.1475C32.8028 15.4132 32.4686 15.6961 32.0828 15.8846L30.3686 12.9275C31.1143 12.4732 31.1571 12.5932 31.5943 12.3789C31.9628 12.2246 32.1943 11.9075 32.6228 11.7018C33.0857 11.4789 33.66 11.5561 34.0628 11.4875C34.6371 11.3932 34.9628 10.8703 35.4171 10.6903C36.36 10.3475 36.4886 10.596 37.2 10.1246C37.9457 9.64462 38.2543 9.30176 38.8971 9.07034C39.18 8.96748 39.6257 8.91605 40.0628 8.89034C40.5086 8.89034 40.9457 8.89034 41.2028 8.83034C41.88 8.65891 42.3343 8.38462 42.6343 8.30748C43.3114 8.14462 44.76 8.28176 45.2314 8.22176C46.5257 8.02462 46.6886 7.17605 48.4114 6.92748C48.6857 6.89319 48.96 6.85891 49.2343 6.85891C49.5086 6.87605 49.7828 6.90176 50.0486 6.94462L50.04 6.96176Z" fill="#05374E"/>
		<path d="M73.9885 11.2818C74.4428 11.6418 74.9657 11.7446 75.5057 11.9246C75.8828 12.0618 76.2171 12.3789 76.5685 12.5932C77.04 12.876 77.2885 12.7389 77.5714 12.9446L75.8571 15.9018C75.5314 15.7046 75.2314 15.396 74.9742 15.096C74.7 14.8303 74.46 14.5818 74.2714 14.4618C73.7657 14.1532 73.14 14.136 72.78 13.8189C72.3685 13.4418 71.9657 13.1503 71.5628 12.9189C70.9371 12.576 70.98 12.9789 70.38 12.8846C70.0885 12.8503 69.8314 12.5246 69.0771 12.5418C68.7857 12.5503 68.2714 12.216 67.9714 12.1732C67.5257 12.1132 67.0971 11.9675 66.5914 11.8646C66.3171 11.796 65.9657 11.6246 65.5714 11.4275C65.0914 11.1703 63.7542 11.0932 63.3085 10.8446C62.8542 10.5532 62.1857 10.0903 61.7485 10.2275C61.2 10.1418 60.1885 10.4846 59.1428 10.3046C58.8857 10.2618 58.6371 10.2018 58.3885 10.1503C58.14 10.1075 57.8914 10.056 57.6514 9.9789C57.1885 9.84176 56.7085 9.83319 56.2285 9.86747L55.2685 9.96176C54.8314 10.0046 54.4028 10.0389 53.9742 9.9789V6.5589C54.8485 6.60176 54.8314 6.73033 55.3028 6.79033C55.6971 6.83319 56.0657 6.66176 56.5371 6.68747C57.0514 6.71318 57.5057 7.05604 57.8914 7.18461C58.1657 7.2789 58.4314 7.25318 58.6971 7.21033C58.9628 7.18461 59.22 7.1589 59.46 7.21033C60.4457 7.42461 60.4371 7.66461 61.2857 7.60461C62.1771 7.54461 62.6142 7.39033 63.2828 7.49318C63.8742 7.60461 64.8771 8.3589 65.3914 8.4789C66.0685 8.65033 66.6 8.64176 66.9 8.7189C67.2257 8.81319 67.7057 9.03604 68.1257 9.33604C68.5457 9.62747 68.9485 9.90176 69.18 9.97033C70.4057 10.4332 70.9885 9.7389 72.6 10.3989C73.0971 10.6475 73.5685 10.9303 73.9971 11.2646H73.9885V11.2818Z" fill="#05374E"/>
		<path d="M92.5886 26.9761C92.8371 27.4903 93.2143 27.8589 93.5572 28.3046C93.8057 28.6218 93.8914 29.0932 94.1057 29.4361C94.3886 29.9075 94.68 29.9075 94.8429 30.2161L91.8857 31.9303C91.4914 31.2789 91.4143 30.3018 91.2257 29.8903C90.9771 29.3503 90.4629 29.0075 90.2743 28.5789C90.0943 28.0646 89.8629 27.6189 89.6143 27.2246C89.2286 26.6246 89.0829 26.9761 88.6372 26.5903C88.4057 26.4189 88.3972 25.9646 87.7114 25.6132C87.4457 25.4846 87.1457 24.9532 86.9057 24.7732C86.5457 24.5075 86.1943 24.2075 85.8514 23.8218C85.6629 23.6161 85.4572 23.2732 85.2343 22.8875C84.9686 22.4075 83.7857 21.7303 83.52 21.2932C83.2372 20.8475 82.9457 20.0418 82.5086 19.9389C82.1229 19.5361 81.0172 19.3989 80.1857 18.7389C79.7743 18.4218 79.4057 18.0789 79.08 17.6846C78.7714 17.2903 78.36 17.0503 77.9143 16.8618L77.0143 16.4846C76.6114 16.3218 76.2172 16.1418 75.8657 15.8846L77.58 12.9275C78.3257 13.3818 78.2486 13.4846 78.6429 13.7589C78.9686 13.9903 79.3714 14.0161 79.7829 14.2561C79.9972 14.3932 80.1686 14.5818 80.3143 14.7875C80.4514 15.0018 80.5629 15.2246 80.6914 15.3875C81.0429 15.8589 81.6514 15.9018 82.02 16.2189C82.7914 16.8703 82.6629 17.0761 83.4429 17.4275C84.2571 17.7961 84.66 17.9503 85.1743 18.3961C85.62 18.7989 86.16 19.9046 86.5457 20.2646C87.0772 20.7189 87.5057 21.0103 87.72 21.2418C88.1914 21.7561 88.7229 23.1446 89.0743 23.4703C89.9743 24.4218 90.7371 24.1818 91.7743 25.5789C92.1 26.0332 92.3829 26.4961 92.6057 26.9846H92.5971L92.5886 26.9761Z" fill="#05374E"/>
		<path d="M100.826 49.8874C100.723 50.4617 100.886 50.9674 100.989 51.5246C101.057 51.9189 100.911 52.3731 100.929 52.776C100.954 53.3246 101.211 53.4703 101.203 53.8131H97.7828C97.74 53.0503 98.1428 52.1674 98.1685 51.7217C98.2028 51.1303 97.9114 50.5731 98.0228 50.1017C98.0914 49.8274 98.1428 49.5703 98.1771 49.3217C98.1943 49.0731 98.1771 48.8331 98.1685 48.6017C98.1085 47.8903 97.8171 48.1303 97.6028 47.5646C97.4914 47.2989 97.6543 46.9046 97.2771 46.2617C97.1228 46.0131 97.1743 45.4046 97.0714 45.1217C96.9085 44.7017 96.7114 44.2817 96.5914 43.7846C96.5228 43.5189 96.4971 43.1246 96.48 42.6789C96.4543 42.1389 95.9314 40.9131 95.8628 40.4246C95.82 39.9103 95.94 39.0789 95.6057 38.7703C95.4085 38.256 94.6543 37.5274 94.26 36.5417C94.0457 36.0703 93.8657 35.5989 93.7628 35.1017C93.66 34.6217 93.4457 34.2017 93.18 33.7989L92.64 33.0017C92.3743 32.6503 92.0914 32.316 91.9028 31.9303L94.86 30.216C95.3143 30.9617 95.1943 31.0046 95.4085 31.4417C95.5628 31.8103 95.88 32.0417 96.0857 32.4703C96.3085 32.9331 96.2314 33.5074 96.3 33.9103C96.3943 34.4846 96.9171 34.8103 97.0971 35.2646C97.44 36.2074 97.1914 36.336 97.6628 37.0474C98.1428 37.7931 98.4857 38.1017 98.7171 38.7446C98.82 39.0274 98.8714 39.4731 98.8971 39.9103C98.8971 40.356 98.8971 40.7931 98.9571 41.0503C99.1285 41.7274 99.4028 42.1817 99.48 42.4817C99.6428 43.1589 99.5057 44.6074 99.5657 45.0789C99.7628 46.3731 100.611 46.536 100.86 48.2589C100.894 48.5331 100.929 48.8074 100.929 49.0817C100.911 49.356 100.886 49.6303 100.843 49.896H100.834L100.826 49.8874Z" fill="#05374E"/>
		<path d="M84.4372 72.6789C84.1543 73.1417 84.1457 73.6389 84.0514 74.1532C83.9743 74.5217 83.6743 74.856 83.5457 75.2075C83.3743 75.6875 83.5629 75.9017 83.4257 76.1932L80.2286 74.976C80.4771 74.2989 81.1629 73.6817 81.36 73.3046C81.5914 72.7989 81.5057 72.2075 81.7543 71.8303C82.0629 71.4103 82.2772 70.9903 82.4229 70.5789C82.6457 69.9446 82.2857 70.0389 82.3114 69.4732C82.3114 69.2075 82.6114 68.9332 82.4914 68.2132C82.44 67.9389 82.7057 67.4246 82.7057 67.1417C82.7057 66.7217 82.7314 66.2846 82.8257 65.8046C82.8771 65.5475 83.0229 65.2046 83.1943 64.8189C83.4 64.3475 83.3486 63.0789 83.5371 62.6417C83.7343 62.1874 84.2143 61.5446 84.0514 61.1417C84.1286 60.6274 83.7086 59.6846 83.8114 58.6903C83.8714 58.2103 83.9314 57.7303 84.0771 57.276C84.2057 56.8303 84.2314 56.3846 84.1886 55.9303L84.06 55.0217C84 54.6103 83.9571 54.2074 84 53.796H87.42C87.4029 54.6017 87.2743 54.5846 87.2314 55.0303C87.1971 55.3989 87.3857 55.7332 87.3772 56.1703C87.3514 56.6417 87.0086 57.0703 86.88 57.4303C86.6829 57.936 87 58.4332 86.9229 58.8789C86.7772 59.8046 86.5371 59.8046 86.6571 60.5846C86.7771 61.4074 86.9229 61.7932 86.8543 62.4189C86.7943 62.976 86.1771 63.9532 86.1 64.4332C85.9971 65.076 86.0657 65.5646 86.0057 65.8475C85.8771 66.4732 85.1143 67.6303 85.0371 68.0675C84.7543 69.2503 85.5 69.7132 85.0457 71.2646C84.9086 71.7617 84.7114 72.2332 84.4457 72.6617L84.4372 72.6789Z" fill="#05374E"/>
		<path d="M73.0457 92.3846C72.5914 92.6761 72.3086 93.0875 71.9743 93.5075C71.7343 93.8075 71.3057 93.9618 71.0057 94.2018C70.6028 94.5361 70.6543 94.8189 70.38 95.0075L68.2543 92.3332C68.7943 91.8875 69.7028 91.7246 70.0371 91.4675C70.4743 91.1332 70.6971 90.6103 71.0828 90.3875C71.5371 90.1561 71.9228 89.8903 72.2486 89.6075C72.7286 89.1446 72.36 89.0675 72.6257 88.5703C72.7457 88.3303 73.1486 88.2361 73.3371 87.5418C73.4057 87.2761 73.86 86.9332 73.9886 86.6846C74.1686 86.3075 74.3657 85.9218 74.6486 85.5446C74.8028 85.3389 75.0857 85.0903 75.3771 84.8075C75.7543 84.4732 76.2257 83.3075 76.56 82.9732C76.92 82.6389 77.64 82.2532 77.6228 81.8075C77.8628 81.3532 77.88 80.3589 78.3257 79.4675C78.5486 79.0389 78.8143 78.6446 79.1057 78.2675C79.3886 77.9075 79.56 77.4961 79.6886 77.0675C79.7743 76.7761 79.8257 76.4761 79.8943 76.1761C79.98 75.7732 80.0828 75.3789 80.2628 75.0189L83.46 76.2361C83.16 76.9903 83.0486 76.9303 82.8428 77.3332C82.68 77.6675 82.74 78.0532 82.56 78.4475C82.3628 78.8846 81.8914 79.1589 81.6428 79.4503C81.2914 79.8618 81.36 80.4189 81.1286 80.8218C80.6571 81.6361 80.4428 81.5504 80.2371 82.3132C80.0143 83.1104 80.04 83.5561 79.7057 84.0961C79.4143 84.5761 78.4886 85.2618 78.1971 85.6646C77.8286 86.2132 77.6914 86.6932 77.5286 86.9246C77.1428 87.4475 75.96 88.1846 75.6943 88.5446C74.9314 89.5046 75.3771 90.2332 74.2628 91.4503C73.8943 91.8189 73.4914 92.1532 73.0628 92.4275L73.0457 92.3846Z" fill="#05374E"/>
		<path d="M51.8315 100.759C51.3086 100.562 50.7943 100.673 50.2457 100.647C49.86 100.63 49.4657 100.382 49.08 100.313C48.5572 100.219 48.3686 100.399 48.0515 100.296L48.8829 96.9789C49.5429 97.176 50.2286 97.716 50.6229 97.8446C51.1457 97.9989 51.6943 97.776 52.0886 97.956C52.5515 98.1874 52.9972 98.2474 53.4172 98.3074C54.0686 98.3846 53.8886 98.0589 54.42 97.9046C54.6686 97.8189 55.0115 98.0503 55.62 97.7246C55.8515 97.5874 56.4 97.6646 56.6572 97.5789C57.0429 97.4674 57.4286 97.3046 57.8829 97.2274C58.1315 97.1846 58.4914 97.2017 58.8857 97.1846C59.1343 97.1846 59.5286 97.056 59.9229 96.9189C60.3086 96.756 60.6857 96.6017 60.9172 96.5931C61.3972 96.5931 62.1686 96.696 62.4343 96.3617C62.9057 96.1903 63.48 95.3589 64.3372 94.9303C64.7486 94.7074 65.1772 94.5274 65.6229 94.3989C66.0429 94.2532 66.4115 94.0131 66.7372 93.7217C66.96 93.5246 67.1572 93.3017 67.3629 93.0874C67.6372 92.796 67.9372 92.5389 68.2543 92.3074L70.38 94.9817C69.7286 95.5046 69.6514 95.3674 69.2657 95.616C68.94 95.8131 68.7943 96.1817 68.4086 96.4217C67.9972 96.6874 67.44 96.6703 67.0715 96.7817C66.5315 96.9103 66.2657 97.4331 65.8457 97.6303C64.9715 98.0331 64.8343 97.8017 64.2086 98.3246C63.54 98.8474 63.2486 99.1731 62.64 99.4303C62.0915 99.6274 60.9086 99.5503 60.42 99.6789C59.7686 99.8417 59.3314 100.116 59.04 100.176C58.38 100.305 56.9915 100.005 56.5457 100.065C55.92 100.133 55.56 100.382 55.1315 100.587C54.7029 100.785 54.2143 101.059 53.3743 100.999C52.8343 100.965 52.3115 100.922 51.8143 100.733H51.8229L51.8315 100.759Z" fill="#05374E"/>
		<path d="M32.1086 89.2817C31.8857 88.7846 31.4572 88.5103 31.0972 88.116C30.8314 87.8417 30.7286 87.4046 30.5057 87.096C30.1972 86.676 29.9314 86.6932 29.7686 86.4189L32.6057 84.5074C32.9829 85.1074 33.12 85.9989 33.3172 86.376C33.5829 86.8646 34.1314 87.1046 34.2943 87.5246C34.4743 88.0132 34.6972 88.416 34.9629 88.7589C35.3657 89.2903 35.4857 88.9389 35.94 89.256C36.1629 89.4017 36.24 89.7874 36.9 90.0532C37.1486 90.156 37.44 90.6446 37.6886 90.7732C38.0486 90.9789 38.3914 91.2274 38.7514 91.536C38.9486 91.6989 39.1714 91.9817 39.42 92.3074C39.7029 92.736 40.8514 93.2246 41.1343 93.6017C41.4429 93.9617 41.8029 94.6817 42.2229 94.6989C42.6686 94.9389 43.6372 94.9903 44.5029 95.4017C44.9143 95.616 45.3086 95.8646 45.6772 96.1303C46.0372 96.3874 46.4314 96.576 46.8686 96.636L47.7343 96.7732C48.12 96.8417 48.5143 96.8589 48.8829 96.996L48.0514 100.313C47.2372 100.099 47.28 99.996 46.8514 99.816C46.4914 99.6703 46.1143 99.7474 45.6772 99.6017C45.2057 99.4474 44.9057 98.9503 44.5972 98.7189C44.16 98.376 43.5943 98.4617 43.1829 98.2217C42.3429 97.7503 42.4457 97.5189 41.6657 97.296C40.8429 97.0732 40.4143 97.0303 39.8657 96.6789C39.3686 96.3789 38.76 95.3589 38.3572 95.0589C37.8172 94.6646 37.38 94.4503 37.1486 94.2703C36.6257 93.8674 36.0429 92.5646 35.6829 92.2989C34.8257 91.416 34.0114 91.8189 32.9486 90.5674C32.5972 90.1732 32.3143 89.7446 32.1 89.2817H32.1086Z" fill="#05374E"/>
		<path d="M22.4314 68.7103C22.44 68.1703 22.1829 67.7417 22.02 67.2446C21.9 66.8932 21.9857 66.456 21.9086 66.0874C21.8057 65.5817 21.54 65.496 21.5143 65.1789L24.8829 64.596C25.0029 65.3074 24.7371 66.1903 24.7629 66.6103C24.8057 67.1674 25.1914 67.6303 25.1657 68.0846C25.1229 68.6074 25.1314 69.0789 25.2171 69.5074C25.3457 70.1674 25.6114 69.9017 25.8771 70.3989C26.0143 70.6303 25.8771 71.0246 26.3486 71.5732C26.5286 71.7874 26.5714 72.3532 26.7086 72.6017C26.9057 72.9703 27.1114 73.356 27.2743 73.8103C27.36 74.0589 27.4114 74.4274 27.4629 74.8389C27.5143 75.3446 28.2257 76.3989 28.2771 76.8789C28.3457 77.3674 28.26 78.1646 28.6114 78.4217C28.8171 78.8932 29.6657 79.476 30.0943 80.3674C30.3171 80.796 30.4971 81.2332 30.6171 81.696C30.7286 82.1417 30.9771 82.5103 31.2514 82.8617L31.8343 83.5474C32.1171 83.8474 32.3829 84.1474 32.5714 84.5074L29.7343 86.4189C29.28 85.7332 29.4 85.6817 29.1771 85.2874C29.0057 84.9532 28.6714 84.7732 28.44 84.396C28.1914 83.9846 28.2257 83.4446 28.1571 83.0674C28.0457 82.5274 27.5314 82.2703 27.3429 81.8503C26.9657 80.9846 27.18 80.856 26.6657 80.2474C26.1257 79.6132 25.8 79.3474 25.5343 78.7732C25.2943 78.2674 25.32 77.1017 25.14 76.6474C24.8914 76.0389 24.6 75.6532 24.5057 75.3789C24.2829 74.7789 24.3686 73.3817 24.2143 72.9703C23.8371 71.8046 22.9886 71.7789 22.5857 70.2103C22.4486 69.7132 22.4057 69.2074 22.4057 68.7017H22.4143L22.4314 68.7103Z" fill="#05374E"/>
		<path d="M21.1714 46.0903C21.36 45.5932 21.2829 45.096 21.2829 44.5732C21.2829 44.196 21.5229 43.8189 21.5829 43.4417C21.66 42.936 21.4371 42.7646 21.5143 42.4474L24.8829 43.0303C24.7714 43.7417 24.1971 44.4789 24.0857 44.8903C23.9571 45.4303 24.1457 45.996 23.9657 46.416C23.7343 46.8875 23.6143 47.3417 23.5371 47.7703C23.4257 48.4303 23.7686 48.276 23.8457 48.8417C23.8886 49.1074 23.64 49.4332 23.8886 50.1103C23.9829 50.376 23.82 50.9246 23.8629 51.2075C23.9229 51.6275 23.9914 52.056 23.9743 52.5446C23.9743 52.8103 23.8886 53.1703 23.7857 53.5817C23.6486 54.0789 23.94 55.3217 23.82 55.7932C23.6829 56.2732 23.34 56.9932 23.5629 57.3617C23.58 57.876 24.1286 58.7417 24.2143 59.736C24.2486 60.2246 24.24 60.7046 24.18 61.176C24.1286 61.6303 24.1886 62.076 24.3 62.5132C24.3771 62.8046 24.4886 63.096 24.5829 63.3875C24.7114 63.7817 24.8314 64.1675 24.8571 64.5789L21.4886 65.1617C21.36 64.3646 21.4886 64.356 21.4543 63.9189C21.42 63.5503 21.18 63.2589 21.1286 62.8217C21.0686 62.3503 21.3257 61.8703 21.3943 61.4932C21.4886 60.9617 21.12 60.5246 21.12 60.0703C21.1029 59.136 21.3257 59.0932 21.0857 58.3475C20.8457 57.5589 20.6143 57.1989 20.58 56.5732C20.5457 56.016 21 54.9532 20.9829 54.456C20.9657 53.8046 20.8371 53.3332 20.8371 53.0503C20.8457 52.4074 21.4029 51.1475 21.4029 50.7017C21.4714 49.4846 20.6571 49.1675 20.82 47.5646C20.8714 47.0503 20.9657 46.5532 21.1543 46.0903H21.1714Z" fill="#05374E"/>
		<path d="M27.9857 24.4389C28.3371 24.036 28.4914 23.5646 28.6971 23.076C28.8514 22.7332 29.1943 22.4589 29.4171 22.1417C29.7 21.7132 29.5714 21.4646 29.7686 21.2075L32.6057 23.1189C32.2029 23.7103 31.3886 24.1475 31.14 24.4817C30.8057 24.9275 30.7371 25.5017 30.4286 25.8189C30.0514 26.1703 29.7514 26.5303 29.52 26.8989C29.1686 27.4646 29.5457 27.456 29.4171 28.0046C29.3657 28.2703 29.0057 28.4675 28.98 29.1875C28.98 29.4703 28.6286 29.916 28.5686 30.1989C28.4743 30.6103 28.3629 31.0217 28.1829 31.476C28.0886 31.716 27.8743 32.0246 27.6429 32.3675C27.3343 32.7789 27.1714 34.0475 26.8971 34.4332C26.6143 34.836 26.0314 35.3846 26.1171 35.8132C25.9457 36.3017 26.1943 37.3046 25.9114 38.2646C25.7657 38.7275 25.6286 39.1817 25.3971 39.6103C25.1914 40.0217 25.08 40.4589 25.0629 40.9132L25.0286 41.8303C25.0286 42.2417 24.9771 42.6446 24.8829 43.0475L21.5143 42.4646C21.6514 41.6675 21.7886 41.7103 21.9 41.2817C21.9943 40.9217 21.8743 40.5617 21.96 40.1332C22.0543 39.6703 22.4743 39.3103 22.6629 38.976C22.9457 38.5132 22.7229 37.9646 22.8857 37.536C23.1943 36.6532 23.4257 36.696 23.4514 35.8989C23.4943 35.076 23.4086 34.656 23.5971 34.0475C23.7514 33.5075 24.5571 32.6675 24.72 32.196C24.9343 31.5789 24.9857 31.0903 25.0886 30.8246C25.2086 30.5246 25.5086 30.1303 25.8 29.7532C26.1086 29.3846 26.4 29.0417 26.4686 28.8275C26.9571 27.7046 26.3657 27.1217 27.1029 25.6732C27.36 25.2189 27.6514 24.7989 27.9857 24.4303V24.4389Z" fill="#05374E"/>
		<path d="M44.5114 8.70175C45.06 8.62461 45.4543 8.29032 45.96 8.06747C46.3114 7.89604 46.7657 7.92175 47.1429 7.80175C47.6571 7.66461 47.7257 7.39032 48.06 7.33032L48.8914 10.6475C48.2229 10.7932 47.3486 10.6218 46.9457 10.7075C46.4057 10.8018 46.0286 11.2646 45.5914 11.2989C45.0771 11.316 44.64 11.4446 44.2457 11.5989C43.6371 11.8475 43.9371 12.036 43.5257 12.4132C43.3371 12.6018 42.9429 12.5675 42.5229 13.1246C42.3686 13.3389 41.8457 13.5275 41.6486 13.7246C41.3571 14.0075 41.0486 14.2903 40.6714 14.5818C40.4657 14.736 40.1314 14.8818 39.7543 15.0446C39.3 15.2589 38.52 16.2103 38.1172 16.4418C37.6886 16.656 36.8914 16.8275 36.7886 17.256C36.4286 17.6246 36.1629 18.576 35.5114 19.3132C35.1857 19.656 34.8429 19.9903 34.4657 20.2732C34.1057 20.5475 33.8143 20.8903 33.6172 21.2846L33.2057 22.0903C33.0172 22.4503 32.8371 22.8103 32.5886 23.1275L29.7514 21.216C30.1971 20.5303 30.3086 20.6246 30.6 20.2818C30.84 19.9989 30.8829 19.6132 31.1486 19.2532C31.4314 18.8675 31.98 18.7218 32.2971 18.4989C32.7429 18.1903 32.8029 17.6075 33.1457 17.2903C33.8229 16.6303 33.9943 16.7589 34.4057 16.0732C34.8429 15.3618 34.9372 14.916 35.4257 14.4875C35.8457 14.0932 36.9429 13.7075 37.3372 13.4075C37.8429 12.9789 38.1257 12.5675 38.3743 12.396C38.64 12.1989 39.1114 12.0189 39.5657 11.8475C40.0286 11.7018 40.4657 11.5646 40.6457 11.4189C41.16 11.076 41.3914 10.7246 41.6657 10.3303C41.94 9.94461 42.2657 9.51604 43.0286 9.17318C43.5086 8.94175 44.0057 8.76175 44.5286 8.69318L44.5114 8.70175Z" fill="#05374E"/>
		<path d="M67.2 10.6217C67.5772 11.0246 68.0657 11.1703 68.5543 11.4103C68.8972 11.5817 69.1372 11.9846 69.4457 12.2075C69.8657 12.516 70.1315 12.396 70.3715 12.636L68.2457 15.3103C67.6972 14.8732 67.3115 14.0589 67.0115 13.7675C66.5915 13.4246 66.0086 13.356 65.7257 13.0132C65.3915 12.6275 65.04 12.336 64.6886 12.096C64.14 11.7275 64.14 12.1217 63.6086 11.9932C63.3429 11.9503 63.1543 11.5732 62.4515 11.5989C62.1772 11.6075 61.74 11.2817 61.4657 11.2303C61.0629 11.1703 60.6515 11.1103 60.2143 10.9646C59.9829 10.8789 59.6657 10.716 59.3057 10.5275C59.0915 10.416 58.68 10.3217 58.2686 10.2789C57.8572 10.236 57.4543 10.1932 57.24 10.0903C56.82 9.86746 56.1857 9.42175 55.8 9.5846C55.5515 9.55032 55.2 9.66175 54.8057 9.77317C54.4029 9.8846 53.9572 9.96175 53.4772 9.98746C53.0143 10.0046 52.56 9.93603 52.1057 9.8846C51.6686 9.8246 51.24 9.86746 50.82 9.98746L49.9972 10.2875C49.6286 10.416 49.26 10.5532 48.8829 10.6217L48.0515 7.3046C48.8657 7.09032 48.8829 7.22746 49.3457 7.1846C49.7315 7.14175 50.0315 6.89317 50.4857 6.81603C50.9829 6.7646 51.48 7.02175 51.8657 7.09889C52.4057 7.1846 52.8857 6.8846 53.3572 6.8846C54.3257 6.90175 54.3429 7.19317 55.1486 7.01317C55.9886 6.83317 56.4 6.71317 57.06 6.7646C57.6515 6.81603 58.6457 7.49317 59.1429 7.57889C59.7943 7.74175 60.3 7.7246 60.5915 7.80175C61.2343 7.99889 62.3143 8.90746 62.7429 9.06175C63.8914 9.5246 64.4829 8.89889 65.9657 9.67889C66.42 9.95317 66.8572 10.2446 67.2257 10.6046H67.2172L67.2 10.6217Z" fill="#05374E"/>
		<path d="M81.84 28.1246C81.9343 28.656 82.26 29.0331 82.5343 29.4874C82.7314 29.8131 82.7143 30.2588 82.86 30.6103C83.0486 31.0903 83.3314 31.1246 83.4257 31.4331L80.2286 32.6503C79.9628 31.9817 80.0743 31.0646 79.9628 30.6531C79.7914 30.1217 79.3371 29.7446 79.2771 29.2903C79.2343 28.7674 79.0886 28.3217 78.9343 27.9188C78.6857 27.3017 78.48 27.6103 78.1114 27.1817C77.9228 26.9846 77.9571 26.5817 77.3914 26.1446C77.1771 25.9731 77.0228 25.4246 76.8257 25.2188C76.5428 24.9103 76.2686 24.576 76.02 24.1646C75.8828 23.9503 75.7457 23.6074 75.6 23.2131C75.4457 22.7246 74.5114 21.876 74.3486 21.4303C74.1943 20.9588 74.0571 20.1788 73.6628 20.0246C73.3543 19.6131 72.3943 19.2788 71.7514 18.5331C71.4257 18.1817 71.1343 17.8217 70.9028 17.4103C70.68 17.0074 70.3371 16.7331 69.9771 16.476C69.7286 16.3131 69.4886 16.1417 69.2228 15.996C68.8714 15.7988 68.5371 15.5846 68.2543 15.3103L70.38 12.636C71.0228 13.1674 70.9286 13.2531 71.2543 13.5703C71.5286 13.8274 71.8886 13.9217 72.2228 14.2217C72.5743 14.5474 72.7028 15.0788 72.8743 15.4303C73.1228 15.9188 73.6971 16.0388 73.9971 16.3903C74.58 17.136 74.4171 17.316 75.0771 17.7703C75.7457 18.2674 76.14 18.4388 76.5514 18.936C76.9028 19.3817 77.16 20.5217 77.4514 20.9246C77.8114 21.4731 78.1971 21.7817 78.36 22.0217C78.7371 22.5531 78.9171 23.9588 79.1914 24.3103C79.7743 25.3903 80.6657 25.2103 81.36 26.6846C81.5828 27.156 81.7714 27.6274 81.8571 28.1246H81.8486H81.84Z" fill="#05374E"/>
		<path d="M87.1114 50.1789C87.0086 50.7017 87.18 51.1732 87.2572 51.696C87.3172 52.0646 87.1543 52.476 87.1543 52.8532C87.1629 53.3674 87.4114 53.496 87.3943 53.8132H83.9743C83.9572 53.0932 84.3943 52.2617 84.4372 51.8417C84.4886 51.2846 84.1886 50.7617 84.3 50.316C84.4286 49.8103 84.5057 49.3474 84.4972 48.9103C84.4972 48.2417 84.18 48.4474 84 47.9074C83.9057 47.6503 84.1114 47.2903 83.7514 46.6646C83.6057 46.4246 83.6743 45.8503 83.58 45.5846C83.4429 45.1817 83.3314 44.7617 83.2457 44.2817C83.2029 44.0246 83.22 43.6474 83.2457 43.2274C83.3143 42.7132 82.7914 41.5389 82.8343 41.0589C82.8857 40.5617 83.1086 39.7903 82.8086 39.4732C82.6971 38.9674 82.0114 38.2217 81.7457 37.2532C81.6343 36.7817 81.5486 36.3103 81.5143 35.8389C81.4886 35.376 81.3429 34.956 81.1543 34.5446L80.7171 33.7474C80.5114 33.3874 80.3314 33.0274 80.2286 32.6332L83.4257 31.416C83.7086 32.1789 83.5714 32.2046 83.6914 32.6417C83.7857 33.0017 84.0857 33.2417 84.2229 33.6617C84.3686 34.116 84.1971 34.6389 84.2057 35.016C84.2057 35.556 84.66 35.9246 84.7371 36.3703C84.9257 37.2874 84.7114 37.3646 85.08 38.0674C85.4572 38.8046 85.7486 39.1132 85.8943 39.7303C86.0143 40.2789 85.7657 41.4017 85.8686 41.8903C85.9971 42.5332 86.1943 42.9703 86.2457 43.2532C86.3572 43.8874 85.9972 45.2332 86.0914 45.6703C86.2543 46.8789 87.0686 47.0589 87.1972 48.6703C87.24 49.1846 87.1971 49.6903 87.1114 50.1789Z" fill="#05374E"/>
		<path d="M66 74.5475C65.7943 75.0961 65.8715 75.6275 65.8543 76.2018C65.8543 76.6046 65.6143 77.0246 65.5458 77.4361C65.46 77.9846 65.6743 78.1732 65.5972 78.5075L62.22 77.9504C62.3572 77.1532 62.9229 76.3218 63.0429 75.8675C63.1972 75.2675 63.0172 74.6332 63.2057 74.1789C63.4457 73.6475 63.5915 73.1504 63.6772 72.6789C63.8143 71.9418 63.4715 72.1132 63.4115 71.4875C63.3772 71.1875 63.6343 70.8361 63.4286 70.0732C63.3515 69.7818 63.5486 69.1732 63.5143 68.8561C63.4715 68.3846 63.4543 67.8961 63.4972 67.3561C63.5229 67.0646 63.6257 66.6618 63.7543 66.2075C63.9257 65.6675 63.7543 64.2532 63.9172 63.7475C64.0886 63.2246 64.5343 62.4618 64.3372 62.0332C64.3629 61.4589 63.9257 60.4389 63.9686 59.3161C63.9943 58.7675 64.0629 58.2361 64.1915 57.7218C64.3115 57.2246 64.3115 56.7189 64.26 56.2218L64.1229 55.2104C64.0543 54.7561 64.0115 54.2932 64.0458 53.8389H67.4657C67.4657 54.7132 67.3286 54.6961 67.2943 55.1761C67.2686 55.5789 67.4572 55.9304 67.4486 56.4104C67.44 56.9246 67.1143 57.3961 66.9943 57.7989C66.8229 58.3561 67.1315 58.8875 67.08 59.3761C66.9858 60.3875 66.7543 60.4046 66.9 61.2446C67.0543 62.1275 67.2515 62.5389 67.2172 63.2246C67.1829 63.8246 66.66 64.9475 66.6258 65.4789C66.5743 66.1904 66.6857 66.7046 66.66 67.0132C66.6086 67.7075 65.94 69.0532 65.9486 69.5418C65.8115 70.8704 66.6086 71.2475 66.3772 72.9789C66.3086 73.5361 66.1886 74.0675 66 74.5818V74.5475Z" fill="#05374E"/>
		<path d="M58.4315 98.5131C57.9 98.9074 57.5743 99.4389 57 99.9103C56.6143 100.262 55.98 100.399 55.4486 100.57C54.7115 100.81 54.4972 101.016 53.9658 101.05V97.6303C54.06 97.6046 54.1543 97.6303 54.2658 97.6731C54.3772 97.6731 54.4972 97.6989 54.6343 97.7331C54.9 97.7331 55.1829 97.7331 55.3458 97.6389C55.7829 97.4246 55.9629 96.8674 56.3315 96.6531C56.7686 96.396 57.1286 96.0703 57.4029 95.7017C57.8315 95.1446 57.4458 95.136 57.6258 94.5703C57.7029 94.3046 58.0715 94.0903 58.1315 93.336C58.1572 93.0532 58.5172 92.556 58.5858 92.256C58.68 91.8103 58.8 91.356 58.9886 90.8674C59.0829 90.6017 59.2972 90.2503 59.5372 89.8646C59.8372 89.3931 60.0086 88.0131 60.2658 87.5589C60.5572 87.096 61.1315 86.4531 61.0372 85.9989C61.1829 85.4503 60.96 84.3703 61.2086 83.2903C61.3372 82.7674 61.5 82.2617 61.7143 81.7817C61.92 81.3189 62.0143 80.8303 62.0486 80.3246L62.0915 79.3131C62.1086 78.8589 62.1258 78.396 62.2372 77.9589L65.6143 78.516C65.4686 79.3817 65.3486 79.3474 65.2286 79.8189C65.1343 80.2131 65.2543 80.5989 65.1686 81.0703C65.0743 81.576 64.6629 81.996 64.4743 82.3646C64.2086 82.8874 64.4143 83.4617 64.2686 83.9417C63.9858 84.9274 63.7458 84.8931 63.72 85.7589C63.7029 86.6674 63.7886 87.1131 63.6086 87.7817C63.4372 88.3731 62.6743 89.3589 62.4943 89.8731C62.2715 90.5589 62.2372 91.0989 62.1258 91.3989C61.8943 92.076 60.8486 93.2074 60.6772 93.6703C60.0943 94.9046 60.72 95.556 59.6829 97.176C59.52 97.4331 59.3315 97.6731 59.1086 97.9046C58.8943 98.136 58.6886 98.3503 58.4229 98.5303V98.5131H58.4315Z" fill="#05374E"/>
		<path d="M43.2429 82.3903C43.26 81.8075 43.0114 81.3189 42.8486 80.7789C42.7286 80.3932 42.8143 79.9217 42.7371 79.5103C42.6429 78.9617 42.3772 78.8589 42.3429 78.5075L45.72 77.9503C45.8486 78.7475 45.5743 79.716 45.6086 80.1875C45.66 80.8046 46.0286 81.336 46.0029 81.8332C45.9514 82.4075 45.9771 82.9217 46.0543 83.4017C46.1657 84.1303 46.4314 83.8646 46.7057 84.4303C46.8429 84.696 46.7057 85.116 47.1686 85.7589C47.3486 85.9989 47.3829 86.6332 47.52 86.916C47.7257 87.336 47.9229 87.7646 48.0771 88.2789C48.1543 88.5532 48.2143 88.956 48.2657 89.4103C48.3086 89.976 49.02 91.1589 49.0971 91.656C49.1486 92.1875 49.1057 93.036 49.4657 93.3189C49.7143 93.816 50.5629 94.4589 51.1029 95.2903C51.36 95.7103 51.6 96.1046 51.7971 96.5075C51.9943 96.9017 52.3029 97.1846 52.6371 97.356L52.9714 97.5017L53.2886 97.5703C53.4257 97.6132 53.5457 97.5703 53.6657 97.6132C53.7772 97.6217 53.88 97.6046 53.9829 97.6475V101.067C53.3143 101.025 52.9886 100.947 52.7743 100.827C52.56 100.725 52.4057 100.647 52.0886 100.502C51.8486 100.373 51.6 100.296 51.3343 100.21C51.0943 100.107 50.8457 99.9875 50.5886 99.8075C50.3314 99.6017 50.1686 99.336 50.0143 99.0789C49.8771 98.8217 49.7914 98.556 49.68 98.3503C49.3886 97.7675 48.7886 97.5103 48.5229 97.0389C47.9657 96.0875 48.1972 95.9417 47.6057 95.256C47.0057 94.536 46.6457 94.236 46.3543 93.576C46.1057 92.9932 46.0886 91.7246 45.9171 91.2103C45.66 90.5332 45.3771 90.0789 45.2743 89.7789C45.0514 89.1017 45.1714 87.5932 45.0086 87.1303C44.6571 85.836 43.7914 85.7503 43.4143 84.0189C43.2943 83.4703 43.2257 82.9217 43.2429 82.3732H43.2514L43.2429 82.3903Z" fill="#05374E"/>
		<path d="M40.7057 57.7646C40.8257 57.1989 40.6714 56.6846 40.5943 56.1189C40.5429 55.716 40.7057 55.2703 40.7057 54.8589C40.7057 54.3017 40.4486 54.156 40.4743 53.8132H43.8943C43.8943 54.6275 43.4571 55.5446 43.4143 56.0075C43.3629 56.6246 43.6371 57.2246 43.5171 57.7132C43.3629 58.2703 43.2943 58.7846 43.2771 59.2732C43.2514 60.0189 43.5686 59.8046 43.7143 60.4132C43.7914 60.7046 43.5857 61.0903 43.9029 61.8189C44.0314 62.1017 43.92 62.736 43.9971 63.0446C44.1086 63.5075 44.2029 63.9789 44.2286 64.5275C44.2457 64.8189 44.1943 65.2389 44.1343 65.7017C44.0486 66.2675 44.4086 67.6389 44.3314 68.1617C44.2457 68.7103 43.9029 69.5246 44.1686 69.9189C44.2286 70.4932 44.8114 71.436 44.9314 72.5503C44.9829 73.0903 45 73.6303 44.9486 74.1532C44.9057 74.6589 44.9743 75.156 45.1114 75.6446L45.4029 76.6217C45.5314 77.0589 45.66 77.496 45.7029 77.9503L42.3257 78.5075C42.18 77.6417 42.3086 77.6332 42.2743 77.1532C42.24 76.7503 42 76.4246 41.9314 75.9532C41.8543 75.4475 42.1114 74.9246 42.1714 74.5132C42.2571 73.9303 41.8714 73.4589 41.8457 72.9617C41.7857 71.9503 42.0171 71.8989 41.7429 71.0846C41.46 70.236 41.1943 69.8589 41.1429 69.1732C41.0914 68.5732 41.4343 67.3903 41.4086 66.8503C41.3571 66.1389 41.1771 65.6417 41.1514 65.3332C41.1086 64.6389 41.5629 63.2075 41.4943 62.7275C41.4343 61.3989 40.5943 61.1417 40.56 59.3932C40.5514 58.836 40.5857 58.2875 40.6971 57.756H40.7057V57.7646Z" fill="#05374E"/>
		<path d="M41.94 33.0875C42.1457 32.5389 42.0686 32.0075 42.0857 31.4332C42.0857 31.0304 42.3257 30.6104 42.3943 30.1989C42.48 29.6504 42.2657 29.4618 42.3429 29.1275L45.72 29.6846C45.5829 30.4818 45.0172 31.3132 44.8972 31.7675C44.7429 32.3675 44.9229 33.0018 44.7343 33.4561C44.4943 33.9875 44.3486 34.4846 44.2629 34.9561C44.1257 35.6932 44.4686 35.5218 44.5286 36.1475C44.5629 36.4475 44.3057 36.7989 44.5114 37.5618C44.5886 37.8532 44.3914 38.4618 44.4257 38.7789C44.4686 39.2504 44.4857 39.7389 44.4429 40.2789C44.4172 40.5704 44.3143 40.9732 44.1857 41.4275C44.0143 41.9675 44.1857 43.3818 44.0229 43.8875C43.8514 44.4104 43.4057 45.1732 43.6029 45.6018C43.5772 46.1761 44.0143 47.1961 43.9714 48.3189C43.9457 48.8675 43.8772 49.3989 43.7486 49.9132C43.6286 50.4104 43.6286 50.9161 43.68 51.4132L43.8172 52.4246C43.8857 52.8789 43.9286 53.3418 43.8943 53.7961H40.4743C40.4743 52.9218 40.6114 52.9389 40.6457 52.4589C40.6714 52.0561 40.4829 51.7046 40.4914 51.2246C40.5 50.7104 40.8257 50.2389 40.9457 49.8361C41.1172 49.2789 40.8086 48.7475 40.86 48.2589C40.9543 47.2475 41.1857 47.2304 41.04 46.3904C40.8857 45.5075 40.6886 45.0961 40.7229 44.4104C40.7572 43.8104 41.28 42.6875 41.3143 42.1561C41.3657 41.4446 41.2543 40.9304 41.28 40.6218C41.3314 39.9275 42 38.5818 41.9914 38.0932C42.1286 36.7646 41.3314 36.3875 41.5629 34.6561C41.6314 34.0989 41.7514 33.5675 41.94 33.0532V33.0875Z" fill="#05374E"/>
		<path d="M49.5086 9.1218C50.04 8.72751 50.3657 8.19608 50.94 7.72466C51.3257 7.37323 51.96 7.23608 52.4914 7.06466C53.2286 6.82466 53.4429 6.61894 53.9743 6.58466V10.0047C53.88 10.0304 53.7857 10.0047 53.6743 9.9618C53.5629 9.9618 53.4429 9.93608 53.3057 9.9018C53.04 9.9018 52.7571 9.9018 52.5943 9.99608C52.1571 10.2104 51.9771 10.7675 51.6086 10.9818C51.1714 11.2389 50.8114 11.5647 50.5371 11.9332C50.1086 12.4904 50.4943 12.4989 50.3143 13.0647C50.2371 13.3304 49.8686 13.5447 49.8086 14.2989C49.7829 14.5818 49.4229 15.0789 49.3543 15.3789C49.26 15.8247 49.14 16.2789 48.9514 16.7675C48.8571 17.0332 48.6429 17.3847 48.4029 17.7704C48.1029 18.2418 47.9314 19.6218 47.6743 20.0761C47.3829 20.5389 46.8086 21.1818 46.9029 21.6361C46.7571 22.1847 46.98 23.2647 46.7314 24.3447C46.6029 24.8675 46.44 25.3732 46.2257 25.8532C46.02 26.3161 45.9257 26.8047 45.8914 27.3104L45.8486 28.3218C45.8314 28.7761 45.8143 29.2389 45.7029 29.6761L42.3257 29.1189C42.4714 28.2532 42.5914 28.2875 42.7114 27.8161C42.8057 27.4218 42.6857 27.0361 42.7714 26.5647C42.8657 26.0589 43.2771 25.6389 43.4657 25.2704C43.7314 24.7475 43.5257 24.1732 43.6714 23.6932C43.9543 22.7075 44.1943 22.7418 44.22 21.8761C44.2371 20.9675 44.1514 20.5218 44.3314 19.8532C44.5029 19.2618 45.2657 18.2761 45.4457 17.7618C45.6686 17.0761 45.7029 16.5361 45.8143 16.2361C46.0457 15.5589 47.0914 14.4275 47.2629 13.9647C47.8457 12.7304 47.22 12.0789 48.2571 10.4589C48.42 10.2018 48.6086 9.9618 48.8314 9.73037C49.0457 9.49894 49.2514 9.28466 49.5171 9.10466V9.1218H49.5086Z" fill="#05374E"/>
		<path d="M64.6972 25.2446C64.68 25.8275 64.9286 26.3161 65.0914 26.8561C65.2114 27.2418 65.1257 27.7132 65.2029 28.1246C65.2972 28.6732 65.5629 28.7761 65.5972 29.1275L62.22 29.6846C62.0914 28.8875 62.3657 27.9189 62.3314 27.4475C62.28 26.8304 61.9114 26.2989 61.9372 25.8018C61.9886 25.2275 61.9629 24.7132 61.8857 24.2332C61.7743 23.5046 61.5086 23.7704 61.2343 23.2046C61.0972 22.9389 61.2343 22.5189 60.7714 21.8761C60.5914 21.6361 60.5572 21.0018 60.42 20.7189C60.2143 20.2989 60.0171 19.8704 59.8629 19.3561C59.7857 19.0818 59.7257 18.6789 59.6743 18.2246C59.6314 17.6589 58.92 16.4761 58.8429 15.9789C58.7914 15.4475 58.8343 14.5989 58.4743 14.3161C58.2257 13.8189 57.3772 13.1761 56.8372 12.3446C56.58 11.9246 56.34 11.5304 56.1429 11.1275C55.9457 10.7332 55.6372 10.4504 55.3029 10.2789L54.9686 10.1332L54.6514 10.0646C54.5143 10.0218 54.3943 10.0646 54.2743 10.0218C54.1629 10.0132 54.06 10.0304 53.9572 9.9875V6.5675C54.6257 6.61036 54.9514 6.68751 55.1657 6.80751C55.38 6.91036 55.5343 6.9875 55.8514 7.13322C56.0914 7.26179 56.34 7.33893 56.6057 7.42465C56.8457 7.5275 57.0943 7.64751 57.3514 7.82751C57.6086 8.03322 57.7714 8.29893 57.9257 8.55608C58.0629 8.81322 58.1486 9.07893 58.26 9.28465C58.5514 9.8675 59.1514 10.1246 59.4172 10.5961C59.9743 11.5475 59.7429 11.6932 60.3343 12.3789C60.9343 13.0989 61.2943 13.3989 61.5857 14.0589C61.8343 14.6418 61.8514 15.9104 62.0229 16.4246C62.28 17.1018 62.5629 17.5561 62.6657 17.8561C62.8886 18.5332 62.7686 20.0418 62.9314 20.5046C63.2829 21.7989 64.1486 21.8846 64.5257 23.6161C64.6457 24.1646 64.7143 24.7132 64.6972 25.2618H64.6886L64.6972 25.2446Z" fill="#05374E"/>
		<path d="M67.2343 49.8618C67.1143 50.4275 67.2685 50.9418 67.3457 51.5075C67.3971 51.9103 67.2343 52.356 67.2343 52.7675C67.2343 53.3246 67.4914 53.4703 67.4657 53.8132H64.0457C64.0457 52.9989 64.4828 52.0818 64.5257 51.6189C64.5771 51.0018 64.3028 50.4018 64.4228 49.9132C64.5771 49.356 64.6457 48.8418 64.6628 48.3532C64.6886 47.6075 64.3714 47.8218 64.2257 47.2132C64.1486 46.9218 64.3543 46.536 64.0371 45.8075C63.9085 45.5246 64.02 44.8903 63.9428 44.5818C63.8314 44.1189 63.7371 43.6475 63.7114 43.0989C63.6943 42.8075 63.7457 42.3875 63.8057 41.9246C63.8914 41.3589 63.5314 39.9875 63.6085 39.4646C63.6943 38.916 64.0371 38.1018 63.7714 37.7075C63.7114 37.1332 63.1286 36.1903 63.0086 35.076C62.9571 34.536 62.94 33.996 62.9914 33.4732C63.0343 32.9675 62.9657 32.4703 62.8286 31.9818L62.5371 31.0046C62.4085 30.5675 62.28 30.1303 62.2371 29.676L65.6143 29.1189C65.76 29.9846 65.6314 29.9932 65.6657 30.4732C65.7 30.876 65.94 31.2018 66.0086 31.6732C66.0857 32.1789 65.8286 32.7018 65.7686 33.1132C65.6828 33.696 66.0686 34.1675 66.0943 34.6646C66.1543 35.676 65.9228 35.7275 66.1971 36.5418C66.48 37.3903 66.7457 37.7675 66.7971 38.4532C66.8486 39.0532 66.5057 40.236 66.5314 40.776C66.5828 41.4875 66.7628 41.9846 66.7885 42.2932C66.8314 42.9875 66.3771 44.4189 66.4457 44.8989C66.5057 46.2275 67.3457 46.4846 67.38 48.2332C67.3886 48.7903 67.3543 49.3389 67.2428 49.8703H67.2343V49.8618Z" fill="#05374E"/>
		<path d="M84.4372 72.6789C84.1543 73.1417 84.1457 73.6389 84.0514 74.1532C83.9743 74.5217 83.6743 74.856 83.5457 75.2075C83.3743 75.6875 83.5629 75.9017 83.4257 76.1932L80.2286 74.976C80.4771 74.2989 81.1629 73.6817 81.36 73.3046C81.5914 72.7989 81.5057 72.2075 81.7543 71.8303C82.0629 71.4103 82.2772 70.9903 82.4229 70.5789C82.6457 69.9446 82.2857 70.0389 82.3114 69.4732C82.3114 69.2075 82.6114 68.9332 82.4914 68.2132C82.44 67.9389 82.7057 67.4246 82.7057 67.1417C82.7057 66.7217 82.7314 66.2846 82.8257 65.8046C82.8771 65.5475 83.0229 65.2046 83.1943 64.8189C83.4 64.3475 83.3486 63.0789 83.5371 62.6417C83.7343 62.1874 84.2143 61.5446 84.0514 61.1417C84.1286 60.6274 83.7086 59.6846 83.8114 58.6903C83.8714 58.2103 83.9314 57.7303 84.0771 57.276C84.2057 56.8303 84.2314 56.3846 84.1886 55.9303L84.06 55.0217C84 54.6103 83.9571 54.2074 84 53.796H87.42C87.4029 54.6017 87.2743 54.5846 87.2314 55.0303C87.1971 55.3989 87.3857 55.7332 87.3772 56.1703C87.3514 56.6417 87.0086 57.0703 86.88 57.4303C86.6829 57.936 87 58.4332 86.9229 58.8789C86.7772 59.8046 86.5371 59.8046 86.6571 60.5846C86.7771 61.4074 86.9229 61.7932 86.8543 62.4189C86.7943 62.976 86.1771 63.9532 86.1 64.4332C85.9971 65.076 86.0657 65.5646 86.0057 65.8475C85.8771 66.4732 85.1143 67.6303 85.0371 68.0675C84.7543 69.2503 85.5 69.7132 85.0457 71.2646C84.9086 71.7617 84.7114 72.2332 84.4457 72.6617L84.4372 72.6789Z" fill="#05374E"/>
		<path d="M73.0457 92.3846C72.5914 92.6761 72.3086 93.0875 71.9743 93.5075C71.7343 93.8075 71.3057 93.9618 71.0057 94.2018C70.6028 94.5361 70.6543 94.8189 70.38 95.0075L68.2543 92.3332C68.7943 91.8875 69.7028 91.7246 70.0371 91.4675C70.4743 91.1332 70.6971 90.6103 71.0828 90.3875C71.5371 90.1561 71.9228 89.8903 72.2486 89.6075C72.7286 89.1446 72.36 89.0675 72.6257 88.5703C72.7457 88.3303 73.1486 88.2361 73.3371 87.5418C73.4057 87.2761 73.86 86.9332 73.9886 86.6846C74.1686 86.3075 74.3657 85.9218 74.6486 85.5446C74.8028 85.3389 75.0857 85.0903 75.3771 84.8075C75.7543 84.4732 76.2257 83.3075 76.56 82.9732C76.92 82.6389 77.64 82.2532 77.6228 81.8075C77.8628 81.3532 77.88 80.3589 78.3257 79.4675C78.5486 79.0389 78.8143 78.6446 79.1057 78.2675C79.3886 77.9075 79.56 77.4961 79.6886 77.0675C79.7743 76.7761 79.8257 76.4761 79.8943 76.1761C79.98 75.7732 80.0828 75.3789 80.2628 75.0189L83.46 76.2361C83.16 76.9903 83.0486 76.9303 82.8428 77.3332C82.68 77.6675 82.74 78.0532 82.56 78.4475C82.3628 78.8846 81.8914 79.1589 81.6428 79.4503C81.2914 79.8618 81.36 80.4189 81.1286 80.8218C80.6571 81.6361 80.4428 81.5504 80.2371 82.3132C80.0143 83.1104 80.04 83.5561 79.7057 84.0961C79.4143 84.5761 78.4886 85.2618 78.1971 85.6646C77.8286 86.2132 77.6914 86.6932 77.5286 86.9246C77.1428 87.4475 75.96 88.1846 75.6943 88.5446C74.9314 89.5046 75.3771 90.2332 74.2628 91.4503C73.8943 91.8189 73.4914 92.1532 73.0628 92.4275L73.0457 92.3846Z" fill="#05374E"/>
		<path d="M51.8315 100.759C51.3086 100.562 50.7943 100.673 50.2457 100.647C49.86 100.63 49.4657 100.382 49.08 100.313C48.5572 100.219 48.3686 100.399 48.0515 100.296L48.8829 96.9789C49.5429 97.176 50.2286 97.716 50.6229 97.8446C51.1457 97.9989 51.6943 97.776 52.0886 97.956C52.5515 98.1874 52.9972 98.2474 53.4172 98.3074C54.0686 98.3846 53.8886 98.0589 54.42 97.9046C54.6686 97.8189 55.0115 98.0503 55.62 97.7246C55.8515 97.5874 56.4 97.6646 56.6572 97.5789C57.0429 97.4674 57.4286 97.3046 57.8829 97.2274C58.1315 97.1846 58.4914 97.2017 58.8857 97.1846C59.1343 97.1846 59.5286 97.056 59.9229 96.9189C60.3086 96.756 60.6857 96.6017 60.9172 96.5931C61.3972 96.5931 62.1686 96.696 62.4343 96.3617C62.9057 96.1903 63.48 95.3589 64.3372 94.9303C64.7486 94.7074 65.1772 94.5274 65.6229 94.3989C66.0429 94.2532 66.4115 94.0131 66.7372 93.7217C66.96 93.5246 67.1572 93.3017 67.3629 93.0874C67.6372 92.796 67.9372 92.5389 68.2543 92.3074L70.38 94.9817C69.7286 95.5046 69.6514 95.3674 69.2657 95.616C68.94 95.8131 68.7943 96.1817 68.4086 96.4217C67.9972 96.6874 67.44 96.6703 67.0715 96.7817C66.5315 96.9103 66.2657 97.4331 65.8457 97.6303C64.9715 98.0331 64.8343 97.8017 64.2086 98.3246C63.54 98.8474 63.2486 99.1731 62.64 99.4303C62.0915 99.6274 60.9086 99.5503 60.42 99.6789C59.7686 99.8417 59.3314 100.116 59.04 100.176C58.38 100.305 56.9915 100.005 56.5457 100.065C55.92 100.133 55.56 100.382 55.1315 100.587C54.7029 100.785 54.2143 101.059 53.3743 100.999C52.8343 100.965 52.3115 100.922 51.8143 100.733H51.8229L51.8315 100.759Z" fill="#05374E"/>
		<path d="M32.1086 89.2817C31.8857 88.7846 31.4572 88.5103 31.0972 88.116C30.8314 87.8417 30.7286 87.4046 30.5057 87.096C30.1972 86.676 29.9314 86.6932 29.7686 86.4189L32.6057 84.5074C32.9829 85.1074 33.12 85.9989 33.3172 86.376C33.5829 86.8646 34.1314 87.1046 34.2943 87.5246C34.4743 88.0132 34.6972 88.416 34.9629 88.7589C35.3657 89.2903 35.4857 88.9389 35.94 89.256C36.1629 89.4017 36.24 89.7874 36.9 90.0532C37.1486 90.156 37.44 90.6446 37.6886 90.7732C38.0486 90.9789 38.3914 91.2274 38.7514 91.536C38.9486 91.6989 39.1714 91.9817 39.42 92.3074C39.7029 92.736 40.8514 93.2246 41.1343 93.6017C41.4429 93.9617 41.8029 94.6817 42.2229 94.6989C42.6686 94.9389 43.6372 94.9903 44.5029 95.4017C44.9143 95.616 45.3086 95.8646 45.6772 96.1303C46.0372 96.3874 46.4314 96.576 46.8686 96.636L47.7343 96.7732C48.12 96.8417 48.5143 96.8589 48.8829 96.996L48.0514 100.313C47.2372 100.099 47.28 99.996 46.8514 99.816C46.4914 99.6703 46.1143 99.7474 45.6772 99.6017C45.2057 99.4474 44.9057 98.9503 44.5972 98.7189C44.16 98.376 43.5943 98.4617 43.1829 98.2217C42.3429 97.7503 42.4457 97.5189 41.6657 97.296C40.8429 97.0732 40.4143 97.0303 39.8657 96.6789C39.3686 96.3789 38.76 95.3589 38.3572 95.0589C37.8172 94.6646 37.38 94.4503 37.1486 94.2703C36.6257 93.8674 36.0429 92.5646 35.6829 92.2989C34.8257 91.416 34.0114 91.8189 32.9486 90.5674C32.5972 90.1732 32.3143 89.7446 32.1 89.2817H32.1086Z" fill="#05374E"/>
		<path d="M22.4314 68.7103C22.44 68.1703 22.1829 67.7417 22.02 67.2446C21.9 66.8932 21.9857 66.456 21.9086 66.0874C21.8057 65.5817 21.54 65.496 21.5143 65.1789L24.8829 64.596C25.0029 65.3074 24.7371 66.1903 24.7629 66.6103C24.8057 67.1674 25.1914 67.6303 25.1657 68.0846C25.1229 68.6074 25.1314 69.0789 25.2171 69.5074C25.3457 70.1674 25.6114 69.9017 25.8771 70.3989C26.0143 70.6303 25.8771 71.0246 26.3486 71.5732C26.5286 71.7874 26.5714 72.3532 26.7086 72.6017C26.9057 72.9703 27.1114 73.356 27.2743 73.8103C27.36 74.0589 27.4114 74.4274 27.4629 74.8389C27.5143 75.3446 28.2257 76.3989 28.2771 76.8789C28.3457 77.3674 28.26 78.1646 28.6114 78.4217C28.8171 78.8932 29.6657 79.476 30.0943 80.3674C30.3171 80.796 30.4971 81.2332 30.6171 81.696C30.7286 82.1417 30.9771 82.5103 31.2514 82.8617L31.8343 83.5474C32.1171 83.8474 32.3829 84.1474 32.5714 84.5074L29.7343 86.4189C29.28 85.7332 29.4 85.6817 29.1771 85.2874C29.0057 84.9532 28.6714 84.7732 28.44 84.396C28.1914 83.9846 28.2257 83.4446 28.1571 83.0674C28.0457 82.5274 27.5314 82.2703 27.3429 81.8503C26.9657 80.9846 27.18 80.856 26.6657 80.2474C26.1257 79.6132 25.8 79.3474 25.5343 78.7732C25.2943 78.2674 25.32 77.1017 25.14 76.6474C24.8914 76.0389 24.6 75.6532 24.5057 75.3789C24.2829 74.7789 24.3686 73.3817 24.2143 72.9703C23.8371 71.8046 22.9886 71.7789 22.5857 70.2103C22.4486 69.7132 22.4057 69.2074 22.4057 68.7017H22.4143L22.4314 68.7103Z" fill="#05374E"/>
		<path d="M21.1714 46.0903C21.36 45.5932 21.2829 45.096 21.2829 44.5732C21.2829 44.196 21.5229 43.8189 21.5829 43.4417C21.66 42.936 21.4371 42.7646 21.5143 42.4474L24.8829 43.0303C24.7714 43.7417 24.1971 44.4789 24.0857 44.8903C23.9571 45.4303 24.1457 45.996 23.9657 46.416C23.7343 46.8875 23.6143 47.3417 23.5371 47.7703C23.4257 48.4303 23.7686 48.276 23.8457 48.8417C23.8886 49.1074 23.64 49.4332 23.8886 50.1103C23.9829 50.376 23.82 50.9246 23.8629 51.2075C23.9229 51.6275 23.9914 52.056 23.9743 52.5446C23.9743 52.8103 23.8886 53.1703 23.7857 53.5817C23.6486 54.0789 23.94 55.3217 23.82 55.7932C23.6829 56.2732 23.34 56.9932 23.5629 57.3617C23.58 57.876 24.1286 58.7417 24.2143 59.736C24.2486 60.2246 24.24 60.7046 24.18 61.176C24.1286 61.6303 24.1886 62.076 24.3 62.5132C24.3771 62.8046 24.4886 63.096 24.5829 63.3875C24.7114 63.7817 24.8314 64.1675 24.8571 64.5789L21.4886 65.1617C21.36 64.3646 21.4886 64.356 21.4543 63.9189C21.42 63.5503 21.18 63.2589 21.1286 62.8217C21.0686 62.3503 21.3257 61.8703 21.3943 61.4932C21.4886 60.9617 21.12 60.5246 21.12 60.0703C21.1029 59.136 21.3257 59.0932 21.0857 58.3475C20.8457 57.5589 20.6143 57.1989 20.58 56.5732C20.5457 56.016 21 54.9532 20.9829 54.456C20.9657 53.8046 20.8371 53.3332 20.8371 53.0503C20.8457 52.4074 21.4029 51.1475 21.4029 50.7017C21.4714 49.4846 20.6571 49.1675 20.82 47.5646C20.8714 47.0503 20.9657 46.5532 21.1543 46.0903H21.1714Z" fill="#05374E"/>
		<path d="M27.9857 24.4389C28.3371 24.036 28.4914 23.5646 28.6971 23.076C28.8514 22.7332 29.1943 22.4589 29.4171 22.1417C29.7 21.7132 29.5714 21.4646 29.7686 21.2075L32.6057 23.1189C32.2029 23.7103 31.3886 24.1475 31.14 24.4817C30.8057 24.9275 30.7371 25.5017 30.4286 25.8189C30.0514 26.1703 29.7514 26.5303 29.52 26.8989C29.1686 27.4646 29.5457 27.456 29.4171 28.0046C29.3657 28.2703 29.0057 28.4675 28.98 29.1875C28.98 29.4703 28.6286 29.916 28.5686 30.1989C28.4743 30.6103 28.3629 31.0217 28.1829 31.476C28.0886 31.716 27.8743 32.0246 27.6429 32.3675C27.3343 32.7789 27.1714 34.0475 26.8971 34.4332C26.6143 34.836 26.0314 35.3846 26.1171 35.8132C25.9457 36.3017 26.1943 37.3046 25.9114 38.2646C25.7657 38.7275 25.6286 39.1817 25.3971 39.6103C25.1914 40.0217 25.08 40.4589 25.0629 40.9132L25.0286 41.8303C25.0286 42.2417 24.9771 42.6446 24.8829 43.0475L21.5143 42.4646C21.6514 41.6675 21.7886 41.7103 21.9 41.2817C21.9943 40.9217 21.8743 40.5617 21.96 40.1332C22.0543 39.6703 22.4743 39.3103 22.6629 38.976C22.9457 38.5132 22.7229 37.9646 22.8857 37.536C23.1943 36.6532 23.4257 36.696 23.4514 35.8989C23.4943 35.076 23.4086 34.656 23.5971 34.0475C23.7514 33.5075 24.5571 32.6675 24.72 32.196C24.9343 31.5789 24.9857 31.0903 25.0886 30.8246C25.2086 30.5246 25.5086 30.1303 25.8 29.7532C26.1086 29.3846 26.4 29.0417 26.4686 28.8275C26.9571 27.7046 26.3657 27.1217 27.1029 25.6732C27.36 25.2189 27.6514 24.7989 27.9857 24.4303V24.4389Z" fill="#05374E"/>
		<path d="M44.5114 8.70175C45.06 8.62461 45.4543 8.29032 45.96 8.06747C46.3114 7.89604 46.7657 7.92175 47.1429 7.80175C47.6571 7.66461 47.7257 7.39032 48.06 7.33032L48.8914 10.6475C48.2229 10.7932 47.3486 10.6218 46.9457 10.7075C46.4057 10.8018 46.0286 11.2646 45.5914 11.2989C45.0771 11.316 44.64 11.4446 44.2457 11.5989C43.6371 11.8475 43.9371 12.036 43.5257 12.4132C43.3371 12.6018 42.9429 12.5675 42.5229 13.1246C42.3686 13.3389 41.8457 13.5275 41.6486 13.7246C41.3571 14.0075 41.0486 14.2903 40.6714 14.5818C40.4657 14.736 40.1314 14.8818 39.7543 15.0446C39.3 15.2589 38.52 16.2103 38.1172 16.4418C37.6886 16.656 36.8914 16.8275 36.7886 17.256C36.4286 17.6246 36.1629 18.576 35.5114 19.3132C35.1857 19.656 34.8429 19.9903 34.4657 20.2732C34.1057 20.5475 33.8143 20.8903 33.6172 21.2846L33.2057 22.0903C33.0172 22.4503 32.8371 22.8103 32.5886 23.1275L29.7514 21.216C30.1971 20.5303 30.3086 20.6246 30.6 20.2818C30.84 19.9989 30.8829 19.6132 31.1486 19.2532C31.4314 18.8675 31.98 18.7218 32.2971 18.4989C32.7429 18.1903 32.8029 17.6075 33.1457 17.2903C33.8229 16.6303 33.9943 16.7589 34.4057 16.0732C34.8429 15.3618 34.9372 14.916 35.4257 14.4875C35.8457 14.0932 36.9429 13.7075 37.3372 13.4075C37.8429 12.9789 38.1257 12.5675 38.3743 12.396C38.64 12.1989 39.1114 12.0189 39.5657 11.8475C40.0286 11.7018 40.4657 11.5646 40.6457 11.4189C41.16 11.076 41.3914 10.7246 41.6657 10.3303C41.94 9.94461 42.2657 9.51604 43.0286 9.17318C43.5086 8.94175 44.0057 8.76175 44.5286 8.69318L44.5114 8.70175Z" fill="#05374E"/>
		<path d="M67.2 10.6217C67.5772 11.0246 68.0657 11.1703 68.5543 11.4103C68.8972 11.5817 69.1372 11.9846 69.4457 12.2075C69.8657 12.516 70.1315 12.396 70.3715 12.636L68.2457 15.3103C67.6972 14.8732 67.3115 14.0589 67.0115 13.7675C66.5915 13.4246 66.0086 13.356 65.7257 13.0132C65.3915 12.6275 65.04 12.336 64.6886 12.096C64.14 11.7275 64.14 12.1217 63.6086 11.9932C63.3429 11.9503 63.1543 11.5732 62.4515 11.5989C62.1772 11.6075 61.74 11.2817 61.4657 11.2303C61.0629 11.1703 60.6515 11.1103 60.2143 10.9646C59.9829 10.8789 59.6657 10.716 59.3057 10.5275C59.0915 10.416 58.68 10.3217 58.2686 10.2789C57.8572 10.236 57.4543 10.1932 57.24 10.0903C56.82 9.86746 56.1857 9.42175 55.8 9.5846C55.5515 9.55032 55.2 9.66175 54.8057 9.77317C54.4029 9.8846 53.9572 9.96175 53.4772 9.98746C53.0143 10.0046 52.56 9.93603 52.1057 9.8846C51.6686 9.8246 51.24 9.86746 50.82 9.98746L49.9972 10.2875C49.6286 10.416 49.26 10.5532 48.8829 10.6217L48.0515 7.3046C48.8657 7.09032 48.8829 7.22746 49.3457 7.1846C49.7315 7.14175 50.0315 6.89317 50.4857 6.81603C50.9829 6.7646 51.48 7.02175 51.8657 7.09889C52.4057 7.1846 52.8857 6.8846 53.3572 6.8846C54.3257 6.90175 54.3429 7.19317 55.1486 7.01317C55.9886 6.83317 56.4 6.71317 57.06 6.7646C57.6515 6.81603 58.6457 7.49317 59.1429 7.57889C59.7943 7.74175 60.3 7.7246 60.5915 7.80175C61.2343 7.99889 62.3143 8.90746 62.7429 9.06175C63.8914 9.5246 64.4829 8.89889 65.9657 9.67889C66.42 9.95317 66.8572 10.2446 67.2257 10.6046H67.2172L67.2 10.6217Z" fill="#05374E"/>
		<path d="M81.84 28.1246C81.9343 28.656 82.26 29.0331 82.5343 29.4874C82.7314 29.8131 82.7143 30.2588 82.86 30.6103C83.0486 31.0903 83.3314 31.1246 83.4257 31.4331L80.2286 32.6503C79.9628 31.9817 80.0743 31.0646 79.9628 30.6531C79.7914 30.1217 79.3371 29.7446 79.2771 29.2903C79.2343 28.7674 79.0886 28.3217 78.9343 27.9188C78.6857 27.3017 78.48 27.6103 78.1114 27.1817C77.9228 26.9846 77.9571 26.5817 77.3914 26.1446C77.1771 25.9731 77.0228 25.4246 76.8257 25.2188C76.5428 24.9103 76.2686 24.576 76.02 24.1646C75.8828 23.9503 75.7457 23.6074 75.6 23.2131C75.4457 22.7246 74.5114 21.876 74.3486 21.4303C74.1943 20.9588 74.0571 20.1788 73.6628 20.0246C73.3543 19.6131 72.3943 19.2788 71.7514 18.5331C71.4257 18.1817 71.1343 17.8217 70.9028 17.4103C70.68 17.0074 70.3371 16.7331 69.9771 16.476C69.7286 16.3131 69.4886 16.1417 69.2228 15.996C68.8714 15.7988 68.5371 15.5846 68.2543 15.3103L70.38 12.636C71.0228 13.1674 70.9286 13.2531 71.2543 13.5703C71.5286 13.8274 71.8886 13.9217 72.2228 14.2217C72.5743 14.5474 72.7028 15.0788 72.8743 15.4303C73.1228 15.9188 73.6971 16.0388 73.9971 16.3903C74.58 17.136 74.4171 17.316 75.0771 17.7703C75.7457 18.2674 76.14 18.4388 76.5514 18.936C76.9028 19.3817 77.16 20.5217 77.4514 20.9246C77.8114 21.4731 78.1971 21.7817 78.36 22.0217C78.7371 22.5531 78.9171 23.9588 79.1914 24.3103C79.7743 25.3903 80.6657 25.2103 81.36 26.6846C81.5828 27.156 81.7714 27.6274 81.8571 28.1246H81.8486H81.84Z" fill="#05374E"/>
		<path d="M87.1114 50.1789C87.0086 50.7017 87.18 51.1732 87.2572 51.696C87.3172 52.0646 87.1543 52.476 87.1543 52.8532C87.1629 53.3674 87.4114 53.496 87.3943 53.8132H83.9743C83.9572 53.0932 84.3943 52.2617 84.4372 51.8417C84.4886 51.2846 84.1886 50.7617 84.3 50.316C84.4286 49.8103 84.5057 49.3474 84.4972 48.9103C84.4972 48.2417 84.18 48.4474 84 47.9074C83.9057 47.6503 84.1114 47.2903 83.7514 46.6646C83.6057 46.4246 83.6743 45.8503 83.58 45.5846C83.4429 45.1817 83.3314 44.7617 83.2457 44.2817C83.2029 44.0246 83.22 43.6474 83.2457 43.2274C83.3143 42.7132 82.7914 41.5389 82.8343 41.0589C82.8857 40.5617 83.1086 39.7903 82.8086 39.4732C82.6971 38.9674 82.0114 38.2217 81.7457 37.2532C81.6343 36.7817 81.5486 36.3103 81.5143 35.8389C81.4886 35.376 81.3429 34.956 81.1543 34.5446L80.7171 33.7474C80.5114 33.3874 80.3314 33.0274 80.2286 32.6332L83.4257 31.416C83.7086 32.1789 83.5714 32.2046 83.6914 32.6417C83.7857 33.0017 84.0857 33.2417 84.2229 33.6617C84.3686 34.116 84.1971 34.6389 84.2057 35.016C84.2057 35.556 84.66 35.9246 84.7371 36.3703C84.9257 37.2874 84.7114 37.3646 85.08 38.0674C85.4572 38.8046 85.7486 39.1132 85.8943 39.7303C86.0143 40.2789 85.7657 41.4017 85.8686 41.8903C85.9971 42.5332 86.1943 42.9703 86.2457 43.2532C86.3572 43.8874 85.9972 45.2332 86.0914 45.6703C86.2543 46.8789 87.0686 47.0589 87.1972 48.6703C87.24 49.1846 87.1971 49.6903 87.1114 50.1789Z" fill="#05374E"/>
		<path d="M27.5657 52.296C28.0886 52.4246 28.56 52.296 29.0829 52.2189C29.4514 52.1674 29.8629 52.3389 30.24 52.3389C30.7543 52.3389 30.8829 52.0903 31.2086 52.116V55.536C30.4457 55.536 29.5886 55.0903 29.1514 55.0389C28.5686 54.9789 28.0114 55.236 27.5572 55.1075C27.0343 54.9446 26.5629 54.8589 26.1086 54.8246C25.4143 54.7732 25.6029 55.0989 25.0286 55.2274C24.7543 55.296 24.4029 55.0732 23.7 55.356C23.4343 55.4674 22.8429 55.3303 22.5514 55.3903C22.1143 55.476 21.66 55.536 21.1543 55.536C20.88 55.536 20.4943 55.4589 20.0657 55.3646C19.5429 55.236 18.24 55.4932 17.7514 55.3646C17.2457 55.2274 16.5172 54.8246 16.1229 55.0389C15.5829 55.0389 14.6486 55.5274 13.5857 55.5103C13.0714 55.5103 12.5743 55.4503 12.0857 55.3303C11.6143 55.2189 11.1429 55.2274 10.68 55.2874L9.72859 55.4332C9.30001 55.5017 8.87144 55.5532 8.44287 55.5189V52.0989C9.24859 52.0989 9.23144 52.2275 9.67716 52.2617C10.0457 52.2875 10.3714 52.0989 10.8086 52.0989C11.28 52.0989 11.7257 52.416 12.0943 52.5274C12.6172 52.6903 13.0886 52.3646 13.5429 52.3989C14.4772 52.4589 14.5029 52.6989 15.2743 52.5103C16.08 52.3132 16.4486 52.0989 17.0743 52.0989C17.6314 52.0989 18.6857 52.5532 19.1829 52.5532C19.8343 52.5532 20.3057 52.4074 20.5886 52.4074C21.2229 52.4074 22.5172 52.9475 22.9714 52.9046C24.2057 52.9046 24.4714 52.0903 26.0743 52.1075C26.5886 52.116 27.0857 52.1674 27.5743 52.2874L27.5657 52.296Z" fill="#05374E"/>
		<path d="M50.3314 52.296C50.8543 52.4246 51.3257 52.296 51.8486 52.2189C52.2172 52.1674 52.6286 52.3389 53.0057 52.3389C53.52 52.3389 53.6486 52.0903 53.9743 52.116V55.536C53.2114 55.536 52.3543 55.0903 51.9172 55.0389C51.3343 54.9789 50.7772 55.236 50.3229 55.1075C49.8 54.9446 49.3286 54.8589 48.8743 54.8246C48.18 54.7732 48.3686 55.0989 47.7943 55.2274C47.52 55.296 47.1686 55.0732 46.4657 55.356C46.2 55.4674 45.6086 55.3303 45.3172 55.3903C44.88 55.476 44.4257 55.536 43.92 55.536C43.6457 55.536 43.26 55.4589 42.8314 55.3646C42.3086 55.236 41.0057 55.4932 40.5172 55.3646C40.0114 55.2274 39.2829 54.8246 38.8886 55.0389C38.3486 55.0389 37.4143 55.5274 36.3514 55.5103C35.8372 55.5103 35.34 55.4503 34.8514 55.3303C34.38 55.2189 33.9086 55.2274 33.4457 55.2874L32.4943 55.4332C32.0657 55.5017 31.6372 55.5532 31.2086 55.5189V52.0989C32.0143 52.0989 31.9972 52.2275 32.4429 52.2617C32.8114 52.2875 33.1372 52.0989 33.5743 52.0989C34.0457 52.0989 34.4914 52.416 34.86 52.5274C35.3829 52.6903 35.8543 52.3646 36.3086 52.3989C37.2429 52.4589 37.2686 52.6989 38.04 52.5103C38.8457 52.3132 39.2143 52.0989 39.84 52.0989C40.3972 52.0989 41.4514 52.5532 41.9486 52.5532C42.6 52.5532 43.0714 52.4074 43.3543 52.4074C43.9886 52.4074 45.2829 52.9475 45.7372 52.9046C46.9714 52.9046 47.2372 52.0903 48.84 52.1075C49.3543 52.116 49.8514 52.1674 50.34 52.2874L50.3314 52.296Z" fill="#05374E"/>
		<path d="M73.0972 52.296C73.62 52.4246 74.0914 52.296 74.6143 52.2189C74.9829 52.1674 75.3943 52.3389 75.7714 52.3389C76.2857 52.3389 76.4143 52.0903 76.74 52.116V55.536C75.9772 55.536 75.12 55.0903 74.6829 55.0389C74.1 54.9789 73.5429 55.236 73.0886 55.1075C72.5657 54.9446 72.0943 54.8589 71.64 54.8246C70.9457 54.7732 71.1343 55.0989 70.56 55.2274C70.2857 55.296 69.9343 55.0732 69.2314 55.356C68.9657 55.4674 68.3743 55.3303 68.0829 55.3903C67.6457 55.476 67.1914 55.536 66.6857 55.536C66.4114 55.536 66.0257 55.4589 65.5972 55.3646C65.0743 55.236 63.7714 55.4932 63.2829 55.3646C62.7772 55.2274 62.0486 54.8246 61.6543 55.0389C61.1143 55.0389 60.18 55.5274 59.1172 55.5103C58.6029 55.5103 58.1057 55.4503 57.6172 55.3303C57.1457 55.2189 56.6743 55.2274 56.2114 55.2874L55.26 55.4332C54.8314 55.5017 54.4029 55.5532 53.9743 55.5189V52.0989C54.78 52.0989 54.7629 52.2275 55.2086 52.2617C55.5772 52.2875 55.9029 52.0989 56.34 52.0989C56.8114 52.0989 57.2572 52.416 57.6257 52.5274C58.1486 52.6903 58.62 52.3646 59.0743 52.3989C60.0086 52.4589 60.0343 52.6989 60.8057 52.5103C61.6114 52.3132 61.98 52.0989 62.6057 52.0989C63.1629 52.0989 64.2172 52.5532 64.7143 52.5532C65.3657 52.5532 65.8372 52.4074 66.12 52.4074C66.7543 52.4074 68.0486 52.9475 68.5029 52.9046C69.7372 52.9046 70.0029 52.0903 71.6057 52.1075C72.12 52.116 72.6172 52.1674 73.1057 52.2874L73.0972 52.296Z" fill="#05374E"/>
		<path d="M95.8629 52.296C96.3858 52.4246 96.8572 52.296 97.3801 52.2189C97.7486 52.1674 98.1601 52.3389 98.5372 52.3389C99.0515 52.3389 99.18 52.0903 99.5058 52.116V55.536C98.7429 55.536 97.8858 55.0903 97.4486 55.0389C96.8658 54.9789 96.3086 55.236 95.8543 55.1075C95.3315 54.9446 94.8601 54.8589 94.4058 54.8246C93.7115 54.7732 93.9001 55.0989 93.3258 55.2274C93.0515 55.296 92.7001 55.0732 91.9972 55.356C91.7315 55.4674 91.1401 55.3303 90.8486 55.3903C90.4115 55.476 89.9572 55.536 89.4515 55.536C89.1772 55.536 88.7915 55.4589 88.3629 55.3646C87.84 55.236 86.5372 55.4932 86.0486 55.3646C85.5429 55.2274 84.8143 54.8246 84.4201 55.0389C83.8801 55.0389 82.9458 55.5274 81.8829 55.5103C81.3686 55.5103 80.8715 55.4503 80.3829 55.3303C79.9115 55.2189 79.4401 55.2274 78.9772 55.2874L78.0258 55.4332C77.5972 55.5017 77.1686 55.5532 76.7401 55.5189V52.0989C77.5458 52.0989 77.5286 52.2275 77.9743 52.2617C78.3429 52.2875 78.6686 52.0989 79.1058 52.0989C79.5772 52.0989 80.0229 52.416 80.3915 52.5274C80.9143 52.6903 81.3858 52.3646 81.8401 52.3989C82.7743 52.4589 82.8001 52.6989 83.5715 52.5103C84.3772 52.3132 84.7458 52.0989 85.3715 52.0989C85.9286 52.0989 86.9829 52.5532 87.4801 52.5532C88.1315 52.5532 88.6029 52.4074 88.8858 52.4074C89.52 52.4074 90.8143 52.9475 91.2686 52.9046C92.5029 52.9046 92.7686 52.0903 94.3715 52.1075C94.8858 52.116 95.3829 52.1674 95.8715 52.2874L95.8629 52.296Z" fill="#05374E"/>
		<path d="M36.7543 74.8046C37.3629 74.9332 37.92 74.7961 38.5286 74.7275C38.9572 74.6761 39.4372 74.8475 39.8829 74.8475C40.4829 74.8475 40.6372 74.5989 41.0143 74.6246V78.0446C40.1229 78.0446 39.12 77.5989 38.6143 77.5475C37.9372 77.4875 37.2772 77.7446 36.7543 77.6161C36.1457 77.4532 35.5886 77.3675 35.0572 77.3332C34.2429 77.2818 34.4657 77.6075 33.7886 77.7361C33.4629 77.8046 33.0514 77.5818 32.2372 77.8646C31.92 77.9761 31.2343 77.8389 30.8914 77.8989C30.3772 77.9846 29.8543 78.0446 29.2543 78.0446C28.9286 78.0446 28.4829 77.9675 27.9772 77.8732C27.3686 77.7446 25.8343 78.0018 25.2686 77.8732C24.6772 77.7361 23.8286 77.3332 23.3657 77.5475C22.74 77.5475 21.6429 78.0361 20.4 78.0189C19.8 78.0103 19.2172 77.9589 18.6429 77.8389C18.0943 77.7275 17.5457 77.7361 16.9972 77.7961L15.8914 77.9418C15.3943 78.0103 14.8886 78.0618 14.3914 78.0275V74.6075C15.3343 74.6075 15.3172 74.7361 15.8314 74.7703C16.26 74.7961 16.6457 74.6075 17.16 74.6075C17.7086 74.6075 18.2314 74.9246 18.66 75.0361C19.2686 75.1989 19.8257 74.8732 20.3572 74.9075C21.4457 74.9675 21.4714 75.2075 22.38 75.0189C23.3229 74.8218 23.7514 74.6075 24.4886 74.6075C25.14 74.6075 26.3743 75.0618 26.9486 75.0618C27.7114 75.0618 28.26 74.9161 28.5943 74.9161C29.34 74.9161 30.8486 75.4561 31.38 75.4132C32.82 75.4132 33.1372 74.5989 35.0143 74.6161C35.6143 74.6246 36.2057 74.6761 36.7714 74.7961H36.7629L36.7543 74.8046Z" fill="#05374E"/>
		<path d="M63.3857 74.8046C63.9943 74.9332 64.5514 74.7961 65.16 74.7275C65.5886 74.6761 66.0686 74.8475 66.5143 74.8475C67.1143 74.8475 67.2686 74.5989 67.6457 74.6246V78.0446C66.7543 78.0446 65.7514 77.5989 65.2457 77.5475C64.5686 77.4875 63.9086 77.7446 63.3857 77.6161C62.7771 77.4532 62.22 77.3675 61.6886 77.3332C60.8743 77.2818 61.0971 77.6075 60.42 77.7361C60.0943 77.8046 59.6829 77.5818 58.8686 77.8646C58.5514 77.9761 57.8657 77.8389 57.5229 77.8989C57.0086 77.9846 56.4857 78.0446 55.8857 78.0446C55.56 78.0446 55.1143 77.9675 54.6086 77.8732C54 77.7446 52.4657 78.0018 51.9 77.8732C51.3086 77.7361 50.46 77.3332 49.9971 77.5475C49.3714 77.5475 48.2743 78.0361 47.0314 78.0189C46.4314 78.0103 45.8486 77.9589 45.2743 77.8389C44.7257 77.7275 44.1771 77.7361 43.6286 77.7961L42.5229 77.9418C42.0257 78.0103 41.52 78.0618 41.0229 78.0275V74.6075C41.9657 74.6075 41.9486 74.7361 42.4629 74.7703C42.8914 74.7961 43.2771 74.6075 43.7914 74.6075C44.34 74.6075 44.8629 74.9246 45.2914 75.0361C45.9 75.1989 46.4571 74.8732 46.9886 74.9075C48.0771 74.9675 48.1029 75.2075 49.0114 75.0189C49.9543 74.8218 50.3829 74.6075 51.12 74.6075C51.7714 74.6075 53.0057 75.0618 53.58 75.0618C54.3429 75.0618 54.8914 74.9161 55.2257 74.9161C55.9714 74.9161 57.48 75.4561 58.0114 75.4132C59.4514 75.4132 59.7686 74.5989 61.6457 74.6161C62.2457 74.6246 62.8371 74.6761 63.4029 74.7961H63.3943L63.3857 74.8046Z" fill="#05374E"/>
		<path d="M90.0086 74.8046C90.6171 74.9332 91.1743 74.7961 91.7828 74.7275C92.2114 74.6761 92.6914 74.8475 93.1371 74.8475C93.7371 74.8475 93.8914 74.5989 94.2686 74.6246V78.0446C93.3771 78.0446 92.3743 77.5989 91.8686 77.5475C91.1914 77.4875 90.5314 77.7446 90.0086 77.6161C89.4 77.4532 88.8428 77.3675 88.3114 77.3332C87.4971 77.2818 87.72 77.6075 87.0428 77.7361C86.7171 77.8046 86.3057 77.5818 85.4914 77.8646C85.1743 77.9761 84.4885 77.8389 84.1457 77.8989C83.6314 77.9846 83.1086 78.0446 82.5086 78.0446C82.1828 78.0446 81.7371 77.9675 81.2314 77.8732C80.6228 77.7446 79.0886 78.0018 78.5228 77.8732C77.9314 77.7361 77.0828 77.3332 76.62 77.5475C75.9943 77.5475 74.8971 78.0361 73.6543 78.0189C73.0543 78.0103 72.4714 77.9589 71.8971 77.8389C71.3485 77.7275 70.8 77.7361 70.2514 77.7961L69.1457 77.9418C68.6485 78.0103 68.1428 78.0618 67.6457 78.0275V74.6075C68.5885 74.6075 68.5714 74.7361 69.0857 74.7703C69.5143 74.7961 69.9 74.6075 70.4143 74.6075C70.9628 74.6075 71.4857 74.9246 71.9143 75.0361C72.5228 75.1989 73.08 74.8732 73.6114 74.9075C74.7 74.9675 74.7257 75.2075 75.6343 75.0189C76.5771 74.8218 77.0057 74.6075 77.7428 74.6075C78.3943 74.6075 79.6285 75.0618 80.2028 75.0618C80.9657 75.0618 81.5143 74.9161 81.8485 74.9161C82.5943 74.9161 84.1028 75.4561 84.6343 75.4132C86.0743 75.4132 86.3914 74.5989 88.2686 74.6161C88.8686 74.6246 89.46 74.6761 90.0257 74.7961H90.0171L90.0086 74.8046Z" fill="#05374E"/>
		<path d="M36.7543 29.7875C37.3629 29.916 37.92 29.7789 38.5286 29.7103C38.9572 29.6589 39.4372 29.8303 39.8829 29.8303C40.4829 29.8303 40.6372 29.5818 41.0143 29.6075V33.0275C40.1229 33.0275 39.12 32.5818 38.6143 32.5303C37.9372 32.4703 37.2772 32.7275 36.7543 32.5989C36.1457 32.436 35.5886 32.3503 35.0572 32.316C34.2429 32.2646 34.4657 32.5903 33.7886 32.7189C33.4629 32.7875 33.0514 32.5646 32.2372 32.8475C31.92 32.9589 31.2343 32.8218 30.8914 32.8818C30.3772 32.9675 29.8543 33.0275 29.2543 33.0275C28.9286 33.0275 28.4829 32.9503 27.9772 32.856C27.3686 32.7275 25.8343 32.9846 25.2686 32.856C24.6772 32.7189 23.8286 32.316 23.3657 32.5303C22.74 32.5303 21.6429 33.0189 20.4 33.0018C19.8 32.9932 19.2172 32.9418 18.6429 32.8218C18.0943 32.7103 17.5457 32.7189 16.9972 32.7789L15.8914 32.9246C15.3943 32.9932 14.8886 33.0446 14.3914 33.0103V29.5903C15.3343 29.5903 15.3172 29.7189 15.8314 29.7532C16.26 29.7789 16.6457 29.5903 17.16 29.5903C17.7086 29.5903 18.2314 29.9075 18.66 30.0189C19.2686 30.1818 19.8257 29.856 20.3572 29.8903C21.4457 29.9503 21.4714 30.1903 22.38 30.0018C23.3229 29.8046 23.7514 29.5903 24.4886 29.5903C25.14 29.5903 26.3743 30.0446 26.9486 30.0446C27.7114 30.0446 28.26 29.8989 28.5943 29.8989C29.34 29.8989 30.8486 30.4389 31.38 30.396C32.82 30.396 33.1372 29.5818 35.0143 29.5989C35.6143 29.6075 36.2057 29.6589 36.7714 29.7789H36.7629L36.7543 29.7875Z" fill="#05374E"/>
		<path d="M63.3857 29.7875C63.9943 29.916 64.5514 29.7789 65.16 29.7103C65.5886 29.6589 66.0686 29.8303 66.5143 29.8303C67.1143 29.8303 67.2686 29.5818 67.6457 29.6075V33.0275C66.7543 33.0275 65.7514 32.5818 65.2457 32.5303C64.5686 32.4703 63.9086 32.7275 63.3857 32.5989C62.7771 32.436 62.22 32.3503 61.6886 32.316C60.8743 32.2646 61.0971 32.5903 60.42 32.7189C60.0943 32.7875 59.6829 32.5646 58.8686 32.8475C58.5514 32.9589 57.8657 32.8218 57.5229 32.8818C57.0086 32.9675 56.4857 33.0275 55.8857 33.0275C55.56 33.0275 55.1143 32.9503 54.6086 32.856C54 32.7275 52.4657 32.9846 51.9 32.856C51.3086 32.7189 50.46 32.316 49.9971 32.5303C49.3714 32.5303 48.2743 33.0189 47.0314 33.0018C46.4314 32.9932 45.8486 32.9418 45.2743 32.8218C44.7257 32.7103 44.1771 32.7189 43.6286 32.7789L42.5229 32.9246C42.0257 32.9932 41.52 33.0446 41.0229 33.0103V29.5903C41.9657 29.5903 41.9486 29.7189 42.4629 29.7532C42.8914 29.7789 43.2771 29.5903 43.7914 29.5903C44.34 29.5903 44.8629 29.9075 45.2914 30.0189C45.9 30.1818 46.4571 29.856 46.9886 29.8903C48.0771 29.9503 48.1029 30.1903 49.0114 30.0018C49.9543 29.8046 50.3829 29.5903 51.12 29.5903C51.7714 29.5903 53.0057 30.0446 53.58 30.0446C54.3429 30.0446 54.8914 29.8989 55.2257 29.8989C55.9714 29.8989 57.48 30.4389 58.0114 30.396C59.4514 30.396 59.7686 29.5818 61.6457 29.5989C62.2457 29.6075 62.8371 29.6589 63.4029 29.7789H63.3943L63.3857 29.7875Z" fill="#05374E"/>
		<path d="M90.0086 29.7875C90.6171 29.916 91.1743 29.7789 91.7828 29.7103C92.2114 29.6589 92.6914 29.8303 93.1371 29.8303C93.7371 29.8303 93.8914 29.5818 94.2686 29.6075V33.0275C93.3771 33.0275 92.3743 32.5818 91.8686 32.5303C91.1914 32.4703 90.5314 32.7275 90.0086 32.5989C89.4 32.436 88.8428 32.3503 88.3114 32.316C87.4971 32.2646 87.72 32.5903 87.0428 32.7189C86.7171 32.7875 86.3057 32.5646 85.4914 32.8475C85.1743 32.9589 84.4885 32.8218 84.1457 32.8818C83.6314 32.9675 83.1086 33.0275 82.5086 33.0275C82.1828 33.0275 81.7371 32.9503 81.2314 32.856C80.6228 32.7275 79.0886 32.9846 78.5228 32.856C77.9314 32.7189 77.0828 32.316 76.62 32.5303C75.9943 32.5303 74.8971 33.0189 73.6543 33.0018C73.0543 32.9932 72.4714 32.9418 71.8971 32.8218C71.3485 32.7103 70.8 32.7189 70.2514 32.7789L69.1457 32.9246C68.6485 32.9932 68.1428 33.0446 67.6457 33.0103V29.5903C68.5885 29.5903 68.5714 29.7189 69.0857 29.7532C69.5143 29.7789 69.9 29.5903 70.4143 29.5903C70.9628 29.5903 71.4857 29.9075 71.9143 30.0189C72.5228 30.1818 73.08 29.856 73.6114 29.8903C74.7 29.9503 74.7257 30.1903 75.6343 30.0018C76.5771 29.8046 77.0057 29.5903 77.7428 29.5903C78.3943 29.5903 79.6285 30.0446 80.2028 30.0446C80.9657 30.0446 81.5143 29.8989 81.8485 29.8989C82.5943 29.8989 84.1028 30.4389 84.6343 30.396C86.0743 30.396 86.3914 29.5818 88.2686 29.5989C88.8686 29.6075 89.46 29.6589 90.0257 29.7789H90.0171L90.0086 29.7875Z" fill="#05374E"/>
	</g>
	<defs>
		<clipPath id="clip0_1117_22090">
			<rect width="106.226" height="106.071" fill="white" transform="translate(0.857147 0.781738)"/>
		</clipPath>
	</defs>
</svg>