<svg width="131" height="69" viewBox="0 0 131 69" fill="none" xmlns="http://www.w3.org/2000/svg">
<path d="M99.2476 35.3854L99.0762 33.7178L99.0762 30.7531C99.0762 29.6413 98.9905 28.5296 98.8191 27.4178L98.8191 27.2325L98.8191 25.1943L98.9048 23.8973C98.9048 23.5267 98.9905 22.6002 98.9905 22.2296L98.9048 20.9326L98.8191 18.1532L98.6477 16.4856L98.7334 13.7062L98.6477 11.1121C98.562 10.0004 98.4763 9.25919 98.3049 8.33273L98.2192 7.77686L97.8764 5.55335L97.7907 3.70044L97.7907 2.58867C97.7907 1.66221 97.6193 0.735753 97.5336 -0.00541951L38.7443 0.550468L38.7443 2.58868L38.6585 2.77397C38.3158 3.88572 38.0587 5.18277 37.973 6.47981L37.8873 8.33273L37.8873 10.3709L37.8016 15.0032L37.5445 17.0415L37.2874 21.6738L37.2017 22.6002C37.116 23.712 37.2017 24.4531 37.2874 25.3796L37.4588 26.3061L37.2874 28.5296L37.2017 29.8266C37.116 30.3825 37.116 31.1237 37.116 31.6795L37.2017 35.2001L37.2017 37.4236L37.116 41.3147L37.2017 43.5382L37.2874 48.5411L37.2874 50.5793L37.2017 55.2116L37.4588 57.991L37.2874 60.9557C37.2874 61.8822 37.2874 63.1792 37.6302 63.9204C38.1444 65.4027 39.2584 67.2556 39.2584 67.2556L39.944 67.2556L41.9151 67.9968L42.6864 68.1821C43.0292 68.3674 43.2863 68.3674 43.5434 68.3674L45.086 68.3674L46.1143 68.1821L48.0854 67.9968L48.1711 68.1821C48.6853 68.3674 49.1995 68.3674 49.7994 68.1821L50.9135 67.8115L51.5134 67.9968L52.199 67.9968L53.9129 67.6262L54.5128 67.8115C54.8556 67.9968 55.1984 67.9968 55.5412 67.9968L57.0838 67.6262L58.1122 67.4409L60.2546 67.6262L61.1973 67.8115L63.1684 68.3674L64.1111 68.738L66.2535 68.5527L66.682 68.738C67.0248 68.9233 67.539 68.9233 67.8818 68.9233L68.9959 68.738L70.11 68.5527L72.0811 68.738L73.1951 68.9233L74.9948 68.3674L76.1946 68.1821L77.8229 68.5527L78.8513 68.3674L79.8796 68.5527L82.0221 68.3674L84.2503 68.1821L85.4501 68.5527L87.3354 68.5527L87.9353 68.738C88.4495 68.9233 88.7923 69.1085 89.3065 68.9233L90.7634 68.5527L91.5347 67.9968L93.7628 68.1821L94.7912 68.3674L95.9053 68.3674C96.5052 68.3674 96.9337 68.3674 97.4479 67.8115C97.9621 67.2556 98.3906 66.3292 98.6477 65.0321C98.8191 64.291 98.9048 63.5498 98.9048 62.9939L98.9048 58.7322L99.1619 56.5087C99.2476 55.9528 99.2476 55.3969 99.2476 54.8411L99.3333 51.3205L99.2476 49.4676L99.2476 47.4294L99.1619 43.3529L99.2476 41.6853L99.3333 37.7942L99.3333 36.3118L99.2476 35.3854Z" fill="#FFD6C2"/>
<path d="M66.0224 32.1805L66.1085 31.7452C66.1085 31.3971 66.1946 31.0489 66.2807 30.7007L66.8833 29.0469L66.9694 28.1764L67.5721 26.3485L67.8304 25.391L68.6052 23.6502L69.0356 22.6056L69.9827 20.5166L70.4992 19.472L71.5323 17.8182L71.9628 17.2089L74.7178 13.9012C74.89 13.6401 74.976 13.5531 75.1482 13.379L75.6648 12.8567L77.731 10.8547C77.9032 10.6806 78.1615 10.4195 78.4198 10.2454L81.6913 8.24339L82.8966 7.72113L84.7045 6.76364L85.6515 6.24138L87.5456 5.37095L87.7178 5.2839C88.1482 5.10981 88.6648 4.93573 89.0953 4.93573L90.1284 4.84868L91.0754 4.67459L93.1416 4.41346C93.3138 4.41346 93.6582 4.32642 93.8304 4.32642H94.5191L97.3602 4.06529C97.7906 3.97825 98.135 3.97825 98.4794 4.06529L98.9098 4.15233H99.8568L102.181 4.23937H102.526C102.956 4.15233 103.473 4.23937 103.903 4.32642L105.108 4.58755L106.314 4.76164L108.208 5.19686L110.877 6.15434L111.996 6.50252L113.201 6.93774C113.546 7.11182 113.976 7.28591 114.32 7.54704L114.751 7.89522L117.506 9.54905L118.797 10.5065L119.658 11.377L121.036 12.8567L121.724 13.6401L123.446 15.2939L123.877 15.8162L124.652 16.6866C125.082 17.2089 125.34 17.8182 125.512 18.3405L126.718 20.0814L127.062 20.6907L128.095 22.4315L128.354 23.0408C128.44 23.2149 128.526 23.5631 128.612 23.7372L129.042 25.391L129.301 26.0874L129.645 28.0894L130.075 29.0469L130.506 31.0489L130.678 32.1805L130.764 33.8343C130.764 34.1825 130.678 34.4436 130.678 34.7047L130.592 35.227L130.678 35.4011C130.85 36.0974 130.764 36.6197 130.678 37.316V37.5772L130.764 38.4476L130.85 39.4051C130.85 40.1014 130.764 40.7978 130.42 41.3201L130.075 43.3221L129.903 44.2795L129.473 46.3686L129.301 47.152C129.301 47.3261 129.214 47.5002 129.128 47.6743L128.44 49.4151L128.009 50.1985C128.009 50.2856 127.837 50.2856 127.837 50.3726L126.804 51.9394L126.459 52.8098L125.771 54.1155C125.599 54.3766 125.34 54.7248 125.168 54.9859L125.082 55.16L123.618 57.075L123.102 57.7713L120.777 60.1215L119.916 61.1661C119.572 61.6013 119.142 61.9495 118.711 62.2106L117.334 62.9069L116.387 63.4292L114.837 64.2996C114.665 64.3867 114.407 64.4737 114.148 64.5608L113.632 64.7349L112.771 65.3442L111.824 65.7794L110.963 66.2146L109.413 66.911L108.208 67.3462L105.539 68.3037L103.559 68.8259L103.214 68.913C102.87 69 102.44 69 102.095 69H98.135L97.6184 68.913C97.3602 68.913 97.1019 68.8259 96.9297 68.7389L95.9827 68.5648L94.1747 68.3907H93.2277L90.8171 67.9555C90.5588 67.8684 90.2145 67.7814 89.8701 67.6073L88.4926 67.085L87.7178 66.8239L85.9098 66.3016L84.7906 65.9535L83.9297 65.6923C83.4131 65.5183 82.8966 65.3442 82.38 64.9089L82.2078 64.8219L80.6582 64.1255C80.486 64.0385 80.3999 63.9515 80.1416 63.7774L79.4529 63.3422L77.9032 62.2106L77.0423 61.4272C76.9562 61.3401 76.8701 61.2531 76.784 61.1661L75.4926 59.6863C75.0621 59.4252 74.5456 59.164 74.2012 58.6418L73.5125 57.5973L72.8237 56.9009L71.8767 55.16C71.3602 54.8119 70.9297 54.3766 70.5853 53.6803L70.2409 52.9839L70.0688 52.7228C69.7244 52.2876 69.4661 51.9394 69.2939 51.3301L68.9496 50.0244L68.3469 49.154L67.7443 47.239L67.3138 46.3686L66.6251 44.4536C66.4529 44.0184 66.2807 43.4962 66.2807 42.8868V41.4941L66.1946 40.4496V38.5347L66.0224 37.6642V36.3586L65.9363 35.5752L65.8502 34.8788C65.8502 34.5306 65.8502 34.1825 65.8502 33.8343L66.0224 32.1805Z" fill="#FFD6C2"/>
<path d="M0.173966 32.1804L0.26101 31.7452C0.26101 31.397 0.348054 31.0489 0.435098 30.7007L1.04441 29.0468L1.13145 28.1764L1.74076 26.3485L2.00189 25.391L2.78528 23.6501L3.2205 22.6056L4.17798 20.5165L4.70024 19.472L5.74477 17.8182L6.17999 17.2089L8.96539 13.9012C9.13948 13.6401 9.22653 13.553 9.40061 13.3789L9.92288 12.8567L12.0119 10.8547C12.186 10.6806 12.4471 10.4195 12.7083 10.2454L16.016 8.24336L17.2346 7.7211L19.0625 6.76361L20.02 6.24135L21.9349 5.37091L22.109 5.28387C22.5442 5.10978 23.0665 4.9357 23.5017 4.9357L24.5462 4.84865L25.5037 4.67456L27.5928 4.41343C27.7669 4.41343 28.115 4.32639 28.2891 4.32639H28.9855L31.8579 4.06526C32.2932 3.97822 32.6413 3.97822 32.9895 4.06526L33.4247 4.1523H34.3822L36.7324 4.23934H37.0806C37.5158 4.1523 38.038 4.23934 38.4733 4.32639L39.6919 4.58752L40.9105 4.76161L42.8254 5.19683L45.5238 6.15431L46.6554 6.50249L47.874 6.9377C48.2222 7.11179 48.6574 7.28588 49.0056 7.54701L49.4408 7.89518L52.2262 9.54902L53.5318 10.5065L54.4023 11.3769L55.795 12.8567L56.4913 13.6401L58.2322 15.2939L58.6674 15.8162L59.4508 16.6866C59.886 17.2089 60.1472 17.8182 60.3213 18.3404L61.5399 20.0813L61.8881 20.6906L62.9326 22.4315L63.1937 23.0408C63.2808 23.2149 63.3678 23.5631 63.4548 23.7372L63.8901 25.391L64.1512 26.0874L64.4994 28.0894L64.9346 29.0468L65.3698 31.0489L65.5439 32.1804L65.6309 33.8343C65.6309 34.1824 65.5439 34.4436 65.5439 34.7047L65.4569 35.227L65.5439 35.401C65.718 36.0974 65.6309 36.6197 65.5439 37.316V37.5771L65.6309 38.4476L65.718 39.4051C65.718 40.1014 65.6309 40.7978 65.2828 41.32L64.9346 43.322L64.7605 44.2795L64.3253 46.3686L64.1512 47.152C64.1512 47.3261 64.0641 47.5001 63.9771 47.6742L63.2807 49.4151L62.8455 50.1985C62.8455 50.2855 62.6715 50.2855 62.6715 50.3726L61.6269 51.9394L61.2787 52.8098L60.5824 54.1155C60.4083 54.3766 60.1472 54.7248 59.9731 54.9859L59.886 55.16L58.4063 57.075L57.884 57.7713L55.5339 60.1215L54.6634 61.166C54.3152 61.6012 53.88 61.9494 53.4448 62.2106L52.0521 62.9069L51.0946 63.4292L49.5278 64.2996C49.3537 64.3866 49.0926 64.4737 48.8315 64.5607L48.3092 64.7348L47.4388 65.3441L46.4813 65.7793L45.6108 66.2146L44.0441 66.9109L42.8254 67.3461L40.1271 68.3036L38.1251 68.8259L37.7769 68.9129C37.4287 69 36.9935 69 36.6453 69H32.6413L32.1191 68.9129C31.8579 68.9129 31.5968 68.8259 31.4227 68.7388L30.4652 68.5648L28.6373 68.3907H27.6798L25.2426 67.9554C24.9815 67.8684 24.6333 67.7814 24.2851 67.6073L22.8924 67.085L22.109 66.8239L20.2811 66.3016L19.1495 65.9534L18.2791 65.6923C17.7568 65.5182 17.2346 65.3441 16.7123 64.9089L16.5382 64.8219L14.9714 64.1255C14.7973 64.0385 14.7103 63.9514 14.4492 63.7773L13.7528 63.3421L12.186 62.2106L11.3156 61.4272C11.2285 61.3401 11.1415 61.2531 11.0544 61.166L9.74879 59.6863C9.31357 59.4252 8.79131 59.164 8.44313 58.6418L7.74678 57.5972L7.05043 56.9009L6.09295 55.16C5.57068 54.8118 5.13546 54.3766 4.78729 53.6803L4.43911 52.9839L4.26503 52.7228C3.91685 52.2876 3.65572 51.9394 3.48163 51.3301L3.13345 50.0244L2.52415 49.154L1.91484 47.239L1.47962 46.3686L0.783274 44.4536C0.609186 44.0184 0.435098 43.4961 0.435098 42.8868V41.4941L0.348054 40.4496V38.5346L0.173966 37.6642V36.3585L0.0869225 35.5751L-0.000121375 34.8788C-0.000121375 34.5306 -0.000121375 34.1824 -0.000121375 33.8343L0.173966 32.1804Z" fill="#FFD6C2"/>
</svg>
