<svg width="73" height="24" viewBox="0 0 73 24" fill="none" xmlns="http://www.w3.org/2000/svg">
<g clip-path="url(#clip0_895_20322)">
<path d="M16.0856 7.25221L15.7063 7.22349L15.0357 7.19478L14.6851 7.13734L13.9551 7.10862L13.6332 7.19683L13.1964 7.22554C13.0795 7.22554 12.9052 7.25426 12.7883 7.22554L12.7002 7.19683H12.0296L11.5621 7.22554L11.0966 7.63375L11.1253 7.92503L11.0371 8.68401L11.0946 8.94657L11.1233 9.44298C11.1233 9.58862 11.0946 9.79375 11.0659 9.93939L11.0371 10.0276L11.0946 10.5527V10.8153L11.0659 10.9896L10.949 11.6604V12.7107L11.0946 12.9732L11.1233 13.5866V13.8491L11.0946 14.0543L11.1233 14.5794V14.8132L11.0946 15.1045L11.1233 15.7753V16.1835L11.0659 16.8543L11.0946 16.883C11.152 17.1168 11.152 17.2625 11.1233 17.4963L11.0659 17.8758V18.2266L11.0371 18.8973V19.2481L11.0659 19.482C11.0946 19.7732 11.0659 19.9496 10.9777 20.124V20.8235L11.0659 21.0573V21.6399C11.0659 21.7281 11.0371 21.8738 11.0084 21.9599L10.951 22.1938L11.0392 22.8645C11.0392 22.8645 11.0105 22.922 10.9818 23.0102C10.7193 23.5066 10.34 23.6522 10.137 23.6235L9.46642 23.6809C9.32083 23.7384 9.11577 23.7691 8.91277 23.7384L8.5047 23.7096L8.18482 23.6522L7.5717 23.5948H7.13493L6.6674 23.6522C6.55052 23.6809 6.37622 23.6809 6.25934 23.6522L6.14246 23.6235C5.87999 23.3896 5.7344 23.1558 5.70569 22.924V22.8666L5.67698 22.1671L5.70569 21.8758L5.67698 21.322C5.67698 21.2338 5.70569 21.1476 5.70569 21.0594L5.7631 20.7968L5.7344 20.1548L5.79181 19.804L5.7344 19.1045V18.8132L5.7631 18.4625L5.67493 18.1425V16.7127L5.64622 16.2163C5.64622 16.1281 5.64622 15.9825 5.67493 15.8963L5.70364 15.7507L5.76105 15.0799V14.7599L5.64417 14.0891V14.0009C5.61546 13.884 5.61546 13.7671 5.61546 13.6502L5.64417 13.0676V12.1343C5.64417 12.0768 5.67288 11.9599 5.67288 11.9004L5.70159 11.6666L5.759 11.0532V10.6738L5.78771 9.76913L5.759 9.01016L5.70159 8.65939L5.67288 7.92913L5.64417 7.54965L5.35299 7.22965L5.09052 7.20093H4.79934L4.12881 7.17221L4.04063 7.20093C3.86633 7.25837 3.71869 7.25837 3.5444 7.25837H3.3701C3.28192 7.25837 3.1958 7.22965 3.10763 7.20093L2.93333 7.14349L2.61344 7.17221L1.9142 7.11478L1.59431 7.20298L0.981194 7.2317H0.690014L0.544424 7.20298C0.31066 7.02862 0.136362 6.82349 0.107654 6.64913L0.195829 6.32914L0.0789466 5.68708C0.0789466 5.59888 0.0502388 5.54144 0.0502388 5.42452L0.0789466 5.16196L0.0502388 4.54862L0.0215309 4.34349C-0.00717697 4.16914 -0.00717697 4.08093 0.0215309 3.90657L0.0502388 3.58657C0.0502388 3.46965 0.0789466 3.41221 0.107654 3.32401L0.195829 3.00401C0.458301 2.74144 0.720773 2.62452 0.925829 2.65324L1.39336 2.62452C1.51024 2.62452 1.62712 2.5958 1.744 2.62452L2.00647 2.68196L2.61959 2.65324L2.99895 2.68196H3.5526L3.90324 2.59375H4.31131C4.4569 2.59375 4.63324 2.59375 4.77883 2.65119L4.98389 2.70862L5.56625 2.73734L6.00302 2.62042H6.73302L8.6585 2.76606L9.06656 2.67785L9.70838 2.73529L10.0877 2.79272L10.6414 2.76401L10.8157 2.70657C10.99 2.64913 11.195 2.61837 11.398 2.64913L11.7487 2.67785L12.1568 2.70657L12.7699 2.67785L13.1492 2.64913L13.8485 2.67785L14.1991 2.64913L14.9291 2.67785H15.8047C15.8047 2.67785 16.5039 3.17426 16.6208 3.46554V3.61119L16.6495 4.19375L16.707 4.57324L16.7644 5.06965C16.7644 5.18657 16.7931 5.30349 16.7644 5.42042L16.7357 5.50862L16.707 6.15067V6.50144C16.7357 6.73529 16.6782 6.88093 16.5614 6.99785C16.4445 7.11478 16.2702 7.20298 16.0938 7.26042L16.0856 7.25221Z" fill="#FF945E"/>
<path d="M25.5059 8.82727C25.5941 8.82727 25.6802 8.85599 25.7397 8.88471L26.3528 9.05906C26.5578 9.05906 26.7609 9.1165 26.9351 9.20471L27.3432 9.40983H27.4006C27.6057 9.46727 27.8087 9.58419 27.983 9.72983L28.2455 9.93496L28.3029 9.96368C28.4772 10.0519 28.5941 10.1093 28.7396 10.255L29.0903 10.5462L29.7034 11.0139L29.9085 11.2191L30.2283 11.5391C30.3739 11.656 30.4621 11.8016 30.5482 12.0068L30.6057 12.1524L30.8681 12.4724C30.9563 12.618 31.0137 12.735 31.0732 12.9093L31.1306 13.0262L31.3049 13.7257L31.51 14.1052L31.6842 14.6016C31.7417 14.7473 31.7724 14.9216 31.7724 15.098V15.6519L31.7437 16.0314V16.7616L31.715 17.1411L31.7437 17.6662C31.7437 17.7832 31.715 17.9575 31.6863 18.0744L31.512 18.6878V18.8047C31.4833 18.9503 31.4238 19.1247 31.3664 19.2724L31.2208 19.5924C31.1921 19.6806 31.1326 19.7975 31.0752 19.855L30.9583 20.0006L30.5503 20.5257L30.4047 20.9339L29.9372 21.5165L29.7629 21.7503L29.2666 22.218C29.1785 22.3062 29.0616 22.3924 28.9755 22.4519L28.4792 22.7145L28.2742 22.8314L27.5749 23.2683L27.3125 23.4734L26.847 23.6786C26.7588 23.736 26.6419 23.7668 26.525 23.7955L26.3794 23.8242L25.7089 23.9124L25.4177 23.9698C25.3008 23.9986 25.184 23.9986 25.0671 23.9986L24.6303 23.9698H24.2797L24.1915 23.9986C24.0172 24.0273 23.8121 24.0273 23.6378 23.9698L23.5497 23.9411L23.2872 23.9986L22.588 23.9411L22.1799 23.9124L21.5381 23.7668L21.2161 23.6211L20.6338 23.416L20.4595 23.3873C20.3139 23.3298 20.1683 23.2703 20.0514 23.1821L19.7008 22.9196L19.3501 22.7739L18.7678 22.3657L18.6509 22.2775C18.5627 22.2201 18.4766 22.1319 18.3884 22.015L18.3002 21.9268L18.0091 21.6642C17.8922 21.576 17.7466 21.4303 17.6297 21.2847L17.3959 20.9647L17.3078 20.7903C17.2791 20.7329 17.2196 20.6447 17.1909 20.5565L16.9858 19.9739L16.7808 19.7401L16.5183 19.0693L16.4014 18.7493L16.2558 18.1668C16.2271 18.0498 16.2271 17.9616 16.2271 17.8755V17.7298L16.1984 17.0303L16.1697 16.7678L16.0528 16.3596L16.0241 15.9514V15.8344C16.0241 15.6888 16.0241 15.5432 16.0528 15.4262L16.1697 14.8129L16.2866 14.2303C16.3153 14.1134 16.344 13.9965 16.4035 13.9103L16.4916 13.7052L16.6659 13.0919L16.7828 12.7719C16.7828 12.7432 16.8115 12.6837 16.8402 12.655L17.074 12.218C17.1314 12.1298 17.1909 12.0129 17.2791 11.9268L17.3959 11.8386L17.8327 11.3709L18.0665 11.137L18.5627 10.6119L18.6796 10.495C18.737 10.4068 18.8252 10.3493 18.9133 10.2611L19.2045 10.0273C19.3214 9.93906 19.4383 9.88163 19.5552 9.82214L19.6434 9.79342L20.1683 9.53086C20.2257 9.50214 20.3426 9.50214 20.4021 9.47342L20.6071 9.41599L21.2202 9.21086L21.5114 9.12265L22.2701 8.88881L22.4444 8.8006C22.5326 8.77188 22.6187 8.74317 22.7069 8.7124L22.9981 8.65496C23.1724 8.62624 23.3487 8.65496 23.523 8.68368H23.5517L23.9598 8.65496L24.2817 8.68368L24.6611 8.7124L25.3316 8.8006L25.5059 8.82932V8.82727ZM25.5941 19.3298L26.0021 18.776L26.2072 18.5134L26.5578 18.017L26.6153 17.7257L26.849 17.0837L26.8203 16.7042L26.7916 16.3842V15.7709L26.7034 15.1288L26.5291 14.8088L26.1498 14.138L26.0042 13.9637L25.5367 13.6437C25.4198 13.5555 25.3316 13.4693 25.2742 13.3811L25.186 13.2929L24.6037 13.176L24.2243 13.2047H23.9331L23.5825 13.2334H23.1744L22.6495 13.3216L21.8908 13.8468L21.6857 14.0519L21.2776 14.7227L21.1608 14.9565L21.0726 15.7442V15.978L21.13 16.3862V16.415C21.1587 16.6201 21.13 16.7657 21.0726 16.9688V16.9975L21.1895 17.697L21.2776 18.017L21.6283 18.5996L21.8908 18.8621L22.3583 19.3586L22.6782 19.5329L23.32 19.6498H23.4082C23.5538 19.6498 23.7281 19.6498 23.8737 19.7073L23.9024 19.736L24.3104 19.6478L24.6016 19.736L25.2721 19.4447L25.592 19.3278L25.5941 19.3298Z" fill="#FF945E"/>
<path d="M43.2966 9.14935L43.3848 9.12063L43.7067 9.14935H44.3198L44.611 9.09192H45.4579L46.1879 9.14935L46.5385 9.17807L47.2972 9.12063C47.2972 9.12063 47.5023 9.32576 47.6479 9.50012C47.8222 9.73397 47.736 9.99653 47.6479 10.2304L47.5023 10.5217L47.3567 10.8129L47.1229 11.4837L46.9486 11.8632L46.6267 12.5935L46.3068 13.3811L46.1612 13.7894L45.9869 14.3432C45.9582 14.4314 45.8987 14.4888 45.8413 14.6058L45.7244 14.8396L45.5501 15.2478C45.5214 15.3647 45.4333 15.4529 45.3759 15.5391L45.2877 15.6847L44.937 16.3268L44.8796 16.7063L44.6746 17.2314C44.6458 17.2888 44.6171 17.3483 44.5864 17.4365L44.4695 17.6417L44.2357 18.1668L44.0614 18.4868L43.7416 19.1576L43.596 19.537L43.3048 20.1791L43.1592 20.4417L42.9541 20.9094C42.8967 21.0837 42.8373 21.2006 42.7491 21.3176L42.6609 21.4345L42.3984 22.017L42.3697 22.3083L42.1954 22.8047C42.1667 22.9217 42.0785 23.0099 42.0211 23.096L41.9042 23.3011L41.6131 23.4468C41.4388 23.535 41.2624 23.6211 41.0594 23.6519H41.002L40.5939 23.7401C40.4771 23.7688 40.3315 23.7401 40.2146 23.7401H40.0977L39.9234 23.7688C39.8065 23.7976 39.6609 23.7688 39.5441 23.7688L39.136 23.7401C38.9022 23.7688 38.5823 23.6519 38.2604 23.4201C38.1722 23.3914 38.0861 23.2458 37.9979 23.0694L37.7929 22.456L37.5591 22.1053L37.3253 21.5227C37.2966 21.4652 37.2679 21.377 37.2372 21.2888L37.1798 21.055L36.8004 20.3555L36.743 20.2673C36.7143 20.1791 36.6548 20.1217 36.6261 20.0047L36.4518 19.4509L36.2467 19.1883L36.013 18.5176L35.8674 18.255L35.6049 17.5842L35.5475 17.4386C35.5188 17.3811 35.4901 17.2929 35.4593 17.2047L35.3425 16.7083L35.1682 16.4458L34.9057 15.8037L34.6719 15.3955L34.4382 14.8417C34.4094 14.7247 34.3807 14.6365 34.3807 14.5504L34.352 14.376L34.0608 13.8222L33.9153 13.4427L33.6528 13.0919C33.5954 13.0037 33.5072 12.8868 33.4785 12.7719L33.3903 12.5668L33.1278 12.0129C33.0704 11.896 33.011 11.7791 32.9823 11.6622L32.9535 11.4878L32.6624 10.6714L32.3712 10.0006C32.3712 10.0006 32.605 9.3873 32.7792 9.18422C32.8367 9.12679 32.9535 9.09602 33.013 9.09602L33.5667 9.0673L33.8886 9.03858L34.1798 9.00986H34.4135L34.5878 9.03858H34.9077L35.2584 9.09602L35.3158 9.0673C35.4901 9.00986 35.7239 9.03858 35.9289 9.0673H35.9576L36.3083 9.09602L36.5994 9.00781C36.8045 9.00781 37.067 9.09602 37.2987 9.27038C37.3869 9.32781 37.5037 9.50422 37.6206 9.73807L37.8257 10.1463C37.8831 10.2919 37.9139 10.4663 37.9426 10.614L37.9713 10.6714L38.205 11.254L38.3219 11.6335L38.5557 12.3042L38.6439 12.5955L38.8489 13.2088L38.9371 13.4714L39.1421 14.2017L39.462 14.8724L39.6076 15.1924L39.7532 15.6294C39.8106 15.8037 39.8414 15.9206 39.8414 16.097V16.214L40.1613 16.3022L40.3069 16.0396L40.4237 15.7196L40.7149 15.1063L40.7723 14.7268L40.9466 13.9965L40.9753 13.7052L41.0328 13.4714C41.0615 13.414 41.0902 13.3258 41.1209 13.2376L41.2952 12.9463L41.3239 12.6263L41.6151 11.9842L41.8202 11.6335L42.0539 10.9914L42.1421 10.7001C42.1421 10.5258 42.1708 10.3801 42.2303 10.2037L42.3185 9.96986C42.3759 9.79551 42.4353 9.67858 42.5235 9.56166L42.5809 9.47345L42.8147 9.32781C42.989 9.21089 43.1366 9.18217 43.3109 9.15345L43.2966 9.14935Z" fill="#FF945E"/>
<path d="M54.5542 18.1052L54.4967 17.697L54.5255 16.9381L54.468 16.7042L54.5255 16.0047L54.4373 15.6847L54.4947 15.014L54.4065 14.7514L54.4352 14.0519L54.4065 13.6724L54.4947 12.7678L54.5521 12.0683V12.0396C54.5808 11.8652 54.5808 11.7483 54.5521 11.5719V11.5145L54.4639 10.8724L54.5214 10.5524L54.5275 10.4745C54.5357 10.1093 54.5439 9.84268 54.4844 9.64165C54.4701 9.60473 54.4557 9.56781 54.4352 9.53088C54.4147 9.48781 54.3901 9.44883 54.3614 9.40986C54.3573 9.40575 54.3532 9.3996 54.3491 9.3955C54.343 9.38934 54.3368 9.38319 54.3327 9.37704C54.2425 9.28678 54.1133 9.21088 53.9287 9.14114C53.9164 9.13704 53.9 9.13293 53.8857 9.12883C53.7093 9.09601 53.5145 9.09396 53.2992 9.09396L53.008 9.12268L52.8912 9.09396C52.803 9.06524 52.6574 9.06524 52.5692 9.06524H51.7818L51.4148 9.03857C51.2876 9.04678 51.1666 9.05704 51.0559 9.06729C50.9759 9.08165 50.8939 9.09806 50.8201 9.12268L50.7627 9.15139L50.291 9.19037C49.7476 9.37293 49.4544 9.78934 49.3621 10.3411V10.5791C49.3478 10.6119 49.3396 10.6468 49.3293 10.6796C49.3293 10.7534 49.3273 10.8293 49.3293 10.9052C49.3293 10.9052 49.317 10.8888 49.2924 10.856C49.2801 10.9832 49.2842 11.1145 49.3006 11.2478L49.3293 11.5104L49.358 11.9186V12.6488L49.3006 12.9996L49.2432 13.6704L49.2719 14.0211V14.7206L49.4175 15.0406V15.7401L49.3888 15.7975C49.3314 16.0314 49.3006 16.177 49.3314 16.4109L49.3888 16.7904L49.3601 17.1986L49.3314 17.8119V18.1627L49.2432 18.6591V19.1268L49.2719 19.857L49.3006 20.177V20.8765L49.2719 21.1104L49.3006 21.8406C49.2719 21.9863 49.2432 22.1914 49.2432 22.337L49.2719 22.8909L49.3006 23.2991L49.3293 23.3278C49.6205 23.5329 49.9425 23.6478 50.1455 23.6191H50.9903L51.5152 23.6765C51.6608 23.7052 51.7777 23.7052 51.8946 23.6765L51.952 23.6478L52.682 23.5904H52.7107C52.9158 23.6478 53.1188 23.6478 53.2931 23.6191L53.41 23.5904C53.5843 23.5616 53.7893 23.5617 53.9062 23.416C54.14 23.2109 54.4024 22.8027 54.4024 22.8027L54.4598 22.1606L54.4886 21.7811V21.1104L54.4004 20.7904L54.4291 20.1196L54.546 19.6827L54.6341 19.1575C54.6628 19.0119 54.6341 18.895 54.6341 18.7781L54.546 18.1073L54.5542 18.1052Z" fill="#FF945E"/>
<path d="M72.958 23.094L72.8411 22.8602L72.5191 22.2776L72.3448 21.9863L71.7912 21.1699L71.5 20.5279L71.4426 20.3822C71.4139 20.3248 71.3852 20.2366 71.3544 20.1771L70.9751 19.5351L70.7126 19.2151L70.4214 18.6612L69.8083 17.8448L69.7509 17.7279C69.7222 17.6397 69.6627 17.5822 69.6053 17.5227L69.2259 17.0858L69.0803 16.7351L68.7892 16.0643L68.6149 15.773L68.6723 15.1597L68.8773 14.8397L69.0824 14.6345C69.2567 14.4889 69.3736 14.2838 69.433 14.1381L69.6668 13.7874L69.958 13.291L69.9867 13.2622C70.1323 13.1453 70.1918 13.0284 70.2779 12.9115L70.5691 12.5033L70.7434 12.1833L71.2109 11.4838L71.4159 11.2212L71.9122 10.6386L72.0865 10.493C72.1459 10.4356 72.2034 10.3474 72.2608 10.2879L72.5519 9.87967L72.7262 9.58839C72.8718 9.47147 72.9005 9.32583 72.8431 9.20891C72.7857 9.1207 72.6381 9.06326 72.4351 9.06326L72.0844 9.09198L71.2683 9.1207H70.9771L70.1302 9.14942L69.8103 9.09198L68.9942 9.03455L68.6436 9.09198L67.8849 9.06326C67.6511 9.06326 67.3886 9.1207 67.1262 9.26839C66.9806 9.3566 66.8924 9.44275 66.8063 9.53096L66.7181 9.58839L66.0763 10.4643L65.6969 11.0181L65.4632 11.3381L65.0838 11.9515L64.9382 12.1853L64.5302 12.653L64.3846 12.8869L63.8596 13.4407L63.6853 13.732L63.4803 13.9371L63.2752 13.8202L63.187 13.5002L63.1583 12.7412L63.187 12.333L63.2444 11.5166L63.1276 11.254L63.2157 10.4663V9.72173C63.1768 9.38532 63.0414 9.19249 62.6211 9.0366C61.9628 8.79249 60.0415 8.91352 59.3299 9.00788C58.3539 9.13711 57.9766 9.85096 58.0217 10.8048C58.0217 10.8048 58.0114 10.7925 57.9971 10.772L57.993 10.8171L57.9642 11.4592V12.772L57.993 13.5597L58.0811 13.9104L57.993 14.6981V14.7556C57.9643 14.8725 57.9355 15.0181 57.9355 15.1351L57.9642 15.6028L57.9068 15.9822L57.8781 16.6243V16.8581L57.9663 17.5576L57.9376 17.9658V18.6366L57.9089 19.0161L57.8515 19.7751V20.1545L57.9089 20.854L57.9663 21.1453V21.8161L58.0545 22.1669L58.0832 22.692C58.0832 22.8089 58.0832 22.9258 58.1406 23.0428C58.3149 23.3053 58.7824 23.6561 58.7824 23.6561L59.4242 23.6274H59.7441L60.0948 23.6848H60.591C60.6792 23.7135 60.7961 23.7135 60.8822 23.7135H61.4646C61.5814 23.7422 61.6983 23.7135 61.8152 23.7135L62.252 23.6848C62.3401 23.6848 62.4263 23.6561 62.4857 23.5966C62.7195 23.451 63.0394 23.014 63.0394 23.014L62.982 22.2838L63.0394 21.9043L63.0968 21.2622V20.8253L63.0394 20.3576L63.0681 19.9207L63.2732 19.2499L63.4475 18.9874L63.8842 18.6079L64.1467 18.374L64.6142 18.4315L64.7311 18.694L65.051 19.2766L65.2253 19.6274L65.6333 20.2981L65.8958 20.6181L66.3039 21.2602L66.4782 21.4345L66.7407 22.0766L66.8575 22.3392L67.1774 22.9812C67.2348 23.2151 67.323 23.3894 67.4399 23.4776C67.7024 23.6828 67.9361 23.7689 68.1391 23.7689L68.4303 23.7402L69.1603 23.7115L69.511 23.654H70.2102L70.3271 23.7115C70.5014 23.7689 70.6777 23.7689 70.852 23.7689H71.3196L71.7276 23.7402H72.6032L72.8657 23.7115C73.0113 23.5063 73.0113 23.2745 72.9539 23.0981L72.958 23.094Z" fill="#FF945E"/>
<path d="M59.049 0.238778C59.3156 0.158778 59.5637 0.0562133 59.8282 0.0398031C60.0927 0.0233928 60.3798 -0.0258373 60.6464 0.0172396C60.913 0.0603165 61.1959 0.119803 61.4461 0.220316C61.6963 0.320829 61.8931 0.542367 62.1166 0.696213C62.3401 0.85006 62.5124 1.04903 62.6949 1.25006C62.8774 1.45109 63.1276 1.59878 63.2629 1.83673C63.3982 2.07468 63.4721 2.33724 63.55 2.60391C63.6279 2.87057 63.6894 3.11262 63.7079 3.36493C63.7263 3.61724 63.7468 3.89416 63.712 4.14852C63.6771 4.40288 63.4926 4.62647 63.4044 4.86647C63.4044 4.86852 63.511 4.90339 63.511 4.9075C63.4331 5.21519 63.3572 5.48801 63.3982 5.74032C63.4474 6.04801 63.5848 6.31057 63.6074 6.55673C63.6279 6.77621 63.4741 6.95467 63.2547 6.97929C63.0825 6.99775 62.8507 7.02032 62.5575 6.97519C62.3586 6.94442 62.131 6.89724 61.8747 6.81519C61.8644 6.81314 61.8398 6.76185 61.8316 6.7598C61.5999 6.89108 61.3559 6.98955 61.0914 7.06955C60.8268 7.14955 60.5746 7.27467 60.3101 7.29314C60.0456 7.3116 59.7626 7.27468 59.496 7.2316C59.2294 7.18852 58.9752 7.08596 58.725 6.98544C58.4748 6.88493 58.2267 6.77621 58.0032 6.62032C57.7797 6.46442 57.591 6.2757 57.4065 6.07467C57.2219 5.87365 57.0989 5.64391 56.9636 5.40391C56.8282 5.16391 56.6314 4.96493 56.5514 4.69826C56.4714 4.4316 56.5186 4.14852 56.5001 3.88391C56.4817 3.61929 56.4284 3.33826 56.4714 3.07365C56.5145 2.80903 56.5453 2.52185 56.6457 2.2716C56.7462 2.02134 56.9246 1.7957 57.0784 1.57416C57.2322 1.35262 57.4455 1.18032 57.6464 0.995701C57.8474 0.811086 58.0565 0.657239 58.2964 0.521855C58.5364 0.38647 58.7824 0.32288 59.0469 0.24288L59.049 0.238778Z" fill="#FF945E"/>
<path d="M60.1502 2.87681C59.9964 2.87681 59.8713 2.75168 59.8713 2.59784V2.13835C59.8713 1.9845 59.9964 1.85938 60.1502 1.85938C60.3039 1.85938 60.429 1.9845 60.429 2.13835V2.59784C60.429 2.75168 60.3039 2.87681 60.1502 2.87681Z" fill="#07374F"/>
<path d="M61.522 2.88706H58.6327C58.4728 2.88706 58.3436 2.75782 58.3436 2.59782C58.3436 2.43782 58.4728 2.30859 58.6327 2.30859H61.522C61.6819 2.30859 61.8111 2.43782 61.8111 2.59782C61.8111 2.75782 61.6819 2.88706 61.522 2.88706Z" fill="#07374F"/>
<path d="M59.0141 5.37315C58.8993 5.37315 58.7927 5.30341 58.7517 5.18854C58.7004 5.0429 58.7742 4.8829 58.9198 4.83161C58.926 4.82956 59.5678 4.58956 60.1112 4.00085C60.7571 3.30341 60.8637 2.567 60.8637 2.56085C60.8842 2.40905 61.0237 2.30033 61.1775 2.32085C61.3292 2.34136 61.4379 2.4788 61.4174 2.63264C61.4133 2.66956 61.2923 3.54546 60.5213 4.38033C59.8815 5.07162 59.1413 5.34443 59.1105 5.35674C59.0798 5.36905 59.0469 5.37315 59.0162 5.37315H59.0141Z" fill="#07374F"/>
<path d="M61.1406 5.37315C61.1098 5.37315 61.077 5.367 61.0462 5.35674C61.0155 5.34649 60.2752 5.07367 59.6355 4.38033C58.8644 3.54546 58.7435 2.66956 58.7394 2.63264C58.7209 2.48085 58.8275 2.33931 58.9813 2.32085C59.1331 2.30033 59.2725 2.40905 59.293 2.56085C59.293 2.5752 59.4037 3.30751 60.0456 4.00085C60.589 4.58956 61.2308 4.82956 61.237 4.83161C61.3805 4.88495 61.4564 5.04495 61.403 5.18854C61.362 5.30136 61.2554 5.37315 61.1406 5.37315Z" fill="#07374F"/>
<path d="M52.9383 0.130084C52.6718 0.0500844 52.3908 0.0746993 52.1263 0.0582891C51.8618 0.0418788 51.5809 0.00905888 51.3163 0.0500845C51.0518 0.0911102 50.8119 0.240853 50.5617 0.341366C50.3116 0.441879 50.086 0.569059 49.8625 0.722905C49.639 0.876751 49.4216 1.02034 49.2371 1.22342C49.0525 1.42649 48.9233 1.64803 48.79 1.88803C48.6568 2.12803 48.4784 2.33316 48.4004 2.59983C48.3225 2.86649 48.2446 3.10855 48.2261 3.36085C48.2077 3.61316 48.2897 3.88188 48.3246 4.13419C48.3594 4.38649 48.4517 4.62855 48.5419 4.86855C48.5419 4.8706 48.4661 4.89726 48.4661 4.89932C48.544 5.20701 48.5276 5.47162 48.4866 5.72393C48.4373 6.03162 48.3922 6.30855 48.3697 6.5547C48.3492 6.77419 48.4845 6.98547 48.7039 7.00803C48.8762 7.02649 49.1181 7.06957 49.4114 7.02444C49.6103 6.99367 49.8358 6.91162 50.0921 6.82957C50.1024 6.82752 50.1168 6.76598 50.125 6.76393C50.3567 6.89521 50.6007 6.99983 50.8652 7.07983C51.1297 7.15983 51.384 7.29521 51.6506 7.31367C51.9171 7.33214 52.1919 7.21111 52.4564 7.16803C52.721 7.12496 52.9937 7.09624 53.2439 6.99573C53.494 6.89521 53.7073 6.72906 53.9308 6.57521C54.1543 6.42137 54.4086 6.30444 54.5931 6.10342C54.7777 5.90239 54.9766 5.70342 55.1119 5.46342C55.2473 5.22342 55.2391 4.93214 55.317 4.66547C55.3949 4.3988 55.5077 4.14855 55.5241 3.88188C55.5405 3.61521 55.5774 3.32598 55.5364 3.05931C55.4954 2.79265 55.2985 2.56085 55.198 2.3106C55.0976 2.06034 55.0053 1.81008 54.8494 1.58649C54.6936 1.3629 54.5357 1.14752 54.3348 0.962904C54.1338 0.778289 53.898 0.659315 53.6581 0.52393C53.4182 0.388546 53.211 0.20393 52.9465 0.125982L52.9383 0.130084Z" fill="#FFB48E"/>
<path d="M53.4489 5.20061C53.4407 5.30317 53.41 5.37907 53.3546 5.4283C53.2992 5.47958 53.2336 5.5042 53.1577 5.5042C53.1003 5.5042 53.045 5.48779 52.9896 5.45496C52.9342 5.42214 52.8912 5.37086 52.8583 5.30317C52.8378 5.12061 52.8071 4.94214 52.764 4.76779C52.721 4.59343 52.6676 4.41497 52.602 4.2324C52.3457 4.2324 52.0914 4.23445 51.8351 4.23855C51.5788 4.24266 51.3225 4.24471 51.0621 4.24471H51.0498C51.0005 4.41496 50.9554 4.57907 50.9124 4.73496C50.8693 4.89086 50.8303 5.05907 50.7934 5.23753C50.7606 5.32779 50.7176 5.39137 50.6663 5.4324C50.613 5.47343 50.5576 5.49394 50.4961 5.49394C50.41 5.49394 50.3362 5.46112 50.2746 5.39343C50.2111 5.32573 50.1926 5.23753 50.2172 5.12881C50.3464 4.5483 50.5043 3.98214 50.6909 3.43035C50.8775 2.87855 51.1133 2.33291 51.3963 1.79343L51.3901 1.79958C51.423 1.71343 51.4927 1.66009 51.6034 1.63548H51.5973C51.7059 1.59855 51.8044 1.61907 51.8884 1.69702C51.9889 1.79343 52.0832 1.90214 52.1714 2.02317C52.2575 2.14214 52.3396 2.26727 52.4154 2.39445C52.4913 2.52163 52.561 2.65086 52.6246 2.78009C52.6902 2.90932 52.7497 3.03445 52.8071 3.15138C52.844 3.22932 52.883 3.31548 52.9219 3.40984C52.9629 3.50625 53.0019 3.60061 53.0367 3.69291C53.0819 3.69291 53.1311 3.69291 53.1823 3.69086C53.2357 3.69086 53.2828 3.68676 53.3279 3.68676C53.4141 3.71548 53.4756 3.75445 53.5166 3.80163C53.5576 3.85086 53.5781 3.90214 53.5781 3.95958C53.5781 4.01702 53.5555 4.07035 53.5104 4.12163C53.4653 4.17291 53.3976 4.20778 53.3033 4.2283H53.2295C53.33 4.54419 53.4017 4.87035 53.4428 5.20266L53.4489 5.20061ZM52.0422 2.91137C51.993 2.82112 51.9438 2.73291 51.8925 2.64266C51.8413 2.5524 51.7921 2.47445 51.7428 2.40471C51.6465 2.61189 51.5542 2.82112 51.4722 3.03445C51.3881 3.24779 51.3061 3.46932 51.2261 3.70112C51.4332 3.70112 51.6301 3.70112 51.8187 3.69497C52.0074 3.69086 52.2042 3.68881 52.4113 3.68881C52.3621 3.57189 52.3129 3.45907 52.2596 3.35445C52.2063 3.24984 52.155 3.13702 52.1017 3.02009L52.0402 2.91137H52.0422Z" fill="#07374F"/>
</g>
<defs>
<clipPath id="clip0_895_20322">
<rect width="73" height="24" fill="white"/>
</clipPath>
</defs>
</svg>
