<svg width="140" height="32" viewBox="0 0 140 32" fill="none" xmlns="http://www.w3.org/2000/svg">
<g clip-path="url(#clip0_789_5825)">
<path d="M67.0052 9.80755L66.5184 9.77071L65.6579 9.73387L65.2079 9.66018L64.271 9.62334L63.8579 9.7365L63.2973 9.77334C63.1473 9.77334 62.9237 9.81018 62.7737 9.77334L62.6605 9.7365H61.8L61.2 9.77334L60.6026 10.297L60.6394 10.6707L60.5263 11.6444L60.6 11.9812L60.6368 12.6181C60.6368 12.8049 60.6 13.0681 60.5631 13.2549L60.5263 13.3681L60.6 14.0418V14.3786L60.5631 14.6023L60.4131 15.4628V16.8102L60.6 17.147L60.6368 17.9339V18.2707L60.6 18.5339L60.6368 19.2076V19.5076L60.6 19.8812L60.6368 20.7418V21.2654L60.5631 22.126L60.6 22.1628C60.6737 22.4628 60.6737 22.6497 60.6368 22.9497L60.5631 23.4365V23.8865L60.5263 24.747V25.197L60.5631 25.497C60.6 25.8707 60.5631 26.097 60.45 26.3207V27.2181L60.5631 27.5181V28.2655C60.5631 28.3786 60.5263 28.5655 60.4895 28.676L60.4158 28.976L60.5289 29.8365C60.5289 29.8365 60.4921 29.9102 60.4552 30.0233C60.1184 30.6602 59.6316 30.847 59.371 30.8102L58.5105 30.8839C58.3237 30.9576 58.0605 30.997 57.8 30.9576L57.2763 30.9207L56.8658 30.847L56.0789 30.7733H55.5184L54.9184 30.847C54.7684 30.8839 54.5447 30.8839 54.3947 30.847L54.2447 30.8102C53.9079 30.5102 53.721 30.2102 53.6842 29.9128V29.8391L53.6473 28.9418L53.6842 28.5681L53.6473 27.8576C53.6473 27.7444 53.6842 27.6339 53.6842 27.5207L53.7579 27.1839L53.721 26.3602L53.7947 25.9102L53.721 25.0128V24.6391L53.7579 24.1891L53.6447 23.7786V21.9444L53.6079 21.3076C53.6079 21.1944 53.6079 21.0076 53.6447 20.897L53.6816 20.7102L53.7552 19.8497V19.4391L53.6052 18.5786V18.4655C53.5684 18.3154 53.5684 18.1654 53.5684 18.0154L53.6052 17.2681V16.0707C53.6052 15.997 53.6421 15.847 53.6421 15.7707L53.6789 15.4707L53.7526 14.6839V14.197L53.7894 13.0365L53.7526 12.0628L53.6789 11.6128L53.6421 10.676L53.6052 10.1891L53.2316 9.77861L52.8947 9.74177H52.521L51.6605 9.70492L51.5473 9.74177C51.3237 9.81545 51.1342 9.81545 50.9105 9.81545H50.6868C50.5737 9.81545 50.4631 9.77861 50.35 9.74177L50.1263 9.66808L49.7158 9.70492L48.8184 9.63124L48.4079 9.7444L47.621 9.78124H47.2473L47.0605 9.7444C46.7605 9.52071 46.5368 9.25755 46.5 9.03387L46.6131 8.62334L46.4631 7.79966C46.4631 7.6865 46.4263 7.61282 46.4263 7.46282L46.4631 7.12597L46.4263 6.33913L46.3894 6.07598C46.3526 5.85229 46.3526 5.73913 46.3894 5.51545L46.4263 5.10492C46.4263 4.95492 46.4631 4.88124 46.5 4.76808L46.6131 4.35755C46.95 4.02071 47.2868 3.87071 47.55 3.90755L48.15 3.87071C48.3 3.87071 48.45 3.83387 48.6 3.87071L48.9368 3.9444L49.7237 3.90755L50.2105 3.9444H50.921L51.371 3.83124H51.8947C52.0816 3.83124 52.3079 3.83124 52.4947 3.90492L52.7579 3.97861L53.5052 4.01545L54.0658 3.86545H55.0026L57.4737 4.05229L57.9973 3.93913L58.821 4.01282L59.3079 4.0865L60.0184 4.04966L60.2421 3.97597C60.4658 3.90229 60.7289 3.86282 60.9894 3.90229L61.4395 3.93913L61.9631 3.97597L62.75 3.93913L63.2368 3.90229L64.1342 3.93913L64.5842 3.90229L65.521 3.93913H66.6447C66.6447 3.93913 67.5421 4.57597 67.6921 4.94966V5.1365L67.7289 5.88387L67.8026 6.37071L67.8763 7.00755C67.8763 7.15755 67.9131 7.30755 67.8763 7.45755L67.8395 7.57071L67.8026 8.3944V8.8444C67.8395 9.1444 67.7658 9.33124 67.6158 9.48124C67.4658 9.63124 67.2421 9.7444 67.0158 9.81808L67.0052 9.80755Z" fill="#FF945E"/>
<path d="M79.0947 11.8286C79.2078 11.8286 79.3184 11.8655 79.3947 11.9023L80.1815 12.126C80.4447 12.126 80.7052 12.1997 80.9289 12.3128L81.4526 12.576H81.5263C81.7894 12.6497 82.05 12.7997 82.2736 12.9865L82.6105 13.2497L82.6842 13.2865C82.9079 13.3997 83.0578 13.4734 83.2447 13.6602L83.6947 14.0339L84.4815 14.6339L84.7447 14.897L85.1552 15.3076C85.3421 15.4576 85.4552 15.6444 85.5657 15.9076L85.6394 16.0944L85.9763 16.5049C86.0894 16.6918 86.1631 16.8418 86.2394 17.0655L86.3131 17.2155L86.5368 18.1128L86.8 18.5997L87.0236 19.2365C87.0973 19.4234 87.1368 19.6471 87.1368 19.8734V20.5839L87.1 21.0707V22.0076L87.0631 22.4944L87.1 23.1681C87.1 23.3181 87.0631 23.5418 87.0263 23.6918L86.8026 24.4786V24.6286C86.7657 24.8155 86.6894 25.0392 86.6157 25.2286L86.4289 25.6392C86.3921 25.7523 86.3157 25.9023 86.2421 25.976L86.0921 26.1628L85.5684 26.8365L85.3815 27.3602L84.7815 28.1076L84.5579 28.4076L83.921 29.0076C83.8078 29.1207 83.6579 29.2313 83.5473 29.3076L82.9105 29.6444L82.6473 29.7944L81.75 30.3549L81.4131 30.6181L80.8157 30.8813C80.7026 30.9549 80.5526 30.9944 80.4026 31.0313L80.2157 31.0681L79.3552 31.1813L78.9815 31.2549C78.8315 31.2918 78.6815 31.2918 78.5315 31.2918L77.971 31.2549H77.521L77.4078 31.2918C77.1842 31.3286 76.921 31.3286 76.6973 31.2549L76.5842 31.2181L76.2473 31.2918L75.3499 31.2181L74.8263 31.1813L74.0026 30.9944L73.5894 30.8076L72.8421 30.5444L72.6184 30.5076C72.4315 30.4339 72.2447 30.3576 72.0947 30.2444L71.6447 29.9076L71.1947 29.7207L70.4473 29.1971L70.2973 29.0839C70.1842 29.0102 70.0736 28.8971 69.9605 28.7471L69.8473 28.6339L69.4736 28.2971C69.3236 28.1839 69.1368 27.9971 68.9868 27.8102L68.6868 27.3997L68.5736 27.176C68.5368 27.1023 68.4605 26.9892 68.4236 26.876L68.1605 26.1286L67.8973 25.8286L67.5605 24.9681L67.4105 24.5576L67.2236 23.8102C67.1868 23.6602 67.1868 23.547 67.1868 23.4365V23.2497L67.15 22.3523L67.1131 22.0155L66.9631 21.4918L66.9263 20.9681V20.8181C66.9263 20.6313 66.9263 20.4444 66.9631 20.2944L67.1131 19.5076L67.2631 18.7602C67.3 18.6102 67.3368 18.4602 67.4131 18.3497L67.5263 18.0865L67.75 17.2997L67.8999 16.8892C67.8999 16.8523 67.9368 16.776 67.9736 16.7392L68.2736 16.1786C68.3473 16.0655 68.4236 15.9155 68.5368 15.8049L68.6868 15.6918L69.2473 15.0918L69.5473 14.7918L70.1842 14.1181L70.3342 13.9681C70.4078 13.8549 70.521 13.7813 70.6342 13.6681L71.0078 13.3681C71.1578 13.2549 71.3078 13.1813 71.4578 13.1049L71.571 13.0681L72.2447 12.7313C72.3184 12.6944 72.4684 12.6944 72.5447 12.6576L72.8079 12.5839L73.5947 12.3207L73.9684 12.2076L74.9421 11.9076L75.1657 11.7944C75.2789 11.7576 75.3894 11.7207 75.5026 11.6813L75.8763 11.6076C76.0999 11.5707 76.3263 11.6076 76.55 11.6444H76.5868L77.1105 11.6076L77.5236 11.6444L78.0105 11.6813L78.871 11.7944L79.0947 11.8313V11.8286ZM79.2078 25.3023L79.7315 24.5918L79.9947 24.2549L80.4447 23.6181L80.5184 23.2444L80.8184 22.4207L80.7815 21.9339L80.7447 21.5234V20.7365L80.6315 19.9128L80.4078 19.5023L79.921 18.6418L79.7342 18.4181L79.1342 18.0076C78.9842 17.8944 78.871 17.7839 78.7973 17.6707L78.6842 17.5576L77.9368 17.4076L77.45 17.4444H77.0763L76.6263 17.4813H76.1026L75.4289 17.5944L74.4552 18.2681L74.1921 18.5313L73.6684 19.3918L73.5184 19.6918L73.4052 20.7023V21.0023L73.4789 21.526V21.5628C73.5157 21.826 73.4789 22.0128 73.4052 22.2734V22.3102L73.5552 23.2076L73.6684 23.6181L74.1184 24.3655L74.4552 24.7023L75.0552 25.3392L75.4657 25.5628L76.2894 25.7128H76.4026C76.5894 25.7128 76.8131 25.7128 77 25.7865L77.0368 25.8234L77.5605 25.7102L77.9342 25.8234L78.7947 25.4497L79.2052 25.2997L79.2078 25.3023Z" fill="#FF945E"/>
<path d="M101.929 12.2418L102.042 12.2049L102.455 12.2418H103.242L103.616 12.1681H104.703L105.64 12.2418L106.09 12.2786L107.063 12.2049C107.063 12.2049 107.326 12.4681 107.513 12.6918C107.737 12.9918 107.626 13.3286 107.513 13.6286L107.326 14.0023L107.14 14.376L106.84 15.2365L106.616 15.7234L106.203 16.6602L105.792 17.6707L105.605 18.1944L105.382 18.9049C105.345 19.0181 105.268 19.0918 105.195 19.2418L105.045 19.5418L104.821 20.0655C104.784 20.2155 104.671 20.3286 104.597 20.4392L104.484 20.626L104.034 21.4497L103.961 21.9365L103.697 22.6102C103.661 22.6839 103.624 22.7602 103.584 22.8734L103.434 23.1365L103.134 23.8102L102.911 24.2207L102.5 25.0813L102.313 25.5681L101.94 26.3918L101.753 26.7286L101.49 27.3286C101.416 27.5523 101.34 27.7023 101.226 27.8523L101.113 28.0023L100.776 28.7497L100.74 29.1234L100.516 29.7602C100.479 29.9102 100.366 30.0234 100.292 30.1339L100.142 30.3971L99.7685 30.5839C99.5448 30.6971 99.3185 30.8076 99.058 30.8471H98.9843L98.4606 30.9602C98.3106 30.9971 98.1237 30.9602 97.9738 30.9602H97.8238L97.6001 30.9971C97.4501 31.0339 97.2632 30.9971 97.1132 30.9971L96.5895 30.9602C96.2895 30.9971 95.879 30.8471 95.4659 30.5497C95.3527 30.5128 95.2422 30.326 95.129 30.0997L94.8659 29.3128L94.5659 28.8628L94.2659 28.1155C94.229 28.0418 94.1922 27.9286 94.1527 27.8155L94.079 27.5155L93.5922 26.6181L93.5185 26.5049C93.4816 26.3918 93.4053 26.3181 93.3685 26.1681L93.1448 25.4576L92.8817 25.1207L92.5816 24.2602L92.3948 23.9234L92.058 23.0628L91.9843 22.876C91.9474 22.8023 91.9106 22.6892 91.8711 22.576L91.7211 21.9392L91.4974 21.6023L91.1606 20.7786L90.8606 20.2549L90.5606 19.5444C90.5238 19.3944 90.4869 19.2813 90.4869 19.1707L90.4501 18.9471L90.0764 18.2365L89.8895 17.7497L89.5527 17.2997C89.479 17.1865 89.3659 17.0365 89.329 16.8892L89.2159 16.626L88.879 15.9155C88.8053 15.7655 88.729 15.6155 88.6922 15.4655L88.6553 15.2418L88.2816 14.1944L87.908 13.3339C87.908 13.3339 88.208 12.5471 88.4316 12.2865C88.5053 12.2128 88.6553 12.1734 88.7316 12.1734L89.4422 12.1365L89.8553 12.0997L90.229 12.0628H90.529L90.7527 12.0997H91.1632L91.6132 12.1734L91.6869 12.1365C91.9106 12.0628 92.2106 12.0997 92.4738 12.1365H92.5106L92.9606 12.1734L93.3343 12.0602C93.5974 12.0602 93.9343 12.1734 94.2316 12.3971C94.3448 12.4707 94.4948 12.6971 94.6448 12.9971L94.908 13.5207C94.9816 13.7076 95.0211 13.9313 95.058 14.1207L95.0948 14.1944L95.3948 14.9418L95.5448 15.4286L95.8448 16.2892L95.958 16.6628L96.2211 17.4497L96.3343 17.7865L96.5974 18.7234L97.008 19.5839L97.1948 19.9944L97.3816 20.5549C97.4553 20.7786 97.4948 20.9286 97.4948 21.1549V21.3049L97.9053 21.4181L98.0922 21.0813L98.2422 20.6707L98.6159 19.8839L98.6895 19.3971L98.9132 18.4602L98.9501 18.0865L99.0238 17.7865C99.0606 17.7128 99.0974 17.5997 99.1369 17.4865L99.3606 17.1128L99.3974 16.7023L99.7711 15.8786L100.034 15.4286L100.334 14.6049L100.447 14.2313C100.447 14.0076 100.484 13.8207 100.561 13.5944L100.674 13.2944C100.747 13.0707 100.824 12.9207 100.937 12.7707L101.011 12.6576L101.311 12.4707C101.534 12.3207 101.724 12.2839 101.947 12.2471L101.929 12.2418Z" fill="#FF945E"/>
<path d="M139.995 30.1312L139.845 29.8312L139.432 29.0839L139.208 28.7102L138.497 27.6628L138.124 26.8391L138.05 26.6523C138.013 26.5786 137.976 26.4655 137.937 26.3891L137.45 25.5655L137.113 25.1549L136.74 24.4444L135.953 23.397L135.879 23.247C135.842 23.1339 135.766 23.0602 135.692 22.9839L135.205 22.4234L135.018 21.9734L134.645 21.1128L134.421 20.7391L134.495 19.9523L134.758 19.5418L135.021 19.2786C135.245 19.0918 135.395 18.8286 135.471 18.6418L135.771 18.1918L136.145 17.5549L136.182 17.5181C136.368 17.3681 136.445 17.2181 136.555 17.0681L136.929 16.5444L137.153 16.1339L137.753 15.2365L138.016 14.8997L138.653 14.1523L138.876 13.9655C138.95 13.8918 139.026 13.7786 139.1 13.7023L139.474 13.1786L139.697 12.8049C139.884 12.6549 139.921 12.4681 139.847 12.3181C139.774 12.2049 139.584 12.1312 139.324 12.1312L138.874 12.1681L137.826 12.2049H137.453L136.366 12.2418L135.955 12.1681L134.908 12.0944L134.458 12.1681L133.484 12.1312C133.184 12.1312 132.847 12.2049 132.511 12.3944C132.324 12.5076 132.211 12.6181 132.1 12.7312L131.987 12.8049L131.163 13.9286L130.676 14.6391L130.376 15.0497L129.89 15.8365L129.703 16.1365L129.179 16.7365L128.992 17.0365L128.318 17.747L128.095 18.1207L127.832 18.3839L127.568 18.2339L127.455 17.8234L127.418 16.8497L127.455 16.326L127.532 15.2786L127.382 14.9418L127.495 13.9312V12.976C127.445 12.5444 127.271 12.297 126.732 12.097C125.887 11.7839 123.421 11.9391 122.508 12.0602C121.255 12.226 120.771 13.1418 120.829 14.3655C120.829 14.3655 120.816 14.3497 120.797 14.3234L120.792 14.3812L120.755 15.2049V16.8891L120.792 17.8997L120.905 18.3497L120.792 19.3602V19.4339C120.755 19.5839 120.718 19.7707 120.718 19.9207L120.755 20.5207L120.682 21.0076L120.645 21.8312V22.1312L120.758 23.0286L120.721 23.5523V24.4128L120.684 24.8997L120.611 25.8734V26.3602L120.684 27.2576L120.758 27.6312V28.4918L120.871 28.9418L120.908 29.6155C120.908 29.7655 120.908 29.9155 120.982 30.0655C121.205 30.4023 121.805 30.8523 121.805 30.8523L122.629 30.8155H123.04L123.49 30.8891H124.126C124.24 30.926 124.39 30.926 124.5 30.926H125.247C125.397 30.9628 125.547 30.926 125.697 30.926L126.258 30.8891C126.371 30.8891 126.482 30.8523 126.558 30.776C126.858 30.5891 127.268 30.0286 127.268 30.0286L127.195 29.0918L127.268 28.6049L127.342 27.7812V27.2207L127.268 26.6207L127.305 26.0602L127.568 25.1997L127.792 24.8628L128.353 24.376L128.69 24.076L129.29 24.1497L129.44 24.4865L129.85 25.2339L130.074 25.6839L130.597 26.5444L130.934 26.9549L131.458 27.7786L131.682 28.0023L132.018 28.826L132.168 29.1628L132.579 29.9865C132.653 30.2865 132.766 30.5102 132.916 30.6234C133.253 30.8865 133.553 30.997 133.813 30.997L134.187 30.9602L135.124 30.9234L135.574 30.8497H136.471L136.621 30.9234C136.845 30.997 137.071 30.997 137.295 30.997H137.895L138.418 30.9602H139.542L139.879 30.9234C140.066 30.6602 140.066 30.3628 139.992 30.1365L139.995 30.1312Z" fill="#FF945E"/>
<path d="M122.116 0.718091C122.458 0.61546 122.8 0.518091 123.139 0.494407C123.479 0.470722 123.842 0.541775 124.182 0.594407C124.521 0.647038 124.837 0.802301 125.158 0.931249C125.479 1.0602 125.855 1.1023 126.142 1.29967C126.429 1.49704 126.639 1.79441 126.876 2.0523C127.113 2.3102 127.245 2.62335 127.418 2.93125C127.592 3.23914 127.889 3.47862 127.992 3.81809C128.095 4.15756 128.1 4.49178 128.124 4.81546C128.147 5.13914 128.145 5.49178 128.097 5.81546C128.05 6.13914 127.882 6.44441 127.768 6.75493C127.768 6.75757 127.9 6.79704 127.9 6.8023C127.8 7.19704 127.729 7.53125 127.782 7.8523C127.845 8.24704 128.039 8.58651 128.068 8.9023C128.095 9.18388 127.821 9.42862 127.539 9.45757C127.318 9.48125 127.034 9.40757 126.658 9.3523C126.403 9.31283 126.111 9.29704 125.784 9.19178C125.771 9.18914 125.768 9.25493 125.758 9.24967C125.461 9.41809 125.129 9.54441 124.787 9.64441C124.445 9.74441 124.095 9.73388 123.753 9.75493C123.411 9.77599 123.061 9.79967 122.718 9.74441C122.376 9.68914 122.011 9.67336 121.689 9.54178C121.368 9.4102 121.042 9.24704 120.755 9.04704C120.468 8.84704 120.237 8.57336 120 8.31546C119.763 8.05757 119.561 7.77599 119.387 7.46809C119.213 7.1602 119.008 6.86809 118.905 6.52862C118.803 6.18914 118.776 5.82072 118.753 5.48125C118.729 5.14178 118.887 4.79178 118.942 4.4523C118.997 4.11283 118.945 3.73388 119.074 3.4102C119.203 3.08651 119.495 2.84967 119.692 2.56283C119.889 2.27599 120.095 2.01546 120.353 1.77862C120.611 1.54178 120.813 1.23651 121.121 1.06283C121.429 0.889143 121.771 0.810196 122.111 0.707565L122.116 0.718091Z" fill="#FF945E"/>
<path d="M123.558 4.19442C123.36 4.19442 123.2 4.0339 123.2 3.83653V3.24706C123.2 3.04969 123.36 2.88916 123.558 2.88916C123.755 2.88916 123.916 3.04969 123.916 3.24706V3.83653C123.916 4.0339 123.755 4.19442 123.558 4.19442Z" fill="#07374F"/>
<path d="M125.318 4.20759H121.611C121.405 4.20759 121.24 4.0418 121.24 3.83654C121.24 3.63127 121.405 3.46548 121.611 3.46548H125.318C125.524 3.46548 125.69 3.63127 125.69 3.83654C125.69 4.0418 125.524 4.20759 125.318 4.20759Z" fill="#07374F"/>
<path d="M122.1 7.39707C121.953 7.39707 121.816 7.30759 121.763 7.16023C121.697 6.97338 121.792 6.76812 121.979 6.70233C121.987 6.6997 122.811 6.39181 123.508 5.63654C124.337 4.74181 124.474 3.79707 124.474 3.78917C124.5 3.59444 124.682 3.45496 124.874 3.48128C125.069 3.50759 125.208 3.68391 125.182 3.88128C125.176 3.92865 125.024 5.05233 124.032 6.12338C123.211 7.01023 122.261 7.36023 122.221 7.37601C122.182 7.3918 122.14 7.39707 122.1 7.39707Z" fill="#07374F"/>
<path d="M124.826 7.39707C124.787 7.39707 124.745 7.38917 124.705 7.37601C124.666 7.36286 123.716 7.01286 122.895 6.12338C121.905 5.05233 121.75 3.92865 121.745 3.88128C121.721 3.68654 121.858 3.50496 122.055 3.48128C122.25 3.45496 122.429 3.59444 122.455 3.78917C122.455 3.80759 122.597 4.74707 123.421 5.63654C124.119 6.39181 124.942 6.6997 124.95 6.70233C125.134 6.77075 125.232 6.97601 125.163 7.16023C125.111 7.30496 124.974 7.39707 124.826 7.39707Z" fill="#07374F"/>
<path d="M114.271 0.778627C113.929 0.675995 113.603 0.581258 113.261 0.557574C112.918 0.53389 112.568 0.578627 112.229 0.63389C111.89 0.689153 111.511 0.662837 111.19 0.791785C110.868 0.920732 110.597 1.17073 110.311 1.37073C110.024 1.57073 109.703 1.73915 109.468 1.99705C109.234 2.25494 109.016 2.54178 108.842 2.84968C108.668 3.15757 108.608 3.50757 108.508 3.84705C108.408 4.18652 108.316 4.49442 108.29 4.8181C108.263 5.14178 108.234 5.49705 108.282 5.82073C108.329 6.14442 108.54 6.44178 108.653 6.75231C108.653 6.75494 108.558 6.78652 108.561 6.79178C108.661 7.18652 108.682 7.53389 108.629 7.85757C108.566 8.25231 108.484 8.60231 108.455 8.9181C108.429 9.19968 108.59 9.4102 108.868 9.43915C109.09 9.46284 109.374 9.43126 109.75 9.37336C110.005 9.33389 110.311 9.34968 110.637 9.24442C110.65 9.24179 110.682 9.17336 110.695 9.1681C110.992 9.33652 111.3 9.47863 111.642 9.57863C111.984 9.67863 112.316 9.71021 112.658 9.73389C113 9.75757 113.345 9.77336 113.684 9.7181C114.024 9.66284 114.347 9.55231 114.668 9.42336C114.99 9.29442 115.303 9.16284 115.59 8.96284C115.876 8.76284 116.226 8.62863 116.463 8.37073C116.7 8.11284 116.771 7.73652 116.942 7.43126C117.113 7.126 117.274 6.83915 117.376 6.49705C117.479 6.15494 117.566 5.82336 117.587 5.48389C117.608 5.14442 117.65 4.77863 117.595 4.43652C117.54 4.09442 117.455 3.73915 117.326 3.4181C117.197 3.09705 116.992 2.79968 116.792 2.51284C116.592 2.226 116.318 2.01021 116.061 1.77336C115.803 1.53652 115.524 1.35757 115.216 1.18389C114.908 1.01021 114.613 0.878626 114.274 0.775995L114.271 0.778627Z" fill="#FFB48E"/>
<path d="M114.955 7.17599C114.945 7.30757 114.905 7.40494 114.834 7.4681C114.763 7.53389 114.679 7.56546 114.582 7.56546C114.508 7.56546 114.437 7.54441 114.366 7.50231C114.295 7.4602 114.239 7.39441 114.197 7.30757C114.171 7.07336 114.132 6.84441 114.076 6.62073C114.021 6.39704 113.953 6.1681 113.868 5.93389C113.539 5.93389 113.213 5.93652 112.884 5.94178C112.555 5.94704 112.226 5.94967 111.892 5.94967H111.876C111.813 6.1681 111.755 6.37862 111.7 6.57862C111.645 6.77862 111.595 6.99441 111.547 7.22336C111.505 7.33915 111.45 7.42073 111.384 7.47336C111.316 7.52599 111.245 7.55231 111.166 7.55231C111.055 7.55231 110.961 7.5102 110.882 7.42336C110.8 7.33652 110.776 7.22336 110.808 7.08389C110.974 6.33915 111.176 5.61283 111.416 4.90494C111.655 4.19704 111.958 3.49704 112.321 2.80494L112.313 2.81283C112.355 2.70231 112.445 2.63389 112.587 2.60231H112.579C112.718 2.55494 112.845 2.58125 112.953 2.68125C113.082 2.80494 113.203 2.94441 113.316 3.09967C113.429 3.25231 113.532 3.41283 113.629 3.57599C113.726 3.73915 113.816 3.90494 113.897 4.07073C113.982 4.23652 114.058 4.39704 114.132 4.54704C114.179 4.64704 114.229 4.75757 114.279 4.87862C114.332 5.00231 114.382 5.12336 114.426 5.24178C114.484 5.24178 114.545 5.24178 114.613 5.23915C114.682 5.23915 114.742 5.23389 114.8 5.23389C114.911 5.27073 114.989 5.32073 115.042 5.38125C115.095 5.44441 115.121 5.5102 115.121 5.58388C115.121 5.65757 115.092 5.72599 115.034 5.79178C114.976 5.85757 114.889 5.90231 114.768 5.92862H114.674C114.803 6.33388 114.895 6.75231 114.947 7.17862L114.955 7.17599ZM113.153 4.23915C113.089 4.12336 113.026 4.0102 112.961 3.89441C112.895 3.77862 112.832 3.67862 112.768 3.58915C112.645 3.85494 112.526 4.12336 112.421 4.39704C112.313 4.67073 112.208 4.95494 112.105 5.25231C112.371 5.25231 112.624 5.25231 112.866 5.24441C113.108 5.23915 113.361 5.23652 113.626 5.23652C113.563 5.08652 113.497 4.94178 113.432 4.80757C113.363 4.67336 113.297 4.52862 113.229 4.37862L113.15 4.23915H113.153Z" fill="#07374F"/>
<path d="M116.376 23.7313L116.303 23.2076L116.339 22.2339L116.266 21.9339L116.339 21.0365L116.226 20.626L116.3 19.7655L116.187 19.4286L116.224 18.5312L116.187 18.0444L116.3 16.8839L116.374 15.9865V15.9497C116.411 15.726 116.411 15.576 116.374 15.3497V15.276L116.261 14.4523L116.334 14.0418L116.342 13.9418C116.353 13.4734 116.363 13.1313 116.287 12.8734C116.268 12.826 116.25 12.7786 116.224 12.7312C116.197 12.676 116.166 12.626 116.129 12.576C116.124 12.5707 116.118 12.5628 116.113 12.5576C116.105 12.5497 116.097 12.5418 116.092 12.5339C115.976 12.4181 115.811 12.3207 115.574 12.2312C115.558 12.226 115.537 12.2207 115.518 12.2155C115.292 12.1734 115.042 12.1707 114.766 12.1707L114.392 12.2076L114.242 12.1707C114.129 12.1339 113.942 12.1339 113.829 12.1339H112.818L112.347 12.0997C112.184 12.1102 112.029 12.1234 111.887 12.1365C111.784 12.1549 111.679 12.176 111.584 12.2076L111.511 12.2444L110.905 12.2944C110.208 12.5286 109.832 13.0628 109.713 13.7707V14.076C109.695 14.1181 109.684 14.1628 109.671 14.2049C109.671 14.2997 109.668 14.397 109.671 14.4944C109.671 14.4944 109.655 14.4734 109.624 14.4312C109.608 14.5944 109.613 14.7628 109.634 14.9339L109.671 15.2707L109.708 15.7944V16.7312L109.634 17.1812L109.561 18.0418L109.597 18.4918V19.3891L109.784 19.7997V20.697L109.747 20.7707C109.674 21.0707 109.634 21.2576 109.674 21.5576L109.747 22.0444L109.711 22.5681L109.674 23.3549V23.8049L109.561 24.4418V25.0418L109.597 25.9786L109.634 26.3891V27.2865L109.597 27.5865L109.634 28.5234C109.597 28.7102 109.561 28.9734 109.561 29.1602L109.597 29.8707L109.634 30.3944L109.671 30.4312C110.045 30.6944 110.458 30.8418 110.718 30.8049H111.803L112.476 30.8786C112.663 30.9155 112.813 30.9155 112.963 30.8786L113.037 30.8418L113.974 30.7681H114.011C114.274 30.8418 114.534 30.8418 114.758 30.8049L114.908 30.7681C115.132 30.7312 115.395 30.7313 115.545 30.5444C115.845 30.2813 116.182 29.7576 116.182 29.7576L116.255 28.9339L116.292 28.447V27.5865L116.179 27.176L116.216 26.3155L116.366 25.7549L116.479 25.0812C116.516 24.8944 116.479 24.7444 116.479 24.5944L116.366 23.7339L116.376 23.7313Z" fill="#FF945E"/>
<path d="M44.9789 23.7128C42.4526 23.8681 39.9078 23.7523 37.371 23.7523C39.2763 21.9865 41.2684 20.6628 43.3947 19.6076C45.642 18.4892 45.9315 17.2707 44.071 15.5839C43.0289 13.3734 41.4877 12.8892 39.4473 14.1313C39.0368 14.3813 38.6868 14.7339 38.3105 15.0365C38.1789 15.0076 38.0763 15.0523 38.0078 15.1681C37.3526 15.2497 36.8289 15.5523 36.4394 16.0865C35.5447 16.0918 34.9657 17.1971 33.5894 16.7313C34.8999 14.4234 36.1289 12.1971 37.421 10.0076C38.0841 8.88126 38.2315 8.01021 36.721 7.426C36.1184 7.19179 35.5631 6.84705 35.071 6.42863C33.1131 4.76548 32.0315 5.45232 31.0368 7.58127C30.0263 9.74706 28.6631 11.7497 27.4552 13.8234C26.9605 11.7102 26.9973 9.876 26.9526 8.04179C26.8315 2.97863 27.9105 3.70495 22.4342 3.54442C20.7105 3.49442 20.3236 4.16811 20.392 5.74442C20.5078 8.35758 20.4236 10.9813 20.4236 13.5997C18.9657 12.1023 18.0184 10.476 17.0473 8.86284C14.5973 4.79442 14.621 4.83916 10.5394 7.476C9.46573 8.17074 9.17889 8.75758 9.88415 9.85758C11.1394 11.8181 12.3184 13.8286 13.5341 15.8128C13.5078 16.0813 13.492 16.2707 13.4657 16.5392C13.3631 16.6523 13.2631 16.7655 13.1605 16.876C10.7289 15.9918 8.70257 14.3576 6.4052 13.2286C5.82625 12.9444 5.12889 12.0813 4.67889 13.3971L4.72889 13.4523C4.57099 13.6418 4.41046 13.8313 4.25257 14.0207C4.25257 14.0155 4.2552 14.0102 4.25783 14.005C3.94994 14.3918 3.59468 14.7471 3.34204 15.1681C1.52099 18.1944 1.53678 18.1839 4.56836 19.9049C6.44204 20.9681 8.29204 22.0786 10.1526 23.1681C10.092 23.4128 10.0973 23.3944 10.0368 23.6392C8.30783 23.7234 6.57889 23.8102 4.84994 23.8944C3.84204 23.6734 2.83678 23.705 1.82889 23.8892C-1.25269 24.1339 0.523622 26.2602 0.376254 27.6418C0.376254 27.8207 0.376254 28.0023 0.373622 28.1813C-0.16322 30.0971 0.810465 30.3918 2.47099 30.3865C15.9999 30.3392 29.5289 30.3602 43.0578 30.3576C48.1184 30.3576 47.1394 30.7392 47.3552 26.1076C47.442 24.2286 46.8789 23.5944 44.9815 23.7102L44.9789 23.7128Z" fill="#A0DEF5"/>
<path d="M30.4474 29.1865C33.5416 29.1865 36.05 26.2304 36.05 22.5839C36.05 18.9373 33.5416 15.9812 30.4474 15.9812C27.3531 15.9812 24.8447 18.9373 24.8447 22.5839C24.8447 26.2304 27.3531 29.1865 30.4474 29.1865Z" fill="white"/>
<path d="M32.0974 27.6102C34.2818 27.6102 36.0526 25.3598 36.0526 22.5839C36.0526 19.8079 34.2818 17.5576 32.0974 17.5576C29.9129 17.5576 28.1421 19.8079 28.1421 22.5839C28.1421 25.3598 29.9129 27.6102 32.0974 27.6102Z" fill="black"/>
<path d="M30.4052 29.5549C27.0894 29.5549 24.3894 26.4523 24.3894 22.6391C24.3894 21.5655 24.5973 20.5365 25.0078 19.5786C25.0894 19.3918 25.3052 19.3049 25.492 19.3865C25.6789 19.4681 25.7657 19.6839 25.6868 19.8707C25.3157 20.7339 25.1289 21.6655 25.1289 22.6391C25.1289 26.047 27.4973 28.8181 30.4052 28.8181C33.3131 28.8181 35.6815 26.047 35.6815 22.6391C35.6815 19.2313 33.3131 16.4602 30.4052 16.4602C29.571 16.4602 28.771 16.6813 28.0315 17.1207C27.8552 17.2234 27.6289 17.1655 27.5262 16.9918C27.4236 16.8155 27.4815 16.5918 27.6552 16.4865C28.4999 15.9865 29.4499 15.7234 30.4052 15.7234C33.721 15.7234 36.421 18.826 36.421 22.6391C36.421 26.4523 33.7236 29.5549 30.4052 29.5549Z" fill="black"/>
<path d="M16.7999 29.1865C19.8941 29.1865 22.4025 26.2304 22.4025 22.5839C22.4025 18.9373 19.8941 15.9812 16.7999 15.9812C13.7056 15.9812 11.1973 18.9373 11.1973 22.5839C11.1973 26.2304 13.7056 29.1865 16.7999 29.1865Z" fill="white"/>
<path d="M18.4499 27.6102C20.6343 27.6102 22.4052 25.3598 22.4052 22.5839C22.4052 19.8079 20.6343 17.5576 18.4499 17.5576C16.2655 17.5576 14.4946 19.8079 14.4946 22.5839C14.4946 25.3598 16.2655 27.6102 18.4499 27.6102Z" fill="black"/>
<path d="M16.7577 29.5549C13.4419 29.5549 10.7419 26.4523 10.7419 22.6391C10.7419 21.5655 10.9498 20.5365 11.3604 19.5786C11.4393 19.3918 11.6577 19.3049 11.8446 19.3865C12.0314 19.4681 12.1183 19.6839 12.0367 19.8707C11.6656 20.7339 11.4788 21.6655 11.4788 22.6391C11.4788 26.047 13.8472 28.8181 16.7551 28.8181C19.663 28.8181 22.0314 26.047 22.0314 22.6391C22.0314 19.2313 19.663 16.4602 16.7551 16.4602C15.9209 16.4602 15.1209 16.6813 14.3814 17.1207C14.2077 17.226 13.9814 17.1655 13.8762 16.9918C13.7735 16.8155 13.8314 16.5891 14.0051 16.4865C14.8498 15.9865 15.7998 15.7234 16.7551 15.7234C20.0709 15.7234 22.7709 18.826 22.7709 22.6391C22.7709 26.4523 20.0735 29.5549 16.7551 29.5549H16.7577Z" fill="black"/>
</g>
<defs>
<clipPath id="clip0_789_5825">
<rect width="140" height="30.7895" fill="white" transform="translate(0 0.442291)"/>
</clipPath>
</defs>
</svg>
