<svg width="554" height="314" viewBox="0 0 554 314" fill="none" xmlns="http://www.w3.org/2000/svg">
<path d="M525.605 235.448C496.116 237.281 466.409 235.883 436.795 235.883C459.044 215.281 482.288 199.806 507.085 187.501C533.311 174.449 536.698 160.218 514.978 140.517C502.817 114.725 484.825 109.07 461.002 123.55C456.217 126.471 452.146 130.573 447.733 134.146C446.18 133.805 444.999 134.333 444.222 135.7C436.578 136.632 430.456 140.175 425.919 146.421C415.479 146.483 408.704 159.379 392.639 153.941C407.928 126.999 422.284 101.022 437.355 75.4477C445.092 62.3034 446.832 52.1421 429.182 45.3059C422.128 42.5714 415.665 38.5628 409.916 33.6531C387.077 14.2319 374.43 22.249 362.839 47.1082C351.062 72.4024 335.152 95.7701 321.045 119.977C315.265 95.3039 315.7 73.894 315.172 52.484C313.742 -6.55664 326.327 1.89549 262.408 -2.7122e-05C242.272 -0.590433 237.766 7.30236 238.574 25.6671C239.942 56.1818 238.947 86.7897 238.947 117.366C221.919 99.8718 210.887 80.8856 199.545 62.0858C170.957 14.5737 171.237 15.1019 123.601 45.8963C111.047 54.0066 107.722 60.8429 115.925 73.7075C130.561 96.609 144.358 120.039 158.528 143.251C158.248 146.39 158.031 148.596 157.751 151.734C156.57 153.039 155.358 154.376 154.177 155.65C125.776 145.333 102.159 126.254 75.3115 113.078C68.5685 109.753 60.396 99.6854 55.1445 115.036L55.7349 115.688C53.8705 117.895 52.0371 120.101 50.1726 122.338C50.1726 122.276 50.2037 122.214 50.2348 122.152C46.6302 126.658 42.4974 130.822 39.5453 135.731C18.2907 171.031 18.4771 170.938 53.8704 191.012C75.7465 203.441 97.343 216.368 119.033 229.078C118.349 231.936 118.38 231.719 117.696 234.578C97.5294 235.572 77.3313 236.566 57.1643 237.561C45.4183 234.982 33.6724 235.354 21.8953 237.499C-14.0884 240.357 6.66903 265.185 4.92889 281.313C4.92889 283.426 4.9289 285.508 4.89783 287.621C-1.37912 309.963 9.99396 313.412 29.3841 313.35C187.302 312.791 345.22 313.071 503.169 313.008C562.241 313.008 550.806 317.452 553.323 263.414C554.348 241.476 547.761 234.08 525.605 235.448Z" fill="#A0DEF5"/>
<path d="M355.972 299.336C392.097 299.336 421.383 264.833 421.383 222.272C421.383 179.711 392.097 145.209 355.972 145.209C319.847 145.209 290.561 179.711 290.561 222.272C290.561 264.833 319.847 299.336 355.972 299.336Z" fill="white"/>
<path d="M375.238 280.94C400.723 280.94 421.383 254.674 421.383 222.272C421.383 189.871 400.723 163.605 375.238 163.605C349.753 163.605 329.094 189.871 329.094 222.272C329.094 254.674 349.753 280.94 375.238 280.94Z" fill="black"/>
<path d="M355.475 303.655C316.757 303.655 285.279 267.454 285.279 222.925C285.279 210.402 287.703 198.376 292.488 187.221C293.42 185.046 295.968 184.02 298.143 184.952C300.319 185.885 301.344 188.433 300.412 190.608C296.093 200.676 293.886 211.552 293.886 222.925C293.886 262.7 321.511 295.048 355.475 295.048C389.439 295.048 417.064 262.7 417.064 222.925C417.064 183.15 389.439 150.802 355.475 150.802C345.718 150.802 336.396 153.381 327.757 158.508C325.706 159.72 323.065 159.037 321.853 156.986C320.641 154.935 321.325 152.294 323.376 151.082C333.226 145.271 344.319 142.164 355.475 142.164C394.193 142.164 425.671 178.365 425.671 222.894C425.671 267.423 394.162 303.624 355.475 303.624V303.655Z" fill="black"/>
<path d="M196.656 299.336C232.781 299.336 262.066 264.833 262.066 222.272C262.066 179.711 232.781 145.209 196.656 145.209C160.53 145.209 131.245 179.711 131.245 222.272C131.245 264.833 160.53 299.336 196.656 299.336Z" fill="white"/>
<path d="M215.922 280.94C241.407 280.94 262.067 254.674 262.067 222.272C262.067 189.871 241.407 163.605 215.922 163.605C190.437 163.605 169.777 189.871 169.777 222.272C169.777 254.674 190.437 280.94 215.922 280.94Z" fill="black"/>
<path d="M196.159 303.655C157.44 303.655 125.962 267.454 125.962 222.925C125.962 210.402 128.386 198.376 133.172 187.221C134.104 185.046 136.652 184.02 138.827 184.953C141.002 185.885 142.028 188.433 141.095 190.608C136.776 200.676 134.57 211.552 134.57 222.925C134.57 262.7 162.195 295.048 196.19 295.048C230.185 295.048 257.778 262.7 257.778 222.925C257.778 183.15 230.154 150.802 196.19 150.802C186.432 150.802 177.11 153.381 168.472 158.509C166.421 159.72 163.78 159.037 162.568 156.986C161.356 154.935 162.039 152.294 164.09 151.082C173.941 145.271 185.034 142.195 196.19 142.195C234.908 142.195 266.386 178.396 266.386 222.925C266.386 267.454 234.877 303.655 196.19 303.655H196.159Z" fill="black"/>
</svg>
