<svg xmlns="http://www.w3.org/2000/svg" width="81" height="81" viewBox="0 0 81 81" fill="none">
  <path d="M70.107 0.923828H10.893C5.1531 0.923828 0.5 5.58859 0.5 11.3429V70.5048C0.5 76.2591 5.1531 80.9238 10.893 80.9238H70.107C75.8469 80.9238 80.5 76.2591 80.5 70.5048V11.3429C80.5 5.58859 75.8469 0.923828 70.107 0.923828Z" fill="#DCF1FB"/>
  <path d="M14.5981 13.999C14.5981 14.3799 14.5221 14.7799 14.3131 15.1419C13.1541 17.2942 9.81006 16.418 9.81006 13.999C9.81006 11.0085 14.5601 10.8371 14.5981 13.999Z" fill="#FF945E"/>
  <path d="M20.8111 13.065C20.9821 13.4079 21.0961 13.7888 21.0771 14.2079C21.0201 16.665 17.6381 17.4079 16.5361 15.2364C15.1871 12.5698 19.3291 10.246 20.8111 13.065Z" fill="#FF945E"/>
  <path d="M27.5941 14.7807C27.4991 15.1426 27.3091 15.5045 27.0241 15.8092C25.7321 17.1616 23.2431 16.3807 22.9201 14.533C22.6161 12.8188 24.1931 11.5426 25.7891 11.9045C27.1381 12.1902 27.9551 13.4283 27.5941 14.7807Z" fill="#FF945E"/>
  <path d="M64.4917 39H44.8466C40.513 39 37 42.5201 37 46.8624V66.547C37 70.8893 40.513 74.4094 44.8466 74.4094H64.4917C68.8252 74.4094 72.3383 70.8893 72.3383 66.547V46.8624C72.3383 42.5201 68.8252 39 64.4917 39Z" fill="white"/>
  <path d="M55.076 52.7853C54.423 52.7853 53.8961 52.2573 53.8961 51.603V49.3648C53.8961 48.7106 54.423 48.1826 55.076 48.1826C55.7289 48.1826 56.2559 48.7106 56.2559 49.3648V51.603C56.2559 52.2573 55.7289 52.7853 55.076 52.7853Z" fill="#07374F"/>
  <path d="M61.7658 52.7854H47.6649C47.0119 52.7854 46.485 52.2574 46.485 51.6031C46.485 50.9489 47.0119 50.4209 47.6649 50.4209H61.7658C62.4187 50.4209 62.9457 50.9489 62.9457 51.6031C62.9457 52.2574 62.4187 52.7854 61.7658 52.7854Z" fill="#07374F"/>
  <path d="M49.5435 64.986C49.0624 64.986 48.6042 64.6876 48.4324 64.2055C48.2147 63.5972 48.524 62.92 49.1426 62.6904C49.1769 62.6904 52.3385 61.4967 55.0189 58.5928C58.2034 55.1379 58.7303 51.4879 58.7303 51.4535C58.8219 50.8108 59.4062 50.3516 60.0476 50.432C60.6891 50.5123 61.1473 51.1092 61.0671 51.7519C61.0442 51.9356 60.4715 56.148 56.7486 60.1882C53.6558 63.5398 50.0933 64.8597 49.933 64.9057C49.7955 64.9516 49.6695 64.9745 49.532 64.9745L49.5435 64.986Z" fill="#07374F"/>
  <path d="M59.8988 64.9856C59.7613 64.9856 59.6353 64.9627 59.4979 64.9168C59.3489 64.8594 55.775 63.5394 52.6937 60.1994C48.9708 56.1591 48.3866 51.9352 48.3637 51.7631C48.2835 51.1203 48.7418 50.5235 49.3832 50.4431C50.0362 50.3513 50.6203 50.8219 50.7005 51.4646C50.7005 51.522 51.2389 55.1605 54.4234 58.6039C57.1038 61.5078 60.2768 62.7015 60.2997 62.713C60.9068 62.9426 61.2275 63.6198 60.9984 64.2281C60.8266 64.7102 60.3684 65.0086 59.8873 65.0086L59.8988 64.9856Z" fill="#07374F"/>
  <path d="M36.4917 24H16.8466C12.513 24 9 27.5201 9 31.8624V51.547C9 55.8893 12.513 59.4094 16.8466 59.4094H36.4917C40.8252 59.4094 44.3382 55.8893 44.3382 51.547V31.8624C44.3382 27.5201 40.8252 24 36.4917 24Z" fill="white"/>
  <path d="M33.5364 48.4126C33.5134 48.7569 33.4333 49.0324 33.2615 49.2505C33.1011 49.4686 32.9064 49.5948 32.6658 49.6407C32.4367 49.6866 32.1961 49.6407 31.967 49.5145C31.7379 49.3882 31.5318 49.1701 31.3714 48.8717C31.2683 48.0223 31.108 47.1959 30.9132 46.381C30.7185 45.5661 30.4779 44.7511 30.2145 43.9362L23.0781 43.9936C23.0781 43.9936 22.9979 43.9936 22.9521 43.9821C22.9062 43.9706 22.8719 43.9706 22.826 43.9706C22.3793 45.4972 21.9669 47.0811 21.6118 48.7225C21.4744 49.1013 21.2568 49.3538 20.9933 49.48C20.7298 49.6063 20.4664 49.6293 20.2258 49.5604C19.9853 49.4915 19.7905 49.3308 19.6302 49.0783C19.4812 48.8258 19.4354 48.5044 19.5041 48.1027C20.0998 45.4972 20.81 42.9376 21.6462 40.4469C22.4824 37.9562 23.5248 35.5229 24.7849 33.1469C24.8879 32.8026 25.14 32.5845 25.5409 32.5042C25.7356 32.4353 25.9303 32.4238 26.1022 32.4583C26.274 32.4927 26.4343 32.5845 26.5603 32.7108C26.5833 32.7108 26.5832 32.7108 26.5832 32.7222C26.5832 32.7222 26.5833 32.7337 26.6062 32.7337C27.534 33.629 28.3244 34.6505 28.943 35.7869C29.573 36.9232 30.1457 38.071 30.6612 39.2417C30.8559 39.6549 31.0392 40.0681 31.211 40.4813C31.3828 40.8945 31.5432 41.3077 31.7036 41.721L33.1354 41.698C33.4791 41.8013 33.7311 41.9735 33.8915 42.1801C34.0518 42.3981 34.132 42.6162 34.1206 42.8458C34.1091 43.0753 34.0175 43.282 33.8342 43.4886C33.6509 43.6952 33.3989 43.8329 33.0553 43.9132H32.494C32.7231 44.6478 32.9292 45.3939 33.1011 46.14C33.2729 46.886 33.3989 47.6436 33.4906 48.4241L33.5364 48.4126ZM26.1022 35.431C25.5981 36.4526 25.14 37.4971 24.7161 38.5645C24.2923 39.632 23.9028 40.6994 23.5477 41.7783L29.4241 41.721C29.195 41.1815 28.9544 40.6535 28.7139 40.1255C28.4733 39.5975 28.2213 39.081 27.9693 38.5645C27.6829 38.048 27.3966 37.5085 27.1102 36.9691C26.8238 36.4296 26.4916 35.9131 26.1136 35.431H26.1022Z" fill="#07374F"/>
</svg>