<svg xmlns="http://www.w3.org/2000/svg" width="106" height="106" viewBox="0 0 106 106" fill="none">
	<g clip-path="url(#clip0_1117_22288)">
		<path d="M94.8 2.36176H10.9286C5.95803 2.36176 1.92859 6.39119 1.92859 11.3618V95.2332C1.92859 100.204 5.95803 104.233 10.9286 104.233H94.8C99.7706 104.233 103.8 100.204 103.8 95.2332V11.3618C103.8 6.39119 99.7706 2.36176 94.8 2.36176Z" fill="#DBE9F0"/>
		<path d="M75.4285 105.75C74.9057 105.622 74.4171 105.75 73.8942 105.827C73.5171 105.879 73.1057 105.707 72.7199 105.707C72.2057 105.707 72.0685 105.956 71.7428 105.93V102.51C72.5142 102.51 73.3799 102.956 73.8257 103.007C74.4085 103.067 74.9828 102.81 75.4371 102.939C75.9599 103.102 76.4485 103.187 76.9028 103.222C77.6057 103.273 77.4085 102.947 77.9999 102.819C78.2828 102.75 78.6342 102.973 79.3457 102.69C79.6199 102.579 80.2114 102.716 80.5114 102.656C80.9571 102.57 81.4114 102.51 81.9342 102.51C82.2171 102.51 82.6028 102.587 83.0399 102.682C83.5628 102.81 84.8914 102.553 85.3885 102.682C85.8942 102.819 86.6399 103.222 87.0342 103.007C87.5742 103.007 88.5257 102.519 89.5971 102.536C90.1114 102.545 90.6257 102.596 91.1142 102.716C91.5942 102.827 92.0657 102.819 92.5457 102.759L93.5057 102.613C93.9428 102.545 94.3714 102.493 94.8085 102.527V105.947C93.9942 105.947 94.0114 105.819 93.5571 105.785C93.1799 105.759 92.8542 105.947 92.4085 105.947C91.9285 105.947 91.4828 105.63 91.1057 105.519C90.5828 105.356 90.0942 105.682 89.6399 105.647C88.6971 105.587 88.6714 105.347 87.8914 105.536C87.0771 105.733 86.6999 105.947 86.0657 105.947C85.5085 105.947 84.4371 105.493 83.9314 105.493C83.2714 105.493 82.7914 105.639 82.4999 105.639C81.8571 105.639 80.5457 105.099 80.0828 105.142C78.8314 105.142 78.5657 105.956 76.9371 105.939C76.4228 105.93 75.9085 105.879 75.4199 105.759L75.4285 105.75Z" fill="#DBE9F0"/>
		<path d="M52.3715 105.75C51.8486 105.622 51.3601 105.75 50.8372 105.827C50.4601 105.879 50.0486 105.707 49.6629 105.707C49.1486 105.707 49.0115 105.956 48.6858 105.93V102.51C49.4572 102.51 50.3229 102.956 50.7686 103.007C51.3515 103.067 51.9258 102.81 52.3801 102.939C52.9029 103.102 53.3915 103.187 53.8458 103.222C54.5486 103.273 54.3515 102.947 54.9429 102.819C55.2258 102.75 55.5772 102.973 56.2886 102.69C56.5629 102.579 57.1544 102.716 57.4544 102.656C57.9001 102.57 58.3544 102.51 58.8772 102.51C59.1601 102.51 59.5458 102.587 59.9829 102.682C60.5058 102.81 61.8344 102.553 62.3315 102.682C62.8372 102.819 63.5829 103.222 63.9772 103.007C64.5172 103.007 65.4686 102.519 66.5401 102.536C67.0544 102.545 67.5687 102.596 68.0572 102.716C68.5372 102.827 69.0086 102.819 69.4886 102.759L70.4487 102.613C70.8858 102.545 71.3144 102.493 71.7515 102.527V105.947C70.9372 105.947 70.9544 105.819 70.5001 105.785C70.1229 105.759 69.7972 105.947 69.3515 105.947C68.8715 105.947 68.4258 105.63 68.0486 105.519C67.5258 105.356 67.0372 105.682 66.5829 105.647C65.6401 105.587 65.6144 105.347 64.8344 105.536C64.0201 105.733 63.6429 105.947 63.0087 105.947C62.4515 105.947 61.3801 105.493 60.8744 105.493C60.2144 105.493 59.7344 105.639 59.4429 105.639C58.8001 105.639 57.4886 105.099 57.0258 105.142C55.7744 105.142 55.5086 105.956 53.8801 105.939C53.3658 105.93 52.8515 105.879 52.3629 105.759L52.3715 105.75Z" fill="#DBE9F0"/>
		<path d="M29.3143 105.75C28.7914 105.622 28.3028 105.75 27.78 105.827C27.4028 105.879 26.9914 105.707 26.6057 105.707C26.0914 105.707 25.9543 105.956 25.6285 105.93V102.51C26.4 102.51 27.2657 102.956 27.7114 103.007C28.2943 103.067 28.8685 102.81 29.3228 102.939C29.8457 103.102 30.3343 103.187 30.7885 103.222C31.4914 103.273 31.2943 102.947 31.8857 102.819C32.1685 102.75 32.52 102.973 33.2314 102.69C33.5057 102.579 34.0971 102.716 34.3971 102.656C34.8428 102.57 35.2971 102.51 35.82 102.51C36.1028 102.51 36.4885 102.587 36.9257 102.682C37.4485 102.81 38.7771 102.553 39.2743 102.682C39.78 102.819 40.5257 103.222 40.92 103.007C41.46 103.007 42.4114 102.519 43.4828 102.536C43.9971 102.545 44.5114 102.596 45 102.716C45.48 102.827 45.9514 102.819 46.4314 102.759L47.3914 102.613C47.8285 102.545 48.2571 102.493 48.6943 102.527V105.947C47.88 105.947 47.8971 105.819 47.4428 105.785C47.0657 105.759 46.74 105.947 46.2943 105.947C45.8143 105.947 45.3685 105.63 44.9914 105.519C44.4685 105.356 43.98 105.682 43.5257 105.647C42.5828 105.587 42.5571 105.347 41.7771 105.536C40.9628 105.733 40.5857 105.947 39.9514 105.947C39.3943 105.947 38.3228 105.493 37.8171 105.493C37.1571 105.493 36.6771 105.639 36.3857 105.639C35.7428 105.639 34.4314 105.099 33.9685 105.142C32.7171 105.142 32.4514 105.956 30.8228 105.939C30.3085 105.93 29.7943 105.879 29.3057 105.759L29.3143 105.75Z" fill="#DBE9F0"/>
		<path d="M5.70858 104.353C5.23715 103.942 4.71429 103.727 4.18287 103.393C3.82287 103.127 3.55715 102.699 3.27429 102.356C2.86287 101.919 2.58001 101.945 2.36572 101.619L5.10858 99.5703C5.45144 100.076 5.67429 100.873 5.94001 101.182C6.30001 101.55 6.84858 101.619 7.12287 101.919C7.44001 102.279 7.79144 102.553 8.16001 102.716C8.72572 102.982 8.67429 102.605 9.18001 102.605C9.41144 102.605 9.69429 102.87 10.3029 102.656C10.5343 102.553 10.9972 102.725 11.34 102.656C11.7857 102.57 12.24 102.51 12.7629 102.51C13.0457 102.51 13.4314 102.587 13.8686 102.682C14.3914 102.81 15.72 102.553 16.2172 102.682C16.7229 102.819 17.4686 103.222 17.8629 103.007C18.4029 103.007 19.3543 102.519 20.4257 102.536C20.94 102.545 21.4543 102.596 21.9429 102.716C22.4229 102.827 22.8943 102.819 23.3743 102.759L24.3343 102.613C24.7714 102.545 25.2 102.493 25.6372 102.527V105.947C24.8229 105.947 24.84 105.819 24.3857 105.785C24.0086 105.759 23.6829 105.947 23.2372 105.947C22.7572 105.947 22.3114 105.63 21.9343 105.519C21.4114 105.356 20.9229 105.682 20.4686 105.647C19.5257 105.587 19.5 105.347 18.72 105.536C17.9057 105.733 17.5286 105.947 16.8943 105.947C16.3372 105.947 15.2657 105.493 14.76 105.493C14.1 105.493 13.62 105.639 13.3286 105.639C12.6857 105.639 11.3743 105.099 10.9114 105.142C10.2257 105.116 9.79715 105.296 9.28287 105.407C9.02572 105.476 8.74287 105.527 8.41715 105.51C8.09144 105.51 7.69715 105.459 7.25144 105.279C6.66858 105.073 6.14572 104.747 5.70001 104.362H5.70858V104.353Z" fill="#DBE9F0"/>
		<path d="M0.411376 81.6218C0.539948 81.0989 0.411376 80.6103 0.334233 80.0875C0.282805 79.7103 0.454233 79.2989 0.454233 78.9132C0.454233 78.3989 0.205662 78.2617 0.231376 77.936H3.65138C3.65138 78.7075 3.20566 79.5732 3.15423 80.0189C3.09423 80.6017 3.35138 81.176 3.2228 81.6303C3.05995 82.1532 2.97423 82.6417 2.93995 83.096C2.88852 83.7989 3.21423 83.6018 3.3428 84.1932C3.41138 84.476 3.18852 84.8275 3.47138 85.5389C3.5828 85.8132 3.44566 86.4046 3.50566 86.7046C3.59138 87.1503 3.65138 87.6046 3.65138 88.1275C3.65138 88.4103 3.57423 88.796 3.47995 89.2332C3.35138 89.756 3.60852 91.0846 3.47995 91.5817C3.3428 92.0875 2.93995 92.8332 3.15423 93.2275C3.15423 93.5017 3.27423 93.8703 3.39423 94.316C3.51423 94.7532 3.62566 95.3018 3.65138 95.696C3.65138 95.9103 3.65138 96.116 3.66852 96.3217L3.65138 96.956C3.62566 97.3675 3.77138 97.7532 3.96852 98.1046C4.11423 98.336 4.28566 98.5418 4.43995 98.7646C4.68852 99.0303 4.89423 99.3132 5.09138 99.6046L2.34852 101.653C1.76566 100.873 1.93709 100.787 1.67995 100.333C1.50852 99.9303 1.14852 99.6732 0.959948 99.176C0.865662 98.9103 0.839948 98.6275 0.848519 98.3532C0.874233 98.0789 0.917091 97.8218 0.917091 97.5989C0.917091 97.2903 0.848519 97.016 0.745662 96.7503C0.642805 96.4846 0.539948 96.2189 0.548519 95.9532C0.548519 95.396 0.617091 95.1303 0.659948 94.9246C0.702805 94.7017 0.719948 94.5046 0.625662 94.1103C0.428519 93.296 0.214233 92.9189 0.214233 92.2846C0.214233 91.7275 0.668519 90.656 0.668519 90.1503C0.668519 89.4903 0.522805 89.0103 0.522805 88.7189C0.522805 88.076 1.0628 86.7646 1.01995 86.3018C1.01995 85.0503 0.205662 84.7846 0.222805 83.156C0.231376 82.6417 0.282805 82.1275 0.402805 81.6389L0.411376 81.6218Z" fill="#DBE9F0"/>
		<path d="M0.411376 58.5646C0.539948 58.0418 0.411376 57.5532 0.334233 57.0303C0.282805 56.6532 0.454233 56.2418 0.454233 55.856C0.454233 55.3418 0.205662 55.2046 0.231376 54.8789H3.65138C3.65138 55.6503 3.20566 56.516 3.15423 56.9618C3.09423 57.5446 3.35138 58.1189 3.2228 58.5732C3.05995 59.096 2.97423 59.5846 2.93995 60.0389C2.88852 60.7418 3.21423 60.5446 3.3428 61.1361C3.41138 61.4189 3.18852 61.7703 3.47138 62.4818C3.5828 62.7561 3.44566 63.3475 3.50566 63.6475C3.59138 64.0932 3.65138 64.5475 3.65138 65.0703C3.65138 65.3532 3.57423 65.7389 3.47995 66.176C3.35138 66.6989 3.60852 68.0275 3.47995 68.5246C3.3428 69.0303 2.93995 69.7761 3.15423 70.1703C3.15423 70.7103 3.6428 71.6618 3.62566 72.7332C3.61709 73.2475 3.56566 73.7618 3.44566 74.2503C3.33423 74.7303 3.3428 75.2018 3.4028 75.6818L3.54852 76.6418C3.61709 77.0789 3.66852 77.5075 3.63423 77.9446H0.214233C0.214233 77.1303 0.342805 77.1475 0.377091 76.6932C0.402805 76.3161 0.214233 75.9903 0.214233 75.5446C0.214233 75.0646 0.531376 74.6189 0.642805 74.2418C0.805662 73.7189 0.479948 73.2303 0.514233 72.7761C0.574233 71.8332 0.814233 71.8075 0.625662 71.0275C0.428519 70.2132 0.214233 69.836 0.214233 69.2018C0.214233 68.6446 0.668519 67.5732 0.668519 67.0675C0.668519 66.4075 0.522805 65.9275 0.522805 65.6361C0.522805 64.9932 1.0628 63.6818 1.01995 63.2189C1.01995 61.9675 0.205662 61.7018 0.222805 60.0732C0.231376 59.5589 0.282805 59.0446 0.402805 58.556L0.411376 58.5646Z" fill="#DBE9F0"/>
		<path d="M0.411376 35.4989C0.539948 34.976 0.411376 34.4875 0.334233 33.9646C0.282805 33.5875 0.454233 33.176 0.454233 32.7903C0.454233 32.276 0.205662 32.1389 0.231376 31.8132H3.65138C3.65138 32.5846 3.20566 33.4503 3.15423 33.896C3.09423 34.4789 3.35138 35.0532 3.2228 35.5075C3.05995 36.0303 2.97423 36.5189 2.93995 36.9732C2.88852 37.676 3.21423 37.4789 3.3428 38.0703C3.41138 38.3532 3.18852 38.7046 3.47138 39.416C3.5828 39.6903 3.44566 40.2817 3.50566 40.5817C3.59138 41.0275 3.65138 41.4817 3.65138 42.0046C3.65138 42.2875 3.57423 42.6732 3.47995 43.1103C3.35138 43.6332 3.60852 44.9617 3.47995 45.4589C3.3428 45.9646 2.93995 46.7103 3.15423 47.1046C3.15423 47.6446 3.6428 48.596 3.62566 49.6675C3.61709 50.1817 3.56566 50.696 3.44566 51.1846C3.33423 51.6646 3.3428 52.136 3.4028 52.616L3.54852 53.576C3.61709 54.0132 3.66852 54.4417 3.63423 54.8789H0.214233C0.214233 54.0646 0.342805 54.0817 0.377091 53.6275C0.402805 53.2503 0.214233 52.9246 0.214233 52.4789C0.214233 51.9989 0.531376 51.5532 0.642805 51.176C0.805662 50.6532 0.479948 50.1646 0.514233 49.7103C0.574233 48.7675 0.814233 48.7417 0.625662 47.9617C0.428519 47.1475 0.214233 46.7703 0.214233 46.136C0.214233 45.5789 0.668519 44.5075 0.668519 44.0017C0.668519 43.3417 0.522805 42.8617 0.522805 42.5703C0.522805 41.9275 1.0628 40.616 1.01995 40.1532C1.01995 38.9017 0.205662 38.636 0.222805 37.0075C0.231376 36.4932 0.282805 35.9789 0.402805 35.4903L0.411376 35.4989Z" fill="#DBE9F0"/>
		<path d="M0.411443 12.4418C0.548586 11.8932 0.385729 11.4818 0.360015 10.8218C0.317158 10.376 0.557158 9.91319 0.634301 9.47604C0.737158 8.88462 0.565729 8.67033 0.685729 8.30176L3.96001 9.2789C3.79716 9.86176 3.23144 10.5046 3.18001 10.9075C3.07716 11.3789 3.36001 12.0132 3.22287 12.4503C3.06001 12.9732 2.9743 13.4618 2.94002 13.916C2.88859 14.6189 3.2143 14.4218 3.34287 15.0132C3.41144 15.296 3.18859 15.6475 3.47144 16.3589C3.58287 16.6332 3.44573 17.2246 3.50573 17.5246C3.59144 17.9703 3.65144 18.4246 3.65144 18.9475C3.65144 19.2303 3.5743 19.616 3.48001 20.0532C3.35144 20.576 3.60859 21.9046 3.48001 22.4018C3.34287 22.9075 2.94002 23.6532 3.1543 24.0475C3.1543 24.5875 3.64287 25.5389 3.62573 26.6103C3.61716 27.1246 3.56573 27.6389 3.44573 28.1275C3.3343 28.6075 3.34287 29.0789 3.40287 29.5589L3.54859 30.5189C3.61716 30.956 3.66859 31.3846 3.6343 31.8218H0.214301C0.214301 31.0075 0.342872 31.0246 0.377158 30.5703C0.402872 30.1932 0.214301 29.8675 0.214301 29.4218C0.214301 28.9418 0.531443 28.496 0.642872 28.1189C0.805729 27.596 0.480015 27.1075 0.514301 26.6532C0.574301 25.7103 0.814301 25.6846 0.625729 24.9046C0.428586 24.0903 0.214301 23.7132 0.214301 23.0789C0.214301 22.5218 0.668586 21.4503 0.668586 20.9446C0.668586 20.2846 0.522872 19.8046 0.522872 19.5132C0.522872 18.8703 1.06287 17.5589 1.02001 17.096C1.02001 15.8532 0.205729 15.5789 0.214301 13.9589C0.222872 13.4446 0.274301 12.9303 0.394301 12.4418H0.411443Z" fill="#DBE9F0"/>
		<path d="M18.7715 0.836055C19.2943 0.964627 19.7829 0.827484 20.3057 0.758912C20.6829 0.707484 21.0943 0.878912 21.48 0.878912C21.9943 0.878912 22.1315 0.630341 22.4572 0.656055V4.07606C21.6857 4.07606 20.82 3.63034 20.3743 3.57891C19.7915 3.51891 19.2172 3.77606 18.7629 3.64748C18.24 3.48463 17.7515 3.39891 17.2972 3.36463C16.5943 3.3132 16.7915 3.63891 16.2 3.76748C15.9172 3.83606 15.5657 3.6132 14.8543 3.89606C14.58 4.00748 13.9886 3.87034 13.6886 3.93034C13.2429 4.01606 12.7886 4.07606 12.2657 4.07606C11.9829 4.07606 11.5972 3.99891 11.16 3.90463C10.86 3.83606 10.5257 3.90463 10.14 3.94748C9.77146 4.04177 9.40289 4.11034 9.19718 4.11891C8.7686 4.06748 8.01432 3.9132 7.77432 4.25606C7.32861 4.4532 6.86575 5.25034 6.20575 5.79034C6.05146 5.92748 5.88003 6.05606 5.70861 6.17606C5.54575 6.3132 5.38289 6.4332 5.19432 6.54463C4.86861 6.78463 4.61146 7.11034 4.47432 7.48748C4.36289 7.73606 4.29432 8.00177 4.23432 8.25891C4.13146 8.60177 4.08861 8.9532 3.93432 9.27891L0.660034 8.30177C0.977177 7.38463 1.08003 7.44463 1.33718 6.98177C1.54289 6.59606 1.55146 6.15891 1.83432 5.7132C2.11718 5.21606 2.72575 4.9932 3.06861 4.73606C3.33432 4.56463 3.48861 4.32463 3.64289 4.08463C3.80575 3.8532 3.96003 3.6132 4.16575 3.45034C5.05718 2.80748 5.21146 3.00463 5.88003 2.38748C6.60003 1.77034 6.95146 1.40177 7.67146 1.1532C7.98861 1.05891 8.49432 1.04177 8.97432 1.05891C9.45432 1.10177 9.9086 1.12748 10.2 1.13606C10.98 1.08463 11.4257 0.956055 11.7172 0.956055C12.36 0.956055 13.6715 1.49606 14.1343 1.4532C15.3686 1.44463 15.6343 0.630341 17.2629 0.647484C17.7772 0.656055 18.2915 0.707484 18.78 0.827484L18.7715 0.836055Z" fill="#DBE9F0"/>
		<path d="M41.8285 0.836059C42.3513 0.96463 42.8399 0.827487 43.3628 0.758916C43.7399 0.707487 44.1513 0.878916 44.5371 0.878916C45.0513 0.878916 45.1885 0.630345 45.5142 0.656059V4.07606C44.7428 4.07606 43.8771 3.63034 43.4313 3.57892C42.8485 3.51892 42.2742 3.77606 41.8199 3.64749C41.2971 3.48463 40.8085 3.39892 40.3542 3.36463C39.6513 3.3132 39.8485 3.63892 39.2571 3.76749C38.9742 3.83606 38.6228 3.6132 37.9113 3.89606C37.6371 4.00749 37.0456 3.87034 36.7456 3.93034C36.2999 4.01606 35.8456 4.07606 35.3228 4.07606C35.0399 4.07606 34.6542 3.99892 34.2171 3.90463C33.6942 3.77606 32.3656 4.0332 31.8685 3.90463C31.3628 3.76749 30.6171 3.36463 30.2228 3.57892C29.6828 3.57892 28.7313 4.06749 27.6599 4.05034C27.1456 4.04177 26.6313 3.99034 26.1428 3.87034C25.6628 3.75892 25.1913 3.76749 24.7113 3.82749L23.7513 3.9732C23.3142 4.04177 22.8856 4.0932 22.4485 4.05892V0.638916C23.2628 0.638916 23.2456 0.767487 23.6999 0.801773C24.0771 0.827487 24.4028 0.638916 24.8485 0.638916C25.3285 0.638916 25.7742 0.956059 26.1513 1.06749C26.6742 1.23034 27.1628 0.90463 27.6171 0.938916C28.5599 0.998916 28.5856 1.23892 29.3656 1.05034C30.1799 0.853202 30.5571 0.638916 31.1913 0.638916C31.7485 0.638916 32.8199 1.0932 33.3256 1.0932C33.9856 1.0932 34.4656 0.947487 34.7571 0.947487C35.3999 0.947487 36.7113 1.48749 37.1742 1.44463C38.4256 1.44463 38.6913 0.630345 40.3199 0.647487C40.8342 0.656059 41.3485 0.707487 41.8371 0.827487L41.8285 0.836059Z" fill="#DBE9F0"/>
		<path d="M64.8943 0.836059C65.4171 0.96463 65.9057 0.827487 66.4286 0.758916C66.8057 0.707487 67.2171 0.878916 67.6029 0.878916C68.1171 0.878916 68.2543 0.630345 68.58 0.656059V4.07606C67.8086 4.07606 66.9429 3.63034 66.4971 3.57892C65.9143 3.51892 65.34 3.77606 64.8857 3.64749C64.3629 3.48463 63.8743 3.39892 63.42 3.36463C62.7171 3.3132 62.9143 3.63892 62.3229 3.76749C62.04 3.83606 61.6886 3.6132 60.9771 3.89606C60.7029 4.00749 60.1114 3.87034 59.8114 3.93034C59.3657 4.01606 58.9114 4.07606 58.3886 4.07606C58.1057 4.07606 57.72 3.99892 57.2829 3.90463C56.76 3.77606 55.4314 4.0332 54.9343 3.90463C54.4286 3.76749 53.6829 3.36463 53.2886 3.57892C52.7486 3.57892 51.7971 4.06749 50.7257 4.05034C50.2114 4.04177 49.6971 3.99034 49.2086 3.87034C48.7286 3.75892 48.2571 3.76749 47.7771 3.82749L46.8171 3.9732C46.38 4.04177 45.9514 4.0932 45.5143 4.05892V0.638916C46.3286 0.638916 46.3114 0.767487 46.7657 0.801773C47.1429 0.827487 47.4686 0.638916 47.9143 0.638916C48.3943 0.638916 48.84 0.956059 49.2171 1.06749C49.74 1.23034 50.2286 0.90463 50.6829 0.938916C51.6257 0.998916 51.6514 1.23892 52.4314 1.05034C53.2457 0.853202 53.6229 0.638916 54.2571 0.638916C54.8143 0.638916 55.8857 1.0932 56.3914 1.0932C57.0514 1.0932 57.5314 0.947487 57.8229 0.947487C58.4657 0.947487 59.7771 1.48749 60.24 1.44463C61.4914 1.44463 61.7571 0.630345 63.3857 0.647487C63.9 0.656059 64.4143 0.707487 64.9029 0.827487L64.8943 0.836059Z" fill="#DBE9F0"/>
		<path d="M87.9514 0.836059C88.4743 0.96463 88.9628 0.827487 89.4857 0.758916C89.8628 0.707487 90.2743 0.878916 90.66 0.878916C91.1743 0.878916 91.3114 0.630345 91.6371 0.656059V4.07606C90.8657 4.07606 90 3.63034 89.5543 3.57892C88.9714 3.51892 88.3971 3.77606 87.9428 3.64749C87.42 3.48463 86.9314 3.39892 86.4771 3.36463C85.7743 3.3132 85.9714 3.63892 85.38 3.76749C85.0971 3.83606 84.7457 3.6132 84.0343 3.89606C83.76 4.00749 83.1686 3.87034 82.8686 3.93034C82.4228 4.01606 81.9686 4.07606 81.4457 4.07606C81.1628 4.07606 80.7771 3.99892 80.34 3.90463C79.8171 3.77606 78.4886 4.0332 77.9914 3.90463C77.4857 3.76749 76.74 3.36463 76.3457 3.57892C75.8057 3.57892 74.8543 4.06749 73.7828 4.05034C73.2686 4.04177 72.7543 3.99034 72.2657 3.87034C71.7857 3.75892 71.3143 3.76749 70.8343 3.82749L69.8743 3.9732C69.4371 4.04177 69.0086 4.0932 68.5714 4.05892V0.638916C69.3857 0.638916 69.3686 0.767487 69.8228 0.801773C70.2 0.827487 70.5257 0.638916 70.9714 0.638916C71.4514 0.638916 71.8971 0.956059 72.2743 1.06749C72.7971 1.23034 73.2857 0.90463 73.74 0.938916C74.6828 0.998916 74.7086 1.23892 75.4886 1.05034C76.3028 0.853202 76.68 0.638916 77.3143 0.638916C77.8714 0.638916 78.9428 1.0932 79.4486 1.0932C80.1086 1.0932 80.5886 0.947487 80.88 0.947487C81.5228 0.947487 82.8343 1.48749 83.2971 1.44463C84.5486 1.44463 84.8143 0.630345 86.4428 0.647487C86.9571 0.656059 87.4714 0.707487 87.96 0.827487L87.9514 0.836059Z" fill="#DBE9F0"/>
		<path d="M105.326 13.4361C105.197 13.9589 105.326 14.4475 105.403 14.9703C105.454 15.3475 105.283 15.7589 105.283 16.1446C105.283 16.6589 105.531 16.7961 105.506 17.1218H102.086C102.086 16.3503 102.531 15.4846 102.583 15.0389C102.643 14.4561 102.386 13.8818 102.514 13.4275C102.677 12.9046 102.763 12.4161 102.797 11.9618C102.849 11.2589 102.523 11.4303 102.369 10.9418C102.3 10.7189 102.48 10.3761 102.111 9.84463C101.931 9.65606 101.983 9.14177 101.811 8.92749C101.623 8.61034 101.409 8.30177 101.22 7.92463C101.1 7.73606 101.023 7.41034 100.886 7.06749C100.749 6.60463 99.8058 5.98749 99.5743 5.63606C99.4543 5.44749 99.3258 5.19034 99.1715 4.95892C99.0086 4.74463 98.8115 4.58177 98.6143 4.58177C98.1858 4.35034 97.2772 4.42749 96.4543 4.24749C96.0429 4.1532 95.6486 4.02463 95.2458 3.89606C94.8858 3.75892 94.38 3.76749 93.9086 3.82749L92.9486 3.9732C92.5115 4.04177 92.0829 4.0932 91.6458 4.05892V0.638916C92.46 0.638916 92.4429 0.767487 92.8972 0.801773C93.2743 0.827487 93.6 0.638916 94.0458 0.638916C94.2858 0.638916 94.5172 0.716059 94.7315 0.810345C94.9629 0.90463 95.2115 1.0332 95.4172 1.0932C95.7086 1.17892 96 1.17034 96.2829 1.16177C96.5658 1.16177 96.8572 1.10177 97.1058 1.19606C98.16 1.52177 98.0829 1.77892 98.9829 1.9332C99.9086 2.14749 100.414 2.20749 101.031 2.63606C101.606 3.0132 102.214 4.20463 102.557 4.64177C103.046 5.21606 103.474 5.58463 103.646 5.87606C103.851 6.18463 103.997 6.75892 104.091 7.28177C104.169 7.82177 104.22 8.31034 104.306 8.55034C104.391 8.88463 104.511 9.14177 104.64 9.3732C104.751 9.60463 104.889 9.81892 105.026 10.0418C105.171 10.2732 105.274 10.5218 105.369 10.8389C105.411 10.9932 105.454 11.1732 105.48 11.3618C105.497 11.5246 105.514 11.7046 105.506 11.9103C105.506 12.4246 105.446 12.9389 105.326 13.4275V13.4361Z" fill="#DBE9F0"/>
		<path d="M105.326 36.4932C105.197 37.016 105.326 37.5046 105.403 38.0274C105.454 38.4046 105.283 38.816 105.283 39.2017C105.283 39.716 105.531 39.8532 105.506 40.1789H102.086C102.086 39.4074 102.531 38.5417 102.583 38.096C102.643 37.5132 102.386 36.9389 102.514 36.4846C102.677 35.9617 102.763 35.4732 102.797 35.0189C102.849 34.316 102.523 34.5132 102.394 33.9217C102.326 33.6389 102.549 33.2874 102.266 32.576C102.154 32.3017 102.291 31.7103 102.231 31.4103C102.146 30.9646 102.086 30.5103 102.086 29.9874C102.086 29.7046 102.163 29.3189 102.257 28.8817C102.386 28.3589 102.129 27.0303 102.257 26.5332C102.394 26.0274 102.797 25.2817 102.583 24.8874C102.583 24.3474 102.094 23.396 102.111 22.3246C102.12 21.8103 102.171 21.296 102.291 20.8074C102.403 20.3274 102.394 19.856 102.334 19.376L102.189 18.416C102.12 17.9789 102.069 17.5503 102.103 17.1132H105.523C105.523 17.9274 105.394 17.9103 105.36 18.3646C105.334 18.7417 105.523 19.0674 105.523 19.5132C105.523 19.9932 105.206 20.4389 105.094 20.816C104.931 21.3389 105.257 21.8274 105.223 22.2817C105.163 23.2246 104.923 23.2503 105.111 24.0303C105.309 24.8446 105.523 25.2217 105.523 25.856C105.523 26.4132 105.069 27.4846 105.069 27.9903C105.069 28.6503 105.214 29.1303 105.214 29.4217C105.214 30.0646 104.674 31.376 104.717 31.8389C104.717 33.0903 105.531 33.356 105.514 34.9846C105.514 35.4989 105.454 36.0132 105.334 36.5017L105.326 36.4932Z" fill="#DBE9F0"/>
		<path d="M105.326 59.5504C105.197 60.0732 105.326 60.5618 105.403 61.0846C105.454 61.4618 105.283 61.8732 105.283 62.2589C105.283 62.7732 105.531 62.9103 105.506 63.2361H102.086C102.086 62.4646 102.531 61.5989 102.583 61.1532C102.643 60.5703 102.386 59.9961 102.514 59.5418C102.677 59.0189 102.763 58.5304 102.797 58.0761C102.849 57.3732 102.523 57.5704 102.394 56.9789C102.326 56.6961 102.549 56.3446 102.266 55.6332C102.154 55.3589 102.291 54.7675 102.231 54.4675C102.146 54.0218 102.086 53.5675 102.086 53.0446C102.086 52.7618 102.163 52.3761 102.257 51.9389C102.386 51.4161 102.129 50.0875 102.257 49.5904C102.394 49.0846 102.797 48.3389 102.583 47.9446C102.583 47.4046 102.094 46.4532 102.111 45.3818C102.12 44.8675 102.171 44.3532 102.291 43.8646C102.403 43.3846 102.394 42.9132 102.334 42.4332L102.189 41.4732C102.12 41.0361 102.069 40.6075 102.103 40.1703H105.523C105.523 40.9846 105.394 40.9675 105.36 41.4218C105.334 41.7989 105.523 42.1246 105.523 42.5703C105.523 43.0503 105.206 43.4961 105.094 43.8732C104.931 44.3961 105.257 44.8846 105.223 45.3389C105.163 46.2818 104.923 46.3075 105.111 47.0875C105.309 47.9018 105.523 48.2789 105.523 48.9132C105.523 49.4703 105.069 50.5418 105.069 51.0475C105.069 51.7075 105.214 52.1875 105.214 52.4789C105.214 53.1218 104.674 54.4332 104.717 54.8961C104.717 56.1475 105.531 56.4132 105.514 58.0418C105.514 58.5561 105.454 59.0703 105.334 59.5589L105.326 59.5504Z" fill="#DBE9F0"/>
		<path d="M105.326 82.6075C105.197 83.1303 105.326 83.6189 105.403 84.1418C105.454 84.5189 105.283 84.9303 105.283 85.3161C105.283 85.8303 105.531 85.9675 105.506 86.2932H102.086C102.086 85.5218 102.531 84.6561 102.583 84.2103C102.643 83.6275 102.386 83.0532 102.514 82.5989C102.677 82.0761 102.763 81.5875 102.797 81.1332C102.849 80.4303 102.523 80.6275 102.394 80.0361C102.326 79.7532 102.549 79.4018 102.266 78.6903C102.154 78.4161 102.291 77.8246 102.231 77.5246C102.146 77.0789 102.086 76.6246 102.086 76.1018C102.086 75.8189 102.163 75.4332 102.257 74.9961C102.386 74.4732 102.129 73.1446 102.257 72.6475C102.394 72.1418 102.797 71.396 102.583 71.0018C102.583 70.4618 102.094 69.5103 102.111 68.4389C102.12 67.9246 102.171 67.4103 102.291 66.9218C102.403 66.4418 102.394 65.9703 102.334 65.4903L102.189 64.5303C102.12 64.0932 102.069 63.6646 102.103 63.2275H105.523C105.523 64.0418 105.394 64.0246 105.36 64.4789C105.334 64.8561 105.523 65.1818 105.523 65.6275C105.523 66.1075 105.206 66.5532 105.094 66.9303C104.931 67.4532 105.257 67.9418 105.223 68.3961C105.163 69.3389 104.923 69.3646 105.111 70.1446C105.309 70.9589 105.523 71.3361 105.523 71.9703C105.523 72.5275 105.069 73.5989 105.069 74.1046C105.069 74.7646 105.214 75.2446 105.214 75.5361C105.214 76.1789 104.674 77.4903 104.717 77.9532C104.717 79.2046 105.531 79.4703 105.514 81.0989C105.514 81.6132 105.454 82.1275 105.334 82.6161L105.326 82.6075Z" fill="#DBE9F0"/>
		<path d="M99 104.876C98.3829 104.988 97.9029 105.313 97.3114 105.519C96.9 105.699 96.3772 105.57 95.94 105.648C95.34 105.69 95.1943 105.939 94.8086 105.93V102.51C95.4172 102.493 96.1972 102.853 96.5915 102.793C97.1057 102.742 97.4829 102.322 97.8857 102.296C98.1172 102.27 98.3486 102.236 98.5629 102.185C98.7686 102.116 98.9657 102.03 99.1457 101.936C99.6943 101.628 99.36 101.448 99.6686 101.053C99.78 100.839 100.2 100.822 100.38 100.17C100.466 99.9475 100.843 99.6218 100.954 99.3989C101.074 99.0389 101.229 98.7047 101.391 98.3189C101.503 98.1218 101.674 97.8561 101.889 97.5475C102.154 97.1618 102.137 96.0389 102.24 95.6446C102.411 95.2761 102.797 94.4618 102.591 94.0846C102.591 93.5446 102.103 92.5932 102.12 91.5218C102.129 91.0075 102.18 90.4932 102.3 90.0047C102.411 89.5247 102.403 89.0532 102.343 88.5732L102.197 87.6132C102.129 87.1761 102.077 86.7475 102.111 86.3104H105.531C105.531 87.1246 105.403 87.1075 105.369 87.5618C105.343 87.9389 105.531 88.2647 105.531 88.7104C105.531 89.1904 105.214 89.6361 105.103 90.0132C104.94 90.5361 105.266 91.0247 105.231 91.4789C105.171 92.4218 104.931 92.4475 105.12 93.2275C105.317 94.0418 105.531 94.4189 105.531 95.0532C105.531 95.3189 105.386 95.8504 105.249 96.2875C105.069 96.7418 104.897 97.1618 104.829 97.4361C104.666 98.1732 104.614 98.7304 104.486 99.0475C104.22 99.7761 103.029 100.796 102.729 101.173C102.531 101.456 102.394 101.696 102.274 101.928C102.154 102.159 102.094 102.416 101.974 102.648C101.863 102.888 101.734 103.136 101.546 103.41C101.331 103.659 101.066 103.942 100.663 104.199C100.397 104.353 100.131 104.508 99.8572 104.628C99.5743 104.73 99.2915 104.825 99 104.893V104.876Z" fill="#DBE9F0"/>
		<path d="M29.4428 11.4903C29.4257 11.3532 29.4086 11.2332 29.3743 11.1217C29.3057 10.9074 29.2028 10.736 29.1086 10.5989C28.8943 10.3246 28.68 10.1189 28.3457 9.81887C28.2171 9.71601 27.9943 9.46744 27.6771 9.28744C27.3771 9.09887 26.9657 8.99601 26.7343 9.00459C26.6486 9.00459 26.5286 9.02173 26.3828 9.03887C26.2971 9.03887 26.2114 9.05601 26.1086 9.07316C25.9971 9.07316 25.8771 9.10744 25.7571 9.13316C25.5686 9.17601 25.2514 9.21887 24.9428 9.34744C24.6343 9.46744 24.3428 9.67316 24.1971 9.85316C23.88 10.2732 23.7943 10.6332 23.7857 11.2846C23.8028 11.6103 23.8114 11.696 23.7857 11.8417C23.7857 11.9103 23.76 11.9617 23.7514 12.0817C23.7428 12.1932 23.7514 12.3389 23.7686 12.5274C23.8371 12.9046 24.12 13.196 24.3086 13.556C24.4457 13.8132 24.6343 14.1817 24.9943 14.3703C25.3286 14.5503 25.6286 14.5417 25.9286 14.5932C26.1086 14.6189 26.22 14.636 26.3057 14.6532C26.4 14.6703 26.52 14.6874 26.76 14.6874C27.0343 14.6703 27.1457 14.576 27.5486 14.456C27.84 14.3703 28.1828 14.2674 28.4143 14.0446C28.7314 13.736 28.9114 13.3932 29.1428 13.0246C29.2457 12.8446 29.3228 12.656 29.3743 12.4417C29.4257 12.2446 29.4343 11.9874 29.4343 11.8589C29.4343 11.7303 29.4343 11.636 29.4171 11.516L29.4428 11.4903Z" fill="#4F8199"/>
		<path d="M21.4629 11.1217C21.3943 10.9074 21.2915 10.736 21.1972 10.5989C20.9829 10.3246 20.7686 10.1189 20.4343 9.81887C20.3057 9.71601 20.0829 9.46744 19.7657 9.28744C19.4657 9.09887 19.0543 8.99601 18.8229 9.00459C18.7372 9.00459 18.6172 9.02173 18.4715 9.03887C18.3857 9.03887 18.2915 9.05601 18.1972 9.07316C18.0857 9.07316 17.9657 9.10744 17.8457 9.13316C17.6572 9.17601 17.34 9.21887 17.0315 9.34744C16.7229 9.46744 16.4315 9.67316 16.2857 9.85316C15.9686 10.2732 15.8829 10.6332 15.8743 11.2846C15.8915 11.6103 15.9 11.696 15.8743 11.8417C15.8743 11.9103 15.8486 11.9617 15.84 12.0817C15.8315 12.1932 15.84 12.3389 15.8572 12.5274C15.9257 12.9046 16.2086 13.196 16.3972 13.556C16.5343 13.8132 16.7229 14.1817 17.0829 14.3703C17.4172 14.5503 17.7172 14.5417 18.0172 14.5932C18.1972 14.6189 18.3086 14.636 18.3943 14.6532C18.4886 14.6703 18.6086 14.6874 18.8572 14.6874C19.1315 14.6703 19.2429 14.576 19.6457 14.456C19.9372 14.3703 20.28 14.2674 20.5115 14.0446C20.8286 13.736 21.0086 13.3932 21.24 13.0246C21.3429 12.8446 21.42 12.656 21.4715 12.4417C21.5229 12.2446 21.5315 11.9874 21.5315 11.8589C21.5315 11.7303 21.5315 11.636 21.5143 11.516C21.4972 11.3789 21.48 11.2589 21.4457 11.1474L21.4629 11.1217Z" fill="#4F8199"/>
		<path d="M13.5514 11.1217C13.4828 10.9074 13.38 10.736 13.2857 10.5989C13.0714 10.3246 12.8571 10.1189 12.5228 9.81887C12.3942 9.71601 12.1714 9.46744 11.8542 9.28744C11.5542 9.09887 11.1428 8.99601 10.9114 9.00459C10.8257 9.00459 10.7057 9.02173 10.56 9.03887C10.4742 9.03887 10.38 9.05601 10.2857 9.07316C10.1742 9.07316 10.0542 9.10744 9.93425 9.13316C9.74568 9.17601 9.42853 9.21887 9.11996 9.34744C8.81139 9.46744 8.51996 9.67316 8.37425 9.85316C8.05711 10.2732 7.97139 10.6332 7.96282 11.2846C7.97996 11.6103 7.98853 11.696 7.96282 11.8417C7.96282 11.9103 7.9371 11.9617 7.92853 12.0817C7.91996 12.1932 7.92853 12.3389 7.94568 12.5274C8.01425 12.9046 8.2971 13.196 8.48568 13.556C8.62282 13.8132 8.81139 14.1817 9.17139 14.3703C9.50568 14.5503 9.80568 14.5417 10.1057 14.5932C10.2857 14.6189 10.3971 14.636 10.4828 14.6532C10.5771 14.6703 10.6971 14.6874 10.9457 14.6874C11.22 14.6703 11.3314 14.576 11.7342 14.456C12.0257 14.3703 12.3685 14.2674 12.6 14.0446C12.9171 13.736 13.0971 13.3932 13.3285 13.0246C13.4314 12.8446 13.5085 12.656 13.56 12.4417C13.6114 12.2446 13.62 11.9874 13.62 11.8589C13.62 11.7303 13.62 11.636 13.6028 11.516C13.5857 11.3789 13.5685 11.2589 13.5342 11.1474L13.5514 11.1217Z" fill="#4F8199"/>
		<path d="M35.3914 68.4389C46.4071 68.4389 55.3371 59.5089 55.3371 48.4932C55.3371 37.4775 46.4071 28.5475 35.3914 28.5475C24.3757 28.5475 15.4457 37.4775 15.4457 48.4932C15.4457 59.5089 24.3757 68.4389 35.3914 68.4389Z" fill="white"/>
		<path d="M45.96 67.1617C45.3771 67.3846 44.9143 67.7017 44.3914 68.0446C44.2028 68.1646 43.98 68.2332 43.7571 68.3017C43.5257 68.3532 43.2857 68.3874 43.08 68.4646C42.5143 68.6703 42.4457 68.9617 42.0771 69.0646L41.0228 65.816C41.7343 65.5417 42.7285 65.696 43.1485 65.516C43.7057 65.2932 44.1343 64.8646 44.58 64.7103C45.12 64.5732 45.5914 64.3932 46.0114 64.1617C46.62 63.7674 46.2771 63.6217 46.6714 63.1674C46.8514 62.9446 47.2971 62.9103 47.6314 62.2074C47.7514 61.9417 48.3 61.6503 48.4628 61.3932C48.6943 61.0074 48.96 60.6303 49.3028 60.2446C49.5 60.0474 49.7657 59.7646 50.1085 59.4817C50.3057 59.3017 50.5971 58.9332 50.7943 58.5132C51.0085 58.1017 51.2143 57.6989 51.3943 57.5189C51.7885 57.1589 52.44 56.636 52.4314 56.1817C52.5685 55.9332 52.5943 55.5389 52.6285 55.076C52.6543 54.6132 52.7657 54.116 52.8857 53.6017C53.0228 53.1046 53.2028 52.6332 53.4343 52.1703C53.6143 51.716 53.6743 51.236 53.6914 50.756C53.7085 50.4303 53.6657 50.1046 53.6314 49.7874C53.58 49.3503 53.5543 48.9217 53.6143 48.4932H57.0343C56.9914 49.4532 56.8628 49.4274 56.8028 49.9503C56.76 50.3874 56.9314 50.7903 56.8371 51.3046C56.7514 51.8617 56.3571 52.3332 56.1857 52.736C55.8857 53.2932 56.0571 53.9103 55.8857 54.416C55.5343 55.4617 55.2428 55.3846 55.1228 56.3017C54.9857 57.2617 54.9257 57.7332 54.6171 58.4189C54.3428 59.036 53.2543 59.8417 52.9714 60.3389C52.5171 60.956 52.3028 61.4789 52.0971 61.7532C51.8914 62.0703 51.3857 62.3874 50.9314 62.696C50.4771 63.0046 50.0571 63.296 49.8685 63.4675C49.3457 63.9475 49.1657 64.3846 48.9257 64.8732C48.66 65.3275 48.3343 65.8246 47.5628 66.3903C47.0485 66.716 46.5 66.9732 45.9428 67.1703L45.96 67.1617Z" fill="white"/>
		<path d="M20.9057 64.3075C20.7257 64.0503 20.5029 63.8532 20.2629 63.6732C20.04 63.4846 19.8086 63.2875 19.5686 63.0903C19.2429 62.7989 19.0286 62.336 18.7457 61.9846C18.3857 61.5046 18.0857 61.5217 17.88 61.2046L20.6486 59.1903C20.88 59.4989 21.0257 59.8932 21.1629 60.2617C21.3257 60.6132 21.4543 60.9389 21.5829 61.1275C21.7629 61.3675 21.9943 61.556 22.2171 61.7274C22.4486 61.8817 22.6629 62.036 22.7914 62.2417C23.0743 62.7217 23.3829 63.1332 23.7514 63.4332C24.3 63.9132 24.3343 63.5275 24.8829 63.776C25.14 63.8875 25.3543 64.2475 26.1 64.376C26.2457 64.4017 26.4257 64.5132 26.6057 64.6417C26.7943 64.7446 26.9914 64.8646 27.1371 64.8989C27.5743 65.0017 28.0029 65.1817 28.4829 65.3617C28.7486 65.456 29.0829 65.6617 29.46 65.9017C29.6829 66.0732 30.1371 66.1675 30.6 66.2446C31.0543 66.3217 31.5 66.416 31.7229 66.5275C32.1943 66.7332 32.8886 67.2475 33.3171 67.1017C33.5914 67.1446 33.9857 67.016 34.4314 66.9303C34.8771 66.8274 35.3829 66.7674 35.9143 66.716C36.4286 66.6903 36.9429 66.7503 37.44 66.8017C37.9286 66.836 38.4 66.7589 38.8629 66.6303C39.1714 66.5446 39.4714 66.3817 39.7714 66.2703C40.1743 66.0817 40.5857 65.9617 40.9971 65.8417L42.0514 69.0903C41.1343 69.3817 41.1086 69.2189 40.5943 69.3303C40.1657 69.3989 39.8314 69.7246 39.3171 69.7846C38.76 69.8703 38.1857 69.6389 37.7486 69.5875C37.1314 69.5017 36.5914 69.8189 36.06 69.8275C34.9629 69.836 34.9457 69.5189 34.0371 69.6817C33.0771 69.8532 32.6143 69.956 31.8686 69.8532C31.2 69.7932 30.0857 69.0217 29.5371 68.876C28.7914 68.7046 28.2429 68.5932 27.9257 68.4903C27.1886 68.276 26.0743 67.0932 25.5943 66.9132C24.9686 66.5789 24.5143 66.5103 23.9743 66.4246C23.4343 66.356 22.8771 66.176 22.1143 65.5932C21.6171 65.2332 21.2143 64.7789 20.8714 64.2989H20.8886L20.9057 64.3075Z" fill="white"/>
		<path d="M15.8658 39.6046C16.2601 39.1075 16.3458 38.5246 16.6029 37.9589C16.7829 37.556 17.1858 37.2303 17.4172 36.8446C17.7172 36.3217 17.6486 36.0817 17.8886 35.7817L20.6572 37.796C20.1686 38.3789 19.4058 38.9275 19.0972 39.2789C18.7201 39.7589 18.7458 40.4189 18.4201 40.7789C18.0172 41.1817 17.7943 41.636 17.5972 42.0646C17.3143 42.7332 17.6486 42.6389 17.6229 43.2475C17.6229 43.5389 17.3143 43.8389 17.4086 44.5846C17.4343 44.8675 17.2458 45.4332 17.2458 45.7417C17.2629 46.196 17.2372 46.6417 17.2286 47.1646C17.2115 47.4389 17.1172 47.8246 16.9972 48.2617C16.8943 48.5275 16.9972 48.9903 17.0315 49.4532C17.1001 49.9075 17.1172 50.3617 17.1086 50.6103C17.0486 51.1246 16.7658 51.9475 17.0401 52.3075C17.1086 52.5732 17.3229 52.916 17.5543 53.3189C17.6658 53.516 17.7858 53.7303 17.8886 53.9532C18.0172 54.176 18.1286 54.4075 18.2229 54.656C18.3943 55.1446 18.4972 55.6417 18.6258 56.1303C18.7372 56.6017 18.9343 57.0475 19.2258 57.4332L19.8515 58.1789C19.9886 58.3417 20.1258 58.5132 20.2543 58.6932C20.4001 58.856 20.5286 59.0275 20.6486 59.2075L17.8801 61.2217C17.2972 60.4589 17.4429 60.3817 17.1943 59.9189C16.9886 59.5332 16.6286 59.2932 16.3543 58.8475C16.1058 58.3417 16.1572 57.7246 16.0715 57.2874C15.9343 56.6874 15.4715 56.2675 15.3172 55.7532C14.9829 54.6989 15.2401 54.6046 14.8286 53.7817C14.6229 53.3446 14.4172 53.036 14.2801 52.736C14.1515 52.436 14.0572 52.1446 13.9972 51.776C13.9543 51.4503 13.9715 50.9617 14.0486 50.4817C14.1343 50.0017 14.2286 49.5475 14.2115 49.256C14.1515 48.4932 14.0572 47.9446 14.0743 47.6017C14.1001 47.2246 14.2372 46.6675 14.4343 46.1532C14.6401 45.6389 14.8372 45.1589 14.8629 44.9017C14.9486 44.1989 14.8972 43.7446 14.8201 43.2132C14.7515 42.6903 14.6743 42.0732 15.0343 41.1817C15.2572 40.6075 15.4886 40.0589 15.8743 39.596L15.8658 39.6046Z" fill="white"/>
		<path d="M37.8085 27.1761C38.4 27.3989 38.9742 27.3475 39.6 27.3732C40.0457 27.4075 40.4742 27.7161 40.9028 27.8189C41.4857 27.9818 41.7171 27.7503 42.0685 27.9132L41.0142 31.1618C40.2942 30.9303 39.5485 30.3132 39.12 30.1418C38.5371 29.9961 37.9285 30.1589 37.4828 29.9618C36.9685 29.7303 36.4714 29.6532 36 29.5846C35.2714 29.4903 35.4685 29.8246 34.8771 29.9789C34.6028 30.0646 34.2171 29.8589 33.5314 30.1761C33.2742 30.3218 32.6657 30.2789 32.3828 30.3818C32.1685 30.4589 31.9542 30.5275 31.7314 30.5875C31.5085 30.6646 31.2771 30.7418 31.0285 30.8103C30.7628 30.8789 30.3685 30.9046 29.9142 30.9218C29.3828 30.9989 28.2 31.6332 27.7285 31.7789C27.2228 31.8818 26.3314 31.8218 26.1 32.2503C25.86 32.3961 25.6028 32.6961 25.2857 33.0303C24.9685 33.3475 24.66 33.7846 24.2142 34.0846C23.7771 34.3675 23.3914 34.6846 22.9371 34.9246C22.5 35.1561 22.1485 35.4903 21.8828 35.9018L21.3428 36.7075C21.1114 37.0761 20.9142 37.4703 20.6228 37.7875L17.8542 35.7732C18.4371 35.0018 18.5142 35.0875 18.8742 34.7103C19.1828 34.4018 19.3028 33.9903 19.6628 33.6046C20.0314 33.1761 20.6571 33.0561 21.0514 32.8503C21.6085 32.5675 21.8057 31.9332 22.2685 31.6503C23.1942 31.0503 23.3142 31.1875 23.9914 30.5703C24.6942 29.9189 24.96 29.4646 25.6457 29.1561C25.9457 29.0103 26.4257 28.9075 26.8971 28.8046C27.3685 28.7189 27.8485 28.6932 28.1142 28.5818C28.4742 28.4532 28.7742 28.2989 29.0228 28.1703C29.28 28.0589 29.4857 27.9732 29.6485 27.9303C30.0171 27.8361 30.6 27.8275 31.14 27.8189C31.6971 27.8618 32.2114 27.9132 32.46 27.8532C33.1628 27.7246 33.5657 27.5103 34.0542 27.2875C34.2942 27.1761 34.5514 27.0646 34.8685 26.9703C35.1857 26.8675 35.5628 26.8246 36.0428 26.8589C36.6514 26.9103 37.2514 26.9618 37.8085 27.1503H37.8L37.8085 27.1761Z" fill="white"/>
		<path d="M56.4257 44.2075C56.3914 44.8418 56.6143 45.3732 56.7771 45.9732C56.9143 46.4018 56.7257 46.9075 56.76 47.3532C56.7943 47.9532 57.0428 48.1075 57.0343 48.4932H53.6143C53.5628 47.7389 54 46.8304 53.9828 46.3761C53.9485 45.7761 53.6057 45.2446 53.6657 44.7646C53.7 44.2161 53.6485 43.7104 53.5714 43.2389C53.4428 42.5189 53.1514 42.8189 52.8428 42.3046C52.6714 42.0732 52.7914 41.6275 52.2343 41.0961C52.0114 40.8989 51.8828 40.3075 51.6943 40.0589C51.4457 39.6904 51.12 39.3561 50.8628 38.9104C50.7171 38.6789 50.5971 38.2846 50.4 37.8989C50.2971 37.6504 49.9885 37.2989 49.6885 36.9475C49.38 36.6046 49.0285 36.3046 48.9171 36.0732C48.7971 35.8418 48.6857 35.5075 48.5314 35.2246C48.3685 34.9589 48.1885 34.7275 47.9657 34.6675C47.7514 34.4875 47.4085 34.2989 46.98 34.1275C46.5514 33.9561 46.08 33.7504 45.66 33.4246C45.2314 33.1332 44.82 32.8418 44.46 32.4732C44.1171 32.1046 43.6543 31.9504 43.2 31.7875C42.8828 31.7018 42.5914 31.5732 42.2657 31.5304C41.8371 31.4446 41.4171 31.3504 41.0228 31.1618L42.0771 27.9132C42.9857 28.2389 42.9171 28.3589 43.4057 28.5732C43.8085 28.7275 44.2285 28.7532 44.7 28.9761C45.2057 29.2332 45.5485 29.7132 45.8485 30.0475C46.2857 30.5018 46.9371 30.5104 47.3743 30.8275C48.2228 31.5389 48.0943 31.7361 48.9343 32.1389C49.7571 32.6275 50.2457 32.7561 50.7857 33.2789C51.2228 33.7846 51.7714 34.9675 52.08 35.4561C52.5343 36.0732 52.9971 36.4161 53.1771 36.7075C53.58 37.3589 53.8971 38.9018 54.1114 39.3646C54.4114 40.0075 54.8057 40.2989 55.1485 40.7018C55.4914 41.0961 55.92 41.5418 56.1685 42.4675C56.3143 43.0589 56.4171 43.6589 56.4343 44.2418H56.4257V44.2075Z" fill="white"/>
		<path d="M74.1857 95.4218C85.2014 95.4218 94.1314 86.4918 94.1314 75.476C94.1314 64.4603 85.2014 55.5303 74.1857 55.5303C63.17 55.5303 54.24 64.4603 54.24 75.476C54.24 86.4918 63.17 95.4218 74.1857 95.4218Z" fill="white"/>
		<path d="M84.7543 94.1446C84.1714 94.3675 83.7086 94.6847 83.1857 95.0275C82.9971 95.1475 82.7743 95.2161 82.5514 95.2846C82.32 95.3361 82.08 95.3704 81.8743 95.4475C81.3086 95.6532 81.24 95.9446 80.8714 96.0475L79.8171 92.7989C80.5286 92.5246 81.5228 92.6789 81.9428 92.4989C82.5 92.2761 82.9286 91.8475 83.3743 91.6932C83.9143 91.5561 84.3857 91.3761 84.8057 91.1446C85.4143 90.7504 85.0714 90.6046 85.4657 90.1504C85.6457 89.9275 86.0914 89.8932 86.4257 89.1904C86.5457 88.9246 87.0943 88.6332 87.2571 88.3761C87.4886 87.9904 87.7543 87.6132 88.0971 87.2275C88.2943 87.0304 88.56 86.7475 88.9029 86.4646C89.1 86.2846 89.3914 85.9161 89.5886 85.4961C89.8028 85.0846 90.0086 84.6818 90.1886 84.5018C90.5829 84.1418 91.2343 83.6189 91.2257 83.1646C91.3629 82.9161 91.3886 82.5218 91.4229 82.0589C91.4486 81.5961 91.56 81.0989 91.68 80.5846C91.8171 80.0875 91.9971 79.6161 92.2286 79.1532C92.4086 78.6989 92.4686 78.2189 92.4857 77.7389C92.5029 77.4132 92.46 77.0875 92.4257 76.7704C92.3743 76.3332 92.3486 75.9046 92.4086 75.4761H95.8286C95.7857 76.4361 95.6571 76.4104 95.5971 76.9332C95.5543 77.3704 95.7257 77.7732 95.6314 78.2875C95.5457 78.8446 95.1514 79.3161 94.98 79.7189C94.68 80.2761 94.8514 80.8932 94.68 81.3989C94.3286 82.4446 94.0371 82.3675 93.9171 83.2846C93.78 84.2446 93.72 84.7161 93.4114 85.4018C93.1371 86.0189 92.0486 86.8246 91.7657 87.3218C91.3114 87.9389 91.0971 88.4618 90.8914 88.7361C90.6857 89.0532 90.18 89.3704 89.7257 89.6789C89.2714 89.9875 88.8514 90.2789 88.6629 90.4504C88.14 90.9304 87.96 91.3675 87.72 91.8561C87.4543 92.3104 87.1286 92.8075 86.3571 93.3732C85.8429 93.6989 85.2943 93.9561 84.7371 94.1532L84.7543 94.1446Z" fill="white"/>
		<path d="M59.7 91.2818C59.52 91.0247 59.2972 90.8275 59.0572 90.6475C58.8343 90.459 58.6029 90.2618 58.3629 90.0647C58.0372 89.7732 57.8229 89.3104 57.54 88.959C57.18 88.479 56.88 88.4961 56.6743 88.179L59.4429 86.1647C59.6743 86.4732 59.82 86.8675 59.9572 87.2361C60.12 87.5875 60.2486 87.9132 60.3772 88.1018C60.5572 88.3418 60.7886 88.5304 61.0115 88.7018C61.2429 88.8561 61.4572 89.0104 61.5857 89.2161C61.8686 89.6961 62.1772 90.1075 62.5457 90.4075C63.0943 90.8875 63.1286 90.5018 63.6772 90.7504C63.9343 90.8618 64.1486 91.2218 64.8943 91.3504C65.04 91.3761 65.22 91.4875 65.4 91.6161C65.5886 91.719 65.7857 91.839 65.9315 91.8732C66.3686 91.9761 66.7972 92.1561 67.2772 92.3361C67.5429 92.4304 67.8772 92.6361 68.2543 92.8761C68.4772 93.0475 68.9315 93.1418 69.3943 93.219C69.8486 93.2961 70.2943 93.3904 70.5172 93.5018C70.9886 93.7075 71.6829 94.2218 72.1115 94.0761C72.3857 94.119 72.78 93.9904 73.2257 93.9047C73.6715 93.8018 74.1772 93.7418 74.7086 93.6904C75.2229 93.6647 75.7372 93.7247 76.2343 93.7761C76.7229 93.8104 77.1943 93.7332 77.6572 93.6047C77.9657 93.519 78.2657 93.3561 78.5657 93.2447C78.9686 93.0561 79.38 92.9361 79.7915 92.8161L80.8457 96.0647C79.9286 96.3561 79.9029 96.1932 79.3886 96.3047C78.96 96.3732 78.6257 96.699 78.1115 96.759C77.5543 96.8447 76.98 96.6132 76.5429 96.5618C75.9257 96.4761 75.3857 96.7932 74.8543 96.8018C73.7572 96.8104 73.74 96.4932 72.8315 96.6561C71.8715 96.8275 71.4086 96.9304 70.6629 96.8275C69.9943 96.7675 68.88 95.9961 68.3315 95.8504C67.5857 95.679 67.0372 95.5675 66.72 95.4647C65.9829 95.2504 64.8686 94.0675 64.3886 93.8875C63.7629 93.5532 63.3086 93.4847 62.7686 93.399C62.2286 93.3304 61.6715 93.1504 60.9086 92.5675C60.4115 92.2075 60.0086 91.7532 59.6657 91.2732H59.6829L59.7 91.2818Z" fill="white"/>
		<path d="M54.66 66.579C55.0542 66.0818 55.14 65.499 55.3971 64.9332C55.5771 64.5304 55.98 64.2047 56.2114 63.819C56.5114 63.2961 56.4428 63.0561 56.6828 62.7561L59.4514 64.7704C58.9628 65.3532 58.2 65.9018 57.8914 66.2532C57.5142 66.7332 57.54 67.3932 57.2142 67.7532C56.8114 68.1561 56.5885 68.6104 56.3914 69.039C56.1085 69.7075 56.4428 69.6132 56.4171 70.2218C56.4171 70.5132 56.1085 70.8132 56.2028 71.559C56.2285 71.8418 56.04 72.4075 56.04 72.7161C56.0571 73.1704 56.0314 73.6161 56.0228 74.139C56.0057 74.4132 55.9114 74.799 55.7914 75.2361C55.6885 75.5018 55.7914 75.9647 55.8257 76.4275C55.8942 76.8818 55.9114 77.3361 55.9028 77.5847C55.8428 78.099 55.56 78.9218 55.8342 79.2818C55.9028 79.5475 56.1171 79.8904 56.3485 80.2932C56.46 80.4904 56.58 80.7047 56.6828 80.9275C56.8114 81.1504 56.9228 81.3818 57.0171 81.6304C57.1885 82.119 57.2914 82.6161 57.42 83.1047C57.5314 83.5761 57.7285 84.0218 58.02 84.4075L58.6457 85.1532C58.7828 85.3161 58.92 85.4875 59.0485 85.6675C59.1942 85.8304 59.3228 86.0018 59.4428 86.1818L56.6743 88.1961C56.0914 87.4332 56.2371 87.3561 55.9885 86.8932C55.7828 86.5075 55.4228 86.2675 55.1485 85.8218C54.9 85.3161 54.9514 84.699 54.8657 84.2618C54.7285 83.6618 54.2657 83.2418 54.1114 82.7275C53.7771 81.6732 54.0342 81.579 53.6228 80.7561C53.4171 80.319 53.2114 80.0104 53.0742 79.7104C52.9457 79.4104 52.8514 79.119 52.7914 78.7504C52.7485 78.4247 52.7657 77.9361 52.8428 77.4561C52.9285 76.9761 53.0228 76.5218 53.0057 76.2304C52.9457 75.4675 52.8514 74.919 52.8685 74.5761C52.8942 74.199 53.0314 73.6418 53.2285 73.1275C53.4342 72.6132 53.6314 72.1332 53.6571 71.8761C53.7428 71.1732 53.6914 70.719 53.6142 70.1875C53.5457 69.6647 53.4685 69.0475 53.8285 68.1561C54.0514 67.5818 54.2828 67.0332 54.6685 66.5704L54.66 66.579Z" fill="white"/>
		<path d="M76.6029 54.1504C77.1943 54.3732 77.7686 54.3218 78.3943 54.3475C78.84 54.3818 79.2686 54.6904 79.6971 54.7932C80.28 54.9561 80.5114 54.7246 80.8628 54.8875L79.8086 58.1361C79.0886 57.9046 78.3429 57.2875 77.9143 57.1161C77.3314 56.9704 76.7228 57.1332 76.2771 56.9361C75.7628 56.7046 75.2657 56.6275 74.7943 56.5589C74.0657 56.4646 74.2628 56.7989 73.6714 56.9532C73.3971 57.0389 73.0114 56.8332 72.3257 57.1504C72.0686 57.2961 71.46 57.2532 71.1771 57.3561C70.9629 57.4332 70.7486 57.5018 70.5257 57.5618C70.3028 57.6389 70.0714 57.7161 69.8228 57.7846C69.5571 57.8532 69.1629 57.8789 68.7086 57.8961C68.1771 57.9732 66.9943 58.6075 66.5228 58.7532C66.0171 58.8561 65.1257 58.7961 64.8943 59.2246C64.6543 59.3704 64.3971 59.6704 64.08 60.0046C63.7629 60.3218 63.4543 60.7589 63.0086 61.0589C62.5714 61.3418 62.1857 61.6589 61.7314 61.8989C61.2943 62.1304 60.9428 62.4646 60.6771 62.8761L60.1371 63.6818C59.9057 64.0504 59.7086 64.4446 59.4171 64.7618L56.6486 62.7475C57.2314 61.9761 57.3086 62.0618 57.6686 61.6846C57.9771 61.3761 58.0971 60.9646 58.4571 60.5789C58.8257 60.1504 59.4514 60.0304 59.8457 59.8246C60.4028 59.5418 60.6 58.9075 61.0628 58.6246C61.9886 58.0246 62.1086 58.1618 62.7857 57.5446C63.4886 56.8932 63.7543 56.4389 64.44 56.1304C64.74 55.9846 65.22 55.8818 65.6914 55.7789C66.1628 55.6932 66.6428 55.6675 66.9086 55.5561C67.2686 55.4275 67.5686 55.2732 67.8171 55.1446C68.0743 55.0332 68.28 54.9475 68.4428 54.9046C68.8114 54.8104 69.3943 54.8018 69.9343 54.7932C70.4914 54.8361 71.0057 54.8875 71.2543 54.8275C71.9571 54.6989 72.36 54.4846 72.8486 54.2618C73.0886 54.1504 73.3457 54.0389 73.6629 53.9446C73.98 53.8418 74.3571 53.7989 74.8371 53.8332C75.4457 53.8846 76.0457 53.9361 76.6029 54.1246H76.5943L76.6029 54.1504Z" fill="white"/>
		<path d="M95.22 71.1903C95.1857 71.8246 95.4086 72.3561 95.5714 72.9561C95.7086 73.3846 95.52 73.8903 95.5543 74.3361C95.5886 74.9361 95.8371 75.0903 95.8286 75.4761H92.4086C92.3571 74.7218 92.7943 73.8132 92.7771 73.3589C92.7428 72.7589 92.4 72.2275 92.46 71.7475C92.4943 71.1989 92.4429 70.6932 92.3657 70.2218C92.2371 69.5018 91.9457 69.8018 91.6371 69.2875C91.4657 69.0561 91.5857 68.6103 91.0286 68.0789C90.8057 67.8818 90.6771 67.2903 90.4886 67.0418C90.24 66.6732 89.9143 66.3389 89.6571 65.8932C89.5114 65.6618 89.3914 65.2675 89.1943 64.8818C89.0914 64.6332 88.7829 64.2818 88.4829 63.9303C88.1743 63.5875 87.8229 63.2875 87.7114 63.0561C87.5914 62.8246 87.48 62.4903 87.3257 62.2075C87.1628 61.9418 86.9829 61.7103 86.76 61.6503C86.5457 61.4703 86.2029 61.2818 85.7743 61.1103C85.3457 60.9389 84.8743 60.7332 84.4543 60.4075C84.0257 60.1161 83.6143 59.8246 83.2543 59.4561C82.9114 59.0875 82.4486 58.9332 81.9943 58.7703C81.6771 58.6846 81.3857 58.5561 81.06 58.5132C80.6314 58.4275 80.2114 58.3332 79.8171 58.1446L80.8714 54.8961C81.78 55.2218 81.7114 55.3418 82.2 55.5561C82.6029 55.7103 83.0229 55.7361 83.4943 55.9589C84 56.2161 84.3429 56.6961 84.6429 57.0303C85.08 57.4846 85.7314 57.4932 86.1686 57.8103C87.0171 58.5218 86.8886 58.7189 87.7286 59.1218C88.5514 59.6103 89.04 59.7389 89.58 60.2618C90.0171 60.7675 90.5657 61.9503 90.8743 62.4389C91.3286 63.0561 91.7914 63.3989 91.9714 63.6903C92.3743 64.3418 92.6914 65.8846 92.9057 66.3475C93.2057 66.9903 93.6 67.2818 93.9428 67.6846C94.2857 68.0789 94.7143 68.5246 94.9629 69.4503C95.1086 70.0418 95.2114 70.6418 95.2286 71.2246H95.22V71.1903Z" fill="white"/>
		<path d="M31.2772 38.1817C31.4486 37.916 31.56 37.6331 31.6457 37.3503L31.7571 36.9131L31.7829 36.8017L31.8514 36.6303L31.9972 36.2789C32.34 35.5846 33.12 35.1389 33.78 34.8646C34.2343 34.6674 34.5343 34.556 34.8 34.4617C35.0657 34.3674 35.2972 34.3074 35.6314 34.3417L35.3229 37.7446C35.2286 37.7274 35.0914 37.6417 34.9114 37.6074C34.74 37.5731 34.5257 37.5989 34.4486 37.6846C34.4143 37.7103 34.4057 37.7446 34.3886 37.7789C34.3714 37.8131 34.3629 37.8389 34.3286 37.9331C34.2857 38.0874 34.2514 38.2417 34.2086 38.396C34.1314 38.696 34.0543 38.9789 33.9 39.1931C33.54 39.6903 33.2743 40.1789 33.0686 40.6589C32.76 41.4046 33.1457 41.2931 33.0514 41.9617C33.0172 42.2789 32.6829 42.6046 32.7086 43.4531C32.7257 43.7789 32.4 44.3874 32.3572 44.7303C32.2972 45.236 32.2114 45.7589 32.04 46.3246C31.9543 46.6331 31.7571 47.0446 31.5257 47.4989C31.2343 48.0474 31.0714 49.5903 30.7972 50.1046C30.5057 50.636 29.88 51.3474 29.9572 51.8531C29.7772 52.4617 29.9314 53.6617 29.5371 54.8617C29.34 55.436 29.1086 55.9931 28.8 56.5074C28.5 56.996 28.3371 57.536 28.1914 58.076L27.9257 59.1903C27.7972 59.696 27.6429 60.1931 27.4114 60.656L24.2743 59.3017C24.6171 58.4617 24.7286 58.5303 24.96 58.076C25.1314 57.6903 25.0886 57.2789 25.2686 56.816C25.4571 56.3189 25.9114 55.9417 26.16 55.5817C26.5114 55.0674 26.3657 54.4417 26.5629 53.9617C26.9314 52.9589 27.18 53.0017 27.2571 52.0931C27.3343 51.1417 27.24 50.6703 27.4457 49.976C27.6257 49.3589 28.3886 48.296 28.5514 47.7389C28.7572 47.0017 28.7657 46.436 28.86 46.1103C29.0657 45.3903 30.0086 44.0789 30.12 43.5646C30.5486 42.176 29.8629 41.6274 30.4972 39.8189C30.7114 39.2446 30.9686 38.696 31.2772 38.1903V38.1817Z" fill="#021017"/>
		<path d="M44.7085 55.796C44.8114 56.4046 45.1457 56.8589 45.4371 57.3903C45.6514 57.7674 45.6685 58.2731 45.84 58.676C46.0714 59.2246 46.3628 59.276 46.4828 59.6274L43.3285 60.956C42.9857 60.1332 43.0028 59.036 42.8571 58.5389C42.6514 57.8874 42.1628 57.3732 42.0857 56.8246C42.0085 56.1903 41.8885 55.6417 41.7257 55.1274C41.4857 54.3389 41.2628 54.6646 40.9028 54.0646C40.7314 53.7732 40.7914 53.3103 40.26 52.616C40.0457 52.3503 39.9685 51.6303 39.8057 51.3131C39.5657 50.8331 39.36 50.3274 39.1885 49.7274C39.1028 49.4017 39.0514 48.9303 39.0257 48.3989C39.0085 48.0817 38.8628 47.5417 38.7257 47.0017C38.5885 46.4874 38.46 46.0074 38.4685 45.716C38.4857 45.1331 38.6828 44.2246 38.3657 43.8474C38.2114 43.256 37.4657 42.3646 37.1057 41.2674C36.9257 40.736 36.78 40.2046 36.6771 39.6646C36.5828 39.1417 36.3514 38.6789 36.0685 38.2589L35.76 37.8389C35.7 37.8046 35.6571 37.7703 35.6142 37.7617C35.4942 37.7274 35.4171 37.7617 35.3057 37.7103L35.6142 34.3074C36.4542 34.4017 36.8314 34.6503 37.0885 34.8303C37.3542 35.0189 37.5171 35.1817 37.8342 35.5074C38.0914 35.7817 38.3314 36.056 38.5457 36.3303C38.6914 36.5103 38.8542 36.6989 38.9742 36.9474C39.24 37.4789 39.1885 38.1217 39.2571 38.576C39.36 39.2274 39.8657 39.656 40.0199 40.1874C40.3285 41.2846 40.1057 41.3789 40.5428 42.2274C40.9971 43.1103 41.3057 43.496 41.4771 44.2417C41.6314 44.8846 41.4342 46.2474 41.5457 46.7789C41.6914 47.4989 41.9657 47.9789 42.0428 48.2874C42.2057 48.9817 42.1114 50.5417 42.3171 51.0303C42.7628 52.3846 43.62 52.4017 44.2457 54.1246C44.4428 54.6732 44.6057 55.2303 44.7 55.796H44.6914H44.7085Z" fill="#021017"/>
		<path d="M37.7828 46.1103C38.0142 46.2303 38.2199 46.0932 38.4428 46.016C38.6056 45.9646 38.7856 46.1275 38.9485 46.1275C39.1713 46.1275 39.2313 45.8703 39.3685 45.896L39.3428 49.316C39.017 49.316 38.6485 48.8875 38.4599 48.836C38.2113 48.7846 37.9713 49.0418 37.7742 48.9218C37.5513 48.7675 37.3456 48.6817 37.1485 48.656C36.8485 48.6132 36.9342 48.9389 36.6856 49.0675C36.5656 49.136 36.4113 48.9217 36.1199 49.2046C36.0085 49.316 35.7513 49.1875 35.6313 49.2475C35.4428 49.3332 35.2542 49.4018 35.0313 49.4103C34.9113 49.4103 34.7485 49.3417 34.5599 49.2475C34.337 49.1275 33.7799 49.3932 33.5656 49.2732C33.3428 49.1446 33.017 48.7417 32.8542 48.9646C32.6228 48.9646 32.237 49.4703 31.7828 49.4617C31.5599 49.4617 31.3456 49.4103 31.1313 49.2989C30.9256 49.196 30.7199 49.2046 30.5228 49.2732L30.1199 49.4275C29.9399 49.496 29.7599 49.556 29.5713 49.5217L29.3999 46.1103C29.7513 46.1103 29.7513 46.2303 29.9485 46.2646C30.1113 46.2903 30.2485 46.0932 30.437 46.0932C30.6428 46.0932 30.8485 46.4017 31.0113 46.5132C31.2428 46.6675 31.4399 46.3417 31.637 46.3675C32.0485 46.4189 32.0656 46.6589 32.3913 46.4617C32.7342 46.256 32.8885 46.0417 33.1628 46.0332C33.4028 46.0332 33.8742 46.4703 34.097 46.4703C34.3799 46.4703 34.5856 46.316 34.7056 46.3075C34.9885 46.3075 35.5542 46.8303 35.7513 46.7789C36.2913 46.7703 36.3942 45.9475 37.097 45.956C37.3199 45.956 37.5428 46.0075 37.757 46.1189L37.7828 46.1103Z" fill="#021017"/>
		<path d="M83.2113 68.096C83.7428 68.2589 84.2485 68.1646 84.7971 68.1303C85.1828 68.1046 85.6028 68.3103 85.9971 68.336C86.5285 68.3703 86.6913 68.1389 87.017 68.1817L86.777 71.5932C85.9799 71.5332 85.1228 71.0274 84.6685 70.9417C84.0685 70.8389 83.4685 71.0532 83.0056 70.8903C82.4742 70.6932 81.9856 70.5646 81.5142 70.5046C80.7942 70.4017 80.9742 70.7446 80.3571 70.8303C80.0656 70.8817 79.7142 70.6332 78.9685 70.8646C78.677 70.9589 78.0771 70.7789 77.7685 70.8132C77.3056 70.8646 76.8342 70.8903 76.3028 70.856C76.0113 70.8389 75.6171 70.7274 75.1799 70.6074C74.6485 70.4446 73.2685 70.6074 72.7713 70.436C72.2571 70.2646 71.5285 69.8103 71.0999 69.9903C70.5428 69.9475 69.5313 70.3674 68.4256 70.2732C67.8942 70.2303 67.3713 70.136 66.8742 69.9817C66.3942 69.836 65.9056 69.8103 65.4085 69.836L64.4142 69.9132C63.9599 69.9474 63.5142 69.9732 63.0685 69.9046L63.3085 66.4932C64.1485 66.5532 64.1228 66.6817 64.5856 66.7503C64.9713 66.8017 65.3228 66.6389 65.777 66.6732C66.2656 66.7074 66.7113 67.0589 67.0799 67.196C67.6113 67.3932 68.1342 67.1103 68.5971 67.1789C69.5656 67.3074 69.5742 67.5475 70.3885 67.4189C71.2371 67.2817 71.6399 67.0932 72.2999 67.1446C72.8742 67.1874 73.9456 67.7189 74.4599 67.7532C75.1456 67.8046 75.6428 67.6932 75.9342 67.7103C76.5942 67.7532 77.9056 68.3874 78.3771 68.3789C79.6628 68.4732 79.9971 67.676 81.6685 67.8132C82.1999 67.856 82.7228 67.9503 83.2199 68.1046H83.2113V68.096Z" fill="#021017"/>
		<path d="M75.8743 68.6703C75.7115 68.7303 75.8058 68.8675 75.84 68.996C75.8658 69.0817 75.6686 69.1075 75.6515 69.1846C75.6172 69.2875 75.8486 69.3903 75.7972 69.4417L72.54 68.4046C72.6 68.216 73.0886 68.156 73.1743 68.0703C73.2772 67.9589 73.0886 67.736 73.2429 67.676C73.44 67.6075 73.56 67.5303 73.6372 67.4446C73.7486 67.3075 73.4315 67.2217 73.3715 67.0417C73.3372 66.9475 73.5686 66.956 73.3886 66.6817C73.3115 66.5703 73.5 66.4932 73.4743 66.3989C73.44 66.2617 73.44 66.1332 73.5 66.0132C73.5343 65.9532 73.6458 65.8932 73.7743 65.8417C73.9458 65.7817 73.8772 65.3703 74.0486 65.3189C74.2286 65.2675 74.6658 65.3189 74.5372 65.1217C74.6058 65.0103 74.3058 64.5475 74.4686 64.3332C74.5458 64.2303 74.6572 64.1446 74.8286 64.1103C74.9915 64.076 75.0429 63.9732 75.0686 63.836L75.0858 63.5532C75.0943 63.4246 75.12 63.3046 75.2143 63.236L77.9486 65.2846C77.8543 65.4217 77.7515 65.336 77.6658 65.396C77.5972 65.4475 77.7172 65.6103 77.6658 65.6789C77.6058 65.756 77.2972 65.6532 77.16 65.6617C76.9629 65.6617 77.1772 65.9275 77.1 65.9875C76.9458 66.116 76.74 66.0046 76.8086 66.236C76.8858 66.4846 77.04 66.656 76.9715 66.7675C76.92 66.8617 76.4143 66.8446 76.3629 66.9389C76.2943 67.0589 76.38 67.2217 76.3629 67.2732C76.3029 67.3932 75.6943 67.4103 75.6943 67.5217C75.5829 67.7703 76.3029 68.1475 76.1658 68.4389C76.1143 68.5332 76.0286 68.6103 75.8829 68.6617L75.8743 68.6703Z" fill="#021017"/>
		<path d="M68.6742 85.0845C68.1085 85.2817 67.7142 85.6588 67.2342 86.0017C66.8999 86.2503 66.4113 86.3188 66.0342 86.5074C65.5285 86.7646 65.5027 87.056 65.1685 87.2017L63.6685 84.1246C64.3713 83.7646 65.3827 83.756 65.8113 83.5674C66.377 83.3274 66.7627 82.8131 67.2342 82.6674C67.7913 82.5303 68.2627 82.3331 68.6827 82.0931C69.3256 81.7245 68.9827 81.5788 69.4027 81.1246C69.5999 80.9017 70.037 80.876 70.457 80.216C70.6113 79.9588 71.1856 79.6931 71.3913 79.4617C71.6913 79.1103 72.017 78.7588 72.4285 78.4245C72.6513 78.2445 72.9942 78.0303 73.397 77.8074C73.8942 77.5503 74.7085 76.4188 75.1456 76.136C75.6085 75.8617 76.4399 75.5788 76.5513 75.116C76.937 74.696 77.2027 73.6331 77.8885 72.7931C78.2142 72.3731 78.5827 71.996 78.9685 71.6531C79.337 71.3188 79.6199 70.916 79.8342 70.4617L80.2456 69.5531C80.4085 69.1331 80.5885 68.7303 80.8456 68.3617L83.8285 70.0331C83.3656 70.8217 83.2627 70.736 82.9799 71.156C82.7399 71.4988 82.697 71.9103 82.4313 72.3217C82.1485 72.776 81.5827 72.9988 81.257 73.2731C80.7942 73.6588 80.7256 74.2674 80.3827 74.6531C79.697 75.4503 79.4742 75.296 79.0713 76.0845C78.617 76.8903 78.5056 77.3531 78.017 77.8674C77.5885 78.3303 76.4227 78.8445 76.0199 79.2131C75.497 79.7274 75.1799 80.1645 74.9485 80.3788C74.4085 80.8588 72.9599 81.356 72.5827 81.6817C71.5027 82.5046 71.7342 83.3446 70.217 84.3388C69.737 84.656 69.2227 84.9045 68.6913 85.0845H68.6742Z" fill="#021017"/>
		<path d="M80.7514 85.1703C81.0857 85.6589 81.5571 85.916 82.0285 86.2589C82.3628 86.4989 82.5771 86.936 82.8771 87.2189C83.2885 87.6046 83.5628 87.5274 83.8028 87.7846L81.4714 90.2874C80.8542 89.7131 80.4685 88.7446 80.1514 88.376C79.7228 87.896 79.0971 87.6646 78.8228 87.2274C78.5142 86.7131 78.1885 86.2931 77.8457 85.9246C77.3228 85.3589 77.2542 85.7446 76.6971 85.4017C76.4228 85.2389 76.2942 84.8103 75.5399 84.476C75.2485 84.3474 74.8714 83.7903 74.5885 83.5931C74.1771 83.3017 73.7742 82.976 73.3714 82.5474C73.1571 82.316 72.9085 81.9389 72.6514 81.5017C72.3514 80.9789 71.1942 79.9589 70.9628 79.4103C70.7142 78.8531 70.5857 77.936 70.1657 77.6703C69.8314 77.156 68.8457 76.4617 68.3057 75.3389C68.0399 74.7989 67.8514 74.2331 67.7399 73.6674C67.6285 73.1189 67.4228 72.6131 67.1914 72.1246C67.0199 71.7903 66.8657 71.456 66.7028 71.1217C66.4885 70.6674 66.3085 70.1874 66.2142 69.6989L69.5314 68.8674C69.7371 69.6731 69.6171 69.6817 69.7199 70.136C69.8057 70.5131 70.0971 70.7703 70.2428 71.1989C70.4057 71.6531 70.2771 72.1931 70.3285 72.596C70.3971 73.1617 70.8942 73.4874 71.0742 73.9246C71.4599 74.816 71.2714 74.9617 71.8371 75.5703C72.4371 76.196 72.8228 76.3931 73.1914 76.9246C73.5085 77.3874 73.8171 78.536 74.1599 78.9474C74.5971 79.4789 75.0514 79.7531 75.2485 79.976C75.6942 80.4731 76.2857 81.8446 76.6714 82.1617C77.6314 83.1046 78.4028 82.7103 79.6714 83.9189C80.0742 84.3132 80.4514 84.7246 80.7599 85.1789H80.7514V85.1703Z" fill="#021017"/>
	</g>
	<defs>
		<clipPath id="clip0_1117_22288">
			<rect width="105.309" height="105.309" fill="white" transform="translate(0.214233 0.638916)"/>
		</clipPath>
	</defs>
</svg>