<svg width="264" height="174" viewBox="0 0 264 174" fill="none" xmlns="http://www.w3.org/2000/svg">
<path d="M169.588 30.0614C174.977 28.4559 180.133 26.2029 185.522 25.8403C190.912 25.4778 196.404 27.6013 201.793 28.4559C207.182 29.3104 212.882 29.2069 217.987 31.2527C223.091 33.2985 228.039 35.914 232.573 39.0475C237.108 42.181 240.553 46.5316 244.284 50.5973C248.015 54.663 252.238 58.3144 254.985 63.1571C257.731 67.9997 260.089 72.9718 261.695 78.3582C263.302 83.7447 262.628 88.924 263.017 94.0515C263.405 99.179 263.82 104.488 263.094 109.641C262.369 114.846 261.514 120.077 259.726 124.972C259.726 125.024 259.182 124.894 259.182 124.972C257.602 131.213 256.85 137.143 257.679 142.245C258.69 148.486 262.084 153.717 262.55 158.741C262.965 163.169 259.623 166.82 255.192 167.287C251.694 167.649 247.16 167.053 241.201 166.147C237.159 165.551 232.263 165.992 227.081 164.334C226.899 164.283 226.822 163.48 226.614 163.428C221.899 166.095 216.665 167.571 211.276 169.177C205.887 170.783 200.731 172.621 195.342 172.984C189.953 173.346 184.097 174.149 178.734 173.294C173.371 172.44 167.619 171.119 162.541 169.073C157.463 167.028 153.421 162.677 148.887 159.544C144.353 156.41 138.964 154.131 135.233 150.04C131.502 145.948 130.051 140.251 127.33 135.408C124.61 130.565 120.413 126.5 118.806 121.113C117.2 115.727 116.967 109.952 116.604 104.565C116.241 99.179 117.407 93.5335 118.262 88.1471C119.117 82.7606 118.832 76.7527 120.879 71.6511C122.926 66.5495 125.75 61.422 128.885 56.8901C132.02 52.3582 137.616 49.8981 141.684 46.169C145.752 42.4399 149.276 38.1929 154.146 35.4479C159.017 32.7029 164.277 31.667 169.666 30.0355L169.588 30.0614Z" fill="#FF945E"/>
<path d="M192.103 84.0813C188.968 84.0813 186.455 81.5435 186.455 78.4359V69.1391C186.455 66.0056 188.994 63.4937 192.103 63.4937C195.212 63.4937 197.752 66.0315 197.752 69.1391V78.4359C197.752 81.5694 195.212 84.0813 192.103 84.0813Z" fill="#07374F"/>
<path d="M219.956 84.2884H161.246C158.007 84.2884 155.39 81.6729 155.39 78.4358C155.39 75.1988 158.007 72.5833 161.246 72.5833H219.956C223.194 72.5833 225.811 75.1988 225.811 78.4358C225.811 81.6729 223.194 84.2884 219.956 84.2884Z" fill="#07374F"/>
<path d="M169.018 134.76C166.712 134.76 164.536 133.336 163.707 131.031C162.645 128.105 164.173 124.842 167.101 123.78C167.205 123.728 180.237 118.86 191.274 106.948C204.384 92.7822 206.535 77.8399 206.561 77.7105C206.975 74.6288 209.799 72.4017 212.908 72.8419C215.992 73.2563 218.168 76.0531 217.779 79.1607C217.676 79.9117 215.266 97.6766 199.591 114.639C186.611 128.675 171.583 134.216 170.936 134.45C170.288 134.683 169.64 134.786 169.018 134.786V134.76Z" fill="#07374F"/>
<path d="M212.183 134.76C211.535 134.76 210.887 134.657 210.266 134.424C209.618 134.191 194.591 128.649 181.61 114.613C165.935 97.6509 163.5 79.886 163.422 79.135C163.033 76.0274 165.21 73.2047 168.319 72.8162C171.402 72.4019 174.252 74.6031 174.641 77.6848C174.641 77.8401 176.817 92.7565 189.927 106.922C200.964 118.86 213.997 123.729 214.126 123.78C217.054 124.842 218.582 128.105 217.494 131.031C216.665 133.336 214.489 134.76 212.183 134.76Z" fill="#07374F"/>
<path d="M95.0736 5.40794C89.6845 3.80236 84.5027 1.26451 79.1136 0.901962C73.7245 0.539412 67.7395 0.35814 62.3504 1.21272C56.9613 2.0673 51.7017 4.81232 46.6235 6.85814C41.5453 8.90396 36.5967 11.5713 32.0885 14.7048C27.5803 17.8382 24.3935 22.4219 20.6626 26.5135C16.9316 30.6052 13.8744 34.7745 11.128 39.6171C8.38162 44.4597 4.96162 48.7067 3.32934 54.0932C1.69707 59.4797 0.712518 64.4518 0.323881 69.5793C-0.0647563 74.7067 -0.0388472 80.2486 0.686609 85.3761C1.41206 90.5036 2.73343 95.8123 4.54707 100.707C4.54707 100.759 6.3348 100.267 6.3348 100.318C7.91526 106.559 5.32435 112.308 4.49525 117.41C3.4848 123.651 2.99252 129.322 2.50025 134.346C2.0857 138.774 5.01344 142.012 9.4439 142.478C12.9416 142.84 17.398 142.348 23.3571 141.468C27.3989 140.872 32.218 141.131 37.3999 139.5C37.5812 139.448 37.3999 139.862 37.5812 139.784C42.2967 142.452 47.634 144.187 53.0231 145.792C58.4122 147.398 63.9308 147.631 69.3199 147.994C74.709 148.356 80.5645 150.065 85.9536 149.211C91.3427 148.356 96.1618 144.601 101.24 142.555C106.318 140.51 112.096 139.5 116.604 136.366C121.112 133.233 124.765 128.882 128.496 124.79C132.227 120.699 135.362 116.27 138.109 111.428C140.855 106.585 142.954 101.691 144.56 96.3044C146.166 90.9179 146.503 85.4538 146.866 80.0673C147.229 74.6808 148.991 68.8283 148.136 63.4418C147.281 58.0554 143.446 53.2645 141.399 48.1888C139.352 43.1131 137.461 37.9856 134.326 33.4538C131.191 28.9219 128.755 23.5872 124.688 19.8322C120.62 16.0773 115.024 14.3681 110.153 11.6231C105.282 8.87806 100.437 6.98762 95.0477 5.35615L95.0736 5.40794Z" fill="#FFB48E"/>
<path d="M105.852 106.87C105.696 108.942 105.049 110.47 103.935 111.506C102.82 112.541 101.473 113.059 99.9186 113.059C98.7527 113.059 97.6386 112.723 96.5245 112.075C95.4104 111.428 94.5295 110.392 93.8559 108.994C93.4413 105.29 92.7936 101.665 91.9386 98.1172C91.0836 94.5694 89.9695 90.9439 88.6741 87.2407C83.4922 87.2407 78.2845 87.2925 73.1027 87.3702C67.9208 87.4479 62.6872 87.4997 57.4017 87.4997H57.1426C56.1581 90.9698 55.2254 94.2845 54.3704 97.4439C53.5154 100.603 52.7122 104.022 51.9608 107.621C51.3131 109.434 50.4322 110.755 49.3699 111.583C48.3076 112.412 47.1417 112.826 45.924 112.826C44.1881 112.826 42.6853 112.153 41.4158 110.781C40.1462 109.408 39.7576 107.621 40.2499 105.394C42.8926 93.6112 46.1053 82.1391 49.8881 70.9259C53.6708 59.7387 58.464 48.655 64.2158 37.7008L64.0863 37.8303C64.734 36.0953 66.1849 34.9817 68.4131 34.4897H68.2836C70.5118 33.7387 72.4809 34.153 74.2168 35.7327C76.2636 37.7008 78.1809 39.902 79.9686 42.3363C81.7304 44.7706 83.3886 47.2825 84.9172 49.8722C86.4459 52.4618 87.8709 55.0773 89.1922 57.7188C90.5136 60.3602 91.7573 62.8722 92.8973 65.2546C93.6486 66.8084 94.4259 68.5694 95.255 70.5116C96.0841 72.4538 96.8614 74.3702 97.6127 76.2606C98.5195 76.2606 99.5041 76.2606 100.566 76.2088C101.629 76.157 102.613 76.157 103.52 76.157C105.256 76.7267 106.525 77.5036 107.355 78.5136C108.184 79.4977 108.598 80.5594 108.598 81.7247C108.598 82.8901 108.158 83.9777 107.251 84.9877C106.344 86.0236 104.945 86.7487 103.054 87.1371H101.577C103.624 93.5594 105.075 100.163 105.904 106.896L105.852 106.87ZM77.2999 60.4379C76.3154 58.6252 75.3049 56.8124 74.2686 54.9996C73.2322 53.1869 72.2218 51.5813 71.2372 50.1829C69.2681 54.3781 67.4286 58.651 65.7445 62.9757C64.0604 67.3004 62.3763 71.8064 60.744 76.4937C64.9413 76.4937 68.9572 76.4419 72.7918 76.3642C76.6263 76.2865 80.6422 76.2347 84.8395 76.2347C83.855 73.8522 82.8186 71.5734 81.7563 69.4499C80.694 67.3263 79.6059 65.0475 78.5436 62.665L77.2999 60.4379Z" fill="#07374F"/>
</svg>
