<svg width="357" height="118" viewBox="0 0 357 118" fill="none" xmlns="http://www.w3.org/2000/svg">
<path d="M79.1176 35.4285L77.2676 35.2885L73.9976 35.1485L72.2876 34.8685L68.7276 34.7285L67.1576 35.1585L65.0276 35.2985C64.4576 35.2985 63.6076 35.4385 63.0376 35.2985L62.6076 35.1585H59.3376L57.0576 35.2985L54.7876 37.2885L54.9276 38.7085L54.4976 42.4085L54.7776 43.6885L54.9176 46.1085C54.9176 46.8185 54.7776 47.8185 54.6376 48.5285L54.4976 48.9585L54.7776 51.5185V52.7985L54.6376 53.6485L54.0676 56.9185V62.0385L54.7776 63.3185L54.9176 66.3085V67.5885L54.7776 68.5885L54.9176 71.1485V72.2885L54.7776 73.7085L54.9176 76.9785V78.9685L54.6376 82.2385L54.7776 82.3785C55.0576 83.5185 55.0576 84.2285 54.9176 85.3685L54.6376 87.2185V88.9285L54.4976 92.1985V93.9085L54.6376 95.0485C54.7776 96.4685 54.6376 97.3285 54.2076 98.1785V101.589L54.6376 102.729V105.569C54.6376 105.999 54.4976 106.709 54.3576 107.129L54.0776 108.269L54.5076 111.539C54.5076 111.539 54.3676 111.819 54.2276 112.249C52.9476 114.669 51.0976 115.379 50.1076 115.239L46.8376 115.519C46.1276 115.799 45.1276 115.949 44.1376 115.799L42.1476 115.659L40.5876 115.379L37.5976 115.099H35.4676L33.1876 115.379C32.6176 115.519 31.7676 115.519 31.1976 115.379L30.6276 115.239C29.3476 114.099 28.6376 112.959 28.4976 111.829V111.549L28.3576 108.139L28.4976 106.719L28.3576 104.019C28.3576 103.589 28.4976 103.169 28.4976 102.739L28.7776 101.459L28.6376 98.3285L28.9176 96.6185L28.6376 93.2085V91.7885L28.7776 90.0785L28.3476 88.5185V81.5485L28.2076 79.1285C28.2076 78.6985 28.2076 77.9885 28.3476 77.5685L28.4876 76.8585L28.7676 73.5885V72.0285L28.1976 68.7585V68.3285C28.0576 67.7585 28.0576 67.1885 28.0576 66.6185L28.1976 63.7785V59.2285C28.1976 58.9485 28.3376 58.3785 28.3376 58.0885L28.4776 56.9485L28.7576 53.9585V52.1085L28.8976 47.6985L28.7576 43.9985L28.4776 42.2885L28.3376 38.7285L28.1976 36.8785L26.7776 35.3185L25.4976 35.1785H24.0776L20.8076 35.0385L20.3776 35.1785C19.5276 35.4585 18.8076 35.4585 17.9576 35.4585H17.1076C16.6776 35.4585 16.2576 35.3185 15.8276 35.1785L14.9776 34.8985L13.4176 35.0385L10.0076 34.7585L8.44758 35.1885L5.45758 35.3285H4.03758L3.32758 35.1885C2.18758 34.3385 1.33758 33.3385 1.19758 32.4885L1.62758 30.9285L1.05758 27.7985C1.05758 27.3685 0.917577 27.0885 0.917577 26.5185L1.05758 25.2385L0.917577 22.2485L0.777577 21.2485C0.637577 20.3985 0.637577 19.9685 0.777577 19.1185L0.917577 17.5585C0.917577 16.9885 1.05758 16.7085 1.19758 16.2785L1.62758 14.7185C2.90758 13.4385 4.18758 12.8685 5.18758 13.0085L7.46758 12.8685C8.03758 12.8685 8.60758 12.7285 9.17758 12.8685L10.4576 13.1485L13.4476 13.0085L15.2976 13.1485H17.9976L19.7076 12.7185H21.6976C22.4076 12.7185 23.2676 12.7185 23.9776 12.9985L24.9776 13.2785L27.8176 13.4185L29.9476 12.8485H33.5076L42.8976 13.5585L44.8876 13.1285L48.0176 13.4085L49.8676 13.6885L52.5676 13.5485L53.4176 13.2685C54.2676 12.9885 55.2676 12.8385 56.2576 12.9885L57.9676 13.1285L59.9576 13.2685L62.9476 13.1285L64.7976 12.9885L68.2076 13.1285L69.9176 12.9885L73.4776 13.1285H77.7476C77.7476 13.1285 81.1576 15.5485 81.7276 16.9685V17.6785L81.8676 20.5185L82.1476 22.3685L82.4276 24.7885C82.4276 25.3585 82.5676 25.9285 82.4276 26.4985L82.2876 26.9285L82.1476 30.0585V31.7685C82.2876 32.9085 82.0076 33.6185 81.4376 34.1885C80.8676 34.7585 80.0176 35.1885 79.1576 35.4685L79.1176 35.4285Z" fill="#07374F"/>
<path d="M125.058 43.1085C125.488 43.1085 125.908 43.2485 126.198 43.3885L129.188 44.2385C130.188 44.2385 131.178 44.5185 132.028 44.9485L134.018 45.9485H134.298C135.298 46.2285 136.288 46.7985 137.138 47.5085L138.418 48.5085L138.698 48.6485C139.548 49.0785 140.118 49.3585 140.828 50.0685L142.538 51.4885L145.528 53.7685L146.528 54.7685L148.088 56.3285C148.798 56.8985 149.228 57.6085 149.648 58.6085L149.928 59.3185L151.208 60.8785C151.638 61.5885 151.918 62.1585 152.208 63.0085L152.488 63.5785L153.338 66.9885L154.338 68.8385L155.188 71.2585C155.468 71.9685 155.618 72.8185 155.618 73.6785V76.3785L155.478 78.2285V81.7885L155.338 83.6385L155.478 86.1985C155.478 86.7685 155.338 87.6185 155.198 88.1885L154.348 91.1785V91.7485C154.208 92.4585 153.918 93.3085 153.638 94.0285L152.928 95.5885C152.788 96.0185 152.498 96.5885 152.218 96.8685L151.648 97.5785L149.658 100.138L148.948 102.129L146.668 104.968L145.818 106.108L143.398 108.388C142.968 108.818 142.398 109.238 141.978 109.528L139.558 110.809L138.558 111.379L135.148 113.509L133.868 114.509L131.598 115.509C131.168 115.789 130.598 115.938 130.028 116.078L129.318 116.218L126.048 116.649L124.628 116.929C124.058 117.069 123.488 117.069 122.918 117.069L120.788 116.929H119.078L118.648 117.069C117.798 117.209 116.798 117.209 115.948 116.929L115.518 116.789L114.238 117.069L110.828 116.789L108.838 116.649L105.708 115.938L104.138 115.229L101.298 114.229L100.448 114.089C99.7376 113.809 99.0276 113.519 98.4576 113.089L96.7476 111.809L95.0376 111.099L92.1976 109.108L91.6276 108.679C91.1976 108.399 90.7776 107.969 90.3476 107.399L89.9176 106.968L88.4976 105.688C87.9276 105.258 87.2176 104.549 86.6476 103.839L85.5076 102.278L85.0776 101.429C84.9376 101.149 84.6476 100.719 84.5076 100.289L83.5076 97.4485L82.5076 96.3085L81.2276 93.0385L80.6576 91.4785L79.9476 88.6385C79.8076 88.0685 79.8076 87.6385 79.8076 87.2185V86.5085L79.6676 83.0985L79.5276 81.8185L78.9576 79.8285L78.8176 77.8385V77.2685C78.8176 76.5585 78.8176 75.8485 78.9576 75.2785L79.5276 72.2885L80.0976 69.4485C80.2376 68.8785 80.3776 68.3085 80.6676 67.8885L81.0976 66.8885L81.9476 63.8985L82.5176 62.3385C82.5176 62.1985 82.6576 61.9085 82.7976 61.7685L83.9376 59.6385C84.2176 59.2085 84.5076 58.6385 84.9376 58.2185L85.5076 57.7885L87.6376 55.5085L88.7776 54.3685L91.1976 51.8085L91.7676 51.2385C92.0476 50.8085 92.4776 50.5285 92.9076 50.0985L94.3276 48.9585C94.8976 48.5285 95.4676 48.2485 96.0376 47.9585L96.4676 47.8185L99.0276 46.5385C99.3076 46.3985 99.8776 46.3985 100.168 46.2585L101.168 45.9785L104.158 44.9785L105.578 44.5485L109.278 43.4085L110.128 42.9785C110.558 42.8385 110.978 42.6985 111.408 42.5485L112.828 42.2685C113.678 42.1285 114.538 42.2685 115.388 42.4085H115.528L117.518 42.2685L119.088 42.4085L120.938 42.5485L124.208 42.9785L125.058 43.1185V43.1085ZM125.488 94.3085L127.478 91.6085L128.478 90.3285L130.188 87.9085L130.468 86.4885L131.608 83.3585L131.468 81.5085L131.328 79.9485V76.9585L130.898 73.8285L130.048 72.2685L128.198 68.9985L127.488 68.1485L125.208 66.5885C124.638 66.1585 124.208 65.7385 123.928 65.3085L123.498 64.8785L120.658 64.3085L118.808 64.4485H117.388L115.678 64.5885H113.688L111.128 65.0185L107.428 67.5785L106.428 68.5785L104.438 71.8485L103.868 72.9885L103.438 76.8285V77.9685L103.718 79.9585V80.0985C103.858 81.0985 103.718 81.8085 103.438 82.7985V82.9385L104.008 86.3485L104.438 87.9085L106.148 90.7485L107.428 92.0285L109.708 94.4485L111.268 95.2985L114.398 95.8685H114.828C115.538 95.8685 116.388 95.8685 117.098 96.1485L117.238 96.2885L119.228 95.8585L120.648 96.2885L123.918 94.8685L125.478 94.2985L125.488 94.3085Z" fill="#07374F"/>
<path d="M211.818 44.6785L212.248 44.5385L213.818 44.6785H216.808L218.228 44.3985H222.358L225.918 44.6785L227.628 44.8185L231.328 44.5385C231.328 44.5385 232.328 45.5385 233.038 46.3885C233.888 47.5285 233.468 48.8085 233.038 49.9485L232.328 51.3685L231.618 52.7885L230.478 56.0585L229.628 57.9085L228.058 61.4685L226.498 65.3085L225.788 67.2985L224.938 69.9985C224.798 70.4285 224.508 70.7085 224.228 71.2785L223.658 72.4185L222.808 74.4085C222.668 74.9785 222.238 75.4085 221.958 75.8285L221.528 76.5385L219.818 79.6685L219.538 81.5185L218.538 84.0785C218.398 84.3585 218.258 84.6485 218.108 85.0785L217.538 86.0785L216.398 88.6385L215.548 90.1985L213.988 93.4685L213.278 95.3185L211.858 98.4485L211.148 99.7285L210.148 102.009C209.868 102.859 209.578 103.429 209.148 103.999L208.718 104.569L207.438 107.409L207.298 108.829L206.448 111.249C206.308 111.819 205.878 112.249 205.598 112.669L205.028 113.669L203.608 114.379C202.758 114.809 201.898 115.229 200.908 115.379H200.628L198.638 115.809C198.068 115.949 197.358 115.809 196.788 115.809H196.218L195.368 115.949C194.798 116.089 194.088 115.949 193.518 115.949L191.528 115.809C190.388 115.949 188.828 115.379 187.258 114.249C186.828 114.109 186.408 113.399 185.978 112.539L184.978 109.549L183.838 107.839L182.698 104.999C182.558 104.719 182.418 104.289 182.268 103.859L181.988 102.719L180.138 99.3085L179.858 98.8785C179.718 98.4485 179.428 98.1685 179.288 97.5985L178.438 94.8985L177.438 93.6185L176.298 90.3485L175.588 89.0685L174.308 85.7985L174.028 85.0885C173.888 84.8085 173.748 84.3785 173.598 83.9485L173.028 81.5285L172.178 80.2485L170.898 77.1185L169.758 75.1285L168.618 72.4285C168.478 71.8585 168.338 71.4285 168.338 71.0085L168.198 70.1585L166.778 67.4585L166.068 65.6085L164.788 63.8985C164.508 63.4685 164.078 62.8985 163.938 62.3385L163.508 61.3385L162.228 58.6385C161.948 58.0685 161.658 57.4985 161.518 56.9285L161.378 56.0785L159.958 52.0985L158.538 48.8285C158.538 48.8285 159.678 45.8385 160.528 44.8485C160.808 44.5685 161.378 44.4185 161.668 44.4185L164.368 44.2785L165.938 44.1385L167.358 43.9985H168.498L169.348 44.1385H170.908L172.618 44.4185L172.898 44.2785C173.748 43.9985 174.888 44.1385 175.888 44.2785H176.028L177.738 44.4185L179.158 43.9885C180.158 43.9885 181.438 44.4185 182.568 45.2685C182.998 45.5485 183.568 46.4085 184.138 47.5485L185.138 49.5385C185.418 50.2485 185.568 51.0985 185.708 51.8185L185.848 52.0985L186.988 54.9385L187.558 56.7885L188.698 60.0585L189.128 61.4785L190.128 64.4685L190.558 65.7485L191.558 69.3085L193.118 72.5785L193.828 74.1385L194.538 76.2685C194.818 77.1185 194.968 77.6885 194.968 78.5485V79.1185L196.528 79.5485L197.238 78.2685L197.808 76.7085L199.228 73.7185L199.508 71.8685L200.358 68.3085L200.498 66.8885L200.778 65.7485C200.918 65.4685 201.058 65.0385 201.208 64.6085L202.058 63.1885L202.198 61.6285L203.618 58.4985L204.618 56.7885L205.758 53.6585L206.188 52.2385C206.188 51.3885 206.328 50.6785 206.618 49.8185L207.048 48.6785C207.328 47.8285 207.618 47.2585 208.048 46.6885L208.328 46.2585L209.468 45.5485C210.318 44.9785 211.038 44.8385 211.888 44.6985L211.818 44.6785Z" fill="#07374F"/>
<path d="M266.718 88.3385L266.438 86.3485L266.578 82.6485L266.298 81.5085L266.578 78.0985L266.148 76.5385L266.428 73.2685L265.998 71.9885L266.138 68.5785L265.998 66.7285L266.428 62.3185L266.708 58.9085V58.7685C266.848 57.9185 266.848 57.3485 266.708 56.4885V56.2085L266.278 53.0785L266.558 51.5185L266.588 51.1385C266.628 49.3585 266.668 48.0585 266.378 47.0785C266.308 46.8985 266.238 46.7185 266.138 46.5385C266.038 46.3285 265.918 46.1385 265.778 45.9485C265.758 45.9285 265.738 45.8985 265.718 45.8785C265.688 45.8485 265.658 45.8185 265.638 45.7885C265.198 45.3485 264.568 44.9785 263.668 44.6385C263.608 44.6185 263.528 44.5985 263.458 44.5785C262.598 44.4185 261.648 44.4085 260.598 44.4085L259.178 44.5485L258.608 44.4085C258.178 44.2685 257.468 44.2685 257.038 44.2685H253.198L251.408 44.1385C250.788 44.1785 250.198 44.2285 249.658 44.2785C249.268 44.3485 248.868 44.4285 248.508 44.5485L248.228 44.6885L245.928 44.8785C243.278 45.7685 241.848 47.7985 241.398 50.4885V51.6485C241.328 51.8085 241.288 51.9785 241.238 52.1385C241.238 52.4985 241.228 52.8685 241.238 53.2385C241.238 53.2385 241.178 53.1585 241.058 52.9985C240.998 53.6185 241.018 54.2585 241.098 54.9085L241.238 56.1885L241.378 58.1785V61.7385L241.098 63.4485L240.818 66.7185L240.958 68.4285V71.8385L241.668 73.3985V76.8085L241.528 77.0885C241.248 78.2285 241.098 78.9385 241.248 80.0785L241.528 81.9285L241.388 83.9185L241.248 86.9085V88.6185L240.818 91.0385V93.3185L240.958 96.8785L241.098 98.4385V101.848L240.958 102.988L241.098 106.548C240.958 107.258 240.818 108.258 240.818 108.968L240.958 111.668L241.098 113.658L241.238 113.798C242.658 114.798 244.228 115.358 245.218 115.218H249.338L251.898 115.498C252.608 115.638 253.178 115.638 253.748 115.498L254.028 115.358L257.588 115.078H257.728C258.728 115.358 259.718 115.358 260.568 115.218L261.138 115.078C261.988 114.938 262.988 114.938 263.558 114.228C264.698 113.228 265.978 111.238 265.978 111.238L266.258 108.108L266.398 106.258V102.988L265.968 101.428L266.108 98.1585L266.678 96.0285L267.108 93.4685C267.248 92.7585 267.108 92.1885 267.108 91.6185L266.678 88.3485L266.718 88.3385Z" fill="#07374F"/>
<path d="M356.468 112.658L355.898 111.518L354.328 108.678L353.478 107.258L350.778 103.278L349.358 100.148L349.078 99.4385C348.938 99.1585 348.798 98.7285 348.648 98.4385L346.798 95.3085L345.518 93.7485L344.098 91.0485L341.108 87.0685L340.828 86.4985C340.688 86.0685 340.398 85.7885 340.118 85.4985L338.268 83.3685L337.558 81.6585L336.138 78.3885L335.288 76.9685L335.568 73.9785L336.568 72.4185L337.568 71.4185C338.418 70.7085 338.988 69.7085 339.278 68.9985L340.418 67.2885L341.838 64.8685L341.978 64.7285C342.688 64.1585 342.978 63.5885 343.398 63.0185L344.818 61.0285L345.668 59.4685L347.948 56.0585L348.948 54.7785L351.368 51.9385L352.218 51.2285C352.508 50.9485 352.788 50.5185 353.068 50.2285L354.488 48.2385L355.338 46.8185C356.048 46.2485 356.188 45.5385 355.908 44.9685C355.628 44.5385 354.908 44.2585 353.918 44.2585L352.208 44.3985L348.228 44.5385H346.808L342.678 44.6785L341.118 44.3985L337.138 44.1185L335.428 44.3985L331.728 44.2585C330.588 44.2585 329.308 44.5385 328.028 45.2585C327.318 45.6885 326.888 46.1085 326.468 46.5385L326.038 46.8185L322.908 51.0885L321.058 53.7885L319.918 55.3485L318.068 58.3385L317.358 59.4785L315.368 61.7585L314.658 62.8985L312.098 65.5985L311.248 67.0185L310.248 68.0185L309.248 67.4485L308.818 65.8885L308.678 62.1885L308.818 60.1985L309.098 56.2185L308.528 54.9385L308.958 51.0985V47.4685C308.768 45.8285 308.108 44.8885 306.058 44.1285C302.848 42.9385 293.478 43.5285 290.008 43.9885C285.248 44.6185 283.408 48.0985 283.628 52.7485C283.628 52.7485 283.578 52.6885 283.508 52.5885L283.488 52.8085L283.348 55.9385V62.3385L283.488 66.1785L283.918 67.8885L283.488 71.7285V72.0085C283.348 72.5785 283.208 73.2885 283.208 73.8585L283.348 76.1385L283.068 77.9885L282.928 81.1185V82.2585L283.358 85.6685L283.218 87.6585V90.9285L283.078 92.7785L282.798 96.4785V98.3285L283.078 101.738L283.358 103.158V106.428L283.788 108.138L283.928 110.698C283.928 111.268 283.928 111.838 284.208 112.408C285.058 113.688 287.338 115.398 287.338 115.398L290.468 115.258H292.028L293.738 115.538H296.158C296.588 115.678 297.158 115.678 297.578 115.678H300.418C300.988 115.818 301.558 115.678 302.128 115.678L304.258 115.538C304.688 115.538 305.108 115.398 305.398 115.108C306.538 114.398 308.098 112.268 308.098 112.268L307.818 108.708L308.098 106.858L308.378 103.728V101.598L308.098 99.3185L308.238 97.1885L309.238 93.9185L310.088 92.6385L312.218 90.7885L313.498 89.6485L315.778 89.9285L316.348 91.2085L317.908 94.0485L318.758 95.7585L320.748 99.0285L322.028 100.588L324.018 103.718L324.868 104.568L326.148 107.698L326.718 108.978L328.278 112.108C328.558 113.248 328.988 114.098 329.558 114.528C330.838 115.528 331.978 115.948 332.968 115.948L334.388 115.808L337.948 115.668L339.658 115.388H343.068L343.638 115.668C344.488 115.948 345.348 115.948 346.198 115.948H348.478L350.468 115.808H354.738L356.018 115.668C356.728 114.668 356.728 113.538 356.448 112.678L356.468 112.658Z" fill="#07374F"/>
<path d="M288.638 1.2385C289.938 0.848504 291.148 0.348503 292.438 0.268503C293.728 0.188503 295.128 -0.0514939 296.428 0.158506C297.728 0.368506 299.108 0.658504 300.328 1.1485C301.548 1.6385 302.508 2.7185 303.598 3.4685C304.688 4.2185 305.528 5.1885 306.418 6.1685C307.308 7.1485 308.528 7.86851 309.188 9.02851C309.848 10.1885 310.208 11.4685 310.588 12.7685C310.968 14.0685 311.268 15.2485 311.358 16.4785C311.448 17.7085 311.548 19.0585 311.378 20.2985C311.208 21.5385 310.308 22.6285 309.878 23.7985C309.878 23.8085 310.398 23.9785 310.398 23.9985C310.018 25.4985 309.648 26.8285 309.848 28.0585C310.088 29.5585 310.758 30.8385 310.868 32.0385C310.968 33.1085 310.218 33.9785 309.148 34.0985C308.308 34.1885 307.178 34.2985 305.748 34.0785C304.778 33.9285 303.668 33.6985 302.418 33.2985C302.368 33.2885 302.248 33.0385 302.208 33.0285C301.078 33.6685 299.888 34.1485 298.598 34.5385C297.308 34.9285 296.078 35.5385 294.788 35.6285C293.498 35.7185 292.118 35.5385 290.818 35.3285C289.518 35.1185 288.278 34.6185 287.058 34.1285C285.838 33.6385 284.628 33.1085 283.538 32.3485C282.448 31.5885 281.528 30.6685 280.628 29.6885C279.728 28.7085 279.128 27.5885 278.468 26.4185C277.808 25.2485 276.848 24.2785 276.458 22.9785C276.068 21.6785 276.298 20.2985 276.208 19.0085C276.118 17.7185 275.858 16.3485 276.068 15.0585C276.278 13.7685 276.428 12.3685 276.918 11.1485C277.408 9.9285 278.278 8.82851 279.028 7.74851C279.778 6.66851 280.818 5.82851 281.798 4.92851C282.778 4.02851 283.798 3.27851 284.968 2.61851C286.138 1.95851 287.338 1.6485 288.628 1.2585L288.638 1.2385Z" fill="#FF945E"/>
<path d="M294.008 14.0985C293.258 14.0985 292.648 13.4885 292.648 12.7385V10.4985C292.648 9.74849 293.258 9.13849 294.008 9.13849C294.758 9.13849 295.368 9.74849 295.368 10.4985V12.7385C295.368 13.4885 294.758 14.0985 294.008 14.0985Z" fill="#07374F"/>
<path d="M300.698 14.1485H286.608C285.828 14.1485 285.198 13.5185 285.198 12.7385C285.198 11.9585 285.828 11.3285 286.608 11.3285H300.698C301.478 11.3285 302.108 11.9585 302.108 12.7385C302.108 13.5185 301.478 14.1485 300.698 14.1485Z" fill="#07374F"/>
<path d="M288.468 26.2685C287.908 26.2685 287.388 25.9285 287.188 25.3685C286.938 24.6585 287.298 23.8785 288.008 23.6285C288.038 23.6185 291.168 22.4485 293.818 19.5785C296.968 16.1785 297.488 12.5885 297.488 12.5585C297.588 11.8185 298.268 11.2885 299.018 11.3885C299.758 11.4885 300.288 12.1585 300.188 12.9085C300.168 13.0885 299.578 17.3585 295.818 21.4285C292.698 24.7985 289.088 26.1285 288.938 26.1885C288.788 26.2485 288.628 26.2685 288.478 26.2685H288.468Z" fill="#07374F"/>
<path d="M298.838 26.2685C298.688 26.2685 298.528 26.2385 298.378 26.1885C298.228 26.1385 294.618 24.8085 291.498 21.4285C287.738 17.3585 287.148 13.0885 287.128 12.9085C287.038 12.1685 287.558 11.4785 288.308 11.3885C289.048 11.2885 289.728 11.8185 289.828 12.5585C289.828 12.6285 290.368 16.1985 293.498 19.5785C296.148 22.4485 299.278 23.6185 299.308 23.6285C300.008 23.8885 300.378 24.6685 300.118 25.3685C299.918 25.9185 299.398 26.2685 298.838 26.2685Z" fill="#07374F"/>
<path d="M258.838 0.708502C257.538 0.318502 256.168 0.4385 254.878 0.3585C253.588 0.2785 252.218 0.118503 250.928 0.318503C249.638 0.518503 248.468 1.2485 247.248 1.7385C246.028 2.2285 244.928 2.8485 243.838 3.5985C242.748 4.3485 241.688 5.0485 240.788 6.0385C239.888 7.0285 239.258 8.1085 238.608 9.2785C237.958 10.4485 237.088 11.4485 236.708 12.7485C236.328 14.0485 235.948 15.2285 235.858 16.4585C235.768 17.6885 236.168 18.9985 236.338 20.2285C236.508 21.4585 236.958 22.6385 237.398 23.8085C237.398 23.8185 237.028 23.9485 237.028 23.9585C237.408 25.4585 237.328 26.7485 237.128 27.9785C236.888 29.4785 236.668 30.8285 236.558 32.0285C236.458 33.0985 237.118 34.1285 238.188 34.2385C239.028 34.3285 240.208 34.5385 241.638 34.3185C242.608 34.1685 243.708 33.7685 244.958 33.3685C245.008 33.3585 245.078 33.0585 245.118 33.0485C246.248 33.6885 247.438 34.1985 248.728 34.5885C250.018 34.9785 251.258 35.6385 252.558 35.7285C253.858 35.8185 255.198 35.2285 256.488 35.0185C257.778 34.8085 259.108 34.6685 260.328 34.1785C261.548 33.6885 262.588 32.8785 263.678 32.1285C264.768 31.3785 266.008 30.8085 266.908 29.8285C267.808 28.8485 268.778 27.8785 269.438 26.7085C270.098 25.5385 270.058 24.1185 270.438 22.8185C270.818 21.5185 271.368 20.2985 271.448 18.9985C271.528 17.6985 271.708 16.2885 271.508 14.9885C271.308 13.6885 270.348 12.5585 269.858 11.3385C269.368 10.1185 268.918 8.8985 268.158 7.8085C267.398 6.7185 266.628 5.6685 265.648 4.7685C264.668 3.8685 263.518 3.2885 262.348 2.6285C261.178 1.9685 260.168 1.0685 258.878 0.688502L258.838 0.708502Z" fill="#FFB48E"/>
<path d="M261.328 25.4285C261.288 25.9285 261.138 26.2985 260.868 26.5385C260.598 26.7885 260.278 26.9085 259.908 26.9085C259.628 26.9085 259.358 26.8285 259.088 26.6685C258.818 26.5085 258.608 26.2585 258.448 25.9285C258.348 25.0385 258.198 24.1685 257.988 23.3185C257.778 22.4685 257.518 21.5985 257.198 20.7085C255.948 20.7085 254.708 20.7185 253.458 20.7385C252.208 20.7585 250.958 20.7685 249.688 20.7685H249.628C249.388 21.5985 249.168 22.3985 248.958 23.1585C248.748 23.9185 248.558 24.7385 248.378 25.6085C248.218 26.0485 248.008 26.3585 247.758 26.5585C247.498 26.7585 247.228 26.8585 246.928 26.8585C246.508 26.8585 246.148 26.6985 245.848 26.3685C245.538 26.0385 245.448 25.6085 245.568 25.0785C246.198 22.2485 246.968 19.4885 247.878 16.7985C248.788 14.1085 249.938 11.4485 251.318 8.81852L251.288 8.84852C251.448 8.42852 251.788 8.16852 252.328 8.04852H252.298C252.828 7.86852 253.308 7.96852 253.718 8.34852C254.208 8.81852 254.668 9.34852 255.098 9.93852C255.518 10.5185 255.918 11.1285 256.288 11.7485C256.658 12.3685 256.998 12.9985 257.308 13.6285C257.628 14.2585 257.918 14.8685 258.198 15.4385C258.378 15.8185 258.568 16.2385 258.758 16.6985C258.958 17.1685 259.148 17.6285 259.318 18.0785C259.538 18.0785 259.778 18.0785 260.028 18.0685C260.288 18.0685 260.518 18.0485 260.738 18.0485C261.158 18.1885 261.458 18.3785 261.658 18.6085C261.858 18.8485 261.958 19.0985 261.958 19.3785C261.958 19.6585 261.848 19.9185 261.628 20.1685C261.408 20.4185 261.078 20.5885 260.618 20.6885H260.258C260.748 22.2285 261.098 23.8185 261.298 25.4385L261.328 25.4285ZM254.468 14.2685C254.228 13.8285 253.988 13.3985 253.738 12.9585C253.488 12.5185 253.248 12.1385 253.008 11.7985C252.538 12.8085 252.088 13.8285 251.688 14.8685C251.278 15.9085 250.878 16.9885 250.488 18.1185C251.498 18.1185 252.458 18.1185 253.378 18.0885C254.298 18.0685 255.258 18.0585 256.268 18.0585C256.028 17.4885 255.788 16.9385 255.528 16.4285C255.268 15.9185 255.018 15.3685 254.758 14.7985L254.458 14.2685H254.468Z" fill="#07374F"/>
</svg>
