<svg width="533" height="118" viewBox="0 0 533 118" fill="none" xmlns="http://www.w3.org/2000/svg">
<path d="M254.717 35.3985L252.867 35.2585L249.597 35.1185L247.887 34.8385L244.327 34.6985L242.757 35.1285L240.627 35.2685C240.057 35.2685 239.207 35.4085 238.637 35.2685L238.207 35.1285H234.937L232.657 35.2685L230.387 37.2585L230.527 38.6785L230.097 42.3785L230.377 43.6585L230.517 46.0785C230.517 46.7885 230.377 47.7885 230.237 48.4985L230.097 48.9285L230.377 51.4885V52.7685L230.237 53.6185L229.667 56.8885V62.0085L230.377 63.2885L230.517 66.2785V67.5585L230.377 68.5585L230.517 71.1185V72.2585L230.377 73.6785L230.517 76.9485V78.9385L230.237 82.2085L230.377 82.3485C230.657 83.4885 230.657 84.1985 230.517 85.3385L230.237 87.1885V88.8985L230.097 92.1685V93.8785L230.237 95.0185C230.377 96.4385 230.237 97.2985 229.807 98.1485V101.558L230.237 102.698V105.538C230.237 105.968 230.097 106.678 229.957 107.098L229.677 108.238L230.107 111.508C230.107 111.508 229.967 111.788 229.827 112.218C228.547 114.638 226.697 115.348 225.707 115.208L222.437 115.488C221.727 115.768 220.727 115.918 219.737 115.768L217.747 115.628L216.187 115.348L213.197 115.068H211.067L208.787 115.348C208.217 115.488 207.367 115.488 206.797 115.348L206.227 115.208C204.947 114.068 204.237 112.928 204.097 111.798V111.518L203.957 108.108L204.097 106.688L203.957 103.988C203.957 103.558 204.097 103.138 204.097 102.708L204.377 101.428L204.237 98.2985L204.517 96.5885L204.237 93.1785V91.7585L204.377 90.0485L203.947 88.4885V81.5185L203.807 79.0985C203.807 78.6685 203.807 77.9585 203.947 77.5385L204.087 76.8285L204.367 73.5585V71.9985L203.797 68.7285V68.2985C203.657 67.7285 203.657 67.1585 203.657 66.5885L203.797 63.7485V59.1985C203.797 58.9185 203.937 58.3485 203.937 58.0585L204.077 56.9185L204.357 53.9285V52.0785L204.497 47.6685L204.357 43.9685L204.077 42.2585L203.937 38.6985L203.797 36.8485L202.377 35.2885L201.097 35.1485H199.677L196.407 35.0085L195.977 35.1485C195.127 35.4285 194.407 35.4285 193.557 35.4285H192.707C192.277 35.4285 191.857 35.2885 191.427 35.1485L190.577 34.8685L189.017 35.0085L185.607 34.7285L184.047 35.1585L181.057 35.2985H179.637L178.927 35.1585C177.787 34.3085 176.937 33.3085 176.797 32.4585L177.227 30.8985L176.657 27.7685C176.657 27.3385 176.517 27.0585 176.517 26.4885L176.657 25.2085L176.517 22.2185L176.377 21.2185C176.237 20.3685 176.237 19.9385 176.377 19.0885L176.517 17.5285C176.517 16.9585 176.657 16.6785 176.797 16.2485L177.227 14.6885C178.507 13.4085 179.787 12.8385 180.787 12.9785L183.067 12.8385C183.637 12.8385 184.207 12.6985 184.777 12.8385L186.057 13.1185L189.047 12.9785L190.897 13.1185H193.597L195.307 12.6885H197.297C198.007 12.6885 198.867 12.6885 199.577 12.9685L200.577 13.2485L203.417 13.3885L205.547 12.8185H209.107L218.497 13.5285L220.487 13.0985L223.617 13.3785L225.467 13.6585L228.167 13.5185L229.017 13.2385C229.867 12.9585 230.867 12.8085 231.857 12.9585L233.567 13.0985L235.557 13.2385L238.547 13.0985L240.397 12.9585L243.807 13.0985L245.517 12.9585L249.077 13.0985H253.347C253.347 13.0985 256.757 15.5185 257.327 16.9385V17.6485L257.467 20.4885L257.747 22.3385L258.027 24.7585C258.027 25.3285 258.167 25.8985 258.027 26.4685L257.887 26.8985L257.747 30.0285V31.7385C257.887 32.8785 257.607 33.5885 257.037 34.1585C256.467 34.7285 255.617 35.1585 254.757 35.4385L254.717 35.3985Z" fill="#07374F"/>
<path d="M300.657 43.0785C301.087 43.0785 301.507 43.2185 301.797 43.3585L304.787 44.2085C305.787 44.2085 306.777 44.4885 307.627 44.9185L309.617 45.9185H309.897C310.897 46.1985 311.887 46.7685 312.737 47.4785L314.017 48.4785L314.297 48.6185C315.147 49.0485 315.717 49.3285 316.427 50.0385L318.137 51.4585L321.127 53.7385L322.127 54.7385L323.687 56.2985C324.397 56.8685 324.827 57.5785 325.247 58.5785L325.527 59.2885L326.807 60.8485C327.237 61.5585 327.517 62.1285 327.807 62.9785L328.087 63.5485L328.937 66.9585L329.937 68.8085L330.787 71.2285C331.067 71.9385 331.217 72.7885 331.217 73.6485V76.3485L331.077 78.1985V81.7585L330.937 83.6085L331.077 86.1685C331.077 86.7385 330.937 87.5885 330.797 88.1585L329.947 91.1485V91.7185C329.807 92.4285 329.517 93.2785 329.237 93.9985L328.527 95.5585C328.387 95.9885 328.097 96.5585 327.817 96.8385L327.247 97.5485L325.257 100.108L324.547 102.098L322.267 104.938L321.417 106.078L318.997 108.358C318.567 108.788 317.997 109.208 317.577 109.498L315.157 110.778L314.157 111.348L310.747 113.478L309.467 114.478L307.197 115.478C306.767 115.758 306.197 115.908 305.627 116.048L304.917 116.188L301.647 116.618L300.227 116.898C299.657 117.038 299.087 117.038 298.517 117.038L296.387 116.898H294.677L294.247 117.038C293.397 117.178 292.397 117.178 291.547 116.898L291.117 116.758L289.837 117.038L286.427 116.758L284.437 116.618L281.307 115.908L279.737 115.198L276.897 114.198L276.047 114.058C275.337 113.778 274.627 113.488 274.057 113.058L272.347 111.778L270.637 111.068L267.797 109.078L267.227 108.648C266.797 108.368 266.377 107.938 265.947 107.368L265.517 106.938L264.097 105.658C263.527 105.228 262.817 104.518 262.247 103.808L261.107 102.248L260.677 101.398C260.537 101.118 260.247 100.688 260.107 100.258L259.107 97.4185L258.107 96.2785L256.827 93.0085L256.257 91.4485L255.547 88.6085C255.407 88.0385 255.407 87.6085 255.407 87.1885V86.4785L255.267 83.0685L255.127 81.7885L254.557 79.7985L254.417 77.8085V77.2385C254.417 76.5285 254.417 75.8185 254.557 75.2485L255.127 72.2585L255.697 69.4185C255.837 68.8485 255.977 68.2785 256.267 67.8585L256.697 66.8585L257.547 63.8685L258.117 62.3085C258.117 62.1685 258.257 61.8785 258.397 61.7385L259.537 59.6085C259.817 59.1785 260.107 58.6085 260.537 58.1885L261.107 57.7585L263.237 55.4785L264.377 54.3385L266.797 51.7785L267.367 51.2085C267.647 50.7785 268.077 50.4985 268.507 50.0685L269.927 48.9285C270.497 48.4985 271.067 48.2185 271.637 47.9285L272.067 47.7885L274.627 46.5085C274.907 46.3685 275.477 46.3685 275.767 46.2285L276.767 45.9485L279.757 44.9485L281.177 44.5185L284.877 43.3785L285.727 42.9485C286.157 42.8085 286.577 42.6685 287.007 42.5185L288.427 42.2385C289.277 42.0985 290.137 42.2385 290.987 42.3785H291.127L293.117 42.2385L294.687 42.3785L296.537 42.5185L299.807 42.9485L300.657 43.0885V43.0785ZM301.087 94.2785L303.077 91.5785L304.077 90.2985L305.787 87.8785L306.067 86.4585L307.207 83.3285L307.067 81.4785L306.927 79.9185V76.9285L306.497 73.7985L305.647 72.2385L303.797 68.9685L303.087 68.1185L300.807 66.5585C300.237 66.1285 299.807 65.7085 299.527 65.2785L299.097 64.8485L296.257 64.2785L294.407 64.4185H292.987L291.277 64.5585H289.287L286.727 64.9885L283.027 67.5485L282.027 68.5485L280.037 71.8185L279.467 72.9585L279.037 76.7985V77.9385L279.317 79.9285V80.0685C279.457 81.0685 279.317 81.7785 279.037 82.7685V82.9085L279.607 86.3185L280.037 87.8785L281.747 90.7185L283.027 91.9985L285.307 94.4185L286.867 95.2685L289.997 95.8385H290.427C291.137 95.8385 291.987 95.8385 292.697 96.1185L292.837 96.2585L294.827 95.8285L296.247 96.2585L299.517 94.8385L301.077 94.2685L301.087 94.2785Z" fill="#07374F"/>
<path d="M387.427 44.6485L387.857 44.5085L389.427 44.6485H392.417L393.837 44.3685H397.967L401.527 44.6485L403.237 44.7885L406.937 44.5085C406.937 44.5085 407.937 45.5085 408.647 46.3585C409.497 47.4985 409.077 48.7785 408.647 49.9185L407.937 51.3385L407.227 52.7585L406.087 56.0285L405.237 57.8785L403.667 61.4385L402.107 65.2785L401.397 67.2685L400.547 69.9685C400.407 70.3985 400.117 70.6785 399.837 71.2485L399.267 72.3885L398.417 74.3785C398.277 74.9485 397.847 75.3785 397.567 75.7985L397.137 76.5085L395.427 79.6385L395.147 81.4885L394.147 84.0485C394.007 84.3285 393.867 84.6185 393.717 85.0485L393.147 86.0485L392.007 88.6085L391.157 90.1685L389.597 93.4385L388.887 95.2885L387.467 98.4185L386.757 99.6985L385.757 101.979C385.477 102.828 385.187 103.398 384.757 103.968L384.327 104.538L383.047 107.378L382.907 108.798L382.057 111.218C381.917 111.788 381.487 112.219 381.207 112.639L380.637 113.639L379.217 114.348C378.367 114.778 377.507 115.198 376.517 115.348H376.237L374.247 115.779C373.677 115.919 372.967 115.779 372.397 115.779H371.827L370.977 115.919C370.407 116.059 369.697 115.919 369.127 115.919L367.137 115.779C365.997 115.919 364.437 115.348 362.867 114.218C362.437 114.078 362.017 113.368 361.587 112.508L360.587 109.518L359.447 107.809L358.307 104.968C358.167 104.688 358.027 104.258 357.877 103.828L357.597 102.688L355.747 99.2785L355.467 98.8485C355.327 98.4185 355.037 98.1385 354.897 97.5685L354.047 94.8685L353.047 93.5885L351.907 90.3185L351.197 89.0385L349.917 85.7685L349.637 85.0585C349.497 84.7785 349.357 84.3485 349.207 83.9185L348.637 81.4985L347.787 80.2185L346.507 77.0885L345.367 75.0985L344.227 72.3985C344.087 71.8285 343.947 71.3985 343.947 70.9785L343.807 70.1285L342.387 67.4285L341.677 65.5785L340.397 63.8685C340.117 63.4385 339.687 62.8685 339.547 62.3085L339.117 61.3085L337.837 58.6085C337.557 58.0385 337.267 57.4685 337.127 56.8985L336.987 56.0485L335.567 52.0685L334.147 48.7985C334.147 48.7985 335.287 45.8085 336.137 44.8185C336.417 44.5385 336.987 44.3885 337.277 44.3885L339.977 44.2485L341.547 44.1085L342.967 43.9685H344.107L344.957 44.1085H346.517L348.227 44.3885L348.507 44.2485C349.357 43.9685 350.497 44.1085 351.497 44.2485H351.637L353.347 44.3885L354.767 43.9585C355.767 43.9585 357.047 44.3885 358.177 45.2385C358.607 45.5185 359.177 46.3785 359.747 47.5185L360.747 49.5085C361.027 50.2185 361.177 51.0685 361.317 51.7885L361.457 52.0685L362.597 54.9085L363.167 56.7585L364.307 60.0285L364.737 61.4485L365.737 64.4385L366.167 65.7185L367.167 69.2785L368.727 72.5485L369.437 74.1085L370.147 76.2385C370.427 77.0885 370.577 77.6585 370.577 78.5185V79.0885L372.137 79.5185L372.847 78.2385L373.417 76.6785L374.837 73.6885L375.117 71.8385L375.967 68.2785L376.107 66.8585L376.387 65.7185C376.527 65.4385 376.667 65.0085 376.817 64.5785L377.667 63.1585L377.807 61.5985L379.227 58.4685L380.227 56.7585L381.367 53.6285L381.797 52.2085C381.797 51.3585 381.937 50.6485 382.227 49.7885L382.657 48.6485C382.937 47.7985 383.227 47.2285 383.657 46.6585L383.937 46.2285L385.077 45.5185C385.927 44.9485 386.647 44.8085 387.497 44.6685L387.427 44.6485Z" fill="#07374F"/>
<path d="M532.077 112.629L531.507 111.489L529.938 108.649L529.087 107.229L526.387 103.249L524.967 100.119L524.688 99.4085C524.548 99.1285 524.407 98.6985 524.257 98.4085L522.407 95.2785L521.128 93.7185L519.707 91.0185L516.717 87.0385L516.438 86.4685C516.298 86.0385 516.007 85.7585 515.727 85.4685L513.878 83.3385L513.167 81.6285L511.747 78.3585L510.897 76.9385L511.177 73.9485L512.177 72.3885L513.177 71.3885C514.027 70.6785 514.597 69.6785 514.887 68.9685L516.027 67.2585L517.447 64.8385L517.587 64.6985C518.297 64.1285 518.587 63.5585 519.007 62.9885L520.427 60.9985L521.277 59.4385L523.557 56.0285L524.557 54.7485L526.977 51.9085L527.827 51.1985C528.107 50.9185 528.397 50.4885 528.677 50.1985L530.097 48.2085L530.947 46.7885C531.657 46.2185 531.797 45.5085 531.517 44.9385C531.237 44.5085 530.517 44.2285 529.527 44.2285L527.817 44.3685L523.837 44.5085H522.417L518.287 44.6485L516.727 44.3685L512.747 44.0885L511.037 44.3685L507.337 44.2285C506.197 44.2285 504.917 44.5085 503.637 45.2285C502.927 45.6585 502.497 46.0785 502.077 46.5085L501.647 46.7885L498.517 51.0585L496.667 53.7585L495.527 55.3185L493.677 58.3085L492.967 59.4485L490.977 61.7285L490.267 62.8685L487.707 65.5685L486.857 66.9885L485.857 67.9885L484.857 67.4185L484.427 65.8585L484.287 62.1585L484.427 60.1685L484.717 56.1885L484.147 54.9085L484.577 51.0685V47.4385C484.387 45.7985 483.727 44.8585 481.677 44.0985C478.467 42.9085 469.097 43.4985 465.627 43.9585C460.867 44.5885 459.027 48.0685 459.247 52.7185C459.247 52.7185 459.197 52.6585 459.127 52.5585L459.107 52.7785L458.967 55.9085V62.3085L459.107 66.1485L459.537 67.8585L459.107 71.6985V71.9785C458.967 72.5485 458.827 73.2585 458.827 73.8285L458.967 76.1085L458.687 77.9585L458.547 81.0885V82.2285L458.977 85.6385L458.837 87.6285V90.8985L458.697 92.7485L458.417 96.4485V98.2985L458.697 101.709L458.977 103.129V106.399L459.407 108.109L459.547 110.669C459.547 111.239 459.547 111.809 459.827 112.379C460.677 113.659 462.957 115.369 462.957 115.369L466.087 115.229H467.647L469.357 115.509H471.777C472.207 115.649 472.777 115.649 473.197 115.649H476.037C476.607 115.789 477.177 115.649 477.747 115.649L479.877 115.509C480.307 115.509 480.727 115.369 481.017 115.079C482.157 114.369 483.717 112.239 483.717 112.239L483.437 108.679L483.717 106.829L483.997 103.699V101.569L483.717 99.2885L483.857 97.1585L484.857 93.8885L485.707 92.6085L487.837 90.7585L489.117 89.6185L491.397 89.8985L491.967 91.1785L493.527 94.0185L494.377 95.7285L496.367 98.9985L497.647 100.559L499.637 103.689L500.487 104.539L501.767 107.669L502.337 108.949L503.897 112.079C504.177 113.219 504.607 114.069 505.177 114.499C506.457 115.499 507.597 115.919 508.587 115.919L510.007 115.779L513.567 115.639L515.277 115.359H518.688L519.257 115.639C520.107 115.919 520.967 115.919 521.817 115.919H524.097L526.087 115.779H530.357L531.637 115.639C532.347 114.639 532.347 113.509 532.067 112.649L532.077 112.629Z" fill="#07374F"/>
<path d="M464.138 0.85849C465.438 0.46849 466.738 0.0984875 468.028 0.00848754C469.318 -0.0815125 470.698 0.188489 471.988 0.388489C473.278 0.588489 474.478 1.17849 475.698 1.66849C476.918 2.15849 478.348 2.31849 479.438 3.06849C480.528 3.81849 481.328 4.94849 482.228 5.92849C483.128 6.90849 483.628 8.09849 484.288 9.26849C484.948 10.4385 486.078 11.3485 486.468 12.6385C486.858 13.9285 486.878 15.1985 486.968 16.4285C487.058 17.6585 487.047 18.9985 486.867 20.2285C486.687 21.4585 486.047 22.6185 485.617 23.7985C485.617 23.8085 486.117 23.9585 486.117 23.9785C485.737 25.4785 485.468 26.7485 485.668 27.9685C485.908 29.4685 486.648 30.7585 486.758 31.9585C486.858 33.0285 485.818 33.9585 484.748 34.0685C483.908 34.1585 482.827 33.8785 481.397 33.6685C480.427 33.5185 479.318 33.4585 478.078 33.0585C478.028 33.0485 478.018 33.2985 477.978 33.2785C476.848 33.9185 475.588 34.3985 474.288 34.7785C472.988 35.1585 471.658 35.1185 470.358 35.1985C469.058 35.2785 467.727 35.3685 466.427 35.1585C465.127 34.9485 463.738 34.8885 462.518 34.3885C461.298 33.8885 460.058 33.2685 458.968 32.5085C457.878 31.7485 456.998 30.7085 456.098 29.7285C455.198 28.7485 454.428 27.6785 453.768 26.5085C453.108 25.3385 452.328 24.2285 451.938 22.9385C451.548 21.6485 451.448 20.2485 451.358 18.9585C451.268 17.6685 451.868 16.3385 452.078 15.0485C452.288 13.7585 452.088 12.3185 452.578 11.0885C453.068 9.85849 454.177 8.95849 454.927 7.86849C455.677 6.77849 456.458 5.78849 457.438 4.88849C458.418 3.98849 459.188 2.82849 460.358 2.16849C461.528 1.50849 462.827 1.20849 464.117 0.818489L464.138 0.85849Z" fill="#FF945E"/>
<path d="M469.618 14.0685C468.868 14.0685 468.258 13.4585 468.258 12.7085V10.4685C468.258 9.71852 468.868 9.10852 469.618 9.10852C470.368 9.10852 470.978 9.71852 470.978 10.4685V12.7085C470.978 13.4585 470.368 14.0685 469.618 14.0685Z" fill="#07374F"/>
<path d="M476.307 14.1185H462.217C461.437 14.1185 460.807 13.4885 460.807 12.7085C460.807 11.9285 461.437 11.2985 462.217 11.2985H476.307C477.087 11.2985 477.717 11.9285 477.717 12.7085C477.717 13.4885 477.087 14.1185 476.307 14.1185Z" fill="#07374F"/>
<path d="M464.078 26.2385C463.518 26.2385 462.998 25.8985 462.798 25.3385C462.548 24.6285 462.907 23.8485 463.617 23.5985C463.647 23.5885 466.777 22.4185 469.427 19.5485C472.577 16.1485 473.097 12.5585 473.097 12.5285C473.197 11.7885 473.887 11.2585 474.617 11.3585C475.357 11.4585 475.887 12.1285 475.787 12.8785C475.767 13.0585 475.188 17.3285 471.418 21.3985C468.298 24.7685 464.687 26.0985 464.537 26.1585C464.387 26.2185 464.228 26.2385 464.078 26.2385Z" fill="#07374F"/>
<path d="M474.438 26.2385C474.288 26.2385 474.128 26.2085 473.978 26.1585C473.828 26.1085 470.218 24.7785 467.098 21.3985C463.338 17.3285 462.748 13.0585 462.728 12.8785C462.638 12.1385 463.158 11.4485 463.908 11.3585C464.648 11.2585 465.328 11.7885 465.428 12.5285C465.428 12.5985 465.968 16.1685 469.098 19.5485C471.748 22.4185 474.878 23.5885 474.908 23.5985C475.608 23.8585 475.978 24.6385 475.718 25.3385C475.518 25.8885 474.998 26.2385 474.438 26.2385Z" fill="#07374F"/>
<path d="M434.328 1.08847C433.028 0.69847 431.788 0.338469 430.488 0.248469C429.188 0.158469 427.858 0.32847 426.568 0.53847C425.278 0.74847 423.837 0.648469 422.617 1.13847C421.397 1.62847 420.367 2.57847 419.277 3.33847C418.187 4.09847 416.968 4.73847 416.078 5.71847C415.188 6.69847 414.358 7.78847 413.698 8.95847C413.038 10.1285 412.807 11.4585 412.427 12.7485C412.047 14.0385 411.698 15.2085 411.598 16.4385C411.498 17.6685 411.388 19.0185 411.568 20.2485C411.748 21.4785 412.548 22.6085 412.978 23.7885C412.978 23.7985 412.618 23.9185 412.628 23.9385C413.008 25.4385 413.088 26.7585 412.888 27.9885C412.648 29.4885 412.338 30.8185 412.228 32.0185C412.128 33.0885 412.738 33.8885 413.798 33.9985C414.638 34.0885 415.717 33.9685 417.147 33.7485C418.117 33.5985 419.278 33.6585 420.518 33.2585C420.568 33.2485 420.688 32.9885 420.738 32.9685C421.868 33.6085 423.037 34.1485 424.337 34.5285C425.637 34.9085 426.898 35.0285 428.198 35.1185C429.498 35.2085 430.808 35.2685 432.098 35.0585C433.388 34.8485 434.617 34.4285 435.837 33.9385C437.057 33.4485 438.247 32.9485 439.337 32.1885C440.427 31.4285 441.758 30.9185 442.658 29.9385C443.558 28.9585 443.828 27.5285 444.478 26.3685C445.128 25.2085 445.738 24.1185 446.128 22.8185C446.518 21.5185 446.847 20.2585 446.927 18.9685C447.007 17.6785 447.167 16.2885 446.957 14.9885C446.747 13.6885 446.428 12.3385 445.938 11.1185C445.447 9.89847 444.667 8.76847 443.908 7.67847C443.148 6.58847 442.108 5.76847 441.128 4.86847C440.148 3.96847 439.088 3.28847 437.918 2.62847C436.748 1.96847 435.627 1.46847 434.337 1.07847L434.328 1.08847Z" fill="#FFB48E"/>
<path d="M436.928 25.3985C436.888 25.8985 436.738 26.2685 436.468 26.5085C436.198 26.7585 435.878 26.8785 435.508 26.8785C435.228 26.8785 434.958 26.7985 434.688 26.6385C434.418 26.4785 434.208 26.2285 434.048 25.8985C433.948 25.0085 433.798 24.1385 433.588 23.2885C433.378 22.4385 433.118 21.5685 432.798 20.6785C431.548 20.6785 430.308 20.6885 429.058 20.7085C427.808 20.7285 426.558 20.7385 425.288 20.7385H425.228C424.988 21.5685 424.768 22.3685 424.558 23.1285C424.348 23.8885 424.158 24.7085 423.978 25.5785C423.818 26.0185 423.608 26.3285 423.358 26.5285C423.098 26.7285 422.828 26.8285 422.528 26.8285C422.108 26.8285 421.748 26.6685 421.448 26.3385C421.138 26.0085 421.048 25.5785 421.168 25.0485C421.798 22.2185 422.568 19.4585 423.478 16.7685C424.388 14.0785 425.538 11.4185 426.918 8.78849L426.888 8.81849C427.048 8.39849 427.388 8.13849 427.928 8.01849H427.898C428.428 7.83849 428.908 7.93849 429.318 8.31849C429.808 8.78849 430.268 9.31849 430.698 9.90849C431.128 10.4885 431.518 11.0985 431.888 11.7185C432.258 12.3385 432.598 12.9685 432.908 13.5985C433.228 14.2285 433.518 14.8385 433.798 15.4085C433.978 15.7885 434.168 16.2085 434.358 16.6685C434.558 17.1385 434.748 17.5985 434.918 18.0485C435.138 18.0485 435.368 18.0485 435.628 18.0385C435.888 18.0385 436.118 18.0185 436.338 18.0185C436.758 18.1585 437.058 18.3485 437.258 18.5785C437.458 18.8185 437.558 19.0685 437.558 19.3485C437.558 19.6285 437.448 19.8885 437.228 20.1385C437.008 20.3885 436.678 20.5585 436.218 20.6585H435.858C436.348 22.1985 436.698 23.7885 436.898 25.4085L436.928 25.3985ZM430.078 14.2385C429.838 13.7985 429.598 13.3685 429.348 12.9285C429.098 12.4885 428.858 12.1085 428.618 11.7685C428.148 12.7785 427.698 13.7985 427.298 14.8385C426.888 15.8785 426.488 16.9585 426.098 18.0885C427.108 18.0885 428.068 18.0885 428.988 18.0585C429.908 18.0385 430.868 18.0285 431.878 18.0285C431.638 17.4585 431.388 16.9085 431.138 16.3985C430.878 15.8885 430.628 15.3385 430.368 14.7685L430.068 14.2385H430.078Z" fill="#07374F"/>
<path d="M442.328 88.3085L442.048 86.3185L442.188 82.6185L441.908 81.4785L442.188 78.0685L441.758 76.5085L442.038 73.2385L441.608 71.9585L441.747 68.5485L441.608 66.6985L442.038 62.2885L442.318 58.8785V58.7385C442.458 57.8885 442.458 57.3185 442.318 56.4585V56.1785L441.888 53.0485L442.168 51.4885L442.198 51.1085C442.238 49.3285 442.278 48.0285 441.988 47.0485C441.918 46.8685 441.847 46.6885 441.747 46.5085C441.647 46.2985 441.528 46.1085 441.388 45.9185C441.368 45.8985 441.348 45.8685 441.328 45.8485C441.298 45.8185 441.267 45.7885 441.247 45.7585C440.807 45.3185 440.177 44.9485 439.277 44.6085C439.217 44.5885 439.138 44.5685 439.068 44.5485C438.208 44.3885 437.257 44.3785 436.207 44.3785L434.788 44.5185L434.217 44.3785C433.787 44.2385 433.077 44.2385 432.647 44.2385H428.807L427.018 44.1085C426.398 44.1485 425.808 44.1985 425.268 44.2485C424.878 44.3185 424.477 44.3985 424.117 44.5185L423.837 44.6585L421.538 44.8485C418.888 45.7385 417.458 47.7685 417.008 50.4585V51.6185C416.938 51.7785 416.898 51.9485 416.848 52.1085C416.848 52.4685 416.838 52.8385 416.848 53.2085C416.848 53.2085 416.788 53.1285 416.668 52.9685C416.608 53.5885 416.627 54.2285 416.707 54.8785L416.848 56.1585L416.988 58.1485V61.7085L416.707 63.4185L416.427 66.6885L416.568 68.3985V71.8085L417.277 73.3685V76.7785L417.138 77.0585C416.858 78.1985 416.708 78.9085 416.858 80.0485L417.138 81.8985L416.997 83.8885L416.858 86.8785V88.5885L416.427 91.0085V93.2885L416.568 96.8485L416.707 98.4085V101.819L416.568 102.959L416.707 106.519C416.567 107.229 416.427 108.229 416.427 108.939L416.568 111.639L416.707 113.629L416.848 113.769C418.268 114.769 419.838 115.329 420.828 115.189H424.948L427.508 115.469C428.218 115.609 428.788 115.609 429.358 115.469L429.638 115.329L433.198 115.049H433.337C434.337 115.329 435.327 115.329 436.177 115.189L436.747 115.049C437.597 114.909 438.598 114.909 439.168 114.199C440.308 113.199 441.587 111.209 441.587 111.209L441.867 108.079L442.008 106.229V102.959L441.578 101.399L441.717 98.1285L442.288 95.9985L442.717 93.4385C442.857 92.7285 442.717 92.1585 442.717 91.5885L442.288 88.3185L442.328 88.3085Z" fill="#07374F"/>
<path d="M171.017 88.2385C161.417 88.8285 151.747 88.3885 142.107 88.3885C149.347 81.6785 156.917 76.6485 164.997 72.6385C173.537 68.3885 174.637 63.7585 167.567 57.3485C163.607 48.9485 157.751 47.1085 149.997 51.8285C148.437 52.7785 147.107 54.1185 145.677 55.2685C145.177 55.1585 144.787 55.3285 144.527 55.7685C142.037 56.0785 140.047 57.2285 138.567 59.2585C135.167 59.2785 132.967 63.4785 127.737 61.7085C132.717 52.9385 137.387 44.4785 142.297 36.1585C144.817 31.8785 145.377 28.5685 139.637 26.3485C137.347 25.4585 135.237 24.1485 133.367 22.5585C125.927 16.2385 121.817 18.8485 118.037 26.9385C114.197 35.1685 109.017 42.7785 104.427 50.6585C102.547 42.6285 102.687 35.6585 102.517 28.6885C102.057 9.44851 106.157 12.2085 85.3475 11.5985C78.7975 11.4085 77.3275 13.9685 77.5875 19.9585C78.0275 29.8885 77.7075 39.8585 77.7075 49.8085C72.1675 44.1185 68.5675 37.9385 64.8775 31.8085C55.5675 16.3485 55.6575 16.5185 40.1475 26.5385C36.0675 29.1785 34.9775 31.4085 37.6575 35.5885C42.4275 43.0385 46.9075 50.6785 51.5275 58.2185C51.4275 59.2385 51.3675 59.9585 51.2675 60.9785C50.8775 61.4085 50.4975 61.8385 50.1075 62.2585C40.8675 58.8985 33.1675 52.6885 24.4375 48.3985C22.2375 47.3185 19.5875 44.0385 17.8775 49.0385L18.0675 49.2485C17.4675 49.9685 16.8575 50.6885 16.2575 51.4085C16.2575 51.3885 16.2675 51.3685 16.2775 51.3485C15.1075 52.8185 13.7575 54.1685 12.7975 55.7685C5.87747 67.2685 5.93747 67.2285 17.4575 73.7685C24.5775 77.8085 31.6075 82.0285 38.6775 86.1685C38.4475 87.0985 38.4675 87.0285 38.2375 87.9585C31.6675 88.2785 25.0975 88.6085 18.5275 88.9285C14.6975 88.0885 10.8775 88.2085 7.04747 88.9085C-4.66253 89.8385 2.08747 97.9185 1.52747 103.169C1.52747 103.849 1.52747 104.538 1.51747 105.218C-0.52253 112.498 3.17747 113.618 9.48747 113.599C60.8975 113.419 112.307 113.499 163.717 113.489C182.947 113.489 179.227 114.939 180.047 97.3385C180.377 90.1985 178.237 87.7885 171.027 88.2285L171.017 88.2385Z" fill="#A0DEF5"/>
<path d="M115.797 109.038C127.556 109.038 137.087 97.8053 137.087 83.9485C137.087 70.0916 127.556 58.8585 115.797 58.8585C104.039 58.8585 94.5074 70.0916 94.5074 83.9485C94.5074 97.8053 104.039 109.038 115.797 109.038Z" fill="white"/>
<path d="M122.067 103.049C130.368 103.049 137.097 94.4972 137.097 83.9485C137.097 73.3999 130.368 64.8485 122.067 64.8485C113.767 64.8485 107.037 73.3999 107.037 83.9485C107.037 94.4972 113.767 103.049 122.067 103.049Z" fill="black"/>
<path d="M115.637 110.438C103.037 110.438 92.7775 98.6485 92.7775 84.1585C92.7775 80.0785 93.5675 76.1685 95.1275 72.5285C95.4375 71.8185 96.2575 71.4885 96.9675 71.7985C97.6775 72.1085 98.0075 72.9285 97.7075 73.6385C96.2975 76.9185 95.5875 80.4585 95.5875 84.1585C95.5875 97.1085 104.587 107.638 115.637 107.638C126.687 107.638 135.687 97.1085 135.687 84.1585C135.687 71.2085 126.687 60.6785 115.637 60.6785C112.467 60.6785 109.427 61.5185 106.617 63.1885C105.947 63.5785 105.087 63.3585 104.697 62.6985C104.307 62.0285 104.527 61.1785 105.187 60.7785C108.397 58.8785 112.007 57.8785 115.637 57.8785C128.237 57.8785 138.497 69.6685 138.497 84.1585C138.497 98.6485 128.247 110.438 115.637 110.438Z" fill="black"/>
<path d="M63.9375 109.038C75.6956 109.038 85.2275 97.8053 85.2275 83.9485C85.2275 70.0916 75.6956 58.8585 63.9375 58.8585C52.1793 58.8585 42.6475 70.0916 42.6475 83.9485C42.6475 97.8053 52.1793 109.038 63.9375 109.038Z" fill="white"/>
<path d="M70.2075 103.049C78.5083 103.049 85.2375 94.4972 85.2375 83.9485C85.2375 73.3999 78.5083 64.8485 70.2075 64.8485C61.9066 64.8485 55.1775 73.3999 55.1775 83.9485C55.1775 94.4972 61.9066 103.049 70.2075 103.049Z" fill="black"/>
<path d="M63.7775 110.438C51.1775 110.438 40.9175 98.6485 40.9175 84.1585C40.9175 80.0785 41.7075 76.1685 43.2675 72.5285C43.5675 71.8185 44.3975 71.4885 45.1075 71.7985C45.8175 72.1085 46.1475 72.9285 45.8375 73.6385C44.4275 76.9185 43.7175 80.4585 43.7175 84.1585C43.7175 97.1085 52.7175 107.638 63.7675 107.638C74.8175 107.638 83.8175 97.1085 83.8175 84.1585C83.8175 71.2085 74.8175 60.6785 63.7675 60.6785C60.5975 60.6785 57.5575 61.5185 54.7475 63.1885C54.0875 63.5885 53.2275 63.3585 52.8275 62.6985C52.4375 62.0285 52.6575 61.1685 53.3175 60.7785C56.5275 58.8785 60.1375 57.8785 63.7675 57.8785C76.3675 57.8785 86.6275 69.6685 86.6275 84.1585C86.6275 98.6485 76.3775 110.438 63.7675 110.438H63.7775Z" fill="black"/>
</svg>
