<svg width="203" height="203" viewBox="0 0 203 203" fill="none" xmlns="http://www.w3.org/2000/svg">
<path d="M101.67 202.584C45.9391 202.584 0.572266 157.265 0.572266 101.536C0.572266 45.8068 45.9132 0.488037 101.67 0.488037C157.426 0.488037 202.767 45.8068 202.767 101.536C202.767 157.265 157.426 202.584 101.67 202.584Z" fill="#FFB48E"/>
<path d="M101.669 193.675C67.4694 193.675 39.6171 152.345 39.6171 101.536C39.6171 50.7272 67.4435 9.39648 101.669 9.39648C135.895 9.39648 163.722 50.7272 163.722 101.536C163.722 152.345 135.895 193.675 101.669 193.675ZM101.669 13.7471C69.8531 13.7471 43.9699 53.1355 43.9699 101.536C43.9699 149.936 69.8531 189.325 101.669 189.325C133.486 189.325 159.369 149.936 159.369 101.536C159.369 53.1355 133.486 13.7471 101.669 13.7471Z" fill="#07374F"/>
<path d="M101.67 193.675C100.478 193.675 99.4933 192.691 99.4933 191.5V11.5718C99.4933 10.3805 100.478 9.39648 101.67 9.39648C102.861 9.39648 103.846 10.3805 103.846 11.5718V191.526C103.846 192.717 102.861 193.701 101.67 193.701V193.675Z" fill="#07374F"/>
<path d="M191.263 103.711H11.6353C10.4434 103.711 9.45898 102.727 9.45898 101.536C9.45898 100.345 10.4434 99.3606 11.6353 99.3606H191.263C192.455 99.3606 193.44 100.345 193.44 101.536C193.44 102.727 192.455 103.711 191.263 103.711Z" fill="#07374F"/>
<path d="M181.988 63.0798H21.3252C20.1334 63.0798 19.1489 62.0958 19.1489 60.9045C19.1489 59.7133 20.1334 58.7292 21.3252 58.7292H181.988C183.18 58.7292 184.164 59.7133 184.164 60.9045C184.164 62.0958 183.18 63.0798 181.988 63.0798Z" fill="#07374F"/>
<path d="M181.988 144.343H21.3252C20.1334 144.343 19.1489 143.359 19.1489 142.167C19.1489 140.976 20.1334 139.992 21.3252 139.992H181.988C183.18 139.992 184.164 140.976 184.164 142.167C184.164 143.359 183.18 144.343 181.988 144.343Z" fill="#07374F"/>
<path d="M101.669 193.675C50.8357 193.675 9.48486 152.345 9.48486 101.536C9.48486 50.7272 50.8357 9.39648 101.669 9.39648C152.503 9.39648 193.854 50.7272 193.854 101.536C193.854 152.345 152.503 193.675 101.669 193.675ZM101.669 13.7471C53.2194 13.7471 13.8376 53.1355 13.8376 101.536C13.8376 149.936 53.2453 189.325 101.669 189.325C150.094 189.325 189.502 149.936 189.502 101.536C189.502 53.1355 150.094 13.7471 101.669 13.7471Z" fill="#07374F"/>
</svg>
