<svg xmlns="http://www.w3.org/2000/svg" width="34" height="34" viewBox="0 0 34 34" fill="none">
  <path d="M27.3492 5.90762L2.88066 9.8838C1.79292 10.0606 1.05443 11.0856 1.23119 12.1734L3.4366 25.745C3.61336 26.8327 4.63844 27.5712 5.72618 27.3945L30.1947 23.4183C31.2825 23.2415 32.021 22.2164 31.8442 21.1287L29.6388 7.55709C29.462 6.46935 28.4369 5.73086 27.3492 5.90762Z" fill="#DBE9F0"/>
  <path d="M24.9554 24.7037C24.8052 24.6916 24.6793 24.7522 24.5364 24.7933C24.4371 24.8248 24.3136 24.7933 24.2095 24.8127C24.0666 24.8369 24.0424 24.912 23.9528 24.9192L23.7979 23.9652C24.0085 23.9313 24.2676 24.016 24.3911 24.0112C24.5534 24.0015 24.6987 23.9046 24.8294 23.9191C24.982 23.9409 25.1176 23.9434 25.2459 23.9337C25.4421 23.9167 25.3743 23.8344 25.5268 23.7714C25.5995 23.74 25.7085 23.786 25.8877 23.6746C25.9579 23.631 26.1274 23.6431 26.2049 23.614C26.3211 23.5704 26.4446 23.5341 26.5875 23.5099C26.665 23.4978 26.7739 23.5026 26.8974 23.5099C27.0476 23.522 27.3987 23.3912 27.5392 23.4058C27.6845 23.4203 27.9048 23.5002 28.0065 23.4227C28.1567 23.3985 28.394 23.2193 28.687 23.1782C28.8299 23.1564 28.9703 23.1491 29.1108 23.1612C29.2464 23.1709 29.3771 23.1467 29.503 23.1103L29.7597 23.028C29.876 22.9893 29.9922 22.9554 30.1109 22.9457L30.2658 23.8998C30.0431 23.9361 30.0406 23.8998 29.9171 23.9095C29.813 23.9191 29.7307 23.987 29.6096 24.0063C29.4788 24.0281 29.3408 23.9603 29.2343 23.9458C29.0817 23.924 28.9655 24.0354 28.8371 24.0475C28.5756 24.0717 28.5586 24.0063 28.3528 24.0935C28.1373 24.1855 28.0453 24.2606 27.8709 24.2896C27.7184 24.3139 27.4036 24.2364 27.2655 24.2582C27.0839 24.2872 26.9604 24.3502 26.8805 24.3623C26.7037 24.3914 26.3211 24.2993 26.1976 24.3308C25.8562 24.3865 25.8174 24.6262 25.3719 24.694C25.229 24.7158 25.0885 24.7231 24.9481 24.711L24.9554 24.7037Z" fill="#D4E2E8"/>
  <path d="M18.638 25.7305C18.4878 25.7184 18.3619 25.7789 18.219 25.8201C18.1198 25.8516 17.9963 25.8201 17.8921 25.8395C17.7493 25.8637 17.725 25.9387 17.6354 25.946L17.4805 24.9919C17.6911 24.958 17.9503 25.0428 18.0738 25.0379C18.236 25.0282 18.3813 24.9314 18.5121 24.9459C18.6646 24.9677 18.8002 24.9701 18.9286 24.9604C19.1247 24.9435 19.0569 24.8611 19.2095 24.7982C19.2821 24.7667 19.3911 24.8127 19.5703 24.7037C19.6405 24.6602 19.81 24.6723 19.8875 24.6432C20.0037 24.5996 20.1272 24.5633 20.2701 24.5391C20.3476 24.527 20.4566 24.5318 20.5801 24.5391C20.7302 24.5512 21.0813 24.4204 21.2218 24.435C21.3671 24.4495 21.5874 24.5294 21.6891 24.4519C21.8393 24.4277 22.0766 24.2485 22.3696 24.2073C22.5125 24.1855 22.6529 24.1783 22.7934 24.1904C22.929 24.2001 23.0597 24.1758 23.1857 24.1395L23.4423 24.0572C23.5586 24.0184 23.6748 23.9845 23.7935 23.9749L23.9485 24.9289C23.7257 24.9653 23.7232 24.9289 23.5997 24.9386C23.4956 24.9483 23.4133 25.0161 23.2922 25.0355C23.1614 25.0573 23.0234 24.9895 22.9169 24.975C22.7643 24.9532 22.6481 25.0646 22.5197 25.0767C22.2582 25.1009 22.2413 25.0355 22.0354 25.1227C21.8199 25.2147 21.7279 25.2898 21.5535 25.3188C21.401 25.343 21.0862 25.2655 20.9481 25.2873C20.7665 25.3164 20.643 25.3794 20.5631 25.3915C20.3863 25.4205 20.0037 25.3285 19.8802 25.36C19.5388 25.4157 19.5 25.6554 19.0545 25.7232C18.9116 25.745 18.7712 25.7523 18.6307 25.7402L18.638 25.7305Z" fill="#D4E2E8"/>
  <path d="M12.3196 26.7597C12.1695 26.7476 12.0436 26.8081 11.9007 26.8493C11.8014 26.8807 11.6779 26.8493 11.5738 26.8686C11.4309 26.8928 11.4067 26.9679 11.3171 26.9752L11.1621 26.0211C11.3728 25.9872 11.6319 26.0719 11.7554 26.0671C11.9176 26.0574 12.0629 25.9605 12.1937 25.9751C12.3463 25.9969 12.4819 25.9993 12.6102 25.9896C12.8063 25.9727 12.7385 25.8903 12.8911 25.8274C12.9637 25.7959 13.0727 25.8419 13.2519 25.7329C13.3221 25.6893 13.4916 25.7014 13.5691 25.6724C13.6854 25.6288 13.8089 25.5925 13.9517 25.5683C14.0292 25.5561 14.1382 25.561 14.2617 25.5683C14.4118 25.5804 14.763 25.4496 14.9034 25.4641C15.0487 25.4787 15.2691 25.5586 15.3708 25.4811C15.5209 25.4569 15.7582 25.2777 16.0512 25.2365C16.1941 25.2147 16.3346 25.2074 16.475 25.2195C16.6106 25.2292 16.7414 25.205 16.8673 25.1687L17.124 25.0864C17.2402 25.0476 17.3565 25.0137 17.4751 25.004L17.6301 25.9581C17.4073 25.9944 17.4049 25.9581 17.2814 25.9678C17.1773 25.9775 17.0949 26.0453 16.9739 26.0647C16.8431 26.0865 16.7051 26.0187 16.5985 26.0041C16.446 25.9823 16.3297 26.0937 16.2014 26.1058C15.9398 26.1301 15.9229 26.0647 15.7171 26.1518C15.5015 26.2439 15.4095 26.3189 15.2352 26.348C15.0826 26.3722 14.7678 26.2947 14.6298 26.3165C14.4482 26.3456 14.3247 26.4085 14.2448 26.4206C14.068 26.4497 13.6854 26.3577 13.5619 26.3892C13.2204 26.4449 13.1817 26.6846 12.7361 26.7524C12.5933 26.7742 12.4528 26.7815 12.3124 26.7693L12.3196 26.7597Z" fill="#D4E2E8"/>
  <path d="M6.00187 27.7864C5.92681 27.7791 5.859 27.7912 5.78878 27.8106C5.70644 27.8275 5.62169 27.8542 5.53451 27.8687C5.40617 27.8881 5.26572 27.8372 5.1398 27.8227C4.96787 27.8033 4.90975 27.8566 4.80078 27.8275L5.03809 26.8904C5.18823 26.9291 5.36985 27.0647 5.4764 27.0744C5.5442 27.0817 5.60958 27.0551 5.67012 27.0381C5.74277 27.0139 5.81299 26.9945 5.87838 27.0018C6.03093 27.0236 6.16654 27.026 6.29488 27.0163C6.49103 26.9994 6.42323 26.917 6.57578 26.8541C6.64843 26.8226 6.7574 26.8686 6.9366 26.7572C7.00682 26.7136 7.17633 26.7257 7.25382 26.6967C7.37006 26.6531 7.49356 26.6168 7.63643 26.5925C7.71392 26.5804 7.82289 26.5853 7.94639 26.5925C8.09652 26.6047 8.44765 26.4739 8.5881 26.4884C8.73339 26.5029 8.95376 26.5829 9.05546 26.5054C9.2056 26.4812 9.44291 26.302 9.73592 26.2608C9.87879 26.239 10.0192 26.2317 10.1597 26.2438C10.2953 26.2535 10.4261 26.2293 10.552 26.193L10.8087 26.1107C10.9249 26.0719 11.0411 26.038 11.1598 26.0283L11.3148 26.9824C11.092 27.0187 11.0896 26.9824 10.9661 26.9921C10.8619 27.0018 10.7796 27.0696 10.6585 27.089C10.5278 27.1108 10.3897 27.043 10.2832 27.0284C10.1306 27.0066 10.0144 27.118 9.88606 27.1301C9.62453 27.1543 9.60758 27.089 9.40174 27.1761C9.18623 27.2682 9.09421 27.3432 8.91985 27.3723C8.7673 27.3965 8.45249 27.319 8.31446 27.3408C8.13285 27.3699 8.00935 27.4328 7.92944 27.4449C7.75266 27.474 7.37006 27.382 7.24656 27.4135C6.90512 27.4691 6.86637 27.7089 6.4208 27.7767C6.27793 27.7985 6.13748 27.8057 5.99703 27.7936L6.00187 27.7864Z" fill="#D4E2E8"/>
  <path d="M2.52216 22.7956C2.53427 22.6454 2.47373 22.5195 2.43256 22.3766C2.40108 22.2774 2.43256 22.1539 2.41319 22.0497C2.38897 21.9069 2.31391 21.8826 2.30664 21.793L3.26074 21.6381C3.29464 21.8487 3.20988 22.1078 3.21473 22.2313C3.22441 22.3936 3.32127 22.5389 3.30674 22.6696C3.28495 22.8222 3.28253 22.9578 3.29222 23.0862C3.30917 23.2823 3.3915 23.2145 3.45446 23.3671C3.48594 23.4397 3.43993 23.5487 3.5489 23.7279C3.59249 23.7981 3.58038 23.9676 3.60944 24.0451C3.65303 24.1613 3.68935 24.2848 3.71357 24.4277C3.72567 24.5052 3.72083 24.6142 3.71357 24.7377C3.70146 24.8878 3.83222 25.2389 3.81769 25.3794C3.80074 25.5271 3.72325 25.7499 3.80316 25.8177C3.83464 25.9436 4.03079 26.0962 4.15187 26.2778C4.18093 26.3238 4.20999 26.3698 4.23905 26.4158L4.3238 26.5587C4.37707 26.6555 4.46425 26.7185 4.56353 26.7597C4.62892 26.7911 4.69914 26.8032 4.76452 26.825C4.81295 26.8323 4.85654 26.842 4.90013 26.8565C4.94614 26.8662 4.98973 26.8759 5.03089 26.8953L4.79358 27.8324C4.52237 27.7549 4.54416 27.7138 4.40613 27.6484C4.29716 27.5878 4.16882 27.5854 4.04048 27.4982C3.97025 27.4546 3.9194 27.3893 3.87823 27.3215C3.83464 27.2561 3.80559 27.1883 3.77168 27.1326C3.72325 27.0575 3.66029 27.0067 3.59733 26.9534C3.53195 26.905 3.46899 26.8541 3.43024 26.7863C3.27284 26.5127 3.33823 26.4739 3.18809 26.2608C3.12028 26.1422 3.05732 26.0574 3.021 25.9702C2.99921 25.9266 2.98226 25.8855 2.9653 25.8395C2.95078 25.7959 2.94109 25.762 2.93382 25.7184C2.90961 25.5658 2.9871 25.251 2.9653 25.113C2.93625 24.9314 2.87329 24.8079 2.86118 24.728C2.83212 24.5512 2.92414 24.1686 2.89266 24.0451C2.83696 23.7037 2.59723 23.6649 2.52942 23.2193C2.50763 23.0765 2.50037 22.936 2.51247 22.7956H2.51489H2.52216Z" fill="#D4E2E8"/>
  <path d="M1.49482 16.4777C1.50692 16.3276 1.44638 16.2016 1.40522 16.0588C1.37374 15.9595 1.40522 15.836 1.38585 15.7319C1.36163 15.589 1.28656 15.5648 1.2793 15.4752L2.23339 15.3202C2.26729 15.5309 2.18254 15.79 2.18738 15.9135C2.19707 16.0757 2.29393 16.221 2.2794 16.3518C2.25761 16.5043 2.25519 16.6399 2.26487 16.7683C2.28182 16.9644 2.36416 16.8966 2.42712 17.0492C2.4586 17.1218 2.41259 17.2308 2.52156 17.41C2.56514 17.4802 2.55304 17.6497 2.5821 17.7272C2.62568 17.8435 2.66201 17.967 2.68622 18.1098C2.69833 18.1873 2.69349 18.2963 2.68622 18.4198C2.67412 18.5699 2.80488 18.921 2.79035 19.0615C2.77582 19.2068 2.69591 19.4272 2.7734 19.5289C2.79761 19.679 2.97681 19.9163 3.01798 20.2093C3.03977 20.3522 3.04704 20.4926 3.03493 20.6331C3.02524 20.7687 3.04946 20.8995 3.08578 21.0254L3.16811 21.2821C3.20686 21.3983 3.24076 21.5145 3.25045 21.6332L2.29635 21.7882C2.26003 21.5654 2.29635 21.563 2.28667 21.4395C2.27698 21.3353 2.20918 21.253 2.1898 21.1319C2.16801 21.0012 2.23581 20.8631 2.25034 20.7566C2.27214 20.604 2.16074 20.4878 2.14864 20.3595C2.12442 20.0979 2.1898 20.081 2.10263 19.8751C2.01061 19.6596 1.93554 19.5676 1.90648 19.3933C1.88227 19.2407 1.95976 18.9259 1.93796 18.7879C1.9089 18.6062 1.84594 18.4827 1.83383 18.4028C1.80478 18.2261 1.89679 17.8435 1.86531 17.72C1.80962 17.3785 1.56988 17.3398 1.50208 16.8942C1.48029 16.7513 1.47302 16.6109 1.48513 16.4704H1.48755L1.49482 16.4777Z" fill="#D4E2E8"/>
  <path d="M1.6866 9.95887C1.84643 9.87654 1.96024 9.76031 2.1128 9.66102C2.22419 9.59322 2.3719 9.58353 2.4954 9.54721C2.66007 9.49636 2.69397 9.42613 2.80294 9.40918L2.95792 10.3633C2.80294 10.3875 2.58258 10.3366 2.48087 10.3681C2.35011 10.4141 2.28231 10.5449 2.1806 10.5812C2.05952 10.6224 1.95782 10.6853 1.88275 10.7653C1.76409 10.8863 1.87064 10.9081 1.82948 11.0365C1.81737 11.0994 1.71566 11.143 1.73503 11.3174C1.74472 11.3828 1.66965 11.4941 1.67692 11.5619C1.67692 11.6104 1.68176 11.6588 1.6866 11.7097C1.6866 11.7605 1.6866 11.8114 1.69145 11.8646C1.68902 11.9228 1.67692 12.0051 1.65997 12.1044C1.64786 12.2545 1.77862 12.6056 1.76409 12.7461C1.74956 12.8914 1.66965 13.1117 1.74714 13.2134C1.77136 13.3636 1.95055 13.6009 1.99172 13.8939C2.01351 14.0368 2.02078 14.1772 2.00867 14.3177C1.99898 14.4533 2.0232 14.5841 2.05952 14.71L2.14186 14.9667C2.1806 15.0829 2.2145 15.1991 2.22419 15.3178L1.27009 15.4728C1.23377 15.25 1.27009 15.2476 1.26041 15.1241C1.25072 15.0199 1.18292 14.9376 1.16355 14.8165C1.14175 14.6858 1.20956 14.5477 1.22409 14.4412C1.24588 14.2886 1.13449 14.1724 1.12238 14.044C1.09816 13.7825 1.16355 13.7656 1.07637 13.5597C0.984351 13.3442 0.909283 13.2522 0.880224 13.0778C0.856008 12.9253 0.933498 12.6105 0.911704 12.4725C0.897175 12.3804 0.872959 12.3054 0.853587 12.2424C0.834214 12.1698 0.817263 12.1044 0.81242 12.0584C0.805156 12.0051 0.81242 11.9373 0.82695 11.8646C0.839057 11.792 0.860851 11.7145 0.887489 11.6419C0.933498 11.4941 1.00372 11.3682 1.01099 11.2956C1.06184 11.1067 1.05458 10.9784 1.06184 10.8258C1.07395 10.6781 1.09816 10.4989 1.27978 10.2834C1.39359 10.1453 1.53404 10.0339 1.68176 9.95403V9.95887H1.6866Z" fill="#D4E2E8"/>
  <path d="M8.1181 8.59552C8.26823 8.60763 8.39415 8.54709 8.53703 8.50593C8.63631 8.47445 8.75981 8.50593 8.86394 8.48655C9.00681 8.46234 9.03102 8.38727 9.12062 8.38L9.2756 9.3341C9.06493 9.368 8.80582 9.28325 8.68232 9.28809C8.52008 9.29778 8.37478 9.39464 8.24402 9.38011C8.09146 9.35831 7.95585 9.35589 7.82751 9.36558C7.63136 9.38253 7.69917 9.46486 7.54661 9.52782C7.47396 9.5593 7.36499 9.51329 7.1858 9.62226C7.11557 9.66585 6.94606 9.65375 6.86857 9.6828C6.75234 9.72639 6.62884 9.76272 6.48597 9.78693C6.40848 9.79904 6.29951 9.7942 6.17601 9.78693C6.02587 9.77482 5.67474 9.90559 5.53429 9.89106C5.389 9.87653 5.16864 9.79662 5.06693 9.87411C4.9168 9.89832 4.67948 10.0775 4.38647 10.1187C4.2436 10.1405 4.10315 10.1477 3.9627 10.1356C3.82709 10.1259 3.69633 10.1502 3.57041 10.1865L3.31372 10.2688C3.19749 10.3076 3.08125 10.3415 2.9626 10.3512L2.80762 9.39706C3.0304 9.36074 3.03282 9.39706 3.15632 9.38737C3.26045 9.37769 3.34278 9.30988 3.46386 9.29051C3.59462 9.26872 3.73265 9.33652 3.8392 9.35105C3.99176 9.37284 4.10799 9.26145 4.23634 9.24934C4.49787 9.22513 4.51482 9.29051 4.72065 9.20334C4.93617 9.11132 5.02819 9.03625 5.20254 9.00719C5.3551 8.98297 5.6699 9.06046 5.80793 9.03867C5.98955 9.00961 6.11305 8.94665 6.19296 8.93454C6.36973 8.90548 6.75234 8.9975 6.87584 8.96602C7.21728 8.91033 7.25602 8.67059 7.70159 8.60279C7.84446 8.58099 7.98491 8.57373 8.12536 8.58584L8.1181 8.59552Z" fill="#D4E2E8"/>
  <path d="M14.4365 7.56879C14.5866 7.5809 14.7125 7.52036 14.8554 7.47919C14.9547 7.44771 15.0782 7.47919 15.1823 7.45982C15.3252 7.4356 15.3494 7.36054 15.439 7.35327L15.594 8.30737C15.3833 8.34127 15.1242 8.25651 15.0007 8.26136C14.8384 8.27104 14.6931 8.3679 14.5624 8.35338C14.4098 8.33158 14.2742 8.32916 14.1459 8.33885C13.9497 8.3558 14.0175 8.43813 13.865 8.50109C13.7923 8.53257 13.6834 8.48656 13.5042 8.59795C13.4339 8.64154 13.2644 8.62943 13.1869 8.65849C13.0707 8.70208 12.9472 8.7384 12.8043 8.76262C12.7268 8.77473 12.6179 8.76988 12.4944 8.76262C12.3442 8.75051 11.9931 8.88128 11.8527 8.86675C11.7074 8.85222 11.487 8.77231 11.3853 8.8498C11.2352 8.87401 10.9978 9.05321 10.7048 9.09437C10.562 9.11617 10.4215 9.12343 10.2811 9.11132C10.1455 9.10164 10.0147 9.12585 9.88877 9.16218L9.63208 9.24451C9.51585 9.28325 9.39961 9.31716 9.28096 9.32684L9.12598 8.37275C9.34876 8.33642 9.35118 8.37275 9.47468 8.36306C9.57881 8.35338 9.66114 8.28557 9.78222 8.2662C9.91298 8.24441 10.051 8.31221 10.1576 8.32674C10.3101 8.34853 10.4264 8.23714 10.5547 8.22503C10.8162 8.20082 10.8332 8.2662 11.039 8.17902C11.2545 8.087 11.3465 8.01194 11.5209 7.98288C11.6735 7.95866 11.9883 8.03615 12.1263 8.01436C12.3079 7.9853 12.4314 7.92234 12.5113 7.91023C12.6881 7.88117 13.0707 7.97319 13.1942 7.94171C13.5356 7.88601 13.5744 7.64628 14.0199 7.57848C14.1628 7.55668 14.3033 7.54942 14.4437 7.56153L14.4365 7.56879Z" fill="#D4E2E8"/>
  <path d="M20.7568 6.54206C20.9069 6.55416 21.0328 6.49363 21.1757 6.45246C21.275 6.42098 21.3985 6.45246 21.5026 6.43309C21.6455 6.40887 21.6697 6.3338 21.7593 6.32654L21.9143 7.28063C21.7036 7.31453 21.4445 7.22978 21.321 7.23462C21.1587 7.24431 21.0135 7.34117 20.8827 7.32664C20.7301 7.30485 20.5945 7.30243 20.4662 7.31211C20.27 7.32906 20.3378 7.4114 20.1853 7.47436C20.1126 7.50584 20.0037 7.45983 19.8245 7.5688C19.7542 7.61239 19.5847 7.60028 19.5072 7.62934C19.391 7.67293 19.2675 7.70925 19.1246 7.73346C19.0471 7.74557 18.9382 7.74073 18.8147 7.73346C18.6645 7.72136 18.3134 7.85212 18.173 7.83759C18.0277 7.82306 17.8073 7.74315 17.7056 7.82064C17.5555 7.84486 17.3182 8.02405 17.0251 8.06522C16.8823 8.08701 16.7418 8.09428 16.6014 8.08217C16.4658 8.07248 16.335 8.0967 16.2091 8.13302L15.9524 8.21535C15.8362 8.2541 15.7199 8.288 15.6013 8.29769L15.4463 7.34359C15.6691 7.30727 15.6715 7.34359 15.795 7.33391C15.8991 7.32422 15.9815 7.25642 16.1025 7.23704C16.2333 7.21525 16.3713 7.28305 16.4779 7.29758C16.6304 7.31938 16.7467 7.20799 16.875 7.19588C17.1365 7.17166 17.1535 7.23704 17.3593 7.14987C17.5748 7.05785 17.6669 6.98278 17.8412 6.95372C17.9938 6.92951 18.3086 7.007 18.4466 6.9852C18.6282 6.95614 18.7517 6.89318 18.8316 6.88108C19.0084 6.85202 19.391 6.94404 19.5145 6.91256C19.8559 6.85686 19.8947 6.61713 20.3403 6.54932C20.4831 6.52753 20.6236 6.52026 20.764 6.53237L20.7568 6.54206Z" fill="#D4E2E8"/>
  <path d="M27.0746 5.51527C27.1497 5.52253 27.2175 5.51042 27.2877 5.49105C27.3701 5.4741 27.4548 5.44746 27.542 5.43293C27.6703 5.41356 27.8108 5.46441 27.9367 5.47894C28.1086 5.49831 28.1667 5.44504 28.2757 5.47652L28.0384 6.41366C27.8883 6.37492 27.7066 6.23931 27.6001 6.22963C27.5323 6.22236 27.4669 6.249 27.4064 6.26595C27.3337 6.29016 27.2635 6.30954 27.1981 6.30227C27.0456 6.28048 26.91 6.27806 26.7816 6.28774C26.5855 6.30469 26.6533 6.38703 26.5007 6.44999C26.4281 6.48147 26.3191 6.43546 26.1399 6.54443C26.0697 6.58802 25.9002 6.57591 25.8227 6.60497C25.7064 6.64856 25.5829 6.68488 25.4401 6.70909C25.3626 6.7212 25.2536 6.71636 25.1301 6.70909C24.98 6.69699 24.6288 6.82775 24.4884 6.81322C24.3431 6.79869 24.1227 6.71878 24.021 6.79627C23.8709 6.82049 23.6336 6.99968 23.3406 7.04085C23.1977 7.06264 23.0573 7.06991 22.9168 7.0578C22.7812 7.04811 22.6504 7.07233 22.5245 7.10865L22.2678 7.19098C22.1516 7.22973 22.0354 7.26363 21.9167 7.27332L21.7617 6.31922C21.9845 6.2829 21.9869 6.31922 22.1104 6.30954C22.2146 6.29985 22.2969 6.23205 22.418 6.21267C22.5487 6.19088 22.6868 6.25868 22.7933 6.27321C22.9459 6.29501 23.0621 6.18362 23.1904 6.17151C23.452 6.14729 23.4689 6.21267 23.6748 6.1255C23.8903 6.03348 23.9823 5.95841 24.1566 5.92935C24.3092 5.90514 24.624 5.98263 24.762 5.96083C24.9436 5.93177 25.0671 5.86881 25.1471 5.85671C25.3238 5.82765 25.7064 5.91967 25.8299 5.88819C26.1714 5.83249 26.2101 5.59276 26.6557 5.52495C26.7986 5.50316 26.939 5.49589 27.0795 5.508L27.0746 5.51527Z" fill="#D4E2E8"/>
  <path d="M30.5517 10.5061C30.5396 10.6562 30.6001 10.7821 30.6413 10.925C30.6728 11.0243 30.6413 11.1478 30.6607 11.2519C30.6849 11.3948 30.76 11.419 30.7672 11.5086L29.8131 11.6636C29.7792 11.4529 29.864 11.1938 29.8591 11.0703C29.8495 10.9081 29.7526 10.7628 29.7671 10.632C29.7889 10.4794 29.7913 10.3438 29.7816 10.2155C29.7647 10.0193 29.6824 10.0872 29.6194 9.93459C29.5879 9.86195 29.6339 9.75298 29.525 9.57378C29.4814 9.50356 29.4935 9.33405 29.4644 9.25656C29.4208 9.14032 29.3845 9.01682 29.3603 8.87395C29.3482 8.79646 29.353 8.68749 29.3603 8.56399C29.3724 8.41385 29.2416 8.06273 29.2562 7.92228C29.2731 7.77456 29.3506 7.55178 29.2707 7.48398C29.2392 7.35805 29.0431 7.2055 28.922 7.02388C28.8929 6.97787 28.8639 6.93186 28.8348 6.88585L28.7501 6.74298C28.6968 6.64612 28.6096 6.58316 28.5103 6.54199C28.4449 6.51051 28.3747 6.4984 28.3093 6.47661C28.2609 6.46934 28.2173 6.45966 28.1737 6.44513C28.1277 6.43544 28.0841 6.42575 28.043 6.40638L28.2803 5.46924C28.5515 5.54673 28.5297 5.58789 28.6677 5.65328C28.7767 5.71382 28.905 5.71624 29.0334 5.80341C29.1036 5.847 29.1545 5.91238 29.1956 5.98019C29.2392 6.04557 29.2683 6.11337 29.3022 6.16907C29.3506 6.24414 29.4136 6.29499 29.4765 6.34826C29.5419 6.3967 29.6049 6.44755 29.6436 6.51535C29.801 6.78899 29.7356 6.82773 29.8858 7.04083C29.9536 7.15949 30.0165 7.24424 30.0529 7.33142C30.0747 7.37501 30.0916 7.41617 30.1086 7.46218C30.1231 7.50577 30.1328 7.53967 30.14 7.58326C30.1643 7.73582 30.0868 8.05062 30.1086 8.18865C30.1376 8.37027 30.2006 8.49377 30.2127 8.57368C30.2417 8.75045 30.1497 9.13306 30.1812 9.25656C30.2369 9.598 30.4766 9.63674 30.5444 10.0823C30.5662 10.2252 30.5735 10.3656 30.5614 10.5061H30.559H30.5517Z" fill="#D4E2E8"/>
  <path d="M31.5808 16.8239C31.5687 16.974 31.6293 17.1 31.6704 17.2428C31.7019 17.3421 31.6704 17.4656 31.6898 17.5697C31.714 17.7126 31.7891 17.7368 31.7963 17.8264L30.8422 17.9814C30.8083 17.7707 30.8931 17.5116 30.8883 17.3881C30.8786 17.2259 30.7817 17.0806 30.7962 16.9498C30.818 16.7973 30.8205 16.6617 30.8108 16.5333C30.7938 16.3372 30.7115 16.405 30.6485 16.2524C30.617 16.1798 30.6631 16.0708 30.5541 15.8916C30.5105 15.8214 30.5226 15.6519 30.4935 15.5744C30.45 15.4581 30.4136 15.3346 30.3894 15.1918C30.3773 15.1143 30.3822 15.0053 30.3894 14.8818C30.4015 14.7317 30.2708 14.3806 30.2853 14.2401C30.2998 14.0948 30.3797 13.8744 30.3022 13.7727C30.278 13.6226 30.0988 13.3853 30.0577 13.0923C30.0359 12.9494 30.0286 12.809 30.0407 12.6685C30.0504 12.5329 30.0262 12.4021 29.9899 12.2762L29.9075 12.0195C29.8688 11.9033 29.8349 11.7871 29.8252 11.6684L30.7793 11.5134C30.8156 11.7362 30.7793 11.7386 30.789 11.8621C30.7987 11.9663 30.8665 12.0486 30.8858 12.1697C30.9076 12.3004 30.8398 12.4385 30.8253 12.545C30.8035 12.6976 30.9149 12.8138 30.927 12.9421C30.9512 13.2037 30.8858 13.2206 30.973 13.4265C31.065 13.642 31.1401 13.734 31.1692 13.9084C31.1934 14.0609 31.1159 14.3757 31.1377 14.5137C31.1667 14.6954 31.2297 14.8189 31.2418 14.8988C31.2709 15.0755 31.1788 15.4581 31.2103 15.5816C31.266 15.9231 31.5058 15.9618 31.5736 16.4074C31.5954 16.5503 31.6026 16.6907 31.5905 16.8312H31.5881L31.5808 16.8239Z" fill="#D4E2E8"/>
  <path d="M31.3866 23.3427C31.2267 23.4251 31.1129 23.5413 30.9604 23.6406C30.849 23.7084 30.7013 23.7181 30.5778 23.7544C30.4131 23.8053 30.3792 23.8755 30.2702 23.8924L30.1152 22.9383C30.2702 22.9141 30.4906 22.965 30.5923 22.9335C30.723 22.8875 30.7908 22.7567 30.8926 22.7204C31.0136 22.6792 31.1153 22.6163 31.1904 22.5364C31.3091 22.4153 31.2025 22.3935 31.2437 22.2652C31.2558 22.2022 31.3575 22.1586 31.3381 21.9843C31.3284 21.9189 31.4035 21.8075 31.3962 21.7397C31.3962 21.6912 31.3914 21.6428 31.3866 21.592C31.3866 21.5411 31.3866 21.4903 31.3817 21.437C31.3841 21.3789 31.3962 21.2965 31.4132 21.1972C31.4253 21.0471 31.2945 20.696 31.3091 20.5555C31.3236 20.4102 31.4035 20.1899 31.326 20.0882C31.3018 19.938 31.1226 19.7007 31.0814 19.4077C31.0596 19.2648 31.0524 19.1244 31.0645 18.9839C31.0742 18.8483 31.05 18.7176 31.0136 18.5916L30.9313 18.335C30.8926 18.2187 30.8587 18.1025 30.849 17.9838L31.8031 17.8289C31.8394 18.0516 31.8031 18.0541 31.8127 18.1776C31.8224 18.2817 31.8902 18.364 31.9096 18.4851C31.9314 18.6159 31.8636 18.7539 31.8491 18.8604C31.8273 19.013 31.9387 19.1292 31.9508 19.2576C31.975 19.5191 31.9096 19.5361 31.9968 19.7419C32.0888 19.9574 32.1639 20.0494 32.1929 20.2238C32.2171 20.3763 32.1397 20.6911 32.1615 20.8292C32.176 20.9188 32.2002 20.9963 32.2196 21.0592C32.2389 21.1319 32.2559 21.1972 32.2607 21.2433C32.268 21.2965 32.2607 21.3643 32.2462 21.437C32.2341 21.5096 32.2123 21.5871 32.1857 21.6598C32.1397 21.8075 32.0694 21.9334 32.0622 22.006C32.0113 22.1949 32.0186 22.3233 32.0113 22.4758C31.9992 22.6235 31.975 22.8027 31.7934 23.0183C31.6796 23.1563 31.5391 23.2677 31.3914 23.3476V23.3427H31.3866Z" fill="#D4E2E8"/>
  <path d="M7.86454 15.4078L5.52453 15.788C5.09947 15.8571 4.81088 16.2577 4.87995 16.6827L5.13048 18.2244C5.19955 18.6495 5.60013 18.9381 6.02519 18.869L8.36521 18.4887C8.79027 18.4197 9.07886 18.0191 9.00978 17.594L8.75926 16.0523C8.69018 15.6273 8.2896 15.3387 7.86454 15.4078Z" fill="#F79360"/>
  <path d="M4.44723 16.4365C4.50534 16.2185 4.54651 16.0151 4.66759 15.8166C4.75476 15.6737 4.92669 15.5889 5.06715 15.5114C5.26087 15.4122 5.30446 15.3371 5.44733 15.3129L5.60231 16.267C5.56114 16.2742 5.51271 16.2573 5.45459 16.2573C5.39648 16.2549 5.33594 16.2645 5.3093 16.2888C5.23423 16.3566 5.2754 16.4631 5.23665 16.5188C5.2076 16.5551 5.19549 16.5939 5.18822 16.6423C5.18822 16.7101 5.18822 16.7779 5.19307 16.8409C5.21002 17.037 5.29235 16.9668 5.35289 17.1218C5.38437 17.1944 5.33836 17.3034 5.44733 17.4826C5.49092 17.5528 5.47881 17.7199 5.50787 17.7998C5.52966 17.8579 5.54904 17.9185 5.56841 17.9814C5.57567 18.0129 5.58536 18.0444 5.59262 18.0783C5.59989 18.1073 5.60715 18.1582 5.60957 18.1606C5.61442 18.1897 5.60473 18.2333 5.61442 18.2938C5.61442 18.3326 5.66527 18.3713 5.71854 18.3931C5.77182 18.4173 5.82267 18.4173 5.84931 18.4415C5.87595 18.4633 5.91711 18.5045 5.96797 18.5214C6.05272 18.5335 6.13263 18.5335 6.18348 18.4948C6.3312 18.4706 6.57093 18.2914 6.86394 18.2502C7.00681 18.2284 7.14726 18.2212 7.28771 18.2333C7.42332 18.243 7.55167 18.2187 7.68001 18.1824L7.93669 18.1001C8.05293 18.0613 8.16674 18.0274 8.28782 18.0177L8.4428 18.9718C8.22002 19.0082 8.22002 18.9718 8.09409 18.9815C7.98997 18.9912 7.91006 19.059 7.78898 19.0784C7.65821 19.1002 7.52261 19.03 7.41364 19.0154C7.2635 18.9936 7.14484 19.105 7.01892 19.1171C6.75982 19.1414 6.74044 19.076 6.53703 19.1631C6.43048 19.2092 6.35299 19.2503 6.28277 19.2842C6.24644 19.3012 6.21254 19.3157 6.17622 19.3278C6.1399 19.3399 6.10842 19.3496 6.02608 19.3593C5.90016 19.3738 5.7137 19.3327 5.56114 19.2503C5.40374 19.1704 5.28509 19.059 5.2076 18.9985C4.99692 18.8362 4.871 18.674 4.82015 18.565C4.79351 18.5045 4.77414 18.4173 4.77172 18.3277C4.76929 18.2381 4.7814 18.1897 4.78867 18.117C4.8032 17.9838 4.82015 17.8579 4.8032 17.795C4.7475 17.4535 4.50776 17.4172 4.44238 16.9716C4.4327 16.9014 4.42543 16.8288 4.42059 16.7585C4.41332 16.6471 4.42059 16.5358 4.44965 16.4316V16.4365H4.44723Z" fill="#EF8F5E"/>
  <path d="M9.44284 17.841C9.38472 18.0589 9.34355 18.2623 9.22248 18.4609C9.1353 18.6038 8.96337 18.6885 8.82292 18.766C8.62919 18.8653 8.58561 18.9404 8.44273 18.9646L8.28775 18.0105C8.32892 18.0032 8.37735 18.0202 8.43547 18.0202C8.49359 18.0226 8.55413 18.0129 8.58076 17.9887C8.65583 17.9209 8.61467 17.8143 8.65341 17.7586C8.68247 17.7223 8.69458 17.6836 8.70184 17.6351C8.70184 17.5673 8.70184 17.4995 8.697 17.4366C8.68005 17.2404 8.59771 17.3107 8.53718 17.1557C8.5057 17.083 8.5517 16.9741 8.44273 16.7949C8.39915 16.7246 8.41125 16.5576 8.3822 16.4776C8.3604 16.4195 8.34103 16.359 8.32166 16.296C8.31439 16.2645 8.30471 16.2331 8.29744 16.1992C8.29018 16.1701 8.28291 16.1193 8.28049 16.1168C8.27565 16.0878 8.28533 16.0442 8.27565 15.9836C8.27565 15.9449 8.22479 15.9062 8.17152 15.8844C8.11825 15.8601 8.06739 15.8601 8.04076 15.8359C8.01412 15.8141 7.97295 15.773 7.9221 15.756C7.83734 15.7439 7.75743 15.7439 7.70658 15.7827C7.55887 15.8069 7.31913 15.9861 7.02612 16.0272C6.88325 16.049 6.7428 16.0563 6.60235 16.0442C6.46674 16.0345 6.3384 16.0587 6.21006 16.095L5.95337 16.1774C5.83714 16.2161 5.72332 16.25 5.60225 16.2597L5.44727 15.3056C5.67005 15.2693 5.67005 15.3056 5.79597 15.2959C5.9001 15.2862 5.98001 15.2184 6.10109 15.1991C6.23185 15.1773 6.36746 15.2475 6.47643 15.262C6.62656 15.2838 6.74522 15.1724 6.87114 15.1603C7.13025 15.1361 7.14962 15.2015 7.35303 15.1143C7.45958 15.0683 7.53707 15.0271 7.6073 14.9932C7.64362 14.9763 7.67752 14.9617 7.71385 14.9496C7.75017 14.9375 7.78165 14.9278 7.86398 14.9182C7.9899 14.9036 8.17636 14.9448 8.32892 15.0271C8.48632 15.107 8.60498 15.2184 8.68247 15.279C8.89315 15.4412 9.01907 15.6035 9.06992 15.7124C9.09656 15.773 9.11593 15.8601 9.11835 15.9497C9.12077 16.0393 9.10866 16.0878 9.1014 16.1604C9.08687 16.2936 9.06992 16.4195 9.08687 16.4825C9.14257 16.8239 9.3823 16.8602 9.44768 17.3058C9.45737 17.376 9.46463 17.4487 9.46948 17.5189C9.47674 17.6303 9.46948 17.7417 9.44042 17.8458V17.841H9.44284Z" fill="#EF8F5E"/>
  <path d="M27.4915 18.4626L6.72066 21.8379C6.17811 21.9261 5.80967 22.4368 5.89772 22.9787C5.98578 23.5206 6.49699 23.8884 7.03954 23.8003L27.8104 20.425C28.353 20.3368 28.7214 19.826 28.6334 19.2841C28.5453 18.7423 28.0341 18.3744 27.4915 18.4626Z" fill="#121112"/>
  <path d="M22.1539 21.7809C21.9917 21.7712 21.8561 21.8317 21.7035 21.8753C21.5946 21.9068 21.4638 21.8802 21.3524 21.8971C21.1998 21.9213 21.1708 21.9988 21.0739 22.0061L20.9189 21.052C21.1466 21.0157 21.4226 21.098 21.5558 21.0907C21.7326 21.0786 21.8876 20.9794 22.0304 20.9939C22.1927 21.0133 22.3404 21.0157 22.4784 21.0012C22.6891 20.9818 22.6165 20.8994 22.7835 20.8365C22.8635 20.805 22.9797 20.8486 23.1734 20.7372C23.2485 20.6936 23.4301 20.7033 23.5149 20.6718C23.6408 20.6258 23.774 20.5871 23.9265 20.5628C24.0089 20.5483 24.1275 20.5532 24.2607 20.558C24.4229 20.5677 24.8031 20.4321 24.9533 20.4442C25.1107 20.4587 25.348 20.5338 25.4545 20.4563C25.6143 20.4297 25.8735 20.248 26.1907 20.202C26.3432 20.1802 26.4982 20.1706 26.6484 20.1802C26.7936 20.1875 26.9341 20.1633 27.0721 20.1245L27.3482 20.0374C27.4741 19.9986 27.6 19.9623 27.7284 19.9502L27.8834 20.9043C27.6412 20.943 27.6412 20.9067 27.508 20.9188C27.3966 20.9285 27.307 20.9987 27.1763 21.0205C27.0358 21.0423 26.8881 20.9769 26.7719 20.9624C26.6096 20.943 26.4813 21.0568 26.3432 21.069C26.0623 21.098 26.043 21.0326 25.8202 21.1222C25.5877 21.2167 25.4884 21.2942 25.2995 21.3256C25.1349 21.3523 24.7959 21.2772 24.6481 21.3014C24.452 21.3329 24.3188 21.3959 24.2341 21.4104C24.0428 21.4419 23.6311 21.3547 23.4979 21.3886C23.1298 21.4491 23.0862 21.6889 22.6044 21.7615C22.4518 21.7833 22.2968 21.793 22.1467 21.7833L22.1539 21.7809Z" fill="#121112"/>
  <path d="M15.3395 22.8876C15.1772 22.8779 15.0416 22.9384 14.8891 22.982C14.7801 23.0135 14.6493 22.9869 14.538 23.0038C14.3854 23.028 14.3563 23.1055 14.2595 23.1128L14.1045 22.1587C14.3321 22.1224 14.6082 22.2047 14.7414 22.1974C14.9181 22.1853 15.0731 22.086 15.216 22.1006C15.3782 22.1199 15.5259 22.1224 15.664 22.1078C15.8747 22.0885 15.802 22.0061 15.9691 21.9432C16.049 21.9117 16.1652 21.9553 16.359 21.8439C16.434 21.8003 16.6156 21.81 16.7004 21.7785C16.8263 21.7325 16.9595 21.6938 17.1121 21.6695C17.1944 21.655 17.3131 21.6599 17.4462 21.6647C17.6085 21.6744 17.9887 21.5388 18.1388 21.5509C18.2962 21.5654 18.5335 21.6405 18.6401 21.563C18.7999 21.5364 19.059 21.3547 19.3762 21.3087C19.5288 21.2869 19.6838 21.2772 19.8339 21.2869C19.9792 21.2942 20.1196 21.27 20.2577 21.2312L20.5337 21.1441C20.6597 21.1053 20.7856 21.069 20.9139 21.0569L21.0689 22.011C20.8267 22.0497 20.8267 22.0134 20.6936 22.0255C20.5822 22.0352 20.4926 22.1054 20.3618 22.1272C20.2214 22.149 20.0736 22.0836 19.9574 22.0691C19.7952 22.0497 19.6668 22.1635 19.5288 22.1756C19.2479 22.2047 19.2285 22.1393 19.0057 22.2289C18.7733 22.3234 18.674 22.4009 18.4851 22.4323C18.3204 22.459 17.9814 22.3839 17.8337 22.4081C17.6375 22.4396 17.5044 22.5026 17.4196 22.5171C17.2283 22.5486 16.8166 22.4614 16.6835 22.4953C16.3154 22.5558 16.2718 22.7956 15.7899 22.8682C15.6373 22.89 15.4824 22.8997 15.3322 22.89L15.3395 22.8876Z" fill="#121112"/>
  <path d="M8.52308 23.9966C8.36084 23.9869 8.22523 24.0474 8.07267 24.091C7.9637 24.1225 7.83294 24.0959 7.72155 24.1128C7.56899 24.137 7.53993 24.2145 7.44307 24.2218L7.28809 23.2677C7.51571 23.2314 7.79177 23.3137 7.92496 23.3064C8.10173 23.2943 8.25671 23.1951 8.39958 23.2096C8.56183 23.229 8.70954 23.2314 8.84757 23.2168C9.05825 23.1975 8.9856 23.1151 9.15269 23.0522C9.2326 23.0207 9.34883 23.0643 9.54256 22.9529C9.61763 22.9093 9.79924 22.919 9.884 22.8875C10.0099 22.8415 10.1431 22.8028 10.2957 22.7785C10.378 22.764 10.4967 22.7689 10.6298 22.7737C10.7921 22.7834 11.1723 22.6478 11.3224 22.6599C11.4798 22.6744 11.7171 22.7495 11.8237 22.672C11.9835 22.6454 12.2426 22.4637 12.5598 22.4177C12.7124 22.3959 12.8674 22.3863 13.0175 22.3959C13.1628 22.4032 13.3032 22.379 13.4413 22.3402L13.7173 22.2531C13.8432 22.2143 13.9692 22.178 14.0975 22.1659L14.2525 23.12C14.0103 23.1587 14.0103 23.1224 13.8771 23.1345C13.7658 23.1442 13.6762 23.2144 13.5454 23.2362C13.4049 23.258 13.2572 23.1926 13.141 23.1781C12.9788 23.1587 12.8504 23.2725 12.7124 23.2847C12.4315 23.3137 12.4121 23.2483 12.1893 23.3379C11.9569 23.4324 11.8576 23.5099 11.6687 23.5413C11.504 23.568 11.165 23.4929 11.0173 23.5171C10.8211 23.5486 10.688 23.6116 10.6032 23.6261C10.4119 23.6576 10.0002 23.5704 9.86705 23.6043C9.49897 23.6648 9.45538 23.9046 8.97349 23.9772C8.82093 23.999 8.66595 24.0087 8.51582 23.999L8.52308 23.9966Z" fill="#121112"/>
  <path d="M8.96858 21.0375C9.13082 21.0471 9.26643 20.9866 9.41899 20.943C9.52796 20.9115 9.65872 20.9382 9.77011 20.9212C9.92267 20.897 9.95173 20.8195 10.0486 20.8123L10.2036 21.7664C9.97594 21.8027 9.69989 21.7203 9.5667 21.7276C9.38993 21.7397 9.23495 21.839 9.09208 21.8245C8.92983 21.8051 8.78212 21.8027 8.64409 21.8172C8.43341 21.8366 8.50606 21.9189 8.33897 21.9819C8.25906 22.0133 8.14282 21.9698 7.9491 22.0812C7.87403 22.1247 7.69241 22.1151 7.60766 22.1465C7.48174 22.1925 7.34855 22.2313 7.19599 22.2555C7.11366 22.27 6.995 22.2652 6.86182 22.2603C6.84245 22.2603 6.81823 22.2603 6.79159 22.2603C6.77706 22.2628 6.76011 22.2676 6.74316 22.27C6.70926 22.2797 6.67294 22.2967 6.64146 22.3185C6.57607 22.3596 6.52522 22.4129 6.48406 22.4323C6.43805 22.4468 6.37751 22.471 6.32423 22.5073C6.27338 22.5437 6.23706 22.5969 6.25885 22.643C6.24432 22.6938 6.26369 22.7737 6.30244 22.8488C6.34118 22.9263 6.39204 22.9941 6.42836 23.0667C6.46468 23.137 6.50343 23.2072 6.55428 23.2847C6.60271 23.3573 6.68989 23.3936 6.77464 23.3912C6.83276 23.3912 6.88603 23.3767 6.93689 23.3573C6.95626 23.3476 7.04101 23.3234 7.09913 23.3089C7.16209 23.2944 7.22505 23.2822 7.29044 23.2774L7.44541 24.2315C7.32434 24.2509 7.2638 24.2509 7.21779 24.2484C7.19357 24.2484 7.1742 24.246 7.14998 24.2436C7.13788 24.2436 7.12577 24.2436 7.11366 24.2436C7.09429 24.2436 7.07249 24.2436 7.04828 24.246C6.89088 24.2557 6.74074 24.309 6.54459 24.263C6.3315 24.2145 6.19347 24.0402 6.09176 23.9264C5.94889 23.769 5.75275 23.677 5.66315 23.4978C5.57597 23.3186 5.57355 23.212 5.56386 23.1224C5.5566 23.0304 5.54449 22.9529 5.51785 22.7931C5.48153 22.4589 5.49122 22.2628 5.63651 22.0206C5.70189 21.9141 5.84476 21.7906 5.99974 21.7131C6.15472 21.6307 6.31455 21.5896 6.40899 21.5533C6.47195 21.5315 6.53249 21.5097 6.58818 21.4951C6.63661 21.4806 6.6802 21.4685 6.72137 21.4564C6.78917 21.4346 6.84487 21.4152 6.88846 21.408C7.07976 21.3765 7.49142 21.4637 7.62461 21.4298C7.99269 21.3692 8.03628 21.1295 8.51817 21.0568C8.67072 21.035 8.8257 21.0254 8.97584 21.035L8.96858 21.0375Z" fill="#121112"/>
  <path d="M15.7851 19.9283C15.9473 19.938 16.0829 19.8775 16.2355 19.8339C16.3445 19.8024 16.4752 19.829 16.5866 19.8121C16.7392 19.7879 16.7682 19.7104 16.8651 19.7031L17.0201 20.6572C16.7924 20.6935 16.5164 20.6112 16.3832 20.6185C16.2064 20.6306 16.0514 20.7299 15.9086 20.7153C15.7463 20.696 15.5986 20.6935 15.4606 20.7081C15.2499 20.7274 15.3226 20.8098 15.1555 20.8727C15.0756 20.9042 14.9593 20.8606 14.7656 20.972C14.6905 21.0156 14.5089 21.0059 14.4242 21.0374C14.2982 21.0834 14.1651 21.1222 14.0125 21.1464C13.9302 21.1609 13.8115 21.1561 13.6783 21.1512C13.5161 21.1415 13.1359 21.2771 12.9858 21.265C12.8283 21.2505 12.591 21.1754 12.4845 21.2529C12.3247 21.2796 12.0656 21.4612 11.7483 21.5072C11.5958 21.529 11.4408 21.5387 11.2907 21.529C11.1454 21.5217 11.0049 21.5459 10.8669 21.5847L10.5908 21.6719C10.4649 21.7106 10.339 21.7469 10.2106 21.759L10.0557 20.8049C10.2978 20.7662 10.2978 20.8025 10.431 20.7904C10.5424 20.7807 10.632 20.7105 10.7628 20.6887C10.9032 20.6669 11.0509 20.7323 11.1672 20.7468C11.3294 20.7662 11.4577 20.6524 11.5958 20.6403C11.8767 20.6112 11.896 20.6766 12.1188 20.587C12.3513 20.4926 12.4506 20.4151 12.6395 20.3836C12.8041 20.3569 13.1432 20.432 13.2909 20.4078C13.487 20.3763 13.6202 20.3134 13.705 20.2988C13.8963 20.2673 14.3079 20.3545 14.4411 20.3206C14.8092 20.2601 14.8528 20.0203 15.3347 19.9477C15.4872 19.9259 15.6422 19.9162 15.7923 19.9259L15.7851 19.9283Z" fill="#121112"/>
  <path d="M22.5995 18.8218C22.7618 18.8314 22.8974 18.7709 23.0499 18.7273C23.1589 18.6958 23.2897 18.7225 23.4011 18.7055C23.5536 18.6813 23.5827 18.6038 23.6795 18.5966L23.8345 19.5507C23.6069 19.587 23.3308 19.5046 23.1977 19.5119C23.0209 19.524 22.8659 19.6233 22.723 19.6088C22.5608 19.5894 22.4131 19.587 22.275 19.6015C22.0644 19.6209 22.137 19.7032 21.9699 19.7662C21.89 19.7977 21.7738 19.7541 21.58 19.8655C21.505 19.909 21.3234 19.8994 21.2386 19.9308C21.1127 19.9768 20.9795 20.0156 20.8269 20.0398C20.7446 20.0543 20.626 20.0495 20.4928 20.0447C20.3305 20.035 19.9503 20.1706 19.8002 20.1585C19.6428 20.1439 19.4055 20.0689 19.2989 20.1464C19.1391 20.173 18.88 20.3546 18.5628 20.4006C18.4102 20.4224 18.2552 20.4321 18.1051 20.4224C17.9598 20.4151 17.8194 20.4394 17.6813 20.4781L17.4053 20.5653C17.2794 20.6065 17.1534 20.6404 17.0251 20.6525L16.8701 19.6984C17.1123 19.6596 17.1123 19.6959 17.2455 19.6838C17.3568 19.6742 17.4464 19.6039 17.5772 19.5821C17.7177 19.5603 17.8654 19.6257 17.9816 19.6402C18.1439 19.6596 18.2722 19.5458 18.4102 19.5337C18.6911 19.5046 18.7105 19.57 18.9333 19.4804C19.1658 19.386 19.265 19.3085 19.4539 19.277C19.6186 19.2504 19.9576 19.3254 20.1053 19.3012C20.3015 19.2698 20.4347 19.2068 20.5194 19.1923C20.7107 19.1608 21.1224 19.248 21.2556 19.2141C21.6236 19.1535 21.6672 18.9138 22.1491 18.8411C22.3017 18.8193 22.4567 18.8097 22.6068 18.8193L22.5995 18.8218Z" fill="#121112"/>
  <path d="M29.012 19.863C28.9103 20.0664 28.8425 20.2601 28.6972 20.4418C28.5931 20.5725 28.4163 20.6427 28.2734 20.713C28.0749 20.805 28.0313 20.8776 27.8884 20.9018L27.7334 19.9478C27.7915 19.9381 27.8593 19.9478 27.932 19.9453C28.0022 19.9453 28.0749 19.9308 28.1112 19.9042C28.2105 19.8291 28.1984 19.6959 28.2541 19.6305C28.3267 19.5482 28.3582 19.4416 28.3533 19.3448C28.3364 19.1922 28.2541 19.2552 28.1814 19.1753C28.1427 19.1462 28.1572 19.0397 28.0071 19.0179C27.9562 19.0106 27.8884 18.9307 27.8351 18.9307C27.7576 18.9307 27.6874 18.9355 27.6075 18.9428C27.5978 18.9428 27.5857 18.9428 27.5712 18.9428C27.547 18.9428 27.5203 18.9428 27.4937 18.9428C27.438 18.9428 27.375 18.9404 27.3072 18.938C27.145 18.9283 26.7648 19.0639 26.6147 19.0518C26.4573 19.0372 26.2199 18.9622 26.1134 19.0397C25.9536 19.0663 25.6945 19.2479 25.3772 19.2939C25.2247 19.3157 25.0697 19.3254 24.9196 19.3157C24.7743 19.3085 24.6338 19.3327 24.4958 19.3714L24.2197 19.4586C24.0938 19.4973 23.9679 19.5337 23.8395 19.5458L23.6846 18.5917C23.9267 18.5529 23.9267 18.5893 24.0599 18.5772C24.1713 18.5675 24.2609 18.4972 24.3917 18.4754C24.5321 18.4537 24.6798 18.519 24.7961 18.5336C24.9583 18.5529 25.0867 18.4391 25.2247 18.427C25.5056 18.398 25.525 18.4633 25.7477 18.3737C25.9802 18.2793 26.0795 18.2018 26.2684 18.1703C26.433 18.1437 26.7721 18.2188 26.9198 18.1945C27.1159 18.1631 27.2491 18.1001 27.3339 18.0856C27.4041 18.071 27.6462 18.0735 27.8182 18.1364C27.9998 18.1945 28.1402 18.2938 28.2177 18.3277C28.4236 18.4367 28.5664 18.4948 28.7238 18.5941C28.8715 18.6934 29.0507 18.8556 29.1137 19.214C29.1476 19.4416 29.1137 19.6765 29.0168 19.8678V19.863H29.012Z" fill="#121112"/>
</svg>