<svg xmlns="http://www.w3.org/2000/svg" width="34" height="34" viewBox="0 0 34 34" fill="none">
  <path d="M30.5031 15.6256C30.5031 23.1478 24.259 29.246 16.5568 29.246C14.4947 29.246 12.5376 28.8093 10.7764 28.0248C9.77835 27.58 6.17793 31.8936 5.32266 31.2426C4.32818 30.4857 6.10833 24.7308 5.35569 23.7423C3.63099 21.4749 2.60938 18.6672 2.60938 15.6256C2.60938 8.10343 8.85347 2.00525 16.5568 2.00525C24.2602 2.00525 30.5031 8.10343 30.5031 15.6256Z" fill="#DCF1FB"/>
  <path d="M28.8078 23.331C28.724 23.4093 28.6674 23.5004 28.6155 23.5948C28.5612 23.687 28.5164 23.7861 28.4621 23.884C28.3843 24.0234 28.2274 24.1294 28.1235 24.2527C27.9867 24.4232 28.0304 24.5315 27.936 24.6317L26.8389 23.763C26.9321 23.6467 27.0677 23.5522 27.1963 23.4693C27.3249 23.3863 27.437 23.3091 27.4983 23.2469C27.5762 23.1616 27.6257 23.0579 27.6741 22.9635C27.7201 22.8655 27.7626 22.7745 27.8345 22.7146C28.0044 22.5787 28.1401 22.4381 28.2403 22.2883C28.3996 22.0602 28.2439 22.0614 28.3123 21.8402C28.3371 21.7319 28.4834 21.6489 28.5058 21.3563C28.5176 21.2457 28.6579 21.059 28.6863 20.9461C28.7063 20.862 28.7287 20.7779 28.757 20.6915C28.7842 20.6051 28.8113 20.5152 28.8491 20.423C28.888 20.3228 28.9776 20.1972 29.072 20.0532C29.1298 19.9657 29.1758 19.7928 29.2207 19.6223C29.2702 19.453 29.2973 19.279 29.3516 19.196C29.4059 19.1096 29.4932 19.0082 29.5628 18.9057C29.6265 18.802 29.6701 18.6983 29.6453 18.6131C29.6678 18.5105 29.6571 18.3584 29.6406 18.1833C29.6229 18.007 29.6088 17.8089 29.6501 17.6084C29.6807 17.4126 29.7256 17.2225 29.7999 17.0393C29.8683 16.863 29.873 16.6775 29.8648 16.4943L29.8494 16.3088L29.8247 16.1233C29.8011 15.9563 29.7834 15.7904 29.8022 15.6256H31.2143C31.2061 15.9701 31.153 15.962 31.1341 16.151C31.1259 16.2293 31.1424 16.3042 31.1565 16.3826C31.1683 16.4609 31.1813 16.5439 31.1742 16.6372C31.1565 16.8376 31.0185 17.0162 30.9501 17.166C30.8557 17.3757 30.9619 17.5934 30.923 17.7824C30.8274 18.1683 30.7295 18.1603 30.7448 18.4955C30.7448 18.8435 30.7991 19.0198 30.7295 19.2813C30.6622 19.5117 30.3614 19.8931 30.2859 20.0866C30.1963 20.3482 30.1868 20.5567 30.1385 20.6684C30.0877 20.794 29.9591 20.9657 29.8365 21.1247C29.7055 21.2802 29.5816 21.4265 29.5498 21.5164C29.4448 21.7526 29.4377 21.9243 29.4306 22.1224C29.4259 22.2204 29.4188 22.324 29.3905 22.4404C29.3587 22.5545 29.3068 22.6824 29.2171 22.8298C29.1062 23.0199 28.967 23.1893 28.8101 23.3379V23.3333L28.8078 23.331Z" fill="#D5EAF4"/>
  <path d="M21.1092 29.1481C20.8792 29.1734 20.6952 29.2771 20.484 29.3658C20.3342 29.4303 20.1431 29.4107 19.9826 29.443C19.7656 29.4914 19.7314 29.6031 19.5922 29.6227L19.3008 28.2736C19.5933 28.2068 19.9708 28.3105 20.1454 28.277C20.3767 28.2379 20.563 28.0812 20.7494 28.0697C20.9665 28.0639 21.1659 28.0455 21.3393 27.9879C21.6094 27.9061 21.4879 27.8116 21.6826 27.6814C21.7746 27.6192 21.9386 27.6388 22.145 27.4245C22.1839 27.3819 22.263 27.3519 22.3432 27.3196C22.4222 27.2862 22.5036 27.254 22.5508 27.2171C22.6877 27.1065 22.8398 27.0132 23.0133 26.9106C23.1076 26.8576 23.2563 26.8104 23.4238 26.7597C23.6279 26.6952 24.0113 26.3392 24.1941 26.2654C24.292 26.2309 24.4254 26.2055 24.5445 26.1687C24.6636 26.1306 24.7616 26.0742 24.7981 25.9935C24.8831 25.9279 24.9704 25.8011 25.0718 25.6571C25.1709 25.5085 25.2889 25.3461 25.4493 25.2159C25.5991 25.0834 25.7572 24.9624 25.933 24.8668C26.0982 24.77 26.2232 24.6317 26.3353 24.4831C26.4096 24.3829 26.4757 24.2746 26.5429 24.1697C26.6314 24.0246 26.7316 23.8909 26.8449 23.7688L27.942 24.6375C27.7202 24.9059 27.6778 24.861 27.5421 24.997C27.4288 25.1087 27.3946 25.2666 27.2601 25.4002C27.1162 25.5454 26.8921 25.5961 26.7446 25.6733C26.5346 25.7781 26.478 26.012 26.3258 26.1353C26.0026 26.376 25.933 26.3104 25.7277 26.5788C25.5036 26.8484 25.4352 27.0235 25.2098 27.1791C25.1107 27.2482 24.9397 27.3104 24.7734 27.3703C24.607 27.4302 24.436 27.4752 24.3475 27.5339C24.2283 27.6077 24.134 27.686 24.0549 27.7505C23.9747 27.8127 23.911 27.8657 23.8567 27.8957C23.7352 27.9614 23.53 28.0224 23.3282 28.0628C23.1265 28.1054 22.9378 28.1434 22.8552 28.1941C22.6192 28.3082 22.5048 28.4418 22.3727 28.5916C22.2417 28.7437 22.0801 28.8865 21.7522 29.011C21.6991 29.0305 21.6472 29.0478 21.5941 29.0651C21.5398 29.0801 21.4867 29.0928 21.4325 29.1043C21.3251 29.1273 21.2166 29.1457 21.1081 29.155L21.1104 29.1504L21.1092 29.1481Z" fill="#D5EAF4"/>
  <path d="M11.376 28.9338C11.1825 28.8082 10.9702 28.7817 10.7496 28.7183C10.7165 28.7091 10.6835 28.6953 10.6516 28.6791C10.6351 28.6711 10.6198 28.6619 10.6045 28.6526C10.5927 28.6457 10.5986 28.648 10.5974 28.6457L10.5997 28.6411C10.5997 28.6227 10.5891 28.5973 10.5761 28.5985C10.5691 28.5985 10.5632 28.6066 10.5608 28.6169C10.5573 28.6273 10.5643 28.6377 10.5514 28.6549C10.5419 28.6711 10.5325 28.686 10.5195 28.701C10.5077 28.7137 10.4936 28.7252 10.4711 28.7321L9.87305 27.4832C9.94265 27.451 10.0229 27.4245 10.1113 27.4049C10.1338 27.3991 10.1597 27.3934 10.1904 27.3888L10.2777 27.3749C10.3355 27.3692 10.3933 27.3646 10.4487 27.3657C10.5608 27.3657 10.6682 27.3865 10.7637 27.4164C10.8593 27.4487 10.943 27.4948 11.015 27.5408C11.0409 27.557 11.074 27.5777 11.0881 27.5892C11.1011 27.5996 11.1129 27.6088 11.1235 27.618C11.1471 27.6365 11.1683 27.6514 11.1884 27.663C11.3925 27.777 11.6414 27.7632 11.7912 27.8738C11.9623 28.0098 12.1333 28.1019 12.3032 28.1734C12.5651 28.2759 12.5309 28.1319 12.768 28.1446C12.8813 28.148 12.9933 28.2747 13.2918 28.231C13.4062 28.2137 13.6209 28.3185 13.7401 28.3197C13.917 28.3197 14.0975 28.3323 14.2969 28.3646C14.4042 28.3853 14.5505 28.4349 14.7133 28.4983C14.9127 28.5777 15.4412 28.5317 15.6299 28.5904C15.8246 28.6607 16.1136 28.8335 16.2752 28.7506C16.4935 28.7575 16.8674 28.5513 17.2839 28.5443C17.4868 28.5328 17.6861 28.5386 17.8843 28.572C18.0754 28.5973 18.2618 28.5674 18.4447 28.5213C18.5674 28.489 18.6877 28.4464 18.808 28.4049C18.9696 28.3462 19.1336 28.3035 19.3023 28.2805L19.5937 29.6296C19.248 29.6988 19.2433 29.64 19.051 29.6619C18.8906 29.6803 18.762 29.7806 18.5721 29.8013C18.3668 29.8255 18.1592 29.7253 17.9964 29.6965C17.7663 29.6481 17.5705 29.7944 17.3723 29.7944C16.9665 29.7875 16.9547 29.6861 16.622 29.7713C16.274 29.852 16.1089 29.9326 15.8328 29.9211C15.7113 29.9177 15.5379 29.8566 15.3704 29.8013C15.2029 29.7402 15.0401 29.6803 14.9339 29.6677C14.6531 29.6365 14.4432 29.6654 14.3205 29.6469C14.1825 29.6285 13.9854 29.5363 13.8014 29.4511C13.6174 29.3612 13.4451 29.2759 13.3496 29.261C12.8388 29.1411 12.6359 29.4326 11.9658 29.2183C11.7547 29.1457 11.5517 29.0547 11.3724 28.9349L11.3772 28.9326L11.376 28.9338Z" fill="#D5EAF4"/>
  <path d="M4.41761 29.2886C4.48839 29.0731 4.45182 28.8681 4.4471 28.6491C4.44356 28.4936 4.5344 28.3323 4.55327 28.1779C4.5804 27.9682 4.48603 27.9014 4.51316 27.7724L5.91345 27.951C5.87216 28.2563 5.64684 28.5743 5.60673 28.7459C5.55601 28.974 5.63976 29.2056 5.5737 29.3773C5.49112 29.5755 5.44512 29.7609 5.4286 29.9349C5.40619 30.1999 5.53949 30.1296 5.60202 30.3324C5.61971 30.3796 5.60791 30.4349 5.61145 30.5029C5.61145 30.5179 5.61499 30.5432 5.61617 30.5455C5.61735 30.5501 5.62089 30.5548 5.62561 30.5582C5.63505 30.5651 5.65392 30.5709 5.68223 30.5628C5.71527 30.5513 5.69875 30.5732 5.70583 30.587C5.70819 30.5905 5.71173 30.5928 5.71762 30.587C5.75184 30.5548 5.75066 30.5213 5.74948 30.5236L5.75184 30.5283C5.75184 30.5283 5.74594 30.5409 5.78487 30.5283C5.84385 30.511 5.91345 30.4902 5.98895 30.4649C6.17888 30.4142 6.52807 30.0259 6.7121 29.9441C6.90557 29.8646 7.24296 29.8013 7.3102 29.6319C7.48008 29.4925 7.64406 29.095 7.98971 28.8185C8.15722 28.6849 8.33535 28.5662 8.53 28.4752C8.71521 28.3865 8.87329 28.2609 9.02429 28.1203C9.12457 28.0235 9.22838 27.9268 9.33927 27.8311C9.49027 27.701 9.65425 27.5754 9.87485 27.4901L10.473 28.739C10.3691 28.7874 10.3007 28.8139 10.2488 28.8266C10.1957 28.8416 10.1544 28.8473 10.0813 28.8853C9.96097 28.951 9.90316 29.0846 9.76868 29.1837C9.6224 29.2909 9.40179 29.2989 9.25669 29.3565C9.04907 29.436 8.98418 29.6607 8.83318 29.7667C8.52293 29.9914 8.45096 29.9245 8.25632 30.1872C8.05223 30.4614 7.98971 30.6262 7.78208 30.7932C7.59923 30.9419 7.12381 31.0767 6.94568 31.1999C6.71328 31.3658 6.55756 31.5283 6.43605 31.5963C6.40184 31.6147 6.37471 31.6262 6.30629 31.655C6.24377 31.6769 6.1777 31.7057 6.10692 31.7219C5.96772 31.761 5.81672 31.7795 5.67987 31.7714C5.54185 31.7622 5.41562 31.7334 5.31181 31.6815C5.20682 31.6331 5.12896 31.5652 5.07351 31.5168C5.04402 31.488 5.02869 31.473 5.01335 31.4603C4.88594 31.3301 4.80572 31.208 4.72669 31.0905C4.64647 30.973 4.57922 30.8509 4.51316 30.7114C4.39991 30.5098 4.30082 30.2921 4.30908 29.9315C4.31615 29.7033 4.35036 29.4867 4.41643 29.284L4.41997 29.2874L4.41761 29.2886Z" fill="#D5EAF4"/>
  <path d="M2.97836 20.8055C2.94297 20.582 2.82618 20.408 2.72001 20.2087C2.64923 20.0659 2.66456 19.8769 2.61502 19.7237C2.54895 19.5163 2.44042 19.4863 2.41211 19.3515L3.77583 18.9932C3.84897 19.2778 3.78291 19.6465 3.81476 19.8181C3.87256 20.0405 4.04244 20.2133 4.06131 20.3954C4.07901 20.6073 4.11322 20.7986 4.17928 20.9657C4.2772 21.2249 4.36332 21.1028 4.51196 21.2836C4.58746 21.3666 4.56504 21.5337 4.79862 21.7203C4.89064 21.7906 4.95316 22.0164 5.0322 22.1051C5.15371 22.233 5.2646 22.3712 5.37195 22.5383C5.43211 22.6282 5.48874 22.7687 5.55008 22.93C5.59255 23.0441 5.74473 23.2111 5.8745 23.3655C5.97005 23.4819 6.03847 23.6248 6.07268 23.7238C6.09038 23.7745 6.10336 23.8218 6.11043 23.8609C6.11869 23.9024 6.12341 23.937 6.12223 23.9658C6.12577 24.2596 5.96533 24.5822 6.05145 24.7538C6.05145 24.9877 6.22958 25.4059 6.17532 25.8495C6.14936 26.0638 6.10336 26.2689 6.02904 26.4636C5.95943 26.6502 5.93702 26.8426 5.93584 27.0362L5.94292 27.4279C5.94764 27.6042 5.9441 27.7793 5.90753 27.9487L4.50724 27.7701C4.55089 27.4429 4.60397 27.4567 4.64172 27.2781C4.67239 27.1307 4.61341 26.9889 4.637 26.8138C4.66296 26.626 4.81632 26.4647 4.88002 26.3219C4.97321 26.1214 4.86232 25.9163 4.89418 25.74C4.95552 25.3771 5.05461 25.3725 4.99563 25.0695C4.92839 24.7573 4.83991 24.6225 4.82457 24.4197C4.81986 24.3552 4.83519 24.2688 4.85053 24.1962C4.85761 24.1616 4.86704 24.1259 4.8753 24.104C4.8871 24.0844 4.89536 24.0706 4.90007 24.0522C4.86822 23.9773 4.83755 23.9139 4.8057 23.8702C4.7243 23.7584 4.64172 23.672 4.57212 23.5994C4.5037 23.5245 4.44589 23.4658 4.41168 23.4151C4.335 23.3022 4.26658 23.1017 4.21232 22.907C4.15451 22.7146 4.10496 22.5325 4.05188 22.453C3.92447 22.2272 3.77229 22.1293 3.61775 22.0049C3.53989 21.9438 3.45967 21.877 3.37945 21.7871C3.30042 21.6973 3.22727 21.5797 3.15531 21.423C3.06212 21.2237 3.00549 21.0129 2.9701 20.8032L2.97482 20.8055H2.97836Z" fill="#D5EAF4"/>
  <path d="M2.66833 11.3017C2.79219 11.1081 2.80163 10.8973 2.85236 10.6795C2.89129 10.5251 3.02341 10.3869 3.08358 10.2383C3.16262 10.0355 3.10009 9.94562 3.16498 9.82465L4.45556 10.3846C4.42488 10.4514 4.38124 10.5171 4.33405 10.5781C4.28922 10.6415 4.23967 10.7026 4.19013 10.759C4.09221 10.8731 3.99666 10.9733 3.95419 11.0494C3.8492 11.2544 3.88223 11.4987 3.77252 11.6496C3.64275 11.8236 3.56253 11.9975 3.49647 12.1658C3.39737 12.425 3.55427 12.3858 3.55191 12.6174C3.55781 12.7291 3.42569 12.8432 3.49175 13.1324C3.51888 13.243 3.42097 13.4584 3.42569 13.5748C3.43159 13.7476 3.43866 13.925 3.41153 14.1209C3.40445 14.1739 3.38794 14.2361 3.3667 14.3064C3.34901 14.3767 3.32423 14.4539 3.29946 14.5345C3.26643 14.6336 3.26289 14.8122 3.26525 14.9885C3.27469 15.1659 3.28294 15.3399 3.25345 15.4343C3.18621 15.6279 3.03403 15.9182 3.12369 16.0714C3.12369 16.1774 3.18621 16.3203 3.24519 16.4851C3.30182 16.651 3.37142 16.8388 3.38912 17.0427C3.40209 17.2408 3.41507 17.4344 3.39266 17.6303C3.37024 17.8192 3.41625 17.9978 3.47287 18.1741C3.51298 18.2916 3.56489 18.4068 3.6109 18.522C3.64393 18.6004 3.6746 18.6775 3.70055 18.757C3.72887 18.8354 3.75364 18.9149 3.7678 18.9967L2.40408 19.355C2.3097 19.022 2.36986 19.0151 2.33919 18.8273C2.31442 18.6718 2.20235 18.552 2.1705 18.3676C2.13393 18.1695 2.2224 17.9609 2.24836 17.7996C2.28375 17.5727 2.11623 17.3906 2.11387 17.1971C2.10561 16.9989 2.12567 16.8952 2.13393 16.8019C2.14572 16.7074 2.14572 16.6245 2.09736 16.4632C1.99 16.1279 1.90979 15.9712 1.90153 15.7016C1.89799 15.5829 1.95343 15.4113 2.00298 15.2442C2.05607 15.0772 2.1009 14.9159 2.11269 14.811C2.13393 14.5357 2.0891 14.3329 2.09854 14.2119C2.13157 13.94 2.41705 13.4296 2.44301 13.2441C2.49137 12.9907 2.43003 12.819 2.39346 12.6289C2.3734 12.5333 2.35453 12.4319 2.35099 12.3132C2.34863 12.1946 2.35689 12.0563 2.40997 11.8927C2.47604 11.683 2.55036 11.4791 2.66597 11.2982L2.66833 11.3028V11.3017Z" fill="#D5EAF4"/>
  <path d="M8.55626 3.72995C8.77686 3.65621 8.91724 3.49261 9.10009 3.36012C9.22986 3.26334 9.41979 3.23569 9.56253 3.15619C9.75718 3.0525 9.76426 2.94075 9.89285 2.8866L10.5358 4.11476C10.2656 4.24264 9.88341 4.25762 9.71825 4.32444C9.60972 4.36938 9.5236 4.44542 9.4422 4.518C9.35963 4.58943 9.28177 4.6528 9.19093 4.6793C8.97505 4.72999 8.80281 4.81986 8.64356 4.90972C8.40054 5.05258 8.54446 5.11365 8.39464 5.29453C8.3274 5.3844 8.1528 5.39476 8.01478 5.65745C7.96405 5.75999 7.75053 5.86713 7.67857 5.96046C7.57122 6.09756 7.46269 6.24042 7.31405 6.37522C7.23265 6.44665 7.10406 6.53191 6.95896 6.62753C6.87048 6.68399 6.74779 6.81763 6.64044 6.95934C6.53191 7.10106 6.42574 7.24161 6.34198 7.29576C6.16975 7.40752 5.86067 7.53771 5.83118 7.71168C5.76275 7.79348 5.72146 7.94441 5.66012 8.10916C5.63063 8.19211 5.59642 8.27968 5.55513 8.36724C5.5162 8.45595 5.47137 8.54697 5.41357 8.63222C5.35694 8.71518 5.29796 8.79352 5.23425 8.86956C5.17055 8.9456 5.10921 9.02164 5.03842 9.09077C4.90748 9.22787 4.80956 9.38571 4.7494 9.56199L4.63143 9.91684C4.57717 10.0758 4.5347 10.2383 4.44976 10.3823L3.15918 9.82237C3.30664 9.50899 3.34557 9.53434 3.44584 9.37189C3.52842 9.23709 3.5237 9.0781 3.61218 8.91104C3.70538 8.73015 3.92362 8.63222 4.04041 8.51932C4.20674 8.36032 4.20438 8.12299 4.32353 7.96745C4.56065 7.64601 4.65385 7.69785 4.78243 7.38678C4.91456 7.05958 4.95349 6.88791 5.12218 6.67477C5.15993 6.62869 5.2142 6.57799 5.27908 6.5273C5.34514 6.47891 5.42064 6.42937 5.49496 6.37983C5.64361 6.28305 5.78753 6.18858 5.85949 6.11138C6.05414 5.91091 6.15205 5.72658 6.23699 5.63901C6.43636 5.44661 6.98963 5.22886 7.12765 5.09982C7.32702 4.93161 7.3919 4.7634 7.48628 4.59174C7.53229 4.50533 7.58301 4.41431 7.65615 4.31984C7.69273 4.2726 7.73637 4.22421 7.7871 4.17467C7.84019 4.12628 7.90153 4.07904 7.97349 4.0295C8.15988 3.90738 8.34745 3.79216 8.55508 3.72419V3.7288L8.55626 3.72995Z" fill="#D5EAF4"/>
  <path d="M18.0087 1.46257C18.2281 1.53861 18.4404 1.51095 18.6705 1.51095C18.8345 1.5075 18.9984 1.61465 19.1601 1.63999C19.3783 1.68032 19.4573 1.58584 19.5918 1.62847L19.3004 2.9776C19.153 2.94419 19.0032 2.87852 18.8687 2.80479C18.7342 2.73451 18.615 2.65731 18.5289 2.64003C18.3001 2.58819 18.0641 2.66077 17.8907 2.59049C17.689 2.50984 17.4979 2.46145 17.3162 2.4338C17.0354 2.39924 17.1074 2.53749 16.8738 2.58243C16.7629 2.61008 16.6214 2.50639 16.3441 2.63197C16.238 2.67921 16.0032 2.62966 15.8864 2.65731C15.7154 2.7034 15.5384 2.74142 15.3355 2.7564C15.2258 2.76101 15.0713 2.75064 14.8978 2.73451C14.7917 2.72414 14.6112 2.75179 14.4366 2.79672C14.2608 2.8405 14.0886 2.88428 13.9883 2.87507C13.7819 2.85318 13.4586 2.76792 13.3241 2.88428C13.218 2.90502 13.0882 2.99373 12.9348 3.08706C12.7815 3.18038 12.6045 3.2737 12.4063 3.34052C12.214 3.40274 12.0159 3.4373 11.8188 3.4661C11.6289 3.4926 11.452 3.55827 11.2915 3.65505L10.9718 3.86013C10.8267 3.94999 10.6875 4.04677 10.5306 4.11014L9.8877 2.88198C10.2015 2.72414 10.218 2.77368 10.4009 2.70916C10.5519 2.65386 10.6498 2.52713 10.8255 2.44993C11.0167 2.37389 11.2467 2.42459 11.4119 2.40846C11.6431 2.38541 11.7964 2.20568 11.9875 2.15499C12.1834 2.10199 12.2907 2.09969 12.3875 2.09393C12.4842 2.08586 12.568 2.06743 12.7178 1.98678C12.7968 1.94415 12.8641 1.90383 12.9254 1.86811C12.9879 1.8347 13.0434 1.80359 13.0965 1.77479C13.205 1.71834 13.3064 1.6734 13.4409 1.6423C13.5589 1.61234 13.7417 1.62732 13.9199 1.64345C14.098 1.65958 14.2702 1.67456 14.3764 1.65843C14.6572 1.62386 14.8518 1.53976 14.9745 1.52478C15.1114 1.50519 15.3272 1.55013 15.5278 1.58584C15.6281 1.60428 15.726 1.62271 15.8097 1.63538C15.8947 1.65036 15.9655 1.65958 16.0138 1.65382C16.2781 1.64921 16.4362 1.55819 16.6202 1.47869C16.803 1.40265 17.0107 1.32431 17.361 1.34159C17.584 1.36118 17.8034 1.39805 18.0099 1.46257L18.0063 1.46602L18.0087 1.46257Z" fill="#D5EAF4"/>
  <path d="M26.814 5.5169C26.9367 5.70931 27.1172 5.81991 27.2965 5.96162C27.4251 6.0607 27.4853 6.24389 27.5938 6.36371C27.7389 6.52847 27.8592 6.50542 27.9359 6.62064L26.8388 7.48933C26.748 7.37067 26.6725 7.22896 26.6158 7.08955C26.5568 6.95245 26.5132 6.81995 26.4589 6.75198C26.315 6.57109 26.0862 6.48123 25.9941 6.32108C25.8903 6.13444 25.7747 5.97775 25.6508 5.84411C25.4515 5.64825 25.4208 5.79687 25.212 5.68742C25.1613 5.66207 25.1235 5.61022 25.0634 5.55262C25.0008 5.49847 24.9135 5.43971 24.7684 5.40054C24.6552 5.37174 24.5089 5.18394 24.3957 5.14016C24.2329 5.07103 24.0748 4.98578 23.9061 4.87632C23.8141 4.81872 23.7032 4.71272 23.5805 4.5906C23.5085 4.5111 23.3434 4.43391 23.1806 4.35787C23.0178 4.28183 22.8573 4.20464 22.783 4.14127C22.6308 4.00647 22.4468 3.72075 22.2604 3.73918C22.1625 3.6954 22.0056 3.68042 21.8287 3.65508C21.6517 3.62973 21.4464 3.60899 21.2541 3.52834C21.207 3.50991 21.1609 3.48917 21.1149 3.46843C21.0689 3.45 21.0229 3.43041 20.9781 3.40852C20.8884 3.36589 20.8 3.31981 20.7162 3.26566C20.5546 3.16082 20.3706 3.11588 20.1842 3.08938C20.0568 3.07671 19.9317 3.05597 19.8055 3.04906C19.6333 3.03869 19.4634 3.02141 19.3018 2.97072L19.5931 1.62158C19.9376 1.69877 19.9187 1.74832 20.1039 1.80362C20.2585 1.8474 20.4142 1.81859 20.5994 1.86814C20.6985 1.89579 20.7858 1.95339 20.8648 2.01446C20.9439 2.07667 21.0135 2.1481 21.0819 2.19303C21.2718 2.32783 21.516 2.25986 21.6942 2.34857C21.8782 2.43268 21.9631 2.49719 22.0445 2.54789C22.1259 2.59743 22.2038 2.63314 22.3713 2.66771C22.7217 2.73568 22.9104 2.71955 23.1546 2.84513C23.262 2.89928 23.3988 3.0168 23.5286 3.13662C23.656 3.26105 23.7775 3.38202 23.8707 3.43387C24.1184 3.56751 24.3154 3.63434 24.4228 3.6977C24.6634 3.83826 24.9843 4.33944 25.1507 4.43276C25.3583 4.59175 25.5364 4.62401 25.7322 4.6724C25.9257 4.72194 26.1322 4.79452 26.3964 5.02149C26.558 5.17357 26.7019 5.33832 26.8211 5.51575H26.8164L26.814 5.5169Z" fill="#D5EAF4"/>
  <path d="M31.045 14.0795C31.019 14.3041 31.0839 14.5023 31.1323 14.7212C31.1689 14.8767 31.1004 15.0553 31.104 15.2155C31.1099 15.4321 31.2137 15.4885 31.2066 15.6256H29.7945C29.791 15.4781 29.8323 15.3215 29.8771 15.1774C29.9231 15.0346 29.9703 14.9044 29.9715 14.8191C29.9762 14.5899 29.8606 14.379 29.8901 14.1981C29.9302 13.9885 29.9408 13.796 29.9325 13.6163C29.9042 13.3421 29.7851 13.4377 29.6919 13.2246C29.6459 13.1244 29.7131 12.9688 29.5326 12.7292C29.4618 12.6382 29.4713 12.402 29.4123 12.2983C29.3309 12.1439 29.2578 11.9826 29.2023 11.7925C29.1681 11.6911 29.1492 11.5402 29.1315 11.3708C29.128 11.319 29.1079 11.251 29.0808 11.1773C29.0525 11.1035 29.0112 11.024 28.9723 10.9445C28.8932 10.7856 28.8177 10.6277 28.8036 10.5309C28.7729 10.3328 28.8048 10.001 28.6561 9.89842C28.5547 9.71062 28.2149 9.46983 28.0061 9.11843C27.9117 8.94331 27.8209 8.76934 27.7572 8.58385C27.7265 8.49514 27.6841 8.41218 27.6357 8.33384C27.5826 8.2578 27.5224 8.18752 27.4576 8.11955L27.1898 7.85456C27.0624 7.7405 26.9409 7.62413 26.8477 7.48473L27.9448 6.61603C28.163 6.88678 28.117 6.91327 28.2255 7.07112C28.3128 7.20246 28.4568 7.27389 28.5688 7.42597C28.6915 7.58842 28.6868 7.81999 28.734 7.97553C28.7989 8.19443 29.0254 8.29582 29.1091 8.47209C29.2896 8.8281 29.2106 8.87995 29.43 9.13572C29.5456 9.26936 29.6423 9.36153 29.7249 9.4514C29.8028 9.54357 29.8688 9.63113 29.9255 9.75441C29.9727 9.86386 30.0104 10.0355 30.0269 10.2118C30.047 10.3858 30.0647 10.5551 30.1036 10.6519C30.2062 10.9088 30.3195 11.0816 30.3619 11.1957C30.3832 11.2602 30.3997 11.3443 30.408 11.4388C30.4139 11.5333 30.4162 11.637 30.4174 11.7372C30.4174 11.9388 30.4257 12.1243 30.4516 12.2153C30.5106 12.4665 30.6286 12.6013 30.7512 12.7591C30.8669 12.9181 30.9825 13.1013 31.0414 13.44C31.0674 13.6578 31.0733 13.8744 31.0509 14.0852L31.0473 14.0818L31.045 14.0795Z" fill="#D5EAF4"/>
  <path d="M17.9454 16.463C17.9307 16.4547 17.9171 16.4505 17.9056 16.4505C17.8658 16.4495 17.8522 16.4848 17.8658 16.5181C17.8773 16.5523 17.9119 16.5825 17.937 16.597C17.9422 16.6001 17.9464 16.6022 17.9454 16.6063C17.9475 16.6448 17.9464 16.6832 17.9454 16.7216C17.9422 16.7996 17.9328 16.8795 17.9234 16.9595C17.9035 17.1205 17.8826 17.2836 17.9014 17.4363C17.9537 17.8529 18.1861 17.9235 18.2102 18.178L15.34 18.7286C15.2657 18.3453 15.2992 17.9204 15.362 17.5464C15.3934 17.3595 15.4311 17.1839 15.4625 17.0281C15.4782 16.9502 15.4928 16.8775 15.5043 16.811C15.5106 16.7777 15.5148 16.7455 15.519 16.7154C15.5211 16.704 15.5221 16.6749 15.5242 16.6541C15.5253 16.6313 15.5263 16.6095 15.5284 16.5887C15.5441 16.2075 15.5787 15.8304 15.7074 15.4865C15.832 15.1438 16.0497 14.8477 16.3145 14.6535C16.415 14.5807 16.5134 14.5226 16.6149 14.4789C16.7249 14.4301 16.7793 14.4176 16.8431 14.3979C16.8997 14.3813 16.9562 14.3657 17.0117 14.3491C17.0567 14.3366 17.1017 14.3231 17.1467 14.3107C17.1875 14.2992 17.2147 14.2878 17.2493 14.2764C17.3163 14.2577 17.378 14.2161 17.4408 14.1808C17.4994 14.1351 17.5612 14.0956 17.6125 14.0385C17.7789 13.8723 17.7747 13.7549 17.7475 13.6531C17.735 13.6022 17.713 13.5482 17.7015 13.4859C17.6952 13.4547 17.692 13.4204 17.692 13.383C17.691 13.3436 17.692 13.2999 17.7015 13.2511C17.7088 13.2044 17.7276 13.1587 17.7549 13.1098C17.7831 13.061 17.8135 13.006 17.8428 12.9395C17.8983 12.8086 17.9433 12.6216 17.8658 12.3713C17.8512 12.3235 17.847 12.2663 17.8543 12.203C17.8574 12.1407 17.87 12.0721 17.8794 12.0056C17.8836 11.9724 17.8888 11.9391 17.893 11.9059C17.8972 11.8727 17.8983 11.854 17.9003 11.829C17.9003 11.7812 17.8951 11.7355 17.8794 11.6992C17.7821 11.4852 17.6648 11.2483 17.5204 10.918C17.4817 10.8297 17.444 10.7092 17.4063 10.5794C17.3717 10.4568 17.3341 10.3218 17.2943 10.1805C17.2733 10.0984 17.2158 10.006 17.1435 9.93014C17.0724 9.85224 16.9876 9.79614 16.9143 9.76186C16.8442 9.72758 16.773 9.71096 16.6924 9.68603C16.6139 9.66214 16.5302 9.63721 16.4694 9.59774C16.4066 9.55722 16.3271 9.50321 16.2339 9.45023C16.1397 9.39725 16.0309 9.34531 15.9178 9.30688C15.6907 9.22897 15.4394 9.20196 15.2929 9.30376C15.1212 9.31623 14.9077 9.40764 14.7099 9.53126C14.6104 9.59254 14.5173 9.66318 14.4346 9.73382C14.3927 9.76913 14.354 9.80445 14.3184 9.83873C14.31 9.84704 14.2995 9.85535 14.2912 9.86366C14.2828 9.87301 14.2723 9.88236 14.2796 9.88236C14.2859 9.88548 14.2849 9.8969 14.287 9.90002C14.2933 9.92183 14.3058 9.93534 14.2995 9.93326C14.2974 9.93326 14.2912 9.9343 14.287 9.93118C14.287 9.93014 14.287 9.92911 14.2859 9.92807C14.2849 9.92807 14.2817 9.9343 14.2786 9.93742C14.2723 9.94261 14.2692 9.95611 14.2629 9.96546C14.2577 9.97585 14.2514 9.98624 14.2451 9.99559L14.2284 10.034C14.1792 10.1369 14.1258 10.2781 14.0703 10.435C13.9667 10.7414 14.0075 11.106 14.1258 11.4395C14.2106 11.6639 14.31 11.8841 14.4199 12.0856C14.4953 12.2217 14.5717 12.3515 14.6397 12.4679C14.7078 12.5832 14.7695 12.6881 14.7999 12.7577L12.3808 14.3875C12.2134 14.1403 12.1401 13.972 12.0794 13.8328C12.025 13.6967 11.9956 13.596 11.9758 13.5087C11.936 13.3332 11.9234 13.2085 11.8585 12.9706C11.7518 12.5801 11.5068 12.2788 11.4199 11.802C11.376 11.5465 11.4116 11.2837 11.4733 11.0385C11.534 10.7934 11.6209 10.5638 11.6753 10.3571C11.7549 10.0652 11.7497 9.77848 11.7716 9.46374C11.7758 9.38687 11.7852 9.30584 11.7968 9.22482C11.803 9.1843 11.8072 9.14483 11.8166 9.10224L11.8313 9.03888L11.8501 8.96616C11.9046 8.77711 11.982 8.60259 12.0899 8.44677C12.227 8.2598 12.3631 8.11437 12.5002 8.01257C12.5337 7.9866 12.5661 7.96167 12.5986 7.93881C12.6321 7.91804 12.6645 7.89934 12.6959 7.88064C12.7598 7.84533 12.8163 7.81105 12.8718 7.78404C12.944 7.7508 13.0099 7.72275 13.0769 7.69678C13.1513 7.66769 13.1952 7.65419 13.2434 7.63861C13.3386 7.60952 13.4276 7.58148 13.5239 7.55239C13.7102 7.49318 13.9091 7.41423 14.2032 7.2927C14.6408 7.11507 14.9527 7.00392 15.2364 6.9177C15.3787 6.87511 15.5096 6.84187 15.653 6.81798C15.7974 6.79512 15.9524 6.78162 16.1334 6.78681C16.4506 6.7972 16.952 6.92809 17.4429 7.18259C17.6868 7.30828 17.9234 7.46513 18.1212 7.62407C18.3211 7.783 18.474 7.93674 18.5964 8.04477C18.9209 8.33251 19.1481 8.58805 19.3302 8.79892C19.5092 9.01083 19.6369 9.18015 19.7102 9.31727C19.7918 9.47205 19.8567 9.66941 19.9122 9.9021C19.9666 10.1327 20.0064 10.3955 20.0263 10.6583C20.0472 10.9201 20.0451 11.1829 20.0347 11.4104C20.0242 11.6369 20.0043 11.8332 20.0095 11.962C20.0001 12.2975 20.0033 12.5603 20.0232 12.8096C20.0347 12.9364 20.0451 13.0558 20.0556 13.1742C20.0692 13.2947 20.0755 13.4152 20.0828 13.5409C20.0922 13.7913 20.086 14.0624 20.0022 14.3803C19.9185 14.6971 19.7667 15.0669 19.4255 15.4793C19.3187 15.6102 19.191 15.7348 19.0633 15.8532C18.9251 15.9696 18.7869 16.0818 18.6268 16.1773C18.4666 16.2822 18.3211 16.3477 18.2039 16.3965C18.1453 16.4204 18.0909 16.4401 18.0427 16.4557L17.9757 16.4755C17.9642 16.4786 17.9652 16.4755 17.9621 16.4734L17.9527 16.4682L17.9495 16.462L17.9454 16.463Z" fill="#2A6FB4"/>
  <path d="M16.9773 23.2839C17.523 23.2839 17.9653 22.8519 17.9653 22.3189C17.9653 21.786 17.523 21.354 16.9773 21.354C16.4316 21.354 15.9893 21.786 15.9893 22.3189C15.9893 22.8519 16.4316 23.2839 16.9773 23.2839Z" fill="#2B72B9"/>
  <path d="M17.7107 21.1919C17.8563 21.3205 18.0061 21.4157 18.1324 21.5693C18.2234 21.6791 18.2491 21.8391 18.2855 21.9698C18.3326 22.1496 18.3904 22.1966 18.3893 22.3179H17.5351C17.534 22.2604 17.5522 22.1977 17.5608 22.1297C17.5704 22.0638 17.5683 21.9969 17.5512 21.9593C17.5287 21.9102 17.4827 21.8757 17.4409 21.8495C17.397 21.8234 17.3574 21.8025 17.3307 21.768C17.2718 21.6843 17.184 21.631 17.0952 21.608C16.956 21.5798 16.987 21.6634 16.8896 21.7021C16.8672 21.7136 16.8383 21.7084 16.8019 21.7157C16.7655 21.722 16.7216 21.7429 16.6862 21.7993C16.6616 21.8422 16.5653 21.8725 16.5417 21.9196C16.5086 21.9854 16.4829 22.0503 16.455 22.1213C16.4379 22.159 16.4069 22.2102 16.3769 22.2782C16.3544 22.32 16.3694 22.3984 16.3951 22.4663C16.4218 22.5353 16.4615 22.5939 16.4711 22.6347C16.4754 22.6577 16.4796 22.6838 16.4839 22.7099C16.4914 22.7361 16.4978 22.7674 16.5107 22.7925C16.5342 22.8448 16.5738 22.8897 16.6209 22.8845C16.6638 22.9117 16.7419 22.9138 16.8211 22.9033C16.9014 22.8929 16.9806 22.8699 17.062 22.8605C17.1412 22.8511 17.2172 22.8364 17.3028 22.8186C17.3853 22.7998 17.4484 22.7381 17.4827 22.666C17.503 22.6158 17.5191 22.5657 17.5233 22.5144C17.5308 22.4454 17.5298 22.3827 17.5394 22.3168H18.3936C18.3904 22.4705 18.3647 22.5437 18.3465 22.5981C18.323 22.6514 18.3069 22.688 18.2727 22.7653C18.2213 22.8908 18.2041 23.0225 18.1003 23.1574C17.9868 23.3027 17.8006 23.3529 17.6753 23.3978C17.5854 23.4302 17.5116 23.4773 17.4334 23.5191C17.3949 23.541 17.3564 23.562 17.3157 23.5766C17.2761 23.5933 17.2343 23.6059 17.1926 23.609C17.0202 23.6278 16.9325 23.5996 16.8554 23.585C16.7783 23.5651 16.7098 23.5546 16.5696 23.5369C16.4229 23.5149 16.3137 23.4835 16.2152 23.4459C16.1189 23.4051 16.0322 23.356 15.9476 23.2682C15.8706 23.1929 15.7988 23.0507 15.7582 22.9086C15.7143 22.7664 15.7079 22.6263 15.6918 22.5406C15.6522 22.3158 15.6436 22.1443 15.664 22.0419C15.6875 21.9279 15.7806 21.7711 15.8952 21.6561C16.0086 21.538 16.135 21.4606 16.1896 21.4094C16.348 21.2829 16.44 21.1867 16.5706 21.0916C16.6359 21.0466 16.7119 21.0027 16.8126 20.9724C16.9121 20.9442 17.0374 20.9254 17.1926 20.9515C17.3895 20.9829 17.5747 21.0675 17.7139 21.1888H17.7096L17.7107 21.1919Z" fill="#2B6FB4"/>
</svg>