<svg xmlns="http://www.w3.org/2000/svg" width="32" height="33" viewBox="0 0 32 33" fill="none">
  <path d="M20.4998 1.06602C19.3369 0.71006 18.2187 0.147411 17.0558 0.0670326C15.8929 -0.0133459 14.6014 -0.0535346 13.4385 0.135929C12.2756 0.325392 11.1406 0.933973 10.0448 1.38754C8.94897 1.8411 7.8811 2.43246 6.90828 3.12716C5.93546 3.82186 5.24777 4.83807 4.44268 5.7452C3.63759 6.65233 2.97786 7.57668 2.38522 8.65031C1.79258 9.72393 1.05458 10.6655 0.70235 11.8597C0.350121 13.0539 0.137666 14.1562 0.0538021 15.293C-0.0300618 16.4298 -0.0244709 17.6584 0.132075 18.7952C0.288621 19.932 0.573758 21.109 0.965123 22.1941C0.965123 22.2056 1.3509 22.0965 1.3509 22.108C1.69194 23.4916 1.13285 24.7662 0.953941 25.8972C0.735895 27.2809 0.629668 28.5382 0.52344 29.6521C0.433985 30.6338 1.06576 31.3515 2.02181 31.4548C2.77658 31.5352 3.73822 31.4261 5.02414 31.2309C5.89632 31.0989 6.93623 31.1563 8.05442 30.7946C8.09356 30.7831 8.05442 30.875 8.09356 30.8577C9.1111 31.4491 10.2628 31.8338 11.4257 32.1897C12.5887 32.5457 13.7795 32.5974 14.9424 32.6777C16.1054 32.7581 17.3689 33.137 18.5318 32.9476C19.6947 32.7581 20.7346 31.9256 21.8305 31.472C22.9263 31.0185 24.1731 30.7946 25.1459 30.0999C26.1187 29.4052 26.907 28.4406 27.7121 27.5335C28.5172 26.6264 29.1937 25.6446 29.7864 24.571C30.379 23.4974 30.8319 22.4123 31.1785 21.2181C31.5251 20.0239 31.5978 18.8124 31.6761 17.6182C31.7544 16.4241 32.1345 15.1265 31.95 13.9323C31.7655 12.7381 30.9381 11.676 30.4964 10.5507C30.0547 9.42538 29.6466 8.2886 28.9701 7.28387C28.2936 6.27914 27.768 5.09643 26.8903 4.26394C26.0125 3.43145 24.8048 3.05252 23.7537 2.44394C22.7026 1.83536 21.6571 1.41624 20.4942 1.05454L20.4998 1.06602Z" fill="#EFF7F9"/>
  <path d="M20.5605 7.98042C20.8792 7.90502 21.2091 7.89764 21.5056 7.97306H21.5019L21.4943 7.97674C21.8094 8.05594 22.1098 8.04856 22.4286 8.14284C22.6583 8.20323 22.8548 8.39538 23.0475 8.52735C23.301 8.71046 23.4305 8.69749 23.5735 8.84041L23.5775 8.83673C23.7219 8.86294 23.8223 9.13433 23.8631 9.22492C23.9075 9.31541 23.937 9.37593 23.9963 9.50409C24.1075 9.70775 24.2671 9.8664 24.3561 10.1379C24.4486 10.4358 24.3596 10.7449 24.3188 10.9674C24.2706 11.2803 24.3781 11.5859 24.2967 11.8649C24.2152 12.144 24.1261 12.2726 24.0556 12.3857C23.9852 12.5026 23.9295 12.6045 23.8406 12.8269C23.7406 13.0569 23.6552 13.2265 23.5626 13.3735C23.4811 13.5092 23.4182 13.6037 23.3071 13.7167C23.1143 13.9129 22.6063 14.1469 22.4358 14.3204C22.2098 14.5504 22.091 14.7615 21.991 14.8633C21.7686 15.0895 21.1536 15.3762 21.0089 15.5535C20.6209 15.9483 20.7087 16.2686 20.3183 16.7405C20.3956 16.8576 20.4524 16.9384 20.6455 17.0657C20.9865 17.2882 21.1794 17.3526 21.398 17.5751C21.5907 17.7712 21.8205 18.2877 21.991 18.4612C22.2171 18.6913 22.4248 18.8121 22.5249 18.9139C22.7473 19.1402 23.029 19.7664 23.2032 19.9135C23.3069 20.0152 23.4182 20.1057 23.5293 20.1849C23.6405 20.2641 23.7444 20.3396 23.8518 20.4188C24.0557 20.5885 24.2967 20.8223 24.419 21.3314C24.4932 21.6557 24.5004 21.9914 24.4263 22.2931V22.2816C24.3484 22.6022 24.3561 22.9079 24.2634 23.2322C24.2041 23.4661 24.0149 23.6659 23.8851 23.862C23.7051 24.12 23.7178 24.2516 23.5771 24.3972L23.5811 24.4012C23.5366 24.5142 23.2886 24.6503 23.1996 24.6918C23.1106 24.7371 23.0512 24.767 22.9252 24.8274C22.7251 24.9405 22.5694 25.1029 22.3026 25.1935C22.0098 25.2877 21.7058 25.197 21.4871 25.1555C21.1795 25.1065 20.8792 25.2159 20.605 25.1331C20.3308 25.0501 20.2047 24.9594 20.0935 24.8878C19.9786 24.8161 19.8782 24.7595 19.6595 24.669C19.4335 24.5672 19.2669 24.4804 19.1223 24.3861C18.989 24.3032 18.8961 24.2392 18.785 24.1261C18.5923 23.93 18.3622 23.4131 18.1917 23.2396C17.9657 23.0096 17.7582 22.8888 17.6582 22.787C17.4358 22.5606 17.1541 21.9349 16.9799 21.7878C16.5983 21.3996 16.2872 21.48 15.836 21.1053C15.6621 21.3952 15.5914 21.5748 15.3933 21.7763C15.2006 21.9724 14.6929 22.2065 14.5224 22.38C14.2964 22.61 14.1777 22.821 14.0776 22.9229C13.8552 23.1492 13.2398 23.4358 13.0952 23.6131C12.9952 23.7186 12.9062 23.8318 12.8284 23.9449C12.7506 24.0581 12.6764 24.1637 12.5986 24.2731C12.4318 24.4805 12.202 24.7257 11.7016 24.8502C11.3829 24.9256 11.053 24.933 10.7565 24.8576H10.7677C10.4527 24.7784 10.1523 24.7861 9.8335 24.6918C9.60371 24.6315 9.40726 24.4389 9.21453 24.3069C8.95937 24.1226 8.82986 24.137 8.68569 23.9909C8.68524 23.9921 8.68462 23.9929 8.68461 23.9939C8.68461 24.0099 8.67339 23.9788 8.67339 23.9788L8.65855 23.96L8.62887 23.9261C8.61034 23.9035 8.59192 23.8846 8.5771 23.8657C8.54751 23.8281 8.51789 23.7942 8.49566 23.7641C8.45125 23.7038 8.42521 23.6509 8.403 23.6057C8.35853 23.5152 8.32871 23.4547 8.26943 23.3265C8.15823 23.1229 7.99895 22.9642 7.90999 22.6927C7.8174 22.3948 7.90614 22.0895 7.94692 21.8633C7.99509 21.5503 7.88756 21.2447 7.969 20.9657C8.05054 20.6866 8.13964 20.5581 8.21007 20.4449C8.28046 20.328 8.33615 20.2261 8.42508 20.0037C8.52511 19.7737 8.61045 19.6042 8.70307 19.4571C8.78461 19.3214 8.84778 19.227 8.95898 19.1139C9.15175 18.9178 9.65939 18.6837 9.82988 18.5102C10.0559 18.2802 10.1747 18.0692 10.2747 17.9673C10.4971 17.7411 11.1121 17.4544 11.2568 17.2771C11.4877 17.0422 11.5505 16.8336 11.6452 16.6035C11.6358 16.5971 11.6266 16.5899 11.6166 16.5833C11.2756 16.3607 11.0827 16.2964 10.864 16.0739C10.6713 15.8778 10.4416 15.3613 10.2711 15.1878C10.045 14.9577 9.83729 14.8369 9.73721 14.7351C9.51482 14.5088 9.23309 13.8826 9.05888 13.7355C8.95513 13.6337 8.84391 13.5433 8.73275 13.4641C8.62156 13.3849 8.51772 13.3094 8.41024 13.2302C8.20639 13.0605 7.96533 12.8266 7.84303 12.3176C7.76892 11.9933 7.76167 11.6576 7.83579 11.3559V11.3673C7.91363 11.0468 7.90601 10.7411 7.99868 10.4167C8.058 10.1829 8.24722 9.98305 8.37693 9.78695C8.55842 9.52313 8.60857 9.41531 8.60857 9.41531L8.65201 9.30335L8.68821 9.25915L8.71429 9.21755L8.74759 9.18735C8.76982 9.1685 8.78843 9.14976 8.80695 9.13468C8.84402 9.10451 8.87721 9.07408 8.90686 9.05145C8.96614 9.00621 9.01804 8.97979 9.0625 8.95716C9.15145 8.91191 9.21089 8.88195 9.33688 8.82163C9.53701 8.70849 9.69263 8.54605 9.95946 8.45553C10.2523 8.36125 10.5563 8.45198 10.775 8.49347C11.0826 8.54249 11.3828 8.43303 11.6571 8.51593C11.9313 8.59888 12.0574 8.68958 12.1686 8.76122C12.2834 8.83287 12.3836 8.88951 12.6022 8.98C12.8283 9.08182 12.9952 9.16858 13.1397 9.26285C13.2731 9.3458 13.3659 9.40979 13.4771 9.52288C13.6698 9.71899 13.8998 10.2359 14.0703 10.4094C14.2964 10.6394 14.5038 10.7602 14.6039 10.862C14.8263 11.0884 15.108 11.7141 15.2822 11.8612C15.5042 12.0871 15.7023 12.1546 15.9182 12.245C16.1154 12.0974 16.2011 12.0823 16.3681 11.82C16.5868 11.473 16.65 11.2768 16.8687 11.0543C17.0615 10.8582 17.5691 10.6241 17.7396 10.4506C17.9657 10.2206 18.0844 10.0096 18.1845 9.90775C18.4069 9.68147 19.0223 9.39481 19.1669 9.21755C19.2669 9.11198 19.3558 8.99882 19.4336 8.88571C19.5115 8.77257 19.5857 8.66692 19.6635 8.55755C19.8303 8.35013 20.0601 8.10487 20.5605 7.98042Z" fill="#CB203D"/>
</svg>