<svg xmlns="http://www.w3.org/2000/svg" width="38" height="38" viewBox="0 0 38 38" fill="none">
  <path d="M25.7305 15.318C25.4573 15.6373 25.6814 15.5452 25.3437 15.8L24.5977 14.8237C24.9077 14.6456 24.8156 14.7715 25.1533 14.6333C25.3222 14.5658 25.445 14.3018 25.7489 14.7316C25.9362 14.9925 25.7274 15.318 25.7274 15.318H25.7305Z" fill="#DBF3FC"/>
  <path d="M21.2361 19.3613C21.3619 19.2907 21.4755 19.2016 21.5768 19.1003C21.8931 18.778 21.7488 18.5232 21.9974 18.2745C22.0773 18.1701 22.4856 18.0596 22.6145 17.9368C22.6729 17.8815 22.7404 17.7526 22.8785 17.6298C22.986 17.5346 23.3176 17.4548 23.4342 17.3535C23.5693 17.2368 23.6 17.1079 23.729 16.9052C23.8548 16.7118 23.9162 16.7732 24.1342 16.6197C24.2417 16.546 24.2754 16.371 24.4289 16.3219C24.5364 16.2851 24.7052 16.2943 24.8096 16.2114C24.9079 16.1346 24.9385 16.0241 25.0276 15.9658C25.135 15.8952 25.1596 15.9351 25.3407 15.797L24.5947 14.8237C24.4903 14.8913 24.4013 14.9834 24.3153 15.0786L24.1281 15.2904C24.0329 15.3917 23.9285 15.4807 23.7934 15.536C23.6553 15.5912 23.5263 15.668 23.4097 15.7632C23.1671 15.9597 23.0658 16.2697 22.9491 16.371C22.9123 16.5061 22.6575 16.5338 22.5132 16.5952C22.3751 16.6566 22.1479 16.982 22.0067 17.0526C21.89 17.1109 21.7887 17.1723 21.7303 17.2276C21.6198 17.3289 21.5369 17.4394 21.4633 17.5469C21.4172 17.6206 21.2576 17.7096 21.2299 17.7925C21.1562 18.0105 21.0243 18.0258 20.9813 18.0995C20.8953 18.253 21.0181 18.296 20.8615 18.431C20.7633 18.5201 20.6405 18.5999 20.4931 18.6705C20.3672 18.7381 20.3273 18.9253 20.1953 19.0389C20.094 19.1218 19.8085 19.2108 19.6611 19.392L20.6098 20.1687C20.6742 20.1042 20.6282 20.0213 20.7203 19.9108C20.7848 19.8279 20.9106 19.785 20.9659 19.6959C21.0457 19.57 21.0979 19.438 21.2299 19.3582L21.2361 19.3613Z" fill="#DBF3FC"/>
  <path d="M19.4008 19.9907C19.585 19.5855 19.3855 19.7451 19.671 19.3982L20.6227 20.1749C20.374 20.4052 20.4231 20.264 20.153 20.4789C20.0117 20.5863 19.9903 20.8565 19.5574 20.5587C19.2903 20.3775 19.4039 19.9907 19.4039 19.9907H19.4008Z" fill="#DBF3FC"/>
  <path d="M14.3811 13.2488L31.2818 33.5971C31.6502 34.0391 32.3655 34.0391 32.8721 33.5971C33.3756 33.155 33.4707 32.4458 33.0839 32.0221L15.1947 12.5365C15.0259 12.3523 14.7127 12.3584 14.4917 12.5488C14.2706 12.7422 14.2215 13.0492 14.3842 13.2426L14.3811 13.2488Z" fill="#FFB48E"/>
  <path d="M19.2472 18.2561C19.1673 18.0903 19.066 17.9398 18.9494 17.7956C18.584 17.3412 18.2954 17.4548 18.0099 17.1109C17.8932 16.9943 17.7398 16.5092 17.5924 16.3311C17.5279 16.2513 17.3775 16.15 17.224 15.9689C17.1073 15.8307 16.9876 15.4285 16.8586 15.275C16.8402 15.2535 16.8218 15.232 16.8034 15.2136L16.7757 15.1891H16.7696C16.7696 15.1891 16.7512 15.2014 16.7328 15.2044C16.699 15.2106 16.6499 15.2075 16.5823 15.1799C16.438 15.1123 16.5516 15.1154 16.5639 15.097C16.5639 15.0908 16.5025 15.057 16.4442 15.0171C16.3859 14.9803 16.3337 14.9342 16.392 14.9588C16.4626 14.9834 16.7727 15.1768 16.7788 15.186C16.7819 15.1921 16.5608 15.0264 16.5823 15.0386C16.613 15.0571 16.7788 15.186 16.7788 15.186L13.7026 12.7146C13.6811 12.7545 13.6873 12.8098 13.7272 12.908C13.7518 12.9725 13.7917 13.0585 13.8346 13.1444C13.896 13.2764 13.9421 13.3992 13.9206 13.5128C13.9114 13.5405 13.9206 13.5804 13.9421 13.6264C13.9636 13.6755 14.0066 13.7369 14.0526 13.7983C14.1447 13.9242 14.2491 14.0624 14.3658 14.2036C14.6083 14.5014 14.9153 14.8023 15.1609 15.0325C15.4096 15.2658 15.6061 15.4316 15.7104 15.5605C15.7688 15.6005 15.821 15.6557 15.8701 15.7171C15.9161 15.7785 15.9775 15.8706 15.9868 15.9075C16.0297 16.0118 16.0635 16.1285 16.1034 16.2145C16.1802 16.3802 16.5578 16.6903 16.6438 16.8622C16.7144 17.0035 16.788 17.1293 16.8494 17.2061C16.9692 17.3473 17.092 17.464 17.2148 17.5653C17.2977 17.6328 17.399 17.8293 17.4911 17.8784C17.7306 18.0074 17.752 18.1578 17.8349 18.2223C18.0038 18.3543 18.0498 18.2253 18.1972 18.4341C18.2924 18.5661 18.3814 18.7196 18.4582 18.9038C18.5257 19.0604 18.7314 19.1586 18.848 19.3336C18.9371 19.4687 19.0107 19.8064 19.1888 20.0213L20.1313 19.2385C20.0638 19.1433 19.9655 19.1617 19.8458 19.0174C19.7598 18.913 19.7107 18.7595 19.6094 18.6644C19.4682 18.5354 19.3208 18.4341 19.2349 18.2591L19.2472 18.2561Z" fill="#FFB48E"/>
  <path d="M24.5429 24.6293C24.4631 24.4635 24.3618 24.3131 24.2451 24.1688C23.8798 23.7144 23.5912 23.828 23.3057 23.4842C23.189 23.3675 23.0355 22.8825 22.8882 22.7044C22.8237 22.6246 22.6733 22.5233 22.5198 22.3421C22.4031 22.204 22.2834 21.8018 22.1544 21.6483C22.0101 21.4733 21.8628 21.418 21.6202 21.2369C21.39 21.065 21.4483 21.0036 21.2488 20.7273C21.1536 20.5953 20.954 20.5339 20.8773 20.3497C20.822 20.2207 20.8067 20.0242 20.6961 19.8922C20.5948 19.7694 20.469 19.7234 20.3891 19.6129C20.294 19.4808 20.3339 19.4563 20.1466 19.2322L19.2041 20.015C19.2962 20.1409 19.4067 20.2484 19.5265 20.3527L19.7874 20.5861C19.9133 20.7058 20.0269 20.8347 20.1036 20.9913C20.1835 21.1571 20.2848 21.3075 20.4014 21.4518C20.644 21.7527 20.997 21.9031 21.1229 22.0536C21.2733 22.115 21.3317 22.4097 21.4115 22.5816C21.4882 22.7474 21.8658 23.0575 21.9518 23.2294C22.0224 23.3706 22.0961 23.4965 22.1575 23.5732C22.2772 23.7144 22.4 23.8311 22.5228 23.9324C22.6057 24 22.707 24.1964 22.7991 24.2456C23.0386 24.3745 23.0601 24.525 23.143 24.5894C23.3118 24.7214 23.3579 24.5925 23.5052 24.8012C23.6004 24.9333 23.6894 25.0868 23.7662 25.271C23.8337 25.4275 24.0394 25.5258 24.1561 25.7008C24.2451 25.8359 24.3188 26.1736 24.4969 26.3885L25.4394 25.6056C25.3719 25.5104 25.2736 25.5288 25.1539 25.3846C25.0679 25.2802 25.0188 25.1267 24.9175 25.0315C24.7762 24.9026 24.6289 24.8013 24.5429 24.6263V24.6293Z" fill="#FFB48E"/>
  <path d="M29.8359 31.0029C29.7561 30.8371 29.6548 30.6866 29.5381 30.5423C29.1728 30.088 28.8842 30.2016 28.5987 29.8577C28.482 29.7411 28.3285 29.256 28.1811 29.0779C28.1167 28.9981 27.9662 28.8968 27.8127 28.7157C27.6961 28.5775 27.5763 28.1753 27.4474 28.0218C27.3031 27.8468 27.1557 27.7916 26.9132 27.6104C26.6829 27.4385 26.7413 27.3771 26.5417 27.1008C26.4466 26.9688 26.247 26.9074 26.1703 26.7232C26.115 26.5943 26.0996 26.3978 25.9891 26.2658C25.8878 26.143 25.7619 26.0969 25.6821 25.9864C25.5869 25.8544 25.6269 25.8298 25.4396 25.6057L24.4971 26.3886C24.5892 26.5144 24.6997 26.6219 24.8194 26.7263L25.0804 26.9596C25.2063 27.0793 25.3199 27.2083 25.3966 27.3648C25.4764 27.5306 25.5777 27.6811 25.6944 27.8254C25.9369 28.1262 26.29 28.2767 26.4159 28.4271C26.5663 28.4885 26.6246 28.7832 26.7045 28.9551C26.7812 29.1209 27.1588 29.431 27.2448 29.6029C27.3154 29.7441 27.3891 29.87 27.4505 29.9468C27.5702 30.088 27.693 30.2047 27.8158 30.306C27.8987 30.3735 28 30.57 28.0921 30.6191C28.3316 30.748 28.3531 30.8985 28.436 30.9629C28.6048 31.095 28.6509 30.966 28.7982 31.1748C28.8934 31.3068 28.9824 31.4603 29.0592 31.6445C29.1267 31.8011 29.3324 31.8993 29.4491 32.0743C29.5381 32.2094 29.6118 32.5471 29.7898 32.762L30.7324 31.9791C30.6648 31.884 30.5666 31.9024 30.4468 31.7581C30.3609 31.6537 30.3117 31.5002 30.2104 31.405C30.0692 31.2761 29.9219 31.1748 29.8359 30.9998V31.0029Z" fill="#FFB48E"/>
  <path d="M31.4476 31.0488C31.5335 31.2084 31.6441 31.3558 31.77 31.494C32.1599 31.9299 32.4392 31.804 32.7431 32.1325C32.7708 32.1571 32.8138 32.2154 32.8383 32.2676C32.8537 32.3106 32.8629 32.3628 32.8629 32.415C32.8629 32.5194 32.826 32.6084 32.823 32.6698C32.8199 32.7189 32.869 32.8325 32.7984 32.9737C32.7739 33.029 32.6879 33.0873 32.5989 33.1242C32.5098 33.1641 32.4177 33.1825 32.3717 33.2101C32.2642 33.2684 32.2304 33.3759 32.0585 33.4619C31.8927 33.5263 31.8743 33.4342 31.7607 33.3483C31.7331 33.3268 31.6932 33.3206 31.6471 33.3022C31.5765 33.25 31.5059 33.1856 31.4691 33.0965C31.4138 32.9676 31.3985 32.7711 31.2879 32.6391C31.1866 32.5163 31.0608 32.4702 30.9809 32.3597C30.8858 32.2277 30.9257 32.2031 30.7384 31.979L29.7959 32.7619C29.888 32.8878 29.9985 32.9952 30.1183 33.0996L30.3792 33.3329C30.5051 33.4527 30.6187 33.5816 30.6954 33.7382C30.7354 33.8211 30.7814 33.9009 30.8305 33.9776C30.9195 34.0974 31.0331 34.211 31.1651 34.2939C31.4384 34.475 31.7515 34.4934 31.9818 34.4566C32.2182 34.4197 32.387 34.3337 32.5098 34.3C32.6664 34.1802 33.0379 34.1496 33.2651 34.0022C33.3725 33.9377 33.5291 33.7596 33.6365 33.5509C33.7471 33.3421 33.8084 33.1088 33.8514 32.9768C33.9312 32.7588 33.9436 32.5286 33.9159 32.3658C33.8607 32.0681 33.6979 31.8133 33.5045 31.6475C33.4185 31.583 33.308 31.3926 33.2129 31.3466C32.9673 31.2299 32.9366 31.0826 32.8537 31.0212C32.6787 30.8984 32.6388 31.0273 32.4791 30.8278C32.3778 30.6988 32.2796 30.5514 32.1967 30.3703C32.1199 30.2168 31.9112 30.1309 31.7884 29.962C31.6932 29.8331 31.6011 29.4953 31.4138 29.2927L30.5112 30.1216C30.5849 30.2137 30.6832 30.1892 30.809 30.3273C30.9011 30.4286 30.9594 30.5791 31.0638 30.6681C31.2112 30.7909 31.3647 30.8861 31.4568 31.055L31.4476 31.0488Z" fill="#FFB48E"/>
  <path d="M25.8419 24.9455C25.9279 25.1051 26.0384 25.2525 26.1643 25.3906C26.5542 25.8266 26.8335 25.7007 27.1375 26.0292C27.2603 26.1397 27.4384 26.6186 27.5919 26.7875C27.6625 26.8642 27.816 26.9563 27.9756 27.1313C28.0984 27.2633 28.2396 27.6594 28.3747 27.8037C28.5282 27.9725 28.6786 28.0186 28.9304 28.1874C29.1699 28.3501 29.1146 28.4116 29.3264 28.6756C29.4277 28.8045 29.6303 28.8567 29.7163 29.0348C29.7777 29.1606 29.8023 29.3571 29.9189 29.483C30.0264 29.5996 30.1553 29.6426 30.2413 29.747C30.3426 29.876 30.3058 29.9005 30.5023 30.1154L31.4048 29.2865C31.3066 29.1637 31.1899 29.0624 31.0671 28.9642L30.7939 28.7431C30.6619 28.6295 30.5452 28.5067 30.4593 28.3532C30.3733 28.1936 30.2628 28.0462 30.1369 27.9081C29.879 27.6195 29.5198 27.4875 29.3878 27.3432C29.2343 27.2879 29.1606 26.9963 29.0716 26.8274C28.9856 26.6647 28.5958 26.3761 28.5006 26.2072C28.4208 26.0691 28.344 25.9494 28.2765 25.8757C28.1506 25.7406 28.0217 25.6301 27.8927 25.5349C27.8068 25.4704 27.6962 25.2801 27.601 25.234C27.3554 25.1174 27.3248 24.97 27.2419 24.9086C27.0669 24.7858 27.0269 24.9148 26.8673 24.7152C26.766 24.5863 26.6678 24.4389 26.5849 24.2578C26.5081 24.1043 26.2993 24.0183 26.1765 23.8494C26.0814 23.7205 25.9893 23.3828 25.802 23.1802L24.8994 24.0091C24.9731 24.1012 25.0713 24.0766 25.1972 24.2148C25.2893 24.3161 25.3476 24.4665 25.452 24.5556C25.5994 24.6784 25.7529 24.7735 25.845 24.9424L25.8419 24.9455Z" fill="#FFB48E"/>
  <path d="M20.2384 18.8422C20.3243 19.0018 20.4349 19.1492 20.5608 19.2873C20.9507 19.7233 21.23 19.5974 21.5339 19.9259C21.6567 20.0364 21.8348 20.5154 21.9883 20.6842C22.059 20.761 22.2125 20.8531 22.3721 21.0281C22.4949 21.1601 22.6361 21.5561 22.7712 21.7004C22.9247 21.8693 23.0751 21.9153 23.3269 22.0842C23.5663 22.2469 23.5111 22.3083 23.7229 22.5723C23.8242 22.7012 24.0268 22.7534 24.1128 22.9315C24.1742 23.0574 24.1988 23.2539 24.3154 23.3797C24.4229 23.4964 24.5518 23.5394 24.6378 23.6438C24.7391 23.7727 24.7023 23.7973 24.8987 24.0122L25.8013 23.1832C25.7031 23.0604 25.5864 22.9591 25.4636 22.8609L25.1904 22.6398C25.0584 22.5262 24.9417 22.4034 24.8558 22.2499C24.7698 22.0903 24.6593 21.9429 24.5334 21.8048C24.2755 21.5162 23.9163 21.3842 23.7843 21.2399C23.6308 21.1846 23.5571 20.893 23.4681 20.7241C23.3821 20.5614 22.9922 20.2728 22.8971 20.104C22.8172 19.9658 22.7405 19.8461 22.673 19.7724C22.5471 19.6373 22.4181 19.5268 22.2892 19.4316C22.2032 19.3672 22.0927 19.1768 21.9975 19.1308C21.7519 19.0141 21.7212 18.8667 21.6383 18.8053C21.4634 18.6825 21.4234 18.8115 21.2638 18.6119C21.1625 18.483 21.0642 18.3356 20.9814 18.1545C20.9046 18.001 20.6958 17.915 20.573 17.7462C20.4778 17.6172 20.3857 17.2795 20.1985 17.0769L19.2959 17.9058C19.3696 17.9979 19.4678 17.9734 19.5937 18.1115C19.6858 18.2128 19.7441 18.3633 19.8485 18.4523C19.9958 18.5751 20.1494 18.6703 20.2415 18.8391L20.2384 18.8422Z" fill="#FFB48E"/>
  <path d="M16.5853 14.8758C16.7327 15.0846 16.7695 15.1613 16.7788 15.1705C16.7818 15.1797 16.6467 14.928 16.5608 14.7284C16.4687 14.5227 16.4226 14.36 16.4963 14.4429C16.5147 14.4521 16.6099 14.621 16.6713 14.7561C16.7358 14.8973 16.7665 14.9986 16.7788 15.014C16.788 15.0232 16.8217 14.9832 16.8678 15.0354C16.877 15.0446 16.8801 15.0661 16.8801 15.0876C16.8709 15.0876 16.8985 15.1337 16.9139 15.1613C16.9292 15.1951 16.9476 15.2258 16.9629 15.2596C17.0305 15.3916 17.098 15.5266 17.1656 15.6003C17.3191 15.7692 17.4695 15.8152 17.7213 15.9841C17.9607 16.1468 17.9055 16.2082 18.1173 16.4722C18.2186 16.6012 18.4212 16.6534 18.5072 16.8314C18.5686 16.9573 18.5932 17.1538 18.7098 17.2796C18.8173 17.3963 18.9462 17.4393 19.0322 17.5437C19.1335 17.6726 19.0967 17.6972 19.2931 17.9121L20.1957 17.0832C20.0975 16.9604 19.9808 16.8591 19.858 16.7608L19.5848 16.5398C19.4528 16.4262 19.3361 16.3034 19.2502 16.1499C19.1642 15.9902 19.0537 15.8429 18.9278 15.7047C18.6699 15.4161 18.3107 15.2841 18.1787 15.1398C18.0252 15.0846 17.9515 14.7929 17.8625 14.6241C17.841 14.5841 17.8011 14.535 17.752 14.4828C17.6814 14.4122 17.6015 14.3324 17.5217 14.2526C17.3007 14.0285 17.0888 13.8166 16.9722 13.657C16.7788 13.396 16.5823 13.1412 16.4441 12.9939C16.1924 12.7206 15.9775 12.518 15.7994 12.3676C15.7411 12.3215 15.6244 12.1772 15.5446 12.1158C15.4586 12.0452 15.3911 12.0053 15.3758 12.036C15.299 12.1895 15.1516 11.9838 15.1179 12.0145C15.0565 12.0667 15.213 12.2939 15.0657 12.1834C15.0196 12.1465 14.9736 12.1097 14.9245 12.0698C14.8784 12.0268 14.8078 11.9869 14.7065 11.9654C14.6205 11.95 14.5345 11.9838 14.4455 12.0391C14.4025 12.0667 14.3565 12.1005 14.3135 12.1342L14.246 12.1895L14.2122 12.2171H14.2091V12.2233C13.9543 11.9316 14.5561 12.6224 14.4946 12.5518H14.4916L14.4332 12.4965L14.3135 12.3921C14.2828 12.3645 14.2521 12.3369 14.2183 12.3092L14.1692 12.2663C14.1692 12.2663 14.1631 12.2663 14.16 12.2693L14.1262 12.2908C14.1047 12.3062 14.0802 12.3246 14.0525 12.343C14.0004 12.3798 13.9482 12.4228 13.899 12.4689C13.8008 12.561 13.7271 12.6715 13.7148 12.7053L16.7818 15.1705C16.8156 15.2012 16.4564 14.9065 16.4564 14.8758C16.4626 14.8512 16.7082 15.0876 16.6437 15.0109C16.5516 14.8942 16.4318 14.6609 16.5946 14.8758H16.5853Z" fill="#FFB48E"/>
  <path d="M15.6461 6.62971L15.0996 7.27442C14.9185 7.48932 14.5685 7.36652 14.5593 7.08715L14.5255 6.24288C14.5225 6.15692 14.4825 6.07709 14.4181 6.02183L13.7734 5.47537C13.5585 5.29424 13.6813 4.94425 13.9606 4.93504L14.8049 4.90127C14.8909 4.8982 14.9707 4.85828 15.0259 4.79381L15.5724 4.14911C15.7536 3.9342 16.1035 4.057 16.1128 4.33637L16.1465 5.18064C16.1496 5.2666 16.1895 5.34643 16.254 5.40169L16.8987 5.94815C17.1136 6.12928 16.9908 6.47927 16.7114 6.48848L15.8671 6.52225C15.7812 6.52532 15.7014 6.56524 15.6461 6.62971Z" fill="#9ED2F0"/>
  <path d="M17.5492 6.11387C17.5523 6.05861 17.5492 6.01564 17.543 5.96958L17.4632 5.81301C17.408 5.70556 17.3496 5.59503 17.2852 5.48451C17.1808 5.39548 17.0733 5.30032 16.9628 5.20514C16.6619 4.94726 16.7694 5.04857 16.7325 5.03322C16.7172 5.03629 16.6988 5.03936 16.6773 5.03322L16.6619 5.02708C16.6619 5.02708 16.6405 4.97489 16.6312 4.9534C16.6098 4.89814 16.5883 4.84594 16.5699 4.79375C16.533 4.69858 16.4962 4.60648 16.4593 4.51131C16.4256 4.42228 16.3979 4.33324 16.3703 4.23192C16.3427 4.13368 16.3396 4.00782 16.272 3.93721C16.2352 3.89116 16.1707 3.81134 16.0664 3.74687C15.9651 3.6824 15.8207 3.63941 15.6979 3.64555C15.5874 3.61792 15.4616 3.76222 15.3357 3.84511C15.2098 3.94028 15.0901 4.03237 14.998 4.11833C14.9581 4.15517 14.912 4.20123 14.8598 4.25342C14.8353 4.28105 14.8076 4.30868 14.78 4.33631L14.7401 4.3793V4.3885C14.7339 4.41613 14.7125 4.45912 14.6695 4.45298C14.6695 4.45298 14.6695 4.45298 14.6664 4.45298C14.648 4.45298 14.6787 4.44377 14.5989 4.45298C14.5405 4.45605 14.4761 4.46218 14.4116 4.46525C14.2704 4.47446 14.1138 4.48061 13.9572 4.48982C13.7945 4.49903 13.6226 4.51438 13.4599 4.52973C13.4415 4.52973 13.4169 4.5328 13.4015 4.53588L13.3709 4.55429C13.3524 4.56657 13.331 4.58498 13.3125 4.59726C13.2757 4.63103 13.2419 4.66788 13.2143 4.70472C13.0915 4.88279 13.0608 5.08849 13.0976 5.26655C13.1068 5.30953 13.1191 5.3525 13.1375 5.39241C13.1498 5.42925 13.1836 5.46917 13.2235 5.51522C13.2972 5.59811 13.3801 5.69021 13.4783 5.79459C13.5182 5.83757 13.5489 5.87442 13.5612 5.88056C13.6748 5.96652 13.7608 6.03712 13.8314 6.10159C13.8682 6.13536 13.902 6.16606 13.9357 6.19676L13.9849 6.2459C13.9849 6.2459 14.0248 6.28581 14.0186 6.28274C14.0248 6.31037 14.034 6.338 14.0217 6.37791V6.38403C14.0217 6.38403 14.0217 6.38404 14.0278 6.4086L14.0585 6.53141C14.08 6.61123 14.1046 6.69412 14.1261 6.77701C14.1691 6.93972 14.2028 7.09935 14.212 7.30198C14.212 7.3818 14.2182 7.46469 14.2213 7.55372C14.2397 7.60898 14.2673 7.67346 14.3103 7.73179C14.3963 7.85152 14.5436 7.95591 14.7094 7.98354C14.866 8.0081 14.9888 7.98047 15.0809 7.92828C15.1883 7.84539 15.2835 7.76557 15.3909 7.70417C15.4646 7.66119 15.5168 7.63663 15.5506 7.62435C15.6304 7.54146 15.698 7.47391 15.7962 7.37567C15.8453 7.32348 15.9006 7.25901 15.9712 7.18533C15.9865 7.16691 16.005 7.14849 16.0234 7.127L15.2682 6.13843C15.2129 6.18448 15.1638 6.24282 15.1147 6.30116L15.087 6.33492L15.0931 6.32877L15.1024 6.31957C15.1024 6.31957 15.13 6.29808 15.1423 6.29501C15.1423 6.30115 15.1423 6.31036 15.1423 6.31957C15.1392 6.3472 15.1331 6.39325 15.1054 6.42702C15.087 6.44851 15.0624 6.45466 15.0502 6.43624C15.0379 6.41782 15.0502 6.38403 15.0686 6.36254C15.087 6.33798 15.1024 6.33185 15.1116 6.33492C15.1177 6.33492 15.1208 6.33798 15.1238 6.34412V6.35027C15.1238 6.35027 15.1269 6.32571 15.1269 6.29808V6.21518C15.1238 6.17527 15.1208 6.1323 15.1116 6.09239C15.0717 5.83758 14.9089 5.63188 14.7094 5.506C14.7002 5.49986 14.6787 5.48451 14.6787 5.48451V5.49066V5.49986C14.6787 5.506 14.6787 5.51214 14.6756 5.51828C14.6726 5.52749 14.6634 5.5367 14.6542 5.54284C14.5866 5.5367 14.4822 5.50907 14.4607 5.48144C14.3748 5.45381 14.3993 5.39855 14.4822 5.39241C14.559 5.3832 14.6664 5.4354 14.6848 5.45689C14.7002 5.46917 14.6941 5.47223 14.691 5.46916C14.691 5.46916 14.6848 5.46301 14.6848 5.45994V5.45382H14.7278L14.8138 5.4446C15.1668 5.42618 15.3848 5.2082 15.5045 5.07619C15.5536 5.02707 15.5322 5.05471 15.5414 5.05164L15.5475 5.06391C15.5475 5.06391 15.5506 5.07927 15.5537 5.08848C15.5537 5.10383 15.5506 5.11918 15.5444 5.12532C15.5199 5.15909 15.5291 5.0977 15.5659 5.05471C15.5782 5.03936 15.5813 5.06084 15.5782 5.07619C15.5752 5.0854 15.5721 5.0762 15.5905 5.06391C15.6304 5.03014 15.6427 5.04243 15.6427 5.04857C15.6427 5.05164 15.6427 5.05777 15.6396 5.06084V5.1069C15.6396 5.13453 15.6396 5.16216 15.6396 5.18672C15.6396 5.26041 15.6519 5.30645 15.6642 5.34943C15.7501 5.57661 15.8545 5.61038 15.9313 5.65643C15.9742 5.67792 16.0173 5.69942 16.0787 5.73626C16.094 5.74547 16.1093 5.75467 16.1247 5.76695L16.137 5.7731C16.137 5.7731 16.1523 5.78231 16.1584 5.79152C16.1677 5.80073 16.1738 5.813 16.18 5.82528C16.2076 5.87133 16.226 5.91431 16.1738 5.94195C16.1431 5.96037 16.1646 5.98801 16.1707 6.02792C16.1799 6.06783 16.1493 6.09238 16.1124 6.0801C16.0909 6.07396 16.0479 6.05247 16.0203 6.02484C16.005 6.01256 15.9958 5.99721 15.9896 5.98186C15.9743 5.96651 16.0356 5.95116 15.8545 5.94502C15.6519 5.92967 15.4339 6.00028 15.2773 6.14151L16.0326 7.13005C16.0326 7.13005 16.0111 7.09016 16.0234 7.06559C16.0234 7.06253 16.0234 7.05638 16.0295 7.05638C16.0234 7.05638 16.0449 7.05332 16.0694 7.04718C16.0909 7.04411 16.1155 7.03795 16.1431 7.03488C16.4286 6.98576 16.794 6.97656 17.0856 6.90902L17.233 6.87525C17.2667 6.85683 17.2821 6.83226 17.3067 6.80463C17.3527 6.74937 17.3988 6.68491 17.4356 6.60816C17.5124 6.4608 17.5492 6.27659 17.5553 6.12309L17.5492 6.11387Z" fill="#9ED2F0"/>
  <path d="M5.55443 11.0321L4.47069 8.57296C4.3571 8.31815 4.61806 8.05412 4.87594 8.16771L7.33506 9.25145C7.41488 9.28522 7.50391 9.28522 7.58373 9.25145L10.0428 8.16771C10.2977 8.05412 10.5617 8.31508 10.4481 8.57296L9.36434 11.0321C9.33057 11.1119 9.33057 11.2009 9.36434 11.2808L10.4481 13.7399C10.5617 13.9947 10.3007 14.2587 10.0428 14.1451L7.58373 13.0614C7.50391 13.0276 7.41488 13.0276 7.33506 13.0614L4.87594 14.1451C4.62113 14.2587 4.3571 13.9978 4.47069 13.7399L5.55443 11.2808C5.5882 11.2009 5.5882 11.1119 5.55443 11.0321Z" fill="#9ED2F0"/>
  <path d="M8.0624 8.44094C7.8782 8.47471 7.70013 8.53304 7.52514 8.60672C7.50365 8.61593 7.45759 8.63743 7.46066 8.63436V8.6405C7.46066 8.6405 7.46066 8.65279 7.46066 8.662C7.45759 8.68042 7.44532 8.70497 7.42997 8.72646C7.42076 8.7326 7.42075 8.74488 7.39926 8.74795C7.37163 8.74795 7.34708 8.74795 7.31945 8.74795C7.26726 8.74795 7.21507 8.74795 7.16595 8.74795C7.06157 8.74181 6.95411 8.72339 6.8313 8.66812C6.66859 8.61286 6.30633 8.24139 6.09143 8.14929C6.04231 8.12779 5.97169 8.11246 5.8888 8.0879C5.86731 8.08176 5.84582 8.0756 5.82126 8.06946L5.78442 8.05719L5.71995 8.03262C5.63399 7.99885 5.54495 7.96509 5.44671 7.9221C5.30856 7.86684 5.05067 7.67651 4.82655 7.62432C4.60551 7.56292 4.4428 7.56904 4.29851 7.64887C4.15115 7.73483 4.05597 7.86071 4.00378 8.005C3.97922 8.07561 3.96387 8.15236 3.96387 8.22911C3.96387 8.30279 3.98229 8.38261 4.00071 8.48086C4.03755 8.64664 4.08668 8.76023 4.10817 8.84927C4.16343 9.00891 4.188 9.15012 4.32615 9.4909C4.38448 9.65361 4.55947 9.7672 4.5871 9.9729C4.60859 10.1141 4.56867 10.3106 4.63928 10.4733C4.70375 10.6237 4.81429 10.7066 4.86034 10.8356C4.88797 10.9154 4.89102 10.9553 4.9033 11.0136C4.90944 11.0597 4.95551 11.1917 4.94016 11.1549L6.15896 10.9093C6.14054 10.8325 6.10677 10.7619 6.07606 10.6882C6.04536 10.6238 6.03922 10.6084 6.01773 10.5654C5.98089 10.4948 5.93792 10.4273 5.89494 10.3597L5.7046 10.0558C5.61557 9.90229 5.54188 9.74571 5.50811 9.56765C5.49276 9.47555 5.46819 9.38653 5.44056 9.29443L5.39452 9.15934L5.34846 9.04575C5.34846 9.04575 5.33005 9.04882 5.29628 9.03654C5.23488 9.01504 5.09058 8.90452 5.09672 8.86154C5.04146 8.80014 5.09058 8.77866 5.15505 8.81243C5.22259 8.84313 5.28706 8.92602 5.31162 8.96286C5.33619 8.9997 5.33311 8.98434 5.34846 8.9782C5.36688 8.97513 5.35461 8.95364 5.48662 9.03654C5.61863 9.13171 5.74144 9.2146 5.83354 9.25452C6.00853 9.33127 6.17124 9.38038 6.33088 9.41722C6.43834 9.44178 6.62253 9.5738 6.72691 9.57994C6.81595 9.58301 6.88349 9.59836 6.93875 9.61678C6.96638 9.62599 6.99094 9.63519 7.0155 9.64747C7.05541 9.66589 7.09226 9.68433 7.12296 9.69968C7.2212 9.74573 7.29181 9.77028 7.36242 9.77028C7.55583 9.76414 7.61109 9.69659 7.66942 9.64747C7.69705 9.62291 7.72776 9.59529 7.77381 9.56459C7.7953 9.54924 7.82601 9.53389 7.85671 9.51854C7.8782 9.50626 7.90276 9.49705 7.93346 9.48477C8.09003 9.42644 8.2681 9.38345 8.47072 9.35889C8.64264 9.33433 8.79921 9.16241 9.00491 9.09794C9.08473 9.07338 9.2106 9.06416 9.35182 9.04881C9.41937 9.04267 9.50224 9.02733 9.56057 9.01812C9.56978 9.0304 9.56979 9.04268 9.56979 9.04268L9.48689 7.74098C9.37637 7.78396 9.30268 7.83921 9.21672 7.90061C9.17988 7.92517 9.13693 7.95588 9.0878 7.98966C9.06017 8.01115 9.02638 8.03262 8.9834 8.05104C8.85445 8.1063 8.68868 8.11244 8.57202 8.18612C8.40317 8.28744 8.26195 8.4041 8.06547 8.44094H8.0624Z" fill="#9ED2F0"/>
  <path d="M10.9142 14.268C10.991 14.1636 11.037 14.0776 11.0555 13.9702C11.0831 13.8689 11.0862 13.7215 11.0248 13.5527C11.0156 13.5281 11.0064 13.5035 11.0033 13.4913C10.8866 13.2303 10.7761 13.0246 10.6748 12.865C10.6164 12.7667 10.598 12.7637 10.5643 12.7237C10.5305 12.693 10.4998 12.6623 10.4691 12.6347C10.3432 12.5211 10.2235 12.4229 10.1314 12.2202C10.0485 12.0698 10.0301 11.551 9.93799 11.3361C9.92878 11.3115 9.91342 11.2839 9.89193 11.2532C9.88272 11.2378 9.87352 11.2225 9.86124 11.2071L9.84587 11.1979C9.82438 11.1856 9.79983 11.158 9.81211 11.1273C9.81211 11.1212 9.81822 11.1181 9.82436 11.1089C9.8305 11.1028 9.8336 11.1089 9.84895 11.0905C9.86737 11.069 9.88577 11.0444 9.90419 11.0199C9.9441 10.9707 9.98709 10.9186 10.0301 10.8664C10.116 10.762 10.1989 10.6545 10.2358 10.5716C10.3309 10.3567 10.3156 10.1971 10.3708 9.89622C10.3985 9.75193 10.4322 9.68439 10.4783 9.61685C10.5028 9.58308 10.5274 9.54624 10.5612 9.50326C10.6011 9.44186 10.6625 9.31906 10.7301 9.18091C10.7945 9.04276 10.8406 8.89232 10.8651 8.75724C10.8835 8.62523 10.8866 8.50242 10.9112 8.38268C10.9327 8.29672 10.9572 8.19848 10.9358 8.07568C10.9173 7.95595 10.859 7.827 10.7546 7.74411C10.6594 7.66429 10.552 7.62745 10.463 7.61517C10.3739 7.59982 10.3002 7.60903 10.2173 7.59675C10.07 7.59368 10.0362 7.54456 9.7906 7.61824C9.76297 7.62438 9.6463 7.67043 9.48052 7.74411L9.56342 9.04583C9.56342 9.03969 9.56958 9.02433 9.58493 8.99977C9.60028 8.97214 9.62791 8.94144 9.66475 8.92609C9.71387 8.9046 9.73229 8.95372 9.6586 8.99977C9.58799 9.04889 9.56956 9.04581 9.56649 9.04888C9.56649 9.04888 9.56649 9.04888 9.57263 9.04888C9.57877 9.04274 9.57263 9.06731 9.56342 9.09187L9.54501 9.15942C9.52352 9.24845 9.50816 9.33747 9.49281 9.42036C9.46825 9.58615 9.4529 9.73044 9.41299 9.82254C9.42527 9.98832 9.18273 10.1787 9.063 10.3322C9.03229 10.3721 9.00162 10.4335 8.97092 10.5072C8.93408 10.5993 8.89724 10.7036 8.85733 10.8019C8.73452 11.0935 8.81433 11.3883 8.87573 11.5448C8.88494 11.5755 8.90335 11.6277 8.90335 11.6431L8.91564 11.7014C8.92485 11.7383 8.93405 11.7751 8.94326 11.8089C8.96168 11.8764 8.98012 11.9347 9.00161 11.9839C9.07836 12.1588 9.16738 12.3062 9.25948 12.4413C9.32088 12.5334 9.36693 12.7544 9.44368 12.8281C9.54192 12.9264 9.58799 13.0123 9.61562 13.086C9.6279 13.1228 9.64018 13.1566 9.64939 13.1873C9.65553 13.2027 9.65861 13.215 9.66475 13.2272C9.66475 13.2272 9.66779 13.2303 9.67086 13.2334C9.72305 13.2549 9.82744 13.2426 9.86735 13.3193C9.86735 13.3193 9.87349 13.3316 9.87349 13.3378C9.8827 13.3992 9.89191 13.4514 9.7906 13.4391C9.75069 13.4329 9.75682 13.4636 9.75068 13.4943C9.74761 13.5281 9.72614 13.5496 9.6893 13.5189C9.66167 13.4974 9.60641 13.4237 9.58185 13.3684C9.56957 13.3408 9.56342 13.3163 9.56342 13.2978C9.56342 13.2886 9.56342 13.2825 9.56342 13.2794C9.55728 13.2702 9.58492 13.2794 9.53887 13.261L9.04459 14.3816C9.05994 14.3908 9.12135 14.4123 9.1674 14.4245C9.21345 14.4368 9.25949 14.446 9.30554 14.4553C9.40071 14.4737 9.50511 14.4952 9.66782 14.5688C9.78756 14.6241 9.91648 14.6886 10.0331 14.7193C10.0915 14.7346 10.1406 14.7408 10.1959 14.7469C10.2419 14.7469 10.2818 14.7408 10.3217 14.7316C10.5121 14.6794 10.7546 14.4921 10.9112 14.2741L10.9142 14.268Z" fill="#9ED2F0"/>
  <path d="M4.60863 12.0698C4.49503 12.2172 4.40293 12.3829 4.32311 12.5549C4.29241 12.6224 4.26786 12.6869 4.24943 12.7452C4.23408 12.7913 4.21873 12.8342 4.20645 12.8772C4.1911 12.9263 4.17574 12.9755 4.16346 13.0215C4.11127 13.2057 4.08979 13.3439 4.07444 13.4667C4.0683 13.5864 4.08672 13.6785 4.10821 13.7675C4.13277 13.8566 4.12662 13.9302 4.15732 14.0592C4.17881 14.1482 4.25863 14.3785 4.44283 14.5074C4.53493 14.5688 4.61168 14.6057 4.6915 14.6241C4.73142 14.6364 4.77441 14.6456 4.82353 14.6456C4.86651 14.6517 4.91562 14.6456 4.96167 14.6333C4.99544 14.6302 5.03536 14.6118 5.14281 14.5688C5.26254 14.5013 5.52043 14.3539 5.79366 14.2311C5.96251 14.1574 6.38925 14.1451 6.57652 14.0623C6.79142 13.9671 6.8866 13.8412 7.13527 13.6539C7.24886 13.568 7.33177 13.5342 7.39624 13.525C7.4208 13.5311 7.44534 13.5434 7.47604 13.5649C7.48218 13.568 7.48525 13.568 7.49446 13.5649C7.48525 13.5496 7.59271 13.5741 7.65719 13.5864C7.73087 13.6048 7.80147 13.6294 7.86287 13.6846C7.9734 13.7767 8.07779 13.9456 8.23743 14.0162C8.38786 14.0807 8.52293 14.0684 8.64573 14.1329C8.7931 14.2096 8.76855 14.2495 9.04178 14.3693L9.53606 13.2487C9.39483 13.175 9.24134 13.1259 9.08784 13.086L8.74092 12.9908C8.57207 12.9386 8.40934 12.8711 8.26505 12.7636C8.20672 12.7176 8.14533 12.6777 8.08085 12.6377L7.98261 12.5825L7.92428 12.5518L7.82296 12.5027C7.75542 12.472 7.68175 12.4474 7.605 12.4351C7.41466 12.4014 7.22431 12.4443 7.06774 12.5334C7.03397 12.5518 6.9787 12.5825 6.96335 12.5917L6.90809 12.6316C6.87432 12.6592 6.83748 12.6869 6.80677 12.7114C6.67476 12.8158 6.56732 12.911 6.47522 12.9509C6.37084 13.0798 6.0669 13.0584 5.87349 13.0891C5.78138 13.1044 5.63094 13.1812 5.48051 13.261C5.44367 13.2794 5.40683 13.3009 5.36999 13.3193C5.36999 13.3224 5.36386 13.3285 5.36079 13.3285C5.35465 13.3346 5.34544 13.3347 5.34237 13.3255C5.34237 13.3193 5.3393 13.3132 5.3393 13.304C5.33623 13.2794 5.34543 13.2579 5.34543 13.2579C5.34543 13.2579 5.32394 13.2947 5.27175 13.3224C5.23491 13.3316 5.3086 13.2763 5.25948 13.2947C5.19807 13.3101 5.20114 13.2825 5.21342 13.2702C5.2257 13.2548 5.24412 13.2487 5.23491 13.2395C5.22263 13.2119 5.17966 13.2119 5.17045 13.1474C5.15817 13.0952 5.15509 13.043 5.21342 12.9263C5.29017 12.779 5.39148 12.6255 5.5235 12.472C5.63402 12.3369 5.63402 12.1066 5.7384 11.9194C5.76296 11.8733 5.80902 11.8211 5.86121 11.7628C5.88884 11.7321 5.91646 11.7014 5.94409 11.6676L5.98708 11.6154C6.00857 11.5786 6.03312 11.5448 6.05461 11.508C6.16513 11.3391 6.20811 11.1089 6.14978 10.9062L4.93098 11.1519C4.93098 11.1519 5.00159 11.1519 5.00466 11.1764C5.00466 11.1764 5.00466 11.1795 5.00466 11.1825C4.99238 11.2071 4.97702 11.2286 4.96167 11.2532L4.90028 11.3453C4.86037 11.4067 4.82046 11.4711 4.79897 11.5356C4.74371 11.7229 4.71607 11.904 4.59633 12.0636L4.60863 12.0698Z" fill="#9ED2F0"/>
  <path d="M18.6235 24.8505C18.3349 25.2527 18.5744 25.0961 18.2306 25.4522L17.3311 24.6141C17.6841 24.3132 17.5797 24.479 17.9727 24.2334C18.1722 24.1168 18.3349 23.8036 18.6573 24.215C18.8538 24.4729 18.6205 24.8505 18.6205 24.8505H18.6235Z" fill="#DBF3FC"/>
  <path d="M16.057 30.926C16.0509 30.8861 16.057 30.8216 16.0417 30.7786C16.0417 30.7172 16.0233 30.665 16.0171 30.6006C16.011 30.5484 16.0018 30.5023 15.9864 30.4594C15.9772 30.4133 15.9649 30.3734 15.9496 30.3335C15.9158 30.2567 15.8851 30.1892 15.8544 30.1216C15.7838 29.9866 15.7286 29.8546 15.7562 29.6489C15.7654 29.4892 16.0417 29.1085 16.1092 28.912C16.1338 28.8199 16.1369 28.6542 16.2075 28.4454C16.2658 28.2858 16.5513 28.0156 16.6281 27.8529C16.7202 27.6656 16.6987 27.5152 16.7724 27.2389C16.8368 26.9718 16.9228 27.0086 17.1009 26.7507C17.196 26.631 17.1868 26.4253 17.3403 26.3148C17.4478 26.235 17.6197 26.1766 17.721 26.0569C17.8131 25.9433 17.8223 25.8113 17.9144 25.7253C18.0219 25.6209 18.0495 25.6516 18.2306 25.4552L17.3342 24.6201C17.2114 24.7306 17.1224 24.8688 17.0333 25.0069C16.9658 25.1083 16.9075 25.2157 16.8461 25.3201C16.7478 25.4705 16.6526 25.6179 16.5145 25.7376C16.3702 25.8604 16.2535 26.0139 16.1461 26.1736C15.9312 26.5174 15.9158 26.9134 15.8268 27.0915C15.8268 27.2573 15.5812 27.4384 15.4615 27.5981C15.3387 27.7485 15.2496 28.2489 15.1514 28.4239C15.0654 28.5682 15.004 28.7064 14.9733 28.8107C14.9273 29.0042 14.8996 29.1822 14.9058 29.3572C14.9027 29.4708 14.8229 29.698 14.8505 29.8085C14.9273 30.094 14.8444 30.2322 14.872 30.3519C14.9273 30.5914 15.0347 30.4993 15.0593 30.7909C15.0716 30.8892 15.0869 30.9874 15.1023 31.0948C15.133 31.2054 15.1422 31.322 15.1944 31.4541C15.265 31.6874 15.5812 31.8624 15.8575 31.9852C15.9127 32.0067 15.9772 32.0466 16.057 32.0834C16.1307 32.111 16.2197 32.1417 16.3149 32.1694C16.496 32.2093 16.711 32.2308 16.8798 32.1817L16.5943 30.9905C16.5544 30.9966 16.5298 31.0212 16.4991 31.0519C16.4715 31.0734 16.4377 31.0979 16.3794 31.1041C16.2965 31.1041 16.2443 31.0335 16.2075 31.0365C16.1553 31.0335 16.0632 31.0457 16.057 30.9321V30.926Z" fill="#DBF3FC"/>
  <path d="M17.6439 31.712C17.4044 31.8778 17.3675 31.9423 17.3123 31.9883C17.2846 32.0129 17.257 32.0344 17.1956 32.0651C17.1342 32.0927 17.0513 32.1387 16.8764 32.1756L16.5908 30.9813C16.7413 30.9752 16.8057 30.9537 16.861 30.9721C16.9193 30.9844 16.9807 30.9936 17.1741 30.9506C17.3737 30.9077 17.5364 30.6344 17.8219 31.0796C17.9079 31.2147 17.8711 31.3712 17.8035 31.4971C17.739 31.623 17.6439 31.712 17.6439 31.712Z" fill="#DBF3FC"/>
  <path d="M28.8622 16.0056C29.0863 15.7938 29.1692 15.7354 29.2337 15.6802C29.2644 15.6525 29.3043 15.628 29.4025 15.6003C29.4946 15.5727 29.6451 15.5389 29.8815 15.5789L29.6512 16.7915C29.6543 16.767 29.642 16.7455 29.6236 16.7209C29.5898 16.7117 29.5653 16.6687 29.4241 16.7025C29.2736 16.7424 29.2214 17.0064 28.8315 16.6534C28.7118 16.5459 28.7057 16.3893 28.7394 16.2512C28.7763 16.1161 28.8622 16.0087 28.8622 16.0087V16.0056Z" fill="#DBF3FC"/>
  <path d="M28.8227 21.9523C28.9608 21.854 29.0868 21.7343 29.2003 21.6023C29.5442 21.1694 29.3569 20.9238 29.5841 20.58C29.6179 20.5094 29.7345 20.4111 29.8543 20.3006C29.9709 20.187 30.0968 20.0673 30.1459 19.9721C30.1889 19.8831 30.2227 19.7173 30.3117 19.5116C30.3823 19.3581 30.6709 19.0726 30.7323 18.8822C30.8029 18.6673 30.7661 18.5138 30.7568 18.2191C30.7415 17.9336 30.8305 17.9459 30.8827 17.602C30.9042 17.4301 30.7906 17.2551 30.8274 17.0494C30.8489 16.902 30.9349 16.6994 30.8551 16.4845C30.8213 16.3894 30.766 16.3095 30.7046 16.2328C30.6524 16.1622 30.5757 16.0854 30.5082 15.9995C30.4253 15.8981 30.3731 15.846 30.3056 15.7784C30.2319 15.7232 30.1306 15.628 29.8757 15.5789L29.6455 16.7885C29.6455 16.7885 29.6455 16.7762 29.6731 16.7731C29.6854 16.7731 29.6946 16.7731 29.7161 16.7946C29.7345 16.81 29.756 16.8253 29.7714 16.8529C29.8266 16.9235 29.8512 17.0433 29.8266 17.1599C29.7959 17.2827 29.7775 17.4117 29.7683 17.5468C29.7468 17.8231 29.8512 18.127 29.8113 18.2836C29.8543 18.4187 29.6547 18.5875 29.5534 18.7072C29.4643 18.8239 29.3938 19.2199 29.2802 19.3427C29.1942 19.441 29.1174 19.5331 29.0745 19.6037C29.0008 19.7388 28.9516 19.8677 28.9056 19.9936C28.878 20.0796 28.7398 20.2054 28.7245 20.2945C28.6876 20.5278 28.5587 20.5738 28.5218 20.6537C28.4482 20.8225 28.5771 20.8471 28.4298 21.0098C28.3315 21.1111 28.2087 21.2063 28.0613 21.2953C27.9324 21.369 27.8833 21.5624 27.7451 21.6791C27.6346 21.765 27.3368 21.8448 27.168 22.0045L28.0122 22.8917C28.0982 22.8242 28.0675 22.7259 28.1903 22.6062C28.2793 22.5172 28.4236 22.4619 28.4942 22.3575C28.5955 22.2102 28.6662 22.0597 28.8197 21.9584L28.8227 21.9523Z" fill="#DBF3FC"/>
  <path d="M26.7872 22.5541C27.0666 22.1888 26.8271 22.3115 27.171 22.0015L28.0183 22.8887C27.6867 23.1312 27.785 22.987 27.4227 23.1834C27.2385 23.2786 27.1127 23.5733 26.7811 23.165C26.5785 22.9133 26.7903 22.551 26.7903 22.551L26.7872 22.5541Z" fill="#DBF3FC"/>
  <path d="M21.4785 31.7641C21.9727 31.5032 21.6473 31.5615 22.1845 31.322L22.7157 32.4272C22.4517 32.5316 22.3595 32.5347 22.2736 32.5439C22.1876 32.55 22.0955 32.55 21.8039 32.5961C21.7271 32.6053 21.6504 32.6268 21.5705 32.6452C21.4876 32.6606 21.4017 32.6728 21.328 32.6667C21.1653 32.6483 21.0517 32.5562 21.0579 32.2921C21.064 32.1264 21.1776 32.0128 21.2758 31.9176C21.3771 31.8255 21.4785 31.758 21.4785 31.758V31.7641Z" fill="#DBF3FC"/>
  <path d="M28.4076 26.2197C28.2449 26.3517 28.0914 26.499 27.9471 26.6618C27.4896 27.1622 27.6186 27.4446 27.2502 27.8253C27.1212 27.9788 26.5901 28.2244 26.3906 28.4086C26.3015 28.4884 26.1879 28.6665 25.9761 28.8507C25.8165 28.9919 25.3682 29.1638 25.1871 29.3112C24.9814 29.48 24.9047 29.6397 24.6744 29.9068C24.4503 30.1585 24.392 30.1002 24.0573 30.312C23.8977 30.4164 23.7902 30.6221 23.5722 30.6989C23.4187 30.7511 23.2008 30.7572 23.035 30.8585C22.8815 30.9568 22.7955 31.0765 22.6574 31.1471C22.4885 31.2239 22.4732 31.1839 22.1846 31.3282L22.7157 32.4335C22.903 32.3567 23.0688 32.2462 23.2284 32.1326C23.3451 32.0435 23.4648 31.9607 23.5784 31.8686C23.7503 31.7427 23.9253 31.6229 24.1279 31.5401C24.3336 31.4541 24.5332 31.3436 24.7204 31.2116C25.1134 30.9383 25.3375 30.5392 25.5248 30.3949C25.6138 30.2261 25.9546 30.137 26.1603 30.0265C26.3599 29.9221 26.7406 29.4709 26.937 29.345C27.1028 29.2437 27.2471 29.1454 27.3361 29.0595C27.5019 28.9029 27.6339 28.7432 27.7506 28.5867C27.8304 28.4823 28.0484 28.3257 28.1036 28.2152C28.2449 27.9205 28.4076 27.8591 28.4782 27.7516C28.6163 27.5306 28.4721 27.5152 28.6931 27.2942C28.8313 27.1468 28.997 27.0117 29.1874 26.8644C29.3532 26.7385 29.4361 26.4806 29.608 26.2872C29.74 26.1398 30.0961 25.9188 30.2864 25.621L29.2549 24.9609C29.1751 25.0684 29.2181 25.1605 29.0983 25.3385C29.0062 25.4675 28.8589 25.5719 28.7791 25.707C28.6655 25.8973 28.5826 26.0846 28.4076 26.2258V26.2197Z" fill="#DBF3FC"/>
  <path d="M30.6335 24.6939C30.4002 25.3263 30.6427 25.0254 30.2866 25.6149L29.252 24.9518C29.5497 24.5527 29.4822 24.7583 29.8015 24.3654C29.9642 24.1627 29.955 23.7974 30.4493 23.9847C30.5997 24.043 30.6519 24.2149 30.6642 24.3807C30.6765 24.5465 30.6365 24.6908 30.6365 24.6908L30.6335 24.6939Z" fill="#DBF3FC"/>
</svg>