<svg xmlns="http://www.w3.org/2000/svg" width="72" height="72" viewBox="0 0 72 72" fill="none">
  <path d="M48.7519 29.0236C48.2342 29.6285 48.6588 29.454 48.0189 29.9368L46.6055 28.087C47.193 27.7496 47.0184 27.9881 47.6583 27.7264C47.9782 27.5984 48.2109 27.0982 48.7868 27.9125C49.1417 28.407 48.7461 29.0236 48.7461 29.0236H48.7519Z" fill="#DBF3FC"/>
  <path d="M40.236 36.6845C40.4745 36.5507 40.6898 36.382 40.8817 36.1901C41.4809 35.5793 41.2075 35.0965 41.6786 34.6253C41.8299 34.4275 42.6035 34.2181 42.8478 33.9854C42.9584 33.8807 43.0863 33.6364 43.3481 33.4037C43.5517 33.2234 44.18 33.0722 44.401 32.8802C44.6569 32.6592 44.7151 32.4149 44.9594 32.0309C45.1979 31.6645 45.3143 31.7808 45.7273 31.49C45.9309 31.3504 45.9948 31.0188 46.2857 30.9257C46.4893 30.8559 46.8092 30.8734 47.007 30.7163C47.1931 30.5709 47.2513 30.3615 47.42 30.251C47.6235 30.1172 47.6701 30.1928 48.0133 29.931L46.5998 28.087C46.402 28.215 46.2333 28.3895 46.0705 28.5699L45.7156 28.9712C45.5353 29.1632 45.3375 29.3319 45.0815 29.4366C44.8198 29.5413 44.5755 29.6867 44.3544 29.8671C43.8949 30.2393 43.7029 30.8268 43.4819 31.0188C43.4121 31.2747 42.9293 31.3271 42.6559 31.4434C42.3942 31.5598 41.9637 32.1764 41.6961 32.3101C41.4751 32.4207 41.2831 32.537 41.1726 32.6417C40.9632 32.8337 40.8061 33.0431 40.6665 33.2467C40.5792 33.3863 40.2768 33.555 40.2244 33.712C40.0848 34.125 39.8347 34.1541 39.7533 34.2937C39.5904 34.5846 39.8231 34.666 39.5264 34.9219C39.3403 35.0906 39.1075 35.2419 38.8283 35.3757C38.5898 35.5037 38.5142 35.8585 38.2641 36.0737C38.0721 36.2308 37.5312 36.3994 37.252 36.7426L39.0494 38.2144C39.1715 38.0922 39.0843 37.9351 39.2588 37.7257C39.381 37.5687 39.6194 37.4872 39.7242 37.3186C39.8754 37.0801 39.9743 36.8299 40.2244 36.6787L40.236 36.6845Z" fill="#DBF3FC"/>
  <path d="M36.7584 37.877C37.1074 37.1092 36.7293 37.4117 37.2703 36.7544L39.0735 38.2261C38.6024 38.6623 38.6954 38.3948 38.1835 38.8019C37.9159 39.0055 37.8753 39.5174 37.0551 38.9532C36.549 38.61 36.7642 37.877 36.7642 37.877H36.7584Z" fill="#DBF3FC"/>
  <path d="M27.2486 25.103L59.2708 63.6577C59.9688 64.4953 61.3242 64.4953 62.284 63.6577C63.238 62.82 63.4183 61.4763 62.6853 60.6736L28.7901 23.7535C28.4702 23.4045 27.8768 23.4161 27.458 23.7767C27.0392 24.1432 26.9461 24.7249 27.2544 25.0914L27.2486 25.103Z" fill="#FFB48E"/>
  <path d="M36.468 34.5905C36.3167 34.2764 36.1248 33.9913 35.9038 33.7179C35.2115 32.857 34.6647 33.0722 34.1237 32.4207C33.9027 32.1997 33.6119 31.2806 33.3326 30.9433C33.2105 30.792 32.9255 30.6001 32.6346 30.2569C32.4136 29.9951 32.1867 29.2331 31.9424 28.9422C31.9075 28.9015 31.8726 28.8608 31.8377 28.8259L31.7853 28.7793H31.7737C31.7737 28.7793 31.7388 28.8026 31.7039 28.8084C31.6399 28.8201 31.5468 28.8143 31.4188 28.7619C31.1454 28.6339 31.3607 28.6397 31.384 28.6048C31.384 28.5932 31.2676 28.5292 31.1571 28.4536C31.0466 28.3838 30.9477 28.2965 31.0582 28.3431C31.192 28.3896 31.7795 28.7561 31.7911 28.7735C31.797 28.7852 31.3781 28.471 31.4188 28.4943C31.477 28.5292 31.7911 28.7735 31.7911 28.7735L25.9625 24.0909C25.9218 24.1665 25.9335 24.2712 26.0091 24.4574C26.0557 24.5795 26.1313 24.7424 26.2127 24.9053C26.329 25.1554 26.4163 25.3881 26.3756 25.6033C26.3581 25.6557 26.3756 25.7313 26.4163 25.8185C26.457 25.9116 26.5384 26.0279 26.6257 26.1443C26.8002 26.3828 26.998 26.6445 27.219 26.9121C27.6786 27.4764 28.2602 28.0464 28.7256 28.4827C29.1968 28.9248 29.5691 29.2389 29.7669 29.4832C29.8774 29.5588 29.9763 29.6635 30.0693 29.7799C30.1566 29.8962 30.2729 30.0707 30.2904 30.1405C30.3718 30.3383 30.4358 30.5593 30.5114 30.7222C30.6569 31.0363 31.3723 31.6238 31.5352 31.9496C31.669 32.2172 31.8086 32.4556 31.9249 32.6011C32.1518 32.8686 32.3845 33.0897 32.6172 33.2817C32.7742 33.4096 32.9662 33.7819 33.1407 33.875C33.5944 34.1193 33.6351 34.4043 33.7922 34.5265C34.1121 34.7766 34.1993 34.5323 34.4786 34.9278C34.6589 35.178 34.8276 35.4688 34.9731 35.8179C35.101 36.1145 35.4907 36.3006 35.7117 36.6322C35.8804 36.8882 36.02 37.528 36.3574 37.9352L38.1433 36.4519C38.0153 36.2716 37.8291 36.3065 37.6023 36.0331C37.4394 35.8353 37.3464 35.5444 37.1544 35.3641C36.8868 35.1198 36.6076 34.9278 36.4447 34.5963L36.468 34.5905Z" fill="#FFB48E"/>
  <path d="M46.5024 46.6664C46.3511 46.3523 46.1592 46.0672 45.9382 45.7938C45.2459 44.9329 44.6991 45.1482 44.1581 44.4967C43.9371 44.2756 43.6463 43.3566 43.367 43.0192C43.2449 42.8679 42.9599 42.676 42.669 42.3328C42.448 42.071 42.2211 41.309 41.9768 41.0181C41.7034 40.6866 41.4242 40.5819 40.9646 40.2387C40.5284 39.9129 40.6389 39.7966 40.2608 39.2731C40.0805 39.0229 39.7023 38.9066 39.5569 38.5576C39.4522 38.3132 39.4232 37.941 39.2137 37.6908C39.0218 37.4582 38.7833 37.3709 38.632 37.1615C38.4517 36.9114 38.5274 36.8649 38.1726 36.4402L36.3867 37.9235C36.5612 38.162 36.7707 38.3656 36.9975 38.5634L37.492 39.0055C37.7304 39.2323 37.9457 39.4766 38.0911 39.7733C38.2424 40.0874 38.4343 40.3725 38.6553 40.6459C39.1149 41.2159 39.7838 41.501 40.0223 41.786C40.3073 41.9023 40.4179 42.4607 40.5691 42.7865C40.7146 43.1006 41.43 43.6881 41.5929 44.0138C41.7266 44.2814 41.8663 44.5199 41.9826 44.6653C42.2095 44.9329 42.4422 45.154 42.6749 45.346C42.8319 45.4739 43.0238 45.8462 43.1983 45.9393C43.6521 46.1836 43.6928 46.4686 43.8498 46.5908C44.1698 46.8409 44.257 46.5966 44.5363 46.9921C44.7166 47.2422 44.8853 47.5331 45.0307 47.8821C45.1587 48.1788 45.5484 48.365 45.7694 48.6965C45.9381 48.9525 46.0777 49.5923 46.4151 49.9995L48.201 48.5162C48.073 48.3359 47.8868 48.3707 47.66 48.0974C47.4971 47.8996 47.404 47.6087 47.212 47.4284C46.9445 47.1841 46.6653 46.9922 46.5024 46.6606V46.6664Z" fill="#FFB48E"/>
  <path d="M56.5297 58.7424C56.3785 58.4282 56.1865 58.1432 55.9655 57.8698C55.2733 57.0089 54.7265 57.2242 54.1855 56.5727C53.9644 56.3516 53.6736 55.4325 53.3944 55.0952C53.2722 54.9439 52.9872 54.7519 52.6964 54.4087C52.4753 54.147 52.2484 53.385 52.0041 53.0941C51.7307 52.7626 51.4515 52.6578 50.992 52.3146C50.5557 51.9889 50.6663 51.8726 50.2882 51.3491C50.1078 51.0989 49.7298 50.9826 49.5843 50.6335C49.4796 50.3892 49.4505 50.017 49.2411 49.7668C49.0491 49.5341 48.8106 49.4469 48.6594 49.2375C48.4791 48.9874 48.5547 48.9408 48.1999 48.5162L46.4141 49.9995C46.5886 50.238 46.798 50.4416 47.0249 50.6394L47.5193 51.0815C47.7578 51.3083 47.973 51.5526 48.1185 51.8493C48.2697 52.1634 48.4616 52.4484 48.6827 52.7218C49.1422 53.2919 49.8112 53.5769 50.0497 53.862C50.3347 53.9783 50.4452 54.5367 50.5965 54.8625C50.7419 55.1766 51.4574 55.7641 51.6203 56.0898C51.7541 56.3574 51.8936 56.5959 52.01 56.7413C52.2368 57.0089 52.4695 57.23 52.7022 57.4219C52.8593 57.5499 53.0512 57.9222 53.2257 58.0152C53.6794 58.2596 53.7202 58.5446 53.8772 58.6667C54.1972 58.9169 54.2844 58.6726 54.5636 59.0681C54.7439 59.3182 54.9126 59.6091 55.058 59.9581C55.186 60.2548 55.5757 60.4409 55.7968 60.7725C55.9655 61.0284 56.1051 61.6683 56.4425 62.0755L58.2283 60.5921C58.1003 60.4118 57.9142 60.4467 57.6873 60.1733C57.5244 59.9756 57.4313 59.6847 57.2394 59.5044C56.9718 59.2601 56.6926 59.0681 56.5297 58.7365V58.7424Z" fill="#FFB48E"/>
  <path d="M59.5846 58.8297C59.7475 59.1321 59.9569 59.4114 60.1954 59.6731C60.9342 60.4991 61.4635 60.2606 62.0393 60.883C62.0917 60.9296 62.1732 61.0401 62.2197 61.139C62.2488 61.2204 62.2662 61.3193 62.2662 61.4182C62.2662 61.616 62.1964 61.7846 62.1906 61.901C62.1848 61.9941 62.2779 62.2093 62.1441 62.4769C62.0975 62.5816 61.9346 62.6921 61.7659 62.7619C61.5973 62.8375 61.4228 62.8724 61.3355 62.9248C61.1319 63.0353 61.0679 63.2389 60.7422 63.4018C60.428 63.5239 60.3932 63.3494 60.1779 63.1865C60.1256 63.1458 60.05 63.1342 59.9627 63.0993C59.8289 63.0004 59.6951 62.8782 59.6253 62.7095C59.5206 62.4652 59.4915 62.093 59.2821 61.8428C59.0901 61.6102 58.8516 61.5229 58.7004 61.3135C58.5201 61.0634 58.5958 61.0168 58.2409 60.5922L56.4551 62.0755C56.6296 62.314 56.839 62.5176 57.0659 62.7154L57.5603 63.1575C57.7988 63.3843 58.014 63.6286 58.1595 63.9253C58.2351 64.0824 58.3223 64.2336 58.4154 64.379C58.5841 64.6059 58.7993 64.8211 59.0494 64.9782C59.5671 65.3214 60.1605 65.3563 60.5967 65.2864C61.0446 65.2166 61.3646 65.0538 61.5972 64.9898C61.8939 64.7629 62.5978 64.7048 63.0283 64.4256C63.2318 64.3034 63.5285 63.966 63.7321 63.5704C63.9415 63.1749 64.0578 62.7328 64.1392 62.4827C64.2905 62.0697 64.3138 61.6334 64.2614 61.3251C64.1567 60.7609 63.8484 60.2781 63.4819 59.964C63.319 59.8418 63.1097 59.4811 62.9293 59.3939C62.464 59.1728 62.4058 58.8936 62.2487 58.7773C61.9172 58.5446 61.8416 58.7889 61.5391 58.4108C61.3471 58.1665 61.161 57.8873 61.004 57.5441C60.8585 57.2533 60.4629 57.0904 60.2303 56.7705C60.0499 56.5262 59.8755 55.8863 59.5206 55.5023L57.8104 57.0729C57.95 57.2474 58.1362 57.2009 58.3747 57.4627C58.5492 57.6546 58.6597 57.9397 58.8575 58.1084C59.1367 58.341 59.4276 58.5214 59.6021 58.8413L59.5846 58.8297Z" fill="#FFB48E"/>
  <path d="M48.9635 47.2655C49.1264 47.568 49.3358 47.8472 49.5743 48.1089C50.3131 48.9349 50.8424 48.6964 51.4182 49.3188C51.6509 49.5282 51.9884 50.4357 52.2792 50.7556C52.413 50.9011 52.7038 51.0756 53.0063 51.4071C53.239 51.6573 53.5065 52.4076 53.7625 52.681C54.0533 53.001 54.3384 53.0882 54.8154 53.4082C55.2691 53.7165 55.1643 53.8328 55.5657 54.3331C55.7577 54.5774 56.1416 54.6763 56.3045 55.0136C56.4208 55.2521 56.4674 55.6244 56.6884 55.8629C56.892 56.0839 57.1363 56.1654 57.2992 56.3632C57.4911 56.6075 57.4214 56.654 57.7937 57.0612L59.5038 55.4906C59.3177 55.258 59.0966 55.066 58.8639 54.8799L58.3462 54.461C58.0961 54.2458 57.8751 54.0131 57.7122 53.7223C57.5493 53.4198 57.3399 53.1406 57.1014 52.8788C56.6128 52.332 55.9322 52.0819 55.6821 51.8085C55.3913 51.7038 55.2516 51.1512 55.0829 50.8313C54.9201 50.523 54.1813 49.9762 54.001 49.6562C53.8498 49.3945 53.7043 49.1676 53.5764 49.028C53.3379 48.772 53.0936 48.5626 52.8493 48.3823C52.6864 48.2602 52.4769 47.8995 52.2966 47.8123C51.8312 47.5912 51.7731 47.312 51.6161 47.1957C51.2845 46.963 51.2088 47.2073 50.9063 46.8292C50.7144 46.5849 50.5283 46.3057 50.3712 45.9625C50.2258 45.6716 49.8302 45.5088 49.5975 45.1888C49.4172 44.9445 49.2427 44.3046 48.8879 43.9207L47.1777 45.4913C47.3173 45.6658 47.5035 45.6193 47.742 45.881C47.9165 46.073 48.027 46.358 48.2247 46.5267C48.504 46.7594 48.7948 46.9397 48.9693 47.2596L48.9635 47.2655Z" fill="#FFB48E"/>
  <path d="M38.3463 35.7015C38.5092 36.0039 38.7186 36.2832 38.9571 36.5449C39.6959 37.3709 40.2252 37.1324 40.801 37.7549C41.0337 37.9643 41.3712 38.8717 41.662 39.1916C41.7958 39.337 42.0867 39.5116 42.3891 39.8431C42.6218 40.0932 42.8893 40.8436 43.1453 41.117C43.4361 41.437 43.7212 41.5242 44.1982 41.8441C44.6519 42.1524 44.5472 42.2688 44.9485 42.7691C45.1405 43.0134 45.5244 43.1122 45.6873 43.4496C45.8036 43.6881 45.8502 44.0604 46.0712 44.2989C46.2748 44.52 46.5191 44.6014 46.682 44.7992C46.8739 45.0435 46.8042 45.09 47.1765 45.4972L48.8866 43.9266C48.7005 43.6939 48.4794 43.502 48.2468 43.3159L47.729 42.897C47.4789 42.6818 47.2579 42.4491 47.095 42.1583C46.9321 41.8558 46.7227 41.5766 46.4842 41.3148C45.9956 40.768 45.315 40.5179 45.0649 40.2445C44.7741 40.1398 44.6344 39.5872 44.4658 39.2672C44.3029 38.959 43.5641 38.4121 43.3838 38.0922C43.2326 37.8305 43.0872 37.6036 42.9592 37.464C42.7207 37.2081 42.4764 36.9986 42.2321 36.8183C42.0692 36.6961 41.8597 36.3355 41.6794 36.2483C41.2141 36.0272 41.1559 35.748 40.9989 35.6317C40.6673 35.399 40.5916 35.6433 40.2892 35.2652C40.0972 35.0209 39.9111 34.7417 39.754 34.3985C39.6086 34.1076 39.213 33.9447 38.9803 33.6248C38.8 33.3805 38.6255 32.7406 38.2707 32.3567L36.5605 33.9273C36.7002 34.1018 36.8863 34.0553 37.1248 34.317C37.2993 34.509 37.4098 34.794 37.6076 34.9627C37.8868 35.1954 38.1776 35.3757 38.3521 35.6956L38.3463 35.7015Z" fill="#FFB48E"/>
  <path d="M31.4252 28.186C31.7044 28.5815 31.7742 28.7269 31.7916 28.7444C31.7974 28.7618 31.5415 28.2848 31.3786 27.9067C31.2041 27.517 31.1169 27.2087 31.2565 27.3658C31.2914 27.3832 31.4717 27.7032 31.588 27.9591C31.7102 28.2267 31.7684 28.4187 31.7916 28.4477C31.8091 28.4652 31.8731 28.3895 31.9603 28.4884C31.9778 28.5059 31.9836 28.5466 31.9836 28.5873C31.9662 28.5873 32.0185 28.6746 32.0476 28.7269C32.0767 28.7909 32.1115 28.8491 32.1406 28.9131C32.2686 29.1632 32.3966 29.4192 32.5246 29.5588C32.8154 29.8787 33.1005 29.9659 33.5775 30.2859C34.0312 30.5942 33.9264 30.7105 34.3278 31.2108C34.5198 31.4551 34.9037 31.554 35.0666 31.8914C35.1829 32.1299 35.2295 32.5021 35.4505 32.7406C35.6541 32.9617 35.8984 33.0431 36.0613 33.2409C36.2533 33.4852 36.1835 33.5317 36.5557 33.9389L38.2659 32.3684C38.0797 32.1357 37.8587 31.9437 37.626 31.7576L37.1083 31.3387C36.8582 31.1235 36.6372 30.8908 36.4743 30.6C36.3114 30.2975 36.102 30.0183 35.8635 29.7566C35.3749 29.2098 34.6943 28.9596 34.4442 28.6862C34.1533 28.5815 34.0137 28.0289 33.845 27.709C33.8043 27.6334 33.7287 27.5403 33.6356 27.4414C33.5018 27.3076 33.3506 27.1564 33.1994 27.0051C32.7805 26.5805 32.3791 26.1791 32.1581 25.8766C31.7916 25.3822 31.4194 24.8994 31.1576 24.6202C30.6806 24.1025 30.2734 23.7185 29.9361 23.4335C29.8255 23.3463 29.6044 23.0729 29.4532 22.9565C29.2903 22.8228 29.1624 22.7471 29.1333 22.8053C28.9879 23.0961 28.7087 22.7064 28.6447 22.7646C28.5284 22.8635 28.825 23.2939 28.5458 23.0845C28.4585 23.0147 28.3713 22.9449 28.2782 22.8693C28.191 22.7878 28.0571 22.7122 27.8652 22.6715C27.7023 22.6424 27.5395 22.7064 27.3708 22.8111C27.2893 22.8635 27.2021 22.9275 27.1207 22.9914L26.9926 23.0961L26.9287 23.1485H26.9228V23.1601C26.44 22.6075 27.5802 23.9163 27.4639 23.7825H27.458L27.3475 23.6778L27.1207 23.4801C27.0625 23.4277 27.0043 23.3754 26.9403 23.323L26.8472 23.2416C26.8472 23.2416 26.8356 23.2416 26.8298 23.2474L26.7658 23.2881C26.7251 23.3172 26.6785 23.3521 26.6262 23.387C26.5273 23.4568 26.4284 23.5382 26.3353 23.6255C26.1492 23.8 26.0096 24.0094 25.9863 24.0734L31.7974 28.7444C31.8614 28.8025 31.1809 28.2441 31.1809 28.186C31.1925 28.1394 31.6579 28.5873 31.5357 28.4419C31.3612 28.2209 31.1343 27.7788 31.4426 28.186H31.4252Z" fill="#FFB48E"/>
  <path d="M29.6441 12.5617L28.6087 13.7832C28.2655 14.1904 27.6023 13.9578 27.5849 13.4284L27.5209 11.8288C27.5151 11.6659 27.4395 11.5146 27.3173 11.4099L26.0958 10.3745C25.6886 10.0313 25.9213 9.36818 26.4506 9.35073L28.0503 9.28675C28.2131 9.28094 28.3644 9.20529 28.4691 9.08314L29.5045 7.86159C29.8477 7.45441 30.5108 7.68708 30.5283 8.21642L30.5923 9.81608C30.5981 9.97895 30.6737 10.1302 30.7958 10.2349L32.0174 11.2703C32.4246 11.6135 32.1919 12.2767 31.6626 12.2941L30.0629 12.3581C29.9 12.3639 29.7488 12.4395 29.6441 12.5617Z" fill="#9ED2F0"/>
  <path d="M33.2513 11.5844C33.2571 11.4797 33.2513 11.3983 33.2397 11.3111L33.0884 11.0144C32.9837 10.8108 32.8732 10.6014 32.7511 10.392C32.5533 10.2233 32.3497 10.043 32.1402 9.86264C31.5702 9.37402 31.7738 9.56598 31.704 9.53689C31.6749 9.54271 31.64 9.54853 31.5993 9.53689L31.5702 9.52525C31.5702 9.52525 31.5295 9.42636 31.512 9.38565C31.4713 9.28094 31.4306 9.18204 31.3957 9.08315C31.3259 8.90283 31.2561 8.72833 31.1863 8.548C31.1223 8.37931 31.07 8.2106 31.0176 8.01864C30.9653 7.8325 30.9594 7.59403 30.8314 7.46024C30.7616 7.37298 30.6395 7.22175 30.4417 7.09959C30.2498 6.97744 29.9763 6.89599 29.7437 6.90762C29.5343 6.85527 29.2958 7.12868 29.0573 7.28574C28.8188 7.46606 28.592 7.64054 28.4175 7.80342C28.3418 7.87322 28.2545 7.96048 28.1557 8.05937C28.1091 8.11172 28.0568 8.16408 28.0044 8.21643L27.9288 8.29788V8.31531C27.9172 8.36766 27.8764 8.44911 27.795 8.43748C27.795 8.43748 27.795 8.43748 27.7892 8.43748C27.7543 8.43748 27.8125 8.42003 27.6612 8.43748C27.5507 8.4433 27.4286 8.45492 27.3064 8.46074C27.0388 8.47819 26.7422 8.48983 26.4455 8.50728C26.1372 8.52473 25.8115 8.55382 25.5032 8.5829C25.4683 8.5829 25.4217 8.58873 25.3926 8.59455L25.3345 8.62945C25.2996 8.65272 25.2589 8.68759 25.224 8.71086C25.1542 8.77485 25.0901 8.84467 25.0378 8.91447C24.8051 9.25186 24.7469 9.6416 24.8167 9.97898C24.8342 10.0604 24.8575 10.1418 24.8924 10.2175C24.9156 10.2873 24.9796 10.3629 25.0553 10.4502C25.1949 10.6072 25.3519 10.7817 25.538 10.9795C25.6137 11.0609 25.6718 11.1307 25.6951 11.1424C25.9103 11.3052 26.0732 11.439 26.207 11.5612C26.2768 11.6252 26.3408 11.6833 26.4048 11.7415L26.4978 11.8346C26.4978 11.8346 26.5735 11.9102 26.5618 11.9044C26.5735 11.9567 26.5909 12.0091 26.5676 12.0847V12.0963C26.5676 12.0963 26.5677 12.0963 26.5793 12.1429L26.6374 12.3756C26.6782 12.5268 26.7247 12.6839 26.7654 12.8409C26.8468 13.1492 26.9108 13.4517 26.9283 13.8356C26.9283 13.9868 26.9399 14.1439 26.9458 14.3126C26.9807 14.4173 27.033 14.5394 27.1145 14.65C27.2773 14.8768 27.5565 15.0746 27.8706 15.127C28.1673 15.1735 28.4 15.1212 28.5745 15.0223C28.7781 14.8652 28.9584 14.714 29.162 14.5976C29.3016 14.5162 29.4005 14.4697 29.4645 14.4464C29.6157 14.2893 29.7437 14.1614 29.9299 13.9752C30.0229 13.8763 30.1276 13.7542 30.2614 13.6146C30.2905 13.5797 30.3254 13.5448 30.3603 13.504L28.9294 11.631C28.8247 11.7182 28.7316 11.8288 28.6385 11.9393L28.5861 12.0033L28.5977 11.9916L28.6152 11.9742C28.6152 11.9742 28.6676 11.9335 28.6908 11.9276C28.6908 11.9393 28.6908 11.9567 28.6908 11.9742C28.685 12.0265 28.6734 12.1138 28.621 12.1778C28.5861 12.2185 28.5396 12.2301 28.5163 12.1952C28.493 12.1603 28.5163 12.0963 28.5512 12.0556C28.5861 12.0091 28.6152 11.9975 28.6327 12.0033C28.6443 12.0033 28.6501 12.0091 28.6559 12.0207V12.0323C28.6559 12.0323 28.6617 11.9858 28.6617 11.9335V11.7764C28.6559 11.7008 28.6501 11.6194 28.6327 11.5437C28.5571 11.0609 28.2487 10.6712 27.8706 10.4327C27.8532 10.4211 27.8125 10.392 27.8125 10.392V10.4036V10.421C27.8125 10.4327 27.8125 10.4443 27.8067 10.4559C27.8008 10.4734 27.7834 10.4909 27.766 10.5025C27.638 10.4909 27.4402 10.4385 27.3995 10.3861C27.2366 10.3338 27.2831 10.2291 27.4402 10.2175C27.5856 10.2 27.7892 10.2989 27.8241 10.3396C27.8532 10.3629 27.8416 10.3687 27.8358 10.3629C27.8358 10.3629 27.8241 10.3512 27.8241 10.3454V10.3338H27.9056L28.0684 10.3163C28.7373 10.2814 29.1503 9.86843 29.3772 9.6183C29.4703 9.52523 29.4296 9.57761 29.4471 9.57179L29.4586 9.59505C29.4586 9.59505 29.4645 9.62414 29.4703 9.64159C29.4703 9.67068 29.4645 9.69976 29.4528 9.71139C29.4063 9.77538 29.4238 9.65905 29.4936 9.57761C29.5168 9.54853 29.5227 9.58922 29.5169 9.6183C29.5111 9.63575 29.5052 9.61831 29.5401 9.59505C29.6157 9.53106 29.639 9.55433 29.639 9.56597C29.639 9.57179 29.639 9.58341 29.6332 9.58922V9.67649C29.6332 9.72884 29.6332 9.7812 29.6332 9.82774C29.6332 9.96734 29.6564 10.0546 29.6797 10.136C29.8426 10.5665 30.0403 10.6305 30.1858 10.7177C30.2672 10.7584 30.3487 10.7992 30.465 10.869C30.4941 10.8864 30.5231 10.9038 30.5522 10.9271L30.5755 10.9388C30.5755 10.9388 30.6046 10.9562 30.6162 10.9737C30.6337 10.9911 30.6453 11.0144 30.657 11.0376C30.7093 11.1249 30.7442 11.2063 30.6453 11.2587C30.5872 11.2936 30.6279 11.346 30.6395 11.4216C30.657 11.4972 30.5988 11.5437 30.529 11.5205C30.4883 11.5088 30.4068 11.4681 30.3545 11.4158C30.3254 11.3925 30.308 11.3634 30.2963 11.3343C30.2672 11.3052 30.3835 11.2761 30.0403 11.2645C29.6564 11.2354 29.2434 11.3692 28.9468 11.6368L30.3778 13.5098C30.3778 13.5098 30.337 13.4342 30.3603 13.3877C30.3603 13.3819 30.3603 13.3702 30.3719 13.3702C30.3603 13.3702 30.401 13.3644 30.4476 13.3528C30.4883 13.347 30.5348 13.3353 30.5872 13.3295C31.1281 13.2364 31.8203 13.219 32.3729 13.091L32.6521 13.0271C32.7161 12.9922 32.7453 12.9456 32.7918 12.8932C32.8791 12.7885 32.9663 12.6664 33.0361 12.521C33.1815 12.2418 33.2513 11.8927 33.2629 11.6019L33.2513 11.5844Z" fill="#9ED2F0"/>
  <path d="M10.5232 20.9032L8.46976 16.2439C8.25453 15.761 8.74898 15.2608 9.2376 15.476L13.897 17.5294C14.0482 17.5934 14.2169 17.5934 14.3681 17.5294L19.0275 15.476C19.5103 15.2608 20.0106 15.7552 19.7953 16.2439L17.7419 20.9032C17.6779 21.0545 17.6779 21.2232 17.7419 21.3744L19.7953 26.0338C20.0106 26.5166 19.5161 27.0168 19.0275 26.8016L14.3681 24.7482C14.2169 24.6842 14.0482 24.6842 13.897 24.7482L9.2376 26.8016C8.75479 27.0168 8.25453 26.5224 8.46976 26.0338L10.5232 21.3744C10.5871 21.2232 10.5871 21.0545 10.5232 20.9032Z" fill="#9ED2F0"/>
  <path d="M15.2754 15.9936C14.9264 16.0576 14.589 16.1681 14.2574 16.3077C14.2167 16.3252 14.1295 16.3659 14.1353 16.3601V16.3718C14.1353 16.3718 14.1353 16.395 14.1353 16.4125C14.1295 16.4474 14.1062 16.4939 14.0771 16.5346C14.0597 16.5462 14.0596 16.5695 14.0189 16.5753C13.9666 16.5753 13.9201 16.5753 13.8677 16.5753C13.7688 16.5753 13.6699 16.5753 13.5769 16.5753C13.3791 16.5637 13.1755 16.5288 12.9428 16.4241C12.6345 16.3194 11.9481 15.6155 11.5409 15.441C11.4479 15.4003 11.3141 15.3712 11.157 15.3247C11.1163 15.3131 11.0756 15.3014 11.029 15.2898L10.9592 15.2665L10.8371 15.22C10.6742 15.156 10.5055 15.092 10.3194 15.0106C10.0576 14.9059 9.56896 14.5452 9.14432 14.4463C8.7255 14.33 8.41722 14.3416 8.14383 14.4929C7.86461 14.6557 7.68428 14.8942 7.58539 15.1676C7.53885 15.3014 7.50977 15.4468 7.50977 15.5923C7.50977 15.7319 7.54466 15.8831 7.57957 16.0693C7.64937 16.3834 7.74246 16.5986 7.78318 16.7673C7.88789 17.0698 7.93443 17.3373 8.1962 17.983C8.30672 18.2913 8.63827 18.5065 8.69062 18.8963C8.73134 19.1639 8.65571 19.5362 8.7895 19.8444C8.91166 20.1295 9.12108 20.2865 9.20834 20.5308C9.26069 20.6821 9.26648 20.7577 9.28975 20.8682C9.30138 20.9555 9.38867 21.2056 9.35958 21.1358L11.6689 20.6704C11.634 20.525 11.57 20.3912 11.5118 20.2516C11.4537 20.1295 11.442 20.1004 11.4013 20.0189C11.3315 19.8852 11.2501 19.7572 11.1686 19.6292L10.808 19.0534C10.6393 18.7625 10.4997 18.4658 10.4357 18.1284C10.4066 17.9539 10.3601 17.7853 10.3077 17.6108L10.2205 17.3548L10.1332 17.1396C10.1332 17.1396 10.0983 17.1454 10.0343 17.1221C9.918 17.0814 9.64458 16.872 9.65622 16.7906C9.55151 16.6742 9.64459 16.6335 9.76674 16.6975C9.89471 16.7557 10.0169 16.9127 10.0634 16.9825C10.1099 17.0523 10.1041 17.0232 10.1332 17.0116C10.1681 17.0058 10.1449 16.9651 10.395 17.1221C10.6451 17.3024 10.8778 17.4595 11.0523 17.5351C11.3839 17.6806 11.6922 17.7736 11.9946 17.8434C12.1982 17.89 12.5472 18.1401 12.745 18.1517C12.9137 18.1576 13.0417 18.1866 13.1464 18.2215C13.1987 18.239 13.2453 18.2564 13.2918 18.2797C13.3674 18.3146 13.4373 18.3495 13.4954 18.3786C13.6816 18.4659 13.8153 18.5124 13.9491 18.5124C14.3156 18.5007 14.4203 18.3728 14.5308 18.2797C14.5832 18.2332 14.6414 18.1808 14.7286 18.1227C14.7693 18.0936 14.8275 18.0645 14.8857 18.0354C14.9264 18.0121 14.9729 17.9947 15.0311 17.9714C15.3278 17.8609 15.6651 17.7794 16.0491 17.7329C16.3748 17.6864 16.6715 17.3606 17.0612 17.2385C17.2125 17.1919 17.4509 17.1745 17.7185 17.1454C17.8465 17.1337 18.0035 17.1047 18.114 17.0872C18.1315 17.1105 18.1315 17.1338 18.1315 17.1338L17.9744 14.6674C17.765 14.7488 17.6254 14.8535 17.4625 14.9698C17.3927 15.0164 17.3113 15.0746 17.2183 15.1386C17.1659 15.1793 17.1019 15.22 17.0205 15.2549C16.7761 15.3596 16.462 15.3712 16.241 15.5108C15.9211 15.7028 15.6535 15.9238 15.2812 15.9936H15.2754Z" fill="#9ED2F0"/>
  <path d="M20.6794 27.0342C20.8248 26.8365 20.9121 26.6736 20.947 26.47C20.9993 26.278 21.0052 25.9988 20.8888 25.6789C20.8714 25.6324 20.8539 25.5858 20.8481 25.5626C20.6271 25.0681 20.4176 24.6784 20.2257 24.3759C20.1152 24.1898 20.0803 24.184 20.0163 24.1083C19.9523 24.0502 19.8942 23.992 19.836 23.9397C19.5975 23.7244 19.3706 23.5383 19.1961 23.1543C19.039 22.8693 19.0042 21.8862 18.8297 21.4791C18.8122 21.4325 18.7831 21.3802 18.7424 21.322C18.725 21.2929 18.7075 21.2638 18.6842 21.2348L18.6551 21.2173C18.6144 21.194 18.5679 21.1417 18.5912 21.0835C18.5912 21.0719 18.6027 21.0661 18.6144 21.0486C18.626 21.037 18.6319 21.0486 18.661 21.0137C18.6959 20.973 18.7307 20.9265 18.7656 20.8799C18.8412 20.7869 18.9227 20.688 19.0041 20.5891C19.167 20.3913 19.3241 20.1877 19.3939 20.0306C19.5742 19.6235 19.5451 19.321 19.6498 18.7509C19.7022 18.4775 19.7661 18.3496 19.8534 18.2216C19.8999 18.1576 19.9465 18.0878 20.0105 18.0064C20.0861 17.89 20.2024 17.6574 20.3304 17.3956C20.4526 17.1338 20.5398 16.8488 20.5863 16.5929C20.6212 16.3427 20.6271 16.11 20.6736 15.8832C20.7143 15.7203 20.7609 15.5342 20.7202 15.3015C20.6853 15.0746 20.5747 14.8303 20.3769 14.6732C20.1966 14.522 19.993 14.4522 19.8243 14.4289C19.6557 14.3998 19.516 14.4173 19.359 14.394C19.0797 14.3882 19.0158 14.2951 18.5504 14.4348C18.498 14.4464 18.277 14.5336 17.9629 14.6732L18.1199 17.1396C18.1199 17.128 18.1316 17.0989 18.1607 17.0524C18.1898 17 18.2422 16.9419 18.312 16.9128C18.405 16.8721 18.4399 16.9651 18.3003 17.0524C18.1665 17.1454 18.1316 17.1396 18.1258 17.1454C18.1258 17.1454 18.1258 17.1454 18.1374 17.1454C18.1491 17.1338 18.1374 17.1803 18.1199 17.2269L18.0851 17.3549C18.0444 17.5236 18.0153 17.6922 17.9862 17.8493C17.9396 18.1634 17.9105 18.4368 17.8349 18.6113C17.8582 18.9254 17.3986 19.2861 17.1718 19.5769C17.1136 19.6526 17.0555 19.7689 16.9973 19.9085C16.9275 20.083 16.8577 20.2808 16.7821 20.4669C16.5494 21.0195 16.7006 21.5779 16.817 21.8746C16.8344 21.9328 16.8693 22.0317 16.8693 22.0608L16.8926 22.1713C16.91 22.2411 16.9275 22.3109 16.9449 22.3749C16.9798 22.5029 17.0148 22.6134 17.0555 22.7064C17.2009 23.038 17.3696 23.3172 17.5441 23.5732C17.6604 23.7477 17.7477 24.1665 17.8931 24.3061C18.0792 24.4922 18.1665 24.6551 18.2189 24.7947C18.2421 24.8645 18.2654 24.9285 18.2828 24.9867C18.2945 25.0158 18.3003 25.0391 18.312 25.0623C18.312 25.0623 18.3177 25.0681 18.3235 25.0739C18.4224 25.1146 18.6202 25.0914 18.6958 25.2368C18.6958 25.2368 18.7075 25.2601 18.7075 25.2717C18.7249 25.3881 18.7424 25.487 18.5504 25.4637C18.4748 25.4521 18.4864 25.5102 18.4748 25.5684C18.469 25.6324 18.4283 25.6731 18.3585 25.6149C18.3061 25.5742 18.2014 25.4346 18.1549 25.3299C18.1316 25.2775 18.1199 25.231 18.1199 25.1961C18.1199 25.1786 18.1199 25.167 18.1199 25.1612C18.1083 25.1437 18.1607 25.1612 18.0734 25.1263L17.1369 27.2495C17.166 27.2669 17.2824 27.3076 17.3696 27.3309C17.4569 27.3542 17.5441 27.3716 17.6313 27.3891C17.8117 27.424 18.0095 27.4647 18.3178 27.6043C18.5446 27.709 18.7889 27.8312 19.01 27.8893C19.1205 27.9184 19.2136 27.93 19.3183 27.9417C19.4055 27.9417 19.4812 27.93 19.5568 27.9126C19.9174 27.8137 20.3769 27.4589 20.6736 27.0459L20.6794 27.0342Z" fill="#9ED2F0"/>
  <path d="M8.73121 22.8693C8.51598 23.1486 8.34148 23.4627 8.19024 23.7884C8.13207 23.9164 8.08554 24.0386 8.05064 24.1491C8.02155 24.2363 7.99246 24.3178 7.96919 24.3992C7.94011 24.4923 7.91101 24.5853 7.88774 24.6726C7.78886 25.0216 7.74815 25.2834 7.71907 25.516C7.70743 25.7429 7.74232 25.9174 7.78304 26.0861C7.82958 26.2548 7.81793 26.3944 7.8761 26.6387C7.91682 26.8074 8.06805 27.2437 8.41707 27.488C8.59158 27.6043 8.737 27.6741 8.88824 27.709C8.96386 27.7323 9.04533 27.7498 9.1384 27.7498C9.21984 27.7614 9.31288 27.7497 9.40013 27.7265C9.46412 27.7207 9.53976 27.6858 9.74335 27.6043C9.97021 27.4764 10.4588 27.1971 10.9765 26.9645C11.2965 26.8248 12.105 26.8016 12.4599 26.6445C12.867 26.4642 13.0474 26.2257 13.5185 25.8709C13.7338 25.708 13.8908 25.644 14.013 25.6266C14.0595 25.6382 14.106 25.6615 14.1642 25.7022C14.1758 25.708 14.1817 25.708 14.1991 25.7022C14.1817 25.6731 14.3853 25.7196 14.5074 25.7429C14.647 25.7778 14.7808 25.8244 14.8972 25.9291C15.1066 26.1036 15.3044 26.4235 15.6068 26.5573C15.8919 26.6795 16.1478 26.6562 16.3805 26.7783C16.6597 26.9237 16.6132 26.9994 17.1309 27.2262L18.0674 25.1031C17.7998 24.9635 17.509 24.8704 17.2181 24.7947L16.5608 24.6144C16.2409 24.5155 15.9326 24.3876 15.6592 24.184C15.5486 24.0967 15.4323 24.0211 15.3102 23.9455L15.124 23.8408L15.0135 23.7826L14.8215 23.6895C14.6936 23.6313 14.554 23.5848 14.4085 23.5616C14.0479 23.4976 13.6872 23.579 13.3906 23.7477C13.3266 23.7826 13.2219 23.8408 13.1928 23.8582L13.0881 23.9339C13.0241 23.9862 12.9543 24.0386 12.8961 24.0851C12.646 24.2829 12.4424 24.4632 12.2679 24.5388C12.0701 24.7831 11.4943 24.7424 11.1278 24.8006C10.9533 24.8297 10.6682 24.9751 10.3832 25.1263C10.3134 25.1612 10.2436 25.2019 10.1738 25.2368C10.1738 25.2427 10.1622 25.2543 10.1564 25.2543C10.1447 25.2659 10.1273 25.2659 10.1215 25.2485C10.1215 25.2369 10.1156 25.2252 10.1156 25.2078C10.1098 25.1612 10.1273 25.1205 10.1273 25.1205C10.1273 25.1205 10.0865 25.1903 9.98765 25.2427C9.91785 25.2601 10.0575 25.1554 9.9644 25.1903C9.84806 25.2194 9.85386 25.167 9.87713 25.1438C9.9004 25.1147 9.9353 25.103 9.91785 25.0856C9.89458 25.0332 9.81317 25.0332 9.79572 24.9111C9.77245 24.8122 9.76661 24.7133 9.87713 24.4923C10.0226 24.213 10.2145 23.9222 10.4646 23.6314C10.6741 23.3754 10.6741 22.9392 10.8718 22.5843C10.9184 22.4971 11.0056 22.3982 11.1045 22.2876C11.1569 22.2295 11.2092 22.1713 11.2616 22.1073L11.343 22.0084C11.3837 21.9386 11.4302 21.8746 11.471 21.8048C11.6804 21.4849 11.7618 21.0487 11.6513 20.6647L9.34198 21.1301C9.34198 21.1301 9.47576 21.1301 9.48158 21.1766C9.48158 21.1766 9.48158 21.1824 9.48158 21.1882C9.45831 21.2348 9.42922 21.2755 9.40013 21.3221L9.28382 21.4966C9.2082 21.6129 9.13257 21.735 9.09186 21.8572C8.98715 22.212 8.93478 22.5552 8.70792 22.8577L8.73121 22.8693Z" fill="#9ED2F0"/>
  <path d="M35.2868 47.0852C34.74 47.8472 35.1937 47.5506 34.5422 48.2253L32.8379 46.6373C33.5068 46.0672 33.309 46.3813 34.0536 45.916C34.4317 45.6949 34.74 45.1016 35.3508 45.8811C35.7231 46.3697 35.281 47.0852 35.281 47.0852H35.2868Z" fill="#DBF3FC"/>
  <path d="M30.424 58.5968C30.4123 58.5212 30.4239 58.3991 30.3949 58.3176C30.3949 58.2013 30.36 58.1024 30.3483 57.9802C30.3367 57.8814 30.3193 57.7941 30.2902 57.7127C30.2727 57.6254 30.2495 57.5498 30.2204 57.4742C30.1564 57.3287 30.0982 57.2008 30.04 57.0728C29.9062 56.8169 29.8016 56.5667 29.8539 56.177C29.8714 55.8745 30.3949 55.1532 30.5229 54.7809C30.5694 54.6064 30.5752 54.2923 30.709 53.8968C30.8195 53.5943 31.3605 53.0824 31.5059 52.7741C31.6804 52.4192 31.6397 52.1342 31.7793 51.6107C31.9014 51.1046 32.0644 51.1744 32.4017 50.6858C32.5821 50.4589 32.5646 50.0692 32.8555 49.8598C33.0591 49.7086 33.3848 49.598 33.5768 49.3712C33.7513 49.1559 33.7687 48.9058 33.9432 48.7429C34.1468 48.5452 34.1991 48.6033 34.5423 48.231L32.8438 46.6488C32.6112 46.8583 32.4425 47.12 32.2738 47.3818C32.1458 47.5737 32.0353 47.7773 31.919 47.9751C31.7328 48.2601 31.5525 48.5394 31.2907 48.7662C31.0173 48.9989 30.7963 49.2897 30.5927 49.5922C30.1855 50.2437 30.1564 50.9941 29.9877 51.3315C29.9877 51.6456 29.5224 51.9888 29.2955 52.2913C29.0628 52.5763 28.8941 53.5245 28.708 53.856C28.5451 54.1294 28.4287 54.3912 28.3706 54.589C28.2833 54.9555 28.231 55.2928 28.2426 55.6244C28.2368 55.8396 28.0856 56.2701 28.138 56.4795C28.2834 57.0205 28.1263 57.2822 28.1786 57.5091C28.2833 57.9628 28.4869 57.7883 28.5335 58.3409C28.5567 58.527 28.5858 58.7132 28.6149 58.9168C28.6731 59.1262 28.6906 59.3472 28.7894 59.5974C28.9232 60.0395 29.5223 60.371 30.0459 60.6037C30.1506 60.6444 30.2727 60.72 30.424 60.7898C30.5636 60.8422 30.7322 60.9003 30.9126 60.9527C31.2558 61.0283 31.663 61.069 31.9829 60.976L31.4419 58.719C31.3663 58.7306 31.3198 58.7772 31.2616 58.8353C31.2093 58.8761 31.1453 58.9226 31.0348 58.9342C30.8777 58.9342 30.7788 58.8005 30.709 58.8063C30.6101 58.8005 30.4356 58.8237 30.424 58.6085V58.5968Z" fill="#DBF3FC"/>
  <path d="M33.4308 60.0861C32.9771 60.4002 32.9072 60.5224 32.8025 60.6096C32.7502 60.6562 32.6978 60.6969 32.5815 60.755C32.4651 60.8074 32.3081 60.8946 31.9766 60.9644L31.4355 58.7016C31.7206 58.69 31.8427 58.6493 31.9474 58.6842C32.058 58.7075 32.1743 58.7249 32.5408 58.6435C32.9189 58.5621 33.2272 58.0443 33.7681 58.8878C33.931 59.1437 33.8613 59.4404 33.7333 59.6789C33.6111 59.9174 33.4308 60.0861 33.4308 60.0861Z" fill="#DBF3FC"/>
  <path d="M54.6862 30.3266C55.1108 29.9252 55.2679 29.8147 55.3901 29.71C55.4483 29.6576 55.5238 29.6111 55.71 29.5587C55.8845 29.5064 56.1695 29.4424 56.6174 29.518L56.1812 31.8157C56.187 31.7692 56.1637 31.7285 56.1288 31.6819C56.0649 31.6645 56.0183 31.5831 55.7507 31.647C55.4657 31.7227 55.3668 32.2229 54.628 31.554C54.4012 31.3504 54.3896 31.0537 54.4536 30.7919C54.5234 30.536 54.6862 30.3324 54.6862 30.3324V30.3266Z" fill="#DBF3FC"/>
  <path d="M54.6099 41.594C54.8716 41.4078 55.1102 41.181 55.3254 40.9308C55.9769 40.1107 55.6221 39.6453 56.0525 38.9938C56.1165 38.86 56.3376 38.6739 56.5644 38.4645C56.7855 38.2492 57.0239 38.0224 57.117 37.842C57.1985 37.6734 57.2625 37.3592 57.4312 36.9695C57.5649 36.6787 58.1117 36.1377 58.2281 35.777C58.3619 35.3699 58.292 35.079 58.2746 34.5206C58.2455 33.9796 58.4142 34.0029 58.5131 33.3514C58.5538 33.0256 58.3386 32.694 58.4084 32.3043C58.4491 32.0251 58.6119 31.6412 58.4607 31.234C58.3967 31.0537 58.292 30.9024 58.1757 30.757C58.0768 30.6232 57.9314 30.4778 57.8034 30.3149C57.6464 30.123 57.5475 30.0241 57.4195 29.8961C57.2799 29.7914 57.0879 29.6111 56.6051 29.518L56.1688 31.8099C56.1688 31.8099 56.1688 31.7866 56.2212 31.7808C56.2445 31.7808 56.2619 31.7808 56.3026 31.8215C56.3375 31.8506 56.3783 31.8797 56.4074 31.9321C56.5121 32.0658 56.5586 32.2927 56.512 32.5137C56.4539 32.7464 56.419 32.9907 56.4015 33.2467C56.3608 33.7702 56.5586 34.3461 56.483 34.6427C56.5644 34.8987 56.1863 35.2186 55.9943 35.4455C55.8256 35.6665 55.6919 36.4169 55.4767 36.6496C55.3138 36.8357 55.1683 37.0102 55.0869 37.144C54.9473 37.4 54.8542 37.6443 54.7669 37.8828C54.7146 38.0456 54.4529 38.2841 54.4238 38.4528C54.354 38.8949 54.1096 38.9822 54.0398 39.1334C53.9002 39.4534 54.1446 39.4999 53.8654 39.8082C53.6792 40.0001 53.4465 40.1805 53.1673 40.3491C52.923 40.4888 52.83 40.8552 52.5682 41.0763C52.3588 41.2391 51.7945 41.3904 51.4746 41.6929L53.0743 43.374C53.2371 43.246 53.1789 43.0599 53.4116 42.833C53.5803 42.6643 53.8537 42.5596 53.9875 42.3618C54.1795 42.0826 54.3133 41.7976 54.6041 41.6056L54.6099 41.594Z" fill="#DBF3FC"/>
  <path d="M50.754 42.7342C51.2833 42.042 50.8296 42.2746 51.4811 41.6871L53.0866 43.3682C52.4583 43.8278 52.6445 43.5544 51.9581 43.9267C51.6091 44.107 51.3706 44.6654 50.7424 43.8918C50.3585 43.4148 50.7598 42.7284 50.7598 42.7284L50.754 42.7342Z" fill="#DBF3FC"/>
  <path d="M40.6958 60.1849C41.6323 59.6905 41.0157 59.801 42.0337 59.3473L43.04 61.4414C42.5398 61.6392 42.3652 61.645 42.2024 61.6624C42.0395 61.6741 41.865 61.674 41.3124 61.7613C41.1669 61.7788 41.0215 61.8195 40.8703 61.8544C40.7132 61.8835 40.5504 61.9067 40.4108 61.8951C40.1025 61.8602 39.8873 61.6857 39.8989 61.1854C39.9105 60.8713 40.1257 60.6561 40.3119 60.4758C40.5038 60.3013 40.6958 60.1733 40.6958 60.1733V60.1849Z" fill="#DBF3FC"/>
  <path d="M53.8261 49.6796C53.5178 49.9297 53.227 50.2089 52.9536 50.5172C52.0868 51.4654 52.3311 52.0005 51.6331 52.7218C51.3888 53.0126 50.3825 53.478 50.0044 53.827C49.8357 53.9782 49.6205 54.3156 49.2191 54.6646C48.9167 54.9322 48.0673 55.258 47.7241 55.5372C47.3344 55.8571 47.189 56.1596 46.7528 56.6657C46.3281 57.1427 46.2176 57.0321 45.5835 57.4335C45.2811 57.6313 45.0774 58.021 44.6644 58.1665C44.3736 58.2653 43.9606 58.277 43.6465 58.4689C43.3556 58.6551 43.1928 58.8819 42.931 59.0157C42.6111 59.1612 42.5819 59.0855 42.0352 59.3589L43.0415 61.453C43.3964 61.3076 43.7104 61.0982 44.0129 60.883C44.234 60.7143 44.4608 60.5572 44.6761 60.3827C45.0018 60.1442 45.3334 59.9173 45.7173 59.7603C46.1071 59.5974 46.4851 59.388 46.84 59.1379C47.5845 58.6202 48.0092 57.864 48.364 57.5906C48.5327 57.2706 49.1784 57.1019 49.5681 56.8925C49.9462 56.6948 50.6676 55.8397 51.0398 55.6012C51.354 55.4092 51.6273 55.2231 51.796 55.0602C52.1101 54.7636 52.3602 54.4611 52.5813 54.1644C52.7325 53.9666 53.1455 53.67 53.2502 53.4606C53.5178 52.9021 53.8261 52.7858 53.9599 52.5822C54.2216 52.1634 53.9483 52.1343 54.3671 51.7155C54.6289 51.4363 54.943 51.1803 55.3036 50.9011C55.6177 50.6626 55.7748 50.174 56.1006 49.8075C56.3507 49.5283 57.0254 49.1095 57.3861 48.5452L55.4316 47.2946C55.2803 47.4982 55.3618 47.6727 55.1349 48.0101C54.9604 48.2544 54.6812 48.4522 54.53 48.7081C54.3148 49.0687 54.1577 49.4236 53.8261 49.6912V49.6796Z" fill="#DBF3FC"/>
  <path d="M58.0415 46.7885C57.5994 47.9868 58.0589 47.4167 57.3841 48.5336L55.4238 47.2771C55.9881 46.5209 55.8601 46.9106 56.4651 46.1661C56.7734 45.7821 56.7559 45.0899 57.6924 45.4448C57.9775 45.5553 58.0763 45.881 58.0996 46.1951C58.1229 46.5092 58.0473 46.7827 58.0473 46.7827L58.0415 46.7885Z" fill="#DBF3FC"/>
</svg>