<svg xmlns="http://www.w3.org/2000/svg" width="42" height="42" viewBox="0 0 42 42" fill="none">
  <g filter="url(#filter0_d_1352_10282)">
    <path d="M36.5884 20.0738C36.5884 19.9345 36.5421 19.8416 36.5536 19.7255C36.5652 19.5861 36.6 19.5977 36.6116 19.3423C36.6116 19.2494 36.5421 19.2029 36.5421 19.052C36.5421 18.9359 36.5884 18.8082 36.5652 18.692C36.542 18.5295 36.4841 18.3901 36.5189 18.2276C36.542 18.0766 36.5421 17.9257 36.5421 17.7631C36.4841 17.2754 36.2406 17.2174 36.1826 16.8574C36.1478 16.7297 36.2406 16.3117 36.1826 16.1143C36.1594 16.033 36.0899 15.8937 36.0435 15.7079C36.0203 15.5569 36.0551 15.2086 36.0087 15.046C35.9507 14.8603 35.8696 14.7674 35.7305 14.5468C35.6029 14.3377 35.6725 14.3145 35.5913 14.0358C35.5565 13.8965 35.4058 13.8036 35.3942 13.6411C35.3942 13.5249 35.4174 13.3624 35.3594 13.223C35.3015 13.0953 35.2087 13.0256 35.1739 12.9211C35.1276 12.7934 35.1739 12.7818 35.058 12.5612L34.5826 12.7934L35.0464 12.5728C35.0116 12.4799 34.9189 12.4799 34.8493 12.3406C34.7913 12.2361 34.7797 12.0967 34.7218 12.0038C34.629 11.8645 34.5131 11.7716 34.4783 11.6091C34.4319 11.4581 34.3739 11.3188 34.2928 11.1794C34.0261 10.7614 33.7942 10.8195 33.5739 10.5176C33.4812 10.4131 33.3884 9.99506 33.2609 9.84411C33.2029 9.77444 33.087 9.69316 32.9594 9.5306C32.8667 9.41448 32.7507 9.08936 32.6464 8.95003C32.5189 8.79908 32.3913 8.76424 32.1826 8.6249C31.9739 8.49718 32.0319 8.43912 31.8348 8.23011C31.7421 8.12561 31.5681 8.09078 31.487 7.95144C31.429 7.84694 31.3826 7.69599 31.2783 7.59148C31.1739 7.49859 31.0696 7.47537 30.9884 7.4057C30.8957 7.31281 30.9189 7.27798 30.7218 7.12703L30.5363 7.34764L30.7102 7.12703C30.6406 7.05736 30.5594 7.09219 30.4319 6.9993C30.3392 6.92963 30.2696 6.81352 30.1652 6.75546C30.0261 6.67418 29.8754 6.62773 29.771 6.50001C29.6667 6.38389 29.5507 6.291 29.4116 6.19811C29.0058 5.91943 28.7971 6.09361 28.4841 5.90782C28.3681 5.84977 28.0899 5.52464 27.916 5.44336C27.8348 5.40853 27.6957 5.3737 27.5102 5.29241C27.371 5.23436 27.1392 4.96729 26.9768 4.90924C26.7913 4.83957 26.6638 4.85118 26.4203 4.81634C26.1768 4.78151 26.2 4.72345 25.9334 4.60734C25.8058 4.54928 25.6435 4.59573 25.5044 4.50284C25.4116 4.44478 25.2957 4.31705 25.1565 4.27061C25.029 4.23577 24.9131 4.25899 24.8087 4.22416C24.6812 4.18933 24.6928 4.14288 24.4493 4.09643C24.3565 4.0616 24.2986 4.13127 24.1478 4.09643C24.0319 4.07321 23.916 4.00354 23.8 3.99193C23.6377 3.99193 23.487 3.99193 23.3363 3.93387C23.1971 3.87582 23.0464 3.84098 22.8841 3.81776C22.3971 3.74809 22.2928 3.99193 21.9218 3.96871C21.7826 3.96871 21.4 3.80615 21.2029 3.79454C21.1102 3.79454 20.971 3.82937 20.7739 3.84098C20.6232 3.84098 20.2986 3.71326 20.1247 3.72487C19.9276 3.73648 19.8232 3.80615 19.5797 3.88743C19.3478 3.9571 19.3363 3.88743 19.0464 3.91065C18.9073 3.91065 18.7797 4.02677 18.6174 4.00354C18.5015 3.99193 18.3507 3.92226 18.2116 3.94549C18.0841 3.96871 17.9913 4.03838 17.8754 4.04999C17.7363 4.0616 17.7363 4.02677 17.4928 4.08482C17.4 4.09643 17.3768 4.17771 17.2145 4.21255C17.0986 4.23577 16.971 4.21255 16.8667 4.27061C16.716 4.32866 16.5884 4.40994 16.4261 4.42156C16.2754 4.42156 16.1247 4.468 15.9739 4.51445C15.4986 4.6654 15.5102 4.93246 15.1623 5.06019C15.0348 5.11824 14.6174 5.14147 14.4435 5.21113C14.3623 5.24597 14.2464 5.33886 14.0725 5.43175C13.9449 5.50142 13.5855 5.52464 13.4348 5.61754C13.2725 5.71043 13.2029 5.82654 13.0174 6.00071C12.8435 6.16327 12.8087 6.11683 12.5536 6.25617C12.4377 6.32584 12.3565 6.47678 12.2058 6.53484C12.1015 6.56968 11.9276 6.58129 11.8116 6.66257C11.7073 6.74385 11.6493 6.83674 11.5565 6.90641C11.4406 6.98769 11.429 6.95285 11.2319 7.1038C11.1507 7.16186 11.1623 7.24314 11.0464 7.34764C10.9536 7.42892 10.8261 7.46376 10.7565 7.55665C10.6522 7.67276 10.5594 7.80049 10.4203 7.88177C10.2928 7.95144 10.1652 8.05594 10.0493 8.16045C9.68988 8.50879 9.81741 8.74102 9.56234 9.00808C9.48118 9.1242 9.11017 9.30998 8.98263 9.46093C8.92466 9.5306 8.87828 9.66994 8.75075 9.82089C8.65799 9.937 8.35654 10.1112 8.26379 10.2621C8.15944 10.4247 8.13625 10.5408 8.05509 10.7846C7.97393 11.0169 7.91596 10.982 7.74205 11.2143C7.66089 11.3304 7.67249 11.5045 7.55654 11.6207C7.47538 11.7019 7.32466 11.7716 7.25509 11.8993C7.19712 12.0155 7.19712 12.1316 7.13915 12.2361C7.06959 12.3522 7.0348 12.329 6.91886 12.5496L7.39422 12.7818L6.93046 12.5612C6.88408 12.6425 6.93046 12.7121 6.87249 12.8631C6.82611 12.9676 6.72176 13.0605 6.69857 13.1766C6.6522 13.3275 6.6406 13.4785 6.54785 13.6178C6.46669 13.7456 6.38553 13.8733 6.32756 14.0242C6.16524 14.4887 6.35075 14.6396 6.25799 14.9996C6.2348 15.1389 5.96814 15.4641 5.93336 15.6615C5.91017 15.7427 5.93336 15.8937 5.87538 16.0911C5.8406 16.2304 5.65509 16.5323 5.62031 16.6949C5.58553 16.8807 5.62031 17.0084 5.65509 17.2638C5.67828 17.5077 5.60872 17.5077 5.56234 17.7863C5.53915 17.9257 5.62031 18.0766 5.56234 18.2276C5.52756 18.3321 5.41162 18.4714 5.41162 18.6108C5.41162 18.7501 5.45799 18.843 5.4464 18.9591C5.4348 19.0984 5.40002 19.0868 5.38843 19.3423C5.38843 19.4352 5.45799 19.4816 5.45799 19.6326C5.45799 19.7487 5.41162 19.8764 5.4348 19.9925C5.45799 20.1551 5.51596 20.2944 5.48118 20.457C5.45799 20.6079 5.45799 20.7589 5.45799 20.9214C5.51596 21.4091 5.75944 21.4672 5.81741 21.8271C5.8522 21.9549 5.75944 22.3729 5.81741 22.5703C5.8406 22.6516 5.91017 22.7909 5.95654 22.9767C5.97973 23.1276 5.94495 23.476 5.99133 23.6385C6.0493 23.8243 6.13046 23.9172 6.26959 24.1378C6.39712 24.3468 6.32756 24.37 6.40872 24.6487C6.4435 24.7881 6.59422 24.881 6.60582 25.0435C6.60582 25.1596 6.58263 25.3222 6.6406 25.4615C6.69857 25.5893 6.79133 25.6589 6.82611 25.7634C6.87249 25.8911 6.82611 25.9028 6.94205 26.1234C6.97683 26.2163 7.06959 26.2163 7.13915 26.3556C7.19712 26.4601 7.20872 26.5994 7.26669 26.6923C7.35944 26.8317 7.46379 26.9246 7.51017 27.0871C7.55654 27.2381 7.61451 27.3774 7.69567 27.5168C7.96234 27.9348 8.19422 27.8767 8.41451 28.1786C8.50727 28.2831 8.60002 28.7011 8.72756 28.8521C8.78553 28.9217 8.90147 29.003 9.02901 29.1656C9.12176 29.2817 9.2377 29.6068 9.34205 29.7462C9.46959 29.8971 9.59712 29.9319 9.80582 30.0713C10.0145 30.199 9.95654 30.2571 10.1536 30.4661C10.2464 30.5706 10.4203 30.6054 10.5015 30.7447C10.5594 30.8492 10.6058 31.0002 10.7102 31.1047C10.8145 31.1976 10.9189 31.2208 11 31.3021C11.0928 31.395 11.0696 31.4298 11.2667 31.5808C11.3363 31.6504 11.4174 31.6156 11.5449 31.7085C11.6377 31.7782 11.7073 31.8943 11.8116 31.9523C11.9507 32.0336 12.1015 32.0801 12.2058 32.2078C12.3102 32.3239 12.4261 32.4168 12.5652 32.5097C12.971 32.7884 13.1797 32.6142 13.4928 32.8C13.6087 32.858 13.887 33.1831 14.0609 33.2644C14.1421 33.2993 14.2812 33.3341 14.4667 33.4154C14.6058 33.4734 14.8377 33.7405 15 33.7986C15.1855 33.8682 15.3131 33.8566 15.5565 33.8914C15.8 33.9263 15.7768 33.9843 16.0435 34.1005C16.171 34.1585 16.3334 34.1121 16.4725 34.205C16.5652 34.263 16.6812 34.3907 16.8203 34.4372C16.9478 34.472 17.0638 34.4488 17.1681 34.4836C17.2957 34.5185 17.2841 34.5649 17.5276 34.6114C17.6203 34.6346 17.6783 34.5765 17.829 34.6114C17.945 34.6346 18.0609 34.7043 18.1768 34.7159C18.3392 34.7159 18.4899 34.7159 18.6406 34.7739C18.7797 34.832 18.9305 34.8668 19.0928 34.89C19.5797 34.9597 19.6841 34.7159 20.0551 34.7391C20.1942 34.7391 20.5768 34.9016 20.7739 34.9133C20.8667 34.9133 21.0058 34.8784 21.2029 34.8668C21.3536 34.8668 21.6783 34.9945 21.8522 34.9829C22.0493 34.9713 22.1536 34.9016 22.3971 34.8204C22.629 34.7507 22.6406 34.8204 22.9305 34.7971C23.0696 34.7971 23.1971 34.681 23.3594 34.7043C23.4754 34.7159 23.6261 34.7855 23.7652 34.7623C23.8928 34.7391 23.9855 34.6694 24.1015 34.6578C24.2406 34.6462 24.2406 34.681 24.4841 34.623C24.5768 34.5997 24.6 34.5185 24.7623 34.4836C24.8783 34.4604 25.0058 34.4836 25.1102 34.4256C25.2609 34.3675 25.3884 34.2862 25.5507 34.2746C25.7015 34.2746 25.8522 34.2282 26.0029 34.1817C26.4783 34.0308 26.4667 33.7637 26.8145 33.636C26.942 33.5779 27.3594 33.5547 27.5334 33.485C27.6145 33.4502 27.7305 33.3573 27.9044 33.2644C28.0319 33.1948 28.3913 33.1715 28.542 33.0786C28.7044 32.9858 28.7739 32.8696 28.9594 32.6955C29.1334 32.5329 29.1681 32.5794 29.4232 32.44C29.5392 32.3703 29.6203 32.2194 29.771 32.1613C29.8754 32.1265 30.0493 32.1149 30.1652 32.0336C30.2696 31.9523 30.3276 31.8594 30.4203 31.7898C30.5363 31.7085 30.5478 31.7433 30.7449 31.5924C30.8261 31.5343 30.8145 31.453 30.9305 31.3485C31.0232 31.2673 31.1507 31.2324 31.2203 31.1395C31.3247 31.0234 31.4174 30.8957 31.5565 30.8144C31.6841 30.7447 31.8116 30.6402 31.9276 30.5357C32.287 30.1874 32.1594 29.9552 32.4145 29.6881C32.4957 29.572 32.8667 29.3862 32.9942 29.2353C33.0522 29.1656 33.0986 29.0262 33.2261 28.8753C33.3189 28.7592 33.6203 28.585 33.7131 28.4341C33.8174 28.2715 33.8406 28.1554 33.9218 27.9115C34.0029 27.6793 34.0609 27.7142 34.2348 27.4819C34.316 27.3658 34.3044 27.1916 34.4319 27.0755C34.5131 26.9942 34.6638 26.9246 34.7334 26.7968C34.7913 26.6807 34.7913 26.5646 34.8493 26.4601C34.9189 26.344 34.9536 26.3672 35.0696 26.1466C35.116 26.0537 35.0696 25.984 35.1276 25.8447C35.1739 25.7402 35.2783 25.6473 35.3015 25.5312C35.3478 25.3802 35.3594 25.2293 35.4522 25.09C35.5334 24.9622 35.6145 24.8345 35.6725 24.6836C35.8348 24.2191 35.6493 24.0682 35.7421 23.7082C35.7652 23.5689 36.0319 23.2437 36.0667 23.0463C36.0899 22.9651 36.0667 22.8141 36.1247 22.6167C36.1594 22.4774 36.3449 22.1755 36.3797 22.0129C36.4145 21.8271 36.3797 21.6994 36.3449 21.444C36.3218 21.2001 36.3913 21.2001 36.4377 20.9214C36.4609 20.7821 36.3797 20.6312 36.4377 20.4802C36.4725 20.3757 36.5884 20.2364 36.5884 20.097V20.0738Z" fill="#EFF7F9"/>
  </g>
  <path d="M29.9564 24.9043C29.8752 25.0436 29.8752 25.183 29.8405 25.3339C29.8173 25.4384 29.7245 25.5429 29.6897 25.6474C29.6434 25.7868 29.6897 25.8564 29.655 25.9377L28.7158 25.5777C28.7854 25.3804 28.9941 25.1946 29.0521 25.0901C29.1216 24.9391 29.0984 24.7649 29.168 24.6604C29.2607 24.5327 29.3187 24.4166 29.3651 24.2889C29.4347 24.1031 29.3303 24.1263 29.3303 23.9638C29.3303 23.8825 29.4231 23.8012 29.3883 23.5922C29.3767 23.5109 29.4463 23.36 29.4578 23.2787C29.4578 23.151 29.4578 23.0232 29.4926 22.8839C29.5042 22.8026 29.5506 22.7097 29.597 22.5936C29.655 22.4543 29.6434 22.0827 29.7013 21.955C29.7593 21.8156 29.8984 21.6299 29.8521 21.5137C29.8752 21.3628 29.7477 21.0841 29.7825 20.7938C29.8057 20.6545 29.8173 20.5152 29.8636 20.3758C29.8984 20.2481 29.91 20.1087 29.8984 19.981L29.8636 19.714C29.8405 19.5978 29.8289 19.4701 29.8405 19.354H30.8492C30.8492 19.5862 30.8028 19.5862 30.7912 19.714C30.7912 19.8185 30.8376 19.923 30.8376 20.0507C30.8376 20.19 30.7332 20.3178 30.6868 20.4223C30.6289 20.5732 30.7216 20.7125 30.6984 20.8519C30.6521 21.1189 30.5825 21.1189 30.6173 21.3512C30.6521 21.595 30.6984 21.7111 30.6752 21.8969C30.6636 22.0595 30.4781 22.3498 30.455 22.4891C30.4202 22.6749 30.4549 22.8258 30.4318 22.9071C30.397 23.0929 30.1651 23.4296 30.1419 23.5574C30.0607 23.9057 30.281 24.045 30.1419 24.4979C30.0955 24.6488 30.0492 24.7766 29.968 24.9043H29.9564Z" fill="#07374F"/>
  <path d="M26.6057 30.6983C26.4781 30.7795 26.3854 30.9073 26.2926 31.0234C26.223 31.1163 26.0955 31.1511 26.0028 31.2324C25.8868 31.3253 25.8984 31.4182 25.8173 31.4646L25.1912 30.675C25.3535 30.5473 25.6201 30.5009 25.7129 30.4196C25.8404 30.3267 25.91 30.1641 26.0144 30.1061C26.1535 30.0364 26.2578 29.9551 26.3506 29.8738C26.4897 29.7345 26.3854 29.7113 26.4665 29.572C26.5013 29.5023 26.6173 29.4791 26.6752 29.2701C26.6984 29.1888 26.8259 29.0959 26.8607 29.0146C26.9187 28.8985 26.9767 28.794 27.0578 28.6779C27.1042 28.6198 27.1854 28.5501 27.2665 28.4573C27.3825 28.3527 27.5216 28.016 27.6144 27.9231C27.7187 27.8302 27.9274 27.7141 27.9274 27.5748C27.997 27.4354 28.0086 27.1452 28.1361 26.8897C28.2057 26.762 28.2752 26.6459 28.368 26.5414C28.4491 26.4369 28.5071 26.3091 28.5419 26.193C28.5651 26.1117 28.5767 26.0188 28.5999 25.9376C28.623 25.8214 28.6578 25.7053 28.7042 25.6008L29.6433 25.9608C29.5506 26.1814 29.5158 26.1698 29.4578 26.2859C29.4115 26.3788 29.423 26.4949 29.3767 26.611C29.3187 26.7388 29.1796 26.82 29.11 26.9013C29.0057 27.0174 29.0288 27.1916 28.9593 27.3077C28.8201 27.5516 28.7622 27.5167 28.6926 27.749C28.623 27.9812 28.6346 28.1205 28.5303 28.2715C28.4491 28.4108 28.1709 28.6082 28.0897 28.7359C27.9854 28.8985 27.939 29.0378 27.8926 29.1075C27.7767 29.2584 27.4288 29.4791 27.3593 29.5836C27.139 29.8622 27.2665 30.0829 26.9419 30.4428C26.8375 30.5473 26.71 30.6518 26.5941 30.7331L26.6057 30.6983Z" fill="#07374F"/>
  <path d="M20.3794 33.1599C20.2287 33.1018 20.078 33.1367 19.9156 33.125C19.7997 33.125 19.6837 33.0438 19.5678 33.0321C19.4171 33.0089 19.3591 33.0554 19.2664 33.0321L19.5098 32.0568C19.7069 32.1148 19.904 32.2774 20.02 32.3122C20.1707 32.3587 20.333 32.289 20.449 32.3471C20.5881 32.4167 20.7156 32.4284 20.8432 32.4516C21.0287 32.4748 20.9823 32.3819 21.133 32.3355C21.2026 32.3122 21.3069 32.3819 21.4809 32.2774C21.5504 32.231 21.7127 32.2542 21.7823 32.231C21.8982 32.1961 22.0142 32.1497 22.1417 32.1265C22.2113 32.1148 22.3156 32.1265 22.4316 32.1265C22.5011 32.1265 22.6171 32.0916 22.733 32.0452C22.849 31.9987 22.9533 31.9523 23.0229 31.9523C23.162 31.9523 23.3939 31.9871 23.4635 31.8826C23.6026 31.8362 23.7649 31.5923 24.02 31.4646C24.1359 31.3949 24.2635 31.3485 24.4026 31.3137C24.5301 31.2672 24.6345 31.1975 24.7272 31.1163C24.7968 31.0582 24.8548 30.9885 24.9127 30.9305C24.9939 30.8492 25.0866 30.7679 25.1794 30.6982L25.8055 31.4878C25.62 31.6388 25.5968 31.6039 25.4809 31.6736C25.3881 31.7317 25.3417 31.8362 25.2258 31.9058C25.1098 31.9871 24.9475 31.9755 24.8316 32.0103C24.6693 32.0452 24.5997 32.1961 24.4722 32.2658C24.2171 32.3819 24.1707 32.3122 23.9852 32.4748C23.7881 32.6257 23.7069 32.7186 23.5214 32.7999C23.3591 32.858 23.0113 32.8348 22.8722 32.8696C22.6751 32.916 22.5475 32.9973 22.4664 33.0205C22.2693 33.0554 21.8635 32.9741 21.7359 32.9857C21.5504 33.0089 21.4461 33.0786 21.3185 33.1367C21.191 33.1947 21.0519 33.276 20.7968 33.2528C20.6345 33.2528 20.4837 33.2295 20.333 33.1715L20.3794 33.1599Z" fill="#07374F"/>
  <path d="M14.5824 29.781C14.5128 29.63 14.3853 29.5487 14.2809 29.4326C14.1998 29.3513 14.1766 29.2236 14.107 29.1307C14.0143 29.003 13.9331 29.0146 13.8867 28.9333L14.7215 28.376C14.8374 28.5501 14.8722 28.8172 14.9302 28.9217C15.0114 29.0611 15.1737 29.1423 15.2201 29.2584C15.2664 29.3978 15.336 29.5255 15.4172 29.6184C15.5331 29.7694 15.5679 29.6648 15.707 29.7694C15.7766 29.8158 15.7998 29.9203 15.9853 30.0016C16.0548 30.0364 16.1476 30.1758 16.2172 30.2106C16.3215 30.2686 16.4258 30.3499 16.5302 30.4312C16.5882 30.4777 16.6577 30.5589 16.7273 30.6634C16.8085 30.7912 17.1447 30.9305 17.2258 31.0466C17.3186 31.1511 17.423 31.3601 17.5505 31.3717C17.678 31.4414 17.9679 31.453 18.223 31.5807C18.3505 31.6388 18.4548 31.7201 18.5708 31.8014C18.6751 31.871 18.7911 31.9291 18.9186 31.9523L19.1737 31.9871C19.2896 32.0104 19.4056 32.0104 19.5099 32.0568L19.2664 33.0322C19.023 32.9741 19.0345 32.9393 18.9186 32.8812C18.8143 32.8348 18.6983 32.858 18.5708 32.8116C18.4316 32.7651 18.3389 32.6258 18.2577 32.5561C18.1302 32.4516 17.9679 32.4748 17.8403 32.4052C17.5969 32.2658 17.6201 32.1961 17.3998 32.1381C17.1563 32.0684 17.0287 32.0568 16.8664 31.9523C16.7157 31.8594 16.5418 31.5691 16.4258 31.4762C16.2635 31.3601 16.136 31.3021 16.0664 31.244C15.9157 31.1279 15.7418 30.7447 15.6374 30.6634C15.3824 30.408 15.1505 30.5241 14.8374 30.1525C14.7331 30.0364 14.6519 29.9087 14.594 29.7694L14.5824 29.781Z" fill="#07374F"/>
  <path d="M11.7418 23.7315C11.7418 23.569 11.6722 23.4412 11.6258 23.3019C11.591 23.1974 11.6258 23.0697 11.591 22.9652C11.5563 22.8142 11.4867 22.791 11.4751 22.6981L12.4606 22.5239C12.4954 22.7329 12.4142 22.9884 12.4258 23.1161C12.4374 23.2787 12.5534 23.418 12.5418 23.5457C12.5302 23.6967 12.5418 23.836 12.5534 23.9637C12.5881 24.1611 12.6693 24.0799 12.7505 24.2308C12.7968 24.3005 12.7505 24.4166 12.8896 24.5792C12.9476 24.6372 12.9592 24.8114 12.9939 24.8811C13.0519 24.9856 13.1099 25.1017 13.1563 25.241C13.1794 25.3107 13.191 25.4268 13.2142 25.5429C13.2258 25.6939 13.4345 26.0074 13.4577 26.1467C13.4809 26.286 13.4577 26.5299 13.5505 26.5995C13.6084 26.7389 13.8635 26.9131 13.991 27.1685C14.0606 27.2962 14.107 27.424 14.1418 27.5633C14.1765 27.691 14.2461 27.8071 14.3273 27.9116L14.5012 28.109C14.5823 28.2019 14.6635 28.2832 14.7215 28.3877L13.8867 28.9451C13.7592 28.7477 13.7823 28.7244 13.7244 28.6083C13.678 28.5154 13.5736 28.4574 13.5041 28.3413C13.4345 28.2252 13.4461 28.0626 13.4229 27.9465C13.3881 27.7839 13.2374 27.7143 13.1794 27.5865C13.0751 27.3311 13.1331 27.2962 12.9823 27.1105C12.82 26.9247 12.7273 26.8434 12.6461 26.6808C12.5765 26.5299 12.5881 26.1931 12.5302 26.0538C12.4606 25.8796 12.3679 25.7635 12.3447 25.6822C12.2751 25.5081 12.3099 25.1017 12.2635 24.9739C12.1592 24.6372 11.9041 24.6256 11.7881 24.1611C11.7534 24.0102 11.7302 23.8709 11.7302 23.7199L11.7418 23.7315Z" fill="#07374F"/>
  <path d="M11.3708 17.078C11.4288 16.9271 11.4056 16.7877 11.4056 16.6368C11.4056 16.5323 11.4752 16.4162 11.4984 16.3001C11.5215 16.1491 11.452 16.1027 11.4752 16.0098L12.4607 16.1839C12.4259 16.3929 12.2636 16.6136 12.2288 16.7297C12.194 16.8922 12.252 17.0548 12.194 17.1825C12.1244 17.3219 12.0897 17.4496 12.0665 17.5773C12.0317 17.7747 12.136 17.7283 12.1592 17.8908C12.1708 17.9721 12.1013 18.065 12.1708 18.2624C12.194 18.3437 12.1476 18.5062 12.1708 18.5875C12.1824 18.7152 12.2056 18.843 12.2056 18.9823C12.2056 19.0636 12.1824 19.1681 12.1476 19.2842C12.1128 19.4351 12.194 19.7951 12.1476 19.9344C12.1128 20.0738 12.0085 20.2828 12.0781 20.3989C12.0781 20.5498 12.2404 20.8053 12.2636 21.0956C12.2636 21.2349 12.2636 21.3859 12.2636 21.5252C12.252 21.6645 12.2636 21.7923 12.2984 21.92C12.3215 22.0013 12.3563 22.0942 12.3795 22.1754C12.4143 22.2916 12.4491 22.4077 12.4607 22.5238L11.4752 22.698C11.4404 22.4657 11.4752 22.4657 11.4752 22.3264C11.4752 22.2219 11.394 22.129 11.3824 22.0013C11.3708 21.8619 11.4404 21.7226 11.4636 21.6065C11.4868 21.4555 11.3824 21.3162 11.3824 21.1885C11.3824 20.9098 11.4404 20.8982 11.3824 20.6776C11.3128 20.4453 11.2433 20.3408 11.2317 20.1551C11.2317 19.9925 11.3592 19.679 11.3476 19.528C11.3476 19.3423 11.3013 19.2029 11.3013 19.11C11.3013 18.9242 11.4636 18.5527 11.4636 18.4133C11.4868 18.0534 11.2433 17.9605 11.2897 17.4844C11.3013 17.3335 11.336 17.1825 11.3824 17.0548L11.3708 17.078Z" fill="#07374F"/>
  <path d="M13.3651 10.7034C13.4694 10.5872 13.5158 10.4479 13.5738 10.3086C13.6201 10.2041 13.7245 10.1228 13.7825 10.0299C13.8636 9.90217 13.8288 9.8325 13.8868 9.75122L14.7216 10.3086C14.6057 10.4827 14.3622 10.6105 14.2926 10.715C14.1999 10.8427 14.1767 11.0169 14.0839 11.1098C13.968 11.2143 13.8868 11.3188 13.8172 11.4233C13.7129 11.5858 13.8172 11.5858 13.7825 11.7484C13.7709 11.8297 13.6665 11.8877 13.6549 12.0967C13.6549 12.178 13.5506 12.3057 13.539 12.3986C13.5158 12.5147 13.481 12.6425 13.423 12.7702C13.3999 12.8399 13.3303 12.9328 13.2607 13.0373C13.168 13.1534 13.1216 13.5249 13.0404 13.6411C12.9593 13.7572 12.7854 13.9197 12.8086 14.0475C12.7622 14.1868 12.8317 14.4887 12.7506 14.7674C12.7042 14.9067 12.6694 15.0344 12.5999 15.1622C12.5419 15.2783 12.5071 15.406 12.4955 15.5453V15.8124C12.4955 15.9285 12.4723 16.0562 12.4491 16.1724L11.4636 15.9982C11.4984 15.766 11.5448 15.7776 11.5796 15.6498C11.6028 15.5453 11.5796 15.4408 11.6028 15.3131C11.6259 15.1738 11.7535 15.0693 11.8114 14.9764C11.8926 14.837 11.8346 14.6745 11.881 14.5584C11.9738 14.3029 12.0433 14.3145 12.0433 14.0823C12.0549 13.8385 12.0317 13.7107 12.0897 13.5366C12.1361 13.374 12.368 13.1302 12.4143 12.9908C12.4723 12.805 12.4955 12.6657 12.5187 12.5844C12.5535 12.4915 12.6462 12.3754 12.7274 12.2709C12.8201 12.1664 12.9013 12.0619 12.9245 11.9922C13.0636 11.6671 12.8897 11.4929 13.11 11.0633C13.1796 10.9356 13.2723 10.8079 13.3651 10.6917V10.7034Z" fill="#07374F"/>
  <path d="M18.2231 6.08218C18.3854 6.05896 18.5013 5.96607 18.6521 5.8964C18.7564 5.84995 18.8955 5.84995 18.9999 5.81512C19.1506 5.78028 19.1738 5.699 19.2666 5.67578L19.51 6.65114C19.3129 6.69759 19.0579 6.65114 18.9419 6.66276C18.7796 6.68598 18.6752 6.82532 18.5477 6.83693C18.397 6.83693 18.2695 6.88337 18.1535 6.92982C17.9796 6.99949 18.0608 7.05755 17.9448 7.17366C17.8868 7.23172 17.7709 7.22011 17.655 7.38267C17.6086 7.45234 17.4579 7.49878 17.3999 7.55684C17.3187 7.63812 17.226 7.7194 17.11 7.81229C17.0521 7.85874 16.9477 7.90518 16.8434 7.95163C16.7158 8.00969 16.4839 8.29997 16.3564 8.35803C16.2289 8.41609 15.997 8.47414 15.9622 8.60187C15.8579 8.70637 15.7767 8.98505 15.5912 9.20567C15.4984 9.31017 15.3941 9.40306 15.2897 9.48434C15.1854 9.56562 15.1042 9.67012 15.0347 9.78624L14.9187 10.0185C14.8608 10.123 14.8144 10.2275 14.7332 10.3204L13.8984 9.76302C14.026 9.56562 14.0608 9.58884 14.1419 9.48434C14.2115 9.40306 14.2231 9.28695 14.3042 9.18244C14.3854 9.06633 14.5477 9.01988 14.6405 8.96182C14.768 8.86893 14.7912 8.69476 14.8839 8.60187C15.081 8.40447 15.139 8.43931 15.255 8.24191C15.3825 8.03291 15.4057 7.90518 15.5564 7.77746C15.6839 7.66134 15.997 7.54523 16.1129 7.46395C16.2637 7.33622 16.3448 7.22011 16.4144 7.16205C16.4955 7.10399 16.6347 7.04593 16.7622 6.99949C16.9013 6.95304 17.0289 6.91821 17.0752 6.87176C17.226 6.76726 17.2955 6.66276 17.3767 6.54664C17.4579 6.43053 17.5506 6.3028 17.7825 6.20991C17.9216 6.14024 18.0724 6.09379 18.2231 6.07057V6.08218Z" fill="#07374F"/>
  <path d="M24.8895 6.63942C25.0055 6.75553 25.1446 6.80198 25.2837 6.87165C25.3881 6.91809 25.4577 7.03421 25.5504 7.10387C25.678 7.19677 25.7475 7.16193 25.8171 7.2316L25.191 8.02118C25.0287 7.89345 24.9127 7.64961 24.8316 7.56833C24.704 7.46383 24.5417 7.45222 24.449 7.34771C24.3562 7.2316 24.2519 7.15032 24.1475 7.08065C23.9852 6.97615 23.9852 7.08065 23.8345 7.04582C23.7533 7.04582 23.7069 6.91809 23.4982 6.9297C23.4171 6.9297 23.2895 6.83681 23.2084 6.8252C23.0924 6.80198 22.9649 6.79036 22.8374 6.74392C22.7678 6.7207 22.6751 6.67425 22.5707 6.61619C22.5127 6.58136 22.3852 6.55814 22.2693 6.54652C22.1533 6.53491 22.0258 6.5233 21.9678 6.48847C21.8403 6.4188 21.6548 6.29107 21.5388 6.33752C21.4693 6.33752 21.3649 6.36074 21.249 6.39558C21.133 6.43041 20.9939 6.45363 20.8548 6.46524C20.7156 6.46524 20.5881 6.45363 20.449 6.43041C20.3214 6.40719 20.1939 6.43041 20.078 6.46524L19.8345 6.55814C19.7301 6.59297 19.6142 6.63942 19.5098 6.66264L19.2664 5.68728C19.5098 5.62922 19.5098 5.66405 19.649 5.65244C19.7649 5.64083 19.8461 5.57116 19.9852 5.54794C20.1243 5.53633 20.2751 5.606 20.391 5.62922C20.5533 5.65244 20.6924 5.57116 20.8316 5.57116C21.1214 5.57116 21.1214 5.66405 21.3533 5.606C21.5968 5.54794 21.7243 5.5131 21.9098 5.53633C22.0837 5.54794 22.3736 5.74533 22.5243 5.78017C22.7214 5.82661 22.8606 5.82661 22.9533 5.84984C23.1388 5.90789 23.4635 6.17496 23.5794 6.2214C23.9156 6.36074 24.0895 6.17496 24.5301 6.40719C24.6693 6.48847 24.7968 6.56975 24.9011 6.68586L24.8895 6.63942Z" fill="#07374F"/>
  <path d="M29.1912 11.795C29.2144 11.9459 29.3187 12.0621 29.3999 12.2014C29.4578 12.2943 29.4578 12.4336 29.4926 12.5265C29.5506 12.6659 29.6317 12.6775 29.6549 12.7704L28.7158 13.1303C28.6346 12.9329 28.6694 12.6659 28.6346 12.5381C28.5883 12.3872 28.4491 12.2711 28.4375 12.1433C28.426 11.9924 28.3796 11.8647 28.3332 11.7369C28.2636 11.5512 28.1941 11.644 28.0897 11.5163C28.0317 11.4583 28.0433 11.3421 27.881 11.2144C27.8231 11.168 27.7767 11.0054 27.7187 10.9474C27.6375 10.8545 27.5564 10.7616 27.4868 10.6338C27.4404 10.5642 27.4057 10.4713 27.3593 10.3552C27.3129 10.2158 27.0462 9.96038 26.9883 9.83266C26.9419 9.69332 26.9071 9.46109 26.7912 9.41464C26.6984 9.29853 26.4202 9.19403 26.2346 8.97341C26.1419 8.86891 26.0491 8.7644 25.9912 8.63668C25.9216 8.52056 25.8288 8.43928 25.7245 8.358C25.6549 8.31156 25.5854 8.26511 25.5042 8.21866C25.3999 8.16061 25.3071 8.10255 25.2144 8.02127L25.8404 7.23169C26.0259 7.38264 26.0028 7.41747 26.0955 7.51036C26.1767 7.58003 26.281 7.61487 26.3854 7.70776C26.4897 7.80065 26.5245 7.96321 26.5825 8.06771C26.652 8.20705 26.8259 8.24189 26.9071 8.34639C27.081 8.56701 27.0346 8.61345 27.2202 8.75279C27.4173 8.90374 27.5332 8.95019 27.6491 9.08952C27.7535 9.21725 27.8231 9.55398 27.9158 9.6701C28.0202 9.83266 28.1361 9.92555 28.1825 9.99522C28.2868 10.1462 28.3448 10.5642 28.426 10.6687C28.5999 10.9822 28.8549 10.9357 29.0636 11.3654C29.1332 11.5047 29.1796 11.644 29.2144 11.795H29.1912Z" fill="#07374F"/>
  <path d="M30.7331 18.2857C30.6983 18.4367 30.7563 18.576 30.7795 18.727C30.7911 18.8315 30.7447 18.9592 30.7447 19.0637C30.7447 19.2147 30.8259 19.2495 30.8143 19.3424H29.8056C29.8056 19.1334 29.9331 18.8895 29.9447 18.7618C29.9563 18.5992 29.8751 18.4483 29.9099 18.309C29.9447 18.158 29.9679 18.0187 29.9679 17.8909C29.9679 17.6936 29.8751 17.7516 29.8287 17.6007C29.8056 17.531 29.8635 17.4149 29.7592 17.2291C29.7128 17.1594 29.736 16.9853 29.7128 16.9156C29.678 16.7995 29.6432 16.6717 29.6201 16.5324C29.6085 16.4511 29.6201 16.3466 29.6201 16.2189C29.6432 16.0679 29.4925 15.7196 29.5041 15.5803C29.5157 15.4293 29.5853 15.2087 29.5041 15.1158C29.4693 14.9649 29.2722 14.7442 29.1911 14.4656C29.1563 14.3262 29.1331 14.1869 29.1215 14.0476C29.1215 13.9082 29.0751 13.7921 29.0172 13.6644L28.8896 13.4321C28.8316 13.3276 28.7737 13.2231 28.7505 13.107L29.6896 12.7471C29.7708 12.9677 29.736 12.9793 29.7708 13.107C29.794 13.2115 29.8867 13.2812 29.9215 13.4089C29.9679 13.5366 29.9215 13.6992 29.9215 13.8037C29.9215 13.9663 30.049 14.0708 30.0838 14.1985C30.1418 14.4656 30.0838 14.4888 30.1882 14.6978C30.3041 14.9184 30.3853 15.0113 30.4316 15.1855C30.4664 15.348 30.3969 15.6732 30.4316 15.8241C30.4664 16.0099 30.5244 16.1376 30.5476 16.2189C30.5824 16.4047 30.478 16.7995 30.5012 16.9272C30.5476 17.2872 30.7911 17.3336 30.8259 17.8097C30.8374 17.9606 30.8259 18.1116 30.8027 18.2509L30.7331 18.2857Z" fill="#07374F"/>
  <path d="M34.884 19.3538C34.884 19.2493 34.8144 19.2145 34.8028 19.0519C34.8028 18.9358 34.8376 18.7965 34.8144 18.6804C34.7912 18.5178 34.7332 18.3669 34.768 18.2043C34.7796 18.123 34.7912 18.0533 34.7912 17.9721C34.7912 17.8908 34.7912 17.8095 34.768 17.7282C34.6984 17.2173 34.4434 17.1709 34.3854 16.7877C34.3622 16.6484 34.4086 16.2187 34.3622 16.0213C34.339 15.9285 34.2579 15.8007 34.2115 15.6033C34.1883 15.522 34.1883 15.3943 34.1883 15.2666C34.1883 15.1389 34.1651 15.0111 34.1419 14.9183C34.0724 14.7325 33.968 14.6396 33.8289 14.419C33.6897 14.21 33.7593 14.1751 33.6666 13.8964C33.6086 13.7571 33.4579 13.6642 33.4347 13.5017C33.4115 13.3855 33.4347 13.2114 33.3651 13.0836C33.3071 12.9559 33.2144 12.8862 33.168 12.7817C33.11 12.654 33.1448 12.6424 33.0057 12.4218L32.8318 12.5263L33.0057 12.4334C32.9709 12.3637 32.9013 12.3289 32.8318 12.2592C32.8202 12.236 32.797 12.236 32.7854 12.2128C32.7274 12.1083 32.6926 11.9689 32.6231 11.8761C32.5187 11.7483 32.4144 11.6322 32.3332 11.4813C32.2753 11.3419 32.1825 11.2026 32.0897 11.0632C31.7883 10.6568 31.5564 10.7265 31.2897 10.4478C31.1854 10.3549 31.0347 9.94855 30.8955 9.7976C30.8376 9.72793 30.71 9.64665 30.5477 9.50731C30.4318 9.40281 30.2811 9.07769 30.1419 8.96157C29.9912 8.83385 29.8753 8.7874 29.6318 8.6829C29.3999 8.5784 29.4347 8.52034 29.2144 8.32294C29.11 8.23005 28.9245 8.21844 28.8202 8.0791C28.7854 8.03266 28.7506 7.96299 28.7042 7.90493C28.6579 7.84687 28.6115 7.78882 28.5419 7.75398C28.426 7.68431 28.31 7.6727 28.2057 7.60303C28.0897 7.52175 28.1129 7.48692 27.8926 7.35919C27.8115 7.30113 27.7419 7.33597 27.6028 7.25469C27.4984 7.19663 27.4057 7.10374 27.2897 7.05729C27.1274 6.99924 26.9767 6.97601 26.8492 6.87151C26.7216 6.76701 26.5825 6.68573 26.4434 6.61606C25.968 6.41866 25.8057 6.61606 25.4347 6.48833C25.3651 6.46511 25.2492 6.38383 25.1216 6.30255C24.9941 6.20966 24.855 6.1516 24.7622 6.11677C24.6695 6.09354 24.5187 6.09354 24.3216 6.0471C24.1709 6.01226 23.8811 5.79164 23.7071 5.75681C23.51 5.72198 23.3825 5.76842 23.1158 5.79164C22.8608 5.81487 22.8724 5.73359 22.5825 5.67553C22.5129 5.66392 22.4318 5.67553 22.3622 5.67553C22.3158 5.67553 22.2695 5.67553 22.2115 5.67553C22.0955 5.61747 21.968 5.55941 21.8753 5.5478C21.8521 5.5478 21.8289 5.5478 21.8173 5.5478C21.7825 5.5478 21.7593 5.52458 21.7245 5.52458C21.5854 5.52458 21.4811 5.57103 21.3651 5.55941C21.3071 5.55941 21.2724 5.53619 21.2376 5.52458C21.2144 5.52458 21.2028 5.52458 21.1796 5.51297C21.1332 5.51297 21.0753 5.48975 20.9825 5.48975C20.8897 5.48975 20.8202 5.52458 20.739 5.55941C20.7158 5.55941 20.7042 5.57103 20.6695 5.57103C20.5535 5.57103 20.4144 5.53619 20.2984 5.55941C20.2405 5.55941 20.1941 5.58264 20.1361 5.59425C20.0782 5.58264 20.0086 5.55941 19.939 5.57103C19.8926 5.57103 19.8579 5.59425 19.8115 5.61747C19.7303 5.60586 19.6492 5.59425 19.568 5.59425C19.4869 5.59425 19.4057 5.59425 19.3245 5.61747C18.8144 5.68714 18.768 5.94259 18.3854 6.00065C18.2463 6.02387 17.8173 5.97743 17.6202 6.02387C17.5274 6.0471 17.3999 6.12838 17.2028 6.17482C17.1216 6.19805 16.9941 6.19805 16.8666 6.19805C16.739 6.19805 16.6115 6.22127 16.5187 6.24449C16.3332 6.31416 16.2405 6.41866 16.0202 6.558C15.8115 6.69734 15.7767 6.62767 15.4984 6.72056C15.3593 6.77862 15.2666 6.92957 15.1042 6.95279C14.9883 6.97601 14.8144 6.95279 14.6869 7.02246C14.5593 7.08052 14.4898 7.17341 14.3854 7.21985C14.2579 7.27791 14.2463 7.24308 14.026 7.38241C13.9332 7.42886 13.9332 7.52175 13.7941 7.60303C13.6898 7.66109 13.5506 7.69592 13.4579 7.76559C13.3303 7.8701 13.2144 7.9746 13.0637 8.05588C12.9245 8.11394 12.7854 8.19522 12.6463 8.29972C12.2405 8.60162 12.31 8.83385 12.0318 9.10091C11.939 9.20541 11.5332 9.35636 11.3825 9.4957C11.3129 9.55376 11.2318 9.68148 11.0926 9.84404C10.9883 9.96016 10.6637 10.1111 10.5477 10.2504C10.4202 10.4014 10.3738 10.5175 10.2695 10.7614C10.1651 10.9936 10.1071 10.9587 9.91004 11.1794C9.81729 11.2839 9.80569 11.4696 9.66656 11.5742C9.62019 11.609 9.55062 11.6438 9.49265 11.6903C9.43468 11.7367 9.37671 11.7832 9.34192 11.8412C9.27236 11.9573 9.26076 12.0851 9.1912 12.1779C9.11004 12.2941 9.07526 12.2708 8.94772 12.4915C8.88975 12.5727 8.92453 12.654 8.84337 12.7934C8.7854 12.8979 8.69265 12.9908 8.64627 13.1069C8.5883 13.2694 8.56511 13.4204 8.46076 13.5481C8.35642 13.6642 8.27526 13.8036 8.20569 13.9545C8.00859 14.4306 8.20569 14.5931 8.07816 14.9647C8.05497 15.0344 7.97381 15.1505 7.89265 15.2782C7.7999 15.4059 7.74192 15.5453 7.70714 15.6382C7.68395 15.7311 7.68395 15.882 7.63758 16.0794C7.60279 16.2303 7.3825 16.5206 7.34772 16.6948C7.31294 16.8922 7.35932 17.0199 7.3825 17.287C7.40569 17.5424 7.32453 17.5308 7.26656 17.8211C7.25497 17.8908 7.26656 17.9721 7.26656 18.0417C7.27816 18.123 7.28975 18.2043 7.26656 18.274C7.23178 18.3901 7.12743 18.5178 7.11584 18.6688C7.11584 18.8081 7.16221 18.9126 7.15062 19.0287C7.13903 19.168 7.09265 19.168 7.08105 19.4235C7.08105 19.528 7.15062 19.5628 7.16221 19.7254C7.16221 19.8415 7.12743 19.9809 7.15062 20.097C7.17381 20.2595 7.23178 20.4105 7.197 20.573C7.1854 20.6543 7.17381 20.724 7.17381 20.8053C7.17381 20.8865 7.17381 20.9678 7.197 21.0491C7.26656 21.56 7.52163 21.6065 7.57961 21.9896C7.60279 22.129 7.55642 22.5586 7.60279 22.756C7.62598 22.8489 7.70714 22.9766 7.75352 23.174C7.77671 23.2553 7.77671 23.383 7.77671 23.5107C7.77671 23.6385 7.7999 23.7662 7.82308 23.8591C7.89265 24.0449 7.997 24.1378 8.13613 24.3584C8.27526 24.5674 8.20569 24.6022 8.29845 24.8809C8.35642 25.0202 8.50714 25.1131 8.53033 25.2757C8.55352 25.3918 8.53033 25.566 8.5999 25.6937C8.65787 25.8214 8.75062 25.8911 8.797 25.9956C8.85497 26.1233 8.82018 26.1349 8.95932 26.3555C9.00569 26.4484 9.08685 26.4484 9.17961 26.5878C9.23758 26.6923 9.27236 26.8316 9.34192 26.9245C9.44627 27.0522 9.55062 27.1683 9.63178 27.3193C9.68975 27.4586 9.7825 27.598 9.87526 27.7373C10.1767 28.1437 10.4086 28.074 10.6753 28.3527C10.7796 28.4456 10.9303 28.852 11.0695 29.003C11.1274 29.0726 11.255 29.1539 11.4173 29.2932C11.5332 29.3977 11.684 29.7229 11.8231 29.839C11.9738 29.9667 12.0897 30.0132 12.3332 30.1177C12.5651 30.2222 12.5303 30.2802 12.7506 30.4776C12.855 30.5705 13.0405 30.5821 13.1448 30.7215C13.1796 30.7679 13.2144 30.8376 13.2608 30.8956C13.3071 30.9537 13.3535 31.0117 13.4115 31.0466C13.5274 31.1162 13.655 31.1279 13.7477 31.1975C13.8637 31.2788 13.8405 31.3136 14.0608 31.4414C14.1419 31.4994 14.2115 31.4646 14.3506 31.5459C14.455 31.6039 14.5477 31.6968 14.6637 31.7433C14.826 31.8013 14.9767 31.8245 15.1042 31.929C15.2318 32.0336 15.3709 32.1148 15.51 32.1845C15.9854 32.3819 16.1477 32.1845 16.5187 32.3122C16.5883 32.3354 16.7042 32.4167 16.8318 32.498C16.9593 32.5909 17.0984 32.649 17.1912 32.6838C17.284 32.707 17.4347 32.707 17.6318 32.7535C17.7825 32.7883 18.0724 33.0089 18.2463 33.0437C18.4434 33.0786 18.5709 33.0321 18.8376 33.0089C18.9419 33.0089 18.9999 33.0089 19.0463 33.0321C19.0926 33.0554 19.139 33.067 19.2434 33.1018C19.2434 33.1018 19.3129 33.125 19.3709 33.1366C19.4405 33.1483 19.5216 33.1366 19.5912 33.1366C19.6028 33.1366 19.626 33.1366 19.6376 33.1366C19.7187 33.1715 19.7999 33.1947 19.8811 33.2063C19.9042 33.2063 19.9274 33.2063 19.9506 33.2063C20.0318 33.2411 20.1245 33.2876 20.2173 33.2876C20.31 33.2876 20.3796 33.2876 20.4608 33.2644C20.5767 33.2876 20.6926 33.3108 20.8086 33.3108C20.8202 33.3108 20.8318 33.3108 20.8434 33.3108C20.8782 33.3108 20.9245 33.3108 20.9825 33.3224C21.0753 33.3224 21.1448 33.2876 21.226 33.2528C21.2492 33.2528 21.2608 33.2411 21.2955 33.2411C21.4115 33.2411 21.5506 33.276 21.6666 33.2528C21.8289 33.2295 21.9796 33.1715 22.1419 33.2063C22.2231 33.2179 22.3042 33.2295 22.3854 33.2295C22.4666 33.2295 22.5477 33.2295 22.6289 33.2063C23.0811 33.1483 23.1738 32.9509 23.4521 32.858C23.4869 32.858 23.5216 32.858 23.5448 32.8347C23.5448 32.8347 23.5564 32.8347 23.568 32.8231C23.7071 32.7999 24.1245 32.8464 24.3216 32.7999C24.4144 32.7767 24.5419 32.6954 24.739 32.649C24.8202 32.6257 24.9477 32.6257 25.0753 32.6257C25.2028 32.6257 25.3303 32.6025 25.4231 32.5793C25.6086 32.5096 25.7013 32.4051 25.9216 32.2658C26.1303 32.1264 26.1651 32.1961 26.4434 32.1032C26.5825 32.0452 26.6753 31.8942 26.8376 31.871C26.9535 31.8478 27.1274 31.871 27.255 31.8013C27.3825 31.7433 27.4521 31.6504 27.5564 31.6039C27.684 31.5459 27.6955 31.5807 27.9158 31.4414C28.0086 31.3949 28.0086 31.302 28.1477 31.2207C28.2521 31.1627 28.3912 31.1279 28.484 31.0582C28.6115 30.9537 28.7274 30.8492 28.8782 30.7679C29.0173 30.7098 29.1564 30.6286 29.2955 30.5241C29.7013 30.2222 29.6318 29.9899 29.91 29.7229C30.0028 29.6184 30.4086 29.4674 30.5593 29.3281C30.6289 29.27 30.71 29.1423 30.8492 28.9797C30.9535 28.8636 31.2782 28.7127 31.3941 28.5733C31.5216 28.4224 31.568 28.3063 31.6724 28.0624C31.7767 27.8302 31.8347 27.865 32.0318 27.6444C32.1245 27.5399 32.1361 27.3541 32.2753 27.2496C32.3216 27.2148 32.3912 27.18 32.4492 27.1335C32.5071 27.0871 32.5651 27.0406 32.5999 26.9826C32.6695 26.8664 32.6811 26.7387 32.7506 26.6458C32.8318 26.5297 32.8666 26.5529 32.9941 26.3323L32.8202 26.2278L32.9941 26.3207C33.0521 26.2394 33.0173 26.1698 33.0984 26.0304C33.1564 25.9259 33.2492 25.833 33.2955 25.7169C33.3535 25.5544 33.3767 25.4034 33.4811 25.2757C33.5854 25.1596 33.6666 25.0202 33.7361 24.8693C33.9332 24.3932 33.7361 24.2306 33.8637 23.8591C33.8868 23.7894 33.968 23.6733 34.0492 23.5456C34.1419 23.4178 34.1999 23.2785 34.2347 23.1856C34.2579 23.0927 34.2579 22.9418 34.3042 22.7444C34.339 22.5934 34.5593 22.3031 34.5941 22.129C34.6289 21.9316 34.5825 21.8039 34.5593 21.5368C34.5361 21.2813 34.6173 21.2929 34.6753 21.0027C34.6868 20.933 34.6753 20.8517 34.6753 20.782C34.6637 20.7008 34.6521 20.6195 34.6753 20.5498C34.71 20.4337 34.8144 20.306 34.826 20.155C34.826 20.0157 34.7796 19.9112 34.7912 19.7951C34.8028 19.6557 34.8492 19.6557 34.8608 19.4003L34.884 19.3538ZM33.226 14.9183C33.3303 15.0111 33.284 15.255 33.3071 15.4059C33.3303 15.5453 33.4811 15.9168 33.4926 16.0678C33.4926 16.1955 33.4926 16.3116 33.5274 16.3929C33.5622 16.5439 33.6202 16.66 33.6666 16.7877C33.7013 16.869 33.6782 17.0548 33.7245 17.1244C33.8405 17.3102 33.7941 17.4263 33.8173 17.5076C33.8753 17.6702 33.968 17.6005 33.9796 17.8095C33.9796 17.8792 33.9796 17.9488 33.9796 18.0185C33.9796 18.0882 33.9564 18.1695 33.9332 18.2507C33.8984 18.3901 33.9912 18.5526 33.9796 18.7268C33.9796 18.7616 33.9564 18.8313 33.9448 18.8894C33.8753 18.8778 33.8173 18.8662 33.7477 18.8778C33.597 18.901 33.4579 18.9358 33.3071 18.901C33.168 18.8662 33.0173 18.8429 32.8666 18.8429C32.3912 18.8429 32.3216 19.0752 31.9506 19.0752C31.8231 19.0868 31.4405 18.9242 31.255 18.9242C31.1738 18.9242 31.0347 18.9707 30.8376 18.9707C30.8144 18.9707 30.7796 18.959 30.7564 18.9474C30.768 18.8662 30.7796 18.7849 30.768 18.7152C30.7448 18.5643 30.6984 18.4249 30.7216 18.274C30.7448 18.1346 30.7564 17.9837 30.7448 17.8327C30.71 17.3567 30.4666 17.3102 30.4202 16.9503C30.397 16.8225 30.5013 16.4277 30.4666 16.242C30.455 16.1607 30.397 16.033 30.3506 15.8472C30.3274 15.7078 30.397 15.3711 30.3506 15.2085C30.3042 15.0228 30.2231 14.9299 30.1071 14.7209C30.0028 14.5119 30.0608 14.4886 30.0028 14.2216C29.9796 14.0938 29.8521 13.9777 29.8405 13.8268C29.8405 13.7107 29.8869 13.5597 29.8405 13.432C29.8057 13.3391 29.7593 13.281 29.7245 13.2114C29.7477 13.2114 29.7825 13.2114 29.8173 13.2114C29.9216 13.1881 30.1187 13.2346 30.2115 13.2114C30.455 13.1301 30.5709 13.1881 30.6637 13.1765C30.8608 13.1417 30.7912 13.0372 31.0347 13.0604C31.1854 13.0604 31.3593 13.0953 31.5332 13.1417C31.684 13.1765 31.8811 13.1069 32.0782 13.1185C32.1129 13.1185 32.1825 13.1417 32.2405 13.1649C32.2637 13.1998 32.2868 13.2346 32.31 13.2578L32.4724 13.49C32.5535 13.6062 32.6115 13.7339 32.6463 13.8732C32.6811 14.0242 32.7274 14.1635 32.797 14.2912C32.9129 14.5815 33.1332 14.7905 33.1912 14.9415L33.226 14.9183ZM29.8753 19.9809C29.8869 20.1086 29.8753 20.2479 29.8405 20.3756C29.7941 20.515 29.7825 20.6543 29.7593 20.7937C29.7245 21.0839 29.8521 21.3626 29.8289 21.5136C29.8753 21.6297 29.7361 21.8271 29.6782 21.9548C29.6202 22.0825 29.6318 22.4541 29.5738 22.5934C29.5274 22.7095 29.4811 22.8024 29.4695 22.8837C29.4463 23.0231 29.4347 23.1508 29.4347 23.2785C29.4347 23.3598 29.3535 23.5107 29.3651 23.592C29.3999 23.801 29.3187 23.8823 29.3071 23.9636C29.3071 24.1261 29.4115 24.1029 29.3419 24.2887C29.2955 24.4048 29.2376 24.5325 29.1448 24.6603C29.0753 24.7648 29.0984 24.9389 29.0289 25.0899C28.9709 25.206 28.7738 25.3802 28.6926 25.5776C28.6926 25.5776 28.6926 25.5892 28.6926 25.6008C28.5187 25.6008 28.1593 25.4615 27.9738 25.4615C27.7535 25.4615 27.626 25.5195 27.3593 25.5776C27.0926 25.6356 27.0811 25.566 26.768 25.5427C26.6173 25.5427 26.4434 25.624 26.2695 25.5776C26.1419 25.5427 25.9912 25.4499 25.8289 25.4499C25.6782 25.4499 25.5622 25.5079 25.4347 25.4963C25.284 25.4963 25.284 25.4499 25.0057 25.4499C24.9013 25.4499 24.855 25.5195 24.6695 25.5195C24.6115 25.5195 24.5651 25.5195 24.5071 25.4963C24.5071 25.4731 24.5071 25.4499 24.5187 25.4266C24.5767 25.2757 24.6115 25.1247 24.6347 24.9622C24.7042 24.4513 24.4724 24.3468 24.5071 23.952C24.5071 23.8126 24.7042 23.4062 24.7158 23.2088C24.7158 23.1159 24.6926 22.965 24.7158 22.756C24.7158 22.5934 24.8782 22.2683 24.8897 22.0941C24.8897 21.8967 24.8434 21.769 24.797 21.5136C24.7506 21.2697 24.8202 21.2581 24.855 20.9678C24.8666 20.8285 24.7738 20.6659 24.8318 20.5034C24.8666 20.3873 24.9593 20.2479 24.9709 20.097C24.9709 19.9925 24.9477 19.9112 24.9361 19.8299C25.0057 19.8299 25.0869 19.8299 25.1564 19.8067C25.2376 19.7835 25.4115 19.8299 25.4926 19.8067C25.7013 19.7254 25.8057 19.7835 25.8869 19.7718C26.0608 19.737 26.0028 19.6325 26.1999 19.6557C26.3274 19.6557 26.4782 19.6906 26.6289 19.737C26.7564 19.7718 26.9303 19.7022 27.0926 19.7138C27.2202 19.7254 27.4753 19.8647 27.6955 19.8647C27.8231 19.8647 27.9506 19.8647 28.0782 19.8299L28.3564 19.7835C28.4955 19.7602 28.6347 19.7602 28.7738 19.7951C28.9129 19.8299 29.0637 19.8415 29.2144 19.8531C29.4811 19.8531 29.7013 19.7718 29.8637 19.737L29.8984 19.9809H29.8753ZM14.7216 28.3876C14.6637 28.283 14.5825 28.1902 14.5013 28.1089L14.3274 27.9115C14.2463 27.807 14.1767 27.7025 14.1419 27.5631C14.1071 27.4238 14.0492 27.2961 13.9912 27.1683C13.8637 26.9013 13.6202 26.7387 13.5506 26.5994C13.5158 26.5762 13.5042 26.5065 13.4926 26.46C13.5738 26.4717 13.6782 26.4949 13.7361 26.4949C13.91 26.4949 14.0724 26.4717 14.2231 26.4484C14.3274 26.4252 14.5245 26.4717 14.6173 26.4484C14.8608 26.3672 14.9767 26.4252 15.0695 26.4136C15.2666 26.3788 15.197 26.2743 15.4405 26.2975C15.5912 26.2975 15.7651 26.3323 15.939 26.3788C16.0898 26.4136 16.2869 26.3439 16.484 26.3555C16.6347 26.3672 16.9245 26.5065 17.1912 26.5065C17.3187 26.5065 17.4347 26.5065 17.5622 26.4833C17.5622 26.5181 17.5622 26.5762 17.5854 26.6458L18.5709 26.4833C18.5709 26.4833 18.5709 26.4717 18.5709 26.46C18.6984 26.4833 18.826 26.4949 18.9651 26.4949C19.3245 26.4949 19.6492 26.3555 19.8347 26.3555C19.9738 26.2975 20.2173 26.4136 20.3912 26.4484C20.5535 26.4833 21.0057 26.4136 21.1912 26.4484C21.3419 26.4717 21.4695 26.4949 21.5622 26.4949C21.7361 26.4949 21.8984 26.4717 22.0492 26.4484C22.1535 26.4252 22.3506 26.4717 22.4434 26.4484C22.6869 26.3672 22.8028 26.4252 22.8955 26.4136C23.0926 26.3788 23.0231 26.2743 23.2666 26.2975C23.3361 26.2975 23.4057 26.3207 23.4753 26.3323C23.4521 26.3788 23.4289 26.4252 23.4289 26.4833C23.3941 26.611 23.3941 26.7503 23.3825 26.8781V27.18C23.3593 27.3309 23.3361 27.4702 23.2782 27.6096C23.2202 27.7489 23.1622 27.8999 23.1274 28.0508C23.0579 28.3643 23.1274 28.6894 23.0811 28.852C23.1042 28.9913 22.9419 29.1771 22.8492 29.3165C22.768 29.4558 22.7216 29.8506 22.6289 29.9899C22.5593 30.106 22.5013 30.2106 22.4666 30.2802C22.4086 30.4196 22.3738 30.5589 22.3506 30.6866C22.3274 30.7679 22.2231 30.9188 22.2115 31.0001C22.1883 31.2207 22.084 31.2904 22.0608 31.3601C22.0144 31.5226 22.1187 31.5343 21.9912 31.6968C21.91 31.8013 21.8057 31.9058 21.6782 31.9755C21.5738 32.0452 21.5158 32.2077 21.3883 32.2658C21.3419 32.3006 21.2608 32.289 21.1796 32.289C21.1448 32.289 21.11 32.2774 21.0753 32.2774C21.0405 32.2774 21.0173 32.2542 20.9825 32.2774C20.9825 32.2774 20.9245 32.2774 20.8897 32.2774C20.855 32.2774 20.8202 32.2774 20.7738 32.2658L20.6811 32.2426L20.5767 32.1961C20.484 32.1497 20.3912 32.0684 20.3332 31.9523C20.2753 31.8362 20.2057 31.72 20.1245 31.5923C19.9622 31.3485 19.7187 31.1627 19.6492 31.0117C19.5448 30.9305 19.5564 30.675 19.5448 30.5241C19.5216 30.3731 19.3129 30.0248 19.3013 29.8622C19.2898 29.7229 19.2666 29.6068 19.2434 29.5255C19.197 29.3745 19.139 29.2468 19.0811 29.1191C19.0347 29.0378 19.0347 28.852 18.9767 28.7823C18.8376 28.5966 18.884 28.4688 18.8376 28.3876C18.7564 28.225 18.6753 28.3063 18.6521 28.0857C18.6289 27.9463 18.6173 27.7954 18.6405 27.6212C18.6405 27.4702 18.5361 27.3193 18.5245 27.1335C18.5245 26.9942 18.5941 26.7155 18.5593 26.4717L17.5738 26.6342C17.5738 26.7387 17.6666 26.7619 17.6898 26.9245C17.7129 27.0406 17.6898 27.18 17.7245 27.2961C17.7709 27.4586 17.8405 27.598 17.8405 27.7721C17.8405 27.9347 17.8521 28.0973 17.8869 28.2598C18.0028 28.7707 18.2463 28.794 18.3506 29.1771C18.397 29.3165 18.3622 29.7577 18.4318 29.9551C18.4666 30.048 18.5477 30.1757 18.6173 30.3731C18.6637 30.5241 18.6753 30.8956 18.7448 31.0698C18.826 31.2672 18.9419 31.3485 19.1158 31.5691C19.2782 31.7549 19.2318 31.8129 19.3709 32.0568C19.3013 32.0452 19.2318 32.0336 19.1622 32.0103L18.9071 31.9755C18.7796 31.9523 18.6637 31.9058 18.5593 31.8245C18.455 31.7433 18.339 31.6736 18.2115 31.6155C17.9564 31.4994 17.6782 31.4762 17.539 31.4065C17.4115 31.4065 17.3071 31.1859 17.2144 31.0814C17.1332 30.9653 16.797 30.826 16.7158 30.6982C16.6463 30.6053 16.5767 30.5241 16.5187 30.466C16.4144 30.3731 16.31 30.3034 16.2057 30.2454C16.1361 30.2106 16.0434 30.0596 15.9738 30.0364C15.7767 29.9551 15.7535 29.839 15.6955 29.8041C15.5564 29.7113 15.5216 29.8041 15.4057 29.6532C15.3245 29.5487 15.2666 29.4326 15.2086 29.2932C15.1622 29.1655 14.9999 29.0958 14.9187 28.9565C14.8608 28.852 14.826 28.5849 14.71 28.4108L14.7216 28.3876ZM13.8173 11.4348C13.8869 11.3303 13.9796 11.2258 14.084 11.1213C14.1767 11.0284 14.1999 10.8542 14.2926 10.7265C14.3622 10.622 14.6057 10.4943 14.7216 10.3201L14.2811 10.0298L14.71 10.3201C14.7796 10.2272 14.8376 10.1227 14.8955 10.0182L15.0115 9.78599C15.0695 9.66987 15.1622 9.56537 15.2666 9.48409C15.3825 9.40281 15.4753 9.29831 15.568 9.20541C15.7535 8.9848 15.8347 8.70612 15.939 8.60162C15.9738 8.47389 16.2057 8.42745 16.3332 8.35778C16.4492 8.28811 16.6811 8.00943 16.8202 7.95138C16.9245 7.90493 17.0289 7.85848 17.0869 7.81204C17.1912 7.73076 17.284 7.64948 17.3767 7.55659C17.4347 7.49853 17.5854 7.44047 17.6318 7.38241C17.7593 7.21985 17.8753 7.23147 17.9216 7.17341C18.0376 7.06891 17.9564 7.01085 18.1303 6.92957C18.2463 6.88312 18.3738 6.84829 18.5245 6.83668C18.6521 6.83668 18.768 6.69734 18.9187 6.6625C18.9999 6.65089 19.1274 6.6625 19.2782 6.6625C19.0347 7.09213 19.1854 7.28952 19.0231 7.62626C18.9651 7.76559 18.6637 8.09071 18.5941 8.29972C18.5593 8.39261 18.5477 8.54356 18.4897 8.75257C18.4318 8.90352 18.2115 9.1938 18.1651 9.36797C18.1187 9.56537 18.1419 9.6931 18.1303 9.96016C18.1303 10.2156 18.0492 10.204 17.968 10.4943C17.9216 10.6336 17.9912 10.8078 17.91 10.9587C17.8521 11.0632 17.7361 11.191 17.7013 11.3419C17.6782 11.4813 17.7013 11.5974 17.6782 11.7135C17.6434 11.8528 17.6086 11.8412 17.5622 12.0967C17.5506 12.1547 17.5622 12.2128 17.5622 12.2825C17.4347 12.2708 17.4231 12.236 17.1564 12.236C17.0521 12.236 17.0057 12.3057 16.8202 12.3057C16.6926 12.3057 16.5535 12.2592 16.426 12.2708C16.2521 12.2941 16.0782 12.3289 15.9042 12.2941C15.7419 12.2592 15.568 12.236 15.3941 12.236C14.8492 12.236 14.7564 12.4682 14.3274 12.4682C14.1767 12.4798 13.7709 12.3405 13.539 12.3289C13.5738 12.2592 13.6202 12.1779 13.6202 12.1199C13.6202 11.9109 13.7361 11.8528 13.7477 11.7715C13.7825 11.609 13.6782 11.609 13.7825 11.4464L13.8173 11.4348ZM29.9564 18.7733C29.9564 18.7733 29.9332 18.8545 29.9216 18.901C29.8521 18.9242 29.7941 18.9474 29.7013 18.959C29.4695 19.0171 29.4695 18.9474 29.1912 18.9242C29.0637 18.9242 28.9129 19.0055 28.7622 18.959C28.6579 18.9242 28.5187 18.8313 28.3796 18.8313C28.2521 18.8313 28.1593 18.8894 28.0434 18.8778C27.9158 18.8778 27.9158 18.8313 27.684 18.8313C27.5912 18.8313 27.5564 18.901 27.4057 18.901C27.2897 18.901 27.1738 18.8545 27.0695 18.8662C26.9187 18.8894 26.7796 18.9242 26.6289 18.8894C26.4897 18.8545 26.339 18.8313 26.1883 18.8313C25.7129 18.8313 25.6434 19.0635 25.2724 19.0635C25.2028 19.0635 25.0521 19.0287 24.9013 18.9823C24.9013 18.8778 24.9477 18.7616 24.9245 18.6455C24.9013 18.483 24.855 18.332 24.8897 18.1579C24.9245 18.0069 24.9361 17.8443 24.9245 17.6818C24.9245 17.1709 24.6695 17.0896 24.6463 16.7064C24.6231 16.5671 24.7622 16.1375 24.7506 15.9401C24.7506 15.8472 24.6926 15.7078 24.6695 15.4988C24.6695 15.3363 24.7622 14.9995 24.7506 14.8138C24.739 14.6164 24.6579 14.5002 24.5767 14.2564C24.4955 14.0126 24.5651 14.0009 24.5419 13.699C24.5419 13.5481 24.426 13.4088 24.4492 13.2462C24.4492 13.2114 24.4724 13.1649 24.484 13.1185C24.6347 13.1649 24.8202 13.2114 25.0057 13.2114C25.1564 13.2114 25.2955 13.2114 25.4463 13.1765L25.7709 13.1301C25.9332 13.1069 26.0955 13.1069 26.2579 13.1417C26.4202 13.1765 26.5941 13.1881 26.768 13.1998C27.1274 13.1998 27.4521 13.0604 27.6376 13.0604C27.7767 13.0024 28.0202 13.1185 28.1941 13.1533C28.2984 13.1765 28.5303 13.1533 28.7274 13.1533C28.7622 13.2462 28.797 13.3391 28.8434 13.4204L28.9709 13.6526C29.0289 13.7687 29.0637 13.8964 29.0753 14.0358C29.0753 14.1751 29.11 14.3145 29.1448 14.4538C29.226 14.7325 29.4231 14.9531 29.4579 15.104C29.539 15.1969 29.4811 15.4292 29.4579 15.5685C29.4463 15.7078 29.597 16.0562 29.5738 16.2071C29.5738 16.3349 29.5622 16.4394 29.5738 16.5206C29.597 16.66 29.6318 16.7877 29.6666 16.9038C29.6897 16.9851 29.6666 17.1477 29.7129 17.2173C29.8173 17.4031 29.7593 17.5076 29.7825 17.5889C29.8289 17.7515 29.9216 17.6818 29.9216 17.8792C29.9216 18.0069 29.8984 18.1462 29.8637 18.2972C29.8289 18.4249 29.9216 18.5759 29.8984 18.75L29.9564 18.7733ZM19.5216 8.45067C19.5796 8.31133 19.6144 8.17199 19.6376 8.04427C19.6608 7.96299 19.7651 7.81204 19.7767 7.73076C19.7999 7.51014 19.9042 7.44047 19.9274 7.3708C19.9738 7.20824 19.8695 7.19663 19.997 7.03407C20.0782 6.92957 20.1825 6.82506 20.31 6.7554C20.4144 6.68573 20.4724 6.52317 20.5999 6.46511C20.6231 6.4535 20.6695 6.46511 20.7042 6.4535C20.7506 6.4535 20.8086 6.46511 20.855 6.46511C20.8782 6.46511 20.8898 6.46511 20.9129 6.46511C20.9477 6.46511 20.9709 6.48833 21.0057 6.46511C21.0057 6.46511 21.0637 6.46511 21.0984 6.46511C21.1332 6.46511 21.168 6.46511 21.2144 6.47672L21.3071 6.49994L21.4115 6.54639C21.5042 6.59284 21.597 6.67412 21.655 6.79023C21.7129 6.90634 21.7825 7.02246 21.8637 7.15019C22.026 7.39403 22.2695 7.57981 22.339 7.73076C22.4434 7.81204 22.4318 8.06749 22.4434 8.21844C22.4666 8.36939 22.6753 8.71773 22.6869 8.88029C22.6984 9.01963 22.7216 9.13575 22.7448 9.21703C22.7912 9.36797 22.8492 9.4957 22.9071 9.62343C22.9535 9.70471 22.9535 9.89049 23.0115 9.96016C23.1506 10.1459 23.1042 10.2737 23.1506 10.3549C23.2318 10.5175 23.3129 10.4362 23.3361 10.6568C23.3593 10.7962 23.3709 10.9471 23.3477 11.1213C23.3477 11.2723 23.4521 11.4232 23.4637 11.609C23.4637 11.7483 23.3941 12.027 23.4289 12.2592C23.3709 12.2592 23.3129 12.2476 23.255 12.236C22.71 12.236 22.6173 12.4682 22.1883 12.4682C22.0376 12.4798 21.5854 12.3173 21.3651 12.3173C21.2724 12.3173 21.11 12.3637 20.8782 12.3637C20.7042 12.3637 20.3448 12.2244 20.1593 12.2244C19.939 12.2244 19.8115 12.2825 19.5448 12.3405C19.2782 12.3986 19.2666 12.3289 18.9535 12.3057C18.826 12.3057 18.6869 12.3405 18.5477 12.3405C18.5477 12.3057 18.5709 12.2825 18.5825 12.2476C18.6173 12.1199 18.6173 11.9806 18.6289 11.8528V11.5509C18.6521 11.4 18.6753 11.2606 18.7332 11.1213C18.7912 10.982 18.8492 10.831 18.884 10.6801C18.9535 10.3666 18.884 10.0414 18.9303 9.87888C18.9071 9.73954 19.0695 9.55376 19.1622 9.41442C19.2434 9.27508 19.2898 8.88029 19.3825 8.74096C19.4521 8.62484 19.51 8.52034 19.5448 8.45067H19.5216ZM19.4984 18.8429C19.0231 18.8429 18.9535 19.0752 18.5825 19.0752C18.4782 19.0752 18.2115 18.9939 18.0144 18.9474L17.968 18.6455C17.9564 18.4946 17.9564 18.3552 17.9912 18.2043C18.026 18.0533 18.0492 17.8908 18.0608 17.7398C18.0724 17.4147 17.9448 17.1128 17.9564 16.9386C17.8984 16.8109 18.026 16.5903 18.084 16.4277C18.1303 16.2768 18.084 15.8588 18.1303 15.7078C18.1651 15.5801 18.1999 15.4524 18.2115 15.3711C18.2231 15.2085 18.2115 15.0692 18.2115 14.9299C18.2115 14.837 18.2579 14.6628 18.2347 14.5699C18.1767 14.3493 18.2463 14.2448 18.2347 14.1519C18.2231 13.9661 18.1187 14.0126 18.1535 13.8036C18.1767 13.6642 18.2231 13.5133 18.2926 13.3623C18.3158 13.3043 18.3158 13.2346 18.3158 13.1765C18.3622 13.1765 18.4086 13.1765 18.455 13.1765C18.6173 13.2114 18.7912 13.223 18.9651 13.2346C19.3245 13.2346 19.6492 13.0953 19.8347 13.0953C19.9738 13.0372 20.2173 13.1533 20.3912 13.1881C20.5535 13.223 21.0057 13.1533 21.1912 13.1881C21.3419 13.2114 21.4695 13.2346 21.5622 13.2346C21.7361 13.2346 21.8984 13.2114 22.0492 13.1881C22.1535 13.1649 22.3506 13.2114 22.4434 13.1881C22.6869 13.1069 22.8028 13.1649 22.8955 13.1533C23.0926 13.1185 23.0231 13.014 23.2666 13.0372C23.3825 13.0372 23.4984 13.072 23.626 13.0953C23.6376 13.1881 23.6608 13.281 23.6608 13.3739C23.6492 13.5249 23.6608 13.6874 23.6608 13.85C23.6955 14.1751 23.8695 14.4538 23.8811 14.628C23.9622 14.7441 23.8579 14.9879 23.8347 15.1505C23.8115 15.3014 23.9158 15.7078 23.8926 15.8704C23.8811 16.0097 23.8579 16.1258 23.8695 16.2187C23.8695 16.3813 23.9042 16.5206 23.939 16.66C23.9622 16.7529 23.939 16.9386 23.9622 17.0199C24.055 17.2289 23.997 17.345 24.0202 17.4379C24.0666 17.6237 24.1593 17.5541 24.1477 17.7747C24.1477 17.914 24.1245 18.065 24.0782 18.2275C24.0434 18.3669 24.1245 18.541 24.1129 18.7268C24.1129 18.7849 24.0782 18.8778 24.0434 18.9707C23.8811 18.9358 23.6724 18.8662 23.5448 18.8662C23.3593 18.8662 23.255 18.9242 23.0115 18.9823C22.7796 19.0403 22.7796 18.9707 22.5013 18.9474C22.3738 18.9474 22.2231 19.0287 22.0724 18.9823C21.968 18.9474 21.8289 18.8545 21.6898 18.8545C21.5622 18.8545 21.4695 18.9126 21.3535 18.901C21.226 18.901 21.226 18.8545 20.9941 18.8545C20.9013 18.8545 20.8666 18.9242 20.7158 18.9242C20.5999 18.9242 20.484 18.8778 20.3796 18.8894C20.2289 18.9126 20.0898 18.9474 19.939 18.9126C19.7999 18.8778 19.6492 18.8545 19.4984 18.8545V18.8429ZM18.455 25.5892C18.455 25.5892 18.4086 25.566 18.3854 25.566C18.3854 25.4847 18.3506 25.415 18.3622 25.3337C18.3738 25.1828 18.3622 25.0202 18.3622 24.8577C18.3274 24.5325 18.1535 24.2539 18.1419 24.0797C18.0608 23.9636 18.1651 23.7197 18.1883 23.5572C18.2115 23.4062 18.1071 22.9998 18.1303 22.8373C18.1419 22.6979 18.1651 22.5818 18.1535 22.4889C18.1535 22.3264 18.1187 22.187 18.084 22.0477C18.0608 21.9548 18.084 21.769 18.0608 21.6877C17.968 21.4787 18.026 21.3626 18.0028 21.2697C17.9564 21.0839 17.8637 21.1536 17.8753 20.933C17.8753 20.7937 17.8984 20.6427 17.9448 20.4801C17.9796 20.3408 17.8984 20.1666 17.91 19.9809C17.91 19.946 17.9332 19.8763 17.9564 19.8183C17.9912 19.8183 18.0376 19.8299 18.0608 19.8299C18.2115 19.8299 18.339 19.8067 18.4666 19.7835C18.5477 19.7602 18.7216 19.8067 18.8028 19.7835C19.0115 19.7022 19.1158 19.7602 19.197 19.7486C19.3709 19.7138 19.3129 19.6093 19.51 19.6325C19.6376 19.6325 19.7883 19.6673 19.939 19.7138C20.0666 19.7486 20.2405 19.679 20.4028 19.6906C20.5303 19.7022 20.7854 19.8415 21.0057 19.8415C21.1332 19.8415 21.2608 19.8415 21.3883 19.8067L21.6666 19.7602C21.8057 19.737 21.9448 19.737 22.084 19.7718C22.2231 19.8067 22.3738 19.8183 22.5245 19.8299C22.8376 19.8299 23.1158 19.6906 23.2666 19.6906C23.3825 19.6325 23.5912 19.7486 23.7419 19.7835C23.7999 19.7951 23.8926 19.7835 24.0086 19.7835L24.0434 20.0273C24.055 20.1782 24.055 20.3176 24.0202 20.4685C23.9854 20.6195 23.9622 20.782 23.9506 20.933C23.939 21.2581 24.0666 21.56 24.055 21.7342C24.1129 21.8619 23.9854 22.0825 23.9274 22.2451C23.8811 22.396 23.9274 22.814 23.8811 22.965C23.8463 23.0927 23.8115 23.2204 23.7999 23.3017C23.7883 23.4643 23.7999 23.6036 23.7999 23.743C23.7999 23.8359 23.7535 24.01 23.7767 24.1029C23.8347 24.3235 23.7651 24.428 23.7767 24.5209C23.7883 24.7067 23.8926 24.6603 23.8579 24.8693C23.8347 25.0086 23.7883 25.1596 23.7187 25.3105C23.6955 25.357 23.6955 25.4266 23.6955 25.4847C23.5564 25.4615 23.4057 25.4382 23.255 25.4382C22.71 25.4382 22.6173 25.6705 22.1883 25.6705C22.0376 25.6821 21.5854 25.5195 21.3651 25.5195C21.2724 25.5195 21.11 25.566 20.8782 25.566C20.7042 25.566 20.3448 25.4266 20.1593 25.4266C19.939 25.4266 19.8115 25.4847 19.5448 25.5427C19.2782 25.6008 19.2666 25.5311 18.9535 25.5079C18.8028 25.5079 18.6289 25.5892 18.455 25.5427V25.5892ZM27.9854 12.2244C27.7651 12.2244 27.6376 12.2825 27.3709 12.3405C27.1042 12.3986 27.0926 12.3289 26.7796 12.3057C26.6289 12.3057 26.455 12.387 26.2811 12.3405C26.1535 12.3057 26.0028 12.2128 25.8405 12.2128C25.6897 12.2128 25.5738 12.2708 25.4463 12.2592C25.2955 12.2592 25.2955 12.2128 25.0173 12.2128C24.9129 12.2128 24.8666 12.2825 24.6811 12.2825C24.5999 12.2825 24.5187 12.2708 24.4376 12.2592C24.4376 12.2128 24.4376 12.1663 24.4144 12.0734C24.4144 11.9689 24.3216 11.9457 24.2984 11.7832C24.2753 11.667 24.2984 11.5277 24.2637 11.4116C24.2173 11.249 24.1477 11.1097 24.1477 10.9355C24.1477 10.773 24.1361 10.6104 24.1013 10.4478C23.9854 9.93694 23.7419 9.91371 23.6376 9.53054C23.5912 9.3912 23.626 8.94996 23.5564 8.75257C23.5216 8.65968 23.4405 8.53195 23.3709 8.33455C23.3245 8.18361 23.3129 7.81204 23.2434 7.63787C23.1622 7.44047 23.0463 7.35919 22.8724 7.13857C22.6984 6.94118 22.768 6.89473 22.6057 6.61606C22.6984 6.6625 22.7796 6.70895 22.8376 6.73217C22.9651 6.77862 23.0926 6.79023 23.2086 6.81345C23.2897 6.82506 23.4173 6.92957 23.4984 6.91796C23.7071 6.91796 23.7651 7.02246 23.8347 7.03407C23.997 7.0689 23.997 6.95279 24.1477 7.0689C24.2521 7.13857 24.3564 7.21985 24.4492 7.33597C24.5303 7.44047 24.7042 7.45208 24.8318 7.55659C24.9245 7.63787 25.0289 7.88171 25.1912 8.00943C25.2724 8.09071 25.3767 8.14877 25.4811 8.20683C25.5622 8.25327 25.6318 8.29972 25.7013 8.34617C25.8057 8.42745 25.91 8.50873 25.968 8.62484C26.0376 8.74096 26.1187 8.85707 26.2115 8.96157C26.397 9.18219 26.6869 9.27508 26.768 9.40281C26.884 9.44925 26.9187 9.68148 26.9651 9.82082C27.0115 9.94855 27.2897 10.204 27.3361 10.3433C27.3825 10.4595 27.4173 10.5523 27.4637 10.622C27.5332 10.7381 27.6144 10.8426 27.6955 10.9355C27.7535 10.9936 27.7999 11.1561 27.8579 11.2026C28.0202 11.3303 28.0086 11.4464 28.0666 11.5045C28.1709 11.6322 28.2289 11.5393 28.31 11.7251C28.3564 11.8412 28.4028 11.9689 28.4144 12.1315C28.4144 12.2012 28.4608 12.2592 28.5071 12.3289C28.3216 12.2941 28.1013 12.2244 27.9622 12.2244H27.9854ZM12.5071 15.5569C12.5071 15.4292 12.5419 15.2898 12.6115 15.1737C12.6811 15.046 12.7158 14.9183 12.7622 14.7789C12.8434 14.5002 12.7738 14.1983 12.8202 14.059C12.797 13.9313 12.9709 13.7687 13.0521 13.6526C13.11 13.5713 13.1564 13.3391 13.2144 13.1765C13.2724 13.1765 13.3303 13.1765 13.3767 13.1765C13.5274 13.1998 13.655 13.223 13.7477 13.223C13.9216 13.223 14.084 13.1998 14.2347 13.1765C14.339 13.1533 14.5361 13.1998 14.6289 13.1765C14.8724 13.0953 14.9883 13.1533 15.0811 13.1417C15.2782 13.1069 15.2086 13.0024 15.4521 13.0256C15.6028 13.0256 15.7767 13.0604 15.9506 13.1069C16.1013 13.1417 16.2984 13.072 16.4955 13.0836C16.6463 13.0953 16.9361 13.2346 17.2028 13.2346C17.2955 13.2346 17.3883 13.223 17.4811 13.2114C17.4811 13.223 17.4811 13.2346 17.4811 13.2462C17.4231 13.3972 17.3883 13.5481 17.3651 13.7107C17.2955 14.2216 17.5274 14.3261 17.4926 14.7209C17.4926 14.8602 17.2955 15.2666 17.284 15.464C17.284 15.5569 17.3071 15.7078 17.284 15.9168C17.284 16.0794 17.1216 16.4045 17.11 16.5787C17.11 16.7761 17.1564 16.9038 17.2028 17.1593C17.2492 17.4031 17.1796 17.4147 17.1448 17.705C17.1332 17.8443 17.226 18.0069 17.168 18.1695C17.1332 18.2856 17.0405 18.4249 17.0289 18.5759C17.0289 18.692 17.0521 18.7849 17.0637 18.8778C16.9825 18.8545 16.8897 18.8313 16.8318 18.8313C16.6463 18.8313 16.5419 18.8894 16.2984 18.9474C16.0666 19.0055 16.0666 18.9358 15.7883 18.9126C15.6608 18.9126 15.51 18.9939 15.3593 18.9474C15.255 18.9126 15.1158 18.8197 14.9767 18.8197C14.8492 18.8197 14.7564 18.8778 14.6405 18.8662C14.5129 18.8662 14.5129 18.8197 14.2811 18.8197C14.1883 18.8197 14.1535 18.8894 14.0028 18.8894C13.8869 18.8894 13.7709 18.8429 13.6666 18.8545C13.5158 18.8778 13.3767 18.9126 13.226 18.8778C13.0869 18.8429 12.9361 18.8197 12.7854 18.8197C12.4724 18.8197 12.3332 18.9242 12.1709 18.9939C12.1709 18.9939 12.1709 18.9707 12.1709 18.959C12.1709 18.8197 12.1593 18.692 12.1361 18.5643C12.1245 18.483 12.1709 18.3204 12.1361 18.2391C12.0666 18.0417 12.1361 17.9488 12.1245 17.8676C12.1013 17.705 11.997 17.7515 12.0318 17.5541C12.055 17.4263 12.0898 17.2986 12.1593 17.1593C12.2173 17.0432 12.1593 16.869 12.1941 16.7064C12.2289 16.5903 12.3912 16.3697 12.426 16.1607C12.4492 16.0446 12.4608 15.9285 12.4724 15.8007V15.5337L12.5071 15.5569ZM12.368 22.1754C12.3448 22.0941 12.31 22.0012 12.2869 21.92C12.2521 21.7922 12.2289 21.6645 12.2521 21.5252C12.2637 21.3858 12.2753 21.2465 12.2521 21.0956C12.2289 20.8053 12.0666 20.5498 12.0666 20.3989C11.997 20.2944 12.1013 20.0737 12.1361 19.9344C12.1361 19.8996 12.1361 19.8531 12.1361 19.7951C12.2984 19.7486 12.4028 19.7951 12.484 19.7602C12.6579 19.7254 12.5999 19.6209 12.797 19.6441C12.9245 19.6441 13.0753 19.679 13.226 19.7254C13.3535 19.7602 13.5274 19.6906 13.6897 19.7022C13.8173 19.7138 14.0724 19.8531 14.2926 19.8531C14.4202 19.8531 14.5477 19.8531 14.6753 19.8183L14.9535 19.7718C15.0926 19.7486 15.2318 19.7486 15.3709 19.7835C15.51 19.8183 15.6608 19.8299 15.8115 19.8415C16.1245 19.8415 16.4028 19.7022 16.5535 19.7022C16.6695 19.6441 16.8782 19.7602 17.0289 19.7951C17.0289 19.7951 17.0521 19.7951 17.0753 19.7951C17.0637 19.8647 17.0521 19.946 17.0637 20.0157C17.0869 20.1782 17.1332 20.3292 17.0984 20.5034C17.0637 20.6543 17.0521 20.8169 17.0637 20.9794C17.0637 21.4903 17.3187 21.5716 17.3419 21.9548C17.3651 22.0941 17.226 22.5238 17.2376 22.7212C17.2376 22.814 17.2955 22.9534 17.3187 23.1624C17.3187 23.325 17.226 23.6617 17.2376 23.8475C17.2492 24.0449 17.3303 24.161 17.4115 24.4048C17.4926 24.6487 17.4231 24.6603 17.4463 24.9622C17.4463 25.1131 17.5622 25.2525 17.539 25.415C17.539 25.4382 17.539 25.4615 17.5274 25.4731C17.4579 25.4615 17.3999 25.4382 17.2028 25.4382C17.0984 25.4382 17.0521 25.5079 16.8666 25.5079C16.739 25.5079 16.5999 25.4615 16.4724 25.4731C16.2984 25.4963 16.1245 25.5311 15.9506 25.4963C15.7883 25.4615 15.6144 25.4382 15.4405 25.4382C14.8955 25.4382 14.8028 25.6705 14.3738 25.6705C14.2231 25.6821 13.7709 25.5195 13.5506 25.5195C13.4811 25.5195 13.3651 25.5427 13.2376 25.5544C13.2376 25.5427 13.226 25.5195 13.226 25.4963C13.2144 25.3686 13.2028 25.2641 13.168 25.1944C13.1216 25.0551 13.0637 24.9506 13.0057 24.8344C12.9593 24.7648 12.9593 24.5906 12.9013 24.5325C12.7622 24.37 12.8086 24.2539 12.7622 24.1842C12.6811 24.0333 12.5999 24.1145 12.5651 23.9171C12.5419 23.7894 12.5419 23.6501 12.5535 23.4991C12.5535 23.3714 12.4492 23.2321 12.4376 23.0695C12.4376 22.9418 12.5071 22.6863 12.4724 22.4773C12.4724 22.3612 12.426 22.2451 12.3912 22.129L12.368 22.1754ZM25.7129 30.4196C25.6202 30.4892 25.3535 30.5473 25.1912 30.675C25.0984 30.7447 25.0057 30.826 24.9245 30.9072C24.8666 30.9653 24.8086 31.035 24.739 31.093C24.6463 31.1743 24.5303 31.244 24.4144 31.2904C24.2869 31.3253 24.1593 31.3833 24.0318 31.4414C23.7767 31.5691 23.6144 31.8129 23.4753 31.8594C23.3941 31.9523 23.1738 31.929 23.0347 31.929C22.9651 31.929 22.8608 31.9755 22.7448 32.0219C22.7332 32.0219 22.7216 32.0219 22.6984 32.0336C22.9535 31.6039 22.8028 31.4065 22.9651 31.0582C23.0115 30.9188 23.3245 30.5937 23.3941 30.3847C23.4289 30.2918 23.4405 30.1409 23.4984 29.9319C23.5564 29.7809 23.7767 29.4906 23.8231 29.3165C23.8695 29.1191 23.8463 28.9913 23.8579 28.7243C23.8579 28.4688 23.939 28.4804 24.0202 28.1902C24.0666 28.0508 23.997 27.8766 24.0782 27.7257C24.1361 27.6212 24.2521 27.4935 24.2869 27.3425C24.31 27.2032 24.2868 27.0871 24.31 26.971C24.3448 26.8316 24.3796 26.8432 24.426 26.5878C24.4492 26.5065 24.4144 26.4368 24.4144 26.3323C24.5767 26.3672 24.8086 26.46 25.0289 26.46C25.1796 26.46 25.3187 26.46 25.4695 26.4252L25.7941 26.3788C25.9564 26.3555 26.1187 26.3555 26.2811 26.3904C26.4434 26.4252 26.6173 26.4368 26.7912 26.4484C27.1506 26.4484 27.4753 26.3091 27.6608 26.3091C27.7999 26.251 28.0434 26.3672 28.2173 26.402C28.2637 26.402 28.3448 26.402 28.426 26.402C28.4028 26.4368 28.4028 26.4717 28.3796 26.5065C28.2984 26.6226 28.2173 26.7387 28.1477 26.8548C28.0202 27.1219 28.0086 27.4122 27.939 27.5399C27.939 27.6676 27.7303 27.7838 27.626 27.8883C27.5332 27.9812 27.3941 28.3295 27.2782 28.4224C27.197 28.5037 27.1042 28.5733 27.0695 28.643C26.9883 28.7591 26.9303 28.8636 26.8724 28.9797C26.8376 29.0494 26.6984 29.1539 26.6869 29.2352C26.6289 29.4442 26.5129 29.4674 26.4782 29.5371C26.397 29.6764 26.5013 29.7113 26.3622 29.839C26.2695 29.9203 26.1535 30.0015 26.026 30.0712C25.91 30.1409 25.8521 30.2918 25.7245 30.3847L25.7129 30.4196ZM26.1651 7.32436C26.2811 7.39403 26.4086 7.47531 26.5245 7.59142C26.6289 7.68431 26.8144 7.68431 26.9651 7.7772C27.0231 7.81204 27.0926 7.88171 27.1738 7.96299C27.255 8.04427 27.3361 8.13716 27.4289 8.19522C27.5332 8.26489 27.6492 8.32294 27.7651 8.36939L28.0318 8.47389C28.1593 8.53195 28.2868 8.60162 28.368 8.71773C28.4608 8.83385 28.5767 8.93835 28.6926 9.03124C28.9361 9.22864 29.2608 9.26347 29.3767 9.37959C29.5042 9.41442 29.5854 9.64665 29.6782 9.77438C29.7593 9.9021 30.1071 10.0995 30.1883 10.2388C30.2579 10.3549 30.3158 10.4478 30.3738 10.5175C30.4782 10.6336 30.5825 10.7149 30.6868 10.7962C30.7564 10.8542 30.8492 11.0052 30.9187 11.04C31.1158 11.1445 31.1274 11.2723 31.1854 11.3303C31.3129 11.4464 31.3593 11.3303 31.4753 11.5161C31.5448 11.6322 31.6144 11.7599 31.6724 11.9109C31.7187 12.027 31.8463 12.1315 31.9274 12.2708C31.8115 12.2825 31.7071 12.2941 31.5912 12.2708C31.4289 12.236 31.255 12.2128 31.0811 12.2128C30.5361 12.2128 30.4434 12.445 30.0144 12.445C29.91 12.445 29.6666 12.387 29.4463 12.3405C29.4463 12.2825 29.4231 12.2244 29.3883 12.1779C29.3071 12.0502 29.2144 11.9341 29.1796 11.7715C29.1564 11.6206 29.0984 11.4813 29.0405 11.3535C28.8318 10.9239 28.5767 10.9704 28.4028 10.6568C28.3216 10.5523 28.2637 10.1343 28.1593 9.98338C28.1129 9.91371 27.997 9.82082 27.8926 9.65826C27.8115 9.54215 27.7303 9.20541 27.626 9.07769C27.51 8.92674 27.3941 8.88029 27.197 8.74096C26.9999 8.60162 27.0463 8.55517 26.884 8.33455C26.7912 8.23005 26.6289 8.19522 26.5593 8.05588C26.5129 7.95138 26.4666 7.80043 26.3622 7.69592C26.2695 7.60303 26.1535 7.57981 26.0724 7.49853C25.9912 7.42886 25.9912 7.39403 25.8984 7.30113C25.9912 7.28952 26.0144 7.23147 26.1535 7.30113L26.1651 7.32436ZM10.3854 11.9689C10.5013 11.8761 10.6057 11.7599 10.6984 11.6438C10.8955 11.4 10.9303 11.0749 11.0463 10.9587C11.0811 10.831 11.3129 10.7497 11.4405 10.6568C11.568 10.5756 11.7651 10.2272 11.9042 10.1459C12.0202 10.0763 12.1129 10.0182 12.1825 9.96016C12.2984 9.85566 12.3796 9.75115 12.4608 9.64665C12.5187 9.57698 12.6695 9.48409 12.7042 9.41442C12.8086 9.21703 12.9361 9.20541 12.9941 9.14736C13.11 9.01963 12.9941 8.97319 13.1796 8.85707C13.2955 8.7874 13.4231 8.71773 13.5738 8.65968C13.7013 8.60162 13.8057 8.45067 13.9564 8.381C14.0724 8.32294 14.3622 8.29972 14.5593 8.18361C14.6753 8.12555 14.768 8.04427 14.8724 7.96299L15.1042 7.80043C15.2202 7.71915 15.3477 7.66109 15.4869 7.62626C15.6376 7.59142 15.7767 7.54498 15.9042 7.47531C16.0434 7.41725 16.1593 7.33597 16.2637 7.2663C16.2173 7.31275 16.1593 7.3708 16.0898 7.44047C15.9738 7.53336 15.6492 7.63787 15.5332 7.75398C15.3941 7.88171 15.3593 8.00943 15.2318 8.21844C15.1042 8.41583 15.0579 8.381 14.8608 8.5784C14.7564 8.67129 14.7448 8.84546 14.6173 8.93835C14.5245 9.00802 14.3622 9.04285 14.2811 9.15897C14.1999 9.26347 14.1883 9.37959 14.1187 9.46087C14.0376 9.56537 14.0028 9.53053 13.8753 9.73954C13.8173 9.82082 13.8521 9.89049 13.7709 10.0182C13.7013 10.1111 13.6086 10.1924 13.5622 10.2969C13.5042 10.4362 13.4579 10.5756 13.3535 10.6917C13.2492 10.7962 13.168 10.9239 13.0984 11.0516C12.8782 11.4813 13.0521 11.6438 12.9129 11.9806C12.8898 12.0386 12.8086 12.1431 12.7158 12.2592C12.7158 12.2592 12.7158 12.2708 12.7042 12.2825C12.5651 12.2476 12.426 12.2128 12.3332 12.2128C12.1129 12.2128 11.9854 12.2708 11.7187 12.3289C11.4521 12.387 11.4405 12.3173 11.1274 12.2941C10.9767 12.2941 10.8028 12.3753 10.6289 12.3289C10.5013 12.2941 10.3622 12.2128 10.1999 12.2012C10.2463 12.1083 10.2926 12.0038 10.3854 11.9341V11.9689ZM8.12453 18.2624C8.14772 18.1927 8.15932 18.123 8.17091 18.0417C8.1825 17.9721 8.20569 17.8908 8.21729 17.8211C8.27526 17.5192 8.17091 17.2173 8.1941 17.0548C8.15932 16.927 8.28685 16.7296 8.37961 16.5903C8.44917 16.4626 8.47236 16.0678 8.55352 15.9285C8.61149 15.8123 8.65787 15.7078 8.68105 15.6266C8.71584 15.4756 8.75062 15.3479 8.77381 15.2202C8.7854 15.1273 8.88975 14.9763 8.87816 14.895C8.87816 14.6744 8.97091 14.5931 8.9825 14.5119C9.00569 14.3377 8.88975 14.3493 8.9825 14.1635C9.05207 14.0474 9.13323 13.9197 9.24917 13.8036C9.34192 13.699 9.34192 13.5133 9.43468 13.3623C9.45787 13.3159 9.52743 13.2578 9.5854 13.1998C9.66656 13.1998 9.73613 13.1998 9.81729 13.1881L10.1419 13.1417C10.3042 13.1185 10.4666 13.1185 10.6289 13.1533C10.7912 13.1881 10.9651 13.1998 11.139 13.2114C11.4984 13.2114 11.8231 13.072 12.0086 13.072C12.0898 13.0372 12.2173 13.072 12.3332 13.0953C12.2405 13.2346 12.1013 13.3972 12.0782 13.5133C12.0202 13.6874 12.0434 13.8152 12.0318 14.059C12.0318 14.2912 11.9506 14.2796 11.8695 14.5351C11.8231 14.6628 11.8926 14.8254 11.7999 14.9531C11.7419 15.046 11.6144 15.1621 11.5912 15.2898C11.568 15.4175 11.5912 15.522 11.568 15.6266C11.5332 15.7543 11.4984 15.7427 11.4521 15.9749C11.4289 16.0678 11.4984 16.1142 11.4753 16.2652C11.4637 16.3697 11.3825 16.4858 11.3825 16.6019C11.3825 16.7529 11.4057 16.9038 11.3477 17.0432C11.2898 17.1825 11.2666 17.3218 11.255 17.4728C11.2086 17.9488 11.4405 18.0417 11.4289 18.4017C11.4289 18.4946 11.3361 18.7268 11.2898 18.9242C11.255 18.9242 11.2086 18.9126 11.1854 18.9126C11.1042 18.9126 10.9651 18.959 10.768 18.959C10.6173 18.959 10.3158 18.8197 10.1535 18.8197C9.96801 18.8197 9.86366 18.8778 9.62019 18.9358C9.3883 18.9939 9.3883 18.9242 9.11004 18.901C8.9825 18.901 8.83178 18.9823 8.68105 18.9358C8.57671 18.901 8.43758 18.8081 8.29845 18.8081C8.21729 18.8081 8.14772 18.8197 8.08975 18.8429L8.06656 18.6571C8.06656 18.5178 8.06656 18.3785 8.10134 18.2391L8.12453 18.2624ZM9.31874 24.8577C9.28395 24.7067 9.23758 24.5674 9.16801 24.4397C9.05207 24.1494 8.83178 23.9404 8.77381 23.7894C8.66946 23.6965 8.71584 23.4527 8.69265 23.3017C8.66946 23.1624 8.51874 22.7908 8.50714 22.6399C8.50714 22.5122 8.50714 22.396 8.47236 22.3148C8.43758 22.1638 8.37961 22.0477 8.33323 21.92C8.29845 21.8387 8.32163 21.6529 8.27526 21.5832C8.15932 21.3974 8.20569 21.2813 8.1825 21.2001C8.12453 21.0375 8.03178 21.1072 8.02019 20.8982C8.02019 20.8285 8.02019 20.7588 8.02019 20.6892C8.02019 20.6195 8.04337 20.5382 8.06656 20.4569C8.10134 20.3176 8.00859 20.155 8.02019 19.9809C8.02019 19.946 8.04337 19.888 8.05497 19.8299L8.28685 19.7951C8.42598 19.7718 8.56511 19.7718 8.70424 19.8067C8.84337 19.8415 8.9941 19.8531 9.14482 19.8647C9.45787 19.8647 9.73613 19.7254 9.88685 19.7254C10.0028 19.6673 10.2115 19.7835 10.3622 19.8183C10.5013 19.8531 10.884 19.7835 11.0463 19.8183C11.1274 19.8415 11.197 19.8415 11.255 19.8531C11.2202 19.9692 11.197 20.097 11.197 20.1782C11.197 20.364 11.2782 20.4685 11.3477 20.7008C11.4173 20.9214 11.3477 20.933 11.3477 21.2117C11.3477 21.351 11.4521 21.4787 11.4289 21.6297C11.4057 21.7458 11.3361 21.8851 11.3477 22.0245C11.3593 22.1522 11.4289 22.2451 11.4405 22.3496C11.4405 22.4773 11.4173 22.4773 11.4405 22.7212L11.7419 22.6631L11.4405 22.7095C11.4405 22.8024 11.5332 22.8257 11.5564 22.9766C11.5796 23.0811 11.5564 23.2088 11.5912 23.3133C11.6376 23.4643 11.7187 23.592 11.7071 23.743C11.7071 23.8939 11.7187 24.0333 11.7651 24.1842C11.8811 24.6487 12.1361 24.6487 12.2405 24.997C12.2753 25.0783 12.2753 25.2989 12.2869 25.4847C12.0897 25.4847 11.9622 25.5427 11.6955 25.6008C11.4289 25.6589 11.4173 25.5892 11.1042 25.566C10.9535 25.566 10.7796 25.6472 10.6057 25.6008C10.4782 25.566 10.3274 25.4731 10.1651 25.4731C10.0144 25.4731 9.89845 25.5311 9.77091 25.5195C9.70134 25.5195 9.66656 25.5079 9.63178 25.4963C9.63178 25.4963 9.63178 25.4963 9.63178 25.4847L9.46946 25.2525C9.3883 25.1363 9.33033 25.0086 9.29555 24.8693L9.31874 24.8577ZM16.1825 31.3949C16.0086 31.3717 16.0202 31.4878 15.8347 31.3949C15.7187 31.3253 15.5912 31.244 15.4753 31.1279C15.3709 31.035 15.1854 31.035 15.0347 30.9421C14.9767 30.9072 14.9071 30.8376 14.826 30.7563C14.7448 30.675 14.6637 30.5821 14.5709 30.5241C14.4666 30.4544 14.3506 30.3963 14.2347 30.3499L13.968 30.2454C13.8405 30.1873 13.7129 30.1177 13.6318 30.0015C13.539 29.8854 13.4231 29.7809 13.3071 29.688C13.0637 29.4906 12.739 29.4558 12.6231 29.3397C12.4955 29.3049 12.4144 29.0726 12.3216 28.9449C12.2405 28.8172 11.8926 28.6198 11.8115 28.4804C11.7419 28.3643 11.684 28.2714 11.626 28.2018C11.5216 28.0857 11.4173 28.0044 11.3129 27.9231C11.2434 27.865 11.1506 27.7141 11.0811 27.6793C10.884 27.5747 10.8724 27.447 10.8144 27.389C10.6869 27.2729 10.6405 27.389 10.5245 27.2032C10.455 27.0871 10.3854 26.9593 10.3274 26.8084C10.2811 26.6923 10.1419 26.5878 10.0608 26.4484H10.1303C10.2926 26.4252 10.455 26.4252 10.6173 26.4484C10.7796 26.4833 10.9535 26.4949 11.1274 26.5065C11.4869 26.5065 11.8115 26.3672 11.997 26.3672C12.1361 26.3091 12.3796 26.4252 12.5535 26.46H12.5767C12.5883 26.5646 12.5999 26.6574 12.6347 26.7271C12.7158 26.9013 12.8086 26.971 12.9709 27.1567C13.1216 27.3309 13.0637 27.3774 13.168 27.6328C13.226 27.7605 13.3767 27.8302 13.4115 27.9928C13.4347 28.1089 13.4115 28.2598 13.4926 28.3876C13.5622 28.5037 13.655 28.5501 13.7129 28.6546C13.7825 28.7707 13.7477 28.7823 13.8753 28.9913C13.9216 29.0726 14.0028 29.061 14.0955 29.1887C14.1651 29.2816 14.1883 29.4094 14.2695 29.4906C14.3738 29.6068 14.5013 29.688 14.5709 29.839C14.6289 29.9783 14.7216 30.106 14.8144 30.2222C15.1274 30.5937 15.3709 30.4776 15.6144 30.7331C15.7187 30.8143 15.8926 31.1975 16.0434 31.3136C16.1013 31.3601 16.2173 31.4181 16.3564 31.5226C16.2753 31.4994 16.2173 31.4646 16.1593 31.453L16.1825 31.3949ZM31.6144 26.7387C31.4984 26.8316 31.3941 26.9477 31.3013 27.0638C31.1042 27.3077 31.0695 27.6328 30.9535 27.7489C30.9187 27.8766 30.6869 27.9579 30.5593 28.0508C30.4318 28.1321 30.2347 28.4804 30.0955 28.5617C29.9796 28.6314 29.8869 28.6894 29.8173 28.7475C29.7013 28.852 29.6202 28.9565 29.539 29.061C29.4811 29.1307 29.3303 29.2236 29.2955 29.2932C29.1912 29.4906 29.0637 29.5023 29.0057 29.5603C28.8897 29.688 29.0057 29.7345 28.8202 29.8506C28.7042 29.9203 28.5767 29.9899 28.426 30.048C28.2984 30.106 28.1941 30.257 28.0434 30.3267C27.9274 30.3847 27.6376 30.4079 27.4405 30.5241C27.3245 30.5821 27.2318 30.6634 27.1274 30.7447L26.8955 30.9072C26.7796 30.9885 26.6521 31.0466 26.5129 31.0814C26.3622 31.1162 26.2231 31.1627 26.0955 31.2324C26.0608 31.244 26.026 31.2672 25.9912 31.2904C25.9912 31.2904 25.9912 31.2672 26.0144 31.2556C26.1071 31.1859 26.2231 31.1395 26.3042 31.0466C26.4086 30.9188 26.4897 30.8027 26.6173 30.7215C26.7448 30.6402 26.8608 30.5473 26.9651 30.4428C27.2897 30.0828 27.1622 29.8738 27.3825 29.5835C27.4637 29.479 27.8115 29.2584 27.9158 29.1075C27.9622 29.0378 28.0086 28.8985 28.1129 28.7359C28.1941 28.6198 28.4724 28.4224 28.5535 28.2714C28.6579 28.1089 28.6463 27.9811 28.7158 27.7489C28.7738 27.5283 28.8434 27.5515 28.9825 27.3077C29.0521 27.1916 29.0289 27.029 29.1332 26.9013C29.2028 26.82 29.3419 26.7387 29.3999 26.611C29.4231 26.5762 29.4231 26.5297 29.4347 26.4949C29.597 26.4949 29.7361 26.4833 29.8753 26.46C29.9796 26.4368 30.1767 26.4833 30.2695 26.46C30.5129 26.3788 30.6289 26.4368 30.7216 26.4252C30.9187 26.3904 30.8492 26.2859 31.0926 26.3091C31.2434 26.3091 31.4173 26.3439 31.5912 26.3904C31.6724 26.4136 31.7767 26.3904 31.8811 26.3904L31.8579 26.4368C31.7999 26.5646 31.7303 26.6923 31.6144 26.7736V26.7387ZM33.8753 20.4337C33.8521 20.5034 33.8405 20.573 33.8289 20.6543C33.8173 20.724 33.7941 20.8053 33.7825 20.8749C33.7245 21.1884 33.8289 21.4787 33.8057 21.6413C33.8405 21.769 33.7129 21.9664 33.6202 22.1057C33.5506 22.2335 33.5274 22.6283 33.4463 22.7676C33.3883 22.8837 33.3419 22.9882 33.3187 23.0695C33.284 23.2204 33.2492 23.3482 33.226 23.4759C33.2144 23.5688 33.11 23.7197 33.1216 23.801C33.1216 24.0216 33.0289 24.1029 33.0173 24.1842C32.9941 24.3584 33.11 24.3468 33.0173 24.5325C32.9477 24.6487 32.8666 24.7764 32.7506 24.8925C32.6579 24.997 32.6579 25.1828 32.5651 25.3337C32.5303 25.3918 32.4608 25.4615 32.3796 25.5311C32.2868 25.5195 32.1941 25.4963 32.1129 25.5079C31.939 25.5311 31.7651 25.566 31.5912 25.5311C31.4289 25.4963 31.255 25.4731 31.0811 25.4731C30.5361 25.4731 30.4434 25.7053 30.0144 25.7053C29.9448 25.7053 29.8289 25.6821 29.6897 25.6472C29.7245 25.5427 29.8173 25.4499 29.8405 25.3337C29.8753 25.1828 29.8753 25.0318 29.9564 24.9041C30.0376 24.7764 30.0955 24.637 30.1303 24.4977C30.2695 24.0449 30.0492 23.9055 30.1303 23.5572C30.1535 23.4295 30.3738 23.0927 30.4086 22.9069C30.4318 22.8257 30.4086 22.6863 30.4318 22.4889C30.455 22.3496 30.6405 22.0593 30.6521 21.8967C30.6753 21.711 30.6289 21.5948 30.5941 21.351C30.5593 21.1188 30.6289 21.1188 30.6753 20.8517C30.6984 20.724 30.6057 20.573 30.6637 20.4221C30.6984 20.3176 30.8028 20.1899 30.8144 20.0505C30.8144 19.9576 30.7912 19.888 30.7796 19.8067C30.9071 19.8067 31.0231 19.7951 31.1042 19.8067C31.2318 19.8299 31.3477 19.8531 31.4289 19.8531C31.5796 19.8531 31.7071 19.8299 31.8347 19.8067C31.9158 19.7835 32.0897 19.8299 32.1709 19.8067C32.3796 19.7254 32.484 19.7835 32.5651 19.7718C32.739 19.737 32.6811 19.6325 32.8782 19.6557C33.0057 19.6557 33.1564 19.6906 33.3071 19.737C33.4347 19.7718 33.6086 19.7022 33.7709 19.7138C33.7941 19.7138 33.8405 19.737 33.8869 19.7486L33.91 20.0157C33.91 20.155 33.91 20.2944 33.8753 20.4337Z" fill="#07374F"/>
  <path d="M21.0593 28.9757C20.8806 28.9757 20.7182 28.9757 20.5395 28.9757H20.3933L20.1172 28.9431C19.841 28.8943 19.6299 28.8293 19.4837 28.7805C18.9964 28.7805 18.6552 28.7479 18.1842 28.6015C17.6644 28.39 17.3395 28.1297 17.0633 27.9183L16.9496 27.8369L16.7872 27.7556C16.5598 27.6417 16.3811 27.5604 16.2674 27.479C16.1212 27.3814 15.9588 27.2513 15.7963 27.0723C15.6501 26.9096 15.5527 26.7795 15.4552 26.6656L15.2116 26.3403C15.1303 26.324 15.0491 26.2752 14.9679 26.2264C14.708 26.08 14.2044 25.7872 13.7983 25.1039C13.7171 24.99 13.6359 24.8436 13.5547 24.6809C13.311 24.1441 13.1323 23.6398 13.0674 23.0541C13.0349 22.6637 12.9374 22.257 12.8075 21.8828C12.6938 21.5412 12.5313 21.2159 12.4826 20.858C12.4339 20.5489 12.4826 20.2072 12.4826 19.8981C12.4988 19.6216 12.4826 19.345 12.5313 19.0685C12.5801 18.7919 12.645 18.5642 12.71 18.434C12.71 17.946 12.7425 17.6044 12.8887 17.1326C13.0999 16.612 13.3598 16.2867 13.5709 16.0101L13.6521 15.8962L13.7171 15.7498C13.8308 15.5221 13.9283 15.3431 14.0095 15.213C14.107 15.0666 14.2369 14.9039 14.3994 14.7412C14.5618 14.5948 14.6755 14.5135 14.773 14.4321L15.1303 14.1556C15.1303 14.1556 15.1953 13.9929 15.244 13.9115C15.3902 13.6512 15.6989 13.1469 16.3649 12.724C16.4786 12.6426 16.641 12.5613 16.7872 12.48C17.0958 12.3498 17.2583 12.2847 17.4857 12.2197L17.7943 12.0244C18.0867 11.8618 18.3791 11.7967 18.5903 11.7479C18.7365 11.6503 18.9639 11.5364 19.24 11.4713C19.6136 11.4063 19.7923 11.39 19.9385 11.39C20.1659 11.3412 20.3608 11.2924 20.572 11.2761H20.8157C21.1893 11.2761 21.4979 11.3575 21.6928 11.4388C21.8228 11.4388 21.904 11.4225 21.9852 11.4225H22.1314L22.4076 11.4551C22.6837 11.5039 22.9111 11.5689 23.0411 11.634C23.5284 11.634 23.8695 11.6666 24.3243 11.813C24.8441 12.0244 25.169 12.2847 25.4451 12.4962L25.5588 12.5776L25.7213 12.6589C25.9487 12.7728 26.1111 12.8541 26.2248 12.9355C26.371 13.0331 26.5172 13.1632 26.6797 13.3259C26.8259 13.4886 26.9233 13.6024 27.0045 13.7163L27.2807 14.0742C27.3619 14.0742 27.4431 14.1393 27.5243 14.1881C27.768 14.3345 28.2878 14.6273 28.6939 15.3106C28.7751 15.4245 28.8563 15.5709 28.9376 15.7173L29.0025 15.8637C29.1975 16.2867 29.3112 16.7747 29.3599 17.2465C29.4249 17.9623 29.5223 18.6618 29.6848 19.3613C29.8472 20.0608 30.0746 20.6302 29.9609 21.3297C29.9122 21.6226 29.8472 21.834 29.7822 21.9642C29.7822 22.436 29.7497 22.7938 29.6035 23.2493C29.3924 23.7699 29.1325 24.0953 28.9213 24.3718L28.8401 24.4857L28.7589 24.6647C28.6614 24.8761 28.5639 25.0388 28.499 25.1527C28.3853 25.3317 28.2391 25.4781 28.0766 25.6407C27.9467 25.7546 27.833 25.836 27.7355 25.9173L27.3619 26.1939C27.3457 26.2752 27.2969 26.3728 27.2482 26.4541C27.102 26.6982 26.8096 27.2187 26.1274 27.6254C26.0137 27.6905 25.8675 27.7881 25.705 27.8695C25.3964 27.9996 25.234 28.0647 25.0228 28.1297L24.7142 28.325C24.4055 28.5039 24.1131 28.569 23.902 28.6015C23.8045 28.6178 23.6908 28.7154 23.5933 28.7642C23.4472 28.8293 23.301 28.8618 23.1548 28.8943C22.8949 28.9269 22.635 28.9919 22.3588 28.9919C21.9202 28.9919 21.4654 28.9757 21.0268 28.9594L21.0593 28.9757ZM21.173 24.5183C21.2867 24.5345 21.4167 24.5671 21.5304 24.5833V24.5508C21.7578 24.4694 22.0177 24.3881 22.3263 24.3393C22.5862 24.2742 22.8299 24.2742 23.0248 24.2742H23.0411C23.1873 24.1929 23.3822 24.079 23.6258 24.0139C23.6258 23.9977 23.837 23.7374 23.837 23.7374L23.9832 23.6398C24.0969 23.4608 24.2431 23.3307 24.3568 23.2331C24.438 23.0867 24.568 22.924 24.7142 22.745C24.7791 22.6474 24.8929 22.5173 25.039 22.3871C25.0553 22.3383 25.0715 22.3058 25.0878 22.257C25.2015 22.013 25.3152 21.7852 25.3964 21.6714L25.4939 21.5575C25.4939 21.2972 25.4939 21.0532 25.4939 20.8092C25.5264 20.6139 25.5426 20.4838 25.5751 20.3537C25.5751 20.2398 25.6076 20.1259 25.6401 20.012V19.9795H25.6076C25.5426 19.768 25.4614 19.5403 25.4289 19.2962C25.3477 18.9709 25.3314 18.6781 25.3314 18.4503C25.2502 18.3202 25.1365 18.1249 25.0715 17.8647C25.0553 17.8647 24.7954 17.6532 24.7954 17.6532L24.6979 17.523C24.5192 17.4091 24.3893 17.2627 24.2918 17.1489C24.1456 17.0675 23.9832 16.9374 23.8045 16.791C23.7233 16.7259 23.5933 16.612 23.4472 16.4656C23.3984 16.4493 23.3659 16.4331 23.3172 16.4005C23.0735 16.2867 22.8624 16.1891 22.7487 16.1077L22.6187 16.0101H22.3751C22.2126 16.0101 22.0339 16.0101 21.8553 15.9938C21.6766 15.9776 21.5304 15.945 21.4004 15.9125C21.2867 15.8962 21.173 15.88 21.0756 15.8474H21.0431V15.88C20.7994 15.9613 20.572 16.0264 20.3283 16.0752C20.0197 16.1565 19.7436 16.1565 19.5649 16.1565H19.5162C19.3862 16.2379 19.1913 16.3517 18.9314 16.4168L18.7202 16.6934L18.574 16.791C18.4603 16.9699 18.3141 17.1001 18.2167 17.1977C18.1354 17.3278 18.0055 17.5068 17.8755 17.6857C17.8106 17.7833 17.6969 17.9135 17.5507 18.0436C17.5344 18.0924 17.5182 18.1249 17.4857 18.1737C17.372 18.4178 17.2745 18.6292 17.1933 18.7431L17.0958 18.8733C17.0958 19.1173 17.0958 19.3776 17.0796 19.6379C17.0633 19.8168 17.0309 19.9632 16.9984 20.0934C16.9821 20.2072 16.9659 20.3211 16.9334 20.4187V20.4513H16.9659C17.0309 20.6627 17.1121 20.8905 17.1608 21.1508C17.242 21.4599 17.2583 21.7527 17.242 21.9804C17.3232 22.1106 17.437 22.3058 17.5019 22.5498C17.5182 22.5498 17.7781 22.7613 17.7781 22.7613L17.8755 22.9077C18.0542 23.0216 18.1842 23.168 18.2979 23.2819C18.4441 23.3632 18.6065 23.4934 18.7852 23.6235C18.8826 23.6886 19.0126 23.8025 19.1425 23.9489C19.1913 23.9651 19.2238 23.9814 19.2725 24.0139C19.5162 24.1278 19.7273 24.2254 19.841 24.3068L19.971 24.4044H20.2146C20.3771 24.4044 20.5395 24.4044 20.7182 24.4044C20.9131 24.4369 21.0593 24.4532 21.1893 24.4857L21.173 24.5183Z" fill="#EFF7F9"/>
  <path d="M32.857 30.7976C32.6134 30.6349 32.4347 30.4397 32.321 30.2933C32.1911 30.2282 32.0286 30.1306 31.8662 29.9842C31.8499 29.9842 31.8174 29.9842 31.8012 29.9679C31.655 29.9354 31.5413 29.8703 31.4438 29.8052C31.2327 29.7564 31.0865 29.6588 30.9728 29.5775C30.8103 29.5124 30.6479 29.4473 30.5179 29.3497C30.3718 29.2521 30.2418 29.1382 30.1443 29.0406C30.1443 29.0406 30.1443 29.0406 30.1281 29.0406C29.9332 28.943 29.6733 28.8129 29.4621 28.5526C29.2672 28.5038 29.0235 28.4224 28.7636 28.2598C28.7149 28.2272 28.6662 28.1947 28.6337 28.1622L27.5941 27.544C27.3504 27.3813 27.1717 27.1861 27.058 27.0397C26.9281 26.9746 26.7656 26.877 26.6032 26.7306C26.5869 26.7306 26.5545 26.7306 26.5382 26.7143C26.392 26.6818 26.2783 26.6167 26.1809 26.5516C25.9697 26.5028 25.8235 26.4052 25.7098 26.3239C25.5473 26.2588 25.3849 26.1937 25.255 26.0961C25.1088 25.9985 24.9788 25.8846 24.8813 25.787C24.8813 25.787 24.8813 25.787 24.8651 25.787C24.6702 25.6894 24.4103 25.5593 24.1991 25.299C24.0042 25.2502 23.7605 25.1688 23.5006 25.0062C23.3057 24.876 23.1595 24.7459 23.0133 24.5995L22.8509 24.5344C22.6884 24.4693 22.4448 24.3717 22.2174 24.1928L21.3564 23.5258L23.2082 20.5325L24.2316 21.1669C24.3453 21.2483 24.4428 21.3133 24.524 21.3784C24.6052 21.4109 24.7027 21.4435 24.7839 21.5085C24.9788 21.6224 25.1088 21.7688 25.2062 21.899C25.2874 21.9315 25.3687 21.9803 25.4661 22.0454C25.5149 22.0779 25.5636 22.1105 25.5961 22.1593C25.7585 22.1918 25.9859 22.2406 26.2458 22.4033C26.4732 22.5497 26.6194 22.7286 26.7331 22.8751C26.8144 22.9076 26.8956 22.9401 26.993 23.0052C27.188 23.1191 27.3179 23.2655 27.4316 23.4119C27.659 23.4282 27.9839 23.4932 28.325 23.721C28.3738 23.7535 28.4225 23.7861 28.4712 23.8186L29.5108 24.4531C29.6245 24.5344 29.722 24.5995 29.8032 24.6645C29.8844 24.6971 29.9819 24.7296 30.0631 24.7947C30.258 24.9086 30.388 25.055 30.4855 25.1851C30.5667 25.2176 30.6479 25.2665 30.7454 25.3315C30.7941 25.3641 30.8428 25.3966 30.8753 25.4454C31.0377 25.4779 31.2652 25.5267 31.5251 25.6894C31.7525 25.8358 31.8987 26.0148 32.0124 26.1612C32.0936 26.1937 32.1748 26.2263 32.2723 26.2913C32.4672 26.4052 32.5971 26.5516 32.7109 26.698C32.9383 26.7143 33.2631 26.7794 33.6043 27.0071C33.7667 27.121 33.9129 27.2349 34.0428 27.3488C34.0428 27.3488 34.0753 27.3488 34.0916 27.365C34.2378 27.4301 34.3677 27.5114 34.4652 27.5765C34.5951 27.609 34.7413 27.6904 34.8875 27.8043L35.7484 28.4712L33.8967 31.4646L32.8733 30.8301L32.857 30.7976Z" fill="#EFF7F9"/>
  <path d="M34.1727 28.894C34.0753 28.8289 33.9941 28.6988 33.8804 28.6662C33.7179 28.6012 33.5717 28.5686 33.458 28.4385C33.3606 28.3084 33.2306 28.2107 33.0844 28.1294C32.6621 27.8528 32.4022 28.0969 32.0773 27.8854C31.9473 27.8203 31.7199 27.4136 31.5413 27.316C31.46 27.2672 31.3138 27.2347 31.1352 27.1371C31.0052 27.0557 30.8103 26.7141 30.6641 26.6328C30.5016 26.5351 30.3555 26.5351 30.0956 26.4701C29.8519 26.405 29.8844 26.3237 29.657 26.1447C29.5433 26.0634 29.3483 26.0959 29.2346 25.9495C29.1534 25.8519 29.1047 25.6567 28.9747 25.5916C28.861 25.5265 28.7311 25.5265 28.6336 25.4615C28.5199 25.3801 28.5524 25.3313 28.3412 25.2012C28.3412 25.2012 28.1625 25.2012 28.0326 25.1198C27.9351 25.0548 27.8539 24.9246 27.7402 24.8921C27.5778 24.827 27.4316 24.7945 27.3179 24.6643C27.2204 24.5342 27.0905 24.4366 26.9443 24.3552C26.5219 24.0787 26.262 24.3227 25.9371 24.1112C25.8072 24.0461 25.5798 23.6394 25.4011 23.5418C25.3199 23.493 25.1737 23.4605 24.995 23.3629C24.8651 23.2816 24.6701 22.9399 24.5239 22.8586C24.3615 22.761 24.2153 22.761 23.9554 22.6959C23.7117 22.6308 23.7442 22.5495 23.5168 22.3705C23.4031 22.2892 23.2082 22.3217 23.0945 22.1753C23.0133 22.0777 22.9645 21.8825 22.8346 21.8174C22.7209 21.7524 22.5909 21.7524 22.4935 21.6873C22.3798 21.6059 22.4122 21.5571 22.2011 21.427L21.4539 22.6308C21.5676 22.7122 21.6813 22.761 21.8112 22.8098L22.1036 22.9237C22.2498 22.9887 22.3798 23.0538 22.4772 23.1677C22.5747 23.2978 22.7046 23.3954 22.8508 23.4768C23.127 23.6557 23.4843 23.6394 23.6305 23.7371C23.7767 23.7371 23.8904 23.9973 24.0041 24.1275C24.1016 24.2576 24.5239 24.3878 24.6214 24.5179C24.7189 24.6155 24.8001 24.7131 24.8813 24.7619C25.0275 24.8433 25.1574 24.9083 25.2874 24.9409C25.3849 24.9734 25.5148 25.1198 25.6123 25.1198C25.8559 25.1361 25.9047 25.2662 26.0021 25.2988C26.1808 25.3476 26.197 25.2012 26.3757 25.3313C26.4894 25.4127 26.6031 25.5265 26.7006 25.6729C26.7981 25.7868 27.0092 25.8031 27.1392 25.917C27.2529 26.0146 27.3828 26.3074 27.594 26.4375C27.7077 26.5189 27.8214 26.5677 27.9514 26.6165L28.2438 26.7304C28.39 26.7954 28.5199 26.8605 28.6174 26.9744C28.7148 27.1045 28.8448 27.2021 28.991 27.2835C29.2671 27.4624 29.6245 27.4462 29.7707 27.5438C29.9169 27.5438 30.0306 27.804 30.1443 27.9342C30.2417 28.0643 30.6641 28.1945 30.7616 28.3246C30.859 28.4222 30.9402 28.5198 31.0215 28.5686C31.1676 28.65 31.2976 28.7151 31.4275 28.7476C31.525 28.7801 31.655 28.9265 31.7524 28.9265C31.9961 28.9428 32.0448 29.0729 32.1423 29.1055C32.321 29.1543 32.3372 29.0079 32.5159 29.138C32.6296 29.2194 32.7433 29.3332 32.8408 29.4796C32.9382 29.5935 33.1494 29.6098 33.2793 29.7237C33.393 29.8213 33.523 30.1141 33.7342 30.2442L34.4814 29.0404C34.4814 29.0404 34.3027 29.0404 34.1727 28.9591V28.894Z" fill="#07374F"/>
  <path d="M21.287 26.7957C24.9203 26.7957 27.8657 23.8459 27.8657 20.2072C27.8657 16.5684 24.9203 13.6187 21.287 13.6187C17.6537 13.6187 14.7083 16.5684 14.7083 20.2072C14.7083 23.8459 17.6537 26.7957 21.287 26.7957Z" fill="#EFF7F9"/>
  <path d="M19.6138 13.0981C19.4513 13.1306 19.4188 13.2608 19.1752 13.3258C18.9965 13.3746 18.7853 13.3746 18.6229 13.4722C18.5092 13.5373 18.3955 13.6024 18.298 13.6512C18.1843 13.7163 18.0869 13.7813 17.9569 13.8139C17.8432 13.8464 17.7132 13.8789 17.5995 13.9277C17.4858 13.9928 17.3721 14.0579 17.2747 14.123C16.9335 14.3344 16.8036 14.5622 16.7061 14.7574C16.5924 14.9526 16.5274 15.1478 16.3163 15.3431C16.2351 15.4244 16.0726 15.5383 15.8777 15.6847C15.7802 15.7498 15.6828 15.8311 15.6016 15.8962C15.5203 15.9775 15.4554 16.0426 15.4066 16.1077C15.3254 16.2215 15.2442 16.4493 15.098 16.7258C14.968 16.9211 14.5944 17.3278 14.4807 17.588C14.3833 17.8971 14.3833 18.0923 14.3833 18.499C14.3833 18.8895 14.2533 18.8732 14.1883 19.3287C14.1721 19.4426 14.1883 19.5565 14.1883 19.6703C14.2046 19.7842 14.2208 19.9144 14.1883 20.0445C14.1396 20.2235 13.9934 20.4512 14.0259 20.679C14.0421 20.8904 14.1234 21.0531 14.1559 21.2321C14.1883 21.4598 14.1234 21.4598 14.2046 21.8502C14.2371 22.0129 14.3508 22.0455 14.432 22.2895C14.4807 22.4684 14.4807 22.6799 14.5782 22.8426C14.6432 22.9565 14.7081 23.0703 14.7569 23.168C14.8218 23.2818 14.8868 23.3794 14.9193 23.5096C14.9518 23.6235 15.0005 23.7373 15.0493 23.8675C15.1142 23.9814 15.1792 24.0952 15.2442 24.1928C15.4554 24.5345 15.6828 24.6646 15.8777 24.7622C16.0726 24.8761 16.2675 24.9412 16.4625 25.1526C16.5437 25.234 16.6574 25.3967 16.8036 25.5919C16.8686 25.6895 16.9498 25.7871 17.0148 25.8684C17.096 25.9498 17.161 26.0148 17.2259 26.0637C17.3396 26.145 17.567 26.2263 17.8432 26.3727C18.0381 26.5029 18.4442 26.8771 18.7041 26.9909C19.0127 27.0885 19.2077 27.0885 19.6138 27.0885C20.0036 27.0885 19.9874 27.2187 20.4422 27.2838C20.5559 27.3 20.6696 27.2838 20.7833 27.2838C20.897 27.2675 21.027 27.2512 21.1569 27.2838C21.3356 27.3326 21.563 27.479 21.7904 27.4464C22.0016 27.4302 22.164 27.3488 22.3427 27.3163C22.5701 27.2837 22.5701 27.3326 22.96 27.2512C23.1224 27.2187 23.1549 27.1048 23.3986 27.0235C23.5773 26.9747 23.7884 26.9747 23.9509 26.8771C24.0646 26.812 24.1783 26.7469 24.2757 26.6981C24.3894 26.633 24.4869 26.568 24.6169 26.5354C24.7306 26.5029 24.8605 26.4704 24.9742 26.4215C25.0879 26.3565 25.2016 26.2914 25.2991 26.2263C25.6402 26.0148 25.7702 25.7871 25.8676 25.5919C25.9813 25.3967 26.0463 25.2014 26.2575 25.0062C26.3387 24.9249 26.5011 24.811 26.6961 24.6646C26.7935 24.5995 26.891 24.5182 26.9722 24.4531C27.0534 24.3718 27.1184 24.3067 27.1671 24.2416C27.2483 24.1278 27.3296 23.9 27.4758 23.6235C27.6057 23.4282 27.9793 23.0215 28.093 22.7613C28.1905 22.4522 28.1905 22.2569 28.1905 21.8502C28.1905 21.4598 28.3204 21.4761 28.3854 21.0206C28.4017 20.9067 28.3854 20.7928 28.3854 20.679C28.3692 20.5651 28.3529 20.4349 28.3854 20.3048C28.4341 20.1258 28.5803 19.8981 28.5479 19.6703C28.5316 19.4589 28.4504 19.2962 28.4179 19.1172C28.3854 18.8895 28.4341 18.8895 28.3692 18.499C28.3367 18.3526 28.223 18.3038 28.1418 18.0598C28.093 17.8809 28.093 17.6694 27.9956 17.5067C27.9306 17.3928 27.8656 17.2789 27.8169 17.1813C27.7519 17.0675 27.6869 16.9699 27.6544 16.8397C27.622 16.7258 27.5732 16.612 27.5245 16.4818C27.4595 16.3679 27.3945 16.2541 27.3296 16.1565C27.1184 15.8148 26.891 15.6847 26.6961 15.5871C26.5011 15.4732 26.3062 15.4081 26.1113 15.1966C26.0301 15.1153 25.9164 14.9526 25.7702 14.7574C25.7052 14.6598 25.624 14.5622 25.559 14.4809C25.4778 14.3995 25.4128 14.3344 25.3478 14.2856C25.2341 14.2043 25.0067 14.123 24.7306 13.9766C24.5356 13.8464 24.1295 13.4722 23.8696 13.3584C23.561 13.2608 23.3661 13.2608 22.96 13.2608C22.5701 13.2608 22.5864 13.1306 22.1316 13.0655C22.0178 13.0493 21.9041 13.0655 21.7904 13.0655C21.6767 13.0818 21.5468 13.0981 21.4168 13.0655C21.2381 13.0167 21.0107 12.8703 20.7833 12.9029C20.5722 12.9191 20.4097 13.0005 20.231 13.033C20.0036 13.0655 20.0036 13.0005 19.6138 13.0818V13.0981ZM27.2321 20.3211C27.1996 20.4187 27.1834 20.5163 27.1671 20.6302C27.1346 20.7278 27.1184 20.8254 27.1022 20.9392C27.0859 21.1507 27.0859 21.3622 27.1022 21.5412C27.1022 21.6388 27.1022 21.7201 27.1022 21.8014C27.1022 21.8828 27.1022 21.9479 27.0697 21.9967C27.1022 22.1919 26.8585 22.4196 26.7123 22.5823C26.5986 22.745 26.4362 23.2656 26.2737 23.4282C26.1438 23.5584 26.0301 23.656 25.9651 23.7536C25.8351 23.9163 25.7377 24.0627 25.6402 24.2254C25.5752 24.323 25.3641 24.4531 25.3153 24.567C25.1854 24.8598 25.0067 24.8598 24.9255 24.9574C24.7793 25.1526 24.9255 25.2015 24.6493 25.3479C24.5681 25.3967 24.4707 25.4455 24.3732 25.478C24.2757 25.5105 24.162 25.5431 24.0483 25.5593C23.9509 25.5756 23.8696 25.6407 23.7722 25.7058C23.6747 25.7546 23.5773 25.8196 23.4473 25.8522C23.2686 25.9172 22.8788 25.8359 22.5864 25.9172C22.4077 25.9335 22.2453 25.9986 22.0828 26.0474C21.9529 26.0962 21.8229 26.1125 21.7092 26.145C21.6118 26.1613 21.5143 26.1775 21.4168 26.1938C21.3194 26.1938 21.2219 26.1775 21.1244 26.145C21.027 26.1125 20.9295 26.0962 20.8158 26.0799C20.7183 26.0474 20.6209 26.0311 20.5072 26.0148C20.296 25.9986 20.0848 25.9986 19.9062 26.0148C19.8087 26.0148 19.7275 26.0148 19.6463 26.0148C19.565 26.0148 19.5001 26.0148 19.4513 25.9823C19.2564 26.0148 19.029 25.7708 18.8666 25.6244C18.7041 25.5105 18.1843 25.3479 18.0219 25.1852C17.8919 25.055 17.7945 24.9412 17.697 24.8761C17.5346 24.7459 17.3884 24.6483 17.2259 24.5507C17.1285 24.4857 16.9985 24.2742 16.8848 24.2254C16.5924 24.0952 16.5924 23.9163 16.495 23.8349C16.3 23.6885 16.2513 23.8349 16.1051 23.5584C16.0564 23.477 16.0076 23.3794 15.9752 23.2818C15.9427 23.1842 15.9102 23.0703 15.8939 22.9565C15.8777 22.8589 15.8127 22.7775 15.7477 22.6799C15.699 22.5823 15.634 22.4847 15.6016 22.3546C15.5366 22.1756 15.6178 21.7852 15.5366 21.4924C15.5203 21.3134 15.4716 21.1507 15.4066 20.988C15.3579 20.8579 15.3417 20.7278 15.3092 20.6139C15.2929 20.5163 15.2767 20.4187 15.2604 20.3211C15.2604 20.2235 15.2767 20.1258 15.3092 20.0282C15.3417 19.9306 15.3579 19.833 15.3741 19.7191C15.4066 19.6215 15.4229 19.5239 15.4391 19.4101C15.4554 19.1986 15.4554 18.9871 15.4391 18.8081C15.4391 18.7105 15.4391 18.6292 15.4391 18.5478C15.4391 18.4665 15.4391 18.4014 15.4716 18.3526C15.4391 18.1574 15.6828 17.9297 15.829 17.767C15.9427 17.6043 16.1051 17.0837 16.2675 16.9211C16.3975 16.7909 16.5112 16.6933 16.5762 16.5957C16.7061 16.433 16.8036 16.2866 16.9011 16.1239C16.966 16.0263 17.1772 15.8962 17.2259 15.7823C17.3559 15.4895 17.5346 15.4895 17.6158 15.3919C17.762 15.1966 17.6158 15.1478 17.8919 15.0014C17.9731 14.9526 18.0706 14.9038 18.1681 14.8713C18.2655 14.8388 18.3792 14.8062 18.4929 14.7899C18.5904 14.7737 18.6716 14.7086 18.7691 14.6435C18.8666 14.5947 18.964 14.5297 19.094 14.4971C19.2726 14.4321 19.6625 14.5134 19.9549 14.4321C20.1336 14.4158 20.296 14.3507 20.4584 14.3019C20.5884 14.2531 20.7183 14.2368 20.8321 14.2043C20.9295 14.188 21.027 14.1718 21.1244 14.1555C21.2219 14.1555 21.3194 14.1718 21.4168 14.2043C21.5143 14.2368 21.6118 14.2531 21.7255 14.2694C21.8229 14.3019 21.9204 14.3182 22.0341 14.3344C22.2453 14.3507 22.4564 14.3507 22.6351 14.3344C22.7326 14.3344 22.8138 14.3344 22.895 14.3344C22.9762 14.3344 23.0412 14.3344 23.0899 14.367C23.2849 14.3344 23.5123 14.5785 23.6747 14.7249C23.8372 14.8388 24.357 15.0014 24.5194 15.1641C24.6493 15.2943 24.7468 15.4081 24.8443 15.4732C25.0067 15.6033 25.1529 15.701 25.3153 15.7986C25.4128 15.8636 25.5428 16.0751 25.6565 16.1239C25.9488 16.2541 25.9488 16.433 26.0463 16.5144C26.2412 16.6608 26.29 16.5144 26.4362 16.7909C26.4849 16.8722 26.5336 16.9699 26.5661 17.0675C26.5986 17.1651 26.6311 17.2789 26.6473 17.3928C26.6636 17.4904 26.7285 17.5718 26.7935 17.6694C26.8423 17.767 26.9072 17.8646 26.9397 17.9947C27.0047 18.1737 26.9235 18.5641 27.0047 18.8569C27.0209 19.0196 27.0697 19.1986 27.1346 19.3612C27.1834 19.4914 27.1996 19.6215 27.2321 19.7354C27.2483 19.833 27.2646 19.9306 27.2808 20.0282C27.2808 20.1258 27.2646 20.2235 27.2321 20.3211Z" fill="#07374F"/>
  <defs>
    <filter id="filter0_d_1352_10282" x="0.388428" y="0.724121" width="41.2231" height="41.2595" filterUnits="userSpaceOnUse" color-interpolation-filters="sRGB">
      <feFlood flood-opacity="0" result="BackgroundImageFix"/>
      <feColorMatrix in="SourceAlpha" type="matrix" values="0 0 0 0 0 0 0 0 0 0 0 0 0 0 0 0 0 0 127 0" result="hardAlpha"/>
      <feOffset dy="2"/>
      <feGaussianBlur stdDeviation="2.5"/>
      <feComposite in2="hardAlpha" operator="out"/>
      <feColorMatrix type="matrix" values="0 0 0 0 0.063101 0 0 0 0 0.248197 0 0 0 0 0.340745 0 0 0 0.2 0"/>
      <feBlend mode="normal" in2="BackgroundImageFix" result="effect1_dropShadow_1352_10282"/>
      <feBlend mode="normal" in="SourceGraphic" in2="effect1_dropShadow_1352_10282" result="shape"/>
    </filter>
  </defs>
</svg>