<svg xmlns="http://www.w3.org/2000/svg" width="14" height="14" viewBox="0 0 14 14" fill="none">
  <path d="M8.28462 4.65714L7.01487 1.38639C6.8845 1.04627 6.39983 1.04344 6.26662 1.38639L4.99687 4.65714C4.95436 4.76201 4.87217 4.8442 4.7673 4.88672L1.49654 6.15646C1.15643 6.28684 1.15361 6.77149 1.49656 6.9047L4.76732 8.17444C4.87219 8.21696 4.95438 8.29915 4.99689 8.40402L6.26664 11.6748C6.39701 12.0149 6.88166 12.0177 7.01487 11.6748L8.28462 8.40403C8.32713 8.29917 8.40932 8.21697 8.51419 8.17446L11.7849 6.90471C12.1251 6.77434 12.1279 6.28967 11.7849 6.15646L8.51419 4.88672C8.40933 4.8442 8.32713 4.76201 8.28462 4.65714Z" fill="#F9AB02"/>
  <path d="M3.57872 4.58051C3.77995 4.44163 3.99819 4.33108 4.22776 4.23755C4.25611 4.22622 4.31847 4.20354 4.3128 4.20354L4.31848 4.20922C4.31848 4.20922 4.32982 4.22056 4.33832 4.22906C4.35816 4.24323 4.39215 4.25456 4.42616 4.26023C4.44034 4.2574 4.45169 4.26873 4.47436 4.25172C4.49987 4.22621 4.52253 4.20355 4.54804 4.17805C4.59622 4.12986 4.6444 4.08168 4.68975 4.03633C4.78045 3.9343 4.86264 3.81808 4.925 3.6537C5.0242 3.45246 5.01569 2.77508 5.12906 2.49165C5.15457 2.42646 5.20561 2.34711 5.25946 2.24791C5.27363 2.2224 5.28778 2.19688 5.30478 2.16854L5.32746 2.1232L5.36431 2.041C5.41249 1.93046 5.46351 1.81709 5.51453 1.68671C5.59106 1.50815 5.65342 1.09435 5.81214 0.83927C5.95953 0.578517 6.11539 0.433965 6.32229 0.374446C6.53769 0.31776 6.74178 0.346107 6.92317 0.431135C7.01103 0.473649 7.09606 0.530327 7.16691 0.601184C7.23494 0.669206 7.29163 0.759903 7.36532 0.867606C7.48436 1.05467 7.54387 1.2049 7.60622 1.30693C7.70259 1.50533 7.81027 1.65838 7.99734 2.10052C8.0937 2.30459 8.03702 2.57101 8.20141 2.78641C8.31195 2.93663 8.53019 3.08117 8.61522 3.29657C8.69458 3.49497 8.66906 3.67354 8.74559 3.83509C8.79377 3.93429 8.8278 3.97396 8.87031 4.03915C8.90716 4.08733 8.98651 4.25174 8.96667 4.20356L7.61472 5.102C7.56086 5.01414 7.52687 4.91778 7.48719 4.82141C7.45601 4.73355 7.4475 4.7137 7.42766 4.65418C7.39648 4.55498 7.37381 4.45297 7.35113 4.35093L7.24626 3.89462C7.18674 3.67071 7.11022 3.45813 6.97701 3.26257C6.90615 3.16337 6.84665 3.0585 6.78713 2.94797L6.70493 2.78075L6.64258 2.63337C6.64258 2.63337 6.66241 2.61919 6.68225 2.57668C6.71909 2.50015 6.75028 2.2649 6.70493 2.23089C6.69926 2.12319 6.63408 2.1487 6.60573 2.2394C6.57172 2.3301 6.58872 2.46614 6.60006 2.52283C6.6114 2.57951 6.60006 2.5625 6.58022 2.571C6.56038 2.58517 6.55187 2.554 6.50652 2.7524C6.47251 2.96214 6.43567 3.15204 6.38749 3.27391C6.29679 3.50632 6.19192 3.70188 6.07855 3.88327C6.00202 4.00514 5.95385 4.29708 5.86316 4.39911C5.7838 4.48414 5.73561 4.56066 5.7016 4.62868C5.6846 4.6627 5.67042 4.69387 5.65908 4.72788C5.63924 4.78173 5.62224 4.83277 5.60807 4.87528C5.55988 5.00849 5.51737 5.09634 5.45219 5.16153C5.26796 5.33442 5.15458 5.32307 5.05538 5.33158C5.0072 5.33441 4.95335 5.33727 4.88249 5.35144C4.84848 5.35711 4.80596 5.37128 4.76344 5.38545C4.73227 5.39395 4.70109 5.40812 4.66141 5.42513C4.46301 5.51583 4.25894 5.64053 4.0492 5.80491C3.86781 5.94096 3.56455 5.92679 3.31514 6.05717C3.21877 6.10818 3.09405 6.21588 2.9495 6.33208C2.88148 6.38877 2.79081 6.45111 2.72846 6.49646C2.73129 6.5163 2.74263 6.52765 2.74263 6.52765L1.61743 5.24939C1.75914 5.18704 1.87817 5.17002 2.01422 5.14734C2.0709 5.13601 2.13891 5.1247 2.21544 5.11053C2.26079 5.10486 2.31182 5.09349 2.3685 5.07081C2.53856 5.00279 2.69727 4.85542 2.87299 4.81574C3.12241 4.75338 3.36048 4.73073 3.57588 4.58334L3.57872 4.58051Z" fill="#F9AB02"/>
  <path d="M6.32351 12.593C6.15629 12.5675 6.03443 12.5306 5.91823 12.4484C5.79919 12.3804 5.66031 12.2472 5.56111 12.0346C5.54694 12.0035 5.53275 11.9723 5.52424 11.9581C5.39103 11.6095 5.3032 11.3176 5.24935 11.0767C5.2125 10.9321 5.22666 10.9123 5.22099 10.8443C5.22383 10.7847 5.22382 10.7281 5.22665 10.6742C5.23799 10.4531 5.25784 10.2519 5.15581 9.97979C5.09346 9.76438 4.63144 9.26842 4.51807 8.98499C4.50389 8.95381 4.49258 8.91414 4.48407 8.86596C4.4784 8.84328 4.47272 8.82061 4.46989 8.7951L4.47556 8.7724C4.48406 8.74123 4.48123 8.69305 4.44155 8.67605C4.43588 8.67038 4.42741 8.67319 4.41323 8.67036C4.4019 8.67036 4.40471 8.67888 4.37353 8.67605C4.33669 8.67321 4.29703 8.66753 4.25735 8.66186C4.17516 8.65336 4.08729 8.64487 3.99942 8.63636C3.8237 8.61936 3.64796 8.59669 3.53742 8.55418C3.25116 8.44364 3.11796 8.28207 2.78919 8.05533C2.63047 7.94762 2.53695 7.91645 2.43208 7.89661C2.37823 7.8881 2.32154 7.87677 2.25069 7.86827C2.15716 7.84843 1.98709 7.79176 1.79719 7.72658C1.61013 7.65855 1.42875 7.56217 1.28137 7.46014C1.14249 7.35527 1.02627 7.24473 0.893061 7.15687C0.793862 7.09735 0.680469 7.02935 0.586938 6.89614C0.493407 6.76859 0.428239 6.59567 0.448079 6.42278C0.462251 6.26123 0.52743 6.12804 0.598286 6.03451C0.666309 5.93814 0.742849 5.87861 0.808037 5.79075C0.941247 5.65187 0.927082 5.57534 1.22185 5.41662C1.25302 5.39678 1.40323 5.33158 1.62431 5.24656L2.74952 6.52483C2.74385 6.51916 2.72399 6.51067 2.68714 6.50217C2.64746 6.49083 2.59361 6.488 2.54543 6.50784C2.48024 6.53335 2.50858 6.5957 2.61912 6.57019C2.72966 6.55035 2.74383 6.53049 2.7495 6.53049C2.7495 6.53049 2.7495 6.53049 2.74383 6.53616C2.73249 6.53616 2.76085 6.55316 2.79202 6.56733L2.87137 6.61271C2.97341 6.67506 3.06978 6.74307 3.16048 6.80542C3.3362 6.9358 3.48358 7.05483 3.60546 7.10302C3.74717 7.2674 4.14682 7.21923 4.39907 7.2504C4.46425 7.25891 4.54925 7.28725 4.64561 7.32693C4.76465 7.37795 4.89503 7.44031 5.02257 7.49416C5.4052 7.65005 5.60361 7.99581 5.69147 8.19704C5.71131 8.23388 5.7425 8.29906 5.75667 8.31324L5.79918 8.37844C5.82469 8.42095 5.85021 8.46346 5.87289 8.50314C5.91824 8.5825 5.95505 8.65336 5.98056 8.71855C6.07125 8.95096 6.12513 9.1692 6.16481 9.37894C6.19315 9.52065 6.3547 9.76721 6.35186 9.90609C6.35186 10.0875 6.3887 10.2094 6.43121 10.3029C6.45389 10.3483 6.47374 10.3908 6.49358 10.4276C6.50208 10.4475 6.51057 10.4616 6.51624 10.4787C6.51624 10.4787 6.51626 10.4843 6.51626 10.49C6.48791 10.558 6.38021 10.643 6.41423 10.7507C6.41423 10.7507 6.41989 10.7677 6.42556 10.7734C6.47374 10.8386 6.51343 10.8953 6.59562 10.7904C6.6268 10.7479 6.64947 10.7819 6.68349 10.8046C6.7175 10.8329 6.75715 10.8329 6.76282 10.7706C6.76849 10.7252 6.75148 10.6062 6.72313 10.5325C6.70896 10.4956 6.69198 10.4673 6.67497 10.4503C6.66647 10.4418 6.6608 10.4361 6.65797 10.4333C6.65514 10.4191 6.63812 10.4531 6.66363 10.3936L8.15445 10.9718C8.14879 10.9945 8.11192 11.071 8.08074 11.1249C8.04957 11.1787 8.01558 11.2297 7.98157 11.2807C7.91071 11.3856 7.83417 11.5018 7.75198 11.7201C7.69246 11.8816 7.63295 12.0602 7.55359 12.1962C7.51391 12.2642 7.47421 12.3152 7.42886 12.3719C7.38635 12.4144 7.34383 12.4456 7.29848 12.474C7.07457 12.6015 6.6778 12.6525 6.33202 12.5958L6.32351 12.593Z" fill="#F9AB02"/>
  <path d="M10.1171 4.74208C10.3581 4.77326 10.5961 4.84129 10.8286 4.92632C10.9192 4.96033 11.0014 4.99718 11.0723 5.03402C11.129 5.06236 11.1828 5.08787 11.2338 5.11621C11.2934 5.14739 11.3529 5.17855 11.4067 5.20973C11.625 5.3316 11.7724 5.43931 11.8999 5.53851C12.0161 5.64338 12.0841 5.74542 12.1465 5.84746C12.206 5.95232 12.2797 6.01466 12.3704 6.16204C12.4327 6.26407 12.5716 6.55034 12.5206 6.83943C12.4923 6.98114 12.4554 7.08601 12.3987 7.17671C12.3732 7.22489 12.342 7.27309 12.2967 7.31844C12.2627 7.36379 12.2117 7.40344 12.1578 7.43462C12.1238 7.46296 12.07 7.48282 11.9311 7.54234C11.7582 7.59052 11.3841 7.69255 11.0184 7.83142C10.7945 7.91929 10.3892 8.30191 10.1398 8.39828C9.85356 8.50881 9.64949 8.48047 9.24702 8.53715C9.0628 8.56266 8.95509 8.60803 8.88707 8.65904C8.87006 8.68739 8.85874 8.72138 8.85024 8.76957C8.8474 8.77807 8.84457 8.7809 8.83323 8.78657C8.82756 8.7639 8.75103 8.88578 8.70285 8.95664C8.65183 9.04167 8.60933 9.12953 8.60366 9.23723C8.58665 9.42429 8.64617 9.67655 8.56397 9.88912C8.48461 10.0875 8.34857 10.2009 8.29471 10.3738C8.22953 10.5807 8.28904 10.5948 8.14733 10.9576L6.65652 10.3794C6.71887 10.181 6.81522 9.99399 6.92008 9.81543L7.1525 9.40729C7.2602 9.20323 7.34808 8.99065 7.38209 8.75824C7.39343 8.66187 7.41325 8.56834 7.43592 8.47197L7.47561 8.33026L7.50112 8.24807L7.5493 8.10918C7.58331 8.01848 7.62866 7.9278 7.68818 7.84561C7.83273 7.63871 8.04813 7.50267 8.27487 7.44031C8.32306 7.42614 8.40242 7.40346 8.4251 7.39779L8.51296 7.38362C8.56964 7.37795 8.62917 7.36945 8.68019 7.36378C8.89843 7.33827 9.08547 7.32694 9.20734 7.27876C9.42275 7.30143 9.68351 7.001 9.89041 6.85078C9.98961 6.77992 10.1994 6.71189 10.4119 6.6467C10.4629 6.6297 10.5168 6.61553 10.5678 6.59853C10.5706 6.60136 10.582 6.60136 10.5848 6.59853C10.5961 6.59853 10.6046 6.59004 10.599 6.5787C10.5933 6.57303 10.5905 6.56452 10.582 6.55602C10.5621 6.53051 10.5338 6.51916 10.5338 6.51916C10.5338 6.51916 10.5876 6.53334 10.6613 6.51066C10.7039 6.48516 10.5848 6.50216 10.6472 6.47382C10.718 6.4313 10.6897 6.40862 10.667 6.40862C10.6415 6.40578 10.6188 6.41713 10.6188 6.40012C10.6046 6.36328 10.6443 6.32361 10.5933 6.25559C10.5565 6.19607 10.5111 6.14503 10.3496 6.09118C10.1427 6.02599 9.90742 5.97782 9.64383 5.95798C9.41709 5.9353 9.20452 5.72274 8.93526 5.64622C8.87007 5.62638 8.77937 5.62071 8.67733 5.61504C8.62348 5.61221 8.56964 5.60936 8.51296 5.60369L8.4251 5.5952C8.37125 5.58103 8.31739 5.57251 8.26354 5.55834C8.00562 5.50449 7.75339 5.33161 7.62017 5.09069L8.97211 4.19224C8.97211 4.19224 8.90693 4.25743 8.92677 4.28293C8.92677 4.28293 8.92959 4.28576 8.93243 4.28859C8.96644 4.29993 9.00046 4.3056 9.03731 4.31411L9.179 4.34246C9.27254 4.3623 9.3689 4.38497 9.44826 4.42465C9.67217 4.54652 9.8649 4.68822 10.1228 4.72506L10.1171 4.74208Z" fill="#F9AB02"/>
</svg>