<svg xmlns="http://www.w3.org/2000/svg" width="75" height="54" viewBox="0 0 75 54" fill="none">
  <g clip-path="url(#clip0_1600_58876)">
    <path d="M62.9279 1.13736L4.89937 10.5671C2.31973 10.9863 0.568342 13.4174 0.987539 15.997L6.2178 48.1828C6.637 50.7624 9.06803 52.5138 11.6477 52.0946L69.6762 42.6649C72.2559 42.2457 74.0073 39.8146 73.5881 37.235L68.3578 5.04919C67.9386 2.46955 65.5076 0.718162 62.9279 1.13736Z" fill="#DBE9F0"/>
    <path d="M57.2509 45.7132C56.8949 45.6845 56.5963 45.8281 56.2574 45.9257C56.022 46.0004 55.7291 45.9257 55.4821 45.9717C55.1433 46.0291 55.0859 46.2071 54.8734 46.2243L54.5059 43.9617C55.0055 43.8813 55.62 44.0822 55.9129 44.0708C56.2976 44.0478 56.6422 43.8181 56.9523 43.8525C57.3141 43.9042 57.6357 43.91 57.9401 43.887C58.4053 43.8468 58.2445 43.6515 58.6063 43.5022C58.7786 43.4276 59.037 43.5367 59.462 43.2725C59.6285 43.1691 60.0305 43.1978 60.2143 43.1289C60.4899 43.0256 60.7828 42.9394 61.1216 42.882C61.3054 42.8533 61.5638 42.8648 61.8567 42.882C62.2128 42.9107 63.0455 42.6006 63.3786 42.635C63.7232 42.6695 64.2458 42.859 64.487 42.6752C64.843 42.6178 65.4058 42.1928 66.1007 42.0952C66.4395 42.0435 66.7726 42.0263 67.1057 42.055C67.4273 42.078 67.7374 42.0206 68.0361 41.9344L68.6448 41.7392C68.9205 41.6473 69.1961 41.5669 69.4775 41.5439L69.8451 43.8066C69.3167 43.8927 69.311 43.8066 69.0181 43.8296C68.7711 43.8525 68.5759 44.0133 68.2887 44.0593C67.9786 44.111 67.6513 43.9502 67.3986 43.9157C67.0368 43.864 66.7611 44.1282 66.4568 44.1569C65.8365 44.2143 65.7963 44.0593 65.3082 44.266C64.7971 44.4843 64.5788 44.6623 64.1654 44.7312C63.8036 44.7886 63.057 44.6049 62.7296 44.6565C62.2989 44.7255 62.006 44.8748 61.8165 44.9035C61.3973 44.9724 60.4899 44.7542 60.197 44.8288C59.3873 44.9609 59.2954 45.5295 58.2387 45.6903C57.8999 45.7419 57.5668 45.7592 57.2337 45.7305L57.2509 45.7132Z" fill="#DBE9F0"/>
    <path d="M42.2685 48.1482C41.9125 48.1195 41.6138 48.2631 41.275 48.3607C41.0396 48.4353 40.7467 48.3607 40.4997 48.4066C40.1609 48.4641 40.1035 48.6421 39.891 48.6593L39.5234 46.3966C40.0231 46.3162 40.6376 46.5172 40.9304 46.5057C41.3152 46.4828 41.6598 46.2531 41.9699 46.2875C42.3317 46.3392 42.6533 46.3449 42.9577 46.322C43.4228 46.2818 43.262 46.0865 43.6238 45.9372C43.7961 45.8625 44.0546 45.9717 44.4795 45.7132C44.6461 45.6099 45.0481 45.6386 45.2318 45.5697C45.5075 45.4663 45.8004 45.3801 46.1392 45.3227C46.323 45.294 46.5814 45.3055 46.8743 45.3227C47.2304 45.3514 48.0631 45.0413 48.3962 45.0758C48.7407 45.1102 49.2633 45.2997 49.5045 45.116C49.8606 45.0585 50.4234 44.6336 51.1183 44.5359C51.4571 44.4843 51.7902 44.467 52.1233 44.4957C52.4449 44.5187 52.755 44.4613 53.0536 44.3751L53.6624 44.1799C53.938 44.088 54.2137 44.0076 54.4951 43.9846L54.8626 46.2473C54.3343 46.3335 54.3285 46.2473 54.0357 46.2703C53.7887 46.2933 53.5935 46.4541 53.3063 46.5C52.9962 46.5517 52.6689 46.3909 52.4162 46.3564C52.0544 46.3047 51.7787 46.5689 51.4743 46.5976C50.8541 46.6551 50.8139 46.5 50.3258 46.7067C49.8147 46.925 49.5964 47.103 49.1829 47.1719C48.8211 47.2293 48.0746 47.0456 47.7472 47.0973C47.3165 47.1662 47.0236 47.3155 46.8341 47.3442C46.4149 47.4131 45.5075 47.1949 45.2146 47.2695C44.4049 47.4016 44.313 47.9702 43.2563 48.131C42.9175 48.1827 42.5844 48.1999 42.2513 48.1712L42.2685 48.1482Z" fill="#DBE9F0"/>
    <path d="M27.2842 50.5889C26.9281 50.5602 26.6295 50.7038 26.2906 50.8014C26.0552 50.8761 25.7623 50.8014 25.5154 50.8473C25.1765 50.9048 25.1191 51.0828 24.9066 51.1L24.5391 48.8373C25.0387 48.7569 25.6532 48.9579 25.9461 48.9465C26.3308 48.9235 26.6754 48.6938 26.9855 48.7282C27.3473 48.7799 27.6689 48.7857 27.9733 48.7627C28.4385 48.7225 28.2777 48.5272 28.6395 48.3779C28.8118 48.3033 29.0702 48.4124 29.4952 48.1539C29.6617 48.0506 30.0637 48.0793 30.2475 48.0104C30.5231 47.907 30.816 47.8209 31.1548 47.7634C31.3386 47.7347 31.597 47.7462 31.8899 47.7634C32.246 47.7921 33.0787 47.482 33.4118 47.5165C33.7564 47.5509 34.279 47.7405 34.5202 47.5567C34.8762 47.4993 35.439 47.0743 36.1339 46.9767C36.4727 46.925 36.8058 46.9077 37.1389 46.9365C37.4605 46.9594 37.7706 46.902 38.0693 46.8159L38.678 46.6206C38.9537 46.5287 39.2293 46.4483 39.5107 46.4253L39.8783 48.688C39.3499 48.7742 39.3442 48.688 39.0513 48.711C38.8043 48.734 38.6091 48.8948 38.3219 48.9407C38.0118 48.9924 37.6845 48.8316 37.4318 48.7971C37.07 48.7455 36.7943 49.0096 36.49 49.0383C35.8697 49.0958 35.8295 48.9407 35.3414 49.1475C34.8303 49.3657 34.6121 49.5437 34.1986 49.6126C33.8368 49.6701 33.0902 49.4863 32.7628 49.538C32.3321 49.6069 32.0392 49.7562 31.8497 49.7849C31.4305 49.8538 30.5231 49.6356 30.2302 49.7103C29.4205 49.8423 29.3286 50.4109 28.2719 50.5717C27.9331 50.6234 27.6 50.6406 27.2669 50.6119L27.2842 50.5889Z" fill="#DBE9F0"/>
    <path d="M12.3016 53.0239C12.1236 53.0067 11.9628 53.0354 11.7962 53.0813C11.601 53.1215 11.4 53.1847 11.1932 53.2192C10.8888 53.2651 10.5558 53.1445 10.2571 53.1101C9.84938 53.0641 9.71155 53.1904 9.45312 53.1215L10.0159 50.899C10.372 50.9909 10.8027 51.3125 11.0554 51.3355C11.2162 51.3527 11.3712 51.2896 11.5148 51.2494C11.6871 51.1919 11.8536 51.146 12.0087 51.1632C12.3705 51.2149 12.6921 51.2206 12.9965 51.1977C13.4616 51.1575 13.3008 50.9622 13.6626 50.8129C13.8349 50.7382 14.0934 50.8474 14.5183 50.5832C14.6849 50.4798 15.0869 50.5085 15.2707 50.4396C15.5463 50.3362 15.8392 50.2501 16.178 50.1927C16.3618 50.164 16.6202 50.1754 16.9131 50.1927C17.2692 50.2214 18.1019 49.9113 18.435 49.9457C18.7795 49.9802 19.3021 50.1697 19.5433 49.9859C19.8994 49.9285 20.4622 49.5035 21.1571 49.4059C21.4959 49.3542 21.829 49.337 22.1621 49.3657C22.4837 49.3887 22.7938 49.3312 23.0924 49.2451L23.7012 49.0498C23.9768 48.958 24.2525 48.8776 24.5339 48.8546L24.9014 51.1173C24.3731 51.2034 24.3674 51.1173 24.0745 51.1402C23.8275 51.1632 23.6323 51.324 23.3451 51.37C23.035 51.4216 22.7077 51.2608 22.455 51.2264C22.0932 51.1747 21.8175 51.4389 21.5131 51.4676C20.8929 51.525 20.8527 51.37 20.3646 51.5767C19.8535 51.7949 19.6352 51.973 19.2217 52.0419C18.8599 52.0993 18.1134 51.9155 17.786 51.9672C17.3553 52.0361 17.0624 52.1854 16.8729 52.2142C16.4537 52.2831 15.5463 52.0648 15.2534 52.1395C14.4437 52.2716 14.3518 52.8401 13.2951 53.0009C12.9563 53.0526 12.6232 53.0698 12.2901 53.0411L12.3016 53.0239Z" fill="#DBE9F0"/>
    <path d="M4.05018 41.1878C4.07889 40.8318 3.93532 40.5332 3.83769 40.1943C3.76303 39.9589 3.83769 39.666 3.79175 39.419C3.73432 39.0802 3.55629 39.0228 3.53906 38.8103L5.80175 38.4427C5.88215 38.9424 5.68115 39.5569 5.69264 39.8498C5.71561 40.2345 5.94532 40.5791 5.91087 40.8892C5.85918 41.251 5.85344 41.5726 5.87641 41.877C5.91661 42.3422 6.11187 42.1814 6.26118 42.5432C6.33584 42.7154 6.22672 42.9739 6.48515 43.3988C6.58853 43.5654 6.55981 43.9674 6.62873 44.1512C6.7321 44.4268 6.81824 44.7197 6.87567 45.0585C6.90438 45.2423 6.8929 45.5007 6.87567 45.7936C6.84695 46.1497 7.15707 46.9824 7.12261 47.3155C7.08241 47.6658 6.89864 48.1941 7.08816 48.3549C7.16281 48.6536 7.62798 49.0154 7.91513 49.4461C7.98404 49.5552 8.05296 49.6643 8.12187 49.7734L8.32287 50.1123C8.44921 50.342 8.65596 50.4913 8.89142 50.5889C9.04647 50.6636 9.21302 50.6923 9.36807 50.744C9.48293 50.7612 9.5863 50.7842 9.68967 50.8186C9.79879 50.8416 9.90216 50.8646 9.99979 50.9105L9.43699 53.133C8.79379 52.9492 8.84547 52.8516 8.51813 52.6965C8.2597 52.553 7.95533 52.5472 7.65096 52.3405C7.48441 52.2371 7.36381 52.0821 7.26618 51.9213C7.16281 51.7662 7.0939 51.6054 7.0135 51.4733C6.89864 51.2953 6.74933 51.1747 6.60001 51.0483C6.44495 50.9335 6.29564 50.8129 6.20375 50.6521C5.83047 50.0031 5.98552 49.9113 5.62947 49.4059C5.46867 49.1245 5.31935 48.9235 5.23321 48.7167C5.18152 48.6134 5.14132 48.5157 5.10112 48.4066C5.06667 48.3033 5.04369 48.2229 5.02647 48.1195C4.96904 47.7577 5.15281 47.0111 5.10112 46.6838C5.03221 46.253 4.88289 45.9602 4.85418 45.7706C4.78526 45.3514 5.00349 44.444 4.92884 44.1512C4.79675 43.3414 4.22821 43.2495 4.06741 42.1928C4.01572 41.854 3.99849 41.5209 4.02721 41.1878H4.03295H4.05018Z" fill="#DBE9F0"/>
    <path d="M1.61463 26.2047C1.64335 25.8487 1.49977 25.55 1.40214 25.2112C1.32749 24.9757 1.40214 24.6829 1.3562 24.4359C1.29877 24.0971 1.12074 24.0397 1.10352 23.8272L3.36621 23.4596C3.44661 23.9593 3.24561 24.5737 3.25709 24.8666C3.28006 25.2514 3.50978 25.596 3.47532 25.9061C3.42363 26.2679 3.41789 26.5895 3.44086 26.8939C3.48106 27.359 3.67632 27.1982 3.82563 27.56C3.90029 27.7323 3.79118 27.9907 4.04961 28.4157C4.15298 28.5823 4.12426 28.9843 4.19318 29.168C4.29655 29.4437 4.38269 29.7366 4.44012 30.0754C4.46884 30.2592 4.45735 30.5176 4.44012 30.8105C4.41141 31.1666 4.72152 31.9993 4.68707 32.3324C4.65261 32.6769 4.46309 33.1995 4.64687 33.4407C4.70429 33.7968 5.12927 34.3596 5.2269 35.0545C5.27858 35.3933 5.29581 35.7264 5.2671 36.0595C5.24412 36.3811 5.30155 36.6912 5.3877 36.9898L5.58295 37.5986C5.67484 37.8742 5.75524 38.1499 5.77821 38.4313L3.51552 38.7988C3.42938 38.2705 3.51552 38.2647 3.49255 37.9719C3.46958 37.7249 3.30878 37.5297 3.26283 37.2425C3.21115 36.9324 3.37195 36.6051 3.40641 36.3524C3.45809 35.9906 3.19392 35.7149 3.16521 35.4105C3.10778 34.7903 3.26283 34.7501 3.05609 34.262C2.83786 33.7508 2.65983 33.5326 2.59092 33.1191C2.53349 32.7573 2.71726 32.0108 2.66558 31.6834C2.59666 31.2527 2.44735 30.9598 2.41863 30.7703C2.34972 30.3511 2.56795 29.4437 2.49329 29.1508C2.3612 28.3411 1.79266 28.2492 1.63186 27.1925C1.58017 26.8537 1.56295 26.5206 1.59166 26.1875H1.5974L1.61463 26.2047Z" fill="#DBE9F0"/>
    <path d="M2.06822 10.7449C2.44724 10.5496 2.71716 10.274 3.07896 10.0385C3.34313 9.87771 3.69345 9.85474 3.98633 9.7686C4.37685 9.648 4.45725 9.48145 4.71568 9.44125L5.08322 11.7039C4.71568 11.7614 4.19308 11.6408 3.95188 11.7154C3.64176 11.8245 3.48096 12.1347 3.23976 12.2208C2.95262 12.3184 2.71142 12.4677 2.53339 12.6573C2.25199 12.9444 2.50467 12.9961 2.40704 13.3005C2.37833 13.4498 2.13713 13.5531 2.18307 13.9666C2.20604 14.1217 2.02802 14.3859 2.04524 14.5467C2.04524 14.6615 2.05673 14.7764 2.06822 14.897C2.06822 15.0176 2.06822 15.1382 2.0797 15.2645C2.07396 15.4024 2.04524 15.5976 2.00504 15.8331C1.97633 16.1891 2.28644 17.0218 2.25199 17.3549C2.21753 17.6995 2.02802 18.2221 2.21179 18.4633C2.26922 18.8194 2.69419 19.3822 2.79182 20.077C2.8435 20.4159 2.86073 20.749 2.83202 21.082C2.80905 21.4036 2.86647 21.7138 2.95262 22.0124L3.14787 22.6211C3.23976 22.8968 3.32016 23.1725 3.34313 23.4539L1.08044 23.8214C0.994299 23.2931 1.08044 23.2873 1.05747 22.9944C1.0345 22.7475 0.873699 22.5522 0.827756 22.2651C0.77607 21.955 0.936871 21.6276 0.971328 21.3749C1.02301 21.0131 0.758842 20.7375 0.730127 20.4331C0.672699 19.8129 0.827756 19.7727 0.621013 19.2845C0.402784 18.7734 0.224755 18.5552 0.15584 18.1417C0.0984117 17.7799 0.282184 17.0333 0.230498 16.706C0.19604 16.4878 0.138612 16.3097 0.0926689 16.1604C0.0467259 15.9881 0.00652585 15.8331 -0.00495989 15.724C-0.0221885 15.5976 -0.00495988 15.4368 0.0294973 15.2645C0.0582117 15.0922 0.109897 14.9085 0.173069 14.7362C0.282184 14.3859 0.448727 14.0872 0.465955 13.9149C0.586556 13.467 0.569327 13.1626 0.586556 12.8008C0.61527 12.4505 0.672699 12.0255 1.10341 11.5144C1.37333 11.1871 1.70641 10.9229 2.05673 10.7334V10.7449H2.06822Z" fill="#DBE9F0"/>
    <path d="M17.3207 7.51166C17.6767 7.54038 17.9754 7.39681 18.3142 7.29918C18.5496 7.22452 18.8425 7.29918 19.0895 7.25324C19.4283 7.19581 19.4857 7.01778 19.6982 7.00055L20.0658 9.26324C19.5661 9.34364 18.9516 9.14264 18.6588 9.15412C18.274 9.1771 17.9294 9.40681 17.6193 9.37235C17.2575 9.32067 16.9359 9.31493 16.6315 9.3379C16.1664 9.3781 16.3272 9.57335 15.9654 9.72267C15.7931 9.79733 15.5346 9.68821 15.1097 9.94664C14.9431 10.05 14.5411 10.0213 14.3574 10.0902C14.0817 10.1936 13.7888 10.2797 13.45 10.3372C13.2662 10.3659 13.0078 10.3544 12.7149 10.3372C12.3588 10.3084 11.5261 10.6186 11.193 10.5841C10.8485 10.5496 10.3259 10.3601 10.0847 10.5439C9.7286 10.6013 9.1658 11.0263 8.47091 11.1239C8.13208 11.1756 7.799 11.1928 7.46591 11.1641C7.14431 11.1412 6.8342 11.1986 6.53557 11.2847L5.92682 11.48C5.65116 11.5719 5.37551 11.6523 5.09411 11.6752L4.72656 9.41255C5.25491 9.32641 5.26065 9.41255 5.55354 9.38958C5.80048 9.36661 5.99574 9.20581 6.28288 9.15987C6.59299 9.10818 6.92034 9.26898 7.17302 9.30344C7.53483 9.35513 7.81048 9.09095 8.11486 9.06224C8.73509 9.00481 8.77528 9.15987 9.26343 8.95312C9.77454 8.7349 9.99277 8.55687 10.4063 8.48795C10.7681 8.43052 11.5146 8.6143 11.842 8.56261C12.2727 8.4937 12.5656 8.34438 12.7551 8.31567C13.1743 8.24675 14.0817 8.46498 14.3746 8.39032C15.1843 8.25824 15.2762 7.68969 16.3329 7.52889C16.6717 7.47721 17.0048 7.45998 17.3379 7.48869L17.3207 7.51166Z" fill="#DBE9F0"/>
    <path d="M32.305 5.0767C32.6611 5.10541 32.9597 4.96184 33.2986 4.86421C33.534 4.78955 33.8269 4.86421 34.0739 4.81827C34.4127 4.76084 34.4701 4.58281 34.6826 4.56558L35.0501 6.82827C34.5505 6.90867 33.936 6.70767 33.6431 6.71916C33.2584 6.74213 32.9138 6.97184 32.6037 6.93739C32.2419 6.8857 31.9203 6.87996 31.6159 6.90293C31.1507 6.94313 31.3115 7.13839 30.9497 7.2877C30.7774 7.36236 30.519 7.25324 30.094 7.51742C29.9275 7.62079 29.5255 7.59207 29.3417 7.66099C29.0661 7.76436 28.7732 7.8505 28.4344 7.90793C28.2506 7.93665 27.9922 7.92516 27.6993 7.90793C27.3432 7.87922 26.5105 8.18933 26.1774 8.15487C25.8328 8.12042 25.3102 7.9309 25.069 8.11468C24.713 8.1721 24.1502 8.59708 23.4553 8.69471C23.1165 8.74639 22.7834 8.76362 22.4503 8.7349C22.1287 8.71193 21.8186 8.76936 21.5199 8.8555L20.9112 9.05076C20.6355 9.14265 20.3599 9.22305 20.0785 9.24602L19.7109 6.98333C20.2393 6.89719 20.245 6.98333 20.5379 6.96036C20.7849 6.93739 20.9801 6.77659 21.2673 6.73064C21.5774 6.67896 21.9047 6.83976 22.1574 6.87422C22.5192 6.9259 22.7949 6.66173 23.0992 6.63302C23.7195 6.57559 23.7597 6.73064 24.2478 6.5239C24.7589 6.30567 24.9771 6.12764 25.3906 6.05873C25.7524 6.0013 26.499 6.18507 26.8264 6.13339C27.2571 6.06447 27.55 5.91516 27.7395 5.88644C28.1587 5.81753 29.0661 6.03576 29.359 5.9611C30.1687 5.82901 30.2606 5.26047 31.3173 5.09967C31.6561 5.04798 31.9892 5.03075 32.3223 5.05947L32.305 5.0767Z" fill="#DBE9F0"/>
    <path d="M47.2933 2.6417C47.6494 2.67041 47.948 2.52684 48.2868 2.42921C48.5223 2.35456 48.8152 2.42921 49.0621 2.38327C49.401 2.32584 49.4584 2.14781 49.6709 2.13058L50.0384 4.39327C49.5388 4.47368 48.9243 4.27267 48.6314 4.28416C48.2466 4.30713 47.9021 4.53685 47.592 4.50239C47.2302 4.4507 46.9086 4.44496 46.6042 4.46793C46.139 4.50813 46.2998 4.70339 45.938 4.8527C45.7657 4.92736 45.5073 4.81825 45.0823 5.07668C44.9158 5.18005 44.5138 5.15133 44.33 5.22025C44.0544 5.32362 43.7615 5.40976 43.4226 5.46719C43.2389 5.49591 42.9804 5.48442 42.6876 5.46719C42.3315 5.43848 41.4988 5.74859 41.1657 5.71413C40.8211 5.67968 40.2985 5.49016 40.0573 5.67393C39.7013 5.73136 39.1385 6.15634 38.4436 6.25396C38.1047 6.30565 37.7717 6.32288 37.4386 6.29416C37.117 6.27119 36.8069 6.32862 36.5082 6.41476L35.8995 6.61002C35.6238 6.70191 35.3482 6.78231 35.0668 6.80528L34.6992 4.54259C35.2276 4.45645 35.2333 4.54259 35.5262 4.51962C35.7731 4.49665 35.9684 4.33585 36.2555 4.2899C36.5657 4.23822 36.893 4.39902 37.1457 4.43347C37.5075 4.48516 37.7831 4.22099 38.0875 4.19227C38.7077 4.13485 38.7479 4.2899 39.2361 4.08316C39.7472 3.86493 39.9654 3.6869 40.3789 3.61799C40.7407 3.56056 41.4873 3.74433 41.8146 3.69264C42.2453 3.62373 42.5382 3.47442 42.7278 3.4457C43.147 3.37679 44.0544 3.59502 44.3472 3.52036C45.157 3.38827 45.2489 2.81973 46.3056 2.65893C46.6444 2.60724 46.9775 2.59001 47.3106 2.61873L47.2933 2.6417Z" fill="#DBE9F0"/>
    <path d="M62.2756 0.206749C62.4537 0.223978 62.6145 0.195264 62.781 0.149321C62.9763 0.109121 63.1773 0.0459491 63.384 0.0114919C63.6884 -0.034451 64.0215 0.0861492 64.3201 0.120606C64.7278 0.166549 64.8657 0.0402062 65.1241 0.114864L64.5613 2.33735C64.2052 2.24547 63.7745 1.92387 63.5218 1.9009C63.361 1.88367 63.206 1.94684 63.0624 1.98704C62.8901 2.04447 62.7236 2.09041 62.5685 2.07318C62.2067 2.0215 61.8851 2.01575 61.5808 2.03872C61.1156 2.07892 61.2764 2.27418 60.9146 2.4235C60.7423 2.49815 60.4839 2.38904 60.0589 2.64747C59.8923 2.75084 59.4903 2.72213 59.3066 2.79104C59.0309 2.89441 58.738 2.98056 58.3992 3.03798C58.2154 3.0667 57.957 3.05521 57.6641 3.03798C57.3081 3.00927 56.4753 3.31938 56.1423 3.28493C55.7977 3.25047 55.2751 3.06096 55.0339 3.24473C54.6778 3.30216 54.115 3.72713 53.4201 3.82476C53.0813 3.87644 52.7482 3.89367 52.4151 3.86496C52.0935 3.84199 51.7834 3.89941 51.4848 3.98556L50.876 4.18081C50.6004 4.2727 50.3247 4.3531 50.0433 4.37607L49.6758 2.11338C50.2041 2.02724 50.2099 2.11338 50.5028 2.09041C50.7497 2.06744 50.945 1.90664 51.2321 1.8607C51.5422 1.80901 51.8696 1.96981 52.1222 2.00427C52.484 2.05595 52.7597 1.79178 53.0641 1.76307C53.6843 1.70564 53.7245 1.8607 54.2126 1.65395C54.7238 1.43572 54.942 1.25769 55.3555 1.18878C55.7173 1.13135 56.4639 1.31512 56.7912 1.26344C57.2219 1.19452 57.5148 1.04521 57.7043 1.01649C58.1235 0.94758 59.0309 1.16581 59.3238 1.09115C60.1335 0.959065 60.2254 0.390521 61.2821 0.229721C61.6209 0.178035 61.954 0.160806 62.2871 0.189521L62.2756 0.206749Z" fill="#DBE9F0"/>
    <path d="M70.5219 12.0428C70.4932 12.3989 70.6367 12.6975 70.7344 13.0363C70.809 13.2718 70.7344 13.5647 70.7803 13.8116C70.8377 14.1504 71.0158 14.2079 71.033 14.4203L68.7703 14.7879C68.6899 14.2883 68.8909 13.6738 68.8794 13.3809C68.8564 12.9961 68.6267 12.6515 68.6612 12.3414C68.7129 11.9796 68.7186 11.658 68.6956 11.3536C68.6554 10.8885 68.4602 11.0493 68.3109 10.6875C68.2362 10.5152 68.3453 10.2568 68.0869 9.83179C67.9835 9.66525 68.0122 9.26324 67.9433 9.07947C67.84 8.80381 67.7538 8.51093 67.6964 8.1721C67.6677 7.98833 67.6792 7.7299 67.6964 7.43701C67.7251 7.08095 67.415 6.24824 67.4494 5.91515C67.4896 5.56484 67.6734 5.03649 67.4839 4.87569C67.4092 4.57706 66.9441 4.21526 66.6569 3.78455C66.588 3.67543 66.5191 3.56632 66.4502 3.4572L66.2492 3.11837C66.1228 2.88866 65.9161 2.73935 65.6806 2.64172C65.5256 2.56706 65.359 2.53834 65.204 2.48666C65.0891 2.46943 64.9858 2.44646 64.8824 2.412C64.7733 2.38903 64.6699 2.36606 64.5723 2.32012L65.1351 0.0976257C65.7783 0.281398 65.7266 0.379026 66.0539 0.534084C66.3124 0.677655 66.6167 0.683398 66.9211 0.890142C67.0876 0.993513 67.2082 1.14857 67.3059 1.30937C67.4092 1.46443 67.4782 1.62523 67.5586 1.75731C67.6734 1.93534 67.8227 2.05594 67.972 2.18229C68.1271 2.29714 68.2764 2.41774 68.3683 2.57854C68.7416 3.22749 68.5865 3.31938 68.9426 3.82475C69.1034 4.10615 69.2527 4.30715 69.3388 4.51389C69.3905 4.61726 69.4307 4.71489 69.4709 4.82401C69.5054 4.92738 69.5284 5.00778 69.5456 5.11115C69.603 5.47295 69.4192 6.21952 69.4709 6.54687C69.5398 6.97758 69.6892 7.27047 69.7179 7.45998C69.7868 7.87921 69.5686 8.78659 69.6432 9.07947C69.7753 9.88922 70.3438 9.9811 70.5046 11.0378C70.5563 11.3766 70.5736 11.7097 70.5448 12.0428H70.5391H70.5219Z" fill="#DBE9F0"/>
    <path d="M72.9644 27.0259C72.9356 27.382 73.0792 27.6806 73.1768 28.0195C73.2515 28.2549 73.1768 28.5478 73.2228 28.7947C73.2802 29.1336 73.4582 29.191 73.4755 29.4035L71.2128 29.771C71.1324 29.2714 71.3334 28.6569 71.3219 28.364C71.2989 27.9793 71.0692 27.6347 71.1037 27.3246C71.1554 26.9628 71.1611 26.6412 71.1381 26.3368C71.0979 25.8716 70.9027 26.0324 70.7534 25.6706C70.6787 25.4983 70.7878 25.2399 70.5294 24.8149C70.426 24.6484 70.4547 24.2464 70.3858 24.0626C70.2824 23.787 70.1963 23.4941 70.1389 23.1552C70.1102 22.9715 70.1216 22.713 70.1389 22.4202C70.1676 22.0641 69.8575 21.2314 69.8919 20.8983C69.9264 20.5537 70.1159 20.0311 69.9321 19.7899C69.8747 19.4339 69.4497 18.8711 69.3521 18.1762C69.3004 17.8373 69.2832 17.5043 69.3119 17.1712C69.3349 16.8496 69.2774 16.5395 69.1913 16.2408L68.996 15.6321C68.9042 15.3564 68.8238 15.0808 68.8008 14.7994L71.0635 14.4318C71.1496 14.9602 71.0635 14.9659 71.0864 15.2588C71.1094 15.5057 71.2702 15.701 71.3162 15.9881C71.3678 16.2983 71.207 16.6256 71.1726 16.8783C71.1209 17.2401 71.3851 17.5157 71.4138 17.8201C71.4712 18.4403 71.3162 18.4805 71.5229 18.9687C71.7411 19.4798 71.9192 19.698 71.9881 20.1115C72.0455 20.4733 71.8617 21.2199 71.9134 21.5472C71.9823 21.978 72.1316 22.2708 72.1604 22.4604C72.2293 22.8796 72.011 23.787 72.0857 24.0798C72.2178 24.8896 72.7863 24.9815 72.9471 26.0382C72.9988 26.377 73.016 26.7101 72.9873 27.0432H72.9816L72.9644 27.0259Z" fill="#DBE9F0"/>
    <path d="M72.5033 42.4857C72.1243 42.681 71.8543 42.9566 71.4925 43.1921C71.2284 43.3529 70.8781 43.3759 70.5852 43.462C70.1947 43.5826 70.1143 43.7492 69.8558 43.7894L69.4883 41.5267C69.8558 41.4692 70.3784 41.5898 70.6196 41.5152C70.9297 41.4061 71.0905 41.0959 71.3317 41.0098C71.6189 40.9122 71.8601 40.7629 72.0381 40.5733C72.3195 40.2862 72.0668 40.2345 72.1645 39.9301C72.1932 39.7808 72.4344 39.6775 72.3884 39.264C72.3655 39.1089 72.5435 38.8447 72.5263 38.6839C72.5263 38.5691 72.5148 38.4542 72.5033 38.3336C72.5033 38.213 72.5033 38.0924 72.4918 37.9661C72.4975 37.8283 72.5263 37.633 72.5665 37.3975C72.5952 37.0415 72.2851 36.2088 72.3195 35.8757C72.354 35.5311 72.5435 35.0085 72.3597 34.7673C72.3023 34.4112 71.8773 33.8484 71.7797 33.1536C71.728 32.8147 71.7108 32.4816 71.7395 32.1486C71.7625 31.827 71.705 31.5168 71.6189 31.2182L71.4236 30.6095C71.3317 30.3338 71.2513 30.0582 71.2284 29.7768L73.4911 29.4092C73.5772 29.9376 73.4911 29.9433 73.514 30.2362C73.537 30.4831 73.6978 30.6784 73.7437 30.9655C73.7954 31.2756 73.6346 31.603 73.6002 31.8557C73.5485 32.2175 73.8127 32.4931 73.8414 32.7975C73.8988 33.4177 73.7437 33.4579 73.9505 33.9461C74.1687 34.4572 74.3467 34.6754 74.4157 35.0889C74.4731 35.4507 74.2893 36.1973 74.341 36.5246C74.3755 36.7371 74.4329 36.9209 74.4788 37.0702C74.5248 37.2425 74.565 37.3975 74.5765 37.5067C74.5937 37.633 74.5765 37.7938 74.542 37.9661C74.5133 38.1384 74.4616 38.3221 74.3984 38.4944C74.2893 38.8447 74.1228 39.1434 74.1055 39.3157C73.9849 39.7636 74.0022 40.068 73.9849 40.4298C73.9562 40.7801 73.8988 41.2051 73.4681 41.7162C73.1982 42.0435 72.8651 42.3077 72.5148 42.4972V42.4857H72.5033Z" fill="#DBE9F0"/>
    <path d="M16.7185 23.6674L11.169 24.5692C10.1609 24.733 9.47655 25.683 9.64036 26.691L10.2345 30.3472C10.3983 31.3553 11.3483 32.0397 12.3564 31.8759L17.9058 30.9741C18.9139 30.8103 19.5983 29.8603 19.4345 28.8522L18.8404 25.196C18.6765 24.188 17.7265 23.5036 16.7185 23.6674Z" fill="#F79360"/>
    <path d="M8.61431 26.1071C8.75214 25.5902 8.84976 25.1078 9.13691 24.6369C9.34365 24.2981 9.75139 24.0971 10.0845 23.9133C10.5439 23.6778 10.6473 23.4998 10.9861 23.4424L11.3537 25.7051C11.256 25.7223 11.1412 25.6821 11.0033 25.6821C10.8655 25.6764 10.7219 25.6993 10.6588 25.7568C10.4807 25.9176 10.5784 26.1702 10.4865 26.3023C10.4176 26.3885 10.3889 26.4804 10.3716 26.5952C10.3716 26.756 10.3716 26.9168 10.3831 27.0661C10.4233 27.5313 10.6186 27.3648 10.7621 27.7323C10.8368 27.9046 10.7277 28.163 10.9861 28.588C11.0895 28.7545 11.0608 29.1508 11.1297 29.3403C11.1814 29.4781 11.2273 29.6217 11.2733 29.771C11.2905 29.8457 11.3135 29.9203 11.3307 30.0007C11.3479 30.0697 11.3651 30.1903 11.3709 30.196C11.3824 30.2649 11.3594 30.3683 11.3824 30.5119C11.3824 30.6037 11.503 30.6956 11.6293 30.7473C11.7557 30.8047 11.8763 30.8047 11.9394 30.8622C12.0026 30.9139 12.1002 31.0115 12.2208 31.0517C12.4218 31.0804 12.6113 31.0804 12.7319 30.9885C13.0823 30.9311 13.6508 30.5061 14.3457 30.4085C14.6845 30.3568 15.0176 30.3396 15.3507 30.3683C15.6723 30.3913 15.9767 30.3338 16.281 30.2477L16.8898 30.0524C17.1654 29.9605 17.4354 29.8801 17.7225 29.8572L18.09 32.1199C17.5617 32.206 17.5617 32.1199 17.2631 32.1428C17.0161 32.1658 16.8266 32.3266 16.5395 32.3725C16.2294 32.4242 15.9078 32.2577 15.6493 32.2232C15.2933 32.1715 15.0119 32.4357 14.7132 32.4644C14.0987 32.5219 14.0528 32.3668 13.5704 32.5735C13.3177 32.6827 13.1339 32.7803 12.9674 32.8607C12.8813 32.9009 12.8009 32.9353 12.7147 32.9641C12.6286 32.9928 12.5539 33.0157 12.3587 33.0387C12.06 33.0732 11.6178 32.9755 11.256 32.7803C10.8827 32.5908 10.6013 32.3266 10.4176 32.183C9.91794 31.7983 9.61931 31.4135 9.49871 31.1551C9.43554 31.0115 9.38959 30.8047 9.38385 30.5923C9.37811 30.3798 9.40682 30.2649 9.42405 30.0926C9.45851 29.7768 9.49871 29.4781 9.45851 29.3288C9.32642 28.5191 8.75788 28.4329 8.60282 27.3762C8.57985 27.2097 8.56262 27.0374 8.55114 26.8709C8.53391 26.6067 8.55114 26.3425 8.62005 26.0956V26.1071H8.61431Z" fill="#EF8F5E"/>
    <path d="M20.4621 29.4379C20.3242 29.9548 20.2266 30.4372 19.9395 30.9081C19.7327 31.2469 19.325 31.448 18.9919 31.6317C18.5325 31.8672 18.4291 32.0452 18.0903 32.1026L17.7227 29.8399C17.8203 29.8227 17.9352 29.8629 18.073 29.8629C18.2109 29.8687 18.3544 29.8457 18.4176 29.7883C18.5956 29.6275 18.498 29.3748 18.5899 29.2427C18.6588 29.1565 18.6875 29.0647 18.7047 28.9498C18.7047 28.789 18.7047 28.6282 18.6933 28.4789C18.6531 28.0137 18.4578 28.1803 18.3142 27.8127C18.2396 27.6404 18.3487 27.382 18.0903 26.957C17.9869 26.7905 18.0156 26.3942 17.9467 26.2047C17.895 26.0669 17.8491 25.9233 17.8031 25.774C17.7859 25.6993 17.7629 25.6247 17.7457 25.5443C17.7285 25.4754 17.7112 25.3548 17.7055 25.349C17.694 25.2801 17.717 25.1767 17.694 25.0332C17.694 24.9413 17.5734 24.8494 17.4471 24.7977C17.3207 24.7403 17.2001 24.7403 17.1369 24.6828C17.0738 24.6312 16.9761 24.5335 16.8555 24.4933C16.6545 24.4646 16.465 24.4646 16.3444 24.5565C15.9941 24.6139 15.4256 25.0389 14.7307 25.1365C14.3918 25.1882 14.0588 25.2055 13.7257 25.1767C13.4041 25.1538 13.0997 25.2112 12.7953 25.2973L12.1866 25.4926C11.9109 25.5845 11.641 25.6649 11.3539 25.6879L10.9863 23.4252C11.5147 23.339 11.5147 23.4252 11.8133 23.4022C12.0602 23.3792 12.2498 23.2184 12.5369 23.1725C12.847 23.1208 13.1686 23.2873 13.427 23.3218C13.7831 23.3735 14.0645 23.1093 14.3631 23.0806C14.9776 23.0232 15.0236 23.1782 15.506 22.9715C15.7587 22.8624 15.9424 22.7647 16.109 22.6843C16.1951 22.6441 16.2755 22.6097 16.3617 22.581C16.4478 22.5522 16.5225 22.5293 16.7177 22.5063C17.0163 22.4718 17.4585 22.5695 17.8203 22.7647C18.1936 22.9542 18.475 23.2184 18.6588 23.362C19.1584 23.7468 19.4571 24.1315 19.5777 24.39C19.6408 24.5335 19.6868 24.7403 19.6925 24.9528C19.6983 25.1653 19.6695 25.2801 19.6523 25.4524C19.6179 25.7683 19.5777 26.0669 19.6179 26.2162C19.7499 27.0259 20.3185 27.1121 20.4735 28.1688C20.4965 28.3353 20.5137 28.5076 20.5252 28.6741C20.5425 28.9383 20.5252 29.2025 20.4563 29.4494V29.4379H20.4621Z" fill="#EF8F5E"/>
    <path d="M63.263 30.912L14.0036 38.9168C12.7169 39.1259 11.8431 40.3372 12.052 41.6223C12.2608 42.9074 13.4732 43.7797 14.7598 43.5706L64.0192 35.5659C65.3059 35.3568 66.1797 34.1455 65.9708 32.8604C65.762 31.5752 64.5496 30.7029 63.263 30.912Z" fill="#1F5068"/>
    <path d="M50.6046 38.7816C50.2199 38.7586 49.8983 38.9022 49.5365 39.0056C49.278 39.0802 48.9679 39.017 48.7038 39.0572C48.342 39.1147 48.273 39.2984 48.0433 39.3157L47.6758 37.053C48.2156 36.9668 48.8703 37.1621 49.1862 37.1449C49.6054 37.1161 49.9729 36.8807 50.3118 36.9151C50.6965 36.9611 51.0468 36.9668 51.3742 36.9324C51.8738 36.8864 51.7015 36.6912 52.0978 36.5419C52.2873 36.4672 52.563 36.5706 53.0224 36.3064C53.2004 36.203 53.6311 36.226 53.8321 36.1513C54.1308 36.0422 54.4466 35.9503 54.8084 35.8929C55.0037 35.8585 55.2851 35.8699 55.6009 35.8814C55.9857 35.9044 56.8873 35.5828 57.2434 35.6115C57.6167 35.646 58.1795 35.824 58.4322 35.6402C58.8112 35.5771 59.4257 35.1463 60.178 35.0372C60.5398 34.9855 60.9074 34.9626 61.2634 34.9855C61.608 35.0028 61.9411 34.9453 62.2684 34.8535L62.9231 34.6467C63.2217 34.5548 63.5204 34.4687 63.8247 34.44L64.1923 36.7027C63.618 36.7945 63.618 36.7084 63.3021 36.7371C63.038 36.7601 62.8255 36.9266 62.5154 36.9783C62.1823 37.03 61.832 36.8749 61.5563 36.8405C61.1715 36.7945 60.8672 37.0645 60.5398 37.0932C59.8736 37.1621 59.8277 37.007 59.2993 37.2195C58.748 37.4435 58.5126 37.6273 58.0646 37.7019C57.6741 37.7651 56.8701 37.5871 56.5198 37.6445C56.0546 37.7192 55.7388 37.8685 55.5378 37.9029C55.0841 37.9776 54.1078 37.7708 53.7919 37.8512C52.919 37.9948 52.8157 38.5633 51.6728 38.7356C51.311 38.7873 50.9435 38.8103 50.5874 38.7873L50.6046 38.7816Z" fill="#1F5068"/>
    <path d="M34.4445 41.4061C34.0597 41.3831 33.7381 41.5267 33.3763 41.63C33.1179 41.7047 32.8078 41.6415 32.5436 41.6817C32.1818 41.7391 32.1129 41.9229 31.8832 41.9401L31.5156 39.6775C32.0555 39.5913 32.7101 39.7866 33.026 39.7693C33.4452 39.7406 33.8128 39.5052 34.1516 39.5396C34.5364 39.5856 34.8867 39.5913 35.214 39.5569C35.7137 39.5109 35.5414 39.3157 35.9376 39.1663C36.1271 39.0917 36.4028 39.1951 36.8622 38.9309C37.0403 38.8275 37.471 38.8505 37.672 38.7758C37.9706 38.6667 38.2865 38.5748 38.6483 38.5174C38.8435 38.4829 39.1249 38.4944 39.4408 38.5059C39.8256 38.5289 40.7272 38.2073 41.0832 38.236C41.4565 38.2705 42.0193 38.4485 42.272 38.2647C42.651 38.2015 43.2655 37.7708 44.0179 37.6617C44.3797 37.61 44.7472 37.5871 45.1033 37.61C45.4478 37.6273 45.7809 37.5698 46.1083 37.4779L46.7629 37.2712C47.0616 37.1793 47.3602 37.0932 47.6646 37.0645L48.0321 39.3271C47.4578 39.419 47.4578 39.3329 47.142 39.3616C46.8778 39.3846 46.6653 39.5511 46.3552 39.6028C46.0221 39.6545 45.6718 39.4994 45.3961 39.465C45.0114 39.419 44.707 39.6889 44.3797 39.7177C43.7135 39.7866 43.6675 39.6315 43.1392 39.844C42.5879 40.068 42.3524 40.2517 41.9045 40.3264C41.514 40.3896 40.71 40.2115 40.3596 40.269C39.8945 40.3436 39.5786 40.4929 39.3776 40.5274C38.9239 40.6021 37.9476 40.3953 37.6318 40.4757C36.7589 40.6193 36.6555 41.1878 35.5127 41.3601C35.1509 41.4118 34.7833 41.4348 34.4273 41.4118L34.4445 41.4061Z" fill="#1F5068"/>
    <path d="M18.2785 44.0363C17.8937 44.0133 17.5721 44.1569 17.2103 44.2603C16.9519 44.3349 16.6418 44.2718 16.3776 44.312C16.0158 44.3694 15.9469 44.5532 15.7172 44.5704L15.3496 42.3077C15.8894 42.2215 16.5441 42.4168 16.86 42.3996C17.2792 42.3709 17.6468 42.1354 17.9856 42.1699C18.3704 42.2158 18.7207 42.2215 19.048 42.1871C19.5476 42.1411 19.3754 41.9459 19.7716 41.7966C19.9611 41.7219 20.2368 41.8253 20.6962 41.5611C20.8742 41.4577 21.305 41.4807 21.506 41.4061C21.8046 41.2969 22.1205 41.2051 22.4823 41.1476C22.6775 41.1132 22.9589 41.1247 23.2748 41.1361C23.6595 41.1591 24.5612 40.8375 24.9172 40.8662C25.2905 40.9007 25.8533 41.0787 26.106 40.8949C26.485 40.8318 27.0995 40.4011 27.8518 40.2919C28.2136 40.2403 28.5812 40.2173 28.9372 40.2403C29.2818 40.2575 29.6149 40.2001 29.9422 40.1082L30.5969 39.9014C30.8956 39.8095 31.1942 39.7234 31.4986 39.6947L31.8661 41.9574C31.2918 42.0493 31.2918 41.9631 30.976 41.9918C30.7118 42.0148 30.4993 42.1813 30.1892 42.233C29.8561 42.2847 29.5058 42.1297 29.2301 42.0952C28.8454 42.0493 28.541 42.3192 28.2136 42.3479C27.5475 42.4168 27.5015 42.2617 26.9732 42.4742C26.4219 42.6982 26.1864 42.882 25.7385 42.9566C25.3479 43.0198 24.5439 42.8418 24.1936 42.8992C23.7285 42.9739 23.4126 43.1232 23.2116 43.1576C22.7579 43.2323 21.7816 43.0255 21.4658 43.1059C20.5928 43.2495 20.4895 43.8181 19.3466 43.9904C18.9848 44.042 18.6173 44.065 18.2612 44.042L18.2785 44.0363Z" fill="#1F5068"/>
    <path d="M19.3353 37.0185C19.7201 37.0415 20.0417 36.8979 20.4035 36.7945C20.6619 36.7199 20.972 36.7831 21.2362 36.7429C21.598 36.6854 21.6669 36.5016 21.8966 36.4844L22.2642 38.7471C21.7243 38.8333 21.0696 38.638 20.7538 38.6552C20.3346 38.6839 19.967 38.9194 19.6282 38.8849C19.2434 38.839 18.8931 38.8333 18.5658 38.8677C18.0661 38.9137 18.2384 39.1089 17.8422 39.2582C17.6526 39.3329 17.377 39.2295 16.9176 39.4937C16.7395 39.5971 16.3088 39.5741 16.1078 39.6487C15.8092 39.7579 15.4933 39.8497 15.1315 39.9072C14.9363 39.9416 14.6549 39.9301 14.339 39.9187C14.2931 39.9187 14.2356 39.9187 14.1725 39.9187C14.138 39.9244 14.0978 39.9359 14.0576 39.9416C13.9772 39.9646 13.8911 40.0048 13.8164 40.0565C13.6613 40.1541 13.5407 40.2805 13.4431 40.3264C13.334 40.3609 13.1904 40.4183 13.0641 40.5044C12.9435 40.5906 12.8573 40.7169 12.909 40.826C12.8746 40.9466 12.9205 41.1361 13.0124 41.3142C13.1043 41.4979 13.2249 41.6587 13.311 41.831C13.3972 41.9976 13.4891 42.1641 13.6097 42.3479C13.7245 42.5202 13.9313 42.6063 14.1323 42.6006C14.2701 42.6006 14.3964 42.5661 14.517 42.5202C14.563 42.4972 14.764 42.4398 14.9018 42.4053C15.0511 42.3709 15.2004 42.3421 15.3555 42.3307L15.723 44.5934C15.4359 44.6393 15.2923 44.6393 15.1832 44.6336C15.1258 44.6336 15.0798 44.6278 15.0224 44.6221C14.9937 44.6221 14.965 44.6221 14.9363 44.6221C14.8903 44.6221 14.8386 44.6221 14.7812 44.6278C14.4079 44.6508 14.0519 44.7771 13.5867 44.668C13.0813 44.5532 12.754 44.1397 12.5128 43.8697C12.1739 43.4965 11.7088 43.2782 11.4963 42.8533C11.2895 42.4283 11.2838 42.1756 11.2608 41.9631C11.2436 41.7449 11.2149 41.5611 11.1517 41.1821C11.0656 40.3896 11.0885 39.9244 11.4331 39.3501C11.5882 39.0974 11.927 38.8045 12.2945 38.6208C12.6621 38.4255 13.0411 38.3279 13.2651 38.2417C13.4144 38.1901 13.558 38.1384 13.6901 38.1039C13.8049 38.0695 13.9083 38.0407 14.0059 38.012C14.1667 37.9603 14.2988 37.9144 14.4022 37.8972C14.8559 37.8225 15.8322 38.0293 16.148 37.9489C17.0209 37.8053 17.1243 37.2367 18.2671 37.0645C18.6289 37.0128 18.9965 36.9898 19.3525 37.0128L19.3353 37.0185Z" fill="#1F5068"/>
    <path d="M35.5017 34.3883C35.8865 34.4112 36.2081 34.2677 36.5699 34.1643C36.8283 34.0896 37.1384 34.1528 37.4026 34.1126C37.7644 34.0552 37.8333 33.8714 38.063 33.8542L38.4306 36.1169C37.8907 36.203 37.236 36.0078 36.9202 36.025C36.5009 36.0537 36.1334 36.2892 35.7946 36.2547C35.4098 36.2088 35.0595 36.203 34.7321 36.2375C34.2325 36.2834 34.4048 36.4787 34.0085 36.628C33.819 36.7026 33.5434 36.5993 33.0839 36.8635C32.9059 36.9668 32.4752 36.9438 32.2742 37.0185C31.9756 37.1276 31.6597 37.2195 31.2979 37.2769C31.1027 37.3114 30.8213 37.2999 30.5054 37.2884C30.1206 37.2655 29.219 37.5871 28.8629 37.5583C28.4896 37.5239 27.9268 37.3458 27.6742 37.5296C27.2951 37.5928 26.6806 38.0235 25.9283 38.1326C25.5665 38.1843 25.199 38.2073 24.8429 38.1843C24.4984 38.1671 24.1653 38.2245 23.8379 38.3164L23.1832 38.5231C22.8846 38.615 22.586 38.7012 22.2816 38.7299L21.9141 36.4672C22.4883 36.3753 22.4883 36.4614 22.8042 36.4327C23.0684 36.4098 23.2809 36.2432 23.591 36.1915C23.9241 36.1398 24.2744 36.2949 24.55 36.3294C24.9348 36.3753 25.2392 36.1054 25.5665 36.0767C26.2327 36.0078 26.2786 36.1628 26.807 35.9503C27.3583 35.7264 27.5938 35.5426 28.0417 35.4679C28.4322 35.4048 29.2362 35.5828 29.5865 35.5254C30.0517 35.4507 30.3676 35.3014 30.5686 35.2669C31.0223 35.1923 31.9985 35.399 32.3144 35.3186C33.1873 35.175 33.2907 34.6065 34.4335 34.4342C34.7953 34.3825 35.1629 34.3596 35.5189 34.3825L35.5017 34.3883Z" fill="#1F5068"/>
    <path d="M51.6618 31.7638C52.0466 31.7868 52.3682 31.6432 52.73 31.5398C52.9884 31.4652 53.2986 31.5283 53.5627 31.4881C53.9245 31.4307 53.9934 31.2469 54.2232 31.2297L54.5907 33.4924C54.0509 33.5785 53.3962 33.3833 53.0803 33.4005C52.6611 33.4292 52.2936 33.6647 51.9547 33.6302C51.57 33.5843 51.2196 33.5785 50.8923 33.613C50.3927 33.6589 50.565 33.8542 50.1687 34.0035C49.9792 34.0782 49.7035 33.9748 49.2441 34.239C49.0661 34.3423 48.6353 34.3194 48.4343 34.394C48.1357 34.5031 47.8199 34.595 47.4581 34.6525C47.2628 34.6869 46.9814 34.6754 46.6655 34.6639C46.2808 34.641 45.3791 34.9626 45.0231 34.9339C44.6498 34.8994 44.087 34.7214 43.8343 34.9051C43.4553 34.9683 42.8408 35.399 42.0885 35.5081C41.7267 35.5598 41.3591 35.5828 41.0031 35.5598C40.6585 35.5426 40.3254 35.6 39.9981 35.6919L39.3434 35.8987C39.0448 35.9963 38.7461 36.0767 38.4418 36.1054L38.0742 33.8427C38.6485 33.7508 38.6485 33.837 38.9644 33.8083C39.2285 33.7853 39.441 33.6187 39.7511 33.5671C40.0842 33.5154 40.4345 33.6704 40.7102 33.7049C41.095 33.7508 41.3993 33.4809 41.7267 33.4522C42.3929 33.3833 42.4388 33.5383 42.9671 33.3259C43.5185 33.1019 43.7539 32.9181 44.2019 32.8435C44.5924 32.7803 45.3964 32.9583 45.7467 32.9009C46.2119 32.8262 46.5277 32.6769 46.7287 32.6425C47.1824 32.5678 48.1587 32.7745 48.4746 32.6941C49.3475 32.5506 49.4508 31.982 50.5937 31.8097C50.9555 31.758 51.323 31.7351 51.6791 31.758L51.6618 31.7638Z" fill="#1F5068"/>
    <path d="M66.8687 34.2332C66.6275 34.7156 66.4667 35.1751 66.1221 35.6058C65.8752 35.9159 65.4559 36.0824 65.1171 36.249C64.6462 36.4672 64.5428 36.6395 64.204 36.6969L63.8365 34.4342C63.9743 34.4113 64.1351 34.4342 64.3074 34.4285C64.4739 34.4285 64.6462 34.394 64.7323 34.3309C64.9678 34.1528 64.9391 33.837 65.0712 33.6819C65.2435 33.4867 65.3181 33.234 65.3066 33.0042C65.2664 32.6424 65.0712 32.7918 64.8989 32.6022C64.807 32.5333 64.8415 32.2806 64.4854 32.229C64.3648 32.2117 64.204 32.0222 64.0777 32.0222C63.8939 32.0222 63.7273 32.0337 63.5378 32.0509C63.5148 32.0509 63.4861 32.0509 63.4517 32.0509C63.3942 32.0509 63.3311 32.0509 63.2679 32.0509C63.1358 32.0509 62.9865 32.0452 62.8257 32.0394C62.4409 32.0165 61.5393 32.3381 61.1832 32.3094C60.81 32.2749 60.2472 32.0969 59.9945 32.2806C59.6154 32.3438 59.001 32.7745 58.2486 32.8836C57.8868 32.9353 57.5193 32.9583 57.1632 32.9353C56.8187 32.9181 56.4856 32.9755 56.1582 33.0674L55.5035 33.2742C55.2049 33.366 54.9063 33.4522 54.6019 33.4809L54.2344 31.2182C54.8087 31.1263 54.8087 31.2125 55.1245 31.1838C55.3887 31.1608 55.6012 30.9942 55.9113 30.9426C56.2444 30.8909 56.5947 31.0459 56.8703 31.0804C57.2551 31.1263 57.5595 30.8564 57.8868 30.8277C58.553 30.7588 58.599 30.9138 59.1273 30.7014C59.6786 30.4774 59.9141 30.2936 60.362 30.219C60.7525 30.1558 61.5565 30.3338 61.9068 30.2764C62.372 30.2017 62.6879 30.0524 62.8889 30.018C63.0554 29.9835 63.6297 29.9892 64.0375 30.1386C64.4682 30.2764 64.8013 30.5118 64.985 30.5922C65.4732 30.8507 65.812 30.9885 66.1853 31.224C66.5356 31.4594 66.9606 31.8442 67.1099 32.6941C67.1903 33.234 67.1099 33.791 66.8802 34.2447V34.2332H66.8687Z" fill="#1F5068"/>
  </g>
  <defs>
    <clipPath id="clip0_1600_58876">
      <rect width="74.5712" height="53.2306" fill="white"/>
    </clipPath>
  </defs>
</svg>