<svg xmlns="http://www.w3.org/2000/svg" width="34" height="34" viewBox="0 0 34 34" fill="none">
  <path d="M28.9548 15.9909V8.34301C28.9548 7.53506 28.342 6.85992 27.5385 6.79351C25.5316 6.62749 21.6865 5.87857 17.9001 2.75375C17.3461 2.29628 16.5316 2.29628 15.9775 2.75375C12.1911 5.88226 8.34238 6.63118 6.33911 6.7972C5.53927 6.86361 4.92288 7.53875 4.92288 8.3467V15.9946C4.92288 16.0315 4.92288 16.0721 4.91921 16.109C4.88252 16.6587 4.67706 21.2297 7.88742 25.1551C10.5474 28.4016 14.532 30.8329 16.1793 31.7552C16.649 32.0208 17.2213 32.0208 17.691 31.7552C19.342 30.8292 23.3265 28.398 25.9829 25.1551C29.1969 21.2334 28.9914 16.6587 28.9511 16.109C28.9511 16.0721 28.9474 16.0315 28.9474 15.9946L28.9548 15.9909Z" fill="#A3DDF4"/>
  <path d="M28.1737 7.71329C28.1957 7.5731 28.0857 7.48087 27.9903 7.4034C27.9242 7.35175 27.9022 7.23 27.8252 7.17466C27.7188 7.10456 27.6417 7.19311 27.583 7.15621L28.071 5.76904C28.2948 5.84652 28.4929 6.01622 28.6323 6.18593C28.7718 6.35933 28.8561 6.53272 28.9222 6.63234C29.102 6.89058 29.3294 7.15252 29.3405 7.42184C29.3405 7.5731 29.3331 7.71698 29.3184 7.84611C29.3038 7.9863 29.2891 8.0564 29.2817 8.1597C29.2597 8.45115 29.3992 8.36999 29.4542 8.61348C29.4835 8.72785 29.3882 8.87911 29.5092 9.17056C29.5569 9.28493 29.4982 9.52842 29.5239 9.65386C29.5606 9.83832 29.5863 10.0265 29.5863 10.2405C29.5863 10.3548 29.5533 10.5171 29.5129 10.6979C29.4579 10.9156 29.5679 11.4653 29.5129 11.6682C29.4542 11.8785 29.2817 12.1847 29.3735 12.3507C29.3735 12.5758 29.5826 12.9705 29.5753 13.4132C29.5716 13.6272 29.5496 13.8375 29.4982 14.0441C29.4505 14.2396 29.4542 14.4389 29.4799 14.6344L29.5422 15.0328C29.5716 15.2136 29.5936 15.3907 29.5789 15.5715H28.115C28.115 15.2321 28.17 15.2394 28.1847 15.055C28.1957 14.9 28.115 14.7635 28.115 14.5791C28.115 14.3835 28.2508 14.1954 28.2985 14.0404C28.3682 13.8227 28.2287 13.6198 28.2434 13.4317C28.2691 13.0406 28.3718 13.0296 28.2911 12.7049C28.2067 12.3655 28.115 12.2105 28.115 11.9486C28.115 11.7162 28.3095 11.2735 28.3095 11.0632C28.3095 10.7902 28.2471 10.5909 28.2471 10.4729C28.2471 10.2036 28.4782 9.66493 28.4599 9.47308C28.4599 8.95658 28.1113 8.84222 28.1187 8.17077L28.126 8.01213L28.1334 7.93096V7.88669C28.1517 7.82766 28.159 7.76863 28.17 7.70592H28.1737V7.71329Z" fill="#9FD7ED"/>
  <path d="M19.9476 4.63626C19.7825 4.47393 19.5697 4.42597 19.3679 4.32267C19.2212 4.25626 19.1111 4.09393 18.9754 4.00908C18.7882 3.89102 18.6855 3.93898 18.5791 3.85044L19.4156 2.64404C19.6615 2.82851 19.8522 3.16423 19.988 3.28229C20.1714 3.43724 20.4246 3.452 20.5567 3.59219C20.7034 3.75821 20.8539 3.89102 21.0116 3.98694C21.2538 4.1382 21.2465 3.97956 21.4813 4.03859C21.5913 4.06811 21.6794 4.21199 21.9876 4.22306C22.105 4.22306 22.2921 4.38169 22.4132 4.40014C22.5893 4.43334 22.7654 4.48131 22.9562 4.55878C23.0589 4.59936 23.191 4.68422 23.3378 4.78383C23.5139 4.91295 24.0496 4.97198 24.2183 5.08266C24.3944 5.19334 24.6329 5.45159 24.8127 5.39625C25.0255 5.45159 25.4401 5.33722 25.851 5.42945C26.0528 5.47003 26.2436 5.53275 26.4307 5.61023C26.6105 5.6877 26.7976 5.70984 26.9884 5.70615C27.1168 5.70615 27.2453 5.69139 27.37 5.68401L27.4984 5.67663C27.5608 5.67663 27.6268 5.68032 27.6929 5.6877C27.825 5.70246 27.9534 5.73197 28.0744 5.78731L27.5865 7.17448C27.5057 7.14497 27.4654 7.12652 27.4324 7.10807C27.414 7.09701 27.403 7.08594 27.3847 7.07856C27.3517 7.06749 27.3186 7.06011 27.2709 7.04905C27.1132 7.02322 26.9627 7.08963 26.772 7.06749C26.5665 7.04536 26.394 6.87934 26.2436 6.80555C26.0345 6.70594 25.807 6.80186 25.6162 6.75021C25.2273 6.64322 25.2383 6.53992 24.8971 6.54361C24.5412 6.53992 24.3578 6.59526 24.0973 6.5141C23.8624 6.45138 23.4845 6.12304 23.2864 6.05294C23.0186 5.96809 22.8094 5.94595 22.6957 5.90537C22.4315 5.81314 22.0133 5.37411 21.8298 5.31877C21.3565 5.09373 21.096 5.37042 20.4833 5.0347C20.2852 4.9314 20.1091 4.79858 19.9513 4.64732H19.955L19.9476 4.63626Z" fill="#9FD7ED"/>
  <path d="M12.4555 5.31518C12.2281 5.35945 12.0703 5.50702 11.8722 5.62139C11.7328 5.70255 11.542 5.70624 11.3915 5.76896C11.1897 5.8575 11.1714 5.97187 11.0356 6.01245L10.5146 4.63635C10.8008 4.53674 11.1861 4.56625 11.3622 4.52198C11.5897 4.45557 11.7474 4.24897 11.9345 4.22315C12.1584 4.20101 12.3455 4.1383 12.5142 4.06451C12.7747 3.95014 12.6427 3.86898 12.8188 3.70665C12.8995 3.62549 13.0719 3.63655 13.2517 3.38937C13.3214 3.29714 13.5526 3.21966 13.637 3.13112C13.7654 3.002 13.9048 2.88763 14.0736 2.77326C14.1653 2.70685 14.3084 2.64783 14.4735 2.57773C14.6826 2.50763 15.0312 2.09074 15.2183 2.01327C15.3247 1.969 15.4348 1.95424 15.5852 1.88783C15.7393 1.81405 15.886 1.7624 15.9631 1.67017C16.0988 1.60745 16.275 1.48201 16.5245 1.39347C16.7666 1.30493 17.0858 1.26066 17.4013 1.34551C17.7059 1.43036 17.981 1.60007 18.1792 1.82143C18.3149 1.98744 18.4543 2.09443 18.6231 2.19404C18.7369 2.25676 18.8469 2.31948 18.9643 2.37851C19.1221 2.45598 19.2762 2.53715 19.4046 2.64783L18.5681 3.85422C18.2819 3.65131 18.3223 3.61073 18.1718 3.48529C18.0471 3.38568 17.893 3.35617 17.7426 3.2418C17.5848 3.12005 17.5077 2.88394 17.427 2.76219C17.3536 2.61462 17.1702 2.68472 17.0711 2.64414C16.8547 2.57404 16.8216 2.47443 16.6309 2.58511C16.4364 2.72161 16.4401 2.83967 16.3117 2.9319C16.1209 3.08316 15.6439 3.2086 15.4751 3.34141C15.2476 3.50374 15.1192 3.67345 15.0165 3.74354C14.7964 3.91325 14.1983 4.00917 14.0479 4.13092C13.5966 4.40024 13.681 4.77285 13.0573 5.09382C12.8591 5.19343 12.6573 5.27828 12.4409 5.31887L12.4555 5.31518Z" fill="#9FD7ED"/>
  <path d="M5.46989 8.94916C5.41485 9.16683 5.46989 9.36974 5.50291 9.58741C5.52492 9.74236 5.45154 9.91576 5.45154 10.0744C5.45154 10.2884 5.55794 10.3437 5.54693 10.4802H4.08301C4.08301 10.1592 4.2738 9.80139 4.29581 9.61692C4.32149 9.37343 4.21142 9.13732 4.26646 8.94916C4.33617 8.7315 4.37286 8.52859 4.38753 8.34043C4.40955 8.03791 4.26646 8.14859 4.21876 7.8682C4.19675 7.6985 4.29581 7.51772 4.32883 7.09346C4.33984 6.92006 4.57465 6.64336 4.67372 6.49948C4.81314 6.27443 5.01493 6.06783 5.29377 5.91657C5.4442 5.83541 5.67902 5.769 5.93952 5.76162C6.00923 5.76162 6.14131 5.74687 6.2257 5.73949C6.30641 5.72842 6.39447 5.71366 6.4862 5.69891C6.66598 5.6657 6.83842 5.62881 6.94115 5.64357C7.14661 5.67308 7.46948 5.80221 7.60891 5.68046C7.82538 5.64357 8.15192 5.36318 8.56284 5.27095C8.76097 5.22299 8.96276 5.20085 9.16456 5.18979C9.35901 5.17872 9.54246 5.13076 9.71124 5.04221L10.0525 4.86144C10.2065 4.78028 10.357 4.69542 10.5221 4.64746L11.0431 6.02356C10.7129 6.14531 10.7055 6.09735 10.5184 6.14162C10.3643 6.1822 10.2542 6.30395 10.0745 6.36298C9.88001 6.4257 9.65253 6.34453 9.4911 6.34453C9.25995 6.34453 9.09485 6.52162 8.90039 6.55851C8.50414 6.62861 8.47112 6.52531 8.16292 6.67657C7.83638 6.82414 7.69329 6.94588 7.42179 6.98647C7.1833 7.02705 6.70267 6.89054 6.48986 6.9053C6.42015 6.91268 6.35411 6.92375 6.29541 6.93482C6.25505 6.94588 6.2257 6.95695 6.19635 6.97171C6.13764 7.00122 6.09728 7.02705 6.06426 7.04181C5.99088 7.06763 5.85513 7.06763 5.71571 7.10821C5.57996 7.14511 5.44787 7.22258 5.41852 7.28899C5.31212 7.45132 5.35615 7.60627 5.41852 7.7317C5.44787 7.79073 5.48089 7.84976 5.51391 7.91985C5.54327 8.01209 5.56528 8.15966 5.56161 8.32199C5.56161 8.53597 5.53593 8.74625 5.48456 8.95285L5.46989 8.94916Z" fill="#9FD7ED"/>
  <path d="M5.63833 18.3827C5.62365 18.5967 5.70804 18.7774 5.78509 18.973C5.84012 19.1132 5.80343 19.2866 5.83645 19.4378C5.89149 19.6371 6.0089 19.6592 6.03091 19.7846L4.62202 20.1868C4.52296 19.8621 4.62936 19.4489 4.61101 19.2607C4.57432 19.0099 4.4349 18.7885 4.44958 18.5856C4.47526 18.3532 4.48993 18.1392 4.47526 17.9437C4.45691 17.6411 4.33584 17.7408 4.25145 17.4936C4.20742 17.3755 4.29181 17.2169 4.15239 16.9181C4.09368 16.8037 4.15239 16.5381 4.11937 16.4089C4.08268 16.2134 4.05699 16.0142 4.068 15.7744C4.068 15.7412 4.07534 15.7043 4.07901 15.6674C4.08635 15.6268 4.09001 15.6231 4.09735 15.5936C4.11203 15.5198 4.13037 15.4386 4.14872 15.3501C4.20375 15.1324 4.09368 14.5827 4.14872 14.3798C4.20742 14.1695 4.37986 13.8633 4.28814 13.6973C4.28814 13.4723 4.07901 13.0775 4.08635 12.6348C4.08635 12.4208 4.11203 12.2105 4.16339 12.0039C4.21109 11.8084 4.20742 11.6092 4.18174 11.4136L4.11937 11.0152C4.09001 10.8344 4.068 10.6573 4.08268 10.4766H5.5466C5.5466 10.816 5.49157 10.8086 5.47689 10.9931C5.46589 11.148 5.5466 11.2845 5.5466 11.469C5.5466 11.6645 5.41085 11.8527 5.36315 12.0076C5.29344 12.2253 5.43286 12.4282 5.41819 12.6163C5.39251 13.0074 5.28977 13.0185 5.37049 13.3431C5.45488 13.6825 5.5466 13.8375 5.5466 14.0994C5.5466 14.3319 5.35215 14.7746 5.35215 14.9849C5.35215 15.2579 5.41452 15.4571 5.41452 15.5752C5.41452 15.6157 5.40718 15.6711 5.39984 15.7264C5.39251 15.7707 5.3815 15.8039 5.36682 15.8445C5.34114 15.9293 5.31179 16.0216 5.28244 16.1101C5.2274 16.2946 5.17237 16.4716 5.18704 16.5639C5.20539 17.0693 5.56128 17.1505 5.62365 17.7813C5.64933 17.9843 5.64567 18.1872 5.63466 18.3864H5.63099L5.63833 18.3827Z" fill="#9FD7ED"/>
  <path d="M10.0267 26.1706C10.1441 26.3551 10.3239 26.4473 10.5037 26.5654C10.6321 26.6465 10.7091 26.8125 10.8265 26.9158C10.9843 27.056 11.0944 27.0081 11.1898 27.0966L10.2505 28.2255C9.99735 28.0189 9.85059 27.6242 9.72584 27.4877C9.55707 27.3069 9.31125 27.2184 9.20485 27.0486C9.08744 26.8494 8.97003 26.676 8.84529 26.5285C8.65083 26.3034 8.61047 26.4621 8.394 26.3219C8.29127 26.2555 8.25825 26.0784 7.96473 25.9419C7.84732 25.8902 7.72258 25.6615 7.62351 25.5803C7.47308 25.4586 7.32266 25.3294 7.18323 25.156C7.10985 25.0601 7.02914 24.9015 6.94842 24.7281C6.90439 24.6174 6.76497 24.4698 6.64022 24.3149C6.51915 24.1563 6.39807 23.9976 6.36505 23.8906C6.288 23.673 6.27333 23.3114 6.11556 23.2081C6.05685 23.1048 5.93578 22.9904 5.79636 22.8466C5.6606 22.7027 5.52485 22.5219 5.42946 22.3116C5.33039 22.1087 5.26802 21.891 5.235 21.6734C5.20565 21.4631 5.11392 21.2786 5.02954 21.0905L4.83875 20.7141C4.74703 20.5444 4.67731 20.3674 4.64062 20.1829L6.04952 19.7808C6.1339 20.0907 6.07887 20.098 6.1229 20.2714C6.15959 20.4153 6.27699 20.5112 6.33203 20.6773C6.39073 20.8543 6.33937 21.0646 6.3467 21.2196C6.35771 21.4409 6.55951 21.5627 6.62922 21.7324C6.76864 22.0755 6.66958 22.1419 6.89338 22.3743C7.1282 22.6141 7.27129 22.699 7.3997 22.913C7.52078 23.0937 7.58315 23.5549 7.69689 23.7209C7.85466 23.9312 8.01976 24.0419 8.08947 24.1304C8.2289 24.337 8.40868 24.8793 8.54076 25.0122C8.88564 25.3848 9.20118 25.2335 9.65613 25.6947C9.79922 25.8459 9.92764 26.0046 10.0414 26.1743H10.0377L10.0267 26.1706Z" fill="#9FD7ED"/>
  <path d="M17.2252 30.7971C17.2766 30.8044 17.394 30.7343 17.471 30.679C17.5554 30.62 17.6325 30.5499 17.7169 30.4798C17.8379 30.3839 18.0177 30.3617 18.1535 30.2842C18.3333 30.1736 18.3259 30.0555 18.4433 29.9965L19.2065 31.2508C18.9276 31.4205 18.5204 31.4427 18.3479 31.5165C18.2342 31.5681 18.1425 31.6456 18.0507 31.7194C17.9554 31.7932 17.8856 31.8522 17.7425 31.8928C17.4454 31.9555 17.1885 31.9739 16.9464 31.9739C16.5758 31.9518 16.6749 32.0957 16.3337 32.0883C16.2529 32.0846 16.1686 32.0403 16.0585 31.9924C15.9558 31.9481 15.787 31.8706 15.6476 31.8559C15.5228 31.8411 15.3357 31.664 15.2146 31.6235C15.0348 31.5607 14.8551 31.4833 14.6716 31.3726C14.5689 31.3136 14.4478 31.1955 14.3157 31.0664C14.1579 30.904 13.6296 30.6974 13.4865 30.5351C13.3398 30.3654 13.1783 30.0518 12.9912 30.0334C12.8041 29.9042 12.3565 29.8489 11.9932 29.5759C11.8171 29.4468 11.6594 29.2955 11.5236 29.1295C11.3915 28.9709 11.2338 28.8491 11.0613 28.7458L10.7054 28.5429C10.5477 28.4507 10.3899 28.3474 10.2578 28.2219L11.1971 27.093C11.4502 27.3033 11.4099 27.3402 11.542 27.4693C11.652 27.5726 11.8098 27.5911 11.9492 27.7017C12.0996 27.8198 12.1583 28.0412 12.2537 28.1703C12.3822 28.3548 12.6206 28.3621 12.7637 28.4839C13.0609 28.7274 13.0059 28.8196 13.3141 28.9377C13.637 29.0557 13.8094 29.0668 14.0259 29.2107C14.213 29.3361 14.4698 29.7382 14.6459 29.8489C14.8734 29.9965 15.0715 30.0408 15.1706 30.1035C15.3907 30.24 15.7319 30.7122 15.9044 30.7897C16.0145 30.8524 16.1135 30.8856 16.2126 30.9004C16.319 30.9225 16.385 30.9114 16.4547 30.893C16.5942 30.8561 16.7116 30.8044 16.884 30.8044C17.0014 30.8007 17.1188 30.7971 17.2362 30.7934L17.2252 30.7971Z" fill="#9FD7ED"/>
  <path d="M24.5955 25.2151C24.779 25.097 24.8744 24.9199 24.9845 24.7392C25.0652 24.61 25.2266 24.5326 25.3257 24.4182C25.4614 24.2596 25.4027 24.1489 25.4871 24.0566L26.6392 24.9642C26.4374 25.2446 26.0411 25.3885 25.9054 25.5176C25.7256 25.691 25.6375 25.9382 25.4651 26.0452C25.2633 26.1632 25.0982 26.285 24.9478 26.4104C24.7203 26.6059 24.8781 26.6465 24.7423 26.8605C24.6799 26.9675 24.5001 26.997 24.3644 27.2921C24.313 27.4065 24.0892 27.5356 24.0085 27.6352C23.8911 27.7865 23.7627 27.9341 23.5976 28.078C23.5059 28.1554 23.3591 28.2329 23.1903 28.3215C22.9885 28.4248 22.6143 28.8564 22.4198 28.9412C22.2144 29.0261 21.8621 29.0741 21.7851 29.2475C21.6016 29.384 21.4035 29.7898 21.0256 30.0407C20.8422 30.1624 20.655 30.2694 20.4533 30.3395C20.2588 30.4096 20.0974 30.524 19.9433 30.6531L19.6387 30.9224C19.4993 31.0441 19.3562 31.1585 19.1948 31.2434L18.4316 29.989C18.7105 29.8156 18.7362 29.8673 18.8976 29.7824C19.0297 29.7086 19.0994 29.5684 19.2498 29.4725C19.4113 29.3692 19.6351 29.3803 19.7892 29.336C20.0093 29.277 20.09 29.0445 20.2515 28.9523C20.5817 28.7568 20.6477 28.8306 20.8568 28.5797C21.077 28.3178 21.1394 28.1481 21.3448 27.9968C21.5283 27.864 21.9832 27.7459 22.1447 27.6205C22.3538 27.4508 22.4602 27.2774 22.5519 27.2036C22.7537 27.0413 23.3004 26.8605 23.4325 26.724C23.803 26.3735 23.6526 26.0525 24.1149 25.5988C24.2653 25.4586 24.4194 25.3258 24.5919 25.2151H24.5955Z" fill="#9FD7ED"/>
  <path d="M28.1877 17.0619C28.2574 16.859 28.2097 16.6635 28.184 16.4569C28.1657 16.313 28.239 16.147 28.2354 16.0031C28.2317 15.7928 28.118 15.8002 28.1216 15.5825H29.5856C29.5856 15.6083 29.5856 15.6231 29.5819 15.6563C29.5819 15.7043 29.5746 15.7485 29.5672 15.7965C29.5525 15.8887 29.5305 15.9736 29.5085 16.0547C29.4572 16.2171 29.4058 16.361 29.3948 16.4569C29.3654 16.7078 29.4608 16.9586 29.3948 17.1542C29.3141 17.3755 29.248 17.5784 29.2187 17.7703C29.16 18.0654 29.3067 17.999 29.3287 18.2609C29.3434 18.3864 29.2223 18.5229 29.2884 18.8438C29.3177 18.9693 29.2077 19.2128 29.2003 19.3419C29.1893 19.5374 29.182 19.7403 29.1159 19.958C29.0829 20.0761 29.0059 20.231 28.9141 20.4007C28.7967 20.6036 28.7197 21.1829 28.5876 21.3636C28.4482 21.5481 28.173 21.7768 28.1913 21.9724C28.0849 22.179 28.118 22.6512 27.8795 23.0607C27.7657 23.2562 27.6373 23.4407 27.4906 23.5993C27.3365 23.7469 27.2301 23.9203 27.1383 24.1085C27.076 24.2339 27.0246 24.3704 26.9549 24.4884C26.8632 24.6582 26.7678 24.8205 26.6394 24.9644L25.4873 24.0568C25.6781 23.8022 25.7185 23.8428 25.8395 23.71C25.9423 23.603 25.9386 23.4407 26.034 23.3005C26.133 23.1455 26.3458 23.0718 26.4669 22.9722C26.6284 22.8246 26.6027 22.5885 26.7017 22.4372C26.9109 22.1273 26.9916 22.1531 27.054 21.8395C27.12 21.5149 27.087 21.3415 27.1787 21.1091C27.2668 20.9098 27.5896 20.5778 27.652 20.386C27.7401 20.1388 27.7254 19.9359 27.7584 19.8252C27.8355 19.5854 28.173 19.1279 28.1987 18.9398C28.2941 18.4417 27.9749 18.2794 28.0629 17.6522C28.0849 17.4493 28.1326 17.2538 28.195 17.0619H28.1877Z" fill="#9FD7ED"/>
  <path d="M20.8379 13.5759C21.1585 13.3716 21.339 13.0724 21.5711 12.7805C21.7332 12.5726 22.0206 12.4449 22.2122 12.2552C22.4701 11.9998 22.4258 11.821 22.599 11.6714L24.1574 13.2147C23.7706 13.5978 23.1332 13.824 22.8901 14.021C22.5695 14.2837 22.4037 14.6814 22.1164 14.8493C21.7774 15.0353 21.4974 15.236 21.2543 15.4476C20.8785 15.7723 21.1253 15.8234 20.8895 16.17C20.779 16.3415 20.499 16.4145 20.2779 16.8924C20.1932 17.0785 19.8322 17.3084 19.7106 17.4835C19.5301 17.7425 19.3274 17.9943 19.0695 18.2497C18.9295 18.3883 18.6974 18.5452 18.4395 18.7203C18.119 18.9247 17.5737 19.6945 17.2679 19.8806C17.1869 19.928 17.0948 19.9754 16.9953 20.0229C16.9401 20.0521 16.9106 20.063 16.8332 20.1068C16.7558 20.1579 16.6785 20.2053 16.5937 20.2418C16.2695 20.406 15.9527 20.4753 15.7353 20.5738C15.4258 20.6212 14.9616 20.6979 14.4201 20.4972C14.2874 20.4461 14.1511 20.3804 14.0258 20.2965C13.9595 20.2564 13.9006 20.2053 13.8379 20.1542L13.7643 20.0958L13.7127 20.0557C13.5764 19.9463 13.4401 19.8222 13.3148 19.6799C13.0753 19.4063 12.8579 19.118 12.6848 18.8116C12.5153 18.516 12.2869 18.2716 12.0327 18.049L11.5095 17.6112C11.2737 17.4142 11.0453 17.2099 10.8574 16.9691L12.5006 15.5133C12.8837 15.9402 12.8137 15.984 13.009 16.2357C13.1711 16.44 13.4179 16.5349 13.6279 16.7647C13.8527 17.0128 13.9116 17.3813 14.0332 17.6258C14.2027 17.9688 14.5858 18.0855 14.7885 18.3373C14.9948 18.5963 15.0758 18.7532 15.1569 18.8882C15.179 18.9539 15.2122 18.994 15.3116 18.9684C15.4111 18.9356 15.4516 18.859 15.4627 18.8079C15.4774 18.7532 15.459 18.7203 15.4701 18.7131C15.459 18.7276 15.5179 18.6729 15.5622 18.6401C15.6101 18.6036 15.6616 18.5671 15.7206 18.5306C15.8348 18.4577 15.9601 18.3847 16.0853 18.3081C16.3358 18.1621 16.5864 18.0198 16.7116 17.8958C17.0432 17.5674 17.2127 17.2682 17.3601 17.1223C17.6843 16.8012 18.5832 16.3999 18.7932 16.1518C19.4158 15.5352 19.1801 15.0317 20.0016 14.2363C20.2632 13.9846 20.5432 13.7547 20.8453 13.565V13.5723L20.8379 13.5759Z" fill="url(#paint0_linear_1933_4617)"/>
  <defs>
    <linearGradient id="paint0_linear_1933_4617" x1="9.35437" y1="7.3071" x2="24.6002" y2="7.83477" gradientUnits="userSpaceOnUse">
      <stop stop-color="#055780"/>
      <stop offset="0.927885" stop-color="#1B668C"/>
    </linearGradient>
  </defs>
</svg>