<svg xmlns="http://www.w3.org/2000/svg" width="32" height="32" viewBox="0 0 32 32" fill="none">
  <g clip-path="url(#clip0_1352_10335)">
    <path d="M23.8431 1.25684H8.12452C4.34792 1.25684 1.28638 4.31581 1.28638 8.08924C1.28638 11.8627 4.34792 14.9217 8.12452 14.9217H23.8431C27.6197 14.9217 30.6812 11.8627 30.6812 8.08924C30.6812 4.31581 27.6197 1.25684 23.8431 1.25684Z" fill="#9ED2F0"/>
    <path d="M18.1754 15.392C18.0263 15.3576 17.8771 15.392 17.728 15.4149C17.6132 15.4264 17.4985 15.3805 17.3838 15.3805C17.2346 15.3805 17.1887 15.4608 17.0969 15.4494V14.4167C17.3264 14.4167 17.5788 14.5544 17.705 14.5659C17.8771 14.5888 18.0492 14.5085 18.1754 14.543C18.3246 14.5888 18.4737 14.6233 18.6114 14.6233C18.8179 14.6347 18.7606 14.543 18.9327 14.4971C19.013 14.4741 19.1162 14.543 19.3228 14.4626C19.4031 14.4282 19.5752 14.4626 19.667 14.4626C19.7932 14.4397 19.9309 14.4167 20.08 14.4167C20.1603 14.4167 20.2751 14.4397 20.4013 14.4741C20.5504 14.5085 20.9405 14.4397 21.0897 14.4741C21.2388 14.52 21.4568 14.6347 21.5716 14.5774C21.7322 14.5774 22.0075 14.4282 22.3288 14.4397C22.4779 14.4397 22.6271 14.4626 22.7763 14.4971C22.9139 14.5315 23.0516 14.5315 23.1893 14.5085L23.4761 14.4626C23.6023 14.4397 23.7285 14.4282 23.8548 14.4397V15.4723C23.6138 15.4723 23.6253 15.4379 23.4876 15.4264C23.3729 15.4264 23.2811 15.4723 23.1549 15.4723C23.0172 15.4723 22.8795 15.3805 22.7763 15.3461C22.6271 15.3002 22.478 15.392 22.3403 15.3805C22.0649 15.3576 22.0534 15.2887 21.824 15.3461C21.583 15.4035 21.4798 15.4723 21.2847 15.4723C21.1241 15.4723 20.8028 15.3346 20.6537 15.3346C20.4586 15.3346 20.321 15.3805 20.2406 15.3805C20.0456 15.3805 19.667 15.2199 19.5293 15.2314C19.1621 15.2314 19.0818 15.4723 18.6114 15.4723C18.4623 15.4723 18.3131 15.4494 18.164 15.4149L18.1754 15.392Z" fill="#EFF7F9"/>
    <path d="M11.4064 15.392C11.2572 15.3576 11.1081 15.392 10.9589 15.4149C10.8442 15.4264 10.7294 15.3805 10.6147 15.3805C10.4656 15.3805 10.4197 15.4608 10.3279 15.4494V14.4167C10.5573 14.4167 10.8098 14.5544 10.936 14.5659C11.1081 14.5888 11.2802 14.5085 11.4064 14.543C11.5555 14.5888 11.7047 14.6233 11.8424 14.6233C12.0489 14.6347 11.9915 14.543 12.1636 14.4971C12.2439 14.4741 12.3472 14.543 12.5537 14.4626C12.634 14.4282 12.8061 14.4626 12.8979 14.4626C13.0241 14.4397 13.1618 14.4167 13.311 14.4167C13.3913 14.4167 13.506 14.4397 13.6322 14.4741C13.7814 14.5085 14.1715 14.4397 14.3206 14.4741C14.4698 14.52 14.6878 14.6347 14.8025 14.5774C14.9631 14.5774 15.2385 14.4282 15.5597 14.4397C15.7089 14.4397 15.8581 14.4626 16.0072 14.4971C16.1449 14.5315 16.2826 14.5315 16.4203 14.5085L16.7071 14.4626C16.8333 14.4397 16.9595 14.4282 17.0857 14.4397V15.4723C16.8448 15.4723 16.8562 15.4379 16.7186 15.4264C16.6038 15.4264 16.512 15.4723 16.3858 15.4723C16.2482 15.4723 16.1105 15.3805 16.0072 15.3461C15.8581 15.3002 15.7089 15.392 15.5712 15.3805C15.2959 15.3576 15.2844 15.2887 15.0549 15.3461C14.814 15.4035 14.7107 15.4723 14.5157 15.4723C14.355 15.4723 14.0338 15.3346 13.8846 15.3346C13.6896 15.3346 13.5519 15.3805 13.4716 15.3805C13.2765 15.3805 12.8979 15.2199 12.7602 15.2314C12.3931 15.2314 12.3128 15.4723 11.8424 15.4723C11.6932 15.4723 11.5441 15.4494 11.3949 15.4149L11.4064 15.392Z" fill="#EFF7F9"/>
    <path d="M4.56801 14.4625C4.4418 14.3478 4.29265 14.3019 4.1435 14.233C4.02876 14.1871 3.95992 14.0609 3.86813 13.9921C3.74193 13.9003 3.66161 13.9347 3.5813 13.8659L4.22381 13.0513C4.39591 13.166 4.49917 13.4414 4.60243 13.5102C4.72864 13.6135 4.91221 13.6249 4.99253 13.7282C5.09579 13.8429 5.21052 13.9232 5.31378 13.9921C5.48588 14.0953 5.47441 13.9806 5.63504 14.015C5.71535 14.015 5.78419 14.1183 5.99071 14.1068C6.07103 14.1068 6.20871 14.1986 6.28902 14.1986C6.41523 14.1986 6.54144 14.2216 6.67912 14.256C6.74796 14.2789 6.85122 14.3248 6.96595 14.3707C7.10363 14.4281 7.47078 14.4281 7.59699 14.451C7.73467 14.4969 7.92972 14.6346 8.04445 14.5772C8.1936 14.5772 8.48044 14.4281 8.79022 14.4396C8.93938 14.4396 9.08853 14.4625 9.23768 14.4969C9.37536 14.5313 9.51304 14.5313 9.65073 14.5084L9.93756 14.4625C10.0638 14.4395 10.19 14.4281 10.3162 14.4396V15.4722C10.0752 15.4722 10.0867 15.4377 9.94903 15.4263C9.8343 15.4263 9.74251 15.4722 9.6163 15.4722C9.47862 15.4722 9.34094 15.3804 9.23768 15.3459C9.08853 15.3001 8.93937 15.3918 8.80169 15.3804C8.52633 15.3574 8.51486 15.2886 8.28539 15.3459C8.05592 15.4148 7.91824 15.4607 7.7232 15.4492C7.63141 15.4492 7.5052 15.4033 7.39047 15.3574C7.26426 15.3115 7.14952 15.2542 7.08068 15.2427C6.87416 15.2083 6.72501 15.2427 6.63322 15.2197C6.43817 15.1624 6.0825 14.91 5.95629 14.887C5.77272 14.8182 5.64651 14.8411 5.49736 14.8526C5.42852 14.8526 5.3482 14.8526 5.25641 14.8526C5.16463 14.8411 5.07284 14.8067 4.95811 14.7493C4.80895 14.669 4.67127 14.6002 4.55654 14.4854L4.56801 14.4625Z" fill="#EFF7F9"/>
    <path d="M0.850625 8.62244C0.885046 8.45034 0.827679 8.31265 0.804732 8.14055C0.781785 8.02582 0.850625 7.88814 0.850625 7.77341C0.850625 7.61278 0.781785 7.56688 0.804732 7.46362L1.83734 7.55541C1.83734 7.76193 1.67671 7.9914 1.66524 8.11761C1.66524 8.27823 1.74555 8.43886 1.71113 8.56507C1.68818 8.63391 1.67671 8.71422 1.66524 8.78306C1.66524 8.8519 1.66524 8.92075 1.66524 8.97811C1.67671 9.17316 1.7685 9.10432 1.82586 9.26495C1.84881 9.33379 1.80292 9.44852 1.9406 9.62062C1.98649 9.68946 1.98649 9.85009 2.03239 9.9304C2.08975 10.0451 2.15859 10.1484 2.20449 10.2861C2.22743 10.3549 2.25038 10.4697 2.26185 10.5844C2.2848 10.7335 2.51427 11.0204 2.53721 11.1581C2.57164 11.2957 2.57163 11.5367 2.68637 11.594C2.75521 11.7317 3.04204 11.8465 3.21414 12.0874C3.29446 12.2021 3.38625 12.3054 3.44361 12.4316C3.51245 12.5463 3.59277 12.6496 3.7075 12.7184L3.93697 12.8676C4.04023 12.9364 4.13202 13.0053 4.2238 13.0741L3.58129 13.8887C3.37477 13.7396 3.40919 13.6937 3.31741 13.6019C3.23709 13.5216 3.12236 13.4872 3.0191 13.3954C2.90436 13.3036 2.88142 13.12 2.83552 13.0167C2.76668 12.8676 2.58311 12.8217 2.50279 12.6955C2.34217 12.4431 2.39953 12.3972 2.20449 12.2366C2.00944 12.0645 1.90618 11.9956 1.79144 11.8235C1.68818 11.6744 1.66524 11.3072 1.60787 11.1695C1.56198 11.0777 1.51608 10.9974 1.47019 10.9401C1.43577 10.8712 1.40135 10.8253 1.38988 10.7794C1.32103 10.5844 1.33251 10.1599 1.29809 10.0222C1.25219 9.83862 1.16041 9.73536 1.06862 9.62062C0.976833 9.50589 0.907993 9.36821 0.862099 9.11579C0.862099 9.03548 0.839152 8.95517 0.839152 8.87485C0.839152 8.79454 0.850626 8.71422 0.862099 8.63391L0.850625 8.62244Z" fill="#EFF7F9"/>
    <path d="M3.69598 2.31243C3.85661 2.24359 3.9484 2.11738 4.07461 2.01412C4.16639 1.94528 4.30407 1.91086 4.40733 1.85349C4.54501 1.77318 4.54501 1.68139 4.6368 1.6355L5.13016 2.5419C4.94658 2.64516 4.6827 2.65663 4.56796 2.714C4.41881 2.78284 4.34997 2.95494 4.22376 2.98936C4.07461 3.03525 3.9484 3.10409 3.85661 3.18441C3.69598 3.31061 3.81072 3.34503 3.71893 3.48272C3.69598 3.51714 3.66156 3.54008 3.61567 3.5745C3.56978 3.6204 3.52388 3.67776 3.48946 3.76955C3.46652 3.84986 3.32884 3.94165 3.28294 4.01049C3.22557 4.11375 3.16821 4.22849 3.07642 4.34322C3.03053 4.40059 2.95021 4.46943 2.85843 4.54974C2.75516 4.653 2.62896 4.9972 2.5257 5.10046C2.43391 5.20372 2.22739 5.34141 2.23886 5.46761C2.15855 5.60529 2.23886 5.9036 2.11265 6.17896C2.06676 6.31664 2.02087 6.44285 1.95203 6.56906C1.88319 6.68379 1.84877 6.81 1.84877 6.94768V7.21157C1.84877 7.3263 1.84877 7.45251 1.83729 7.56724L0.804688 7.47546C0.816161 7.22304 0.873528 7.23452 0.896475 7.09684C0.919421 6.9821 0.885001 6.86737 0.896475 6.72969C0.919421 6.58053 1.0571 6.4658 1.11447 6.36254C1.20626 6.21338 1.13742 6.04128 1.19478 5.91508C1.30952 5.63971 1.37836 5.66266 1.41278 5.41025C1.4472 5.14636 1.45867 5.02015 1.53898 4.83658C1.60783 4.66448 1.90613 4.44648 1.98645 4.32027C2.08971 4.14817 2.1356 3.99902 2.19297 3.93018C2.31918 3.76955 2.67485 3.54008 2.76664 3.43682C2.89285 3.29914 2.92727 3.17293 2.97316 3.02378C3.01905 2.8861 3.09937 2.74842 3.28294 2.57632C3.39768 2.46158 3.53536 2.38127 3.68451 2.31243H3.69598Z" fill="#EFF7F9"/>
    <path d="M10.4193 0.797844C10.5685 0.832265 10.7176 0.797845 10.8668 0.774898C10.9815 0.763424 11.0962 0.809318 11.211 0.809318C11.3601 0.809318 11.406 0.729004 11.4978 0.740477V1.77308C11.2683 1.77308 11.0159 1.6354 10.8897 1.62393C10.7176 1.60098 10.5455 1.6813 10.4193 1.64688C10.2702 1.60098 10.121 1.56656 9.98332 1.56656C9.7768 1.55509 9.83416 1.64688 9.66206 1.69277C9.58175 1.71572 9.47849 1.64688 9.27197 1.72719C9.19165 1.76161 9.01955 1.72719 8.92777 1.72719C8.80156 1.75014 8.66388 1.77308 8.51472 1.77308C8.43441 1.77308 8.31968 1.75014 8.19347 1.71572C8.04432 1.6813 7.68864 1.78456 7.55096 1.75014C7.41328 1.71572 7.19528 1.6354 7.09202 1.71572C7.02318 1.72719 6.91992 1.77308 6.80519 1.83045C6.69045 1.89929 6.57572 1.96813 6.42657 2.00255C6.35773 2.01402 6.28889 2.0255 6.22005 2.03697C6.1512 2.04844 6.08237 2.05992 6.01352 2.07139C5.87584 2.08286 5.76111 2.12876 5.64638 2.1976L5.42838 2.34675C5.33659 2.41559 5.23333 2.48443 5.1186 2.51885L4.62524 1.61246C4.85471 1.49772 4.86619 1.53214 5.00387 1.48625C5.1186 1.44035 5.17597 1.33709 5.31365 1.2912C5.45133 1.23383 5.62343 1.2912 5.73816 1.26825C5.81848 1.26825 5.88732 1.22236 5.95616 1.18794C6.025 1.15352 6.09384 1.10763 6.16268 1.09615C6.44951 1.03879 6.47246 1.09615 6.70193 0.992892C6.94287 0.901105 7.04613 0.809318 7.25265 0.786371C7.42475 0.751951 7.76895 0.889632 7.92958 0.878158C8.1361 0.866685 8.27378 0.820791 8.3541 0.820791C8.54915 0.820791 8.92777 0.981419 9.06545 0.969945C9.4326 0.969945 9.51291 0.729004 9.98332 0.729004C10.1325 0.729004 10.2816 0.751951 10.4308 0.786371L10.4193 0.797844Z" fill="#EFF7F9"/>
    <path d="M17.1886 0.797843C17.3378 0.832263 17.4869 0.797843 17.6361 0.774897C17.7508 0.763423 17.8655 0.809317 17.9803 0.809317C18.1294 0.809317 18.1753 0.729003 18.2671 0.740476V1.77308C18.0376 1.77308 17.7852 1.6354 17.659 1.62393C17.4869 1.60098 17.3148 1.68129 17.1886 1.64687C17.0395 1.60098 16.8903 1.56656 16.7526 1.56656C16.5461 1.55509 16.6035 1.64687 16.4314 1.69277C16.3511 1.71571 16.2478 1.64687 16.0413 1.72719C15.961 1.76161 15.7889 1.72719 15.6971 1.72719C15.5709 1.75014 15.4332 1.77308 15.284 1.77308C15.2037 1.77308 15.089 1.75013 14.9628 1.71571C14.8136 1.68129 14.4235 1.75013 14.2744 1.71571C14.1252 1.66982 13.9072 1.55509 13.7925 1.61245C13.6319 1.61245 13.3565 1.76161 13.0352 1.75014C12.8861 1.75014 12.7369 1.72719 12.5878 1.69277C12.4501 1.65835 12.3124 1.65835 12.1747 1.68129L11.8879 1.72719C11.7617 1.75014 11.6355 1.76161 11.5093 1.75014V0.717529C11.7502 0.717529 11.7387 0.75195 11.8764 0.763423C11.9912 0.763423 12.0829 0.717529 12.2092 0.717529C12.3468 0.717529 12.4845 0.809317 12.5878 0.843737C12.7369 0.88963 12.8861 0.797843 13.0238 0.809317C13.2991 0.832263 13.3106 0.901104 13.5401 0.843737C13.781 0.78637 13.8843 0.717529 14.0793 0.717529C14.2399 0.717529 14.5612 0.85521 14.7104 0.85521C14.9054 0.85521 15.0431 0.809317 15.1234 0.809317C15.3184 0.809317 15.6971 0.969944 15.8347 0.958471C16.2019 0.958471 16.2822 0.717529 16.7526 0.717529C16.9018 0.717529 17.0509 0.740476 17.2001 0.774897L17.1886 0.797843Z" fill="#EFF7F9"/>
    <path d="M23.9581 0.809318C24.1188 0.855211 24.2679 0.820791 24.44 0.809318C24.5548 0.797844 24.681 0.866685 24.7957 0.889632C24.9563 0.912578 25.0137 0.843738 25.1055 0.866685L24.9334 1.88782C24.7269 1.86487 24.5089 1.6813 24.3827 1.66982C24.222 1.64688 24.0614 1.71572 23.9352 1.66982C23.786 1.61246 23.6369 1.58951 23.5107 1.57804C23.3042 1.56656 23.3615 1.65835 23.1894 1.70424C23.1091 1.72719 23.0058 1.65835 22.7993 1.73866C22.719 1.77308 22.5469 1.73866 22.4551 1.73866C22.3289 1.76161 22.1912 1.78456 22.0421 1.78456C21.9618 1.78456 21.847 1.76161 21.7208 1.72719C21.5717 1.69277 21.1816 1.76161 21.0324 1.72719C20.8833 1.6813 20.6653 1.56656 20.5505 1.62393C20.3899 1.62393 20.1146 1.77308 19.7933 1.76161C19.6441 1.76161 19.495 1.73866 19.3458 1.70424C19.2082 1.66982 19.0705 1.66982 18.9328 1.69277L18.646 1.73866C18.5197 1.76161 18.3935 1.77308 18.2673 1.76161V0.729004C18.5083 0.729004 18.4968 0.763424 18.6345 0.774898C18.7492 0.774898 18.841 0.729004 18.9672 0.729004C19.1049 0.729004 19.2426 0.820791 19.3458 0.855211C19.495 0.901105 19.6441 0.809318 19.7818 0.820791C20.0572 0.843738 20.0687 0.912578 20.2981 0.855211C20.5391 0.797844 20.6423 0.729004 20.8374 0.729004C20.998 0.729004 21.3193 0.866685 21.4684 0.866685C21.6635 0.866685 21.8011 0.820791 21.8815 0.820791C22.0765 0.820791 22.4551 0.981419 22.5928 0.969945C22.96 0.969945 23.0403 0.729004 23.5107 0.729004C23.6598 0.729004 23.809 0.740478 23.9581 0.786371V0.809318Z" fill="#EFF7F9"/>
    <path d="M30.0046 4.18251C30.062 4.34313 30.1652 4.4464 30.28 4.58408C30.3488 4.67586 30.3603 4.82502 30.4062 4.92828C30.475 5.07743 30.5668 5.07743 30.6012 5.18069L29.6489 5.59373C29.5571 5.41016 29.5801 5.1348 29.5342 5.00859C29.4653 4.85944 29.3162 4.76765 29.2818 4.64144C29.2473 4.49229 29.19 4.36608 29.1211 4.25135C29.0179 4.07925 28.972 4.18251 28.8458 4.07925C28.7884 4.03335 28.7655 3.91862 28.5704 3.82683C28.4901 3.79241 28.4213 3.64326 28.3524 3.59736C28.2492 3.54 28.1344 3.45968 28.0312 3.3679C27.9738 3.322 27.9164 3.21874 27.8361 3.12695C27.7443 3.01222 27.4116 2.85159 27.3198 2.74833C27.228 2.64507 27.1133 2.42708 26.9871 2.42708C26.8494 2.34676 26.5511 2.36971 26.2872 2.2435C26.161 2.19761 26.0348 2.12877 25.9201 2.04846C25.8627 2.01404 25.8053 1.97961 25.748 1.95667C25.6906 1.93372 25.6218 1.93372 25.5529 1.92225L25.289 1.8993C25.1743 1.88783 25.0481 1.87635 24.9333 1.85341L25.1055 0.832275C25.3579 0.866696 25.3464 0.912589 25.4841 0.958483C25.5988 0.992903 25.7135 0.958483 25.8512 1.00438C26.0004 1.0388 26.1036 1.17648 26.1954 1.24532C26.3331 1.34858 26.5052 1.30268 26.6429 1.37153C26.9068 1.50921 26.8724 1.57805 27.1248 1.63541C27.3772 1.68131 27.5149 1.70425 27.687 1.80751C27.7673 1.85341 27.8591 1.9452 27.9394 2.04846C28.0197 2.15172 28.1 2.25498 28.1574 2.30087C28.318 2.42708 28.4672 2.47297 28.536 2.54181C28.6852 2.67949 28.8802 3.05811 28.972 3.16138C29.2244 3.44821 29.4883 3.33348 29.7866 3.75799C29.8784 3.8842 29.9702 4.02188 30.0161 4.18251H30.0046Z" fill="#EFF7F9"/>
    <path d="M30.4979 11.0895C30.3946 11.2271 30.3602 11.3763 30.3143 11.5369C30.2799 11.6517 30.1537 11.732 30.0963 11.8352C30.016 11.9729 30.0504 12.0532 29.9931 12.1335L29.1326 11.5599C29.2358 11.3763 29.4882 11.2501 29.5571 11.1468C29.6489 11.0091 29.6374 10.837 29.7292 10.7338C29.8439 10.6305 29.9013 10.5043 29.9587 10.3896C30.039 10.206 29.9242 10.229 29.9587 10.0683C29.9701 9.98802 30.0504 9.9077 30.016 9.70118C30.0045 9.62087 30.0849 9.47171 30.0849 9.3914C30.0849 9.26519 30.0849 9.13899 30.0963 9.00131C30.0963 8.92099 30.1537 8.8292 30.1881 8.71447C30.234 8.57679 30.1881 8.20964 30.2225 8.07196C30.257 7.93428 30.3717 7.71628 30.3029 7.61302C30.3029 7.46387 30.1078 7.22293 30.0734 6.93609C30.0734 6.79841 30.0275 6.66073 30.039 6.52305C30.039 6.38537 30.016 6.25916 29.9472 6.14443L29.8095 5.91496C29.7521 5.8117 29.7062 5.70844 29.6603 5.59371L30.6126 5.18066C30.7159 5.42161 30.67 5.43308 30.7044 5.57076C30.7388 5.68549 30.8306 5.76581 30.8765 5.89202C30.9224 6.04117 30.8651 6.2018 30.8536 6.31653C30.8536 6.48863 30.9913 6.60337 30.9913 6.75252C31.0142 7.05083 30.9454 7.0623 31.0372 7.29177C31.1175 7.53271 31.1863 7.64744 31.1978 7.85397C31.2207 8.03754 31.0601 8.37027 31.0486 8.51942C31.0486 8.72594 31.0716 8.8751 31.0486 8.96689C31.0142 9.17341 30.8077 9.54056 30.7733 9.67824C30.67 10.0454 30.9109 10.1945 30.7274 10.6764C30.67 10.8256 30.6012 10.9747 30.4979 11.1009V11.0895Z" fill="#EFF7F9"/>
    <path d="M25.0021 15.2887C24.83 15.2772 24.6923 15.346 24.5317 15.3805C24.4169 15.4034 24.2793 15.3575 24.1645 15.3575C24.0039 15.3575 23.958 15.4378 23.8547 15.4378V14.4052C24.0613 14.4052 24.3022 14.52 24.4284 14.5314C24.589 14.5314 24.7382 14.4282 24.8644 14.4511C25.0135 14.4741 25.1627 14.4855 25.2774 14.4511C25.4725 14.4167 25.3922 14.3364 25.5413 14.2561C25.6102 14.2102 25.7249 14.2561 25.8855 14.1069C25.9429 14.0495 26.115 14.0381 26.1838 13.9922C26.2871 13.9348 26.3904 13.8545 26.5166 13.7971C26.5854 13.7627 26.6887 13.7398 26.8149 13.7168C26.964 13.6939 27.2279 13.4185 27.3656 13.3956C27.5033 13.3611 27.7327 13.3267 27.7901 13.212C27.9163 13.1317 28.0196 12.8334 28.2261 12.6498C28.3408 12.558 28.4326 12.4662 28.5474 12.3859C28.6621 12.3056 28.7539 12.2138 28.8112 12.0991L28.9375 11.8581C28.9833 11.7549 29.0522 11.6516 29.121 11.5598L29.9815 12.1335C29.8439 12.3515 29.798 12.3171 29.7176 12.4203C29.6373 12.5121 29.6259 12.6268 29.5455 12.7416C29.4538 12.8563 29.2817 12.9022 29.1784 12.9596C29.0292 13.0399 29.0063 13.2349 28.8916 13.3152C28.6621 13.4988 28.6047 13.4529 28.467 13.6594C28.3064 13.866 28.249 13.9807 28.0884 14.1069C27.9507 14.2216 27.5836 14.2675 27.4574 14.3478C27.2853 14.4626 27.1705 14.5544 27.0902 14.6003C26.9984 14.6462 26.8493 14.6691 26.7001 14.7035C26.551 14.7265 26.4133 14.7265 26.3445 14.7609C26.1609 14.8297 26.0806 14.933 25.9658 15.0248C25.8511 15.1166 25.7249 15.2084 25.4725 15.2772C25.3119 15.3231 25.1512 15.3231 24.9906 15.3116L25.0021 15.2887Z" fill="#EFF7F9"/>
    <path d="M8.29664 3.68896H8.15896C5.72571 3.68896 3.75317 5.65893 3.75317 8.08901C3.75317 10.5191 5.72571 12.4891 8.15896 12.4891H8.29664C10.7299 12.4891 12.7024 10.5191 12.7024 8.08901C12.7024 5.65893 10.7299 3.68896 8.29664 3.68896Z" fill="#EFF7F9"/>
    <path d="M3.47753 9.39123C3.47753 9.20766 3.38574 9.06997 3.33985 8.89787C3.30543 8.77167 3.32838 8.63399 3.32838 8.50778C3.32838 8.33568 3.23659 8.28978 3.24806 8.18652H4.28067C4.28067 8.27831 4.25772 8.38157 4.2233 8.48483C4.20035 8.58809 4.17741 8.67988 4.17741 8.74872C4.17741 8.92082 4.30362 9.04703 4.29214 9.18471C4.2692 9.34534 4.30362 9.47154 4.33804 9.59775C4.3954 9.7928 4.47572 9.70101 4.5675 9.82722C4.62487 9.88459 4.59045 10.0108 4.77402 10.1255C4.84287 10.1714 4.88876 10.332 4.9576 10.3779C5.04939 10.4583 5.1297 10.55 5.23296 10.6533C5.27885 10.7107 5.33622 10.8025 5.39359 10.9057C5.42801 10.9631 5.53127 11.0434 5.63453 11.1237C5.73779 11.1926 5.84105 11.2614 5.88694 11.3188C5.96726 11.4335 6.09346 11.64 6.21967 11.64C6.35735 11.7089 6.64419 11.6974 6.91955 11.7892C7.04576 11.8465 7.18344 11.881 7.29817 11.9498C7.41291 12.0186 7.55059 12.0186 7.67679 12.0301C7.76858 12.0301 7.84889 12.0186 7.94068 12.0072C8.05542 11.9957 8.17015 11.9842 8.30783 11.9957V13.0283C8.1931 13.0283 8.12426 13.0283 8.06689 13.0054C8.021 12.9939 7.9751 12.9824 7.90626 12.9709C7.78005 12.9595 7.66532 13.0168 7.51617 12.9824C7.35554 12.9595 7.21786 12.8447 7.1146 12.7759C6.96544 12.6841 6.7704 12.7529 6.63271 12.6841C6.34588 12.5579 6.36883 12.5005 6.10494 12.4317C5.82958 12.3743 5.6919 12.3514 5.50832 12.2481C5.42801 12.2022 5.33622 12.0875 5.24443 11.9842C5.15265 11.881 5.07233 11.7777 5.01497 11.7089C4.85434 11.5597 4.70518 11.4909 4.64782 11.4105C4.57898 11.3302 4.48719 11.1926 4.42982 11.0434C4.37246 10.8942 4.31509 10.768 4.26919 10.7107C4.06267 10.3665 3.78731 10.4124 3.58079 9.90753C3.52342 9.74691 3.46606 9.57481 3.46606 9.4027L3.47753 9.39123Z" fill="#EFF7F9"/>
    <path d="M6.94272 3.3906C7.03451 3.3906 7.11482 3.36766 7.19514 3.33324C7.27545 3.31029 7.35577 3.28734 7.44755 3.2644C7.57376 3.22998 7.71144 3.2644 7.83765 3.2644C8.00975 3.2644 8.05564 3.18408 8.1589 3.18408V4.21669C7.95238 4.22816 7.71144 4.10195 7.58523 4.11343C7.50492 4.11343 7.42461 4.14785 7.35577 4.17079C7.28693 4.20521 7.21809 4.22816 7.14924 4.22816C7.00009 4.21669 6.86241 4.22816 6.7362 4.27405C6.54116 4.33142 6.63294 4.40026 6.50673 4.50352C6.44937 4.56089 6.32316 4.52647 6.19695 4.71004C6.15106 4.77888 5.99043 4.82478 5.93306 4.88215C5.85275 4.97393 5.76096 5.05425 5.6577 5.14603C5.60034 5.19193 5.50855 5.24929 5.40529 5.30666C5.27908 5.38697 5.09551 5.69676 4.99225 5.78854C4.86604 5.86886 4.67099 5.98359 4.65952 6.1098C4.61362 6.16717 4.60215 6.2819 4.59068 6.40811C4.59068 6.46547 4.56773 6.53431 4.55626 6.60315C4.55626 6.67199 4.53331 6.74084 4.49889 6.80968C4.44152 6.93588 4.39563 7.06209 4.32679 7.1883C4.25795 7.30303 4.24648 7.44071 4.24648 7.56692C4.24648 7.65871 4.24648 7.73902 4.25795 7.83081C4.2809 7.94554 4.2809 8.06028 4.26942 8.17501H3.23682C3.23682 7.91112 3.28271 7.9226 3.29418 7.77344C3.29418 7.64723 3.25976 7.5325 3.29418 7.38335C3.31713 7.22272 3.43186 7.09651 3.5007 6.98178C3.59249 6.82115 3.53512 6.64905 3.60397 6.49989C3.73017 6.21306 3.79901 6.23601 3.85638 5.98359C3.8908 5.84591 3.90227 5.74265 3.93669 5.65086C3.95964 5.55908 3.99406 5.47876 4.05143 5.38697C4.16616 5.22635 4.48742 5.01983 4.60215 4.91657C4.73983 4.75594 4.83162 4.61826 4.90046 4.54942C5.06109 4.38879 5.49708 4.27405 5.61181 4.18227C5.95601 3.97575 5.91012 3.70039 6.42642 3.50534C6.50673 3.47092 6.58705 3.44797 6.67884 3.42502C6.75915 3.41355 6.85094 3.40208 6.93125 3.40208L6.94272 3.3906Z" fill="#EFF7F9"/>
    <path d="M12.9778 6.7982C12.9778 6.98177 13.0695 7.11946 13.1154 7.29156C13.1499 7.41776 13.1269 7.55544 13.1269 7.68165C13.1269 7.85375 13.2187 7.89965 13.2072 8.00291H12.1746C12.1746 7.91112 12.1976 7.80786 12.232 7.7046C12.2549 7.60134 12.2779 7.50955 12.2779 7.44071C12.2779 7.26861 12.1517 7.1424 12.1631 7.00472C12.1861 6.84409 12.1517 6.71789 12.1173 6.59168C12.0599 6.39663 11.9796 6.48842 11.8878 6.36221C11.8304 6.30484 11.8648 6.17864 11.6813 6.0639C11.6124 6.01801 11.5665 5.85738 11.4977 5.81149C11.4059 5.73117 11.3256 5.63939 11.2223 5.53613C11.1764 5.47876 11.1191 5.38697 11.0617 5.28371C11.0273 5.22634 10.924 5.14603 10.8208 5.06572C10.7175 4.99688 10.6142 4.92804 10.5683 4.87067C10.488 4.75593 10.3618 4.54941 10.2356 4.54941C10.0979 4.48057 9.8111 4.49205 9.53574 4.40026C9.40953 4.34289 9.27185 4.30847 9.15712 4.23963C9.04239 4.17079 8.90471 4.17079 8.7785 4.15932C8.68671 4.15932 8.6064 4.17079 8.51461 4.18227C8.39988 4.19374 8.28514 4.20521 8.14746 4.19374V3.16113C8.26219 3.16113 8.33104 3.16113 8.3884 3.18408C8.4343 3.19555 8.48019 3.20703 8.54903 3.2185C8.67524 3.22997 8.78997 3.17261 8.93912 3.20703C9.09975 3.22997 9.23743 3.34471 9.34069 3.41355C9.48985 3.50533 9.6849 3.43649 9.82258 3.50533C10.1094 3.63154 10.0865 3.68891 10.3504 3.75775C10.6257 3.81512 10.7634 3.83806 10.947 3.94132C11.0273 3.98722 11.1191 4.10195 11.2109 4.20521C11.3026 4.30847 11.383 4.41173 11.4403 4.48057C11.601 4.62973 11.7501 4.69857 11.8075 4.77888C11.8763 4.8592 11.9681 4.99688 12.0255 5.14603C12.0828 5.29518 12.1402 5.42139 12.1861 5.47876C12.3926 5.82296 12.668 5.77707 12.8745 6.2819C12.9319 6.44252 12.9892 6.61463 12.9892 6.78673L12.9778 6.7982Z" fill="#EFF7F9"/>
    <path d="M9.51281 12.7988C9.42102 12.7988 9.34071 12.8218 9.2604 12.8562C9.18008 12.8791 9.09977 12.9021 9.00798 12.925C8.88177 12.9594 8.74409 12.925 8.61789 12.925C8.44578 12.925 8.39989 13.0168 8.29663 13.0053V11.9727C8.50315 11.9613 8.74409 12.0875 8.8703 12.076C8.95061 12.076 9.03093 12.0416 9.09977 12.0186C9.16861 11.9842 9.23745 11.9613 9.30629 11.9613C9.45544 11.9727 9.59312 11.9613 9.71933 11.9154C9.91438 11.858 9.82259 11.7892 9.9488 11.6859C10.0062 11.6285 10.1324 11.6629 10.2586 11.4794C10.3045 11.4105 10.4651 11.3646 10.5225 11.3073C10.6028 11.2155 10.6946 11.1352 10.7978 11.0434C10.8552 10.9975 10.947 10.9401 11.0502 10.8828C11.1765 10.8024 11.36 10.4927 11.4633 10.4009C11.5895 10.3206 11.7845 10.2058 11.796 10.0796C11.8419 10.0222 11.8534 9.90751 11.8649 9.78131C11.8649 9.72394 11.8878 9.6551 11.8993 9.58626C11.8993 9.51742 11.9222 9.44858 11.9566 9.37974C12.014 9.25353 12.0599 9.12732 12.1287 9.00112C12.1976 8.88638 12.2091 8.7487 12.2091 8.62249C12.2091 8.53071 12.2091 8.45039 12.1976 8.35861C12.1746 8.24387 12.1746 8.12914 12.1861 8.0144H13.2187C13.2187 8.27829 13.1728 8.26682 13.1614 8.41597C13.1614 8.54218 13.1958 8.65691 13.1614 8.80607C13.1384 8.9667 13.0237 9.0929 12.9548 9.20764C12.863 9.36827 12.9204 9.54037 12.8516 9.68952C12.7254 9.97636 12.6565 9.95341 12.5992 10.2058C12.5647 10.3435 12.5533 10.4468 12.5188 10.5386C12.4959 10.6303 12.4615 10.7107 12.4041 10.8024C12.2894 10.9631 11.9681 11.1696 11.8534 11.2728C11.7157 11.4335 11.6239 11.5712 11.5551 11.64C11.3944 11.8006 10.9585 11.9154 10.8437 12.0071C10.4995 12.2137 10.5454 12.489 10.0291 12.6841C9.9488 12.7185 9.86849 12.7414 9.7767 12.7644C9.69639 12.7759 9.6046 12.7873 9.52428 12.7873L9.51281 12.7988Z" fill="#EFF7F9"/>
    <path d="M23.8431 17.0667H8.12452C4.34792 17.0667 1.28638 20.1256 1.28638 23.8991C1.28638 27.6725 4.34792 30.7315 8.12452 30.7315H23.8431C27.6197 30.7315 30.6812 27.6725 30.6812 23.8991C30.6812 20.1256 27.6197 17.0667 23.8431 17.0667Z" fill="#FF945E"/>
    <path d="M18.1754 31.2018C18.0263 31.1674 17.8771 31.2018 17.728 31.2247C17.6132 31.2362 17.4985 31.1903 17.3838 31.1903C17.2346 31.1903 17.1887 31.2706 17.0969 31.2592V30.2266C17.3264 30.2266 17.5788 30.3642 17.705 30.3757C17.8771 30.3987 18.0492 30.3184 18.1754 30.3528C18.3246 30.3987 18.4737 30.4331 18.6114 30.4331C18.8179 30.4446 18.7606 30.3528 18.9327 30.3069C19.013 30.2839 19.1162 30.3528 19.3228 30.2725C19.4031 30.238 19.5752 30.2725 19.667 30.2725C19.7932 30.2495 19.9309 30.2266 20.08 30.2266C20.1603 30.2266 20.2751 30.2495 20.4013 30.2839C20.5504 30.3184 20.9405 30.2495 21.0897 30.2839C21.2388 30.3298 21.4568 30.4446 21.5716 30.3872C21.7322 30.3872 22.0075 30.238 22.3288 30.2495C22.4779 30.2495 22.6271 30.2725 22.7763 30.3069C22.9139 30.3413 23.0516 30.3413 23.1893 30.3183L23.4761 30.2725C23.6023 30.2495 23.7285 30.238 23.8548 30.2495V31.2821C23.6138 31.2821 23.6253 31.2477 23.4876 31.2362C23.3729 31.2362 23.2811 31.2821 23.1549 31.2821C23.0172 31.2821 22.8795 31.1903 22.7763 31.1559C22.6271 31.11 22.478 31.2018 22.3403 31.1903C22.0649 31.1674 22.0534 31.0985 21.824 31.1559C21.583 31.2133 21.4798 31.2821 21.2847 31.2821C21.1241 31.2821 20.8028 31.1444 20.6537 31.1444C20.4586 31.1444 20.321 31.1903 20.2406 31.1903C20.0456 31.1903 19.667 31.0297 19.5293 31.0412C19.1621 31.0412 19.0818 31.2821 18.6114 31.2821C18.4623 31.2821 18.3131 31.2592 18.164 31.2247L18.1754 31.2018Z" fill="#EFF7F9"/>
    <path d="M11.4064 31.2018C11.2572 31.1674 11.1081 31.2018 10.9589 31.2247C10.8442 31.2362 10.7294 31.1903 10.6147 31.1903C10.4656 31.1903 10.4197 31.2706 10.3279 31.2592V30.2266C10.5573 30.2266 10.8098 30.3642 10.936 30.3757C11.1081 30.3987 11.2802 30.3184 11.4064 30.3528C11.5555 30.3987 11.7047 30.4331 11.8424 30.4331C12.0489 30.4446 11.9915 30.3528 12.1636 30.3069C12.2439 30.2839 12.3472 30.3528 12.5537 30.2725C12.634 30.238 12.8061 30.2725 12.8979 30.2725C13.0241 30.2495 13.1618 30.2266 13.311 30.2266C13.3913 30.2266 13.506 30.2495 13.6322 30.2839C13.7814 30.3184 14.1715 30.2495 14.3206 30.2839C14.4698 30.3298 14.6878 30.4446 14.8025 30.3872C14.9631 30.3872 15.2385 30.238 15.5597 30.2495C15.7089 30.2495 15.8581 30.2725 16.0072 30.3069C16.1449 30.3413 16.2826 30.3413 16.4203 30.3183L16.7071 30.2725C16.8333 30.2495 16.9595 30.238 17.0857 30.2495V31.2821C16.8448 31.2821 16.8562 31.2477 16.7186 31.2362C16.6038 31.2362 16.512 31.2821 16.3858 31.2821C16.2482 31.2821 16.1105 31.1903 16.0072 31.1559C15.8581 31.11 15.7089 31.2018 15.5712 31.1903C15.2959 31.1674 15.2844 31.0985 15.0549 31.1559C14.814 31.2133 14.7107 31.2821 14.5157 31.2821C14.355 31.2821 14.0338 31.1444 13.8846 31.1444C13.6896 31.1444 13.5519 31.1903 13.4716 31.1903C13.2765 31.1903 12.8979 31.0297 12.7602 31.0412C12.3931 31.0412 12.3128 31.2821 11.8424 31.2821C11.6932 31.2821 11.5441 31.2592 11.3949 31.2247L11.4064 31.2018Z" fill="#EFF7F9"/>
    <path d="M4.56801 30.2726C4.4418 30.1578 4.29265 30.1119 4.1435 30.0431C4.02876 29.9972 3.95992 29.871 3.86813 29.8021C3.74193 29.7104 3.66161 29.7448 3.5813 29.6759L4.22381 28.8613C4.39591 28.9761 4.49917 29.2514 4.60243 29.3203C4.72864 29.4235 4.91221 29.435 4.99253 29.5383C5.09579 29.653 5.21052 29.7333 5.31378 29.8021C5.48588 29.9054 5.47441 29.7907 5.63504 29.8251C5.71535 29.8251 5.78419 29.9284 5.99071 29.9169C6.07103 29.9169 6.20871 30.0087 6.28902 30.0087C6.41523 30.0087 6.54144 30.0316 6.67912 30.066C6.74796 30.089 6.85122 30.1349 6.96595 30.1808C7.10363 30.2381 7.47078 30.2381 7.59699 30.2611C7.73467 30.307 7.92972 30.4447 8.04445 30.3873C8.1936 30.3873 8.48044 30.2381 8.79022 30.2496C8.93938 30.2496 9.08853 30.2726 9.23768 30.307C9.37536 30.3414 9.51304 30.3414 9.65073 30.3184L9.93756 30.2726C10.0638 30.2496 10.19 30.2381 10.3162 30.2496V31.2822C10.0752 31.2822 10.0867 31.2478 9.94903 31.2363C9.8343 31.2363 9.74251 31.2822 9.6163 31.2822C9.47862 31.2822 9.34094 31.1904 9.23768 31.156C9.08853 31.1101 8.93937 31.2019 8.80169 31.1904C8.52633 31.1675 8.51486 31.0986 8.28539 31.156C8.05592 31.2248 7.91824 31.2707 7.7232 31.2593C7.63141 31.2593 7.5052 31.2134 7.39047 31.1675C7.26426 31.1216 7.14952 31.0642 7.08068 31.0527C6.87416 31.0183 6.72501 31.0527 6.63322 31.0298C6.43817 30.9724 6.0825 30.72 5.95629 30.6971C5.77272 30.6282 5.64651 30.6512 5.49736 30.6627C5.42852 30.6627 5.3482 30.6627 5.25641 30.6627C5.16463 30.6512 5.07284 30.6168 4.95811 30.5594C4.80895 30.4791 4.67127 30.4102 4.55654 30.2955L4.56801 30.2726Z" fill="#EFF7F9"/>
    <path d="M0.850625 24.4325C0.885046 24.2604 0.827679 24.1227 0.804732 23.9506C0.781785 23.8359 0.850625 23.6982 0.850625 23.5835C0.850625 23.4228 0.781785 23.3769 0.804732 23.2737L1.83734 23.3655C1.83734 23.572 1.67671 23.8015 1.66524 23.9277C1.66524 24.0883 1.74555 24.2489 1.71113 24.3751C1.68818 24.444 1.67671 24.5243 1.66524 24.5931C1.66524 24.662 1.66524 24.7308 1.66524 24.7882C1.67671 24.9832 1.7685 24.9144 1.82586 25.075C1.84881 25.1438 1.80292 25.2586 1.9406 25.4307C1.98649 25.4995 1.98649 25.6601 2.03239 25.7405C2.08975 25.8552 2.15859 25.9585 2.20449 26.0961C2.22743 26.165 2.25038 26.2797 2.26185 26.3944C2.2848 26.5436 2.51427 26.8304 2.53721 26.9681C2.57164 27.1058 2.57163 27.3467 2.68637 27.4041C2.75521 27.5418 3.04204 27.6565 3.21414 27.8975C3.29446 28.0122 3.38625 28.1155 3.44361 28.2417C3.51245 28.3564 3.59277 28.4597 3.7075 28.5285L3.93697 28.6776C4.04023 28.7465 4.13202 28.8153 4.2238 28.8842L3.58129 29.6988C3.37477 29.5496 3.40919 29.5037 3.31741 29.4119C3.23709 29.3316 3.12236 29.2972 3.0191 29.2054C2.90436 29.1136 2.88142 28.9301 2.83552 28.8268C2.76668 28.6777 2.58311 28.6318 2.50279 28.5055C2.34217 28.2531 2.39953 28.2072 2.20449 28.0466C2.00944 27.8745 1.90618 27.8057 1.79144 27.6336C1.68818 27.4844 1.66524 27.1173 1.60787 26.9796C1.56198 26.8878 1.51608 26.8075 1.47019 26.7501C1.43577 26.6813 1.40135 26.6354 1.38988 26.5895C1.32103 26.3944 1.33251 25.9699 1.29809 25.8322C1.25219 25.6487 1.16041 25.5454 1.06862 25.4307C0.976833 25.3159 0.907993 25.1783 0.862099 24.9259C0.862099 24.8455 0.839152 24.7652 0.839152 24.6849C0.839152 24.6046 0.850626 24.5243 0.862099 24.444L0.850625 24.4325Z" fill="#EFF7F9"/>
    <path d="M3.69598 18.1222C3.85661 18.0534 3.9484 17.9272 4.07461 17.8239C4.16639 17.7551 4.30407 17.7207 4.40733 17.6633C4.54501 17.583 4.54501 17.4912 4.6368 17.4453L5.13016 18.3517C4.94658 18.455 4.6827 18.4664 4.56796 18.5238C4.41881 18.5927 4.34997 18.7648 4.22376 18.7992C4.07461 18.8451 3.9484 18.9139 3.85661 18.9942C3.69598 19.1204 3.81072 19.1548 3.71893 19.2925C3.69598 19.327 3.66156 19.3499 3.61567 19.3843C3.56978 19.4302 3.52388 19.4876 3.48946 19.5794C3.46652 19.6597 3.32884 19.7515 3.28294 19.8203C3.22557 19.9236 3.16821 20.0383 3.07642 20.153C3.03053 20.2104 2.95021 20.2792 2.85843 20.3596C2.75516 20.4628 2.62896 20.807 2.5257 20.9103C2.43391 21.0135 2.22739 21.1512 2.23886 21.2774C2.15855 21.4151 2.23886 21.7134 2.11265 21.9888C2.06676 22.1265 2.02087 22.2527 1.95203 22.3789C1.88319 22.4936 1.84877 22.6198 1.84877 22.7575V23.0214C1.84877 23.1361 1.84877 23.2623 1.83729 23.3771L0.804688 23.2853C0.816161 23.0329 0.873528 23.0443 0.896475 22.9067C0.919421 22.7919 0.885001 22.6772 0.896475 22.5395C0.919421 22.3903 1.0571 22.2756 1.11447 22.1724C1.20626 22.0232 1.13742 21.8511 1.19478 21.7249C1.30952 21.4495 1.37836 21.4725 1.41278 21.2201C1.4472 20.9562 1.45867 20.83 1.53898 20.6464C1.60783 20.4743 1.90613 20.2563 1.98645 20.1301C2.08971 19.958 2.1356 19.8088 2.19297 19.74C2.31918 19.5794 2.67485 19.3499 2.76664 19.2466C2.89285 19.109 2.92727 18.9827 2.97316 18.8336C3.01905 18.6959 3.09937 18.5582 3.28294 18.3861C3.39768 18.2714 3.53536 18.1911 3.68451 18.1222H3.69598Z" fill="#EFF7F9"/>
    <path d="M10.4193 16.6079C10.5685 16.6423 10.7176 16.6079 10.8668 16.585C10.9815 16.5735 11.0962 16.6194 11.211 16.6194C11.3601 16.6194 11.406 16.5391 11.4978 16.5505V17.5831C11.2683 17.5831 11.0159 17.4455 10.8897 17.434C10.7176 17.411 10.5455 17.4914 10.4193 17.4569C10.2702 17.411 10.121 17.3766 9.98332 17.3766C9.7768 17.3651 9.83416 17.4569 9.66206 17.5028C9.58175 17.5258 9.47849 17.4569 9.27197 17.5372C9.19165 17.5717 9.01955 17.5372 8.92777 17.5372C8.80156 17.5602 8.66388 17.5831 8.51472 17.5831C8.43441 17.5831 8.31968 17.5602 8.19347 17.5258C8.04432 17.4914 7.68864 17.5946 7.55096 17.5602C7.41328 17.5258 7.19528 17.4455 7.09202 17.5258C7.02318 17.5372 6.91992 17.5831 6.80519 17.6405C6.69045 17.7094 6.57572 17.7782 6.42657 17.8126C6.35773 17.8241 6.28889 17.8356 6.22005 17.847C6.1512 17.8585 6.08237 17.87 6.01352 17.8815C5.87584 17.8929 5.76111 17.9388 5.64638 18.0077L5.42838 18.1568C5.33659 18.2257 5.23333 18.2945 5.1186 18.3289L4.62524 17.4225C4.85471 17.3078 4.86619 17.3422 5.00387 17.2963C5.1186 17.2504 5.17597 17.1472 5.31365 17.1013C5.45133 17.0439 5.62343 17.1013 5.73816 17.0783C5.81848 17.0783 5.88732 17.0324 5.95616 16.998C6.025 16.9636 6.09384 16.9177 6.16268 16.9062C6.44951 16.8488 6.47246 16.9062 6.70193 16.803C6.94287 16.7112 7.04613 16.6194 7.25265 16.5964C7.42475 16.562 7.76895 16.6997 7.92958 16.6882C8.1361 16.6767 8.27378 16.6308 8.3541 16.6308C8.54915 16.6308 8.92777 16.7915 9.06545 16.78C9.4326 16.78 9.51291 16.5391 9.98332 16.5391C10.1325 16.5391 10.2816 16.562 10.4308 16.5964L10.4193 16.6079Z" fill="#EFF7F9"/>
    <path d="M17.1886 16.6079C17.3378 16.6423 17.4869 16.6079 17.6361 16.585C17.7508 16.5735 17.8655 16.6194 17.9803 16.6194C18.1294 16.6194 18.1753 16.5391 18.2671 16.5505V17.5831C18.0376 17.5831 17.7852 17.4455 17.659 17.434C17.4869 17.411 17.3148 17.4914 17.1886 17.4569C17.0395 17.411 16.8903 17.3766 16.7526 17.3766C16.5461 17.3651 16.6035 17.4569 16.4314 17.5028C16.3511 17.5258 16.2478 17.4569 16.0413 17.5372C15.961 17.5717 15.7889 17.5372 15.6971 17.5372C15.5709 17.5602 15.4332 17.5831 15.284 17.5831C15.2037 17.5831 15.089 17.5602 14.9628 17.5258C14.8136 17.4914 14.4235 17.5602 14.2744 17.5258C14.1252 17.4799 13.9072 17.3651 13.7925 17.4225C13.6319 17.4225 13.3565 17.5717 13.0352 17.5602C12.8861 17.5602 12.7369 17.5372 12.5878 17.5028C12.4501 17.4684 12.3124 17.4684 12.1747 17.4914L11.8879 17.5372C11.7617 17.5602 11.6355 17.5717 11.5093 17.5602V16.5276C11.7502 16.5276 11.7387 16.562 11.8764 16.5735C11.9912 16.5735 12.0829 16.5276 12.2092 16.5276C12.3468 16.5276 12.4845 16.6194 12.5878 16.6538C12.7369 16.6997 12.8861 16.6079 13.0238 16.6194C13.2991 16.6423 13.3106 16.7112 13.5401 16.6538C13.781 16.5964 13.8843 16.5276 14.0793 16.5276C14.2399 16.5276 14.5612 16.6653 14.7104 16.6653C14.9054 16.6653 15.0431 16.6194 15.1234 16.6194C15.3184 16.6194 15.6971 16.78 15.8347 16.7685C16.2019 16.7685 16.2822 16.5276 16.7526 16.5276C16.9018 16.5276 17.0509 16.5505 17.2001 16.585L17.1886 16.6079Z" fill="#EFF7F9"/>
    <path d="M23.9581 16.6194C24.1188 16.6653 24.2679 16.6308 24.44 16.6194C24.5548 16.6079 24.681 16.6767 24.7957 16.6997C24.9563 16.7226 25.0137 16.6538 25.1055 16.6767L24.9334 17.6979C24.7269 17.6749 24.5089 17.4914 24.3827 17.4799C24.222 17.4569 24.0614 17.5258 23.9352 17.4799C23.786 17.4225 23.6369 17.3996 23.5107 17.3881C23.3042 17.3766 23.3615 17.4684 23.1894 17.5143C23.1091 17.5372 23.0058 17.4684 22.7993 17.5487C22.719 17.5831 22.5469 17.5487 22.4551 17.5487C22.3289 17.5717 22.1912 17.5946 22.0421 17.5946C21.9618 17.5946 21.847 17.5717 21.7208 17.5372C21.5717 17.5028 21.1816 17.5717 21.0324 17.5372C20.8833 17.4914 20.6653 17.3766 20.5505 17.434C20.3899 17.434 20.1146 17.5831 19.7933 17.5717C19.6441 17.5717 19.495 17.5487 19.3458 17.5143C19.2082 17.4799 19.0705 17.4799 18.9328 17.5028L18.646 17.5487C18.5197 17.5717 18.3935 17.5831 18.2673 17.5717V16.5391C18.5083 16.5391 18.4968 16.5735 18.6345 16.585C18.7492 16.585 18.841 16.5391 18.9672 16.5391C19.1049 16.5391 19.2426 16.6309 19.3458 16.6653C19.495 16.7112 19.6441 16.6194 19.7818 16.6308C20.0572 16.6538 20.0687 16.7226 20.2981 16.6653C20.5391 16.6079 20.6423 16.5391 20.8374 16.5391C20.998 16.5391 21.3193 16.6767 21.4684 16.6767C21.6635 16.6767 21.8011 16.6308 21.8815 16.6308C22.0765 16.6308 22.4551 16.7915 22.5928 16.78C22.96 16.78 23.0403 16.5391 23.5107 16.5391C23.6598 16.5391 23.809 16.5505 23.9581 16.5964V16.6194Z" fill="#EFF7F9"/>
    <path d="M30.0046 19.9926C30.062 20.1532 30.1652 20.2565 30.28 20.3941C30.3488 20.4859 30.3603 20.6351 30.4062 20.7383C30.475 20.8875 30.5668 20.8875 30.6012 20.9908L29.6489 21.4038C29.5571 21.2202 29.5801 20.9449 29.5342 20.8187C29.4653 20.6695 29.3162 20.5777 29.2818 20.4515C29.2473 20.3023 29.19 20.1761 29.1211 20.0614C29.0179 19.8893 28.972 19.9926 28.8458 19.8893C28.7884 19.8434 28.7655 19.7287 28.5704 19.6369C28.4901 19.6025 28.4213 19.4533 28.3524 19.4074C28.2492 19.3501 28.1344 19.2697 28.0312 19.178C27.9738 19.1321 27.9164 19.0288 27.8361 18.937C27.7443 18.8223 27.4116 18.6617 27.3198 18.5584C27.228 18.4551 27.1133 18.2371 26.9871 18.2371C26.8494 18.1568 26.5511 18.1798 26.2872 18.0536C26.161 18.0077 26.0348 17.9388 25.9201 17.8585C25.8627 17.8241 25.8053 17.7897 25.748 17.7667C25.6906 17.7438 25.6218 17.7438 25.5529 17.7323L25.289 17.7094C25.1743 17.6979 25.0481 17.6864 24.9333 17.6635L25.1055 16.6423C25.3579 16.6768 25.3464 16.7226 25.4841 16.7685C25.5988 16.803 25.7135 16.7685 25.8512 16.8144C26.0004 16.8489 26.1036 16.9865 26.1954 17.0554C26.3331 17.1586 26.5052 17.1127 26.6429 17.1816C26.9068 17.3193 26.8724 17.3881 27.1248 17.4455C27.3772 17.4914 27.5149 17.5143 27.687 17.6176C27.7673 17.6635 27.8591 17.7553 27.9394 17.8585C28.0197 17.9618 28.1 18.065 28.1574 18.1109C28.318 18.2371 28.4672 18.283 28.536 18.3519C28.6852 18.4896 28.8802 18.8682 28.972 18.9714C29.2244 19.2583 29.4883 19.1435 29.7866 19.5681C29.8784 19.6943 29.9702 19.8319 30.0161 19.9926H30.0046Z" fill="#EFF7F9"/>
    <path d="M30.4979 26.899C30.3946 27.0367 30.3602 27.1859 30.3143 27.3465C30.2799 27.4612 30.1537 27.5415 30.0963 27.6448C30.016 27.7825 30.0504 27.8628 29.9931 27.9431L29.1326 27.3694C29.2358 27.1859 29.4882 27.0597 29.5571 26.9564C29.6489 26.8187 29.6374 26.6466 29.7292 26.5434C29.8439 26.4401 29.9013 26.3139 29.9587 26.1992C30.039 26.0156 29.9242 26.0385 29.9587 25.8779C29.9701 25.7976 30.0504 25.7173 30.016 25.5108C30.0045 25.4304 30.0849 25.2813 30.0849 25.201C30.0849 25.0748 30.0849 24.9486 30.0963 24.8109C30.0963 24.7306 30.1537 24.6388 30.1881 24.524C30.234 24.3864 30.1881 24.0192 30.2225 23.8815C30.257 23.7438 30.3717 23.5259 30.3029 23.4226C30.3029 23.2734 30.1078 23.0325 30.0734 22.7457C30.0734 22.608 30.0275 22.4703 30.039 22.3326C30.039 22.1949 30.016 22.0687 29.9472 21.954L29.8095 21.7245C29.7521 21.6213 29.7062 21.518 29.6603 21.4033L30.6126 20.9902C30.7159 21.2312 30.67 21.2426 30.7044 21.3803C30.7388 21.4951 30.8306 21.5754 30.8765 21.7016C30.9224 21.8507 30.8651 22.0114 30.8536 22.1261C30.8536 22.2982 30.9913 22.4129 30.9913 22.5621C31.0142 22.8604 30.9454 22.8719 31.0372 23.1013C31.1175 23.3423 31.1863 23.457 31.1978 23.6635C31.2207 23.8471 31.0601 24.1798 31.0486 24.329C31.0486 24.5355 31.0716 24.6847 31.0486 24.7765C31.0142 24.983 30.8077 25.3501 30.7733 25.4878C30.67 25.855 30.9109 26.0041 30.7274 26.486C30.67 26.6351 30.6012 26.7843 30.4979 26.9105V26.899Z" fill="#EFF7F9"/>
    <path d="M25.0021 31.0985C24.83 31.087 24.6923 31.1559 24.5317 31.1903C24.4169 31.2132 24.2793 31.1673 24.1645 31.1673C24.0039 31.1673 23.958 31.2476 23.8547 31.2476V30.215C24.0613 30.215 24.3022 30.3298 24.4284 30.3412C24.589 30.3412 24.7382 30.238 24.8644 30.2609C25.0135 30.2839 25.1627 30.2953 25.2774 30.2609C25.4725 30.2265 25.3922 30.1462 25.5413 30.0659C25.6102 30.02 25.7249 30.0659 25.8855 29.9167C25.9429 29.8594 26.115 29.8479 26.1838 29.802C26.2871 29.7446 26.3904 29.6643 26.5166 29.6069C26.5854 29.5725 26.6887 29.5496 26.8149 29.5266C26.964 29.5037 27.2279 29.2283 27.3656 29.2054C27.5033 29.171 27.7327 29.1365 27.7901 29.0218C27.9163 28.9415 28.0196 28.6432 28.2261 28.4596C28.3408 28.3678 28.4326 28.276 28.5474 28.1957C28.6621 28.1154 28.7539 28.0236 28.8112 27.9089L28.9375 27.6679C28.9833 27.5647 29.0522 27.4614 29.121 27.3696L29.9815 27.9433C29.8439 28.1613 29.798 28.1269 29.7176 28.2301C29.6373 28.3219 29.6259 28.4367 29.5455 28.5514C29.4538 28.6661 29.2817 28.712 29.1784 28.7694C29.0292 28.8497 29.0063 29.0447 28.8916 29.1251C28.6621 29.3086 28.6047 29.2627 28.467 29.4693C28.3064 29.6758 28.249 29.7905 28.0884 29.9167C27.9507 30.0315 27.5836 30.0774 27.4574 30.1577C27.2853 30.2724 27.1705 30.3642 27.0902 30.4101C26.9984 30.456 26.8493 30.4789 26.7001 30.5133C26.551 30.5363 26.4133 30.5363 26.3445 30.5707C26.1609 30.6395 26.0806 30.7428 25.9658 30.8346C25.8511 30.9264 25.7249 31.0182 25.4725 31.087C25.3119 31.1329 25.1512 31.1329 24.9906 31.1214L25.0021 31.0985Z" fill="#EFF7F9"/>
    <path d="M23.9236 19.4988H23.7859C21.3527 19.4988 19.3801 21.4687 19.3801 23.8988C19.3801 26.3289 21.3527 28.2989 23.7859 28.2989H23.9236C26.3568 28.2989 28.3294 26.3289 28.3294 23.8988C28.3294 21.4687 26.3568 19.4988 23.9236 19.4988Z" fill="#EFF7F9"/>
    <path d="M19.105 25.201C19.105 25.0175 19.0132 24.8798 18.9673 24.7077C18.9329 24.5815 18.9558 24.4438 18.9558 24.3176C18.9558 24.1455 18.864 24.0996 18.8755 23.9963H19.9081C19.9081 24.0881 19.8852 24.1914 19.8507 24.2946C19.8278 24.3979 19.8048 24.4897 19.8048 24.5585C19.8048 24.7306 19.9311 24.8568 19.9196 24.9945C19.8966 25.1552 19.9311 25.2814 19.9655 25.4076C20.0228 25.6026 20.1032 25.5108 20.1949 25.637C20.2523 25.6944 20.2179 25.8206 20.4015 25.9353C20.4703 25.9812 20.5162 26.1419 20.585 26.1878C20.6768 26.2681 20.7571 26.3599 20.8604 26.4631C20.9063 26.5205 20.9637 26.6123 21.021 26.7155C21.0554 26.7729 21.1587 26.8532 21.262 26.9335C21.3652 27.0024 21.4685 27.0712 21.5144 27.1286C21.5947 27.2433 21.7209 27.4498 21.8471 27.4498C21.9848 27.5187 22.2716 27.5072 22.547 27.599C22.6732 27.6564 22.8109 27.6908 22.9256 27.7596C23.0403 27.8285 23.178 27.8285 23.3042 27.8399C23.396 27.8399 23.4763 27.8285 23.5681 27.817C23.6829 27.8055 23.7976 27.794 23.9353 27.8055V28.8381C23.8205 28.8381 23.7517 28.8381 23.6943 28.8152C23.6484 28.8037 23.6025 28.7922 23.5337 28.7807C23.4075 28.7693 23.2928 28.8266 23.1436 28.7922C22.983 28.7693 22.8453 28.6545 22.742 28.5857C22.5929 28.4939 22.3978 28.5627 22.2602 28.4939C21.9733 28.3677 21.9963 28.3103 21.7324 28.2415C21.457 28.1841 21.3193 28.1612 21.1358 28.0579C21.0554 28.012 20.9637 27.8973 20.8719 27.794C20.7801 27.6908 20.6998 27.5875 20.6424 27.5187C20.4818 27.3695 20.3326 27.3007 20.2753 27.2204C20.2064 27.14 20.1146 27.0024 20.0573 26.8532C19.9999 26.7041 19.9425 26.5779 19.8966 26.5205C19.6901 26.1763 19.4148 26.2222 19.2082 25.7173C19.1509 25.5567 19.0935 25.3846 19.0935 25.2125L19.105 25.201Z" fill="#EFF7F9"/>
    <path d="M22.5699 19.2007C22.6617 19.2007 22.742 19.1777 22.8223 19.1433C22.9026 19.1203 22.983 19.0974 23.0747 19.0745C23.201 19.04 23.3386 19.0745 23.4648 19.0745C23.6369 19.0745 23.6828 18.9941 23.7861 18.9941V20.0267C23.5796 20.0382 23.3386 19.912 23.2124 19.9235C23.1321 19.9235 23.0518 19.9579 22.983 19.9809C22.9141 20.0153 22.8453 20.0382 22.7764 20.0382C22.6273 20.0267 22.4896 20.0382 22.3634 20.0841C22.1684 20.1415 22.2601 20.2103 22.1339 20.3136C22.0766 20.3709 21.9504 20.3365 21.8241 20.5201C21.7783 20.5889 21.6176 20.6348 21.5603 20.6922C21.4799 20.784 21.3882 20.8643 21.2849 20.9561C21.2275 21.002 21.1357 21.0594 21.0325 21.1167C20.9063 21.197 20.7227 21.5068 20.6194 21.5986C20.4932 21.6789 20.2982 21.7936 20.2867 21.9199C20.2408 21.9772 20.2293 22.092 20.2179 22.2182C20.2179 22.2755 20.1949 22.3444 20.1835 22.4132C20.1835 22.4821 20.1605 22.5509 20.1261 22.6197C20.0687 22.7459 20.0228 22.8721 19.954 22.9984C19.8851 23.1131 19.8737 23.2508 19.8737 23.377C19.8737 23.4688 19.8737 23.5491 19.8851 23.6409C19.9081 23.7556 19.9081 23.8703 19.8966 23.9851H18.864C18.864 23.7212 18.9099 23.7327 18.9214 23.5835C18.9214 23.4573 18.887 23.3426 18.9214 23.1934C18.9443 23.0328 19.0591 22.9066 19.1279 22.7918C19.2197 22.6312 19.1623 22.4591 19.2312 22.31C19.3574 22.0231 19.4262 22.0461 19.4836 21.7936C19.518 21.656 19.5295 21.5527 19.5639 21.4609C19.5868 21.3691 19.6213 21.2888 19.6786 21.197C19.7934 21.0364 20.1146 20.8299 20.2293 20.7266C20.367 20.566 20.4588 20.4283 20.5277 20.3595C20.6883 20.1988 21.1243 20.0841 21.239 19.9923C21.5832 19.7858 21.5373 19.5104 22.0536 19.3154C22.1339 19.281 22.2142 19.258 22.306 19.2351C22.3863 19.2236 22.4781 19.2121 22.5584 19.2121L22.5699 19.2007Z" fill="#EFF7F9"/>
    <path d="M28.6047 22.6083C28.6047 22.7918 28.6965 22.9295 28.7424 23.1016C28.7768 23.2278 28.7539 23.3655 28.7539 23.4917C28.7539 23.6638 28.8457 23.7097 28.8342 23.813H27.8016C27.8016 23.7212 27.8245 23.6179 27.8589 23.5147C27.8819 23.4114 27.9048 23.3196 27.9048 23.2508C27.9048 23.0787 27.7786 22.9525 27.7901 22.8148C27.813 22.6542 27.7786 22.5279 27.7442 22.4017C27.6868 22.2067 27.6065 22.2985 27.5147 22.1723C27.4574 22.1149 27.4918 21.9887 27.3082 21.874C27.2394 21.8281 27.1935 21.6674 27.1246 21.6215C27.0329 21.5412 26.9525 21.4494 26.8493 21.3462C26.8034 21.2888 26.746 21.197 26.6887 21.0938C26.6542 21.0364 26.551 20.9561 26.4477 20.8758C26.3445 20.8069 26.2412 20.7381 26.1953 20.6807C26.115 20.566 25.9888 20.3595 25.8626 20.3595C25.7249 20.2906 25.4381 20.3021 25.1627 20.2103C25.0365 20.153 24.8988 20.1185 24.7841 20.0497C24.6693 19.9809 24.5317 19.9808 24.4055 19.9694C24.3137 19.9694 24.2333 19.9808 24.1416 19.9923C24.0268 20.0038 23.9121 20.0153 23.7744 20.0038V18.9712C23.8891 18.9712 23.958 18.9712 24.0154 18.9941C24.0612 19.0056 24.1071 19.0171 24.176 19.0286C24.3022 19.04 24.4169 18.9827 24.5661 19.0171C24.7267 19.04 24.8644 19.1548 24.9676 19.2236C25.1168 19.3154 25.3118 19.2466 25.4495 19.3154C25.7364 19.4416 25.7134 19.499 25.9773 19.5678C26.2527 19.6252 26.3903 19.6481 26.5739 19.7514C26.6542 19.7973 26.746 19.912 26.8378 20.0153C26.9296 20.1185 27.0099 20.2218 27.0673 20.2906C27.2279 20.4398 27.3771 20.5086 27.4344 20.5889C27.5033 20.6693 27.5951 20.8069 27.6524 20.9561C27.7098 21.1052 27.7672 21.2315 27.813 21.2888C28.0196 21.633 28.2949 21.5871 28.5015 22.092C28.5588 22.2526 28.6162 22.4247 28.6162 22.5968L28.6047 22.6083Z" fill="#EFF7F9"/>
    <path d="M25.1398 28.6086C25.048 28.6086 24.9677 28.6316 24.8873 28.666C24.807 28.6889 24.7267 28.7119 24.6349 28.7348C24.5087 28.7693 24.371 28.7348 24.2448 28.7348C24.0727 28.7348 24.0268 28.8266 23.9236 28.8151V27.7825C24.1301 27.7711 24.371 27.8973 24.4973 27.8858C24.5776 27.8858 24.6579 27.8514 24.7267 27.8284C24.7956 27.794 24.8644 27.7711 24.9332 27.7711C25.0824 27.7825 25.2201 27.7711 25.3463 27.7252C25.5413 27.6678 25.4495 27.599 25.5758 27.4957C25.6331 27.4383 25.7593 27.4728 25.8855 27.2892C25.9314 27.2203 26.0921 27.1745 26.1494 27.1171C26.2297 27.0253 26.3215 26.945 26.4248 26.8532C26.4822 26.8073 26.5739 26.7499 26.6772 26.6926C26.8034 26.6123 26.987 26.3025 27.0902 26.2107C27.2164 26.1304 27.4115 26.0156 27.423 25.8894C27.4689 25.8321 27.4803 25.7173 27.4918 25.5911C27.4918 25.5338 27.5148 25.4649 27.5262 25.3961C27.5262 25.3272 27.5492 25.2584 27.5836 25.1896C27.641 25.0633 27.6869 24.9371 27.7557 24.8109C27.8245 24.6962 27.836 24.5585 27.836 24.4323C27.836 24.3405 27.836 24.2602 27.8245 24.1684C27.8016 24.0537 27.8016 23.939 27.8131 23.8242H28.8457C28.8457 24.0881 28.7998 24.0766 28.7883 24.2258C28.7883 24.352 28.8227 24.4667 28.7883 24.6159C28.7654 24.7765 28.6506 24.9027 28.5818 25.0175C28.49 25.1781 28.5474 25.3502 28.4785 25.4993C28.3523 25.7862 28.2835 25.7632 28.2261 26.0156C28.1917 26.1533 28.1802 26.2566 28.1458 26.3484C28.1228 26.4402 28.0884 26.5205 28.0311 26.6123C27.9163 26.7729 27.5951 26.9794 27.4803 27.0827C27.3427 27.2433 27.2509 27.381 27.182 27.4498C27.0214 27.6104 26.5854 27.7252 26.4707 27.817C26.1265 28.0235 26.1724 28.2988 25.6561 28.4939C25.5758 28.5283 25.4954 28.5513 25.4037 28.5742C25.3233 28.5857 25.2316 28.5972 25.1512 28.5972L25.1398 28.6086Z" fill="#EFF7F9"/>
  </g>
  <defs>
    <clipPath id="clip0_1352_10335">
      <rect width="30.4" height="30.4" fill="white" transform="translate(0.800049 0.800049)"/>
    </clipPath>
  </defs>
</svg>