<svg xmlns="http://www.w3.org/2000/svg" width="34" height="34" viewBox="0 0 34 34" fill="none">
  <g clip-path="url(#clip0_1933_2391)">
    <path d="M29.9523 0.545593H3.39297C1.81896 0.545593 0.542969 1.82158 0.542969 3.39559V29.9549C0.542969 31.5289 1.81896 32.8049 3.39297 32.8049H29.9523C31.5263 32.8049 32.8023 31.5289 32.8023 29.9549V3.39559C32.8023 1.82158 31.5263 0.545593 29.9523 0.545593Z" fill="#DBE9F0"/>
    <path d="M23.8175 33.2853C23.652 33.2446 23.4972 33.2853 23.3317 33.3097C23.2122 33.326 23.082 33.2717 22.9598 33.2717C22.797 33.2717 22.7535 33.3504 22.6504 33.3423V32.2593C22.8947 32.2593 23.1688 32.4004 23.31 32.4167C23.4945 32.4357 23.6764 32.3543 23.8202 32.395C23.9858 32.4466 24.1405 32.4737 24.2844 32.4846C24.507 32.5008 24.4445 32.3977 24.6318 32.357C24.7214 32.3353 24.8327 32.4058 25.058 32.3163C25.1448 32.281 25.3321 32.3244 25.4271 32.3054C25.5682 32.2783 25.7121 32.2593 25.8777 32.2593C25.9672 32.2593 26.0894 32.2837 26.2278 32.3136C26.3934 32.3543 26.8141 32.2729 26.9715 32.3136C27.1317 32.357 27.3678 32.4846 27.4927 32.4167C27.6637 32.4167 27.965 32.262 28.3042 32.2674C28.4671 32.2701 28.63 32.2864 28.7847 32.3244C28.9367 32.3597 29.086 32.357 29.238 32.338L29.542 32.2918C29.6804 32.2701 29.8161 32.2538 29.9545 32.2647V33.3477C29.6967 33.3477 29.7021 33.307 29.5582 33.2961C29.4388 33.288 29.3357 33.3477 29.1945 33.3477C29.0425 33.3477 28.9014 33.2473 28.782 33.212C28.6164 33.1604 28.4617 33.2636 28.3178 33.2527C28.0192 33.2337 28.0111 33.1577 27.7641 33.2174C27.5062 33.2798 27.3868 33.3477 27.186 33.3477C27.0095 33.3477 26.6702 33.2038 26.5101 33.2038C26.3011 33.2038 26.1491 33.25 26.0568 33.25C25.8532 33.25 25.438 33.079 25.2914 33.0926C24.8951 33.0926 24.811 33.3504 24.2952 33.345C24.1324 33.3423 23.9695 33.326 23.8148 33.288L23.8175 33.2853Z" fill="#DBE9F0"/>
    <path d="M16.5168 33.2853C16.3512 33.2446 16.1965 33.2853 16.0309 33.3097C15.9115 33.326 15.7812 33.2717 15.659 33.2717C15.4962 33.2717 15.4528 33.3504 15.3496 33.3423V32.2593C15.5939 32.2593 15.868 32.4004 16.0092 32.4167C16.1938 32.4357 16.3756 32.3543 16.5195 32.395C16.685 32.4466 16.8398 32.4737 16.9836 32.4846C17.2062 32.5008 17.1438 32.3977 17.331 32.357C17.4206 32.3353 17.5319 32.4058 17.7572 32.3163C17.844 32.281 18.0313 32.3244 18.1263 32.3054C18.2675 32.2783 18.4113 32.2593 18.5769 32.2593C18.6665 32.2593 18.7886 32.2837 18.927 32.3136C19.0926 32.3543 19.5133 32.2729 19.6708 32.3136C19.8309 32.357 20.067 32.4846 20.1919 32.4167C20.3629 32.4167 20.6642 32.262 21.0035 32.2674C21.1663 32.2701 21.3292 32.2864 21.4839 32.3244C21.6359 32.3597 21.7852 32.357 21.9372 32.338L22.2412 32.2918C22.3796 32.2701 22.5153 32.2538 22.6538 32.2647V33.3477C22.3959 33.3477 22.4013 33.307 22.2575 33.2961C22.138 33.288 22.0349 33.3477 21.8938 33.3477C21.7418 33.3477 21.6006 33.2473 21.4812 33.212C21.3156 33.1604 21.1609 33.2636 21.017 33.2527C20.7185 33.2337 20.7103 33.1577 20.4633 33.2174C20.2055 33.2798 20.086 33.3477 19.8852 33.3477C19.7088 33.3477 19.3695 33.2038 19.2093 33.2038C19.0003 33.2038 18.8483 33.25 18.756 33.25C18.5525 33.25 18.1372 33.079 17.9906 33.0926C17.5943 33.0926 17.5102 33.3504 16.9945 33.345C16.8316 33.3423 16.6688 33.326 16.514 33.288L16.5168 33.2853Z" fill="#DBE9F0"/>
    <path d="M9.21499 33.2853C9.04942 33.2446 8.89471 33.2853 8.72914 33.3097C8.60971 33.326 8.47942 33.2717 8.35728 33.2717C8.19442 33.2717 8.15099 33.3504 8.04785 33.3423V32.2593C8.29214 32.2593 8.56628 32.4004 8.70742 32.4167C8.89199 32.4357 9.07385 32.3543 9.21771 32.395C9.38328 32.4466 9.53799 32.4737 9.68185 32.4846C9.90442 32.5008 9.84199 32.3977 10.0293 32.357C10.1189 32.3353 10.2301 32.4058 10.4554 32.3163C10.5423 32.281 10.7296 32.3244 10.8246 32.3054C10.9657 32.2783 11.1096 32.2593 11.2751 32.2593C11.3647 32.2593 11.4869 32.2837 11.6253 32.3136C11.7909 32.3543 12.2116 32.2729 12.369 32.3136C12.5291 32.357 12.7653 32.4846 12.8901 32.4167C13.0611 32.4167 13.3624 32.262 13.7017 32.2674C13.8646 32.2701 14.0274 32.2864 14.1821 32.3244C14.3341 32.3597 14.4834 32.357 14.6354 32.338L14.9394 32.2918C15.0779 32.2701 15.2136 32.2538 15.352 32.2647V33.3477C15.0941 33.3477 15.0996 33.307 14.9557 33.2961C14.8363 33.288 14.7331 33.3477 14.592 33.3477C14.44 33.3477 14.2989 33.2473 14.1794 33.212C14.0139 33.1604 13.8591 33.2636 13.7153 33.2527C13.4167 33.2337 13.4086 33.1577 13.1616 33.2174C12.9037 33.2798 12.7843 33.3477 12.5834 33.3477C12.407 33.3477 12.0677 33.2038 11.9076 33.2038C11.6986 33.2038 11.5466 33.25 11.4543 33.25C11.2507 33.25 10.8354 33.079 10.6889 33.0926C10.2926 33.0926 10.2084 33.3504 9.69271 33.345C9.52985 33.3423 9.36699 33.326 9.21228 33.288L9.21499 33.2853Z" fill="#DBE9F0"/>
    <path d="M1.74021 32.8429C1.59093 32.7126 1.42535 32.6447 1.25707 32.5389C1.14307 32.4547 1.05893 32.319 0.969355 32.2105C0.839069 32.072 0.749498 32.0802 0.681641 31.977L1.55021 31.3283C1.65878 31.4885 1.72935 31.7409 1.8135 31.8386C1.9275 31.9553 2.10121 31.977 2.18807 32.072C2.2885 32.186 2.39978 32.2729 2.5165 32.3245C2.69564 32.4086 2.67935 32.2892 2.8395 32.2892C2.91278 32.2892 3.00236 32.3733 3.19507 32.3055C3.26836 32.2729 3.41493 32.3272 3.5235 32.3055C3.66464 32.2783 3.8085 32.2593 3.97407 32.2593C4.06364 32.2593 4.18578 32.2837 4.32421 32.3136C4.48978 32.3543 4.9105 32.2729 5.06793 32.3136C5.22807 32.357 5.46421 32.4846 5.58907 32.4167C5.76007 32.4167 6.06136 32.262 6.40064 32.2675C6.5635 32.2702 6.72636 32.2865 6.88107 32.3245C7.03307 32.3597 7.18236 32.357 7.33436 32.338L7.63836 32.2919C7.77678 32.2702 7.9125 32.2539 8.05093 32.2647V33.3477C7.79307 33.3477 7.7985 33.307 7.65464 33.2962C7.53521 33.288 7.43207 33.3477 7.29093 33.3477C7.13893 33.3477 6.99778 33.2473 6.87836 33.212C6.71278 33.1605 6.55807 33.2636 6.41421 33.2527C6.11564 33.2337 6.1075 33.1577 5.8605 33.2175C5.60264 33.2799 5.48321 33.3477 5.28235 33.3477C5.10593 33.3477 4.76664 33.2039 4.6065 33.2039C4.3975 33.2039 4.2455 33.25 4.15321 33.25C3.94964 33.25 3.53435 33.079 3.38778 33.0926C3.17064 33.0845 3.03493 33.1415 2.87207 33.1767C2.79064 33.1985 2.70107 33.2147 2.59793 33.2093C2.49478 33.2093 2.36993 33.193 2.22878 33.136C2.04421 33.0709 1.87864 32.9677 1.7375 32.8456H1.74021V32.8429Z" fill="#DBE9F0"/>
    <path d="M0.0624286 25.6446C0.103143 25.479 0.0624286 25.3243 0.038 25.1587C0.0217143 25.0393 0.076 24.909 0.076 24.7868C0.076 24.624 -0.00271429 24.5806 0.00542857 24.4774H1.08843C1.08843 24.7217 0.947286 24.9958 0.931 25.137C0.912 25.3216 0.993429 25.5034 0.952714 25.6473C0.901143 25.8128 0.874 25.9676 0.863143 26.1114C0.846857 26.334 0.95 26.2716 0.990714 26.4588C1.01243 26.5484 0.941857 26.6597 1.03143 26.885C1.06671 26.9718 1.02329 27.1591 1.04229 27.2541C1.06943 27.3953 1.08843 27.5391 1.08843 27.7047C1.08843 27.7943 1.064 27.9164 1.03414 28.0548C0.993429 28.2204 1.07486 28.6411 1.03414 28.7986C0.990714 28.9587 0.863143 29.1948 0.931 29.3197C0.931 29.4066 0.969 29.5233 1.007 29.6644C1.045 29.8028 1.08029 29.9766 1.08843 30.1014C1.08843 30.1693 1.08843 30.2344 1.09386 30.2996L1.08843 30.5004C1.08029 30.6307 1.12643 30.7528 1.18886 30.8641C1.235 30.9374 1.28929 31.0026 1.33814 31.0731C1.41686 31.1573 1.482 31.2468 1.54443 31.3391L0.675857 31.9878C0.491286 31.7408 0.545571 31.7137 0.464143 31.5698C0.409857 31.4423 0.295857 31.3608 0.236143 31.2034C0.206286 31.1193 0.198143 31.0297 0.200857 30.9428C0.209 30.856 0.222571 30.7746 0.222571 30.704C0.222571 30.6063 0.200857 30.5194 0.168286 30.4353C0.135714 30.3511 0.103143 30.267 0.105857 30.1828C0.105857 30.0064 0.127571 29.9223 0.141143 29.8571C0.154714 29.7866 0.160143 29.7241 0.130286 29.5993C0.0678571 29.3414 0 29.222 0 29.0211C0 28.8447 0.143857 28.5054 0.143857 28.3453C0.143857 28.1363 0.0977143 27.9843 0.0977143 27.892C0.0977143 27.6884 0.268714 27.2731 0.255143 27.1266C0.255143 26.7303 -0.00271429 26.6461 0.00271429 26.1304C0.00542857 25.9676 0.0217143 25.8047 0.0597143 25.65L0.0624286 25.6446Z" fill="#DBE9F0"/>
    <path d="M0.0624286 18.3432C0.103143 18.1776 0.0624286 18.0229 0.038 17.8573C0.0217143 17.7379 0.076 17.6076 0.076 17.4855C0.076 17.3226 -0.00271429 17.2792 0.00542857 17.176H1.08843C1.08843 17.4203 0.947286 17.6945 0.931 17.8356C0.912 18.0202 0.993429 18.202 0.952714 18.3459C0.901143 18.5115 0.874 18.6662 0.863143 18.81C0.846857 19.0326 0.95 18.9702 0.990714 19.1575C1.01243 19.247 0.941857 19.3583 1.03143 19.5836C1.06671 19.6705 1.02329 19.8577 1.04229 19.9527C1.06943 20.0939 1.08843 20.2377 1.08843 20.4033C1.08843 20.4929 1.064 20.615 1.03414 20.7535C0.993428 20.919 1.07486 21.3397 1.03414 21.4972C0.990714 21.6573 0.863143 21.8935 0.931 22.0183C0.931 22.1893 1.08571 22.4906 1.08029 22.8299C1.07757 22.9927 1.06129 23.1556 1.02329 23.3103C0.988 23.4623 0.990714 23.6116 1.00971 23.7636L1.05586 24.0676C1.07757 24.206 1.09386 24.3417 1.083 24.4802H0C0 24.2223 0.0407143 24.2277 0.0515714 24.0839C0.0597143 23.9645 0 23.8613 0 23.7202C0 23.5682 0.100429 23.427 0.135714 23.3076C0.187286 23.142 0.0841429 22.9873 0.095 22.8435C0.114 22.5449 0.19 22.5367 0.130286 22.2897C0.0678571 22.0319 0 21.9125 0 21.7116C0 21.5352 0.143857 21.1959 0.143857 21.0357C0.143857 20.8267 0.0977143 20.6747 0.0977143 20.5825C0.0977143 20.3789 0.268714 19.9636 0.255143 19.817C0.255143 19.4207 -0.00271429 19.3366 0.00271429 18.8209C0.00542857 18.658 0.0217143 18.4952 0.0597143 18.3405L0.0624286 18.3432Z" fill="#DBE9F0"/>
    <path d="M0.0624286 11.039C0.103143 10.8734 0.0624286 10.7187 0.038 10.5531C0.0217143 10.4337 0.076 10.3034 0.076 10.1813C0.076 10.0184 -0.00271429 9.97497 0.00542857 9.87183H1.08843C1.08843 10.1161 0.947286 10.3903 0.931 10.5314C0.912 10.716 0.993429 10.8978 0.952714 11.0417C0.901143 11.2073 0.874 11.362 0.863143 11.5058C0.846857 11.7284 0.95 11.666 0.990714 11.8533C1.01243 11.9428 0.941857 12.0541 1.03143 12.2794C1.06671 12.3663 1.02329 12.5535 1.04229 12.6485C1.06943 12.7897 1.08843 12.9335 1.08843 13.0991C1.08843 13.1887 1.064 13.3108 1.03414 13.4493C0.993428 13.6148 1.07486 14.0355 1.03414 14.193C0.990714 14.3531 0.863143 14.5893 0.931 14.7141C0.931 14.8851 1.08571 15.1864 1.08029 15.5257C1.07757 15.6885 1.06129 15.8514 1.02329 16.0061C0.988 16.1581 0.990714 16.3074 1.00971 16.4594L1.05586 16.7634C1.07757 16.9018 1.09386 17.0375 1.083 17.176H0C0 16.9181 0.0407143 16.9235 0.0515714 16.7797C0.0597143 16.6603 0 16.5571 0 16.416C0 16.264 0.100429 16.1228 0.135714 16.0034C0.187286 15.8378 0.0841429 15.6831 0.095 15.5393C0.114 15.2407 0.19 15.2325 0.130286 14.9855C0.0678571 14.7277 0 14.6083 0 14.4074C0 14.231 0.143857 13.8917 0.143857 13.7315C0.143857 13.5225 0.0977143 13.3705 0.0977143 13.2783C0.0977143 13.0747 0.268714 12.6594 0.255143 12.5128C0.255143 12.1165 -0.00271429 12.0324 0.00271429 11.5167C0.00542857 11.3538 0.0217143 11.191 0.0597143 11.0363L0.0624286 11.039Z" fill="#DBE9F0"/>
    <path d="M0.0624498 3.73757C0.105878 3.56386 0.054307 3.43357 0.0461641 3.22457C0.0325927 3.08343 0.108593 2.93686 0.133021 2.79843C0.165593 2.61115 0.111307 2.54329 0.149307 2.42657L1.18616 2.736C1.13459 2.92057 0.95545 3.12415 0.939164 3.25172C0.906593 3.401 0.996164 3.60186 0.952736 3.74029C0.901164 3.90586 0.874021 4.06057 0.863164 4.20443C0.846878 4.427 0.950021 4.36457 0.990736 4.55186C1.01245 4.64143 0.941878 4.75272 1.03145 4.978C1.06674 5.06486 1.02331 5.25215 1.04231 5.34715C1.06945 5.48829 1.08845 5.63215 1.08845 5.79772C1.08845 5.88729 1.06402 6.00943 1.03416 6.14786C0.99345 6.31343 1.07488 6.73415 1.03416 6.89157C0.990736 7.05172 0.863164 7.28786 0.931021 7.41272C0.931021 7.58372 1.08574 7.885 1.08031 8.22429C1.07759 8.38715 1.06131 8.55 1.02331 8.70472C0.988021 8.85672 0.990736 9.006 1.00974 9.158L1.05588 9.462C1.07759 9.60043 1.09388 9.73615 1.08302 9.87457H2.12792e-05C2.12792e-05 9.61672 0.0407356 9.62215 0.0515927 9.47829C0.0597356 9.35886 2.12792e-05 9.25572 2.12792e-05 9.11458C2.12792e-05 8.96258 0.10045 8.82143 0.135736 8.702C0.187307 8.53643 0.0841641 8.38172 0.0950213 8.23786C0.114021 7.93929 0.190021 7.93115 0.130307 7.68415C0.0678784 7.42629 2.12792e-05 7.30686 2.12792e-05 7.106C2.12792e-05 6.92957 0.143878 6.59029 0.143878 6.43015C0.143878 6.22115 0.0977356 6.06915 0.0977356 5.97686C0.0977356 5.77329 0.268736 5.358 0.255164 5.21143C0.255164 4.81786 -0.00269301 4.731 2.12792e-05 4.218C0.00273556 4.05515 0.0190213 3.89229 0.0570213 3.73757H0.0624498Z" fill="#DBE9F0"/>
    <path d="M5.87689 0.0624233C6.04246 0.103138 6.19717 0.059709 6.36274 0.0379948C6.48217 0.021709 6.61246 0.0759948 6.7346 0.0759948C6.89746 0.0759948 6.94089 -0.00271954 7.04403 0.00542332V1.08842C6.79974 1.08842 6.5256 0.947281 6.38446 0.930995C6.19989 0.911995 6.01803 0.993423 5.87417 0.952709C5.7086 0.901138 5.55389 0.873995 5.41003 0.863138C5.18746 0.846852 5.24989 0.949995 5.0626 0.990709C4.97303 1.01242 4.86174 0.941852 4.63646 1.03142C4.5496 1.06671 4.36232 1.02328 4.26732 1.04228C4.12617 1.06942 3.98232 1.08842 3.81674 1.08842C3.72717 1.08842 3.60503 1.06399 3.4666 1.03414C3.3716 1.01242 3.26574 1.03414 3.1436 1.04771C3.02689 1.07757 2.91017 1.09928 2.84503 1.10199C2.70932 1.08571 2.47046 1.03685 2.39446 1.14542C2.25332 1.20785 2.10674 1.46028 1.89774 1.63128C1.84889 1.67471 1.7946 1.71542 1.74032 1.75342C1.68874 1.79685 1.63717 1.83485 1.57746 1.87014C1.47432 1.94614 1.39289 2.04928 1.34946 2.16871C1.31417 2.24742 1.29246 2.33157 1.27346 2.413C1.24089 2.52157 1.22732 2.63285 1.17846 2.73599L0.141602 2.42657C0.24203 2.13614 0.274602 2.15514 0.35603 2.00857C0.421173 1.88642 0.423887 1.74799 0.513459 1.60685C0.60303 1.44942 0.795744 1.37885 0.904316 1.29742C0.988459 1.24314 1.03732 1.16714 1.08617 1.09114C1.13774 1.01785 1.1866 0.941852 1.25174 0.89028C1.53403 0.686709 1.58289 0.749138 1.7946 0.553709C2.0226 0.35828 2.13389 0.241566 2.36189 0.162852C2.46232 0.132995 2.62246 0.127566 2.77446 0.132995C2.92646 0.146566 3.07032 0.154709 3.1626 0.157423C3.4096 0.141138 3.55074 0.100423 3.64303 0.100423C3.8466 0.100423 4.26189 0.271423 4.40846 0.257852C4.79932 0.255138 4.88346 -0.00271954 5.39917 0.00270904C5.56203 0.00542332 5.72489 0.021709 5.8796 0.059709L5.87689 0.0624233Z" fill="#DBE9F0"/>
    <path d="M13.178 0.0624286C13.3436 0.103143 13.4983 0.0597143 13.6639 0.038C13.7833 0.0217143 13.9136 0.076 14.0357 0.076C14.1986 0.076 14.242 -0.00271429 14.3452 0.00542857V1.08843C14.1009 1.08843 13.8267 0.947286 13.6856 0.931C13.501 0.912 13.3192 0.993429 13.1753 0.952714C13.0097 0.901143 12.855 0.874 12.7112 0.863143C12.4886 0.846857 12.551 0.95 12.3637 0.990714C12.2742 1.01243 12.1629 0.941857 11.9376 1.03143C11.8507 1.06671 11.6634 1.02329 11.5684 1.04229C11.4273 1.06943 11.2834 1.08843 11.1179 1.08843C11.0283 1.08843 10.9062 1.064 10.7677 1.03414C10.6022 0.993428 10.1814 1.07486 10.024 1.03414C9.86387 0.990714 9.62773 0.863143 9.50287 0.931C9.33187 0.931 9.03059 1.08571 8.6913 1.08029C8.52844 1.07757 8.36559 1.06129 8.21087 1.02329C8.05887 0.988 7.90959 0.990714 7.75759 1.00971L7.45359 1.05586C7.31516 1.07757 7.17944 1.09386 7.04102 1.083V0C7.29887 0 7.29344 0.0407143 7.4373 0.0515714C7.55673 0.0597143 7.65987 0 7.80102 0C7.95302 0 8.09416 0.100429 8.21359 0.135714C8.37916 0.187286 8.53387 0.0841429 8.67773 0.095C8.9763 0.114 8.98444 0.19 9.23144 0.130286C9.4893 0.0678571 9.60873 0 9.80959 0C9.98602 0 10.3253 0.143857 10.4854 0.143857C10.6944 0.143857 10.8464 0.0977143 10.9387 0.0977143C11.1423 0.0977143 11.5576 0.268714 11.7042 0.255143C12.1004 0.255143 12.1846 -0.00271429 12.7003 0.00271429C12.8632 0.00542857 13.026 0.0217143 13.1807 0.0597143L13.178 0.0624286Z" fill="#DBE9F0"/>
    <path d="M20.4817 0.0624286C20.6473 0.103143 20.802 0.0597143 20.9676 0.038C21.087 0.0217143 21.2173 0.076 21.3394 0.076C21.5023 0.076 21.5457 -0.00271429 21.6489 0.00542857V1.08843C21.4046 1.08843 21.1304 0.947286 20.9893 0.931C20.8047 0.912 20.6229 0.993429 20.479 0.952714C20.3134 0.901143 20.1587 0.874 20.0149 0.863143C19.7923 0.846857 19.8547 0.95 19.6674 0.990714C19.5779 1.01243 19.4666 0.941857 19.2413 1.03143C19.1544 1.06671 18.9672 1.02329 18.8722 1.04229C18.731 1.06943 18.5872 1.08843 18.4216 1.08843C18.332 1.08843 18.2099 1.064 18.0714 1.03414C17.9059 0.993428 17.4852 1.07486 17.3277 1.03414C17.1676 0.990714 16.9314 0.863143 16.8066 0.931C16.6356 0.931 16.3343 1.08571 15.995 1.08029C15.8322 1.07757 15.6693 1.06129 15.5146 1.02329C15.3626 0.988 15.2133 0.990714 15.0613 1.00971L14.7573 1.05586C14.6189 1.07757 14.4832 1.09386 14.3447 1.083V0C14.6026 0 14.5972 0.0407143 14.741 0.0515714C14.8604 0.0597143 14.9636 0 15.1047 0C15.2567 0 15.3979 0.100429 15.5173 0.135714C15.6829 0.187286 15.8376 0.0841429 15.9814 0.095C16.28 0.114 16.2882 0.19 16.5352 0.130286C16.793 0.0678571 16.9124 0 17.1133 0C17.2897 0 17.629 0.143857 17.7892 0.143857C17.9982 0.143857 18.1502 0.0977143 18.2424 0.0977143C18.446 0.0977143 18.8613 0.268714 19.0079 0.255143C19.4042 0.255143 19.4883 -0.00271429 20.004 0.00271429C20.1669 0.00542857 20.3297 0.0217143 20.4844 0.0597143L20.4817 0.0624286Z" fill="#DBE9F0"/>
    <path d="M27.7835 0.0624286C27.9491 0.103143 28.1038 0.0597143 28.2693 0.038C28.3888 0.0217143 28.5191 0.076 28.6412 0.076C28.8041 0.076 28.8475 -0.00271429 28.9506 0.00542857V1.08843C28.7063 1.08843 28.4322 0.947286 28.2911 0.931C28.1065 0.912 27.9246 0.993429 27.7808 0.952714C27.6152 0.901143 27.4605 0.874 27.3166 0.863143C27.0941 0.846857 27.1565 0.95 26.9692 0.990714C26.8796 1.01243 26.7683 0.941857 26.5431 1.03143C26.4562 1.06671 26.2689 1.02329 26.1739 1.04229C26.0328 1.06943 25.8889 1.08843 25.7233 1.08843C25.6338 1.08843 25.5116 1.064 25.3732 1.03414C25.2076 0.993428 24.7869 1.07486 24.6295 1.03414C24.4693 0.990714 24.2332 0.863143 24.1083 0.931C23.9373 0.931 23.6361 1.08571 23.2968 1.08029C23.1339 1.07757 22.9711 1.06129 22.8163 1.02329C22.6643 0.988 22.5151 0.990714 22.3631 1.00971L22.0591 1.05586C21.9206 1.07757 21.7849 1.09386 21.6465 1.083V0C21.9043 0 21.8989 0.0407143 22.0428 0.0515714C22.1622 0.0597143 22.2653 0 22.4065 0C22.5585 0 22.6996 0.100429 22.8191 0.135714C22.9846 0.187286 23.1393 0.0841429 23.2832 0.095C23.5818 0.114 23.5899 0.19 23.8369 0.130286C24.0948 0.0678571 24.2142 0 24.4151 0C24.5915 0 24.9308 0.143857 25.0909 0.143857C25.2999 0.143857 25.4519 0.0977143 25.5442 0.0977143C25.7478 0.0977143 26.1631 0.268714 26.3096 0.255143C26.7059 0.255143 26.7901 -0.00271429 27.3058 0.00271429C27.4686 0.00542857 27.6315 0.0217143 27.7862 0.0597143L27.7835 0.0624286Z" fill="#DBE9F0"/>
    <path d="M33.2851 4.05243C33.2444 4.218 33.2851 4.37271 33.3096 4.53829C33.3258 4.65771 33.2716 4.788 33.2716 4.91014C33.2716 5.073 33.3503 5.11643 33.3421 5.21957H32.2591C32.2591 4.97529 32.4003 4.70114 32.4166 4.56C32.4356 4.37543 32.3541 4.19357 32.3948 4.04971C32.4464 3.88414 32.4736 3.72943 32.4844 3.58557C32.5007 3.363 32.3976 3.41729 32.3487 3.26257C32.327 3.192 32.384 3.08343 32.2673 2.91514C32.2103 2.85543 32.2266 2.69257 32.1723 2.62471C32.1126 2.52429 32.0447 2.42657 31.985 2.30714C31.947 2.24743 31.9226 2.14429 31.8791 2.03571C31.8357 1.88914 31.5371 1.69371 31.4638 1.58243C31.4258 1.52271 31.3851 1.44129 31.3363 1.368C31.2847 1.30014 31.2223 1.24857 31.1598 1.24857C31.0241 1.17529 30.7364 1.19971 30.4758 1.14271C30.3456 1.11286 30.2207 1.07214 30.0931 1.03143C29.9791 0.988 29.819 0.990714 29.6697 1.00971L29.3657 1.05586C29.2273 1.07757 29.0916 1.09386 28.9531 1.083V0C29.211 0 29.2056 0.0407143 29.3494 0.0515714C29.4688 0.0597143 29.572 0 29.7131 0C29.7891 0 29.8624 0.0244286 29.9303 0.0542857C30.0036 0.0841429 30.0823 0.124857 30.1474 0.143857C30.2397 0.171 30.332 0.168286 30.4216 0.165571C30.5111 0.165571 30.6034 0.146571 30.6821 0.176429C31.016 0.279571 30.9916 0.361 31.2766 0.409857C31.5697 0.477714 31.7298 0.496714 31.9253 0.632429C32.1071 0.751857 32.2998 1.12914 32.4084 1.26757C32.5631 1.44943 32.6988 1.56614 32.7531 1.65843C32.8183 1.75614 32.8644 1.938 32.8943 2.10357C32.9187 2.27457 32.935 2.42929 32.9621 2.50529C32.9893 2.61114 33.0273 2.69257 33.068 2.76586C33.1033 2.83914 33.1467 2.907 33.1901 2.97757C33.2363 3.05086 33.2688 3.12957 33.2987 3.23C33.3123 3.27886 33.3258 3.33586 33.334 3.39557C33.3394 3.44714 33.3448 3.50414 33.3421 3.56929C33.3421 3.73214 33.3231 3.895 33.2851 4.04971V4.05243Z" fill="#DBE9F0"/>
    <path d="M33.2858 11.3539C33.2451 11.5194 33.2858 11.6741 33.3102 11.8397C33.3265 11.9591 33.2722 12.0894 33.2722 12.2116C33.2722 12.3744 33.3509 12.4179 33.3428 12.521H32.2598C32.2598 12.2767 32.4009 12.0026 32.4172 11.8614C32.4362 11.6769 32.3548 11.495 32.3955 11.3511C32.4471 11.1856 32.4742 11.0309 32.4851 10.887C32.5013 10.6644 32.3982 10.7269 32.3575 10.5396C32.3358 10.45 32.4063 10.3387 32.3168 10.1134C32.2815 10.0266 32.3249 9.83929 32.3059 9.74429C32.2788 9.60314 32.2598 9.45929 32.2598 9.29372C32.2598 9.20414 32.2842 9.082 32.3141 8.94357C32.3548 8.778 32.2733 8.35729 32.3141 8.19986C32.3575 8.03971 32.4851 7.80357 32.4172 7.67872C32.4172 7.50772 32.2625 7.20643 32.2679 6.86714C32.2706 6.70429 32.2869 6.54143 32.3249 6.38672C32.3602 6.23472 32.3575 6.08543 32.3385 5.93343L32.2923 5.62943C32.2706 5.491 32.2543 5.35529 32.2652 5.21686H33.3482C33.3482 5.47472 33.3075 5.46929 33.2966 5.61314C33.2885 5.73257 33.3482 5.83572 33.3482 5.97686C33.3482 6.12886 33.2478 6.27 33.2125 6.38943C33.1609 6.555 33.2641 6.70972 33.2532 6.85357C33.2342 7.15214 33.1582 7.16029 33.2179 7.40729C33.2803 7.66514 33.3482 7.78457 33.3482 7.98543C33.3482 8.16186 33.2043 8.50114 33.2043 8.66129C33.2043 8.87029 33.2505 9.02229 33.2505 9.11457C33.2505 9.31814 33.0795 9.73343 33.0931 9.88C33.0931 10.2763 33.3509 10.3604 33.3455 10.8761C33.3455 11.039 33.3265 11.2019 33.2885 11.3566L33.2858 11.3539Z" fill="#DBE9F0"/>
    <path d="M33.2858 18.6553C33.2451 18.8209 33.2858 18.9756 33.3102 19.1412C33.3265 19.2606 33.2722 19.3909 33.2722 19.513C33.2722 19.6759 33.3509 19.7193 33.3428 19.8225H32.2598C32.2598 19.5782 32.4009 19.304 32.4172 19.1629C32.4362 18.9783 32.3548 18.7965 32.3955 18.6526C32.4471 18.487 32.4742 18.3323 32.4851 18.1885C32.5013 17.9659 32.3982 18.0283 32.3575 17.841C32.3358 17.7515 32.4063 17.6402 32.3168 17.4149C32.2815 17.328 32.3249 17.1407 32.3059 17.0457C32.2788 16.9046 32.2598 16.7607 32.2598 16.5952C32.2598 16.5056 32.2842 16.3835 32.3141 16.245C32.3548 16.0795 32.2733 15.6587 32.3141 15.5013C32.3575 15.3412 32.4851 15.105 32.4172 14.9802C32.4172 14.8092 32.2625 14.5079 32.2679 14.1686C32.2706 14.0057 32.2869 13.8429 32.3249 13.6882C32.3602 13.5362 32.3575 13.3869 32.3385 13.2349L32.2923 12.9309C32.2706 12.7925 32.2543 12.6567 32.2652 12.5183H33.3482C33.3482 12.7762 33.3075 12.7707 33.2966 12.9146C33.2885 13.034 33.3482 13.1372 33.3482 13.2783C33.3482 13.4303 33.2478 13.5715 33.2125 13.6909C33.1609 13.8565 33.2641 14.0112 33.2532 14.155C33.2342 14.4536 33.1582 14.4617 33.2179 14.7087C33.2803 14.9666 33.3482 15.086 33.3482 15.2869C33.3482 15.4633 33.2043 15.8026 33.2043 15.9627C33.2043 16.1717 33.2505 16.3237 33.2505 16.416C33.2505 16.6196 33.0795 17.0349 33.0931 17.1815C33.0931 17.5777 33.3509 17.6619 33.3455 18.1776C33.3455 18.3405 33.3265 18.5033 33.2885 18.658L33.2858 18.6553Z" fill="#DBE9F0"/>
    <path d="M33.2858 25.9567C33.2451 26.1223 33.2858 26.277 33.3102 26.4426C33.3265 26.562 33.2722 26.6923 33.2722 26.8144C33.2722 26.9773 33.3509 27.0207 33.3428 27.1238H32.2598C32.2598 26.8796 32.4009 26.6054 32.4172 26.4643C32.4362 26.2797 32.3548 26.0978 32.3955 25.954C32.4471 25.7884 32.4742 25.6337 32.4851 25.4898C32.5013 25.2673 32.3982 25.3297 32.3575 25.1424C32.3358 25.0528 32.4063 24.9416 32.3168 24.7163C32.2815 24.6294 32.3249 24.4421 32.3059 24.3471C32.2788 24.206 32.2598 24.0621 32.2598 23.8966C32.2598 23.807 32.2842 23.6848 32.3141 23.5464C32.3548 23.3808 32.2733 22.9601 32.3141 22.8027C32.3575 22.6426 32.4851 22.4064 32.4172 22.2816C32.4172 22.1106 32.2625 21.8093 32.2679 21.47C32.2706 21.3071 32.2869 21.1443 32.3249 20.9896C32.3602 20.8376 32.3575 20.6883 32.3385 20.5363L32.2923 20.2323C32.2706 20.0938 32.2543 19.9581 32.2652 19.8197H33.3482C33.3482 20.0776 33.3075 20.0721 33.2966 20.216C33.2885 20.3354 33.3482 20.4386 33.3482 20.5797C33.3482 20.7317 33.2478 20.8728 33.2125 20.9923C33.1609 21.1578 33.2641 21.3126 33.2532 21.4564C33.2342 21.755 33.1582 21.7631 33.2179 22.0101C33.2803 22.268 33.3482 22.3874 33.3482 22.5883C33.3482 22.7647 33.2043 23.104 33.2043 23.2641C33.2043 23.4731 33.2505 23.6251 33.2505 23.7174C33.2505 23.921 33.0795 24.3363 33.0931 24.4828C33.0931 24.8791 33.3509 24.9633 33.3455 25.479C33.3455 25.6418 33.3265 25.8047 33.2885 25.9594L33.2858 25.9567Z" fill="#DBE9F0"/>
    <path d="M31.2824 33.0084C31.0869 33.0437 30.9349 33.1468 30.7476 33.212C30.6174 33.269 30.4518 33.2283 30.3134 33.2527C30.1234 33.2663 30.0772 33.345 29.9551 33.3423V32.2593C30.1478 32.2538 30.3948 32.3678 30.5197 32.3488C30.6825 32.3326 30.8019 32.1996 30.9295 32.1914C31.0028 32.1833 31.0761 32.1724 31.1439 32.1561C31.2091 32.1344 31.2715 32.1073 31.3285 32.0774C31.5022 31.9797 31.3964 31.9227 31.4941 31.7978C31.5294 31.73 31.6624 31.7246 31.7194 31.5183C31.7465 31.4477 31.8659 31.3446 31.9012 31.274C31.9392 31.16 31.9881 31.0541 32.0396 30.932C32.0749 30.8696 32.1292 30.7854 32.1971 30.6877C32.2812 30.5656 32.2758 30.21 32.3084 30.0851C32.3626 29.9684 32.4848 29.7106 32.4196 29.5911C32.4196 29.4201 32.2649 29.1188 32.2704 28.7796C32.2731 28.6167 32.2894 28.4538 32.3274 28.2991C32.3626 28.1471 32.3599 27.9978 32.3409 27.8458L32.2948 27.5418C32.2731 27.4034 32.2568 27.2677 32.2676 27.1293H33.3506C33.3506 27.3871 33.3099 27.3817 33.2991 27.5256C33.2909 27.645 33.3506 27.7481 33.3506 27.8893C33.3506 28.0413 33.2502 28.1824 33.2149 28.3018C33.1634 28.4674 33.2665 28.6221 33.2556 28.766C33.2366 29.0646 33.1606 29.0727 33.2204 29.3197C33.2828 29.5776 33.3506 29.697 33.3506 29.8978C33.3506 29.982 33.3045 30.1503 33.2611 30.2887C33.2041 30.4326 33.1498 30.5656 33.1281 30.6524C33.0765 30.8858 33.0602 31.0623 33.0195 31.1627C32.9354 31.3934 32.5581 31.7164 32.4631 31.8358C32.4006 31.9254 32.3572 32.0014 32.3192 32.0747C32.2812 32.148 32.2622 32.2294 32.2242 32.3027C32.1889 32.3787 32.1482 32.4574 32.0885 32.5443C32.0206 32.623 31.9365 32.7126 31.8089 32.794C31.7248 32.8428 31.6406 32.8917 31.5538 32.9297C31.4642 32.9623 31.3746 32.9921 31.2824 33.0138V33.0084Z" fill="#DBE9F0"/>
    <path d="M9.2555 3.43629C9.25007 3.39286 9.24464 3.35486 9.23378 3.31957C9.21207 3.25172 9.1795 3.19743 9.14964 3.154C9.08178 3.06714 9.01393 3.002 8.90807 2.907C8.86736 2.87443 8.79679 2.79572 8.69636 2.73872C8.60136 2.679 8.47107 2.64643 8.39779 2.64914C8.37064 2.64914 8.33264 2.65457 8.2865 2.66C8.25936 2.66 8.23221 2.66543 8.19964 2.67086C8.16436 2.67086 8.12636 2.68172 8.08836 2.68986C8.02864 2.70343 7.92821 2.717 7.8305 2.75772C7.73278 2.79572 7.6405 2.86086 7.59436 2.91786C7.49393 3.05086 7.46678 3.16486 7.46407 3.37114C7.4695 3.47429 7.47221 3.50143 7.46407 3.54757C7.46407 3.56929 7.45593 3.58557 7.45321 3.62357C7.4505 3.65886 7.45321 3.705 7.45864 3.76472C7.48036 3.88414 7.56993 3.97643 7.62964 4.09043C7.67307 4.17186 7.73278 4.28857 7.84678 4.34829C7.95264 4.40529 8.04764 4.40257 8.14264 4.41886C8.19964 4.427 8.23493 4.43243 8.26207 4.43786C8.29193 4.44329 8.32993 4.44871 8.40593 4.44871C8.49278 4.44329 8.52807 4.41343 8.65564 4.37543C8.74793 4.34829 8.8565 4.31572 8.92979 4.24514C9.03021 4.14743 9.08721 4.03886 9.1605 3.92214C9.19307 3.86514 9.2175 3.80543 9.23378 3.73757C9.25007 3.67514 9.25278 3.59372 9.25278 3.553C9.25278 3.51229 9.25278 3.48243 9.24736 3.44443L9.2555 3.43629Z" fill="#4F8199"/>
    <path d="M6.72793 3.31957C6.70621 3.25172 6.67364 3.19743 6.64378 3.154C6.57593 3.06714 6.50807 3.002 6.40221 2.907C6.3615 2.87443 6.29093 2.79572 6.1905 2.73872C6.0955 2.679 5.96521 2.64643 5.89193 2.64914C5.86478 2.64914 5.82678 2.65457 5.78064 2.66C5.7535 2.66 5.72364 2.66543 5.69378 2.67086C5.6585 2.67086 5.6205 2.68172 5.5825 2.68986C5.52278 2.70343 5.42235 2.717 5.32464 2.75772C5.22693 2.79572 5.13464 2.86086 5.0885 2.91786C4.98807 3.05086 4.96093 3.16486 4.95821 3.37114C4.96364 3.47429 4.96635 3.50143 4.95821 3.54757C4.95821 3.56929 4.95007 3.58557 4.94735 3.62357C4.94464 3.65886 4.94735 3.705 4.95278 3.76472C4.9745 3.88414 5.06407 3.97643 5.12378 4.09043C5.16721 4.17186 5.22693 4.28857 5.34093 4.34829C5.44678 4.40529 5.54178 4.40257 5.63678 4.41886C5.69378 4.427 5.72907 4.43243 5.75621 4.43786C5.78607 4.44329 5.82407 4.44871 5.90278 4.44871C5.98964 4.44329 6.02493 4.41343 6.1525 4.37543C6.24478 4.34829 6.35335 4.31572 6.42664 4.24514C6.52707 4.14743 6.58407 4.03886 6.65735 3.92214C6.68993 3.86514 6.71435 3.80543 6.73064 3.73757C6.74693 3.67514 6.74964 3.59372 6.74964 3.553C6.74964 3.51229 6.74964 3.48243 6.74421 3.44443C6.73878 3.401 6.73335 3.363 6.7225 3.32772L6.72793 3.31957Z" fill="#4F8199"/>
    <path d="M4.22304 3.31957C4.20133 3.25172 4.16876 3.19743 4.1389 3.154C4.07104 3.06714 4.00319 3.002 3.89733 2.907C3.85661 2.87443 3.78604 2.79572 3.68561 2.73872C3.59061 2.679 3.46033 2.64643 3.38704 2.64914C3.3599 2.64914 3.3219 2.65457 3.27576 2.66C3.24861 2.66 3.21876 2.66543 3.1889 2.67086C3.15361 2.67086 3.11561 2.68172 3.07761 2.68986C3.0179 2.70343 2.91747 2.717 2.81976 2.75772C2.72204 2.79572 2.62976 2.86086 2.58361 2.91786C2.48319 3.05086 2.45604 3.16486 2.45333 3.37114C2.45876 3.47429 2.46147 3.50143 2.45333 3.54757C2.45333 3.56929 2.44519 3.58557 2.44247 3.62357C2.43976 3.65886 2.44247 3.705 2.4479 3.76472C2.46961 3.88414 2.55919 3.97643 2.6189 4.09043C2.66233 4.17186 2.72204 4.28857 2.83604 4.34829C2.9419 4.40529 3.0369 4.40257 3.1319 4.41886C3.1889 4.427 3.22419 4.43243 3.25133 4.43786C3.28119 4.44329 3.31919 4.44871 3.3979 4.44871C3.48476 4.44329 3.52004 4.41343 3.64761 4.37543C3.7399 4.34829 3.84847 4.31572 3.92176 4.24514C4.02219 4.14743 4.07919 4.03886 4.15247 3.92214C4.18504 3.86514 4.20947 3.80543 4.22576 3.73757C4.24204 3.67514 4.24476 3.59372 4.24476 3.553C4.24476 3.51229 4.24476 3.48243 4.23933 3.44443C4.2339 3.401 4.22847 3.363 4.21761 3.32772L4.22304 3.31957Z" fill="#4F8199"/>
    <path d="M11.1394 21.47C14.6277 21.47 17.4555 18.6422 17.4555 15.1539C17.4555 11.6655 14.6277 8.83771 11.1394 8.83771C7.65108 8.83771 4.82324 11.6655 4.82324 15.1539C4.82324 18.6422 7.65108 21.47 11.1394 21.47Z" fill="white"/>
    <path d="M14.4863 21.0656C14.3017 21.1362 14.1551 21.2366 13.9896 21.3452C13.9299 21.3832 13.8593 21.4049 13.7887 21.4266C13.7154 21.4429 13.6394 21.4537 13.5743 21.4782C13.3951 21.5433 13.3734 21.6356 13.2567 21.6682L12.9229 20.6394C13.1481 20.5526 13.463 20.6014 13.596 20.5444C13.7724 20.4739 13.9081 20.3382 14.0493 20.2893C14.2203 20.2459 14.3696 20.1889 14.5026 20.1156C14.6953 19.9907 14.5867 19.9446 14.7116 19.8007C14.7686 19.7302 14.9097 19.7193 15.0156 19.4967C15.0536 19.4126 15.2273 19.3203 15.2789 19.2389C15.3521 19.1167 15.4363 18.9973 15.5449 18.8752C15.6073 18.8127 15.6914 18.7232 15.8 18.6336C15.8624 18.5766 15.9547 18.4599 16.0171 18.3269C16.085 18.1966 16.1501 18.069 16.2071 18.012C16.332 17.898 16.5383 17.7324 16.5356 17.5886C16.579 17.5099 16.5871 17.385 16.598 17.2384C16.6061 17.0919 16.6414 16.9344 16.6794 16.7716C16.7229 16.6142 16.7799 16.4649 16.8531 16.3183C16.9101 16.1744 16.9291 16.0224 16.9346 15.8704C16.94 15.7673 16.9264 15.6642 16.9156 15.5637C16.8993 15.4253 16.8911 15.2896 16.9101 15.1539H17.9931C17.9796 15.4579 17.9389 15.4497 17.9199 15.6153C17.9063 15.7537 17.9606 15.8813 17.9307 16.0442C17.9036 16.2206 17.7787 16.3699 17.7244 16.4974C17.6294 16.6739 17.6837 16.8693 17.6294 17.0294C17.5181 17.3606 17.4259 17.3362 17.3879 17.6266C17.3444 17.9306 17.3254 18.0799 17.2277 18.297C17.1409 18.4924 16.7961 18.7476 16.7066 18.905C16.5627 19.1004 16.4949 19.266 16.4297 19.3529C16.3646 19.4533 16.2044 19.5537 16.0606 19.6514C15.9167 19.7492 15.7837 19.8414 15.724 19.8957C15.5584 20.0477 15.5014 20.1862 15.4254 20.3409C15.3413 20.4847 15.2381 20.6422 14.9939 20.8213C14.831 20.9244 14.6573 21.0059 14.4809 21.0683L14.4863 21.0656Z" fill="white"/>
    <path d="M6.55287 20.1617C6.49587 20.0803 6.4253 20.0178 6.3493 19.9608C6.27873 19.9011 6.20544 19.8387 6.12944 19.7763C6.0263 19.684 5.95844 19.5374 5.86887 19.4261C5.75487 19.2741 5.65987 19.2795 5.59473 19.1791L6.47144 18.5413C6.54473 18.639 6.59087 18.7638 6.6343 18.8805C6.68587 18.9918 6.72658 19.095 6.7673 19.1547C6.8243 19.2307 6.89758 19.2904 6.96816 19.3447C7.04144 19.3935 7.1093 19.4424 7.15001 19.5075C7.23958 19.6595 7.3373 19.7898 7.45401 19.8848C7.62773 20.0368 7.63858 19.9147 7.8123 19.9934C7.89373 20.0287 7.96158 20.1427 8.19773 20.1834C8.24387 20.1915 8.30087 20.2268 8.35787 20.2675C8.41758 20.3001 8.48001 20.3381 8.52616 20.349C8.66458 20.3815 8.8003 20.4385 8.9523 20.4955C9.03644 20.5254 9.1423 20.5905 9.26173 20.6665C9.3323 20.7208 9.47616 20.7507 9.62273 20.7751C9.76658 20.7995 9.90773 20.8294 9.9783 20.8647C10.1276 20.9298 10.3474 21.0927 10.4832 21.0465C10.57 21.0601 10.6949 21.0194 10.836 20.9923C10.9772 20.9597 11.1373 20.9407 11.3056 20.9244C11.4684 20.9163 11.6313 20.9353 11.7887 20.9515C11.9434 20.9624 12.0927 20.938 12.2393 20.8973C12.337 20.8701 12.432 20.8185 12.527 20.7833C12.6546 20.7235 12.7849 20.6855 12.9152 20.6475L13.249 21.6763C12.9586 21.7685 12.9504 21.717 12.7876 21.7523C12.6519 21.774 12.546 21.8771 12.3832 21.8961C12.2067 21.9233 12.0249 21.85 11.8864 21.8337C11.691 21.8065 11.52 21.907 11.3517 21.9097C11.0043 21.9124 10.9989 21.812 10.7112 21.8635C10.4072 21.9178 10.2606 21.9504 10.0244 21.9178C9.81273 21.8988 9.45987 21.6545 9.28615 21.6084C9.05001 21.5541 8.8763 21.5188 8.77587 21.4863C8.54244 21.4184 8.18958 21.0438 8.03758 20.9868C7.83944 20.881 7.69558 20.8593 7.52458 20.8321C7.35358 20.8104 7.17715 20.7534 6.93558 20.5688C6.77815 20.4548 6.65058 20.311 6.54201 20.159H6.54744L6.55287 20.1617Z" fill="white"/>
    <path d="M4.95641 12.3391C5.08126 12.1817 5.10841 11.9971 5.18984 11.818C5.24684 11.6904 5.37441 11.5873 5.44769 11.4651C5.54269 11.2995 5.52098 11.2235 5.59698 11.1285L6.47369 11.7664C6.31898 11.951 6.07741 12.1247 5.97969 12.236C5.86026 12.388 5.86841 12.597 5.76526 12.711C5.63769 12.8385 5.56712 12.9824 5.50469 13.1181C5.41512 13.3298 5.52098 13.3 5.51283 13.4927C5.51283 13.585 5.41512 13.68 5.44498 13.9161C5.45312 14.0057 5.39341 14.1848 5.39341 14.2825C5.39884 14.4264 5.39069 14.5675 5.38798 14.7331C5.38255 14.82 5.35269 14.9421 5.31469 15.0805C5.28212 15.1647 5.31469 15.3113 5.32555 15.4578C5.34726 15.6017 5.35269 15.7455 5.34998 15.8243C5.33098 15.9871 5.24141 16.2477 5.32826 16.3617C5.34998 16.4458 5.41784 16.5544 5.49112 16.682C5.52641 16.7444 5.56441 16.8123 5.59698 16.8828C5.63769 16.9534 5.67298 17.0267 5.70284 17.1054C5.75712 17.2601 5.78969 17.4175 5.83041 17.5723C5.86569 17.7215 5.92812 17.8627 6.02041 17.9848L6.21855 18.221C6.26198 18.2725 6.30541 18.3268 6.34612 18.3838C6.39226 18.4354 6.43298 18.4897 6.47098 18.5467L5.59426 19.1845C5.40969 18.943 5.45583 18.9185 5.37712 18.772C5.31198 18.6498 5.19798 18.5738 5.11112 18.4327C5.03241 18.2725 5.04869 18.0771 5.02155 17.9387C4.97812 17.7487 4.83155 17.6157 4.78269 17.4528C4.67684 17.119 4.75826 17.0891 4.62798 16.8285C4.56283 16.6901 4.49769 16.5924 4.45426 16.4974C4.41355 16.4024 4.38369 16.3101 4.36469 16.1934C4.35112 16.0903 4.35655 15.9355 4.38098 15.7835C4.40812 15.6315 4.43798 15.4877 4.43255 15.3954C4.41355 15.1538 4.38369 14.9801 4.38912 14.8715C4.39726 14.7521 4.44069 14.5757 4.50312 14.4128C4.56826 14.25 4.63069 14.098 4.63884 14.0165C4.66598 13.794 4.64969 13.6501 4.62526 13.4818C4.60355 13.3163 4.57912 13.1208 4.69312 12.8385C4.76369 12.6567 4.83698 12.483 4.95912 12.3364L4.95641 12.3391Z" fill="white"/>
    <path d="M11.9048 8.40343C12.0921 8.474 12.2739 8.45771 12.4721 8.46585C12.6132 8.47671 12.7489 8.57443 12.8847 8.607C13.0692 8.65857 13.1425 8.58528 13.2538 8.63685L12.9199 9.66557C12.6919 9.59228 12.4558 9.39685 12.3201 9.34257C12.1355 9.29643 11.9428 9.348 11.8017 9.28557C11.6388 9.21228 11.4814 9.18785 11.3321 9.16614C11.1014 9.13628 11.1638 9.24214 10.9765 9.291C10.8897 9.31814 10.7675 9.253 10.5504 9.35343C10.4689 9.39957 10.2762 9.386 10.1867 9.41857C10.1188 9.443 10.0509 9.46471 9.98037 9.48371C9.9098 9.50814 9.83651 9.53257 9.7578 9.55428C9.67365 9.576 9.5488 9.58414 9.40494 9.58957C9.23665 9.614 8.86208 9.81485 8.71279 9.861C8.55265 9.89357 8.27037 9.87457 8.19708 10.0103C8.12108 10.0564 8.03965 10.1514 7.93922 10.2573C7.83879 10.3577 7.74108 10.4961 7.59994 10.5911C7.46151 10.6807 7.33937 10.7811 7.19551 10.8571C7.05708 10.9304 6.94579 11.0363 6.86165 11.1666L6.69065 11.4217C6.61737 11.5384 6.55494 11.6633 6.46265 11.7637L5.58594 11.1259C5.77051 10.8816 5.79494 10.9087 5.90894 10.7893C6.00665 10.6916 6.04465 10.5613 6.15865 10.4391C6.27537 10.3034 6.47351 10.2654 6.59837 10.2003C6.77479 10.1107 6.83722 9.90985 6.98379 9.82028C7.27694 9.63028 7.31494 9.67371 7.52937 9.47828C7.75194 9.272 7.83608 9.12814 8.05322 9.03043C8.14822 8.98428 8.30022 8.95171 8.44951 8.91914C8.59879 8.892 8.75079 8.88385 8.83494 8.84857C8.94894 8.80785 9.04394 8.759 9.12265 8.71828C9.20408 8.683 9.26922 8.65585 9.32079 8.64228C9.43751 8.61243 9.62208 8.60971 9.79308 8.607C9.96951 8.62057 10.1324 8.63685 10.2111 8.61785C10.4337 8.57714 10.5612 8.50928 10.7159 8.43871C10.7919 8.40343 10.8734 8.36814 10.9738 8.33828C11.0742 8.30571 11.1937 8.29214 11.3457 8.303C11.5384 8.31928 11.7284 8.33557 11.9048 8.39528H11.9021L11.9048 8.40343Z" fill="white"/>
    <path d="M17.8004 13.7967C17.7896 13.9976 17.8601 14.1658 17.9117 14.3558C17.9551 14.4916 17.8954 14.6517 17.9063 14.7928C17.9171 14.9828 17.9959 15.0317 17.9931 15.1538H16.9101C16.8939 14.915 17.0323 14.6273 17.0269 14.4834C17.016 14.2934 16.9074 14.1251 16.9264 13.9731C16.9373 13.7994 16.921 13.6393 16.8966 13.49C16.8559 13.262 16.7636 13.357 16.6659 13.1941C16.6116 13.1208 16.6496 12.9797 16.4731 12.8114C16.4026 12.749 16.3619 12.5617 16.3021 12.483C16.2234 12.3663 16.1203 12.2604 16.0389 12.1193C15.9927 12.046 15.9547 11.9211 15.8923 11.799C15.8597 11.7203 15.762 11.609 15.667 11.4977C15.5693 11.3891 15.458 11.2941 15.4227 11.2208C15.3847 11.1476 15.3494 11.0417 15.3006 10.9521C15.249 10.868 15.192 10.7947 15.1214 10.7757C15.0536 10.7187 14.945 10.659 14.8093 10.6047C14.6736 10.5504 14.5243 10.4853 14.3913 10.3821C14.2556 10.2898 14.1253 10.1976 14.0113 10.0808C13.9027 9.96413 13.7561 9.91527 13.6123 9.8637C13.5119 9.83656 13.4196 9.79584 13.3164 9.78227C13.1807 9.75513 13.0477 9.72527 12.9229 9.66556L13.2567 8.63684C13.5444 8.73998 13.5227 8.77798 13.6774 8.84584C13.805 8.8947 13.938 8.90284 14.0873 8.97341C14.2474 9.05484 14.356 9.20684 14.451 9.3127C14.5894 9.45656 14.7957 9.45927 14.9341 9.5597C15.2029 9.78498 15.1621 9.84741 15.4281 9.97498C15.6887 10.1297 15.8434 10.1704 16.0144 10.336C16.1529 10.4961 16.3266 10.8707 16.4243 11.0254C16.5681 11.2208 16.7147 11.3294 16.7717 11.4217C16.8993 11.628 16.9997 12.1166 17.0676 12.2631C17.1626 12.4667 17.2874 12.559 17.396 12.6866C17.5046 12.8114 17.6403 12.9526 17.719 13.2457C17.7651 13.433 17.7977 13.623 17.8031 13.8076H17.8004V13.7967Z" fill="white"/>
    <path d="M23.4245 30.0146C26.9129 30.0146 29.7407 27.1868 29.7407 23.6985C29.7407 20.2102 26.9129 17.3823 23.4245 17.3823C19.9362 17.3823 17.1084 20.2102 17.1084 23.6985C17.1084 27.1868 19.9362 30.0146 23.4245 30.0146Z" fill="white"/>
    <path d="M26.7714 29.6101C26.5869 29.6807 26.4403 29.7811 26.2747 29.8897C26.215 29.9277 26.1444 29.9494 26.0739 29.9711C26.0006 29.9874 25.9246 29.9983 25.8594 30.0227C25.6803 30.0879 25.6586 30.1801 25.5419 30.2127L25.208 29.184C25.4333 29.0971 25.7481 29.146 25.8811 29.089C26.0576 29.0184 26.1933 28.8827 26.3344 28.8339C26.5054 28.7904 26.6547 28.7334 26.7877 28.6601C26.9804 28.5353 26.8719 28.4891 26.9967 28.3453C27.0537 28.2747 27.1949 28.2639 27.3007 28.0413C27.3387 27.9571 27.5124 27.8649 27.564 27.7834C27.6373 27.6613 27.7214 27.5419 27.83 27.4197C27.8924 27.3573 27.9766 27.2677 28.0852 27.1781C28.1476 27.1211 28.2399 27.0044 28.3023 26.8714C28.3701 26.7411 28.4353 26.6136 28.4923 26.5566C28.6172 26.4426 28.8234 26.277 28.8207 26.1331C28.8642 26.0544 28.8723 25.9296 28.8832 25.783C28.8913 25.6364 28.9266 25.479 28.9646 25.3161C29.008 25.1587 29.065 25.0094 29.1383 24.8629C29.1953 24.719 29.2143 24.567 29.2197 24.415C29.2252 24.3119 29.2116 24.2087 29.2007 24.1083C29.1844 23.9699 29.1763 23.8341 29.1953 23.6984H30.2783C30.2647 24.0024 30.224 23.9943 30.205 24.1599C30.1914 24.2983 30.2457 24.4259 30.2159 24.5887C30.1887 24.7651 30.0639 24.9144 30.0096 25.042C29.9146 25.2184 29.9689 25.4139 29.9146 25.574C29.8033 25.9051 29.711 25.8807 29.673 26.1711C29.6296 26.4751 29.6106 26.6244 29.5129 26.8416C29.426 27.037 29.0813 27.2921 28.9917 27.4496C28.8479 27.645 28.78 27.8106 28.7149 27.8974C28.6497 27.9979 28.4896 28.0983 28.3457 28.196C28.2019 28.2937 28.0689 28.386 28.0092 28.4403C27.8436 28.5923 27.7866 28.7307 27.7106 28.8854C27.6264 29.0293 27.5233 29.1867 27.279 29.3659C27.1162 29.469 26.9424 29.5504 26.766 29.6129L26.7714 29.6101Z" fill="white"/>
    <path d="M18.838 28.7036C18.781 28.6221 18.7105 28.5597 18.6345 28.5027C18.5639 28.443 18.4906 28.3806 18.4146 28.3181C18.3115 28.2258 18.2436 28.0793 18.154 27.968C18.04 27.816 17.945 27.8214 17.8799 27.721L18.7566 27.0831C18.8299 27.1808 18.876 27.3057 18.9195 27.4224C18.971 27.5337 19.0117 27.6368 19.0525 27.6966C19.1095 27.7726 19.1827 27.8323 19.2533 27.8866C19.3266 27.9354 19.3945 27.9843 19.4352 28.0494C19.5247 28.2014 19.6225 28.3317 19.7392 28.4267C19.9129 28.5787 19.9237 28.4566 20.0975 28.5353C20.1789 28.5706 20.2467 28.6846 20.4829 28.7253C20.529 28.7334 20.586 28.7687 20.643 28.8094C20.7027 28.842 20.7652 28.88 20.8113 28.8908C20.9497 28.9234 21.0855 28.9804 21.2375 29.0374C21.3216 29.0673 21.4275 29.1324 21.5469 29.2084C21.6175 29.2627 21.7613 29.2926 21.9079 29.317C22.0517 29.3414 22.1929 29.3713 22.2635 29.4066C22.4127 29.4717 22.6326 29.6346 22.7683 29.5884C22.8552 29.602 22.98 29.5613 23.1212 29.5341C23.2623 29.5016 23.4225 29.4826 23.5907 29.4663C23.7536 29.4581 23.9165 29.4771 24.0739 29.4934C24.2286 29.5043 24.3779 29.4798 24.5245 29.4391C24.6222 29.412 24.7172 29.3604 24.8122 29.3251C24.9397 29.2654 25.07 29.2274 25.2003 29.1894L25.5342 30.2181C25.2437 30.3104 25.2356 30.2588 25.0727 30.2941C24.937 30.3158 24.8312 30.419 24.6683 30.438C24.4919 30.4651 24.31 30.3918 24.1716 30.3756C23.9762 30.3484 23.8052 30.4488 23.6369 30.4516C23.2895 30.4543 23.284 30.3538 22.9963 30.4054C22.6923 30.4597 22.5457 30.4923 22.3096 30.4597C22.0979 30.4407 21.745 30.1964 21.5713 30.1503C21.3352 30.096 21.1615 30.0607 21.061 30.0281C20.8276 29.9603 20.4747 29.5857 20.3227 29.5287C20.1246 29.4228 19.9807 29.4011 19.8097 29.374C19.6387 29.3523 19.4623 29.2953 19.2207 29.1107C19.0633 28.9967 18.9357 28.8528 18.8272 28.7008H18.8326L18.838 28.7036Z" fill="white"/>
    <path d="M17.2416 20.881C17.3664 20.7236 17.3936 20.539 17.475 20.3598C17.532 20.2323 17.6596 20.1291 17.7328 20.007C17.8278 19.8414 17.8061 19.7654 17.8821 19.6704L18.7588 20.3083C18.6041 20.4928 18.3626 20.6666 18.2648 20.7778C18.1454 20.9298 18.1536 21.1388 18.0504 21.2528C17.9228 21.3804 17.8523 21.5243 17.7898 21.66C17.7003 21.8717 17.8061 21.8418 17.798 22.0346C17.798 22.1268 17.7003 22.2218 17.7301 22.458C17.7383 22.5476 17.6786 22.7267 17.6786 22.8244C17.684 22.9683 17.6758 23.1094 17.6731 23.275C17.6677 23.3618 17.6378 23.484 17.5998 23.6224C17.5673 23.7066 17.5998 23.8531 17.6107 23.9997C17.6324 24.1436 17.6378 24.2874 17.6351 24.3661C17.6161 24.529 17.5266 24.7896 17.6134 24.9036C17.6351 24.9877 17.703 25.0963 17.7763 25.2238C17.8116 25.2863 17.8496 25.3541 17.8821 25.4247C17.9228 25.4953 17.9581 25.5686 17.988 25.6473C18.0423 25.802 18.0748 25.9594 18.1156 26.1141C18.1508 26.2634 18.2133 26.4046 18.3056 26.5267L18.5037 26.7628C18.5471 26.8144 18.5906 26.8687 18.6313 26.9257C18.6774 26.9773 18.7181 27.0316 18.7561 27.0886L17.8794 27.7264C17.6948 27.4848 17.741 27.4604 17.6623 27.3138C17.5971 27.1917 17.4831 27.1157 17.3963 26.9746C17.3176 26.8144 17.3338 26.619 17.3067 26.4806C17.2633 26.2906 17.1167 26.1576 17.0678 25.9947C16.962 25.6608 17.0434 25.631 16.9131 25.3704C16.848 25.232 16.7828 25.1343 16.7394 25.0393C16.6987 24.9443 16.6688 24.852 16.6498 24.7353C16.6363 24.6321 16.6417 24.4774 16.6661 24.3254C16.6933 24.1734 16.7231 24.0296 16.7177 23.9373C16.6987 23.6957 16.6688 23.522 16.6743 23.4134C16.6824 23.294 16.7258 23.1176 16.7883 22.9547C16.8534 22.7918 16.9158 22.6398 16.924 22.5584C16.9511 22.3358 16.9348 22.192 16.9104 22.0237C16.8887 21.8581 16.8643 21.6627 16.9783 21.3804C17.0488 21.1986 17.1221 21.0248 17.2443 20.8783L17.2416 20.881Z" fill="white"/>
    <path d="M24.19 16.9453C24.3772 17.0159 24.5591 16.9996 24.7572 17.0077C24.8984 17.0186 25.0341 17.1163 25.1698 17.1489C25.3544 17.2004 25.4277 17.1272 25.539 17.1787L25.2051 18.2074C24.9771 18.1342 24.741 17.9387 24.6052 17.8844C24.4207 17.8383 24.228 17.8899 24.0868 17.8274C23.924 17.7542 23.7665 17.7297 23.6172 17.708C23.3865 17.6782 23.449 17.784 23.2617 17.8329C23.1748 17.86 23.0527 17.7949 22.8355 17.8953C22.7541 17.9414 22.5614 17.9279 22.4718 17.9604C22.404 17.9849 22.3361 18.0066 22.2655 18.0256C22.195 18.05 22.1217 18.0744 22.043 18.0962C21.9588 18.1179 21.834 18.126 21.6901 18.1314C21.5218 18.1559 21.1472 18.3567 20.998 18.4029C20.8378 18.4354 20.5555 18.4164 20.4822 18.5522C20.4062 18.5983 20.3248 18.6933 20.2244 18.7992C20.124 18.8996 20.0262 19.038 19.8851 19.133C19.7467 19.2226 19.6245 19.323 19.4807 19.399C19.3422 19.4723 19.231 19.5782 19.1468 19.7084L18.9758 19.9636C18.9025 20.0803 18.8401 20.2052 18.7478 20.3056L17.8711 19.6677C18.0557 19.4234 18.0801 19.4506 18.1941 19.3312C18.2918 19.2334 18.3298 19.1032 18.4438 18.981C18.5605 18.8453 18.7587 18.8073 18.8835 18.7422C19.06 18.6526 19.1224 18.4517 19.269 18.3622C19.5621 18.1722 19.6001 18.2156 19.8145 18.0202C20.0371 17.8139 20.1212 17.67 20.3384 17.5723C20.4334 17.5262 20.5854 17.4936 20.7347 17.461C20.884 17.4339 21.036 17.4257 21.1201 17.3904C21.2341 17.3497 21.3291 17.3009 21.4078 17.2602C21.4892 17.2249 21.5544 17.1977 21.606 17.1842C21.7227 17.1543 21.9072 17.1516 22.0782 17.1489C22.2547 17.1624 22.4175 17.1787 22.4962 17.1597C22.7188 17.119 22.8464 17.0512 23.0011 16.9806C23.0771 16.9453 23.1585 16.91 23.259 16.8802C23.3594 16.8476 23.4788 16.834 23.6308 16.8449C23.8235 16.8612 24.0135 16.8774 24.19 16.9372H24.1872L24.19 16.9453Z" fill="white"/>
    <path d="M30.0856 22.3413C30.0747 22.5422 30.1453 22.7105 30.1969 22.9005C30.2403 23.0362 30.1806 23.1963 30.1914 23.3375C30.2023 23.5275 30.281 23.5763 30.2783 23.6985H29.1953C29.179 23.4596 29.3174 23.1719 29.312 23.028C29.3011 22.838 29.1926 22.6697 29.2116 22.5177C29.2224 22.344 29.2062 22.1839 29.1817 22.0346C29.141 21.8066 29.0487 21.9016 28.951 21.7387C28.8967 21.6655 28.9347 21.5243 28.7583 21.356C28.6877 21.2936 28.647 21.1063 28.5873 21.0276C28.5086 20.9109 28.4054 20.805 28.324 20.6639C28.2779 20.5906 28.2399 20.4657 28.1774 20.3436C28.1449 20.2649 28.0472 20.1536 27.9522 20.0423C27.8544 19.9337 27.7432 19.8387 27.7079 19.7655C27.6699 19.6922 27.6346 19.5863 27.5857 19.4967C27.5341 19.4126 27.4772 19.3393 27.4066 19.3203C27.3387 19.2633 27.2301 19.2036 27.0944 19.1493C26.9587 19.095 26.8094 19.0299 26.6764 18.9267C26.5407 18.8345 26.4104 18.7422 26.2964 18.6255C26.1879 18.5087 26.0413 18.4599 25.8974 18.4083C25.797 18.3812 25.7047 18.3405 25.6016 18.3269C25.4659 18.2997 25.3329 18.2699 25.208 18.2102L25.5419 17.1815C25.8296 17.2846 25.8079 17.3226 25.9626 17.3905C26.0902 17.4393 26.2232 17.4475 26.3724 17.518C26.5326 17.5995 26.6411 17.7515 26.7361 17.8573C26.8746 18.0012 27.0809 18.0039 27.2193 18.1043C27.488 18.3296 27.4473 18.392 27.7133 18.5196C27.9739 18.6743 28.1286 18.715 28.2996 18.8806C28.438 19.0407 28.6117 19.4153 28.7094 19.57C28.8533 19.7655 28.9999 19.874 29.0569 19.9663C29.1844 20.1726 29.2849 20.6612 29.3527 20.8077C29.4477 21.0113 29.5726 21.1036 29.6811 21.2312C29.7897 21.356 29.9254 21.4972 30.0041 21.7903C30.0503 21.9776 30.0829 22.1676 30.0883 22.3522H30.0856V22.3413Z" fill="white"/>
    <path d="M9.83671 11.8886C9.891 11.8044 9.92628 11.7149 9.95343 11.6253L9.98871 11.4869L9.99686 11.4516L10.0186 11.3973L10.0647 11.286C10.1733 11.0662 10.4203 10.925 10.6293 10.8382C10.7731 10.7757 10.8681 10.7404 10.9523 10.7106C11.0364 10.6807 11.1097 10.6617 11.2156 10.6726L11.1179 11.7502C11.088 11.7447 11.0446 11.7176 10.9876 11.7067C10.9333 11.6959 10.8654 11.704 10.841 11.7312C10.8301 11.7393 10.8274 11.7502 10.822 11.761C10.8166 11.7719 10.8139 11.78 10.803 11.8099C10.7894 11.8587 10.7786 11.9076 10.765 11.9564C10.7406 12.0514 10.7161 12.141 10.6673 12.2089C10.5533 12.3663 10.4691 12.521 10.404 12.673C10.3063 12.9092 10.4284 12.8739 10.3986 13.0856C10.3877 13.186 10.2819 13.2892 10.29 13.5579C10.2954 13.661 10.1923 13.8537 10.1787 13.9623C10.1597 14.1224 10.1326 14.288 10.0783 14.4672C10.0511 14.5649 9.98871 14.6952 9.91543 14.839C9.82314 15.0127 9.77157 15.5013 9.68471 15.6642C9.59243 15.8324 9.39428 16.0577 9.41871 16.2179C9.36171 16.4106 9.41057 16.7906 9.28571 17.1706C9.22328 17.3524 9.15 17.5289 9.05228 17.6917C8.95728 17.8464 8.90571 18.0174 8.85957 18.1884L8.77543 18.5413C8.73471 18.7014 8.68585 18.8589 8.61257 19.0054L7.61914 18.5766C7.72771 18.3106 7.763 18.3323 7.83628 18.1884C7.89057 18.0663 7.877 17.936 7.934 17.7894C7.99371 17.632 8.13757 17.5126 8.21628 17.3986C8.32757 17.2357 8.28143 17.0376 8.34385 16.8856C8.46057 16.568 8.53928 16.5816 8.56371 16.2939C8.58814 15.9926 8.55828 15.8433 8.62343 15.6234C8.68043 15.428 8.922 15.0914 8.97357 14.915C9.03871 14.6816 9.04143 14.5024 9.07128 14.3993C9.13643 14.1713 9.435 13.756 9.47028 13.5932C9.606 13.1534 9.38886 12.9797 9.58971 12.407C9.65757 12.2252 9.739 12.0514 9.83671 11.8913V11.8886Z" fill="#021017"/>
    <path d="M14.0899 17.4665C14.1224 17.6592 14.2283 17.803 14.3206 17.9713C14.3884 18.0907 14.3939 18.2509 14.4482 18.3785C14.5214 18.5522 14.6137 18.5685 14.6517 18.6797L13.6529 19.1005C13.5443 18.8399 13.5497 18.4925 13.5036 18.335C13.4384 18.1287 13.2837 17.9659 13.2593 17.7922C13.2349 17.5913 13.1969 17.4176 13.1453 17.2547C13.0693 17.005 12.9987 17.1082 12.8847 16.9182C12.8304 16.8259 12.8494 16.6793 12.6812 16.4595C12.6133 16.3753 12.5889 16.1473 12.5373 16.0469C12.4613 15.8949 12.3962 15.7347 12.3419 15.5447C12.3147 15.4416 12.2984 15.2923 12.2903 15.124C12.2849 15.0236 12.2387 14.8526 12.1953 14.6816C12.1519 14.5187 12.1112 14.3667 12.1139 14.2745C12.1193 14.0899 12.1817 13.8022 12.0813 13.6827C12.0324 13.4955 11.7963 13.2132 11.6823 12.8657C11.6253 12.6975 11.5792 12.5292 11.5466 12.3582C11.5167 12.1926 11.4434 12.046 11.3539 11.913L11.2562 11.78C11.2372 11.7692 11.2236 11.7583 11.21 11.7556C11.172 11.7447 11.1476 11.7556 11.1123 11.7393L11.21 10.6617C11.476 10.6916 11.5954 10.7703 11.6769 10.8273C11.761 10.887 11.8126 10.9386 11.913 11.0417C11.9944 11.1286 12.0704 11.2155 12.1383 11.3023C12.1844 11.3593 12.236 11.419 12.274 11.4977C12.3582 11.666 12.3419 11.8696 12.3636 12.0135C12.3962 12.2197 12.5563 12.3555 12.6052 12.5237C12.7029 12.8712 12.6323 12.901 12.7707 13.1697C12.9146 13.4493 13.0123 13.5715 13.0666 13.8076C13.1154 14.0112 13.053 14.4427 13.0883 14.611C13.1344 14.839 13.2213 14.991 13.2457 15.0887C13.2973 15.3086 13.2674 15.8026 13.3326 15.9573C13.4737 16.3862 13.7452 16.3916 13.9433 16.9372C14.0057 17.1109 14.0573 17.2873 14.0872 17.4665H14.0844H14.0899Z" fill="#021017"/>
    <path d="M11.8968 14.3993C11.97 14.4373 12.0352 14.3939 12.1058 14.3694C12.1573 14.3532 12.2143 14.4047 12.2659 14.4047C12.3365 14.4047 12.3555 14.3233 12.3989 14.3314L12.3908 15.4144C12.2876 15.4144 12.1709 15.2787 12.1112 15.2624C12.0325 15.2462 11.9565 15.3276 11.894 15.2896C11.8235 15.2407 11.7583 15.2136 11.6959 15.2054C11.6009 15.1919 11.628 15.295 11.5493 15.3357C11.5113 15.3574 11.4625 15.2896 11.3702 15.3792C11.3349 15.4144 11.2535 15.3737 11.2155 15.3927C11.1558 15.4199 11.096 15.4416 11.0255 15.4443C10.9875 15.4443 10.9359 15.4226 10.8762 15.3927C10.8056 15.3547 10.6292 15.4389 10.5613 15.4009C10.4908 15.3602 10.3876 15.2326 10.336 15.3032C10.2628 15.3032 10.1406 15.4633 9.99676 15.4606C9.92619 15.4606 9.85833 15.4443 9.79047 15.409C9.72533 15.3764 9.66019 15.3792 9.59776 15.4009L9.47019 15.4497C9.41319 15.4714 9.35619 15.4904 9.29647 15.4796L9.24219 14.3993C9.35347 14.3993 9.35347 14.4373 9.4159 14.4482C9.46747 14.4563 9.5109 14.3939 9.57062 14.3939C9.63576 14.3939 9.7009 14.4916 9.75247 14.5269C9.82576 14.5757 9.88819 14.4726 9.95062 14.4807C10.0809 14.497 10.0863 14.573 10.1895 14.5106C10.298 14.4454 10.3469 14.3776 10.4338 14.3749C10.5098 14.3749 10.659 14.5133 10.7296 14.5133C10.8192 14.5133 10.8843 14.4644 10.9223 14.4617C11.0119 14.4617 11.191 14.6273 11.2535 14.611C11.4245 14.6083 11.457 14.3477 11.6796 14.3504C11.7502 14.3504 11.8208 14.3667 11.8886 14.402L11.8968 14.3993Z" fill="#021017"/>
    <path d="M26.2829 21.3615C26.4512 21.413 26.6113 21.3832 26.785 21.3723C26.9072 21.3642 27.0402 21.4293 27.165 21.4375C27.3333 21.4483 27.3849 21.375 27.488 21.3886L27.412 22.4689C27.1596 22.4499 26.8882 22.2897 26.7443 22.2626C26.5543 22.23 26.3643 22.2979 26.2177 22.2463C26.0494 22.1839 25.8947 22.1432 25.7454 22.1242C25.5174 22.0916 25.5744 22.2002 25.379 22.2273C25.2867 22.2436 25.1754 22.1649 24.9393 22.2382C24.847 22.268 24.657 22.211 24.5593 22.2219C24.4127 22.2382 24.2634 22.2463 24.0952 22.2355C24.0029 22.23 23.878 22.1947 23.7396 22.1567C23.5713 22.1052 23.1343 22.1567 22.9769 22.1025C22.814 22.0482 22.5833 21.9043 22.4476 21.9613C22.2712 21.9477 21.9509 22.0807 21.6007 22.0509C21.4324 22.0373 21.2669 22.0075 21.1094 21.9586C20.9574 21.9125 20.8027 21.9043 20.6453 21.9125L20.3304 21.9369C20.1866 21.9477 20.0454 21.9559 19.9043 21.9342L19.9803 20.8539C20.2463 20.8729 20.2382 20.9136 20.3847 20.9353C20.5069 20.9516 20.6182 20.9 20.762 20.9109C20.9167 20.9217 21.0579 21.033 21.1746 21.0765C21.3429 21.1389 21.5084 21.0493 21.655 21.071C21.9617 21.1117 21.9644 21.1877 22.2223 21.147C22.491 21.1036 22.6186 21.0439 22.8276 21.0602C23.0094 21.0737 23.3487 21.242 23.5116 21.2529C23.7287 21.2692 23.8862 21.2339 23.9784 21.2393C24.1874 21.2529 24.6027 21.4537 24.752 21.451C25.1592 21.4809 25.265 21.2285 25.7943 21.2719C25.9626 21.2855 26.1282 21.3153 26.2856 21.3642H26.2829V21.3615Z" fill="#021017"/>
    <path d="M23.9592 21.5433C23.9076 21.5623 23.9375 21.6057 23.9483 21.6464C23.9565 21.6736 23.894 21.6817 23.8886 21.7062C23.8778 21.7387 23.951 21.7713 23.9347 21.7876L22.9033 21.4592C22.9223 21.3994 23.077 21.3804 23.1042 21.3533C23.1368 21.318 23.077 21.2474 23.1259 21.2284C23.1883 21.2067 23.2263 21.1823 23.2508 21.1552C23.286 21.1117 23.1856 21.0846 23.1666 21.0276C23.1557 20.9977 23.229 21.0004 23.172 20.9136C23.1476 20.8783 23.2073 20.8539 23.1992 20.824C23.1883 20.7806 23.1883 20.7399 23.2073 20.7019C23.2182 20.6829 23.2535 20.6639 23.2942 20.6476C23.3485 20.6286 23.3267 20.4983 23.381 20.482C23.438 20.4657 23.5765 20.482 23.5357 20.4196C23.5575 20.3843 23.4625 20.2377 23.514 20.1699C23.5385 20.1373 23.5738 20.1102 23.628 20.0993C23.6796 20.0884 23.6959 20.0559 23.704 20.0124L23.7095 19.9229C23.7122 19.8822 23.7203 19.8442 23.7502 19.8224L24.616 20.4712C24.5862 20.5146 24.5536 20.4874 24.5265 20.5064C24.5047 20.5227 24.5427 20.5743 24.5265 20.596C24.5075 20.6204 24.4097 20.5879 24.3663 20.5906C24.3039 20.5906 24.3717 20.6747 24.3473 20.6937C24.2985 20.7344 24.2333 20.6992 24.255 20.7724C24.2795 20.8512 24.3283 20.9054 24.3066 20.9407C24.2903 20.9706 24.1302 20.9652 24.1139 20.995C24.0922 21.033 24.1193 21.0846 24.1139 21.1009C24.0949 21.1389 23.9022 21.1443 23.9022 21.1796C23.8669 21.2583 24.0949 21.3777 24.0515 21.47C24.0352 21.4999 24.008 21.5243 23.9619 21.5406L23.9592 21.5433Z" fill="#021017"/>
    <path d="M21.6799 26.7412C21.5007 26.8036 21.3759 26.923 21.2239 27.0316C21.118 27.1103 20.9633 27.132 20.8439 27.1918C20.6837 27.2732 20.6756 27.3655 20.5697 27.4116L20.0947 26.4372C20.3173 26.3232 20.6376 26.3205 20.7733 26.2608C20.9524 26.1848 21.0746 26.0219 21.2239 25.9758C21.4003 25.9323 21.5496 25.8699 21.6826 25.7939C21.8862 25.6772 21.7776 25.631 21.9106 25.4872C21.973 25.4166 22.1114 25.4085 22.2444 25.1995C22.2933 25.118 22.4752 25.0339 22.5403 24.9606C22.6353 24.8493 22.7384 24.738 22.8687 24.6322C22.9393 24.5752 23.0479 24.5073 23.1754 24.4368C23.3329 24.3553 23.5907 23.997 23.7292 23.9075C23.8757 23.8206 24.139 23.731 24.1743 23.5845C24.2964 23.4515 24.3806 23.1149 24.5977 22.8489C24.7009 22.7159 24.8176 22.5965 24.9397 22.4879C25.0564 22.382 25.146 22.2545 25.2139 22.1106L25.3442 21.8229C25.3957 21.6899 25.4527 21.5623 25.5342 21.4456L26.4787 21.9749C26.3322 22.2246 26.2996 22.1975 26.21 22.3305C26.134 22.439 26.1204 22.5693 26.0363 22.6996C25.9467 22.8435 25.7676 22.914 25.6644 23.0009C25.5179 23.123 25.4962 23.3158 25.3876 23.4379C25.1704 23.6903 25.0999 23.6415 24.9723 23.8912C24.8284 24.1463 24.7932 24.2929 24.6384 24.4558C24.5027 24.6023 24.1336 24.7652 24.006 24.8819C23.8404 25.0448 23.74 25.1832 23.6667 25.251C23.4957 25.403 23.037 25.5605 22.9176 25.6636C22.5756 25.9242 22.6489 26.1902 22.1684 26.505C22.0164 26.6055 21.8536 26.6842 21.6853 26.7412H21.6799Z" fill="#021017"/>
    <path d="M25.5038 26.7683C25.6097 26.923 25.759 27.0044 25.9082 27.113C26.0141 27.189 26.082 27.3274 26.177 27.417C26.3072 27.5391 26.3941 27.5147 26.4701 27.5961L25.7318 28.3887C25.5364 28.2069 25.4142 27.9001 25.3138 27.7834C25.1781 27.6314 24.98 27.5581 24.8931 27.4197C24.7954 27.2569 24.6922 27.1239 24.5837 27.0071C24.4181 26.828 24.3964 26.9501 24.22 26.8416C24.1331 26.79 24.0924 26.6543 23.8535 26.5484C23.7612 26.5077 23.6418 26.3313 23.5522 26.2689C23.422 26.1766 23.2944 26.0734 23.1668 25.9377C23.099 25.8644 23.0202 25.745 22.9388 25.6066C22.8438 25.441 22.4774 25.118 22.4041 24.9443C22.3254 24.7679 22.2847 24.4774 22.1517 24.3933C22.0458 24.2304 21.7337 24.0106 21.5627 23.655C21.4785 23.484 21.4188 23.3049 21.3835 23.1257C21.3482 22.952 21.2831 22.7919 21.2098 22.6371C21.1555 22.5313 21.1067 22.4254 21.0551 22.3196C20.9872 22.1757 20.9302 22.0237 20.9004 21.869L21.9508 21.6057C22.016 21.8609 21.978 21.8636 22.0105 22.0074C22.0377 22.1269 22.13 22.2083 22.1761 22.344C22.2277 22.4879 22.187 22.6589 22.2032 22.7864C22.225 22.9656 22.3824 23.0687 22.4394 23.2071C22.5615 23.4894 22.5018 23.5356 22.681 23.7283C22.871 23.9264 22.9931 23.9889 23.1098 24.1571C23.2102 24.3037 23.308 24.6674 23.4165 24.7977C23.555 24.966 23.6988 25.0529 23.7612 25.1234C23.9024 25.2809 24.0897 25.7151 24.2118 25.8156C24.5158 26.1141 24.7601 25.9893 25.1618 26.372C25.2894 26.4969 25.4088 26.6271 25.5065 26.771H25.5038V26.7683Z" fill="#021017"/>
  </g>
  <defs>
    <clipPath id="clip0_1933_2391">
      <rect width="33.3477" height="33.3477" fill="white"/>
    </clipPath>
  </defs>
</svg>