<svg xmlns="http://www.w3.org/2000/svg" width="20" height="16" viewBox="0 0 20 16" fill="none">
  <path d="M8.28596 7.43174L7.01622 4.16098C6.88584 3.82087 6.40118 3.81804 6.26796 4.16098L4.99822 7.43174C4.9557 7.53661 4.87351 7.6188 4.76864 7.66131L1.49789 8.93106C1.15778 9.06144 1.15496 9.54608 1.4979 9.67929L4.76866 10.949C4.87353 10.9916 4.95572 11.0737 4.99824 11.1786L6.26798 14.4494C6.39836 14.7895 6.883 14.7923 7.01622 14.4494L8.28596 11.1786C8.32848 11.0738 8.41067 10.9916 8.51554 10.9491L11.7863 9.67931C12.1264 9.54893 12.1292 9.06427 11.7863 8.93106L8.51554 7.66131C8.41067 7.6188 8.32848 7.53661 8.28596 7.43174Z" fill="#80FFD2"/>
  <path d="M3.57811 7.3551C3.77934 7.21622 3.99758 7.10568 4.22715 7.01215C4.2555 7.00081 4.31786 6.97814 4.31219 6.97814L4.31787 6.98381C4.31787 6.98381 4.32921 6.99515 4.33771 7.00365C4.35755 7.01782 4.39154 7.02916 4.42555 7.03483C4.43973 7.03199 4.45108 7.04332 4.47375 7.02632C4.49926 7.00081 4.52192 6.97815 4.54743 6.95264C4.59561 6.90446 4.64379 6.85627 4.68914 6.81093C4.77984 6.70889 4.86203 6.59268 4.92439 6.42829C5.02359 6.22706 5.01508 5.54967 5.12845 5.26625C5.15396 5.20106 5.205 5.1217 5.25885 5.0225C5.27302 4.99699 5.28717 4.97148 5.30417 4.94314L5.32685 4.89779L5.3637 4.81559C5.41188 4.70505 5.4629 4.59168 5.51392 4.46131C5.59045 4.28275 5.65281 3.86895 5.81153 3.61386C5.95892 3.35311 6.11478 3.20856 6.32168 3.14904C6.53709 3.09235 6.74117 3.1207 6.92256 3.20573C7.01042 3.24824 7.09545 3.30492 7.1663 3.37578C7.23433 3.4438 7.29102 3.5345 7.36471 3.6422C7.48375 3.82926 7.54326 3.97949 7.60561 4.08152C7.70198 4.27992 7.80966 4.43297 7.99673 4.87512C8.09309 5.07918 8.03641 5.3456 8.2008 5.561C8.31134 5.71122 8.52958 5.85576 8.61461 6.07117C8.69397 6.26957 8.66845 6.44813 8.74498 6.60969C8.79316 6.70889 8.82719 6.74856 8.8697 6.81375C8.90655 6.86193 8.9859 7.02634 8.96606 6.97815L7.61411 7.8766C7.56026 7.78873 7.52626 7.69237 7.48658 7.59601C7.4554 7.50814 7.44689 7.4883 7.42705 7.42878C7.39588 7.32958 7.3732 7.22756 7.35052 7.12553L7.24565 6.66921C7.18614 6.4453 7.10961 6.23272 6.9764 6.03716C6.90554 5.93796 6.84604 5.8331 6.78652 5.72256L6.70432 5.55535L6.64197 5.40796C6.64197 5.40796 6.6618 5.39378 6.68164 5.35127C6.71848 5.27475 6.74967 5.03949 6.70432 5.00548C6.69865 4.89778 6.63347 4.9233 6.60512 5.01399C6.57111 5.10469 6.58811 5.24073 6.59945 5.29742C6.61079 5.3541 6.59945 5.33709 6.57961 5.3456C6.55977 5.35977 6.55126 5.3286 6.50592 5.52699C6.4719 5.73673 6.43506 5.92663 6.38688 6.04851C6.29618 6.28092 6.19131 6.47647 6.07794 6.65786C6.00141 6.77974 5.95324 7.07167 5.86255 7.1737C5.78319 7.25873 5.735 7.33526 5.70099 7.40328C5.68399 7.43729 5.66981 7.46846 5.65847 7.50247C5.63863 7.55632 5.62163 7.60736 5.60746 7.64987C5.55927 7.78309 5.51676 7.87093 5.45158 7.93612C5.26735 8.10901 5.15397 8.09767 5.05477 8.10617C5.00659 8.10901 4.95274 8.11186 4.88189 8.12603C4.84787 8.1317 4.80535 8.14587 4.76283 8.16004C4.73166 8.16854 4.70048 8.18272 4.6608 8.19972C4.46241 8.29042 4.25833 8.41512 4.04859 8.57951C3.8672 8.71555 3.56394 8.70138 3.31453 8.83176C3.21816 8.88278 3.09344 8.99047 2.9489 9.10668C2.88087 9.16336 2.7902 9.2257 2.72785 9.27105C2.73068 9.29089 2.74202 9.30224 2.74202 9.30224L1.61682 8.02398C1.75853 7.96163 1.87756 7.94461 2.01361 7.92194C2.07029 7.9106 2.1383 7.8993 2.21483 7.88512C2.26018 7.87946 2.31121 7.86808 2.36789 7.84541C2.53795 7.77738 2.69666 7.63001 2.87238 7.59033C3.1218 7.52798 3.35987 7.50532 3.57527 7.35794L3.57811 7.3551Z" fill="#80FFD2"/>
  <path d="M6.32437 15.3676C6.15714 15.3421 6.03529 15.3053 5.91908 15.2231C5.80005 15.155 5.66116 15.0218 5.56196 14.8093C5.54779 14.7781 5.5336 14.7469 5.5251 14.7328C5.39189 14.3841 5.30405 14.0922 5.2502 13.8513C5.21336 13.7067 5.22752 13.6869 5.22185 13.6189C5.22468 13.5594 5.22467 13.5027 5.22751 13.4488C5.23884 13.2278 5.2587 13.0265 5.15667 12.7544C5.09431 12.539 4.63229 12.043 4.51892 11.7596C4.50475 11.7284 4.49343 11.6888 4.48493 11.6406C4.47926 11.6179 4.47358 11.5952 4.47074 11.5697L4.47642 11.547C4.48492 11.5158 4.48209 11.4677 4.44241 11.4507C4.43674 11.445 4.42826 11.4478 4.41409 11.445C4.40275 11.445 4.40557 11.4535 4.37439 11.4507C4.33754 11.4478 4.29789 11.4422 4.25821 11.4365C4.17601 11.428 4.08814 11.4195 4.00028 11.411C3.82456 11.394 3.64881 11.3713 3.53828 11.3288C3.25201 11.2183 3.11882 11.0567 2.79004 10.8299C2.63132 10.7222 2.53781 10.6911 2.43294 10.6712C2.37909 10.6627 2.3224 10.6514 2.25154 10.6429C2.15801 10.6231 1.98794 10.5664 1.79805 10.5012C1.61099 10.4332 1.42961 10.3368 1.28223 10.2348C1.14335 10.1299 1.02713 10.0193 0.893916 9.93149C0.794717 9.87197 0.681324 9.80397 0.587793 9.67076C0.494263 9.54321 0.429094 9.37029 0.448934 9.1974C0.463106 9.03585 0.528285 8.90266 0.599142 8.80913C0.667164 8.71276 0.743704 8.65323 0.808892 8.56537C0.942102 8.42649 0.927937 8.34996 1.2227 8.19124C1.25388 8.1714 1.40409 8.1062 1.62516 8.02118L2.75038 9.29945C2.74471 9.29378 2.72484 9.28529 2.688 9.27679C2.64832 9.26545 2.59446 9.26262 2.54628 9.28246C2.48109 9.30797 2.50944 9.37032 2.61998 9.34481C2.73051 9.32497 2.74469 9.30511 2.75036 9.30511C2.75036 9.30511 2.75035 9.30511 2.74468 9.31078C2.73335 9.31078 2.7617 9.32778 2.79288 9.34195L2.87223 9.38733C2.97426 9.44968 3.07063 9.51769 3.16133 9.58004C3.33706 9.71042 3.48444 9.82945 3.60631 9.87764C3.74803 10.042 4.14767 9.99385 4.39992 10.025C4.46511 10.0335 4.5501 10.0619 4.64647 10.1016C4.76551 10.1526 4.89589 10.2149 5.02343 10.2688C5.40606 10.4247 5.60447 10.7704 5.69233 10.9717C5.71217 11.0085 5.74336 11.0737 5.75753 11.0879L5.80003 11.1531C5.82554 11.1956 5.85107 11.2381 5.87374 11.2778C5.91909 11.3571 5.9559 11.428 5.98141 11.4932C6.07211 11.7256 6.12598 11.9438 6.16566 12.1536C6.19401 12.2953 6.35555 12.5418 6.35272 12.6807C6.35272 12.8621 6.38955 12.984 6.43207 13.0775C6.45474 13.1229 6.47459 13.1654 6.49443 13.2022C6.50293 13.2221 6.51143 13.2363 6.51709 13.2533C6.51709 13.2533 6.51711 13.2589 6.51711 13.2646C6.48877 13.3326 6.38107 13.4176 6.41508 13.5253C6.41508 13.5253 6.42074 13.5423 6.42641 13.548C6.47459 13.6132 6.51428 13.6699 6.59648 13.565C6.62766 13.5225 6.65033 13.5565 6.68434 13.5792C6.71835 13.6075 6.758 13.6075 6.76367 13.5452C6.76934 13.4998 6.75233 13.3808 6.72399 13.3071C6.70982 13.2703 6.69283 13.2419 6.67583 13.2249C6.66733 13.2164 6.66166 13.2107 6.65882 13.2079C6.65599 13.1937 6.63897 13.2278 6.66448 13.1682L8.15531 13.7464C8.14964 13.7691 8.11277 13.8456 8.0816 13.8995C8.05042 13.9533 8.01643 14.0043 7.98242 14.0554C7.91157 14.1602 7.83502 14.2764 7.75283 14.4947C7.69331 14.6562 7.6338 14.8348 7.55445 14.9708C7.51477 15.0388 7.47507 15.0899 7.42972 15.1465C7.38721 15.1891 7.34469 15.2203 7.29934 15.2486C7.07543 15.3761 6.67866 15.4271 6.33288 15.3704L6.32437 15.3676Z" fill="#80FFD2"/>
  <path d="M10.117 7.51669C10.3579 7.54787 10.596 7.61589 10.8284 7.70092C10.9191 7.73493 11.0013 7.77178 11.0722 7.80863C11.1289 7.83697 11.1827 7.86247 11.2337 7.89081C11.2932 7.92199 11.3528 7.95316 11.4066 7.98433C11.6249 8.10621 11.7722 8.21392 11.8998 8.31312C12.016 8.41798 12.084 8.52003 12.1464 8.62206C12.2059 8.72693 12.2796 8.78926 12.3703 8.93664C12.4326 9.03868 12.5715 9.32494 12.5205 9.61404C12.4922 9.75575 12.4553 9.86062 12.3986 9.95131C12.3731 9.9995 12.3419 10.0477 12.2966 10.093C12.2626 10.1384 12.2116 10.178 12.1577 10.2092C12.1237 10.2376 12.0698 10.2574 11.931 10.3169C11.7581 10.3651 11.3839 10.4672 11.0183 10.606C10.7944 10.6939 10.3891 11.0765 10.1397 11.1729C9.85344 11.2834 9.64937 11.2551 9.2469 11.3118C9.06268 11.3373 8.95497 11.3826 8.88695 11.4336C8.86994 11.462 8.85862 11.496 8.85012 11.5442C8.84728 11.5527 8.84445 11.5555 8.83311 11.5612C8.82744 11.5385 8.75091 11.6604 8.70273 11.7312C8.65171 11.8163 8.6092 11.9041 8.60354 12.0118C8.58653 12.1989 8.64605 12.4512 8.56385 12.6637C8.48449 12.8621 8.34844 12.9755 8.29459 13.1484C8.22941 13.3553 8.28892 13.3694 8.14721 13.7322L6.6564 13.1541C6.71875 12.9557 6.8151 12.7686 6.91996 12.59L7.15238 12.1819C7.26008 11.9778 7.34796 11.7653 7.38197 11.5328C7.3933 11.4365 7.41313 11.3429 7.4358 11.2466L7.47549 11.1049L7.501 11.0227L7.54918 10.8838C7.58319 10.7931 7.62854 10.7024 7.68806 10.6202C7.8326 10.4133 8.04801 10.2773 8.27475 10.2149C8.32293 10.2007 8.4023 10.1781 8.42498 10.1724L8.51284 10.1582C8.56952 10.1526 8.62905 10.1441 8.68007 10.1384C8.89831 10.1129 9.08535 10.1015 9.20722 10.0534C9.42262 10.076 9.68339 9.7756 9.89029 9.62538C9.98949 9.55453 10.1992 9.4865 10.4118 9.42131C10.4628 9.4043 10.5167 9.39014 10.5677 9.37313C10.5705 9.37596 10.5818 9.37596 10.5847 9.37313C10.596 9.37313 10.6045 9.36464 10.5989 9.35331C10.5932 9.34764 10.5904 9.33913 10.5818 9.33063C10.562 9.30512 10.5337 9.29376 10.5337 9.29376C10.5337 9.29376 10.5875 9.30794 10.6612 9.28527C10.7037 9.25976 10.5847 9.27676 10.647 9.24842C10.7179 9.20591 10.6895 9.18322 10.6669 9.18322C10.6414 9.18039 10.6187 9.19173 10.6187 9.17473C10.6045 9.13788 10.6442 9.09822 10.5932 9.0302C10.5563 8.97068 10.511 8.91964 10.3494 8.86579C10.1425 8.8006 9.90729 8.75242 9.64371 8.73258C9.41697 8.70991 9.2044 8.49735 8.93514 8.42082C8.86995 8.40098 8.77925 8.39532 8.67721 8.38965C8.62336 8.38681 8.56952 8.38397 8.51284 8.3783L8.42498 8.36981C8.37112 8.35563 8.31727 8.34711 8.26342 8.33294C8.0055 8.27909 7.75326 8.10621 7.62005 7.8653L8.97199 6.96684C8.97199 6.96684 8.90681 7.03203 8.92665 7.05754C8.92665 7.05754 8.92947 7.06036 8.9323 7.0632C8.96631 7.07453 9.00034 7.08021 9.03719 7.08871L9.17888 7.11706C9.27241 7.1369 9.36878 7.15957 9.44814 7.19925C9.67205 7.32113 9.86478 7.46282 10.1227 7.49967L10.117 7.51669Z" fill="#80FFD2"/>
  <path d="M16.8543 2.72743L16.1107 0.812006C16.0343 0.612829 15.7505 0.611169 15.6725 0.812006L14.9289 2.72743C14.904 2.78885 14.8559 2.83698 14.7945 2.86188L12.879 3.60547C12.6799 3.68182 12.6782 3.96564 12.8791 4.04365L14.7945 4.78725C14.8559 4.81214 14.904 4.86028 14.9289 4.92169L15.6725 6.83712C15.7489 7.0363 16.0327 7.03797 16.1107 6.83713L16.8543 4.9217C16.8792 4.86029 16.9273 4.81215 16.9887 4.78726L18.9042 4.04366C19.1033 3.96731 19.105 3.68348 18.9042 3.60547L16.9887 2.86188C16.9273 2.83698 16.8792 2.78885 16.8543 2.72743Z" fill="#80FFD2"/>
  <path d="M14.0976 2.68256C14.2154 2.60123 14.3432 2.5365 14.4777 2.48172C14.4943 2.47508 14.5308 2.4618 14.5275 2.4618L14.5308 2.46513C14.5308 2.46513 14.5375 2.47177 14.5424 2.47675C14.5541 2.48505 14.574 2.49168 14.5939 2.495C14.6022 2.49334 14.6088 2.49998 14.6221 2.49002C14.637 2.47508 14.6503 2.46181 14.6652 2.44687C14.6935 2.41866 14.7217 2.39044 14.7482 2.36388C14.8014 2.30413 14.8495 2.23607 14.886 2.1398C14.9441 2.02195 14.9391 1.62526 15.0055 1.45928C15.0204 1.42111 15.0503 1.37463 15.0819 1.31654C15.0902 1.3016 15.0985 1.28666 15.1084 1.27006L15.1217 1.24351L15.1433 1.19537C15.1715 1.13064 15.2014 1.06424 15.2312 0.987891C15.2761 0.883323 15.3126 0.640993 15.4055 0.49161C15.4918 0.338907 15.5831 0.254254 15.7043 0.219398C15.8304 0.186202 15.95 0.202802 16.0562 0.252596C16.1076 0.277493 16.1574 0.310686 16.1989 0.352181C16.2388 0.392016 16.272 0.445131 16.3151 0.508204C16.3848 0.617751 16.4197 0.705729 16.4562 0.765482C16.5126 0.881669 16.5757 0.971297 16.6852 1.23023C16.7417 1.34973 16.7085 1.50575 16.8047 1.6319C16.8695 1.71987 16.9973 1.80452 17.0471 1.93066C17.0936 2.04685 17.0786 2.15142 17.1234 2.24603C17.1516 2.30412 17.1716 2.32736 17.1965 2.36553C17.218 2.39375 17.2645 2.49003 17.2529 2.46181L16.4612 2.98796C16.4296 2.93651 16.4097 2.88008 16.3865 2.82364C16.3682 2.77219 16.3632 2.76056 16.3516 2.72571C16.3334 2.66762 16.3201 2.60787 16.3068 2.54812L16.2454 2.28089C16.2105 2.14977 16.1657 2.02527 16.0877 1.91075C16.0462 1.85265 16.0114 1.79124 15.9765 1.72651L15.9284 1.62859L15.8919 1.54227C15.8919 1.54227 15.9035 1.53397 15.9151 1.50907C15.9367 1.46426 15.9549 1.32649 15.9284 1.30657C15.9251 1.2435 15.8869 1.25844 15.8703 1.31156C15.8504 1.36467 15.8603 1.44434 15.867 1.47754C15.8736 1.51073 15.867 1.50077 15.8553 1.50575C15.8437 1.51405 15.8387 1.4958 15.8122 1.61198C15.7923 1.73481 15.7707 1.84602 15.7425 1.91739C15.6894 2.0535 15.6279 2.16802 15.5615 2.27425C15.5167 2.34562 15.4885 2.51658 15.4354 2.57633C15.3889 2.62613 15.3607 2.67094 15.3408 2.71078C15.3308 2.73069 15.3225 2.74895 15.3159 2.76887C15.3043 2.8004 15.2943 2.83029 15.286 2.85519C15.2578 2.9332 15.2329 2.98465 15.1947 3.02282C15.0868 3.12407 15.0205 3.11743 14.9624 3.12241C14.9341 3.12407 14.9026 3.12574 14.8611 3.13404C14.8412 3.13736 14.8163 3.14565 14.7914 3.15395C14.7731 3.15893 14.7549 3.16723 14.7316 3.17719C14.6155 3.23031 14.4959 3.30333 14.3731 3.3996C14.2669 3.47927 14.0893 3.47098 13.9432 3.54733C13.8868 3.5772 13.8138 3.64027 13.7291 3.70832C13.6893 3.74152 13.6362 3.77803 13.5997 3.80459C13.6013 3.81621 13.608 3.82285 13.608 3.82285L12.949 3.07428C13.032 3.03776 13.1017 3.02779 13.1814 3.01451C13.2146 3.00788 13.2544 3.00126 13.2992 2.99296C13.3258 2.98964 13.3557 2.98297 13.3889 2.9697C13.4885 2.92986 13.5814 2.84356 13.6843 2.82032C13.8304 2.7838 13.9698 2.77053 14.0959 2.68422L14.0976 2.68256Z" fill="#80FFD2"/>
  <path d="M15.7055 7.37485C15.6075 7.35991 15.5362 7.33833 15.4681 7.2902C15.3984 7.25036 15.3171 7.17236 15.259 7.04787C15.2507 7.02962 15.2424 7.01136 15.2374 7.00307C15.1594 6.79891 15.1079 6.62794 15.0764 6.48686C15.0548 6.40221 15.0631 6.39059 15.0598 6.35075C15.0615 6.31589 15.0615 6.28271 15.0631 6.25118C15.0698 6.12171 15.0814 6.00384 15.0216 5.8445C14.9851 5.71835 14.7145 5.42791 14.6482 5.26193C14.6399 5.24367 14.6332 5.22043 14.6282 5.19222C14.6249 5.17894 14.6216 5.16566 14.6199 5.15072L14.6233 5.13743C14.6282 5.11917 14.6266 5.09096 14.6033 5.081C14.6 5.07768 14.5951 5.07933 14.5868 5.07767C14.5801 5.07767 14.5818 5.08266 14.5635 5.081C14.5419 5.07934 14.5187 5.07601 14.4955 5.07269C14.4473 5.06771 14.3959 5.06274 14.3444 5.05776C14.2415 5.0478 14.1386 5.03453 14.0739 5.00963C13.9062 4.9449 13.8282 4.85028 13.6357 4.71749C13.5427 4.65442 13.488 4.63616 13.4266 4.62454C13.395 4.61956 13.3618 4.61293 13.3203 4.60795C13.2655 4.59633 13.166 4.56314 13.0547 4.52497C12.9452 4.48513 12.839 4.42869 12.7527 4.36894C12.6713 4.30752 12.6033 4.24279 12.5253 4.19133C12.4672 4.15648 12.4008 4.11666 12.346 4.03865C12.2912 3.96395 12.2531 3.86269 12.2647 3.76144C12.273 3.66683 12.3111 3.58883 12.3526 3.53406C12.3925 3.47762 12.4373 3.44276 12.4755 3.3913C12.5535 3.30997 12.5452 3.26516 12.7178 3.17221C12.7361 3.16059 12.824 3.12241 12.9535 3.07261L13.6125 3.8212C13.6091 3.81788 13.5975 3.81291 13.5759 3.80793C13.5527 3.80129 13.5211 3.79963 13.4929 3.81125C13.4548 3.82619 13.4714 3.8627 13.5361 3.84776C13.6008 3.83614 13.6091 3.82451 13.6124 3.82451C13.6124 3.82451 13.6124 3.82452 13.6091 3.82784C13.6025 3.82784 13.6191 3.83779 13.6373 3.84609L13.6838 3.87266C13.7436 3.90918 13.8 3.949 13.8531 3.98552C13.956 4.06187 14.0423 4.13158 14.1137 4.1598C14.1967 4.25607 14.4307 4.22785 14.5785 4.24611C14.6166 4.25109 14.6664 4.26769 14.7228 4.29093C14.7926 4.32081 14.8689 4.35733 14.9436 4.38886C15.1677 4.48015 15.2839 4.68264 15.3353 4.80048C15.3469 4.82206 15.3652 4.86023 15.3735 4.86853L15.3984 4.90671C15.4133 4.93161 15.4283 4.95651 15.4416 4.97975C15.4681 5.02622 15.4897 5.06772 15.5046 5.10589C15.5577 5.242 15.5893 5.36981 15.6125 5.49263C15.6291 5.57562 15.7237 5.72001 15.7221 5.80134C15.7221 5.90757 15.7436 5.97896 15.7685 6.03373C15.7818 6.06029 15.7934 6.08519 15.8051 6.10676C15.81 6.11838 15.815 6.12669 15.8183 6.13665C15.8183 6.13665 15.8183 6.13994 15.8183 6.14326C15.8017 6.1831 15.7387 6.2329 15.7586 6.29597C15.7586 6.29597 15.7619 6.30594 15.7652 6.30926C15.7934 6.34743 15.8167 6.38063 15.8648 6.31921C15.8831 6.29432 15.8964 6.31423 15.9163 6.32751C15.9362 6.34411 15.9594 6.34411 15.9627 6.30759C15.966 6.28104 15.9561 6.21133 15.9395 6.16818C15.9312 6.1466 15.9212 6.12999 15.9113 6.12003C15.9063 6.11506 15.903 6.11174 15.9013 6.11008C15.8997 6.10178 15.8897 6.1217 15.9046 6.08685L16.7777 6.42545C16.7744 6.43873 16.7528 6.48354 16.7345 6.51508C16.7163 6.54662 16.6964 6.57649 16.6765 6.60637C16.635 6.66778 16.5901 6.73584 16.542 6.86365C16.5071 6.95826 16.4723 7.06281 16.4258 7.14248C16.4026 7.18232 16.3793 7.2122 16.3528 7.24539C16.3279 7.27029 16.303 7.28855 16.2764 7.30515C16.1453 7.37984 15.9129 7.40971 15.7104 7.37651L15.7055 7.37485Z" fill="#80FFD2"/>
  <path d="M17.9265 2.77716C18.0676 2.79542 18.207 2.83526 18.3431 2.88505C18.3963 2.90497 18.4444 2.92655 18.4859 2.94813C18.5191 2.96472 18.5506 2.97966 18.5805 2.99626C18.6153 3.01451 18.6502 3.03277 18.6817 3.05102C18.8095 3.12239 18.8959 3.18547 18.9705 3.24357C19.0386 3.30498 19.0784 3.36474 19.115 3.42449C19.1498 3.4859 19.193 3.52241 19.2461 3.60872C19.2826 3.66847 19.3639 3.83611 19.3341 4.00541C19.3175 4.0884 19.2959 4.14982 19.2627 4.20293C19.2477 4.23115 19.2295 4.25938 19.2029 4.28593C19.183 4.31249 19.1531 4.33571 19.1216 4.35397C19.1017 4.37057 19.0701 4.3822 18.9888 4.41705C18.8876 4.44527 18.6685 4.50502 18.4543 4.58635C18.3232 4.6378 18.0859 4.86188 17.9398 4.91831C17.7722 4.98304 17.6527 4.96644 17.417 4.99964C17.3091 5.01458 17.246 5.04114 17.2062 5.07102C17.1962 5.08762 17.1896 5.10753 17.1846 5.13575C17.1829 5.14072 17.1813 5.14238 17.1746 5.1457C17.1713 5.13243 17.1265 5.2038 17.0983 5.2453C17.0684 5.29509 17.0435 5.34655 17.0402 5.40962C17.0302 5.51917 17.0651 5.6669 17.017 5.79138C16.9705 5.90757 16.8908 5.97395 16.8593 6.07519C16.8211 6.19636 16.8559 6.20467 16.773 6.41712L15.8999 6.07853C15.9364 5.96234 15.9928 5.85279 16.0543 5.74823L16.1904 5.50921C16.2534 5.38971 16.3049 5.26521 16.3248 5.12911C16.3315 5.07268 16.3431 5.0179 16.3563 4.96147L16.3796 4.87848L16.3945 4.83035L16.4227 4.74901C16.4427 4.69589 16.4692 4.64279 16.5041 4.59466C16.5887 4.47349 16.7149 4.39382 16.8476 4.3573C16.8759 4.349 16.9223 4.33572 16.9356 4.3324L16.9871 4.32411C17.0203 4.32079 17.0551 4.31581 17.085 4.31249C17.2128 4.29755 17.3224 4.29091 17.3937 4.26269C17.5199 4.27597 17.6726 4.10003 17.7937 4.01206C17.8518 3.97056 17.9747 3.93072 18.0992 3.89255C18.129 3.88259 18.1606 3.87429 18.1904 3.86433C18.1921 3.86599 18.1987 3.86599 18.2004 3.86433C18.207 3.86433 18.212 3.85936 18.2087 3.85272C18.2054 3.84941 18.2037 3.84442 18.1987 3.83944C18.1871 3.82451 18.1705 3.81785 18.1705 3.81785C18.1705 3.81785 18.2021 3.82616 18.2452 3.81288C18.2701 3.79794 18.2004 3.8079 18.2369 3.7913C18.2784 3.76641 18.2618 3.75312 18.2485 3.75312C18.2336 3.75146 18.2203 3.7581 18.2203 3.74815C18.212 3.72657 18.2352 3.70334 18.2054 3.6635C18.1838 3.62865 18.1572 3.59876 18.0626 3.56722C17.9415 3.52905 17.8037 3.50083 17.6493 3.48922C17.5166 3.47594 17.3921 3.35146 17.2344 3.30664C17.1962 3.29502 17.1431 3.2917 17.0833 3.28838C17.0518 3.28673 17.0203 3.28506 16.9871 3.28174L16.9356 3.27677C16.9041 3.26847 16.8725 3.26348 16.841 3.25518C16.69 3.22364 16.5423 3.1224 16.4642 2.98131L17.256 2.45516C17.256 2.45516 17.2178 2.49333 17.2294 2.50827C17.2294 2.50827 17.2311 2.50992 17.2327 2.51158C17.2526 2.51822 17.2726 2.52155 17.2941 2.52653L17.3771 2.54313C17.4319 2.55475 17.4883 2.56802 17.5348 2.59126C17.6659 2.66263 17.7788 2.74561 17.9298 2.76719L17.9265 2.77716Z" fill="#80FFD2"/>
</svg>