<svg width="19" height="21" viewBox="0 0 19 21" fill="none" xmlns="http://www.w3.org/2000/svg">
<path d="M2.55063 6.73418C1.70573 5.60763 2.50954 4 3.91772 4H15.0823C16.4905 4 17.2943 5.60763 16.4494 6.73418V6.73418C15.8331 7.55584 15.5 8.5552 15.5 9.58228V16C15.5 18.2091 13.7091 20 11.5 20H7.5C5.29086 20 3.5 18.2091 3.5 16V9.58228C3.5 8.5552 3.16688 7.55584 2.55063 6.73418V6.73418Z" stroke="#DBF3FC"/>
<path d="M11.5 15L11.5 9" stroke="#DBF3FC" stroke-linecap="round" stroke-linejoin="round"/>
<path d="M7.5 15L7.5 9" stroke="#DBF3FC" stroke-linecap="round" stroke-linejoin="round"/>
<path d="M13.5 4L12.9558 2.36754C12.6836 1.55086 11.9193 1 11.0585 1H7.94152C7.08066 1 6.31638 1.55086 6.04415 2.36754L5.5 4" stroke="#DBF3FC" stroke-linecap="round"/>
</svg>
