<svg width="20" height="20" viewBox="0 0 20 20" fill="none" xmlns="http://www.w3.org/2000/svg">
<path d="M10 1.50028C11.2105 1.50005 12.5292 0.248313 13.6559 0.690951C13.7706 0.736008 13.8842 0.783124 13.9968 0.832253C15.1058 1.31624 15.1545 3.13266 16.0098 3.98856C16.8655 4.84428 18.6823 4.89237 19.1669 6.00128C19.2161 6.114 19.2634 6.2278 19.3085 6.34265C19.7518 7.46946 18.5 8.78943 18.5 10.0003C18.5004 11.2107 19.7518 12.5298 19.3084 13.656C19.2633 13.7706 19.2161 13.8842 19.1669 13.9966C18.6821 15.1055 16.8655 15.1543 16.0098 16.01C15.1543 16.8659 15.106 18.6825 13.9972 19.1671C13.8845 19.2164 13.7708 19.2637 13.6559 19.3088C12.5296 19.7521 11.2105 18.5005 10 18.5003C8.78919 18.5003 7.46914 19.752 6.34234 19.3088C6.22756 19.2636 6.1138 19.2164 6.00113 19.1672C4.89227 18.6826 4.84495 16.8657 3.98928 16.01C3.13323 15.1542 1.31557 15.1055 0.831522 13.9959C0.782569 13.8837 0.735616 13.7705 0.690708 13.6562C0.248089 12.5295 1.49968 11.2107 1.50002 10.0003C1.50002 8.78938 0.248114 7.46969 0.690775 6.34261C0.735671 6.22829 0.782612 6.11501 0.831553 6.00279C1.31546 4.89327 3.13321 4.84531 3.98928 3.98954C4.84524 3.13358 4.89302 1.31569 6.0026 0.831777C6.1148 0.782842 6.22808 0.735907 6.34239 0.691015C7.46949 0.248367 8.78912 1.50028 10 1.50028Z" fill="#5377FC"/>
<path d="M10 1.50028L10 2.00028L10.0001 2.00028L10 1.50028ZM13.6559 0.690951L13.4731 1.15632L13.4731 1.15632L13.6559 0.690951ZM13.9968 0.832253L13.7968 1.29051L13.7968 1.29051L13.9968 0.832253ZM16.0098 3.98856L15.6561 4.34199L15.6562 4.34212L16.0098 3.98856ZM19.1669 6.00128L18.7087 6.20149L18.7087 6.20149L19.1669 6.00128ZM19.3085 6.34265L19.7738 6.15962L19.7738 6.15962L19.3085 6.34265ZM18.5 10.0003L18 10.0003L18 10.0004L18.5 10.0003ZM19.3084 13.656L18.8431 13.4729L18.8431 13.4729L19.3084 13.656ZM19.1669 13.9966L19.6251 14.1969L19.6251 14.1969L19.1669 13.9966ZM16.0098 16.01L15.6562 15.6565L15.6562 15.6566L16.0098 16.01ZM13.9972 19.1671L14.1975 19.6253L14.1975 19.6253L13.9972 19.1671ZM13.6559 19.3088L13.839 19.7741L13.839 19.7741L13.6559 19.3088ZM10 18.5003L10.0001 18.0003H10V18.5003ZM6.34234 19.3088L6.15932 19.7741L6.15932 19.7741L6.34234 19.3088ZM6.00113 19.1672L6.20134 18.709L6.20134 18.709L6.00113 19.1672ZM3.98928 16.01L4.34284 15.6565L4.34279 15.6565L3.98928 16.01ZM0.831522 13.9959L1.28981 13.796L1.28981 13.796L0.831522 13.9959ZM0.690708 13.6562L1.15608 13.4733L1.15608 13.4733L0.690708 13.6562ZM1.50002 10.0003L2.00002 10.0004V10.0003H1.50002ZM0.690775 6.34261L1.15617 6.52539L1.15617 6.52539L0.690775 6.34261ZM0.831553 6.00279L1.28986 6.20268L1.28986 6.20268L0.831553 6.00279ZM3.98928 3.98954L4.34277 4.34315L4.34283 4.34309L3.98928 3.98954ZM6.0026 0.831777L6.20248 1.29009L6.20248 1.29009L6.0026 0.831777ZM6.34239 0.691015L6.15961 0.225619L6.34239 0.691015ZM10 1.50028L10.0001 2.00028C10.385 2.00021 10.7562 1.90132 11.0906 1.78272C11.4181 1.66656 11.762 1.51113 12.0508 1.39146C12.6908 1.12627 13.1202 1.0177 13.4731 1.15632L13.6559 0.690951L13.8387 0.225577C13.0649 -0.0784363 12.2716 0.217542 11.668 0.467617C11.335 0.605585 11.0518 0.735468 10.7564 0.84024C10.4678 0.942569 10.2203 1.00024 9.99993 1.00028L10 1.50028ZM13.6559 0.690951L13.4731 1.15632C13.582 1.19911 13.6899 1.24386 13.7968 1.29051L13.9968 0.832253L14.1968 0.373993C14.0786 0.322391 13.9592 0.272904 13.8387 0.225577L13.6559 0.690951ZM13.9968 0.832253L13.7968 1.29051C14.1443 1.44216 14.3713 1.82265 14.6366 2.46243C14.7563 2.75115 14.8896 3.10398 15.0391 3.41753C15.1917 3.73768 15.3842 4.0699 15.6561 4.34199L16.0098 3.98856L16.3635 3.63514C16.2077 3.47927 16.0734 3.26347 15.9417 2.9872C15.8069 2.70432 15.6983 2.41232 15.5603 2.07944C15.3101 1.47604 14.9583 0.706327 14.1968 0.373992L13.9968 0.832253ZM16.0098 3.98856L15.6562 4.34212C15.9283 4.61419 16.2606 4.8068 16.5808 4.95945C16.8944 5.10897 17.2473 5.24222 17.5361 5.36189C18.1761 5.62706 18.5569 5.85396 18.7087 6.20149L19.1669 6.00128L19.625 5.80107C19.2923 5.03968 18.5224 4.68808 17.9189 4.43805C17.586 4.30012 17.2939 4.19159 17.0111 4.05677C16.7349 3.92508 16.5191 3.79079 16.3633 3.63501L16.0098 3.98856ZM19.1669 6.00128L18.7087 6.20149C18.7555 6.30854 18.8004 6.41661 18.8433 6.52567L19.3085 6.34265L19.7738 6.15962C19.7264 6.03899 19.6768 5.91946 19.625 5.80107L19.1669 6.00128ZM19.3085 6.34265L18.8433 6.52567C18.9821 6.8786 18.8736 7.30827 18.6085 7.94873C18.4889 8.23772 18.3335 8.58174 18.2174 8.9094C18.0988 9.24396 18 9.61532 18 10.0003H18.5H19C19 9.77982 19.0577 9.53211 19.16 9.24341C19.2647 8.94781 19.3946 8.66438 19.5325 8.33117C19.7825 7.72723 20.0783 6.9335 19.7738 6.15962L19.3085 6.34265ZM18.5 10.0003L18 10.0004C18.0001 10.3853 18.099 10.7565 18.2176 11.0908C18.3337 11.4183 18.4891 11.7622 18.6086 12.051C18.8736 12.6911 18.9819 13.1203 18.8431 13.4729L19.3084 13.656L19.7736 13.8392C20.0782 13.0655 19.7825 12.2721 19.5326 11.6684C19.3947 11.3354 19.2648 11.0521 19.1601 10.7567C19.0578 10.4681 19.0001 10.2205 19 10.0001L18.5 10.0003ZM19.3084 13.656L18.8431 13.4729C18.8003 13.5817 18.7555 13.6895 18.7088 13.7963L19.1669 13.9966L19.6251 14.1969C19.6767 14.0788 19.7262 13.9596 19.7736 13.8392L19.3084 13.656ZM19.1669 13.9966L18.7088 13.7963C18.5568 14.144 18.1759 14.371 17.536 14.6364C17.2471 14.7561 16.8943 14.8895 16.5807 15.0391C16.2605 15.1918 15.9283 15.3844 15.6562 15.6565L16.0098 16.01L16.3633 16.3636C16.5192 16.2078 16.7349 16.0734 17.0112 15.9417C17.294 15.8068 17.5861 15.6981 17.919 15.5601C18.5224 15.3099 19.2922 14.9581 19.6251 14.1969L19.1669 13.9966ZM16.0098 16.01L15.6562 15.6566C15.3842 15.9287 15.1916 16.2609 15.039 16.5811C14.8895 16.8947 14.7563 17.2476 14.6366 17.5364C14.3714 18.1763 14.1445 18.5571 13.797 18.709L13.9972 19.1671L14.1975 19.6253C14.9588 19.2925 15.3104 18.5226 15.5604 17.9192C15.6983 17.5863 15.8069 17.2942 15.9417 17.0114C16.0734 16.7351 16.2077 16.5194 16.3634 16.3635L16.0098 16.01ZM13.9972 19.1671L13.797 18.709C13.6899 18.7558 13.5819 18.8007 13.4729 18.8436L13.6559 19.3088L13.839 19.7741C13.9596 19.7267 14.0791 19.677 14.1975 19.6253L13.9972 19.1671ZM13.6559 19.3088L13.4729 18.8436C13.1202 18.9823 12.6909 18.874 12.0508 18.6089C11.762 18.4893 11.4181 18.3339 11.0906 18.2178C10.7562 18.0992 10.385 18.0003 10.0001 18.0003L10 18.5003L9.99994 19.0003C10.2203 19.0003 10.4679 19.058 10.7564 19.1603C11.0519 19.265 11.3352 19.3949 11.6682 19.5328C12.2719 19.7828 13.0653 20.0786 13.839 19.7741L13.6559 19.3088ZM10 18.5003V18.0003C9.61507 18.0003 9.24371 18.0991 8.90915 18.2176C8.58149 18.3338 8.23746 18.4891 7.94846 18.6087C7.30798 18.8738 6.87829 18.9823 6.52537 18.8435L6.34234 19.3088L6.15932 19.7741C6.93319 20.0785 7.72693 19.7827 8.33088 19.5327C8.66409 19.3948 8.94754 19.265 9.24314 19.1602C9.53185 19.0579 9.77956 19.0003 10 19.0003V18.5003ZM6.34234 19.3088L6.52537 18.8435C6.41636 18.8006 6.30834 18.7558 6.20134 18.709L6.00113 19.1672L5.80093 19.6253C5.91927 19.6771 6.03875 19.7266 6.15932 19.7741L6.34234 19.3088ZM6.00113 19.1672L6.20134 18.709C5.85393 18.5572 5.62721 18.1766 5.36224 17.5365C5.24266 17.2477 5.10952 16.8948 4.96007 16.5811C4.8075 16.2609 4.61494 15.9286 4.34284 15.6565L3.98928 16.01L3.63573 16.3636C3.79146 16.5193 3.92569 16.735 4.0573 17.0113C4.19203 17.2941 4.30047 17.5861 4.43828 17.919C4.68811 18.5225 5.03947 19.2926 5.80093 19.6253L6.00113 19.1672ZM3.98928 16.01L4.34279 15.6565C4.07065 15.3844 3.7383 15.1917 3.418 15.039C3.10429 14.8894 2.75129 14.756 2.46239 14.6362C1.82223 14.3708 1.44149 14.1437 1.28981 13.796L0.831522 13.9959L0.373236 14.1959C0.705601 14.9577 1.47572 15.3097 2.0794 15.56C2.41243 15.6981 2.70461 15.8067 2.98761 15.9416C3.26401 16.0734 3.47989 16.2078 3.63577 16.3636L3.98928 16.01ZM0.831522 13.9959L1.28981 13.796C1.24332 13.6895 1.19873 13.5819 1.15608 13.4733L0.690708 13.6562L0.225334 13.839C0.272504 13.959 0.32182 14.078 0.373237 14.1959L0.831522 13.9959ZM0.690708 13.6562L1.15608 13.4733C1.01746 13.1205 1.12602 12.6911 1.39118 12.051C1.51083 11.7622 1.66626 11.4184 1.78242 11.0909C1.90102 10.7565 1.99991 10.3853 2.00002 10.0004L1.50002 10.0003L1.00002 10.0001C0.99996 10.2205 0.942276 10.4681 0.839941 10.7566C0.735162 11.052 0.605286 11.3353 0.467325 11.6683C0.217266 12.2719 -0.0786645 13.0652 0.225334 13.839L0.690708 13.6562ZM1.50002 10.0003H2.00002C2.00002 9.61529 1.90118 9.24394 1.7826 8.90938C1.66646 8.5817 1.51104 8.23773 1.39136 7.94871C1.12615 7.30827 1.01748 6.87851 1.15617 6.52539L0.690775 6.34261L0.225382 6.15982C-0.0785933 6.93379 0.217365 7.72741 0.467444 8.33131C0.605406 8.66447 0.735302 8.94791 0.840057 9.24346C0.942375 9.53213 1.00002 9.77982 1.00002 10.0003H1.50002ZM0.690775 6.34261L1.15617 6.52539C1.1988 6.41683 1.24338 6.30925 1.28986 6.20268L0.831553 6.00279L0.373246 5.80291C0.321842 5.92077 0.272539 6.03976 0.225382 6.15982L0.690775 6.34261ZM0.831553 6.00279L1.28986 6.20268C1.44145 5.85512 1.82203 5.62816 2.46222 5.36294C2.75111 5.24326 3.10414 5.10999 3.41787 4.96048C3.73819 4.80784 4.07059 4.61524 4.34277 4.34315L3.98928 3.98954L3.63579 3.63592C3.47994 3.79172 3.26409 3.92603 2.98769 4.05774C2.70471 4.19259 2.41253 4.30111 2.07949 4.43908C1.47582 4.68917 0.705567 5.04095 0.373245 5.80291L0.831553 6.00279ZM3.98928 3.98954L4.34283 4.34309C4.615 4.07092 4.80764 3.73852 4.9603 3.41818C5.10982 3.10443 5.24309 2.7514 5.36277 2.46249C5.62798 1.82225 5.85491 1.44167 6.20248 1.29009L6.0026 0.831777L5.80272 0.373467C5.04071 0.705797 4.68896 1.47611 4.4389 2.07979C4.30094 2.41283 4.19242 2.70502 4.05757 2.98798C3.92586 3.26436 3.79154 3.48017 3.63573 3.63599L3.98928 3.98954ZM6.0026 0.831777L6.20248 1.29009C6.30904 1.24361 6.41661 1.19904 6.52516 1.15641L6.34239 0.691015L6.15961 0.225619C6.03955 0.272771 5.92057 0.322069 5.80272 0.373467L6.0026 0.831777ZM6.34239 0.691015L6.52516 1.15641C6.87829 1.01773 7.30805 1.1264 7.94847 1.39161C8.23748 1.51129 8.58145 1.66671 8.90912 1.78286C9.24368 1.90144 9.61503 2.00028 10 2.00028V1.50028V1.00028C9.77956 1.00028 9.53187 0.942632 9.24321 0.840314C8.94767 0.735559 8.66423 0.605663 8.33108 0.4677C7.72719 0.217617 6.93359 -0.0783453 6.15961 0.225619L6.34239 0.691015Z" fill="#EFF7F9"/>
<path d="M6.67236 9.50991L8.07593 11.4125C8.54118 12.0432 9.47625 12.0659 9.97155 11.4585L13.3278 7.34302" stroke="#EFF7F9" stroke-width="1.5" stroke-linecap="round"/>
</svg>
