<svg xmlns="http://www.w3.org/2000/svg" width="28" height="32" viewBox="0 0 28 32" fill="none">
  <path d="M23.339 25.322C23.339 24.0148 24.4757 22.959 25.8713 22.959H6.91852C5.51169 22.959 4.38623 24.0148 4.38623 25.322C4.38623 26.6292 5.52295 27.685 6.91852 27.685H25.8713C24.4644 27.685 23.339 26.6292 23.339 25.322Z" fill="white"/>
  <path d="M6.8397 24.759C6.70465 24.6182 6.63712 24.8293 6.64837 24.95C6.64837 25.0204 6.41203 24.9802 6.36701 25.0807C6.32199 25.2215 6.64837 25.2818 6.60335 25.3321H2.12402C2.12402 24.7087 2.43915 24.0551 2.84432 23.6026C3.24948 23.14 3.72218 22.8585 3.98103 22.6473C4.65631 22.1043 5.44413 21.4507 6.27697 21.501C6.50206 21.5111 6.72715 21.5513 6.91848 21.5814C7.04228 21.6217 7.16608 21.6518 7.28988 21.682C7.53749 21.7323 7.77383 21.7725 7.99892 21.7926C8.70796 21.8529 8.50538 21.4708 9.09062 21.32C9.37199 21.2396 9.73213 21.501 10.4299 21.1692C10.7 21.0385 11.2965 21.1993 11.5891 21.1289C12.0281 21.0284 12.4895 20.958 13.0072 20.958C13.2886 20.958 13.6825 21.0485 14.1102 21.1591C14.6391 21.3099 15.9559 21.0083 16.4511 21.1591C16.9576 21.32 17.7004 21.7926 18.0943 21.5412C18.6345 21.5412 19.5912 20.9681 20.6603 20.9882L21.043 21.0083L21.752 21.0485C22.2472 21.0787 22.7087 21.1289 23.1364 21.1993C23.8792 21.32 24.622 21.32 25.4886 21.2697L25.5336 21.3502C25.6461 21.5312 25.7249 21.7222 25.7812 21.9535C25.86 22.2451 25.86 22.6171 25.86 22.9791L21.088 25.0003C21.088 25.0003 21.3919 24.8494 21.4257 24.8092C21.4257 24.7791 21.0768 25.0003 21.088 25.0003C21.1218 25.0003 21.4144 24.6282 21.3581 24.4975C21.3356 24.397 21.2343 24.4472 21.1668 24.5176C21.1218 24.5478 21.133 24.588 21.0543 24.6182C20.9417 24.6483 20.8179 24.6584 20.7054 24.6483C19.76 24.578 19.7375 24.2964 18.9609 24.5176C18.1506 24.7489 17.7679 25.0003 17.1377 25.0003C16.5749 25.0003 15.5057 24.4673 15.0105 24.4673C14.3465 24.4673 13.8738 24.6383 13.5812 24.6383C12.9397 24.6383 11.6342 24.0048 11.1727 24.0551C9.92346 24.0551 9.65335 25.0103 8.03269 24.9902C7.77383 24.9902 7.51498 24.9701 7.26738 24.9299C7.15483 24.9098 6.99727 24.8897 6.90723 24.8696L6.8397 24.7891V24.759Z" fill="#F7F7F7"/>
  <path d="M22.1911 25.905C22.72 26.0558 23.204 25.905 23.7217 25.8145C24.0931 25.7542 24.5095 25.9553 24.8922 25.9553C25.4099 25.9553 25.5449 25.6637 25.8713 25.6938V29.7059C25.0948 29.7059 24.2394 29.1831 23.7892 29.1227C23.204 29.0523 22.63 29.354 22.1798 29.2032C21.6509 29.0121 21.1669 28.9116 20.7167 28.8713C20.0077 28.811 20.2103 29.1931 19.625 29.3439C19.3437 29.4244 18.9835 29.1629 18.2857 29.4948C18.0156 29.6255 17.4191 29.4646 17.1265 29.535C16.6876 29.6355 16.2261 29.7059 15.7084 29.7059C15.4271 29.7059 15.0331 29.6154 14.6055 29.5048C14.0765 29.354 12.7597 29.6557 12.2645 29.5048C11.7581 29.3439 11.0153 28.8713 10.6213 29.1227C10.0811 29.1227 9.12448 29.6959 8.0553 29.6758C7.79644 29.6758 7.53758 29.6557 7.28998 29.6154L6.89607 29.5551C6.67098 29.5249 6.44589 29.4847 6.23205 29.4143C5.41046 29.1629 4.66766 28.8412 3.99239 28.3987C3.53095 28.1071 3.13704 27.7351 2.81065 27.3127C2.37172 26.7396 2.11287 26.0257 2.15789 25.3218H6.64847C6.65973 25.4525 6.50216 25.4827 6.50216 25.5933C6.51342 25.6838 6.76102 25.6033 6.79478 25.6234C6.81729 25.6435 6.69349 26.0156 6.80604 26.1664C6.8398 26.2268 6.87356 26.2268 6.92984 26.2268C7.05364 26.2268 7.17744 26.1865 7.30124 26.1564C7.54884 26.086 7.78519 26.0055 8.01028 26.0257C8.95566 26.096 8.97817 26.3776 9.75474 26.1564C10.5651 25.9251 10.9477 25.6737 11.578 25.6737C12.1407 25.6737 13.2099 26.2067 13.7051 26.2067C14.3691 26.2067 14.8418 26.0357 15.1344 26.0357C15.776 26.0357 17.0815 26.6692 17.5429 26.6189C18.7922 26.6189 19.0623 25.6637 20.683 25.6838C21.2007 25.6938 21.7071 25.7542 22.2023 25.8949L22.1911 25.905Z" fill="#F7F7F7"/>
  <path d="M21.5048 24.7789C21.7974 24.6381 21.5386 24.7689 21.381 24.8392C21.2572 24.8996 21.6961 24.6985 21.7186 24.6985C21.7524 24.6985 21.0771 24.9901 21.1447 24.9599L25.8716 22.9689C25.9053 22.8382 25.759 22.808 25.6577 22.8282C25.5565 22.8282 25.669 22.7578 25.5565 22.8282C25.3989 22.9187 25.2638 23.0092 25.1738 23.1097C25.05 23.2605 25.3989 23.0795 25.5114 23.1499C25.5902 23.2002 25.2863 23.3711 25.624 23.522C25.759 23.5723 25.579 23.9041 25.6577 24.0348C25.7703 24.2359 25.8603 24.5074 25.8603 24.8392C25.8603 24.8895 25.8603 24.9398 25.8378 24.9901C25.7703 25.0403 25.6803 25.1007 25.5902 25.151C25.5227 25.1912 25.4439 25.2415 25.3539 25.2917C25.1738 25.4023 25.5227 25.4426 25.3764 25.513C25.2076 25.5733 24.7686 25.8649 25.05 25.8146C25.1063 25.8951 25.6803 25.6336 25.6803 25.6537C25.6803 25.6738 25.669 25.7342 25.6127 25.8749C25.5677 26.0057 25.624 26.0157 25.6803 25.9554C25.7253 25.9051 25.759 25.8548 25.7815 25.8046C25.8153 25.7342 25.8266 25.6638 25.8378 25.7141V29.7262C25.2863 29.7061 25.3201 29.5452 25.0387 29.4647C24.8137 29.3943 24.5323 29.5653 24.2509 29.4647C23.9358 29.3642 23.857 28.9117 23.7445 28.7005C23.5982 28.3989 23.1255 28.5597 22.9341 28.3586C22.574 27.9464 22.8328 27.7654 22.3601 27.5743C21.8875 27.3531 21.5161 27.2525 21.3697 26.9107C21.2122 26.5788 21.6736 25.8951 21.6624 25.6738C21.6286 25.3219 21.471 25.1409 21.471 25.0202C21.471 25.0001 21.6511 24.98 21.8424 24.8996C22.0338 24.8292 22.2363 24.7286 22.2251 24.6985C22.3376 24.4974 21.0884 24.9599 21.0884 24.9901C21.2009 24.9297 21.3135 24.8795 21.4598 24.8091H21.4823L21.5048 24.7789Z" fill="#F7F7F7"/>
  <path d="M11.3326 27.5995C11.3326 27.5392 11.4001 27.3984 11.4001 27.328C11.4001 27.2476 11.3664 27.1973 11.3326 27.0967C11.2988 26.9962 11.3326 26.9962 11.3551 26.8755C11.3551 26.8152 11.3101 26.7548 11.3326 26.6945C11.3551 26.6442 11.4001 26.5939 11.4001 26.5336C11.4001 26.4733 11.3664 26.4331 11.3776 26.3928C11.3776 26.3325 11.4001 26.3426 11.4001 26.232C11.4001 26.1616 11.3664 26.1314 11.3664 26.0208C11.3664 25.9403 11.3889 25.8498 11.3889 25.7694C11.3889 25.6588 11.3551 25.5482 11.3776 25.4376C11.4001 25.337 11.4001 25.2264 11.4114 25.1158C11.4114 24.7639 11.2876 24.7035 11.2876 24.4421C11.2876 24.3415 11.3664 24.06 11.3664 23.9192C11.3664 23.8589 11.3438 23.7583 11.3438 23.6075C11.3438 23.5673 11.3438 23.5069 11.3664 23.4466V23.4667C11.3664 23.4667 11.2876 23.4466 11.2651 23.4466C11.22 23.4466 11.1413 23.4768 11.04 23.4768C10.9612 23.4768 10.7924 23.3762 10.7023 23.3762C10.601 23.3762 10.5448 23.4265 10.4097 23.4667C10.2859 23.5069 10.2859 23.4567 10.1284 23.4466C10.0496 23.4466 9.98204 23.5069 9.892 23.4768C9.83573 23.4567 9.75695 23.3863 9.67817 23.3863C9.61064 23.3863 9.55437 23.4265 9.49809 23.4164C9.43057 23.4164 9.43057 23.3863 9.29551 23.3863C9.29551 23.3863 9.26175 23.4366 9.22798 23.4366C9.20547 23.4366 9.17171 23.3963 9.13795 23.4064C9.10418 23.4164 9.07042 23.4466 9.0254 23.4265C9.0254 23.4265 8.95787 23.3863 8.91285 23.3863L8.50769 23.4466C8.50769 23.4466 8.45142 23.4768 8.4064 23.4768C8.37263 23.4768 8.29385 23.3762 8.24883 23.3762C8.20381 23.3762 8.1813 23.4265 8.11378 23.4667C8.0575 23.5069 8.0575 23.4567 7.98998 23.4466C7.95621 23.4466 7.92245 23.5069 7.88868 23.4768C7.86618 23.4567 7.83241 23.3863 7.79865 23.3863C7.76488 23.3863 7.74238 23.4265 7.71987 23.4164C7.6861 23.4164 7.6861 23.3863 7.62983 23.3863C7.62983 23.3863 7.55105 23.4366 7.47227 23.4366C7.41599 23.4366 7.34846 23.3963 7.28094 23.4064C7.1909 23.4164 7.12337 23.4466 7.03334 23.4265C6.95455 23.3963 6.87577 23.3863 6.78573 23.3863C6.52688 23.3863 6.48186 23.5572 6.27928 23.5572C6.20049 23.5572 5.99791 23.4466 5.89662 23.4466C5.8516 23.4466 5.77282 23.4768 5.67153 23.4768C5.63776 23.4768 5.604 23.4667 5.54773 23.4466V23.4667C5.54773 23.4667 5.54773 23.5572 5.54773 23.5874C5.54773 23.6477 5.57024 23.7483 5.57024 23.8991C5.57024 24.0097 5.50271 24.241 5.50271 24.3616C5.50271 24.5024 5.53647 24.5829 5.57024 24.7538C5.604 24.9248 5.57024 24.9248 5.54773 25.1359C5.54773 25.2365 5.59275 25.337 5.57024 25.4577C5.54773 25.5381 5.50271 25.6387 5.50271 25.7392C5.50271 25.8297 5.53647 25.9102 5.52522 25.9906C5.52522 26.0912 5.50271 26.0811 5.50271 26.2621C5.50271 26.2621 5.53647 26.3225 5.53647 26.3828C5.53647 26.4331 5.51396 26.4833 5.51396 26.5336C5.51396 26.604 5.54773 26.6643 5.52522 26.7247C5.50271 26.785 5.50271 26.8453 5.49146 26.9157C5.49146 27.1168 5.61526 27.1571 5.61526 27.3079C5.61526 27.3682 5.53647 27.5291 5.53647 27.6095C5.53647 27.6297 5.53647 27.6699 5.54773 27.7H11.3326C11.3326 27.7 11.3326 27.6598 11.3326 27.6196V27.5995Z" fill="#FFE51D"/>
  <path d="M25.7721 27.5844H5.41257C3.98324 27.5844 2.83527 26.4884 2.98158 25.1812C3.10538 24.0449 4.27586 23.2304 5.54763 23.2304H23.6563C25.1982 23.2304 26.4474 22.1143 26.4474 20.7367V4.53746C26.4474 2.59676 24.6805 1.01807 22.5083 1.01807H5.49136C3.31922 1.01807 1.55225 2.59676 1.55225 4.53746V25.2616C1.55225 27.2023 3.31922 28.781 5.49136 28.781H25.7609C26.1323 28.781 26.4362 28.5095 26.4362 28.1777C26.4362 27.8459 26.1323 27.5744 25.7609 27.5744L25.7721 27.5844Z" fill="#D25246"/>
  <path d="M13.1782 28.4794C12.8406 28.3989 12.5255 28.4794 12.1766 28.5196C11.929 28.5498 11.6589 28.4492 11.4113 28.4492C11.0736 28.4492 10.9836 28.6 10.781 28.5799V26.5789C11.2875 26.5789 11.8502 26.8404 12.1316 26.8705C12.5142 26.9007 12.8856 26.7599 13.1782 26.8303C13.5159 26.9309 13.831 26.9811 14.1349 27.0012C14.5963 27.0314 14.4613 26.8404 14.8439 26.7599C15.024 26.7197 15.2603 26.8504 15.7218 26.6895C15.9018 26.6191 16.2845 26.6996 16.4758 26.6694C16.7685 26.6191 17.0611 26.5789 17.3987 26.5789C17.5788 26.5789 17.8376 26.6292 18.119 26.6795C18.4566 26.7599 19.3232 26.599 19.6384 26.6795C19.9648 26.7599 20.4487 27.0012 20.7076 26.8705C21.0565 26.8705 21.6755 26.5789 22.3732 26.589C22.7109 26.589 23.0373 26.6292 23.3636 26.6895C23.6675 26.7599 23.9827 26.7499 24.2865 26.7197L24.9055 26.6292C25.1869 26.589 25.4683 26.5588 25.7496 26.5789V28.5799C25.2207 28.5799 25.2319 28.4995 24.9393 28.4894C24.6917 28.4693 24.4779 28.5799 24.1965 28.5799C23.8926 28.5799 23.6 28.3989 23.3524 28.3286C23.0148 28.2381 22.6996 28.4291 22.3958 28.409C21.788 28.3788 21.7655 28.2381 21.259 28.3386C20.7301 28.4492 20.4825 28.5799 20.0773 28.5799C19.7172 28.5799 19.0194 28.3084 18.693 28.3084C18.2653 28.3084 17.9502 28.3989 17.7701 28.3989C17.3537 28.3989 16.4983 28.0772 16.2057 28.1073C15.3954 28.1073 15.2153 28.5799 14.1574 28.5699C13.8197 28.5699 13.4934 28.5397 13.167 28.4693L13.1782 28.4794Z" fill="#D25246"/>
  <path d="M4.80496 22.4061C5.0413 22.4061 5.2664 22.376 5.49149 22.3558C5.66031 22.3357 5.82913 22.3156 6.0092 22.2855C6.2568 22.2553 6.52691 22.3558 6.77451 22.3558C7.11215 22.3558 7.20219 22.2151 7.40477 22.2251V24.2261C6.89831 24.2261 6.33558 23.9647 6.05422 23.9345C5.87414 23.9144 5.66031 23.9345 5.514 23.9748C5.3902 24.0049 5.28891 24.0351 5.17636 24.015C4.92876 23.9647 4.6699 24.0049 4.47857 24.0954C4.1747 24.2463 4.37728 24.3569 4.27599 24.558C4.24223 24.6485 4.00588 24.6988 4.08466 24.9904C4.11843 25.0909 3.98337 25.2518 4.02839 25.3624C4.08466 25.5032 4.14094 25.644 4.19721 25.8048C4.23097 25.8853 4.24223 26.016 4.28725 26.1668C4.34352 26.3881 4.84998 26.5288 4.99629 26.6193C5.1426 26.7501 5.42396 27.0014 5.75034 26.8707C6.09924 26.8707 6.71824 26.5791 7.41603 26.5892C7.75366 26.5892 8.08005 26.6294 8.40643 26.6897C8.7103 26.7601 9.02543 26.7501 9.32931 26.7199L9.94831 26.6294C10.2297 26.5892 10.511 26.559 10.7924 26.5791V28.5801C10.2634 28.5801 10.2747 28.4997 9.98207 28.4896C9.73447 28.4695 9.52064 28.5801 9.23927 28.5801C8.9354 28.5801 8.64278 28.3991 8.39518 28.3288C8.05754 28.2383 7.74241 28.4293 7.43853 28.4092C6.83079 28.379 6.80828 28.2383 6.30182 28.3388C6.03171 28.3991 5.84038 28.4595 5.66031 28.4997C5.57027 28.5198 5.49149 28.5399 5.37894 28.55C5.25514 28.55 5.10883 28.56 4.96252 28.55C4.69241 28.5198 4.33226 28.379 4.02839 28.1779C3.72452 27.9768 3.48817 27.7556 3.31935 27.6249C2.88042 27.293 2.57655 27.0115 2.45275 26.8104C2.30644 26.5892 2.22765 26.1769 2.26142 25.825C2.28393 25.463 2.38522 25.1512 2.40773 24.9904C2.48651 24.5379 2.50902 24.2463 2.5878 23.8843C2.67784 23.5424 2.85791 23.1201 3.49942 22.748C3.90459 22.5167 4.36603 22.3961 4.81621 22.386L4.80496 22.4061Z" fill="#D25246"/>
  <path d="M19.9872 22.3356C20.3248 22.4059 20.6399 22.3356 20.9888 22.2853C21.2364 22.2551 21.5065 22.3557 21.7541 22.3557C22.0918 22.3557 22.1818 22.2149 22.3844 22.2249V24.226C21.8779 24.226 21.3152 23.9645 21.0338 23.9344C20.6512 23.9042 20.2798 24.045 19.9872 23.9746C19.6495 23.8841 19.3344 23.8338 19.0305 23.8137C18.5691 23.7835 18.7041 23.9746 18.3215 24.045C18.1414 24.0852 17.9051 23.9545 17.4436 24.1254C17.2635 24.1958 16.8809 24.1053 16.6896 24.1455C16.3969 24.1958 16.1043 24.226 15.7667 24.226C15.5866 24.226 15.3278 24.1857 15.0464 24.1254C14.7088 24.045 13.8421 24.2059 13.527 24.1254C13.2006 24.045 12.7167 23.8036 12.4578 23.9344C12.1089 23.9344 11.4899 24.2159 10.7922 24.2159C10.4545 24.2159 10.1281 24.1757 9.80175 24.1053C9.49787 24.0349 9.18274 24.045 8.87887 24.0852L8.25987 24.1656C7.9785 24.2059 7.69714 24.236 7.41577 24.2159V22.2048C7.94474 22.2048 7.93348 22.2853 8.2261 22.3054C8.4737 22.3255 8.68754 22.2048 8.96891 22.2048C9.27278 22.2048 9.5654 22.3858 9.813 22.4562C10.1506 22.5568 10.4658 22.3657 10.7696 22.3858C11.3774 22.416 11.3999 22.5568 11.9064 22.4562C12.4353 22.3356 12.6829 22.2149 13.0881 22.2149C13.4482 22.2149 14.146 22.4864 14.4724 22.4864C14.9001 22.4864 15.2152 22.4059 15.3953 22.4059C15.8117 22.4059 16.6671 22.7277 16.9597 22.6975C17.77 22.6975 17.9501 22.2149 19.008 22.2249C19.3456 22.2249 19.672 22.2652 19.9984 22.3356H19.9872Z" fill="#D25246"/>
  <path d="M25.4457 14.5327C25.5358 14.231 25.4457 13.9495 25.4007 13.6377C25.367 13.4165 25.4795 13.1752 25.4795 12.954C25.4795 12.6523 25.3107 12.5719 25.3332 12.3909H27.5729C27.5729 12.8434 27.2802 13.3461 27.2465 13.5975C27.2015 13.9394 27.3703 14.2712 27.2915 14.5327C27.179 14.8343 27.1227 15.1159 27.1114 15.3874C27.0777 15.7996 27.2915 15.679 27.3703 16.0209C27.4153 16.1818 27.269 16.3929 27.4603 16.8052C27.5391 16.9661 27.4378 17.308 27.4828 17.4789C27.5391 17.7403 27.5841 18.0018 27.5841 18.3034C27.5841 18.4643 27.5391 18.6956 27.4716 18.947C27.3815 19.2487 27.5504 20.0229 27.4716 20.3045C27.4153 20.4452 27.3365 20.6564 27.269 20.8274C27.2015 21.0486 27.1339 21.2497 27.1677 21.4106C27.0889 21.7826 27.0889 22.6373 26.3461 23.2608C25.9972 23.5423 25.5808 23.7535 25.1531 23.844C24.7367 23.9345 24.3428 24.0149 23.9376 24.0853L23.2398 24.1859C22.9585 24.2261 22.6771 24.2562 22.3958 24.2361V22.225C22.9247 22.225 22.9135 22.3055 23.2061 22.3256C23.4424 22.3457 23.7013 22.2351 23.8363 22.225C24.0164 22.2049 24.2415 22.3457 24.4328 22.3457C24.7029 22.3457 24.7817 22.0642 24.928 21.9636C25.2432 21.7323 25.3782 21.7726 25.4345 21.4407C25.457 21.0888 25.3219 20.9581 25.3219 20.7167C25.3219 20.395 25.6258 19.7715 25.6258 19.4799C25.6258 19.0978 25.5245 18.8163 25.5245 18.6554C25.5245 18.2833 25.8847 17.5191 25.8509 17.2577C25.8509 16.5337 25.3107 16.3728 25.3219 15.4276C25.3219 15.1259 25.3557 14.8343 25.4345 14.5427L25.4457 14.5327Z" fill="#D25246"/>
  <path d="M24.1743 2.37571C24.0055 2.18466 23.7466 2.14444 23.499 2.11427C23.3302 2.08411 23.1614 1.94333 22.97 1.92322C22.7112 1.883 22.6436 2.04389 22.4861 2.01372V0.0126953C23.1389 0.0126953 23.7804 0.414911 24.0842 0.545631C24.5007 0.706518 24.9734 0.776906 25.2322 1.01824C25.5136 1.30984 25.7499 1.56123 25.9525 1.81261C26.2564 2.20477 26.3464 1.9735 26.6728 2.28522C26.8304 2.4461 26.8416 2.70754 27.2018 3.12987C27.3481 3.30081 27.3706 3.74325 27.4381 3.95441C27.4944 4.1153 27.5169 4.27619 27.5507 4.44713C27.5732 4.61807 27.5844 4.73873 27.5844 4.88956C27.5844 5.05045 27.5394 5.28172 27.4719 5.53311C27.3818 5.83477 27.5507 6.60904 27.4719 6.89059C27.3818 7.1822 27.1117 7.61458 27.258 7.84585C27.258 8.15757 27.5732 8.71062 27.5619 9.33405C27.5619 9.63571 27.5281 9.92732 27.4494 10.2189C27.3706 10.4904 27.3818 10.772 27.4156 11.0435L27.5169 11.5965C27.5619 11.8479 27.5957 12.0993 27.5732 12.3507H25.3335C25.3335 11.8781 25.4235 11.8881 25.446 11.6267C25.4573 11.4055 25.3335 11.2144 25.3335 10.963C25.3335 10.6915 25.5361 10.4301 25.6149 10.2089C25.7274 9.90721 25.5136 9.62566 25.5248 9.35416C25.5698 8.81117 25.7162 8.79106 25.6036 8.33857C25.4798 7.86596 25.3335 7.64474 25.3335 7.28275C25.3335 6.96098 25.6374 6.33754 25.6374 6.04594C25.6374 5.66383 25.5361 5.38228 25.5361 5.22139C25.5361 5.0404 25.6261 4.73873 25.7049 4.48735C25.7837 4.26613 25.8287 4.03486 25.7949 3.9343C25.6036 3.33098 25.0746 3.39131 24.6357 2.86843C24.4894 2.69749 24.3206 2.54666 24.1743 2.3556V2.37571Z" fill="#D25246"/>
  <path d="M9.89186 1.91322C9.55422 1.83278 9.23909 1.91322 8.8902 1.95344C8.6426 1.98361 8.37249 1.88305 8.12489 1.88305C7.78725 1.88305 7.69721 2.03388 7.49463 2.01377V0.0127489C8.00109 0.0127489 8.56382 0.274189 8.84518 0.304356C9.22784 0.334522 9.59924 0.193746 9.89186 0.264134C10.2295 0.364688 10.5446 0.414965 10.8485 0.435076C11.3099 0.465242 11.1749 0.274189 11.5575 0.193746C11.7376 0.153525 11.974 0.284245 12.4354 0.123358C12.6155 0.0529705 12.9981 0.133414 13.1895 0.103248C13.4821 0.0529705 13.7747 0.0127489 14.1123 0.0127489C14.2924 0.0127489 14.5513 0.0630259 14.8326 0.113303C15.1703 0.193746 16.0369 0.0328597 16.352 0.113303C16.6784 0.193746 17.1623 0.435076 17.4212 0.304356C17.7701 0.304356 18.3891 0.0127489 19.0869 0.0228043C19.4245 0.0228043 19.7509 0.0630259 20.0773 0.123358C20.3811 0.193746 20.6963 0.183691 21.0001 0.153525L21.6192 0.0630259C21.9005 0.0228043 22.1819 -0.00736188 22.4632 0.0127489V2.01377C21.9343 2.01377 21.9455 1.93333 21.6529 1.92327C21.4053 1.90316 21.1915 2.01377 20.9101 2.01377C20.6062 2.01377 20.3136 1.83278 20.066 1.76239C19.7284 1.67189 19.4132 1.86294 19.1094 1.84283C18.5016 1.81267 18.4791 1.67189 17.9727 1.77244C17.4437 1.88305 17.1961 2.01377 16.7909 2.01377C16.4308 2.01377 15.733 1.74228 15.4066 1.74228C14.9789 1.74228 14.6638 1.83278 14.4837 1.83278C14.0673 1.83278 13.212 1.511 12.9193 1.54117C12.109 1.54117 11.9289 2.01377 10.871 2.00372C10.5334 2.00372 10.207 1.97355 9.8806 1.90316L9.89186 1.91322Z" fill="#D25246"/>
  <path d="M2.5539 8.47935C2.46386 8.78101 2.5539 9.06256 2.59892 9.37428C2.63268 9.5955 2.52014 9.83683 2.52014 10.058C2.52014 10.3597 2.68896 10.4402 2.66645 10.6212H0.426782C0.426782 10.1687 0.719402 9.66589 0.753165 9.4145C0.798184 9.07262 0.629365 8.74079 0.708147 8.47935C0.820693 8.17769 0.876966 7.89614 0.888221 7.62464C0.921984 7.21237 0.708147 7.33303 0.629365 6.99115C0.584346 6.83026 0.730656 6.6191 0.539328 6.20683C0.460546 6.04594 0.561837 5.70406 0.516819 5.53312C0.460546 5.27168 0.415527 5.01024 0.415527 4.70858C0.415527 4.57786 0.4718 4.24603 0.573092 3.94436C0.674383 3.57231 0.876966 2.607 1.19209 2.3355C1.47346 2.03384 2.04744 1.80256 2.15999 1.52101C2.44136 1.25957 2.86903 0.585861 3.73563 0.314365C4.1408 0.17359 4.57973 0.133368 4.9849 0.163534C5.40132 0.203756 5.70519 0.203756 6.00906 0.163534L6.62807 0.0730357C6.90943 0.0328141 7.1908 0.00264788 7.47216 0.0227587V2.02378C6.9432 2.02378 6.95445 1.94334 6.66183 1.93328C6.41423 1.91317 6.20039 2.02378 5.91903 2.02378C5.76146 2.02378 5.61515 1.97351 5.46884 1.92323C5.36755 1.87295 5.25501 1.81262 5.15371 1.78245C4.87235 1.72212 4.66977 1.9534 4.45593 2.00367C4.017 2.12434 3.91571 2.02378 3.6456 2.31539C3.398 2.63716 3.38674 2.83827 3.20667 3.03938C3.0491 3.20027 2.5539 3.51198 2.48637 3.75331C2.38508 4.04492 2.47512 4.27619 2.46386 4.39686C2.44136 4.68846 2.10372 5.51301 2.12623 5.75434C2.12623 6.47833 2.66645 6.63921 2.65519 7.58442C2.65519 7.88608 2.62143 8.17769 2.54265 8.46929L2.5539 8.47935Z" fill="#D25246"/>
  <path d="M2.5539 21.863C2.46386 22.1646 2.5539 22.4462 2.59892 22.7579C2.63268 22.9791 2.52014 23.2205 2.52014 23.4417C2.52014 23.7433 2.68896 23.8238 2.66645 24.0048H0.426782C0.426782 23.5523 0.719402 23.0495 0.753165 22.7981C0.798184 22.4563 0.629365 22.1244 0.708147 21.863C0.820693 21.5613 0.876966 21.2798 0.888221 21.0083C0.921984 20.596 0.708147 20.7167 0.629365 20.3748C0.584346 20.2139 0.730656 20.0027 0.539328 19.5905C0.460546 19.4296 0.561837 19.0877 0.516819 18.9168C0.460546 18.6553 0.415527 18.3939 0.415527 18.0922C0.415527 17.9313 0.460546 17.7001 0.528073 17.4487C0.61811 17.147 0.449291 16.3727 0.528073 16.0912C0.61811 15.7996 0.888221 15.3672 0.741911 15.1359C0.741911 14.8242 0.426782 14.2712 0.438037 13.6477C0.438037 13.3461 0.4718 13.0545 0.550583 12.7628C0.629365 12.4914 0.61811 12.2098 0.584346 11.9383L0.483055 11.3853C0.438037 11.1339 0.404273 10.8825 0.426782 10.6311H2.66645C2.66645 11.1037 2.57641 11.0937 2.5539 11.3551C2.54265 11.5763 2.66645 11.7674 2.66645 12.0187C2.66645 12.2902 2.46386 12.5517 2.38508 12.7729C2.27254 13.0746 2.48637 13.3561 2.47512 13.6276C2.4301 14.1706 2.28379 14.1907 2.39634 14.6432C2.52014 15.1158 2.66645 15.337 2.66645 15.699C2.66645 16.0208 2.36257 16.6442 2.36257 16.9358C2.36257 17.3179 2.46386 17.5995 2.46386 17.7604C2.46386 18.1324 2.10372 18.8966 2.13748 19.1581C2.13748 19.8821 2.6777 20.043 2.66645 20.9882C2.66645 21.2898 2.63268 21.5814 2.5539 21.873V21.863Z" fill="#D25246"/>
  <path d="M10.4884 27.896C10.8261 27.9664 11.1412 27.896 11.4901 27.8458C11.7377 27.8156 12.0078 27.9161 12.2554 27.9161C12.593 27.9161 12.6831 27.7754 12.8857 27.7854V29.7864C12.3792 29.7864 11.8165 29.525 11.5351 29.4948C11.1525 29.4647 10.781 29.6055 10.4884 29.5351C10.1508 29.4446 9.83566 29.3943 9.53179 29.3742C9.07035 29.344 9.20541 29.5351 8.82275 29.6054C8.64268 29.6457 8.40633 29.515 7.94489 29.6859C7.76482 29.7563 7.38216 29.6658 7.19083 29.706C6.89821 29.7563 6.60559 29.7864 6.26796 29.7864C6.08788 29.7864 5.82903 29.7462 5.54766 29.6859C5.15375 29.6356 4.02829 29.6256 3.69065 29.3842C3.31925 29.1731 2.9591 28.7206 2.64397 28.6502C2.31759 28.439 1.50726 28.1675 1.06833 27.4435C0.877002 27.1017 0.730692 26.7296 0.719438 26.3676C0.685674 26.0157 0.640656 25.6838 0.595637 25.342L0.494346 24.7688C0.449327 24.5174 0.415564 24.266 0.438073 24.0146H2.67774C2.67774 24.4873 2.5877 24.4772 2.56519 24.7386C2.55394 24.9397 2.66648 25.1911 2.67774 25.3621C2.67774 25.5531 2.50892 25.7743 2.48641 25.9553C2.44139 26.2268 2.75652 26.3576 2.82405 26.5386C3.02663 26.9106 2.93659 27.0112 3.28549 27.2022C3.6794 27.3732 3.90449 27.343 4.15209 27.4838C4.35467 27.5944 4.77109 27.9966 5.05246 28.0167C5.22128 28.0469 5.36759 28.0167 5.49139 28.0066C5.64895 27.9865 5.77275 27.9664 5.86279 27.9664C6.27921 27.9664 7.13456 28.2882 7.42718 28.258C8.23751 28.258 8.41758 27.7754 9.47552 27.7854C9.81315 27.7854 10.1395 27.8256 10.4659 27.896H10.4884Z" fill="#D25246"/>
  <path d="M25.4796 27.8963C25.5696 27.9164 25.6484 27.9264 25.7272 27.9264C25.7835 27.9264 25.6822 27.9264 25.6709 27.9264C25.5921 27.9264 25.5021 27.9566 25.4346 28.0169C25.322 28.1275 25.4571 28.2784 25.5246 28.3387C25.6034 28.4292 25.6259 28.58 25.7722 28.58V26.579C26.4587 26.569 27.1003 27.0416 27.2578 27.5544C27.4491 28.0773 27.2578 28.5097 27.1003 28.751C26.9089 29.0828 26.5938 29.3442 26.2224 29.475C26.1324 29.5051 26.0311 29.5252 25.9298 29.5454C25.851 29.5454 25.7835 29.5554 25.7159 29.5655C25.6372 29.5655 25.5584 29.5655 25.4796 29.5454C25.142 29.4549 24.8268 29.4046 24.523 29.3845C24.0615 29.3543 24.1966 29.5454 23.8139 29.6157C23.6338 29.656 23.3975 29.5252 22.9361 29.6962C22.756 29.7666 22.3733 29.6761 22.182 29.7163C21.8894 29.7666 21.5968 29.7967 21.2591 29.7967C21.079 29.7967 20.8202 29.7565 20.5388 29.6962C20.2012 29.6157 19.3346 29.7766 19.0195 29.6962C18.6931 29.6157 18.2091 29.3744 17.9503 29.5051C17.6014 29.5051 16.9824 29.7867 16.2846 29.7867C15.9469 29.7867 15.6206 29.7465 15.2942 29.6761C14.9903 29.6057 14.6752 29.6157 14.3713 29.656L13.7523 29.7364C13.4709 29.7766 13.1896 29.8068 12.9082 29.7867V27.7756C13.4372 27.7756 13.4259 27.856 13.7185 27.8762C13.9661 27.8963 14.18 27.7756 14.4613 27.7756C14.7652 27.7756 15.0578 27.9566 15.3054 28.027C15.6431 28.1275 15.9582 27.9365 16.2621 27.9566C16.8698 27.9868 16.8923 28.1275 17.3988 28.027C17.9278 27.9063 18.1754 27.7857 18.5805 27.7857C18.9407 27.7857 19.6385 28.0572 19.9648 28.0572C20.3925 28.0572 20.7076 27.9767 20.8877 27.9767C21.3041 27.9767 22.1595 28.2985 22.4521 28.2683C23.2624 28.2683 23.4425 27.7857 24.5004 27.7957C24.8381 27.7957 25.1645 27.8359 25.4908 27.9063L25.4796 27.8963Z" fill="#D25246"/>
  <path d="M20.235 13.9794C20.325 14.6934 20.7527 15.2464 21.1241 15.8799C21.3942 16.3324 21.4167 16.9257 21.6531 17.4184C21.9569 18.082 22.3396 18.1424 22.5084 18.5647L18.3667 20.1233C17.894 19.1278 17.9165 17.7904 17.7252 17.177C17.4551 16.3726 16.8248 15.709 16.7461 15.0252C16.6785 14.2409 16.5547 13.537 16.3972 12.8834C16.1833 11.8678 15.8457 12.2398 15.4743 11.4052C15.3055 11.0533 15.4968 10.5204 14.8778 9.70588C14.6414 9.39416 14.5852 8.6199 14.3713 8.28807L14.1462 7.91602C14.1462 7.91602 14.0562 7.75513 14.045 7.76519H14.0112L13.9662 7.79535C13.9662 7.79535 14.045 7.68474 14.0112 7.49369C13.9887 7.38308 13.8874 7.41325 13.8649 7.49369C13.8311 7.57413 13.8649 7.66463 13.8311 7.67469C13.8311 7.67469 13.7974 7.70485 13.7748 7.70485C13.7298 7.70485 13.651 7.71491 13.561 7.74508C13.4372 7.8758 13.2796 8.0769 13.1558 8.23779C12.897 8.57967 12.7057 8.94167 12.7507 9.23327C12.5031 9.94721 12.7057 11.3449 12.2442 12.7728C12.0191 13.4666 11.7265 14.1403 11.3551 14.7738C10.995 15.3872 10.7924 16.0408 10.6236 16.7145L10.2972 18.0921C10.1396 18.7155 9.93702 19.339 9.61064 19.9121L5.49146 18.3234C5.95289 17.348 6.08795 17.4184 6.36931 16.8754C6.58315 16.4128 6.51562 15.9302 6.71821 15.3671C6.9433 14.7637 7.52854 14.2911 7.83241 13.8286C8.26009 13.185 8.0575 12.4409 8.29385 11.8376C8.76654 10.5908 9.08167 10.631 9.18296 9.50477C9.30676 8.32829 9.21673 7.73502 9.55437 6.8602C9.58813 6.7697 9.63315 6.6792 9.67817 6.57865C9.7682 6.41776 9.85824 6.23677 9.95953 6.05577C10.1734 5.66361 10.4097 5.27145 10.6461 4.87929C11.0175 4.52735 11.3551 4.1553 11.6702 3.89386C12.0079 3.68269 12.3568 3.52181 12.6381 3.4112C14.045 2.85815 15.283 3.20004 15.7669 3.52181C16.0483 3.70281 16.3634 4.02458 16.6223 4.49718C16.8811 4.96979 17.0837 5.553 17.2413 6.08594C17.4326 6.68926 17.4326 6.94064 17.4889 7.25236C17.5339 7.54397 17.5902 7.7853 17.6577 7.94618C17.9503 8.821 18.3442 9.30366 18.7606 9.85671C18.9632 10.1282 19.1658 10.45 19.3459 10.7919C19.5147 11.1136 19.6723 11.4957 19.8186 11.9985C19.9986 12.6421 20.1562 13.2957 20.2462 13.9593H20.235V13.9794Z" fill="#9ED2F0"/>
  <path d="M15.6091 9.90687C15.7666 10.0577 15.9017 9.88676 16.0593 9.80632C16.1718 9.74599 16.2956 9.9471 16.4082 9.93704C16.5657 9.93704 16.5995 9.64543 16.7008 9.66555L16.667 13.6776C16.4532 13.6776 16.2056 13.1648 16.0818 13.1045C15.913 13.0341 15.7554 13.3458 15.6203 13.195C15.474 13.0039 15.3277 12.9134 15.2039 12.8732C15.0013 12.8129 15.0576 13.195 14.9 13.3559C14.8213 13.4363 14.72 13.1749 14.5174 13.5168C14.4386 13.6475 14.2698 13.4866 14.191 13.567C14.0672 13.6676 13.9434 13.738 13.7971 13.748C13.7183 13.748 13.6058 13.6575 13.482 13.557C13.3244 13.4062 12.9643 13.7179 12.8179 13.567C12.6716 13.4062 12.4465 12.9436 12.334 13.195C12.1764 13.195 11.9288 13.7782 11.625 13.7581C11.4786 13.7581 11.3323 13.6978 11.186 13.557C11.0397 13.4263 10.9047 13.4464 10.7809 13.5168L10.522 13.6877C10.3982 13.7681 10.2857 13.8285 10.1619 13.7983L9.93677 9.79626C10.1731 9.79626 10.1844 9.9471 10.3194 9.97726C10.432 10.0074 10.522 9.78621 10.6458 9.77615C10.7809 9.77615 10.9384 10.1381 11.051 10.2689C11.2085 10.4599 11.3436 10.0678 11.4786 10.108C11.76 10.1683 11.7713 10.4499 11.9964 10.2286C12.2215 9.99737 12.334 9.73593 12.5141 9.73593C12.6829 9.73593 13.0093 10.2588 13.1556 10.2588C13.3469 10.2588 13.482 10.0778 13.572 10.0778C13.7633 10.0778 14.1572 10.7013 14.2923 10.651C14.6524 10.651 14.72 9.68566 15.2039 9.69571C15.3615 9.69571 15.5078 9.75604 15.6541 9.89682L15.6091 9.90687Z" fill="#9ED2F0"/>
  <path d="M11.4001 27.2976C11.4001 27.2976 11.3664 27.2473 11.3664 27.187C11.3664 27.1468 11.3889 27.0965 11.3889 27.0462C11.3889 26.9859 11.3551 26.9256 11.3776 26.8652C11.4001 26.8049 11.4001 26.7446 11.4114 26.6842C11.4114 26.4932 11.2876 26.463 11.2876 26.3222C11.2876 26.272 11.3664 26.1111 11.3664 26.0407C11.3664 26.0206 11.3664 25.9804 11.3551 25.9502H5.57024C5.57024 25.9502 5.57024 25.9904 5.57024 26.0306C5.57024 26.091 5.50271 26.2116 5.50271 26.282C5.50271 26.3524 5.53647 26.4027 5.57024 26.4932C5.604 26.5837 5.57024 26.5837 5.54773 26.6943C5.54773 26.7446 5.59275 26.8049 5.57024 26.8652C5.54773 26.9055 5.50271 26.9658 5.50271 27.0161C5.50271 27.0663 5.53647 27.1066 5.52522 27.1468C5.52522 27.1971 5.50271 27.1971 5.50271 27.2876C5.50271 27.4082 5.53647 27.4585 5.53647 27.6395C5.53647 27.7803 5.51396 27.9311 5.51396 28.0618C5.51396 28.2529 5.54773 28.4339 5.52522 28.6249C5.50271 28.8059 5.50271 28.9869 5.49146 29.178C5.49146 29.7712 5.61526 29.8617 5.61526 30.3243C5.61526 30.4952 5.53647 30.9678 5.53647 31.1991C5.53647 31.2997 5.55898 31.4807 5.55898 31.722C5.55898 31.7924 5.55898 31.8829 5.53647 31.9935V31.9633C5.604 31.9332 5.64902 31.903 5.69404 31.8728C5.76157 31.8125 5.87411 31.7019 6.03168 31.5712C6.15548 31.4706 6.45935 31.3399 6.59441 31.2393C6.75197 31.1187 6.8195 31.0081 7.01083 30.817C7.1909 30.636 7.21341 30.6662 7.44976 30.4952C7.5623 30.4148 7.65234 30.264 7.79865 30.1936L8.1588 30.0126C8.27134 29.9321 8.32761 29.8316 8.42891 29.7612C8.44016 29.7612 8.45141 29.7411 8.46267 29.7411C8.46267 29.7411 8.47392 29.7511 8.48518 29.7612C8.55271 29.8215 8.62023 29.902 8.68776 29.9422C8.82282 30.0327 8.95787 30.1031 9.07042 30.2237C9.18296 30.3343 9.30676 30.445 9.43057 30.5455C9.82448 30.8673 9.95953 30.7768 10.2747 31.0181C10.3872 31.0986 10.6686 31.4404 10.8261 31.5712C10.8937 31.6315 11.0287 31.6918 11.1863 31.8225C11.2313 31.8628 11.2876 31.9231 11.3551 31.9935V31.9633C11.3551 31.8929 11.3551 31.8225 11.3551 31.7622C11.3551 31.6617 11.3326 31.4807 11.3326 31.2393C11.3326 31.0583 11.4001 30.6662 11.4001 30.4651C11.4001 30.2338 11.3664 30.093 11.3326 29.8014C11.2988 29.5199 11.3326 29.5098 11.3551 29.1679C11.3551 28.997 11.3101 28.826 11.3326 28.635C11.3551 28.4942 11.4001 28.3333 11.4001 28.1624C11.4001 28.0015 11.3664 27.8808 11.3776 27.7501C11.3776 27.5892 11.4001 27.5892 11.4001 27.2976Z" fill="#FFE51D"/>
</svg>